<svg width="152" height="35" viewBox="0 0 152 35" fill="none" xmlns="http://www.w3.org/2000/svg">
<path d="M146.584 27.6703C146.997 27.0292 147.235 26.3262 147.297 25.5611C147.359 24.796 147.39 24.0413 147.39 23.2969C146.791 24.062 146.057 24.5996 145.188 24.9098C144.32 25.2199 143.379 25.375 142.366 25.375C141.187 25.375 140.163 25.1993 139.295 24.8477C138.447 24.4962 137.775 23.9586 137.279 23.2349C136.783 22.5732 136.441 21.7977 136.255 20.9086C136.069 19.9988 135.976 19.0166 135.976 17.962V8.78101H140.349V17.4347C140.349 17.993 140.391 18.541 140.474 19.0786C140.577 19.5955 140.784 20.0298 141.094 20.3813C141.59 21.1257 142.49 21.4979 143.792 21.4979C144.413 21.4979 144.992 21.3738 145.529 21.1257C146.067 20.8569 146.491 20.4433 146.801 19.885C147.07 19.4094 147.235 18.9132 147.297 18.3962C147.359 17.8586 147.39 17.2796 147.39 16.6593V8.78101H151.795V22.2113C151.795 22.9557 151.784 23.7208 151.764 24.5065C151.764 25.2716 151.702 26.0264 151.578 26.7708C151.474 27.5152 151.278 28.2389 150.988 28.942C150.699 29.645 150.296 30.2964 149.779 30.896C149.055 31.7231 148.104 32.3848 146.925 32.8811C145.767 33.3774 144.371 33.6152 142.738 33.5945C141.538 33.6152 140.349 33.4497 139.171 33.0982C137.992 32.7674 136.907 32.2814 135.914 31.6404L137.31 27.9184C137.847 28.3113 138.561 28.6731 139.45 29.004C140.36 29.3348 141.425 29.5003 142.645 29.5003C143.637 29.5003 144.444 29.3348 145.064 29.004C145.705 28.6938 146.212 28.2492 146.584 27.6703Z" fill="#292C32"/>
<path d="M126.408 21.4979C127.235 21.4979 127.886 21.3015 128.362 20.9086C128.858 20.5157 129.158 20.0711 129.261 19.5749H133.852C133.707 20.6294 133.407 21.5186 132.952 22.2423C132.497 22.966 131.929 23.5657 131.246 24.0413C130.585 24.5169 129.83 24.8581 128.982 25.0648C128.134 25.2716 127.255 25.375 126.346 25.375C124.981 25.375 123.792 25.1889 122.779 24.8167C121.786 24.4238 120.959 23.8655 120.297 23.1418C119.636 22.3974 119.129 21.5082 118.778 20.4744C118.447 19.4198 118.281 18.2411 118.281 16.9384C118.281 15.6771 118.467 14.5191 118.84 13.4645C119.212 12.41 119.739 11.5105 120.421 10.7661C121.124 10.0217 121.983 9.45304 122.996 9.06016C124.009 8.6466 125.167 8.43982 126.47 8.43982C127.421 8.43982 128.31 8.55355 129.137 8.78101C129.985 9.00846 130.729 9.35999 131.37 9.83558C132.032 10.3112 132.57 10.9212 132.983 11.6656C133.417 12.3893 133.707 13.2578 133.852 14.271H129.261C129.158 13.7747 128.848 13.3301 128.331 12.9373C127.834 12.5444 127.183 12.3479 126.377 12.3479C125.694 12.3479 125.105 12.472 124.609 12.7201C124.112 12.9683 123.72 13.3095 123.43 13.7437C123.141 14.1779 122.934 14.6742 122.81 15.2325C122.686 15.7908 122.624 16.3801 122.624 17.0005C122.624 17.6622 122.696 18.2722 122.841 18.8305C122.985 19.3681 123.203 19.8437 123.492 20.2572C123.782 20.6501 124.164 20.9603 124.64 21.1877C125.136 21.3945 125.725 21.4979 126.408 21.4979Z" fill="#292C32"/>
<path d="M104.967 10.8592C106.29 9.26698 107.924 8.46054 109.868 8.43986C110.922 8.41919 111.853 8.59495 112.659 8.96715C113.466 9.31868 114.117 9.80461 114.613 10.4249C115.213 11.1487 115.626 11.9965 115.854 12.9683C116.081 13.9195 116.195 14.9844 116.195 16.1631V25.1269H111.791V16.5042C111.791 15.9253 111.729 15.3773 111.604 14.8604C111.501 14.3227 111.315 13.8678 111.046 13.4956C110.777 13.1027 110.416 12.8132 109.961 12.6271C109.526 12.441 109.03 12.348 108.472 12.348C107.769 12.3687 107.169 12.5238 106.673 12.8132C106.197 13.1027 105.835 13.4749 105.587 13.9298C105.339 14.3641 105.163 14.8604 105.06 15.4187C104.977 15.9563 104.936 16.5042 104.936 17.0625V25.1269H100.562V8.78105H104.75L104.967 10.8592Z" fill="#292C32"/>
<path d="M90.7243 21.8081C91.3446 21.8081 91.8719 21.715 92.3062 21.5289C92.7611 21.3221 93.1333 20.9913 93.4228 20.5364H98.0133C97.7858 21.3842 97.4343 22.1182 96.9587 22.7386C96.5038 23.3589 95.9455 23.8655 95.2838 24.2584C94.6428 24.6513 93.9294 24.9408 93.1436 25.1269C92.3579 25.2923 91.5307 25.375 90.6623 25.375C88.0155 25.375 86.0097 24.6306 84.645 23.1418C83.3009 21.653 82.6289 19.5645 82.6289 16.8764C82.6289 15.6564 82.8047 14.5295 83.1562 13.4956C83.5284 12.4617 84.0453 11.5725 84.707 10.8281C85.3687 10.063 86.1855 9.47371 87.1574 9.06016C88.1499 8.6466 89.2769 8.43982 90.5382 8.43982C92.0063 8.43982 93.278 8.69829 94.3533 9.21524C95.4285 9.73219 96.2763 10.4456 96.8967 11.3554C97.5377 12.2446 97.9616 13.2888 98.1683 14.4881C98.3958 15.6874 98.3958 16.9695 98.1683 18.3342H87.0023C87.085 19.3061 87.4262 20.1332 88.0258 20.8155C88.6255 21.4772 89.525 21.8081 90.7243 21.8081ZM94.1051 15.3256C94.1051 14.8086 94.0121 14.3537 93.826 13.9608C93.6399 13.5473 93.3918 13.2164 93.0816 12.9683C92.7714 12.6995 92.3992 12.503 91.965 12.379C91.5514 12.2549 91.1172 12.1929 90.6623 12.1929C89.5663 12.2135 88.7082 12.5134 88.0879 13.0923C87.4882 13.6506 87.1367 14.3951 87.0333 15.3256H94.1051Z" fill="#292C32"/>
<path d="M76.034 23.452C75.4137 24.1551 74.6693 24.6514 73.8008 24.9409C72.9323 25.2303 71.9915 25.3751 70.9783 25.3751C69.965 25.3751 68.9725 25.22 68.0006 24.9098C67.0495 24.579 66.2223 24.0517 65.5193 23.328C64.7335 22.5009 64.1856 21.5497 63.8754 20.4744C63.5652 19.3992 63.4102 18.2929 63.4102 17.1556C63.4102 14.4675 64.1546 12.317 65.6434 10.7041C66.2844 10.0011 67.1115 9.45311 68.1247 9.06023C69.1586 8.66735 70.2649 8.48125 71.4435 8.50193C72.2086 8.46057 73.0357 8.59498 73.9249 8.90515C74.814 9.21531 75.5791 9.73226 76.2201 10.456L76.6854 8.78108H80.4694V24.1034C80.4694 24.7651 80.4281 25.4164 80.3454 26.0575C80.2833 26.7192 80.1696 27.3498 80.0042 27.9495C79.8387 28.5698 79.5906 29.1591 79.2598 29.7174C78.8876 30.3998 78.4326 30.9788 77.895 31.4544C77.3781 31.93 76.7991 32.3229 76.1581 32.633C75.5171 32.9639 74.8347 33.2017 74.111 33.3464C73.3872 33.4912 72.6532 33.5635 71.9088 33.5635C70.9576 33.5635 70.0478 33.4498 69.1793 33.2223C68.3108 33.0156 67.5147 32.664 66.791 32.1678C66.0879 31.6922 65.4986 31.0822 65.023 30.3378C64.5681 29.5934 64.2683 28.7042 64.1235 27.6703H68.7761C68.8588 28.1666 69.1896 28.6112 69.7686 29.0041C70.3476 29.3969 71.0506 29.5934 71.8778 29.5934C72.7669 29.5934 73.4906 29.4176 74.0489 29.0661C74.6279 28.7146 75.0622 28.2493 75.3516 27.6703C75.6411 27.0914 75.8272 26.4297 75.9099 25.6853C75.9927 24.9409 76.034 24.1964 76.034 23.452ZM71.9708 21.498C72.6532 21.498 73.2528 21.3739 73.7698 21.1258C74.3074 20.8776 74.7416 20.5468 75.0725 20.1332C75.4033 19.699 75.6515 19.2027 75.8169 18.6444C75.9823 18.0655 76.065 17.4555 76.065 16.8144C76.065 15.5324 75.7032 14.4778 74.9794 13.6507C74.2764 12.8029 73.2632 12.3687 71.9398 12.348C71.2574 12.348 70.6474 12.4721 70.1098 12.7202C69.5928 12.9684 69.1586 13.2992 68.8071 13.7128C68.4762 14.1263 68.2281 14.6122 68.0627 15.1705C67.8973 15.7289 67.8145 16.3285 67.8145 16.9695C67.8145 17.6519 67.8973 18.2722 68.0627 18.8305C68.2488 19.3682 68.5176 19.8438 68.8691 20.2573C69.2206 20.6502 69.6549 20.9604 70.1718 21.1878C70.6888 21.3946 71.2884 21.498 71.9708 21.498Z" fill="#292C32"/>
<path d="M57.1684 23.1108C56.5481 23.9379 55.7933 24.5272 54.9042 24.8787C54.015 25.2303 52.9811 25.3957 51.8025 25.375C50.293 25.3337 49.0316 24.9098 48.0184 24.1033C47.4808 23.6484 47.0569 23.1108 46.7467 22.4904C46.4572 21.8494 46.3125 21.0947 46.3125 20.2262C46.3332 19.3371 46.5296 18.5513 46.9018 17.8689C47.2947 17.1659 47.884 16.5869 48.6698 16.132C49.3315 15.7805 50.0759 15.5323 50.903 15.3876C51.7508 15.2428 52.671 15.1705 53.6635 15.1705H57.0133C57.0753 14.1573 56.8375 13.4025 56.2999 12.9062C55.783 12.3893 55.0489 12.1205 54.0977 12.0998C53.7876 12.0998 53.4671 12.1205 53.1362 12.1618C52.8054 12.2032 52.4952 12.2859 52.2057 12.41C51.9369 12.534 51.6991 12.7098 51.4923 12.9373C51.3062 13.144 51.1821 13.4025 51.1201 13.7127H46.6227C46.7261 12.7201 46.9949 11.893 47.4291 11.2313C47.884 10.549 48.4527 10.001 49.135 9.58744C49.8174 9.17389 50.5721 8.88439 51.3993 8.71897C52.2471 8.53287 53.1155 8.43982 54.0047 8.43982C54.5009 8.43982 55.0076 8.47084 55.5245 8.53287C56.0415 8.57423 56.5481 8.67762 57.0443 8.84304C57.5406 8.98778 58.0058 9.19456 58.4401 9.46338C58.895 9.71151 59.3189 10.0424 59.7118 10.4559C60.4148 11.2624 60.8491 12.1929 61.0145 13.2474C61.2006 14.2813 61.2833 15.2945 61.2626 16.2871V25.1269H57.2614L57.1684 23.1108ZM57.0133 17.9H53.8186C53.5084 17.9 53.1569 17.931 52.764 17.993C52.3711 18.055 52.0299 18.1688 51.7404 18.3342C51.451 18.4996 51.2028 18.7167 50.996 18.9855C50.8099 19.2544 50.7169 19.5852 50.7169 19.9781C50.7169 20.3089 50.7789 20.5984 50.903 20.8466C51.0477 21.0947 51.2235 21.3015 51.4303 21.4669C51.6577 21.6323 51.9265 21.7667 52.2367 21.8701C52.5469 21.9528 52.8571 21.9942 53.1672 21.9942C53.7669 22.0149 54.3252 21.9115 54.8421 21.684C55.3798 21.4566 55.845 21.136 56.2379 20.7225C56.486 20.3916 56.6721 20.0194 56.7962 19.6059C56.9409 19.1716 57.0133 18.603 57.0133 17.9Z" fill="#292C32"/>
<path fill-rule="evenodd" clip-rule="evenodd" d="M34.435 18.2163C34.2598 21.2784 33.2697 24.2449 31.5591 26.805C29.6657 29.6387 26.9745 31.8473 23.8258 33.1515C20.6772 34.4558 17.2125 34.797 13.8699 34.1321C10.5273 33.4672 7.4569 31.8261 5.04702 29.4162C2.63714 27.0063 0.995992 23.9359 0.331108 20.5933C-0.333777 17.2507 0.00746617 13.786 1.31168 10.6374C2.6159 7.48873 4.82452 4.79753 7.65823 2.9041C10.2184 1.19348 13.1848 0.20343 16.247 0.0281982V8.67228C14.8914 8.82822 13.5873 9.30457 12.4449 10.0679C11.0281 11.0146 9.92374 12.3602 9.27163 13.9345C8.61953 15.5088 8.4489 17.2412 8.78135 18.9125C9.11379 20.5838 9.93436 22.119 11.1393 23.3239C12.3442 24.5289 13.8794 25.3494 15.5507 25.6819C17.222 26.0143 18.9544 25.8437 20.5287 25.1916C22.103 24.5395 23.4486 23.4352 24.3954 22.0183C25.1586 20.876 25.635 19.5718 25.7909 18.2163H34.435Z" fill="#292C32"/>
<path fill-rule="evenodd" clip-rule="evenodd" d="M25.8407 0H18.793V8.61577H25.8407L25.8407 15.6647L34.4564 15.6647L34.4564 8.61577H34.4581V0H32.8803H25.8407Z" fill="#292C32"/>
</svg>
