<svg width="137" height="32" viewBox="0 0 137 32" fill="none" xmlns="http://www.w3.org/2000/svg">
<path d="M131.772 25.2334C132.143 24.6571 132.357 24.0251 132.413 23.3373C132.469 22.6495 132.497 21.971 132.497 21.3018C131.958 21.9896 131.298 22.4729 130.517 22.7518C129.736 23.0306 128.89 23.17 127.979 23.17C126.92 23.17 126 23.012 125.219 22.696C124.457 22.38 123.853 21.8967 123.407 21.246C122.96 20.6512 122.654 19.9541 122.486 19.1548C122.319 18.3369 122.235 17.4539 122.235 16.5058V8.25232H126.167V16.0318C126.167 16.5337 126.204 17.0263 126.279 17.5097C126.372 17.9744 126.557 18.3647 126.836 18.6808C127.282 19.35 128.091 19.6846 129.262 19.6846C129.82 19.6846 130.34 19.573 130.824 19.35C131.307 19.1083 131.688 18.7365 131.967 18.2346C132.208 17.8071 132.357 17.3609 132.413 16.8962C132.469 16.4129 132.497 15.8924 132.497 15.3347V8.25232H136.456V20.3259C136.456 20.9951 136.447 21.6829 136.428 22.3893C136.428 23.0771 136.372 23.7556 136.261 24.4248C136.168 25.094 135.991 25.7446 135.731 26.3766C135.471 27.0086 135.108 27.5942 134.644 28.1333C133.993 28.8768 133.138 29.4717 132.078 29.9178C131.037 30.364 129.783 30.5777 128.314 30.5591C127.236 30.5777 126.167 30.429 125.107 30.113C124.048 29.8156 123.072 29.3787 122.18 28.8025L123.434 25.4565C123.918 25.8096 124.559 26.135 125.358 26.4324C126.176 26.7298 127.134 26.8785 128.23 26.8785C129.123 26.8785 129.848 26.7298 130.405 26.4324C130.982 26.1535 131.437 25.7539 131.772 25.2334Z" fill="white"/>
<path d="M113.634 19.6846C114.377 19.6846 114.963 19.5081 115.39 19.1549C115.836 18.8017 116.106 18.402 116.199 17.9559H120.326C120.196 18.9039 119.926 19.7032 119.517 20.3539C119.108 21.0045 118.597 21.5435 117.983 21.9711C117.389 22.3986 116.71 22.7054 115.948 22.8913C115.186 23.0771 114.396 23.1701 113.578 23.1701C112.351 23.1701 111.282 23.0028 110.371 22.6682C109.479 22.315 108.735 21.8131 108.141 21.1625C107.546 20.4933 107.09 19.6939 106.774 18.7645C106.477 17.8164 106.328 16.7569 106.328 15.5858C106.328 14.4518 106.495 13.4109 106.83 12.4628C107.165 11.5148 107.639 10.7061 108.252 10.0369C108.884 9.36774 109.656 8.85654 110.566 8.50335C111.477 8.13157 112.518 7.94568 113.689 7.94568C114.544 7.94568 115.344 8.04792 116.087 8.2524C116.85 8.45688 117.519 8.77289 118.095 9.20044C118.69 9.62799 119.173 10.1764 119.545 10.8456C119.935 11.4962 120.196 12.2769 120.326 13.1878H116.199C116.106 12.7416 115.827 12.342 115.362 11.9888C114.916 11.6356 114.331 11.459 113.606 11.459C112.992 11.459 112.463 11.5705 112.016 11.7936C111.57 12.0167 111.217 12.3234 110.957 12.7138C110.697 13.1041 110.511 13.5503 110.399 14.0522C110.288 14.5541 110.232 15.0839 110.232 15.6415C110.232 16.2364 110.297 16.7848 110.427 17.2867C110.557 17.77 110.752 18.1975 111.013 18.5693C111.273 18.9225 111.617 19.2013 112.044 19.4058C112.49 19.5917 113.02 19.6846 113.634 19.6846Z" fill="white"/>
<path d="M94.3579 10.1206C95.5476 8.68924 97.0161 7.96427 98.7635 7.94568C99.7115 7.92709 100.548 8.0851 101.273 8.4197C101.998 8.73572 102.584 9.17256 103.03 9.73023C103.569 10.3808 103.941 11.143 104.145 12.0167C104.349 12.8718 104.452 13.8291 104.452 14.8887V22.947H100.492V15.1954C100.492 14.6749 100.437 14.1823 100.325 13.7176C100.232 13.2343 100.065 12.8253 99.8231 12.4907C99.5814 12.1375 99.2561 11.8773 98.8471 11.71C98.4568 11.5427 98.0106 11.459 97.5087 11.459C96.8767 11.4776 96.3376 11.617 95.8915 11.8773C95.4639 12.1375 95.1386 12.4721 94.9156 12.8811C94.6925 13.2714 94.5345 13.7176 94.4416 14.2195C94.3672 14.7028 94.33 15.1954 94.33 15.6973V22.947H90.3984V8.2524H94.1627L94.3579 10.1206Z" fill="white"/>
<path d="M81.5549 19.9635C82.1126 19.9635 82.5866 19.8798 82.977 19.7125C83.386 19.5266 83.7206 19.2292 83.9808 18.8203H88.1076C87.9031 19.5824 87.5871 20.2423 87.1595 20.8C86.7506 21.3577 86.2487 21.8131 85.6538 22.1663C85.0776 22.5195 84.4362 22.7797 83.7299 22.947C83.0235 23.0957 82.2799 23.1701 81.4992 23.1701C79.1198 23.1701 77.3166 22.5009 76.0898 21.1625C74.8815 19.8241 74.2773 17.9466 74.2773 15.53C74.2773 14.4332 74.4354 13.4201 74.7514 12.4907C75.086 11.5612 75.5507 10.7619 76.1455 10.0927C76.7404 9.40492 77.4747 8.87513 78.3483 8.50335C79.2406 8.13157 80.2537 7.94568 81.3876 7.94568C82.7075 7.94568 83.8507 8.17804 84.8173 8.64277C85.7839 9.10749 86.5461 9.74881 87.1038 10.5667C87.68 11.3661 88.0611 12.3048 88.247 13.383C88.4515 14.4611 88.4515 15.6136 88.247 16.8405H78.2089C78.2833 17.7142 78.59 18.4578 79.1291 19.0712C79.6682 19.6661 80.4768 19.9635 81.5549 19.9635ZM84.5943 14.1358C84.5943 13.6711 84.5106 13.2621 84.3433 12.9089C84.176 12.5372 83.9529 12.2397 83.6741 12.0167C83.3953 11.775 83.0607 11.5984 82.6703 11.4869C82.2985 11.3754 81.9081 11.3196 81.4992 11.3196C80.514 11.3382 79.7425 11.6077 79.1848 12.1282C78.6458 12.6301 78.3298 13.2993 78.2368 14.1358H84.5943Z" fill="white"/>
<path d="M68.3486 21.4413C67.7909 22.0733 67.1217 22.5195 66.341 22.7797C65.5602 23.04 64.7144 23.1701 63.8036 23.1701C62.8927 23.1701 62.0004 23.0307 61.1268 22.7518C60.2717 22.4544 59.5281 21.9804 58.8961 21.3298C58.1897 20.5862 57.6971 19.7311 57.4183 18.7645C57.1394 17.7978 57 16.8033 57 15.7809C57 13.3644 57.6692 11.4311 59.0076 9.98116C59.5839 9.34914 60.3274 8.85653 61.2383 8.50334C62.1677 8.15015 63.1623 7.98285 64.2218 8.00143C64.9096 7.96426 65.6532 8.08508 66.4525 8.36392C67.2518 8.64276 67.9396 9.10748 68.5159 9.7581L68.9342 8.25239H72.3359V22.0268C72.3359 22.6217 72.2988 23.2073 72.2244 23.7835C72.1686 24.3784 72.0664 24.9453 71.9177 25.4844C71.769 26.0421 71.5459 26.5719 71.2485 27.0738C70.9139 27.6872 70.5049 28.2077 70.0216 28.6352C69.5569 29.0628 69.0364 29.416 68.4601 29.6948C67.8839 29.9922 67.2704 30.206 66.6198 30.3361C65.9692 30.4663 65.3093 30.5313 64.6401 30.5313C63.785 30.5313 62.9671 30.4291 62.1863 30.2246C61.4056 30.0387 60.6899 29.7227 60.0393 29.2766C59.4073 28.849 58.8775 28.3006 58.4499 27.6314C58.041 26.9622 57.7714 26.1629 57.6413 25.2335H61.8239C61.8982 25.6796 62.1956 26.0793 62.7161 26.4324C63.2366 26.7856 63.8686 26.9622 64.6122 26.9622C65.4115 26.9622 66.0621 26.8042 66.564 26.4882C67.0845 26.1722 67.4749 25.7539 67.7352 25.2335C67.9954 24.713 68.1627 24.1181 68.2371 23.4489C68.3114 22.7797 68.3486 22.1105 68.3486 21.4413ZM64.6959 19.6846C65.3093 19.6846 65.8484 19.5731 66.3131 19.35C66.7964 19.127 67.1868 18.8295 67.4842 18.4578C67.7816 18.0674 68.0047 17.6213 68.1534 17.1193C68.3021 16.5989 68.3765 16.0505 68.3765 15.4742C68.3765 14.3217 68.0512 13.3737 67.4006 12.6301C66.7685 11.868 65.8577 11.4776 64.668 11.459C64.0545 11.459 63.5062 11.5705 63.0228 11.7936C62.5581 12.0167 62.1677 12.3141 61.8517 12.6859C61.5543 13.0576 61.3312 13.4945 61.1825 13.9964C61.0338 14.4983 60.9595 15.0374 60.9595 15.6136C60.9595 16.2271 61.0338 16.7847 61.1825 17.2866C61.3498 17.77 61.5915 18.1975 61.9075 18.5693C62.2235 18.9225 62.6139 19.2013 63.0786 19.4058C63.5433 19.5917 64.0824 19.6846 64.6959 19.6846Z" fill="white"/>
<path d="M51.3881 21.1346C50.8305 21.8781 50.152 22.4079 49.3526 22.724C48.5533 23.04 47.6239 23.1887 46.5643 23.1701C45.2073 23.1329 44.0734 22.7518 43.1625 22.0269C42.6792 21.6179 42.2981 21.1346 42.0193 20.5769C41.759 20.0007 41.6289 19.3222 41.6289 18.5414C41.6475 17.7421 41.8241 17.0357 42.1587 16.4223C42.5119 15.7902 43.0417 15.2698 43.7481 14.8608C44.3429 14.5448 45.0121 14.3217 45.7557 14.1916C46.5178 14.0615 47.345 13.9964 48.2373 13.9964H51.2487C51.3045 13.0855 51.0907 12.407 50.6074 11.9609C50.1427 11.4962 49.4828 11.2545 48.6277 11.2359C48.3488 11.2359 48.0607 11.2545 47.7633 11.2917C47.4659 11.3289 47.187 11.4032 46.9268 11.5148C46.6851 11.6263 46.4713 11.7843 46.2855 11.9888C46.1182 12.1747 46.0066 12.407 45.9509 12.6859H41.9077C42.0007 11.7936 42.2423 11.05 42.6327 10.4552C43.0417 9.84176 43.5529 9.34915 44.1663 8.97737C44.7797 8.60559 45.4582 8.34534 46.2018 8.19663C46.964 8.02933 47.7447 7.94568 48.544 7.94568C48.9902 7.94568 49.4456 7.97356 49.9103 8.02933C50.375 8.06651 50.8305 8.15945 51.2766 8.30816C51.7227 8.43829 52.141 8.62418 52.5314 8.86584C52.9403 9.0889 53.3214 9.38633 53.6746 9.75811C54.3066 10.4831 54.697 11.3196 54.8457 12.2676C55.013 13.1971 55.0874 14.1079 55.0688 15.0002V22.947H51.4718L51.3881 21.1346ZM51.2487 16.4502H48.3767C48.0979 16.4502 47.7819 16.478 47.4287 16.5338C47.0755 16.5896 46.7688 16.6918 46.5085 16.8405C46.2483 16.9892 46.0252 17.1844 45.8393 17.4261C45.672 17.6677 45.5884 17.9652 45.5884 18.3184C45.5884 18.6158 45.6441 18.876 45.7557 19.0991C45.8858 19.3222 46.0438 19.508 46.2297 19.6568C46.4342 19.8055 46.6758 19.9263 46.9547 20.0192C47.2335 20.0936 47.5123 20.1308 47.7912 20.1308C48.3302 20.1494 48.8322 20.0564 49.2969 19.8519C49.7802 19.6475 50.1984 19.3593 50.5516 18.9876C50.7747 18.6901 50.942 18.3555 51.0535 17.9837C51.1837 17.5934 51.2487 17.0822 51.2487 16.4502Z" fill="white"/>
<path fill-rule="evenodd" clip-rule="evenodd" d="M30.9564 16.7345C30.7989 19.4873 29.9088 22.1541 28.371 24.4556C26.6689 27.003 24.2495 28.9885 21.4189 30.161C18.5884 31.3335 15.4737 31.6402 12.4687 31.0425C9.46381 30.4448 6.70361 28.9695 4.53717 26.803C2.37074 24.6366 0.895377 21.8764 0.297659 18.8714C-0.300059 15.8665 0.00671194 12.7518 1.17918 9.92124C2.35164 7.09066 4.33714 4.67132 6.8846 2.96916C9.1861 1.43135 11.8529 0.541319 14.6057 0.383789V8.15465C13.3871 8.29483 12.2147 8.72307 11.1877 9.40925C9.914 10.2603 8.92125 11.47 8.33502 12.8853C7.74878 14.3006 7.5954 15.8579 7.89426 17.3604C8.19312 18.8629 8.9308 20.243 10.014 21.3262C11.0972 22.4094 12.4773 23.1471 13.9798 23.4459C15.4823 23.7448 17.0396 23.5914 18.4549 23.0052C19.8702 22.4189 21.0799 21.4262 21.9309 20.1525C22.6171 19.1255 23.0454 17.9531 23.1855 16.7345H30.9564Z" fill="white"/>
<path fill-rule="evenodd" clip-rule="evenodd" d="M23.2302 0.358398H16.8945V8.10381H23.2302L23.2302 14.4407L30.9756 14.4407L30.9756 8.10381H30.9772V0.358398H29.5588H23.2302Z" fill="white"/>
</svg>
