<svg width="118" height="28" viewBox="0 0 118 28" fill="none" xmlns="http://www.w3.org/2000/svg">
<path d="M113.424 22.0225C113.744 21.5265 113.928 20.9825 113.976 20.3905C114.024 19.7985 114.048 19.2145 114.048 18.6385C113.584 19.2305 113.016 19.6465 112.344 19.8865C111.672 20.1265 110.944 20.2465 110.16 20.2465C109.248 20.2465 108.456 20.1105 107.784 19.8385C107.128 19.5665 106.608 19.1505 106.224 18.5905C105.84 18.0785 105.576 17.4785 105.432 16.7905C105.288 16.0865 105.216 15.3265 105.216 14.5105V7.40649H108.6V14.1025C108.6 14.5345 108.632 14.9585 108.696 15.3745C108.776 15.7745 108.936 16.1105 109.176 16.3825C109.56 16.9585 110.256 17.2465 111.264 17.2465C111.744 17.2465 112.192 17.1505 112.608 16.9585C113.024 16.7505 113.352 16.4305 113.592 15.9985C113.8 15.6305 113.928 15.2465 113.976 14.8465C114.024 14.4305 114.048 13.9825 114.048 13.5025V7.40649H117.456V17.7985C117.456 18.3745 117.448 18.9665 117.432 19.5745C117.432 20.1665 117.384 20.7505 117.288 21.3265C117.208 21.9025 117.056 22.4625 116.832 23.0065C116.608 23.5505 116.296 24.0545 115.896 24.5185C115.336 25.1585 114.6 25.6705 113.688 26.0545C112.792 26.4385 111.712 26.6225 110.448 26.6065C109.52 26.6225 108.6 26.4945 107.688 26.2225C106.776 25.9665 105.936 25.5905 105.168 25.0945L106.248 22.2145C106.664 22.5185 107.216 22.7985 107.904 23.0545C108.608 23.3105 109.432 23.4385 110.376 23.4385C111.144 23.4385 111.768 23.3105 112.248 23.0545C112.744 22.8145 113.136 22.4705 113.424 22.0225Z" fill="#A0A2A7"/>
<path d="M97.8114 17.2465C98.4514 17.2465 98.9554 17.0945 99.3234 16.7905C99.7074 16.4865 99.9394 16.1425 100.019 15.7585H103.571C103.459 16.5745 103.227 17.2625 102.875 17.8225C102.523 18.3825 102.083 18.8465 101.555 19.2145C101.043 19.5825 100.459 19.8465 99.8034 20.0065C99.1474 20.1665 98.4674 20.2465 97.7634 20.2465C96.7074 20.2465 95.7874 20.1025 95.0034 19.8145C94.2354 19.5105 93.5954 19.0785 93.0834 18.5185C92.5714 17.9425 92.1794 17.2545 91.9074 16.4545C91.6514 15.6385 91.5234 14.7265 91.5234 13.7185C91.5234 12.7425 91.6674 11.8465 91.9554 11.0305C92.2434 10.2145 92.6514 9.51846 93.1794 8.94246C93.7234 8.36646 94.3874 7.92646 95.1714 7.62246C95.9554 7.30246 96.8514 7.14246 97.8594 7.14246C98.5954 7.14246 99.2834 7.23046 99.9234 7.40646C100.579 7.58246 101.155 7.85446 101.651 8.22246C102.163 8.59046 102.579 9.06246 102.899 9.63846C103.235 10.1985 103.459 10.8705 103.571 11.6545H100.019C99.9394 11.2705 99.6994 10.9265 99.2994 10.6225C98.9154 10.3185 98.4114 10.1665 97.7874 10.1665C97.2594 10.1665 96.8034 10.2625 96.4194 10.4545C96.0354 10.6465 95.7314 10.9105 95.5074 11.2465C95.2834 11.5825 95.1234 11.9665 95.0274 12.3985C94.9314 12.8305 94.8834 13.2865 94.8834 13.7665C94.8834 14.2785 94.9394 14.7505 95.0514 15.1825C95.1634 15.5985 95.3314 15.9665 95.5554 16.2865C95.7794 16.5905 96.0754 16.8305 96.4434 17.0065C96.8274 17.1665 97.2834 17.2465 97.8114 17.2465Z" fill="#A0A2A7"/>
<path d="M81.2205 9.0145C82.2445 7.7825 83.5085 7.1585 85.0125 7.1425C85.8285 7.1265 86.5485 7.2625 87.1725 7.5505C87.7965 7.8225 88.3005 8.1985 88.6845 8.6785C89.1485 9.2385 89.4685 9.8945 89.6445 10.6465C89.8205 11.3825 89.9085 12.2065 89.9085 13.1185V20.0545H86.5005V13.3825C86.5005 12.9345 86.4525 12.5105 86.3565 12.1105C86.2765 11.6945 86.1325 11.3425 85.9245 11.0545C85.7165 10.7505 85.4365 10.5265 85.0845 10.3825C84.7485 10.2385 84.3645 10.1665 83.9325 10.1665C83.3885 10.1825 82.9245 10.3025 82.5405 10.5265C82.1725 10.7505 81.8925 11.0385 81.7005 11.3905C81.5085 11.7265 81.3725 12.1105 81.2925 12.5425C81.2285 12.9585 81.1965 13.3825 81.1965 13.8145V20.0545H77.8125V7.4065H81.0525L81.2205 9.0145Z" fill="#A0A2A7"/>
<path d="M70.2015 17.4865C70.6815 17.4865 71.0895 17.4145 71.4255 17.2705C71.7775 17.1105 72.0655 16.8545 72.2895 16.5025H75.8415C75.6655 17.1585 75.3935 17.7265 75.0255 18.2065C74.6735 18.6865 74.2415 19.0785 73.7295 19.3825C73.2335 19.6865 72.6815 19.9105 72.0735 20.0545C71.4655 20.1825 70.8255 20.2465 70.1535 20.2465C68.1055 20.2465 66.5535 19.6705 65.4975 18.5185C64.4575 17.3665 63.9375 15.7505 63.9375 13.6705C63.9375 12.7265 64.0735 11.8545 64.3455 11.0545C64.6335 10.2545 65.0335 9.56646 65.5455 8.99046C66.0575 8.39846 66.6895 7.94246 67.4415 7.62246C68.2095 7.30246 69.0815 7.14246 70.0575 7.14246C71.1935 7.14246 72.1775 7.34246 73.0095 7.74246C73.8415 8.14246 74.4975 8.69446 74.9775 9.39846C75.4735 10.0865 75.8015 10.8945 75.9615 11.8225C76.1375 12.7505 76.1375 13.7425 75.9615 14.7985H67.3215C67.3855 15.5505 67.6495 16.1905 68.1135 16.7185C68.5775 17.2305 69.2735 17.4865 70.2015 17.4865ZM72.8175 12.4705C72.8175 12.0705 72.7455 11.7185 72.6015 11.4145C72.4575 11.0945 72.2655 10.8385 72.0255 10.6465C71.7855 10.4385 71.4975 10.2865 71.1615 10.1905C70.8415 10.0945 70.5055 10.0465 70.1535 10.0465C69.3055 10.0625 68.6415 10.2945 68.1615 10.7425C67.6975 11.1745 67.4255 11.7505 67.3455 12.4705H72.8175Z" fill="#A0A2A7"/>
<path d="M58.8344 18.7586C58.3544 19.3026 57.7784 19.6866 57.1064 19.9106C56.4344 20.1346 55.7064 20.2466 54.9224 20.2466C54.1384 20.2466 53.3704 20.1266 52.6184 19.8866C51.8824 19.6306 51.2424 19.2226 50.6984 18.6626C50.0904 18.0226 49.6664 17.2866 49.4264 16.4546C49.1864 15.6226 49.0664 14.7666 49.0664 13.8866C49.0664 11.8066 49.6424 10.1426 50.7944 8.89458C51.2904 8.35058 51.9304 7.92658 52.7144 7.62258C53.5144 7.31858 54.3704 7.17458 55.2824 7.19058C55.8744 7.15858 56.5144 7.26258 57.2024 7.50258C57.8904 7.74258 58.4824 8.14258 58.9784 8.70258L59.3384 7.40658H62.2664V19.2626C62.2664 19.7746 62.2344 20.2786 62.1704 20.7746C62.1224 21.2866 62.0344 21.7746 61.9064 22.2386C61.7784 22.7186 61.5864 23.1746 61.3304 23.6066C61.0424 24.1346 60.6904 24.5826 60.2744 24.9506C59.8744 25.3186 59.4264 25.6226 58.9304 25.8626C58.4344 26.1186 57.9064 26.3026 57.3464 26.4146C56.7864 26.5266 56.2184 26.5826 55.6424 26.5826C54.9064 26.5826 54.2024 26.4946 53.5304 26.3186C52.8584 26.1586 52.2424 25.8866 51.6824 25.5026C51.1384 25.1346 50.6824 24.6626 50.3144 24.0866C49.9624 23.5106 49.7304 22.8226 49.6184 22.0226H53.2184C53.2824 22.4066 53.5384 22.7506 53.9864 23.0546C54.4344 23.3586 54.9784 23.5106 55.6184 23.5106C56.3064 23.5106 56.8664 23.3746 57.2984 23.1026C57.7464 22.8306 58.0824 22.4706 58.3064 22.0226C58.5304 21.5746 58.6744 21.0626 58.7384 20.4866C58.8024 19.9106 58.8344 19.3346 58.8344 18.7586ZM55.6904 17.2466C56.2184 17.2466 56.6824 17.1506 57.0824 16.9586C57.4984 16.7666 57.8344 16.5106 58.0904 16.1906C58.3464 15.8546 58.5384 15.4706 58.6664 15.0386C58.7944 14.5906 58.8584 14.1186 58.8584 13.6226C58.8584 12.6306 58.5784 11.8146 58.0184 11.1746C57.4744 10.5186 56.6904 10.1826 55.6664 10.1666C55.1384 10.1666 54.6664 10.2626 54.2504 10.4546C53.8504 10.6466 53.5144 10.9026 53.2424 11.2226C52.9864 11.5426 52.7944 11.9186 52.6664 12.3506C52.5384 12.7826 52.4744 13.2466 52.4744 13.7426C52.4744 14.2706 52.5384 14.7506 52.6664 15.1826C52.8104 15.5986 53.0184 15.9666 53.2904 16.2866C53.5624 16.5906 53.8984 16.8306 54.2984 17.0066C54.6984 17.1666 55.1624 17.2466 55.6904 17.2466Z" fill="#A0A2A7"/>
<path d="M44.2359 18.4945C43.7559 19.1345 43.1719 19.5905 42.4839 19.8625C41.7959 20.1345 40.9959 20.2625 40.0839 20.2465C38.9159 20.2145 37.9399 19.8865 37.1559 19.2625C36.7399 18.9105 36.4119 18.4945 36.1719 18.0145C35.9479 17.5185 35.8359 16.9345 35.8359 16.2625C35.8519 15.5745 36.0039 14.9665 36.2919 14.4385C36.5959 13.8945 37.0519 13.4465 37.6599 13.0945C38.1719 12.8225 38.7479 12.6305 39.3879 12.5185C40.0439 12.4065 40.7559 12.3505 41.5239 12.3505H44.1159C44.1639 11.5665 43.9799 10.9825 43.5639 10.5985C43.1639 10.1985 42.5959 9.99046 41.8599 9.97446C41.6199 9.97446 41.3719 9.99046 41.1159 10.0225C40.8599 10.0545 40.6199 10.1185 40.3959 10.2145C40.1879 10.3105 40.0039 10.4465 39.8439 10.6225C39.6999 10.7825 39.6039 10.9825 39.5559 11.2225H36.0759C36.1559 10.4545 36.3639 9.81446 36.6999 9.30246C37.0519 8.77446 37.4919 8.35046 38.0199 8.03046C38.5479 7.71046 39.1319 7.48646 39.7719 7.35846C40.4279 7.21446 41.0999 7.14246 41.7879 7.14246C42.1719 7.14246 42.5639 7.16646 42.9639 7.21446C43.3639 7.24646 43.7559 7.32646 44.1399 7.45446C44.5239 7.56646 44.8839 7.72646 45.2199 7.93446C45.5719 8.12646 45.8999 8.38246 46.2039 8.70246C46.7479 9.32646 47.0839 10.0465 47.2119 10.8625C47.3559 11.6625 47.4199 12.4465 47.4039 13.2145V20.0545H44.3079L44.2359 18.4945ZM44.1159 14.4625H41.6439C41.4039 14.4625 41.1319 14.4865 40.8279 14.5345C40.5239 14.5825 40.2599 14.6705 40.0359 14.7985C39.8119 14.9265 39.6199 15.0945 39.4599 15.3025C39.3159 15.5105 39.2439 15.7665 39.2439 16.0705C39.2439 16.3265 39.2919 16.5505 39.3879 16.7425C39.4999 16.9345 39.6359 17.0945 39.7959 17.2225C39.9719 17.3505 40.1799 17.4545 40.4199 17.5345C40.6599 17.5985 40.8999 17.6305 41.1399 17.6305C41.6039 17.6465 42.0359 17.5665 42.4359 17.3905C42.8519 17.2145 43.2119 16.9665 43.5159 16.6465C43.7079 16.3905 43.8519 16.1025 43.9479 15.7825C44.0599 15.4465 44.1159 15.0065 44.1159 14.4625Z" fill="#A0A2A7"/>
<path fill-rule="evenodd" clip-rule="evenodd" d="M26.6449 14.7073C26.5093 17.0767 25.7432 19.3721 24.4196 21.3531C22.9545 23.5457 20.8721 25.2547 18.4358 26.2639C15.9994 27.273 13.3185 27.5371 10.7321 27.0226C8.14572 26.5081 5.76995 25.2383 3.90525 23.3736C2.04055 21.5089 0.770672 19.1331 0.256202 16.5467C-0.258267 13.9603 0.00577712 11.2794 1.01495 8.84302C2.02411 6.40667 3.73308 4.32429 5.92574 2.8592C7.90669 1.53557 10.2021 0.769501 12.5715 0.633911V7.32247C11.5226 7.44313 10.5135 7.81172 9.62954 8.40233C8.53321 9.13488 7.67873 10.1761 7.17414 11.3942C6.66956 12.6124 6.53754 13.9529 6.79477 15.2461C7.05201 16.5393 7.68694 17.7272 8.61929 18.6595C9.55164 19.5919 10.7395 20.2268 12.0327 20.484C13.3259 20.7413 14.6664 20.6092 15.8846 20.1047C17.1027 19.6001 18.1439 18.7456 18.8765 17.6493C19.4671 16.7654 19.8357 15.7562 19.9563 14.7073H26.6449Z" fill="#A0A2A7"/>
<path fill-rule="evenodd" clip-rule="evenodd" d="M19.9922 0.612061H14.5391V7.27871H19.9922V12.733L26.6589 12.733L26.6589 7.27871H26.6603V0.612061H25.4393H19.9922Z" fill="#A0A2A7"/>
</svg>
