<svg width="193" height="42" viewBox="0 0 193 42" fill="none" xmlns="http://www.w3.org/2000/svg">
<path d="M179.457 15.2226H182.909L183.044 17.0294C183.493 16.3462 184.05 15.8249 184.715 15.4653C185.399 15.0878 186.154 14.899 186.981 14.899C190.342 14.899 192.014 16.9575 191.996 21.0743V21.8024H192.023V28.7057H188.383V21.8024H188.356C188.356 20.508 188.131 19.6091 187.682 19.1058C187.25 18.5844 186.621 18.3237 185.794 18.3237C184.913 18.3237 184.239 18.6114 183.772 19.1866C183.322 19.7439 183.097 20.5529 183.097 21.6136V28.7057H179.457V15.2226Z" fill="white"/>
<path d="M170.123 29.0293C168.757 29.0293 167.535 28.7326 166.456 28.1394C165.377 27.5281 164.532 26.6922 163.921 25.6315C163.328 24.5529 163.031 23.3304 163.031 21.9642C163.031 20.5979 163.328 19.3844 163.921 18.3237C164.532 17.2451 165.368 16.4091 166.429 15.8159C167.49 15.2047 168.703 14.899 170.069 14.899C171.436 14.899 172.649 15.2047 173.71 15.8159C174.788 16.4091 175.624 17.2451 176.218 18.3237C176.829 19.3844 177.134 20.5979 177.134 21.9642C177.134 23.3304 176.838 24.5529 176.245 25.6315C175.651 26.6922 174.815 27.5281 173.737 28.1394C172.676 28.7326 171.472 29.0293 170.123 29.0293ZM166.78 21.9642C166.78 23.0608 167.085 23.9596 167.696 24.6608C168.326 25.3439 169.135 25.6855 170.123 25.6855C171.094 25.6855 171.885 25.3439 172.496 24.6608C173.108 23.9596 173.413 23.0608 173.413 21.9642C173.413 20.8675 173.099 19.9777 172.469 19.2945C171.858 18.5934 171.058 18.2428 170.069 18.2428C169.117 18.2428 168.326 18.5934 167.696 19.2945C167.085 19.9777 166.78 20.8675 166.78 21.9642Z" fill="white"/>
<path d="M156.867 15.2227H160.508V28.7057H156.867V15.2227ZM158.701 13.0923C158.126 13.0923 157.631 12.8856 157.218 12.4721C156.804 12.0586 156.598 11.5732 156.598 11.0159C156.598 10.4407 156.804 9.9463 157.218 9.53282C157.649 9.11934 158.144 8.9126 158.701 8.9126C159.258 8.9126 159.744 9.11934 160.157 9.53282C160.571 9.9463 160.777 10.4407 160.777 11.0159C160.777 11.5732 160.571 12.0586 160.157 12.4721C159.762 12.8856 159.276 13.0923 158.701 13.0923Z" fill="white"/>
<path d="M151.355 29.0292C149.863 29.0292 148.721 28.6607 147.93 27.9236C147.157 27.1865 146.771 26.1258 146.771 24.7416V18.2967H144.613V15.2226H146.771V11.0159H150.411V15.2226H153.755V18.2967H150.411V23.9326C150.411 24.5259 150.528 24.9663 150.762 25.2539C151.013 25.5236 151.391 25.6584 151.894 25.6584C152.254 25.6584 152.658 25.4966 153.108 25.173L154.402 27.8966C153.953 28.2382 153.458 28.5078 152.919 28.7056C152.38 28.9213 151.858 29.0292 151.355 29.0292Z" fill="white"/>
<path d="M139.435 27.1686C138.68 28.409 137.44 29.0293 135.714 29.0293C134.096 29.0293 132.837 28.6697 131.939 27.9506C131.058 27.2315 130.617 26.2158 130.617 24.9035C130.617 23.4832 131.094 22.4046 132.046 21.6675C132.999 20.9305 134.347 20.5619 136.091 20.5619H139.3C139.049 18.89 138.231 18.0541 136.846 18.0541C135.66 18.0541 134.761 18.5574 134.15 19.5642L130.941 18.4586C131.372 17.4518 132.073 16.6069 133.044 15.9238C134.033 15.2406 135.3 14.899 136.846 14.899C138.86 14.899 140.388 15.4653 141.431 16.5979C142.473 17.7125 142.977 19.2586 142.941 21.2361L142.887 28.7057H139.489L139.435 27.1686ZM134.339 24.7956C134.339 25.1731 134.518 25.4787 134.878 25.7124C135.237 25.9282 135.732 26.036 136.361 26.036C136.918 26.036 137.422 25.9012 137.871 25.6315C138.338 25.3619 138.707 25.0113 138.977 24.5799C139.246 24.1484 139.381 23.699 139.381 23.2316H137.386C136.289 23.2316 135.507 23.3664 135.04 23.636C134.572 23.8877 134.339 24.2742 134.339 24.7956Z" fill="white"/>
<path d="M123.152 29.0293C121.75 29.0293 120.501 28.7326 119.404 28.1394C118.307 27.5281 117.444 26.6922 116.815 25.6315C116.204 24.5529 115.898 23.3304 115.898 21.9642C115.898 20.5979 116.204 19.3844 116.815 18.3237C117.427 17.2451 118.28 16.4091 119.377 15.8159C120.474 15.2047 121.714 14.899 123.098 14.899C124.483 14.899 125.723 15.2406 126.82 15.9238C127.934 16.6069 128.743 17.5687 129.247 18.8091L125.822 20.0226C125.57 19.5013 125.184 19.0878 124.662 18.7822C124.141 18.4765 123.566 18.3237 122.937 18.3237C121.966 18.3237 121.175 18.6653 120.564 19.3484C119.952 20.0136 119.647 20.8855 119.647 21.9642C119.647 23.0248 119.952 23.8967 120.564 24.5799C121.193 25.263 122.002 25.6046 122.991 25.6046C123.62 25.6046 124.195 25.4428 124.716 25.1192C125.238 24.7776 125.624 24.3282 125.876 23.7709L129.328 24.9843C128.806 26.2607 127.997 27.2585 126.901 27.9776C125.804 28.6787 124.555 29.0293 123.152 29.0293Z" fill="white"/>
<path d="M109.727 15.2227H113.367V28.7057H109.727V15.2227ZM111.56 13.0923C110.985 13.0923 110.491 12.8856 110.077 12.4721C109.664 12.0586 109.457 11.5732 109.457 11.0159C109.457 10.4407 109.664 9.9463 110.077 9.53282C110.509 9.11934 111.003 8.9126 111.56 8.9126C112.118 8.9126 112.603 9.11934 113.017 9.53282C113.43 9.9463 113.637 10.4407 113.637 11.0159C113.637 11.5732 113.43 12.0586 113.017 12.4721C112.621 12.8856 112.136 13.0923 111.56 13.0923Z" fill="white"/>
<path d="M102.824 9.29016H106.465V28.7057H102.824V9.29016Z" fill="white"/>
<path d="M86.7617 15.2226H90.2134L90.3482 17.0833C90.7976 16.3822 91.3639 15.8429 92.0471 15.4653C92.7482 15.0878 93.5482 14.899 94.447 14.899C95.6695 14.899 96.7392 15.1867 97.656 15.762C98.5908 16.3372 99.3009 17.1552 99.7863 18.2159C100.29 19.2765 100.541 20.526 100.541 21.9642C100.541 23.3844 100.29 24.6338 99.7863 25.7124C99.3009 26.7731 98.5908 27.5911 97.656 28.1663C96.7392 28.7416 95.6695 29.0293 94.447 29.0293C93.5662 29.0293 92.7841 28.8495 92.101 28.4899C91.4179 28.1124 90.8516 27.5821 90.4021 26.8989V34.0989H86.7617V15.2226ZM90.4021 21.9642C90.4021 23.0608 90.6898 23.9596 91.265 24.6608C91.8583 25.3439 92.6134 25.6855 93.5302 25.6855C94.465 25.6855 95.238 25.3349 95.8493 24.6338C96.4605 23.9327 96.7661 23.0428 96.7661 21.9642C96.7661 20.8855 96.4605 20.0046 95.8493 19.3215C95.256 18.6204 94.492 18.2698 93.5572 18.2698C92.6223 18.2698 91.8583 18.6114 91.265 19.2945C90.6898 19.9777 90.4021 20.8675 90.4021 21.9642Z" fill="white"/>
<path d="M70.5664 15.2226H74.0181L74.1529 17.0833C74.6023 16.3822 75.1686 15.8429 75.8518 15.4653C76.5529 15.0878 77.3529 14.899 78.2517 14.899C79.4742 14.899 80.5438 15.1867 81.4607 15.762C82.3955 16.3372 83.1056 17.1552 83.591 18.2159C84.0944 19.2765 84.3461 20.526 84.3461 21.9642C84.3461 23.3844 84.0944 24.6338 83.591 25.7124C83.1056 26.7731 82.3955 27.5911 81.4607 28.1663C80.5438 28.7416 79.4742 29.0293 78.2517 29.0293C77.3708 29.0293 76.5888 28.8495 75.9057 28.4899C75.2225 28.1124 74.6563 27.5821 74.2068 26.8989V34.0989H70.5664V15.2226ZM74.2068 21.9642C74.2068 23.0608 74.4945 23.9596 75.0697 24.6608C75.663 25.3439 76.418 25.6855 77.3349 25.6855C78.2697 25.6855 79.0427 25.3349 79.654 24.6338C80.2652 23.9327 80.5708 23.0428 80.5708 21.9642C80.5708 20.8855 80.2652 20.0046 79.654 19.3215C79.0607 18.6204 78.2967 18.2698 77.3619 18.2698C76.427 18.2698 75.663 18.6114 75.0697 19.2945C74.4945 19.9777 74.2068 20.8675 74.2068 21.9642Z" fill="white"/>
<path d="M64.1187 27.1686C63.3636 28.409 62.1232 29.0293 60.3974 29.0293C58.7794 29.0293 57.521 28.6697 56.6221 27.9506C55.7412 27.2315 55.3008 26.2158 55.3008 24.9035C55.3008 23.4832 55.7772 22.4046 56.73 21.6675C57.6828 20.9305 59.0311 20.5619 60.7749 20.5619H63.9839C63.7322 18.89 62.9142 18.0541 61.5299 18.0541C60.3434 18.0541 59.4446 18.5574 58.8333 19.5642L55.6244 18.4586C56.0558 17.4518 56.7569 16.6069 57.7277 15.9238C58.7165 15.2406 59.9839 14.899 61.5299 14.899C63.5434 14.899 65.0715 15.4653 66.1142 16.5979C67.1569 17.7125 67.6602 19.2586 67.6243 21.2361L67.5703 28.7057H64.1726L64.1187 27.1686ZM59.0221 24.7956C59.0221 25.1731 59.2019 25.4787 59.5614 25.7124C59.921 25.9282 60.4153 26.036 61.0446 26.036C61.6018 26.036 62.1052 25.9012 62.5546 25.6315C63.0221 25.3619 63.3906 25.0113 63.6603 24.5799C63.9299 24.1484 64.0647 23.699 64.0647 23.2316H62.0693C60.9726 23.2316 60.1906 23.3664 59.7232 23.636C59.2558 23.8877 59.0221 24.2742 59.0221 24.7956Z" fill="white"/>
<path fill-rule="evenodd" clip-rule="evenodd" d="M18.3866 33.8807H9.67662C4.5481 33.8807 0.390625 29.7232 0.390625 24.5947C0.390625 20.072 3.83745 16.3543 8.24754 15.9253C8.55849 11.3969 12.3303 7.82007 16.9376 7.82007H17.2252C19.7035 7.82007 21.9479 8.82199 23.5752 10.4429C25.757 8.79638 28.473 7.82007 31.417 7.82007H32.0712C38.9063 7.82007 44.4473 13.361 44.4473 20.1962C44.4473 27.7539 38.3205 33.8807 30.7627 33.8807H18.3866V33.8807Z" fill="white"/>
</svg>
