<svg width="166" height="36" viewBox="0 0 166 36" fill="none" xmlns="http://www.w3.org/2000/svg">
<path d="M154.754 13.1027H157.725L157.841 14.6578C158.228 14.0698 158.707 13.6211 159.28 13.3116C159.868 12.9867 160.518 12.8242 161.23 12.8242C164.123 12.8242 165.562 14.5959 165.547 18.1394V18.7661H165.57V24.7079H162.437V18.7661H162.413C162.413 17.652 162.22 16.8783 161.833 16.445C161.462 15.9963 160.92 15.7719 160.208 15.7719C159.45 15.7719 158.87 16.0195 158.468 16.5147C158.081 16.9943 157.887 17.6906 157.887 18.6036V24.7079H154.754V13.1027Z" fill="#A0A2A7"/>
<path d="M146.722 24.9864C145.546 24.9864 144.493 24.7311 143.565 24.2205C142.636 23.6944 141.909 22.9749 141.383 22.0619C140.873 21.1335 140.617 20.0813 140.617 18.9053C140.617 17.7293 140.873 16.6849 141.383 15.7719C141.909 14.8435 142.629 14.124 143.542 13.6134C144.455 13.0873 145.499 12.8242 146.675 12.8242C147.851 12.8242 148.896 13.0873 149.808 13.6134C150.737 14.124 151.456 14.8435 151.967 15.7719C152.493 16.6849 152.756 17.7293 152.756 18.9053C152.756 20.0813 152.501 21.1335 151.99 22.0619C151.48 22.9749 150.76 23.6944 149.832 24.2205C148.919 24.7311 147.882 24.9864 146.722 24.9864ZM143.843 18.9053C143.843 19.8492 144.106 20.6229 144.633 21.2263C145.174 21.8143 145.87 22.1083 146.722 22.1083C147.557 22.1083 148.238 21.8143 148.764 21.2263C149.29 20.6229 149.553 19.8492 149.553 18.9053C149.553 17.9614 149.282 17.1955 148.741 16.6075C148.215 16.004 147.526 15.7023 146.675 15.7023C145.855 15.7023 145.174 16.004 144.633 16.6075C144.106 17.1955 143.843 17.9614 143.843 18.9053Z" fill="#A0A2A7"/>
<path d="M135.31 13.1027H138.444V24.7079H135.31V13.1027ZM136.889 11.2691C136.393 11.2691 135.968 11.0912 135.612 10.7353C135.256 10.3794 135.078 9.96159 135.078 9.48191C135.078 8.98676 135.256 8.56124 135.612 8.20535C135.983 7.84945 136.409 7.67151 136.889 7.67151C137.368 7.67151 137.786 7.84945 138.142 8.20535C138.498 8.56124 138.676 8.98676 138.676 9.48191C138.676 9.96159 138.498 10.3794 138.142 10.7353C137.801 11.0912 137.384 11.2691 136.889 11.2691Z" fill="#A0A2A7"/>
<path d="M130.568 24.9864C129.284 24.9864 128.301 24.6692 127.62 24.0348C126.955 23.4004 126.622 22.4874 126.622 21.296V15.7487H124.766V13.1027H126.622V9.48193H129.756V13.1027H132.634V15.7487H129.756V20.5997C129.756 21.1103 129.856 21.4894 130.058 21.737C130.274 21.9691 130.599 22.0851 131.032 22.0851C131.342 22.0851 131.69 21.9459 132.077 21.6673L133.191 24.0116C132.804 24.3056 132.379 24.5377 131.914 24.7079C131.45 24.8936 131.001 24.9864 130.568 24.9864Z" fill="#A0A2A7"/>
<path d="M120.305 23.3849C119.655 24.4526 118.587 24.9864 117.102 24.9864C115.709 24.9864 114.626 24.6769 113.852 24.058C113.094 23.4391 112.715 22.5648 112.715 21.4352C112.715 20.2128 113.125 19.2844 113.945 18.65C114.765 18.0156 115.926 17.6984 117.427 17.6984H120.189C119.972 16.2593 119.268 15.5398 118.076 15.5398C117.055 15.5398 116.281 15.9731 115.755 16.8396L112.993 15.888C113.365 15.0215 113.968 14.2942 114.804 13.7062C115.655 13.1182 116.746 12.8242 118.076 12.8242C119.809 12.8242 121.125 13.3116 122.022 14.2865C122.92 15.2458 123.353 16.5766 123.322 18.2786L123.276 24.7079H120.351L120.305 23.3849ZM115.918 21.3424C115.918 21.6673 116.073 21.9304 116.382 22.1316C116.692 22.3172 117.117 22.4101 117.659 22.4101C118.138 22.4101 118.572 22.294 118.958 22.0619C119.361 21.8298 119.678 21.5281 119.91 21.1567C120.142 20.7854 120.258 20.3985 120.258 19.9962H118.541C117.597 19.9962 116.924 20.1123 116.521 20.3444C116.119 20.561 115.918 20.8937 115.918 21.3424Z" fill="#A0A2A7"/>
<path d="M106.29 24.9864C105.084 24.9864 104.008 24.7311 103.064 24.2205C102.12 23.6944 101.378 22.9749 100.836 22.0619C100.31 21.1335 100.047 20.0813 100.047 18.9053C100.047 17.7293 100.31 16.6849 100.836 15.7719C101.362 14.8435 102.097 14.124 103.041 13.6134C103.985 13.0873 105.053 12.8242 106.244 12.8242C107.435 12.8242 108.503 13.1182 109.447 13.7062C110.406 14.2942 111.103 15.122 111.536 16.1897L108.588 17.2342C108.372 16.7854 108.039 16.4296 107.59 16.1665C107.141 15.9035 106.646 15.7719 106.105 15.7719C105.269 15.7719 104.588 16.0659 104.062 16.6539C103.536 17.2264 103.273 17.9769 103.273 18.9053C103.273 19.8183 103.536 20.5687 104.062 21.1567C104.604 21.7447 105.3 22.0387 106.151 22.0387C106.693 22.0387 107.188 21.8994 107.637 21.6209C108.085 21.3269 108.418 20.9401 108.635 20.4604L111.606 21.5049C111.157 22.6035 110.461 23.4623 109.517 24.0812C108.573 24.6847 107.497 24.9864 106.29 24.9864Z" fill="#A0A2A7"/>
<path d="M94.736 13.1027H97.8694V24.7079H94.736V13.1027ZM96.3143 11.2691C95.8192 11.2691 95.3936 11.0912 95.0377 10.7353C94.6819 10.3794 94.5039 9.96159 94.5039 9.48191C94.5039 8.98676 94.6819 8.56124 95.0377 8.20535C95.4091 7.84945 95.8346 7.67151 96.3143 7.67151C96.794 7.67151 97.2118 7.84945 97.5677 8.20535C97.9236 8.56124 98.1015 8.98676 98.1015 9.48191C98.1015 9.96159 97.9236 10.3794 97.5677 10.7353C97.2273 11.0912 96.8095 11.2691 96.3143 11.2691Z" fill="#A0A2A7"/>
<path d="M88.793 7.99646H91.9264V24.7079H88.793V7.99646Z" fill="#A0A2A7"/>
<path d="M74.9727 13.1027H77.9436L78.0596 14.7043C78.4465 14.1008 78.9339 13.6366 79.5219 13.3116C80.1253 12.9867 80.8139 12.8242 81.5876 12.8242C82.6398 12.8242 83.5605 13.0718 84.3496 13.5669C85.1542 14.0621 85.7654 14.7661 86.1832 15.6791C86.6165 16.592 86.8331 17.6674 86.8331 18.9053C86.8331 20.1277 86.6165 21.2031 86.1832 22.1316C85.7654 23.0445 85.1542 23.7485 84.3496 24.2437C83.5605 24.7388 82.6398 24.9864 81.5876 24.9864C80.8294 24.9864 80.1563 24.8317 79.5683 24.5222C78.9803 24.1973 78.4929 23.7408 78.106 23.1528V29.35H74.9727V13.1027ZM78.106 18.9053C78.106 19.8492 78.3536 20.6229 78.8488 21.2264C79.3594 21.8143 80.0093 22.1083 80.7984 22.1083C81.6031 22.1083 82.2684 21.8066 82.7945 21.2031C83.3206 20.5997 83.5837 19.8337 83.5837 18.9053C83.5837 17.9769 83.3206 17.2187 82.7945 16.6307C82.2839 16.0272 81.6263 15.7255 80.8217 15.7255C80.017 15.7255 79.3594 16.0195 78.8488 16.6075C78.3536 17.1955 78.106 17.9614 78.106 18.9053Z" fill="#A0A2A7"/>
<path d="M61.0312 13.1027H64.0022L64.1182 14.7043C64.5051 14.1008 64.9925 13.6366 65.5805 13.3116C66.1839 12.9867 66.8725 12.8242 67.6462 12.8242C68.6984 12.8242 69.6191 13.0718 70.4082 13.5669C71.2128 14.0621 71.824 14.7661 72.2418 15.6791C72.6751 16.592 72.8917 17.6674 72.8917 18.9053C72.8917 20.1277 72.6751 21.2031 72.2418 22.1316C71.824 23.0445 71.2128 23.7485 70.4082 24.2437C69.6191 24.7388 68.6984 24.9864 67.6462 24.9864C66.888 24.9864 66.2149 24.8317 65.6269 24.5222C65.0389 24.1973 64.5515 23.7408 64.1646 23.1528V29.35H61.0312V13.1027ZM64.1646 18.9053C64.1646 19.8492 64.4122 20.6229 64.9074 21.2264C65.418 21.8143 66.0679 22.1083 66.857 22.1083C67.6617 22.1083 68.327 21.8066 68.8531 21.2031C69.3792 20.5997 69.6423 19.8337 69.6423 18.9053C69.6423 17.9769 69.3792 17.2187 68.8531 16.6307C68.3425 16.0272 67.6849 15.7255 66.8802 15.7255C66.0756 15.7255 65.418 16.0195 64.9074 16.6075C64.4122 17.1955 64.1646 17.9614 64.1646 18.9053Z" fill="#A0A2A7"/>
<path d="M55.4804 23.3849C54.8305 24.4526 53.7628 24.9864 52.2774 24.9864C50.8848 24.9864 49.8016 24.6769 49.0279 24.058C48.2697 23.4391 47.8906 22.5648 47.8906 21.4352C47.8906 20.2128 48.3007 19.2844 49.1208 18.65C49.9409 18.0156 51.1014 17.6984 52.6023 17.6984H55.3643C55.1477 16.2593 54.4437 15.5398 53.2522 15.5398C52.231 15.5398 51.4573 15.9731 50.9312 16.8396L48.1691 15.888C48.5405 15.0215 49.144 14.2942 49.9796 13.7062C50.8306 13.1182 51.9215 12.8242 53.2522 12.8242C54.9852 12.8242 56.3005 13.3116 57.198 14.2865C58.0954 15.2458 58.5287 16.5766 58.4977 18.2786L58.4513 24.7079H55.5268L55.4804 23.3849ZM51.0936 21.3424C51.0936 21.6673 51.2484 21.9304 51.5579 22.1316C51.8673 22.3172 52.2928 22.4101 52.8344 22.4101C53.3141 22.4101 53.7474 22.294 54.1342 22.0619C54.5365 21.8298 54.8537 21.5281 55.0858 21.1567C55.3179 20.7854 55.434 20.3985 55.434 19.9962H53.7164C52.7725 19.9962 52.0994 20.1123 51.6971 20.3444C51.2948 20.561 51.0936 20.8937 51.0936 21.3424Z" fill="#A0A2A7"/>
<path fill-rule="evenodd" clip-rule="evenodd" d="M16.4857 29.0869H8.98876C4.57453 29.0869 0.996094 25.5084 0.996094 21.0942C0.996094 17.2014 3.96286 14.0015 7.75872 13.6322C8.02636 9.73458 11.2729 6.65588 15.2384 6.65588H15.486C17.6192 6.65588 19.5509 7.51826 20.9516 8.91341C22.8296 7.49622 25.1672 6.65588 27.7012 6.65588H28.2643C34.1475 6.65588 38.9167 11.4251 38.9167 17.3083C38.9167 23.8134 33.6432 29.0869 27.1381 29.0869H16.4857V29.0869Z" fill="#A0A2A7"/>
</svg>
