<svg width="141" height="31" viewBox="0 0 141 31" fill="none" xmlns="http://www.w3.org/2000/svg">
<path d="M139.183 15.3087L135.859 15.5132C135.802 15.2291 135.68 14.9735 135.492 14.7462C135.305 14.5132 135.058 14.3286 134.751 14.1922C134.45 14.0502 134.089 13.9791 133.668 13.9791C133.106 13.9791 132.631 14.0985 132.245 14.3371C131.859 14.57 131.665 14.8825 131.665 15.2746C131.665 15.5871 131.79 15.8513 132.04 16.0672C132.29 16.2831 132.719 16.4564 133.327 16.5871L135.697 17.0644C136.969 17.3257 137.918 17.7462 138.543 18.3257C139.168 18.9053 139.481 19.6666 139.481 20.6098C139.481 21.4678 139.228 22.2206 138.722 22.8683C138.222 23.5161 137.535 24.0218 136.66 24.3854C135.79 24.7433 134.788 24.9223 133.651 24.9223C131.918 24.9223 130.538 24.5615 129.509 23.8399C128.487 23.1127 127.887 22.124 127.711 20.874L131.282 20.6865C131.39 21.2149 131.651 21.6183 132.066 21.8968C132.481 22.1695 133.012 22.3058 133.66 22.3058C134.296 22.3058 134.808 22.1837 135.194 21.9394C135.586 21.6894 135.785 21.3683 135.79 20.9763C135.785 20.6468 135.646 20.3769 135.373 20.1666C135.1 19.9507 134.68 19.786 134.112 19.6723L131.844 19.2206C130.566 18.9649 129.614 18.5218 128.989 17.8911C128.37 17.2604 128.06 16.4564 128.06 15.4791C128.06 14.6382 128.288 13.9138 128.742 13.3058C129.202 12.6979 129.847 12.2291 130.677 11.8996C131.512 11.57 132.489 11.4053 133.609 11.4053C135.262 11.4053 136.563 11.7547 137.512 12.4536C138.467 13.1524 139.023 14.1041 139.183 15.3087Z" fill="#A0A2A7"/>
<path d="M125.706 15.3087L122.382 15.5132C122.325 15.2291 122.203 14.9735 122.016 14.7462C121.828 14.5132 121.581 14.3286 121.274 14.1922C120.973 14.0502 120.612 13.9791 120.192 13.9791C119.629 13.9791 119.155 14.0985 118.768 14.3371C118.382 14.57 118.189 14.8825 118.189 15.2746C118.189 15.5871 118.314 15.8513 118.564 16.0672C118.814 16.2831 119.243 16.4564 119.851 16.5871L122.22 17.0644C123.493 17.3257 124.442 17.7462 125.067 18.3257C125.692 18.9053 126.004 19.6666 126.004 20.6098C126.004 21.4678 125.751 22.2206 125.246 22.8683C124.746 23.5161 124.058 24.0218 123.183 24.3854C122.314 24.7433 121.311 24.9223 120.175 24.9223C118.442 24.9223 117.061 24.5615 116.033 23.8399C115.01 23.1127 114.411 22.124 114.234 20.874L117.805 20.6865C117.913 21.2149 118.175 21.6183 118.589 21.8968C119.004 22.1695 119.536 22.3058 120.183 22.3058C120.82 22.3058 121.331 22.1837 121.717 21.9394C122.109 21.6894 122.308 21.3683 122.314 20.9763C122.308 20.6468 122.169 20.3769 121.896 20.1666C121.624 19.9507 121.203 19.786 120.635 19.6723L118.368 19.2206C117.089 18.9649 116.138 18.5218 115.513 17.8911C114.893 17.2604 114.584 16.4564 114.584 15.4791C114.584 14.6382 114.811 13.9138 115.266 13.3058C115.726 12.6979 116.371 12.2291 117.2 11.8996C118.036 11.57 119.013 11.4053 120.132 11.4053C121.786 11.4053 123.087 11.7547 124.036 12.4536C124.99 13.1524 125.547 14.1041 125.706 15.3087Z" fill="#A0A2A7"/>
<path d="M106.436 24.9223C105.089 24.9223 103.93 24.6496 102.958 24.1041C101.993 23.553 101.248 22.7746 100.725 21.7689C100.203 20.7575 99.9414 19.5615 99.9414 18.1808C99.9414 16.8342 100.203 15.6524 100.725 14.6354C101.248 13.6183 101.984 12.8257 102.933 12.2575C103.887 11.6894 105.007 11.4053 106.291 11.4053C107.154 11.4053 107.958 11.5445 108.703 11.8229C109.453 12.0956 110.106 12.5075 110.663 13.0587C111.225 13.6098 111.663 14.303 111.975 15.1382C112.288 15.9678 112.444 16.9394 112.444 18.053V19.0502H101.39V16.8002H109.027C109.027 16.2774 108.913 15.8144 108.686 15.411C108.458 15.0075 108.143 14.6922 107.74 14.4649C107.342 14.232 106.879 14.1155 106.35 14.1155C105.799 14.1155 105.311 14.2433 104.885 14.499C104.464 14.749 104.135 15.0871 103.896 15.5132C103.657 15.9337 103.535 16.4024 103.529 16.9195V19.0587C103.529 19.7064 103.649 20.2661 103.887 20.7377C104.132 21.2093 104.475 21.5729 104.919 21.8286C105.362 22.0843 105.887 22.2121 106.495 22.2121C106.899 22.2121 107.268 22.1553 107.603 22.0416C107.939 21.928 108.225 21.7575 108.464 21.5303C108.703 21.303 108.885 21.0246 109.01 20.695L112.368 20.9166C112.197 21.7235 111.848 22.428 111.319 23.0303C110.797 23.6269 110.12 24.0928 109.291 24.428C108.467 24.7575 107.515 24.9223 106.436 24.9223Z" fill="#A0A2A7"/>
<path d="M89.1737 17.0985V24.6666H85.543V11.5757H89.0032V13.8854H89.1566C89.4464 13.124 89.9322 12.5218 90.614 12.0786C91.2958 11.6297 92.1225 11.4053 93.0941 11.4053C94.0032 11.4053 94.7958 11.6041 95.4719 12.0019C96.1481 12.3996 96.6737 12.9678 97.0487 13.7064C97.4237 14.4394 97.6112 15.3144 97.6112 16.3314V24.6666H93.9805V16.9791C93.9862 16.178 93.7816 15.553 93.3668 15.1041C92.9521 14.6496 92.381 14.4223 91.6538 14.4223C91.1651 14.4223 90.7333 14.5274 90.3583 14.7377C89.989 14.9479 89.6992 15.2547 89.489 15.6581C89.2844 16.0558 89.1793 16.536 89.1737 17.0985Z" fill="#A0A2A7"/>
<path d="M78.9996 24.6667V11.5758H82.6303V24.6667H78.9996ZM80.8235 9.88826C80.2837 9.88826 79.8207 9.70928 79.4343 9.35133C79.0536 8.98769 78.8633 8.55303 78.8633 8.04735C78.8633 7.54735 79.0536 7.11838 79.4343 6.76042C79.8207 6.39678 80.2837 6.21497 80.8235 6.21497C81.3633 6.21497 81.8235 6.39678 82.2042 6.76042C82.5906 7.11838 82.7837 7.54735 82.7837 8.04735C82.7837 8.55303 82.5906 8.98769 82.2042 9.35133C81.8235 9.70928 81.3633 9.88826 80.8235 9.88826Z" fill="#A0A2A7"/>
<path d="M76.4169 15.3087L73.093 15.5132C73.0362 15.2291 72.9141 14.9735 72.7266 14.7462C72.5391 14.5132 72.2919 14.3286 71.9851 14.1922C71.6839 14.0502 71.3232 13.9791 70.9027 13.9791C70.3402 13.9791 69.8658 14.0985 69.4794 14.3371C69.093 14.57 68.8999 14.8825 68.8999 15.2746C68.8999 15.5871 69.0249 15.8513 69.2749 16.0672C69.5249 16.2831 69.9538 16.4564 70.5618 16.5871L72.9311 17.0644C74.2038 17.3257 75.1527 17.7462 75.7777 18.3257C76.4027 18.9053 76.7152 19.6666 76.7152 20.6098C76.7152 21.4678 76.4624 22.2206 75.9567 22.8683C75.4567 23.5161 74.7692 24.0218 73.8942 24.3854C73.0249 24.7433 72.022 24.9223 70.8857 24.9223C69.1527 24.9223 67.772 24.5615 66.7436 23.8399C65.7209 23.1127 65.1214 22.124 64.9453 20.874L68.5163 20.6865C68.6243 21.2149 68.8857 21.6183 69.3004 21.8968C69.7152 22.1695 70.2464 22.3058 70.8942 22.3058C71.5305 22.3058 72.0419 22.1837 72.4283 21.9394C72.8203 21.6894 73.0192 21.3683 73.0249 20.9763C73.0192 20.6468 72.88 20.3769 72.6072 20.1666C72.3345 19.9507 71.9141 19.786 71.3459 19.6723L69.0788 19.2206C67.8004 18.9649 66.8487 18.5218 66.2237 17.8911C65.6044 17.2604 65.2947 16.4564 65.2947 15.4791C65.2947 14.6382 65.522 13.9138 65.9766 13.3058C66.4368 12.6979 67.0817 12.2291 67.9112 11.8996C68.7464 11.57 69.7237 11.4053 70.843 11.4053C72.4964 11.4053 73.7976 11.7547 74.7465 12.4536C75.701 13.1524 76.2578 14.1041 76.4169 15.3087Z" fill="#A0A2A7"/>
<path d="M58.9925 19.0927V11.5757H62.6232V24.6666H59.1374V22.2888H59.0011C58.7056 23.0558 58.2141 23.6723 57.5266 24.1382C56.8448 24.6041 56.0124 24.837 55.0295 24.837C54.1545 24.837 53.3846 24.6382 52.7198 24.2405C52.055 23.8427 51.5352 23.2774 51.1602 22.5444C50.7908 21.8115 50.6033 20.9336 50.5977 19.9109V11.5757H54.2283V19.2632C54.234 20.0359 54.4414 20.6467 54.8505 21.0956C55.2596 21.5444 55.8079 21.7689 56.4954 21.7689C56.9329 21.7689 57.342 21.6694 57.7227 21.4706C58.1033 21.266 58.4102 20.9649 58.6431 20.5672C58.8817 20.1694 58.9982 19.678 58.9925 19.0927Z" fill="#A0A2A7"/>
<path d="M35.4062 24.6667V7.21216H39.0369V13.7747H39.1477C39.3068 13.4224 39.5369 13.0644 39.8381 12.7008C40.1449 12.3315 40.5426 12.0247 41.0313 11.7803C41.5256 11.5303 42.1392 11.4053 42.8722 11.4053C43.8267 11.4053 44.7074 11.6553 45.5142 12.1553C46.321 12.6497 46.9659 13.3968 47.4489 14.3968C47.9318 15.3911 48.1733 16.6383 48.1733 18.1383C48.1733 19.5985 47.9375 20.8315 47.4659 21.8372C47 22.8372 46.3636 23.5957 45.5568 24.1127C44.7557 24.6241 43.858 24.8798 42.8636 24.8798C42.1591 24.8798 41.5597 24.7633 41.0653 24.5303C40.5767 24.2974 40.1761 24.0048 39.8636 23.6525C39.5511 23.2945 39.3125 22.9338 39.1477 22.5701H38.9858V24.6667H35.4062ZM38.9602 18.1212C38.9602 18.8997 39.0682 19.5786 39.2841 20.1582C39.5 20.7377 39.8125 21.1894 40.2216 21.5133C40.6307 21.8315 41.1278 21.9906 41.7131 21.9906C42.304 21.9906 42.804 21.8286 43.2131 21.5048C43.6222 21.1752 43.9318 20.7207 44.142 20.1411C44.358 19.5559 44.4659 18.8826 44.4659 18.1212C44.4659 17.3656 44.3608 16.7008 44.1506 16.1269C43.9403 15.5531 43.6307 15.1042 43.2216 14.7803C42.8125 14.4565 42.3097 14.2945 41.7131 14.2945C41.1222 14.2945 40.6222 14.4508 40.2131 14.7633C39.8097 15.0758 39.5 15.519 39.2841 16.0928C39.0682 16.6667 38.9602 17.3428 38.9602 18.1212Z" fill="#A0A2A7"/>
<path fill-rule="evenodd" clip-rule="evenodd" d="M14.6745 11.4998L18.6019 15.4272L14.8624 19.1667L10.935 15.2393L14.6745 11.4998ZM10.6478 7.47315L8.18546 5.01082C8.04501 4.87037 8.04501 4.64264 8.18546 4.50219L11.7035 0.984125C11.844 0.843671 12.0717 0.843671 12.2122 0.984125L24.2393 13.0112C25.5736 14.3456 25.5736 16.5089 24.2393 17.8433L18.8891 23.1934L21.3514 25.6558C21.4919 25.7962 21.4919 26.0239 21.3514 26.1644L17.8334 29.6825C17.6929 29.8229 17.4652 29.8229 17.3247 29.6825L5.29762 17.6554C3.96329 16.321 3.96329 14.1576 5.29762 12.8233L10.6478 7.47315Z" fill="#A0A2A7"/>
</svg>
