<svg width="164" height="34" viewBox="0 0 164 34" fill="none" xmlns="http://www.w3.org/2000/svg">
<path d="M161.785 16.1096L157.923 16.3473C157.857 16.0172 157.715 15.7201 157.497 15.4561C157.28 15.1854 156.992 14.9709 156.636 14.8125C156.286 14.6474 155.867 14.5649 155.378 14.5649C154.725 14.5649 154.174 14.7036 153.725 14.9808C153.276 15.2515 153.051 15.6145 153.051 16.07C153.051 16.4331 153.197 16.74 153.487 16.9909C153.778 17.2417 154.276 17.4431 154.982 17.5949L157.735 18.1494C159.214 18.453 160.316 18.9415 161.042 19.6149C161.768 20.2882 162.131 21.1727 162.131 22.2686C162.131 23.2653 161.838 24.14 161.25 24.8925C160.669 25.6451 159.871 26.2326 158.854 26.6551C157.844 27.0709 156.679 27.2789 155.359 27.2789C153.345 27.2789 151.741 26.8597 150.546 26.0213C149.358 25.1764 148.662 24.0278 148.457 22.5755L152.606 22.3577C152.731 22.9716 153.035 23.4403 153.517 23.7637C153.999 24.0806 154.616 24.239 155.369 24.239C156.108 24.239 156.702 24.0971 157.151 23.8132C157.606 23.5228 157.837 23.1498 157.844 22.6943C157.837 22.3115 157.676 21.9979 157.359 21.7537C157.042 21.5028 156.553 21.3114 155.893 21.1794L153.259 20.6546C151.774 20.3575 150.668 19.8426 149.942 19.1099C149.223 18.3771 148.863 17.4431 148.863 16.3077C148.863 15.3307 149.127 14.489 149.655 13.7827C150.19 13.0764 150.939 12.5318 151.903 12.1489C152.873 11.766 154.009 11.5746 155.309 11.5746C157.23 11.5746 158.742 11.9806 159.844 12.7925C160.953 13.6045 161.6 14.7102 161.785 16.1096Z" fill="white"/>
<path d="M146.125 16.1096L142.263 16.3473C142.197 16.0172 142.055 15.7201 141.837 15.4561C141.619 15.1854 141.332 14.9709 140.976 14.8125C140.626 14.6474 140.207 14.5649 139.718 14.5649C139.065 14.5649 138.514 14.7036 138.065 14.9808C137.616 15.2515 137.391 15.6145 137.391 16.07C137.391 16.4331 137.537 16.74 137.827 16.9909C138.117 17.2417 138.616 17.4431 139.322 17.5949L142.075 18.1494C143.554 18.453 144.656 18.9415 145.382 19.6149C146.108 20.2882 146.471 21.1727 146.471 22.2686C146.471 23.2653 146.178 24.14 145.59 24.8925C145.009 25.6451 144.21 26.2326 143.194 26.6551C142.184 27.0709 141.019 27.2789 139.698 27.2789C137.685 27.2789 136.081 26.8597 134.886 26.0213C133.698 25.1764 133.002 24.0278 132.797 22.5755L136.946 22.3577C137.071 22.9716 137.375 23.4403 137.857 23.7637C138.339 24.0806 138.956 24.239 139.708 24.239C140.448 24.239 141.042 24.0971 141.491 23.8132C141.946 23.5228 142.177 23.1498 142.184 22.6943C142.177 22.3115 142.015 21.9979 141.699 21.7537C141.382 21.5028 140.893 21.3114 140.233 21.1794L137.599 20.6546C136.114 20.3575 135.008 19.8426 134.282 19.1099C133.563 18.3771 133.203 17.4431 133.203 16.3077C133.203 15.3307 133.467 14.489 133.995 13.7827C134.53 13.0764 135.279 12.5318 136.243 12.1489C137.213 11.766 138.348 11.5746 139.649 11.5746C141.57 11.5746 143.082 11.9806 144.184 12.7925C145.293 13.6045 145.94 14.7102 146.125 16.1096Z" fill="white"/>
<path d="M123.741 27.2789C122.176 27.2789 120.829 26.962 119.701 26.3283C118.578 25.688 117.714 24.7836 117.106 23.6152C116.499 22.4402 116.195 21.0506 116.195 19.4465C116.195 17.882 116.499 16.509 117.106 15.3274C117.714 14.1458 118.568 13.2249 119.671 12.5648C120.78 11.9046 122.08 11.5746 123.572 11.5746C124.576 11.5746 125.51 11.7363 126.374 12.0598C127.246 12.3766 128.005 12.8552 128.652 13.4955C129.305 14.1359 129.814 14.9412 130.177 15.9116C130.54 16.8754 130.721 18.0042 130.721 19.298V20.4565H117.879V17.8424H126.751C126.751 17.2351 126.619 16.6971 126.355 16.2284C126.091 15.7598 125.724 15.3934 125.255 15.1293C124.793 14.8587 124.255 14.7234 123.641 14.7234C123.001 14.7234 122.433 14.8719 121.938 15.1689C121.45 15.4594 121.067 15.8522 120.79 16.3473C120.513 16.8358 120.371 17.3804 120.364 17.9811V20.4664C120.364 21.219 120.503 21.8692 120.78 22.4171C121.064 22.965 121.463 23.3875 121.978 23.6845C122.493 23.9816 123.103 24.1301 123.81 24.1301C124.278 24.1301 124.708 24.0641 125.097 23.9321C125.487 23.8 125.82 23.602 126.097 23.3379C126.374 23.0739 126.586 22.7504 126.731 22.3676L130.632 22.625C130.434 23.5624 130.028 24.3809 129.414 25.0807C128.807 25.7738 128.021 26.3151 127.058 26.7046C126.1 27.0874 124.995 27.2789 123.741 27.2789Z" fill="white"/>
<path d="M103.679 18.189V26.9818H99.4609V11.7726H103.481V14.456H103.659C103.996 13.5715 104.56 12.8717 105.353 12.3568C106.145 11.8353 107.105 11.5746 108.234 11.5746C109.29 11.5746 110.211 11.8056 110.997 12.2677C111.782 12.7298 112.393 13.3899 112.828 14.2481C113.264 15.0996 113.482 16.1162 113.482 17.2978V26.9818H109.264V18.0504C109.27 17.1196 109.033 16.3935 108.551 15.872C108.069 15.3439 107.406 15.0798 106.561 15.0798C105.993 15.0798 105.491 15.202 105.055 15.4462C104.626 15.6904 104.29 16.0469 104.045 16.5156C103.808 16.9777 103.686 17.5355 103.679 18.189Z" fill="white"/>
<path d="M91.8655 26.9818V11.7726H96.0836V26.9818H91.8655ZM93.9844 9.812C93.3573 9.812 92.8193 9.60406 92.3705 9.18818C91.9282 8.7657 91.707 8.26071 91.707 7.6732C91.707 7.0923 91.9282 6.5939 92.3705 6.17803C92.8193 5.75555 93.3573 5.54431 93.9844 5.54431C94.6116 5.54431 95.1463 5.75555 95.5885 6.17803C96.0374 6.5939 96.2619 7.0923 96.2619 7.6732C96.2619 8.26071 96.0374 8.7657 95.5885 9.18818C95.1463 9.60406 94.6116 9.812 93.9844 9.812Z" fill="white"/>
<path d="M88.863 16.1096L85.0013 16.3473C84.9353 16.0172 84.7934 15.7201 84.5755 15.4561C84.3577 15.1854 84.0705 14.9709 83.7141 14.8125C83.3642 14.6474 82.945 14.5649 82.4565 14.5649C81.803 14.5649 81.2518 14.7036 80.8029 14.9808C80.354 15.2515 80.1296 15.6145 80.1296 16.07C80.1296 16.4331 80.2748 16.74 80.5653 16.9909C80.8557 17.2417 81.3541 17.4431 82.0605 17.5949L84.8132 18.1494C86.2918 18.453 87.3942 18.9415 88.1204 19.6149C88.8465 20.2882 89.2096 21.1727 89.2096 22.2686C89.2096 23.2653 88.9158 24.14 88.3283 24.8925C87.7474 25.6451 86.9487 26.2326 85.9321 26.6551C84.9221 27.0709 83.757 27.2789 82.4367 27.2789C80.4234 27.2789 78.8193 26.8597 77.6244 26.0213C76.4362 25.1764 75.7398 24.0278 75.5352 22.5755L79.684 22.3577C79.8094 22.9716 80.1131 23.4403 80.595 23.7637C81.0769 24.0806 81.6941 24.239 82.4466 24.239C83.186 24.239 83.7801 24.0971 84.229 23.8132C84.6844 23.5228 84.9155 23.1498 84.9221 22.6943C84.9155 22.3115 84.7538 21.9979 84.4369 21.7537C84.12 21.5028 83.6315 21.3114 82.9714 21.1794L80.3375 20.6546C78.8523 20.3575 77.7466 19.8426 77.0204 19.1099C76.3009 18.3771 75.9411 17.4431 75.9411 16.3077C75.9411 15.3307 76.2052 14.489 76.7333 13.7827C77.268 13.0764 78.0172 12.5318 78.981 12.1489C79.9514 11.766 81.0868 11.5746 82.3872 11.5746C84.3082 11.5746 85.8198 11.9806 86.9223 12.7925C88.0313 13.6045 88.6782 14.7102 88.863 16.1096Z" fill="white"/>
<path d="M68.6166 20.5059V11.7725H72.8347V26.9817H68.7849V24.2191H68.6265C68.2832 25.1102 67.7122 25.8264 66.9135 26.3677C66.1213 26.909 65.1542 27.1797 64.0122 27.1797C62.9956 27.1797 62.1012 26.9487 61.3288 26.4866C60.5565 26.0245 59.9525 25.3677 59.5168 24.5161C59.0877 23.6645 58.8699 22.6447 58.8633 21.4564V11.7725H63.0815V20.7039C63.0881 21.6017 63.329 22.3113 63.8043 22.8328C64.2796 23.3543 64.9166 23.615 65.7153 23.615C66.2236 23.615 66.6989 23.4995 67.1412 23.2685C67.5835 23.0308 67.94 22.681 68.2106 22.2189C68.4879 21.7568 68.6232 21.1858 68.6166 20.5059Z" fill="white"/>
<path d="M41.2148 26.9817V6.70276H45.433V14.3272H45.5617C45.7466 13.9179 46.0139 13.502 46.3638 13.0795C46.7203 12.6505 47.1823 12.294 47.75 12.0101C48.3244 11.7197 49.0373 11.5745 49.8888 11.5745C50.9978 11.5745 52.021 11.8649 52.9584 12.4458C53.8958 13.0201 54.645 13.8882 55.2061 15.05C55.7672 16.2052 56.0478 17.6542 56.0478 19.3969C56.0478 21.0934 55.7738 22.5259 55.2259 23.6943C54.6846 24.8561 53.9453 25.7374 53.0079 26.3381C52.0771 26.9322 51.0342 27.2292 49.8789 27.2292C49.0604 27.2292 48.364 27.0939 47.7897 26.8233C47.2219 26.5526 46.7566 26.2126 46.3935 25.8034C46.0304 25.3875 45.7532 24.9683 45.5617 24.5458H45.3736V26.9817H41.2148ZM45.3439 19.3771C45.3439 20.2815 45.4693 21.0703 45.7202 21.7436C45.971 22.4169 46.3341 22.9417 46.8094 23.318C47.2847 23.6877 47.8623 23.8725 48.5422 23.8725C49.2287 23.8725 49.8096 23.6844 50.2849 23.3081C50.7602 22.9252 51.12 22.3971 51.3642 21.7238C51.6151 21.0439 51.7405 20.2617 51.7405 19.3771C51.7405 18.4991 51.6184 17.7268 51.3741 17.0601C51.1299 16.3933 50.7701 15.8718 50.2948 15.4956C49.8195 15.1193 49.2353 14.9312 48.5422 14.9312C47.8557 14.9312 47.2748 15.1127 46.7995 15.4758C46.3308 15.8388 45.971 16.3537 45.7202 17.0205C45.4693 17.6872 45.3439 18.4727 45.3439 19.3771Z" fill="white"/>
<path fill-rule="evenodd" clip-rule="evenodd" d="M17.1311 12.4189L21.694 16.9818L17.3494 21.3264L12.7865 16.7635L17.1311 12.4189ZM12.4528 7.74065L9.59203 4.87988C9.42885 4.7167 9.42885 4.45213 9.59203 4.28895L13.6794 0.20161C13.8425 0.0384282 14.1071 0.0384281 14.2703 0.20161L28.2436 14.1749C29.7938 15.7251 29.7938 18.2385 28.2436 19.7888L22.0277 26.0047L24.8884 28.8655C25.0516 29.0286 25.0516 29.2932 24.8884 29.4564L20.8011 33.5437C20.6379 33.7069 20.3733 33.7069 20.2102 33.5437L6.2369 19.5705C4.68666 18.0202 4.68666 15.5068 6.2369 13.9565L12.4528 7.74065Z" fill="white"/>
</svg>
