<svg width="149" height="30" viewBox="0 0 149 30" fill="none" xmlns="http://www.w3.org/2000/svg">
<path d="M143.295 10H146.791L142.18 22.6667C140.863 26.3147 138.709 27.9107 135.492 27.7333V24.6933C137.291 24.7187 138.203 23.9587 138.811 22.2613L133.617 10H137.189L140.483 18.512L143.295 10Z" fill="#A0A2A7"/>
<path d="M127.726 9.64539C130.412 9.64539 132.514 11.5201 132.514 14.8894V22.6667H129.246V15.2947C129.246 13.5721 128.208 12.6854 126.738 12.6854C125.142 12.6854 123.952 13.6227 123.952 15.8267V22.6667H120.684V10.0001H123.952V11.4187C124.712 10.2787 126.029 9.64539 127.726 9.64539Z" fill="#A0A2A7"/>
<path d="M114.453 10.0001H117.721V22.6667H114.453V21.1721C113.541 22.3121 112.173 23.0214 110.324 23.0214C106.955 23.0214 104.168 20.1081 104.168 16.3334C104.168 12.5587 106.955 9.64539 110.324 9.64539C112.173 9.64539 113.541 10.3547 114.453 11.4947V10.0001ZM110.932 19.9054C112.959 19.9054 114.453 18.4614 114.453 16.3334C114.453 14.2054 112.959 12.7614 110.932 12.7614C108.931 12.7614 107.436 14.2054 107.436 16.3334C107.436 18.4614 108.931 19.9054 110.932 19.9054Z" fill="#A0A2A7"/>
<path d="M96.3408 9.64539C99.7354 9.64539 102.522 12.5587 102.522 16.3334C102.522 20.1081 99.7354 23.0214 96.3408 23.0214C94.4914 23.0214 93.1488 22.3374 92.2368 21.1721V27.7334H88.9688V10.0001H92.2368V11.4947C93.1488 10.3294 94.4914 9.64539 96.3408 9.64539ZM95.7328 19.9054C97.7594 19.9054 99.2541 18.4614 99.2541 16.3334C99.2541 14.2054 97.7594 12.7614 95.7328 12.7614C93.7314 12.7614 92.2368 14.2054 92.2368 16.3334C92.2368 18.4614 93.7314 19.9054 95.7328 19.9054Z" fill="#A0A2A7"/>
<path d="M81.4039 9.64539C84.2919 9.64539 86.1919 11.6974 86.1919 14.8641V22.6667H82.9239V15.0921C82.9239 13.5974 82.1639 12.6854 80.7959 12.6854C79.3519 12.6854 78.4399 13.6481 78.4399 15.5481V22.6667H75.1719V15.0921C75.1719 13.5974 74.4119 12.6854 73.0439 12.6854C71.6505 12.6854 70.6625 13.6481 70.6625 15.5481V22.6667H67.3945V10.0001H70.6625V11.3427C71.3719 10.2787 72.5625 9.64539 74.1839 9.64539C75.7545 9.64539 76.9199 10.3041 77.6292 11.4694C78.4145 10.3294 79.6812 9.64539 81.4039 9.64539Z" fill="#A0A2A7"/>
<path d="M58.3833 23.0214C54.6593 23.0214 51.6953 20.1081 51.6953 16.3334C51.6953 12.5587 54.6593 9.64539 58.3833 9.64539C62.1073 9.64539 65.0966 12.5587 65.0966 16.3334C65.0966 20.1081 62.1073 23.0214 58.3833 23.0214ZM58.3833 19.8294C60.334 19.8294 61.8286 18.3854 61.8286 16.3334C61.8286 14.2814 60.334 12.8374 58.3833 12.8374C56.458 12.8374 54.9633 14.2814 54.9633 16.3334C54.9633 18.3854 56.458 19.8294 58.3833 19.8294Z" fill="#A0A2A7"/>
<path d="M45.0982 23.0214C41.2475 23.0214 38.4102 20.1081 38.4102 16.3334C38.4102 12.5587 41.2475 9.64539 45.0982 9.64539C47.5808 9.64539 49.7342 10.9627 50.7728 12.9134L47.9608 14.5601C47.4542 13.5214 46.3648 12.8627 45.0728 12.8627C43.1222 12.8627 41.6782 14.3067 41.6782 16.3334C41.6782 18.3347 43.1222 19.7787 45.0728 19.7787C46.3902 19.7787 47.4795 19.1454 47.9862 18.1067L50.8235 19.7281C49.7342 21.7041 47.5808 23.0214 45.0982 23.0214Z" fill="#A0A2A7"/>
<path fill-rule="evenodd" clip-rule="evenodd" d="M10.5143 2.60266C9.42124 2.60266 8.53516 3.48874 8.53516 4.58178V10.7633H2.24083C1.1478 10.7633 0.261719 11.6494 0.261719 12.7424V27.3345C0.261719 28.4275 1.1478 29.3136 2.24083 29.3136H16.6595C17.7526 29.3136 18.6386 28.4275 18.6386 27.3345V21.153H24.933C26.026 21.153 26.9121 20.2669 26.9121 19.1738V4.58178C26.9121 3.48874 26.026 2.60266 24.933 2.60266H10.5143ZM18.6386 21.153V12.7424C18.6386 11.6494 17.7526 10.7633 16.6595 10.7633H8.53516V19.1738C8.53516 20.2669 9.42123 21.153 10.5143 21.153H18.6386Z" fill="#A0A2A7"/>
</svg>
