<svg width="173" height="35" viewBox="0 0 173 35" fill="none" xmlns="http://www.w3.org/2000/svg">
<path d="M166.935 11.1036H170.996L165.64 25.8199C164.109 30.0582 161.607 31.9125 157.869 31.7065V28.1746C159.959 28.204 161.019 27.321 161.725 25.349L155.691 11.1036H159.841L163.668 20.993L166.935 11.1036Z" fill="white"/>
<path d="M148.85 10.6917C151.97 10.6917 154.413 12.8697 154.413 16.7842V25.82H150.616V17.2551C150.616 15.2537 149.409 14.2236 147.702 14.2236C145.848 14.2236 144.465 15.3126 144.465 17.8732V25.82H140.668V11.1037H144.465V12.7519C145.348 11.4275 146.878 10.6917 148.85 10.6917Z" fill="white"/>
<path d="M133.43 11.1037H137.227V25.82H133.43V24.0835C132.371 25.408 130.781 26.2321 128.633 26.2321C124.718 26.2321 121.48 22.8473 121.48 18.4619C121.48 14.0764 124.718 10.6917 128.633 10.6917C130.781 10.6917 132.371 11.5158 133.43 12.8402V11.1037ZM129.339 22.6119C131.694 22.6119 133.43 20.9342 133.43 18.4619C133.43 15.9895 131.694 14.3119 129.339 14.3119C127.014 14.3119 125.277 15.9895 125.277 18.4619C125.277 20.9342 127.014 22.6119 129.339 22.6119Z" fill="white"/>
<path d="M112.385 10.6917C116.329 10.6917 119.567 14.0764 119.567 18.4619C119.567 22.8473 116.329 26.2321 112.385 26.2321C110.237 26.2321 108.677 25.4374 107.617 24.0835V31.7065H103.82V11.1037H107.617V12.8402C108.677 11.4863 110.237 10.6917 112.385 10.6917ZM111.679 22.6119C114.033 22.6119 115.77 20.9342 115.77 18.4619C115.77 15.9895 114.033 14.3119 111.679 14.3119C109.354 14.3119 107.617 15.9895 107.617 18.4619C107.617 20.9342 109.354 22.6119 111.679 22.6119Z" fill="white"/>
<path d="M95.0341 10.6917C98.3894 10.6917 100.597 13.0757 100.597 16.7548V25.82H96.8V17.0197C96.8 15.2831 95.917 14.2236 94.3277 14.2236C92.65 14.2236 91.5904 15.342 91.5904 17.5494V25.82H87.7936V17.0197C87.7936 15.2831 86.9106 14.2236 85.3213 14.2236C83.7025 14.2236 82.5546 15.342 82.5546 17.5494V25.82H78.7578V11.1037H82.5546V12.6636C83.3787 11.4275 84.7621 10.6917 86.6458 10.6917C88.4706 10.6917 89.8245 11.4569 90.6486 12.8108C91.561 11.4863 93.0326 10.6917 95.0341 10.6917Z" fill="white"/>
<path d="M68.2897 26.2321C63.9631 26.2321 60.5195 22.8473 60.5195 18.4619C60.5195 14.0764 63.9631 10.6917 68.2897 10.6917C72.6163 10.6917 76.0894 14.0764 76.0894 18.4619C76.0894 22.8473 72.6163 26.2321 68.2897 26.2321ZM68.2897 22.5236C70.5561 22.5236 72.2926 20.8459 72.2926 18.4619C72.2926 16.0778 70.5561 14.4002 68.2897 14.4002C66.0529 14.4002 64.3163 16.0778 64.3163 18.4619C64.3163 20.8459 66.0529 22.5236 68.2897 22.5236Z" fill="white"/>
<path d="M52.8522 26.2321C48.3785 26.2321 45.082 22.8473 45.082 18.4619C45.082 14.0764 48.3785 10.6917 52.8522 10.6917C55.7366 10.6917 58.2384 12.2221 59.4451 14.4885L56.1781 16.4016C55.5895 15.1948 54.3239 14.4296 52.8228 14.4296C50.5565 14.4296 48.8788 16.1073 48.8788 18.4619C48.8788 20.787 50.5565 22.4647 52.8228 22.4647C54.3533 22.4647 55.6189 21.7289 56.2076 20.5221L59.504 22.4058C58.2384 24.7016 55.7366 26.2321 52.8522 26.2321Z" fill="white"/>
<path fill-rule="evenodd" clip-rule="evenodd" d="M12.6733 3.24426C11.4034 3.24426 10.3739 4.27372 10.3739 5.54362V12.7254H3.06108C1.79118 12.7254 0.761719 13.7549 0.761719 15.0248V31.978C0.761719 33.2479 1.79118 34.2774 3.06108 34.2774H19.8129C21.0828 34.2774 22.1123 33.2479 22.1123 31.978V24.7962H29.4251C30.695 24.7962 31.7245 23.7668 31.7245 22.4969V5.54363C31.7245 4.27372 30.695 3.24426 29.4251 3.24426H12.6733ZM22.1123 24.7962V15.0248C22.1123 13.7549 21.0828 12.7254 19.8129 12.7254H10.3739V22.4969C10.3739 23.7668 11.4034 24.7962 12.6733 24.7962H22.1123Z" fill="white"/>
</svg>
