<svg width="146" height="29" viewBox="0 0 146 29" fill="none" xmlns="http://www.w3.org/2000/svg">
<path d="M136.029 14.7519H141.309C141.261 13.5759 140.492 12.4239 138.668 12.4239C137.012 12.4239 136.101 13.6719 136.029 14.7519ZM141.621 17.8239L144.285 18.6159C143.685 20.6559 141.812 22.3599 138.908 22.3599C135.668 22.3599 132.812 20.0319 132.812 16.0479C132.812 12.2799 135.597 9.83191 138.621 9.83191C142.269 9.83191 144.453 12.1599 144.453 15.9519C144.453 16.4079 144.405 16.8879 144.405 16.9359H135.957C136.029 18.4959 137.349 19.6239 138.933 19.6239C140.421 19.6239 141.237 18.8799 141.621 17.8239Z" fill="#A0A2A7"/>
<path d="M122.156 18.7119L124.892 18.1119C124.964 19.0479 125.66 19.9119 127.052 19.9119C128.108 19.9119 128.612 19.3599 128.612 18.7359C128.612 18.2079 128.252 17.7759 127.34 17.5839L125.78 17.2239C123.5 16.7199 122.468 15.3519 122.468 13.6959C122.468 11.5839 124.34 9.83191 126.884 9.83191C130.244 9.83191 131.372 11.9679 131.516 13.2399L128.852 13.8399C128.756 13.1439 128.252 12.2559 126.908 12.2559C126.068 12.2559 125.396 12.7599 125.396 13.4319C125.396 14.0079 125.828 14.3679 126.476 14.4879L128.156 14.8479C130.484 15.3279 131.66 16.7439 131.66 18.4719C131.66 20.3919 130.172 22.3599 127.076 22.3599C123.524 22.3599 122.3 20.0559 122.156 18.7119Z" fill="#A0A2A7"/>
<path d="M120.228 21.9999H117.036V10.1919H120.228V21.9999ZM116.652 6.32794C116.652 5.22394 117.54 4.33594 118.62 4.33594C119.724 4.33594 120.588 5.22394 120.588 6.32794C120.588 7.38394 119.724 8.27194 118.62 8.27194C117.54 8.27194 116.652 7.38394 116.652 6.32794Z" fill="#A0A2A7"/>
<path d="M115.27 10.1439V13.3599C114.91 13.2879 114.598 13.2639 114.31 13.2639C112.678 13.2639 111.262 14.0559 111.262 16.5999V21.9999H108.07V10.1919H111.166V11.9439C111.886 10.3839 113.518 10.0959 114.526 10.0959C114.79 10.0959 115.03 10.1199 115.27 10.1439Z" fill="#A0A2A7"/>
<path d="M97.0475 26.56H93.8555V10.192H96.9515V11.632C97.4795 10.72 98.7995 9.92798 100.575 9.92798C104.031 9.92798 106.023 12.568 106.023 16.072C106.023 19.648 103.791 22.288 100.455 22.288C98.8235 22.288 97.6235 21.64 97.0475 20.848V26.56ZM102.879 16.096C102.879 14.008 101.583 12.784 99.9515 12.784C98.3195 12.784 96.9995 14.008 96.9995 16.096C96.9995 18.184 98.3195 19.432 99.9515 19.432C101.583 19.432 102.879 18.208 102.879 16.096Z" fill="#A0A2A7"/>
<path d="M92.0906 10.1439V13.3599C91.7306 13.2879 91.4186 13.2639 91.1306 13.2639C89.4986 13.2639 88.0826 14.0559 88.0826 16.5999V21.9999H84.8906V10.1919H87.9866V11.9439C88.7066 10.3839 90.3386 10.0959 91.3466 10.0959C91.6106 10.0959 91.8506 10.1199 92.0906 10.1439Z" fill="#A0A2A7"/>
<path d="M74.4308 14.7519H79.7108C79.6628 13.5759 78.8948 12.4239 77.0708 12.4239C75.4148 12.4239 74.5028 13.6719 74.4308 14.7519ZM80.0228 17.8239L82.6868 18.6159C82.0868 20.6559 80.2148 22.3599 77.3108 22.3599C74.0708 22.3599 71.2148 20.0319 71.2148 16.0479C71.2148 12.2799 73.9988 9.83191 77.0228 9.83191C80.6708 9.83191 82.8548 12.1599 82.8548 15.9519C82.8548 16.4079 82.8068 16.8879 82.8068 16.9359H74.3588C74.4308 18.4959 75.7508 19.6239 77.3348 19.6239C78.8228 19.6239 79.6388 18.8799 80.0228 17.8239Z" fill="#A0A2A7"/>
<path d="M67.6126 6.66382V10.1918H69.9886V13.0238H67.6126V17.9678C67.6126 18.9998 68.0926 19.3358 69.0046 19.3358C69.3886 19.3358 69.8206 19.2878 69.9886 19.2398V21.8798C69.7006 21.9998 69.1246 22.1678 68.1886 22.1678C65.8846 22.1678 64.4446 20.7998 64.4446 18.5198V13.0238H62.3086V10.1918H62.9086C64.1566 10.1918 64.7326 9.37582 64.7326 8.31982V6.66382H67.6126Z" fill="#A0A2A7"/>
<path d="M53.3365 15.2079V21.9999H50.1445V10.1919H53.2405V11.6559C53.9605 10.4319 55.3765 9.87988 56.6485 9.87988C59.5765 9.87988 60.9205 11.9679 60.9205 14.5599V21.9999H57.7285V15.1119C57.7285 13.7919 57.0805 12.7599 55.5445 12.7599C54.1525 12.7599 53.3365 13.8399 53.3365 15.2079Z" fill="#A0A2A7"/>
<path d="M39.6848 14.7519H44.9648C44.9168 13.5759 44.1488 12.4239 42.3248 12.4239C40.6688 12.4239 39.7568 13.6719 39.6848 14.7519ZM45.2768 17.8239L47.9408 18.6159C47.3408 20.6559 45.4688 22.3599 42.5648 22.3599C39.3248 22.3599 36.4688 20.0319 36.4688 16.0479C36.4688 12.2799 39.2528 9.83191 42.2768 9.83191C45.9248 9.83191 48.1088 12.1599 48.1088 15.9519C48.1088 16.4079 48.0608 16.8879 48.0608 16.9359H39.6128C39.6848 18.4959 41.0048 19.6239 42.5888 19.6239C44.0768 19.6239 44.8928 18.8799 45.2768 17.8239Z" fill="#A0A2A7"/>
<g clip-path="url(#clip0_3763_8163)">
<path fill-rule="evenodd" clip-rule="evenodd" d="M1.0845 19.4411C1.0845 20.0977 1.74947 20.5452 2.35767 20.2979L10.4846 16.9943C10.8332 16.8526 11.0612 16.5138 11.0612 16.1375L11.0612 12.407C11.0612 12.0307 11.2892 11.6919 11.6378 11.5502L19.7945 8.23445C20.1431 8.09274 20.3711 7.75395 20.3711 7.37765L20.3711 3.00381C20.3711 2.49301 19.957 2.07893 19.4462 2.07893L11.3193 2.07893C10.8085 2.07893 10.3944 2.49301 10.3944 3.00381L10.3944 9.9139C10.3944 10.4247 9.98032 10.8388 9.46952 10.8388L2.00938 10.8388C1.49859 10.8388 1.08451 11.2529 1.08451 11.7637L1.0845 19.4411Z" fill="#A0A2A7"/>
<path fill-rule="evenodd" clip-rule="evenodd" d="M27.4311 8.40836C27.4311 7.75182 26.7662 7.30432 26.158 7.55156L18.031 10.8552C17.6824 10.9969 17.4544 11.3357 17.4544 11.712V15.4425C17.4544 15.8188 17.2264 16.1576 16.8778 16.2993L8.72112 19.615C8.37252 19.7567 8.14453 20.0955 8.14453 20.4718V24.8457C8.14453 25.3565 8.55861 25.7706 9.06941 25.7706H17.1963C17.7071 25.7706 18.1212 25.3565 18.1212 24.8457V17.9356C18.1212 17.4248 18.5353 17.0107 19.0461 17.0107H26.5062C27.017 17.0107 27.4311 16.5966 27.4311 16.0858V8.40836Z" fill="#A0A2A7"/>
</g>
<defs>
<clipPath id="clip0_3763_8163">
<rect width="27.3333" height="27.3333" fill="white" transform="translate(0.589844 0.999878)"/>
</clipPath>
</defs>
</svg>
