<svg width="50" height="50" viewBox="0 0 50 50" fill="none" xmlns="http://www.w3.org/2000/svg">
<path d="M12.854 37.5001C13.2844 36.2802 14.0826 35.2239 15.1386 34.4767C16.1945 33.7295 17.4563 33.3283 18.7498 33.3283C20.0434 33.3283 21.3051 33.7295 22.3611 34.4767C23.417 35.2239 24.2152 36.2802 24.6457 37.5001H45.8332V41.6667H24.6457C24.2152 42.8866 23.417 43.9429 22.3611 44.6901C21.3051 45.4373 20.0434 45.8385 18.7498 45.8385C17.4563 45.8385 16.1945 45.4373 15.1386 44.6901C14.0826 43.9429 13.2844 42.8866 12.854 41.6667H4.1665V37.5001H12.854ZM25.354 22.9167C25.7844 21.6969 26.5826 20.6405 27.6386 19.8934C28.6945 19.1462 29.9563 18.745 31.2498 18.745C32.5434 18.745 33.8051 19.1462 34.8611 19.8934C35.917 20.6405 36.7152 21.6969 37.1457 22.9167H45.8332V27.0834H37.1457C36.7152 28.3033 35.917 29.3596 34.8611 30.1068C33.8051 30.8539 32.5434 31.2552 31.2498 31.2552C29.9563 31.2552 28.6945 30.8539 27.6386 30.1068C26.5826 29.3596 25.7844 28.3033 25.354 27.0834H4.1665V22.9167H25.354ZM12.854 8.33339C13.2844 7.11353 14.0826 6.05721 15.1386 5.31004C16.1945 4.56286 17.4563 4.16162 18.7498 4.16162C20.0434 4.16162 21.3051 4.56286 22.3611 5.31004C23.417 6.05721 24.2152 7.11353 24.6457 8.33339H45.8332V12.5001H24.6457C24.2152 13.7199 23.417 14.7762 22.3611 15.5234C21.3051 16.2706 20.0434 16.6718 18.7498 16.6718C17.4563 16.6718 16.1945 16.2706 15.1386 15.5234C14.0826 14.7762 13.2844 13.7199 12.854 12.5001H4.1665V8.33339H12.854ZM18.7498 12.5001C19.3024 12.5001 19.8323 12.2806 20.223 11.8899C20.6137 11.4992 20.8332 10.9693 20.8332 10.4167C20.8332 9.86419 20.6137 9.33429 20.223 8.94359C19.8323 8.55289 19.3024 8.33339 18.7498 8.33339C18.1973 8.33339 17.6674 8.55289 17.2767 8.94359C16.886 9.33429 16.6665 9.86419 16.6665 10.4167C16.6665 10.9693 16.886 11.4992 17.2767 11.8899C17.6674 12.2806 18.1973 12.5001 18.7498 12.5001ZM31.2498 27.0834C31.8024 27.0834 32.3323 26.8639 32.723 26.4732C33.1137 26.0825 33.3332 25.5526 33.3332 25.0001C33.3332 24.4475 33.1137 23.9176 32.723 23.5269C32.3323 23.1362 31.8024 22.9167 31.2498 22.9167C30.6973 22.9167 30.1674 23.1362 29.7767 23.5269C29.386 23.9176 29.1665 24.4475 29.1665 25.0001C29.1665 25.5526 29.386 26.0825 29.7767 26.4732C30.1674 26.8639 30.6973 27.0834 31.2498 27.0834ZM18.7498 41.6667C19.3024 41.6667 19.8323 41.4472 20.223 41.0565C20.6137 40.6658 20.8332 40.1359 20.8332 39.5834C20.8332 39.0309 20.6137 38.501 20.223 38.1103C19.8323 37.7196 19.3024 37.5001 18.7498 37.5001C18.1973 37.5001 17.6674 37.7196 17.2767 38.1103C16.886 38.501 16.6665 39.0309 16.6665 39.5834C16.6665 40.1359 16.886 40.6658 17.2767 41.0565C17.6674 41.4472 18.1973 41.6667 18.7498 41.6667Z" fill="#8E8E8E"/>
</svg>
