<svg width="165" height="122" viewBox="0 0 165 122" fill="none" xmlns="http://www.w3.org/2000/svg">
<rect x="47.8955" y="108.395" width="32.9188" height="5.04162" rx="2.22425" fill="#438A9D" stroke="#318C73" stroke-width="1.48283"/>
<rect x="47.8955" y="116.106" width="29.6566" height="5.04162" rx="2.22425" fill="#438A9D" stroke="#318C73" stroke-width="1.48283"/>
<rect x="83.1867" y="108.395" width="6.22789" height="5.04162" rx="2.22425" fill="#438A9D" stroke="#318C73" stroke-width="1.48283"/>
<rect x="91.4904" y="108.395" width="26.6909" height="5.04162" rx="2.22425" fill="#438A9D" stroke="#318C73" stroke-width="1.48283"/>
<rect x="40.7775" y="100.684" width="85.7076" height="5.04162" rx="2.22425" fill="#438A9D" stroke="#318C73" stroke-width="1.48283"/>
<rect x="36.9223" y="92.9734" width="98.4599" height="5.04162" rx="2.22425" fill="#438A9D" stroke="#318C73" stroke-width="1.48283"/>
<rect x="31.8811" y="85.2628" width="108.247" height="5.04162" rx="2.22425" fill="#438A9D" stroke="#318C73" stroke-width="1.48283"/>
<rect x="38.7021" y="77.5521" width="104.688" height="5.04162" rx="2.22425" fill="#438A9D" stroke="#318C73" stroke-width="1.48283"/>
<rect x="26.2458" y="69.8413" width="117.144" height="5.04162" rx="2.22425" fill="#438A9D" stroke="#318C73" stroke-width="1.48283"/>
<rect x="20.6113" y="62.1305" width="52.1956" height="5.04162" rx="2.22425" fill="#438A9D" stroke="#318C73" stroke-width="1.48283"/>
<rect x="82.2971" y="62.1305" width="28.1738" height="5.04162" rx="2.22425" fill="#438A9D" stroke="#318C73" stroke-width="1.48283"/>
<rect x="119.665" y="62.1305" width="25.5047" height="5.04162" rx="2.22425" fill="#438A9D" stroke="#318C73" stroke-width="1.48283"/>
<rect x="119.665" y="62.1305" width="28.1738" height="5.04162" rx="2.22425" fill="#438A9D" stroke="#318C73" stroke-width="1.48283"/>
<rect x="91.4904" y="55.6062" width="7.71072" height="5.04162" rx="2.22425" fill="#438A9D" stroke="#318C73" stroke-width="1.48283"/>
<rect x="128.561" y="54.4199" width="25.8012" height="5.04162" rx="2.22425" fill="#438A9D" stroke="#318C73" stroke-width="1.48283"/>
<rect x="133.306" y="46.7093" width="28.4703" height="5.04162" rx="2.22425" fill="#438A9D" stroke="#318C73" stroke-width="1.48283"/>
<rect x="130.341" y="38.9984" width="33.2154" height="5.04162" rx="2.22425" fill="#438A9D" stroke="#318C73" stroke-width="1.48283"/>
<rect x="139.534" y="31.2878" width="10.3798" height="5.04162" rx="2.22425" fill="#438A9D" stroke="#318C73" stroke-width="1.48283"/>
<rect x="14.3835" y="54.4199" width="60.2029" height="5.04162" rx="2.22425" fill="#438A9D" stroke="#318C73" stroke-width="1.48283"/>
<rect x="7.85909" y="46.7093" width="64.948" height="5.04162" rx="2.22425" fill="#438A9D" stroke="#318C73" stroke-width="1.48283"/>
<rect x="7.85909" y="38.9984" width="64.948" height="5.04162" rx="2.22425" fill="#438A9D" stroke="#318C73" stroke-width="1.48283"/>
<rect x="0.741415" y="31.2878" width="72.0656" height="5.04162" rx="2.22425" fill="#438A9D" stroke="#318C73" stroke-width="1.48283"/>
<rect x="7.85909" y="23.5769" width="66.7274" height="5.04162" rx="2.22425" fill="#438A9D" stroke="#318C73" stroke-width="1.48283"/>
<rect x="16.7556" y="15.8663" width="13.642" height="5.04162" rx="2.22425" fill="#438A9D" stroke="#318C73" stroke-width="1.48283"/>
<rect x="37.5158" y="15.8663" width="30.2497" height="5.04162" rx="2.22425" fill="#438A9D" stroke="#318C73" stroke-width="1.48283"/>
<rect x="40.7775" y="8.15548" width="11.5661" height="5.04162" rx="2.22425" fill="#438A9D" stroke="#318C73" stroke-width="1.48283"/>
<rect x="41.9641" y="0.741415" width="8.30385" height="5.04162" rx="2.22425" fill="#438A9D" stroke="#318C73" stroke-width="1.48283"/>
<rect x="47.8955" y="108.395" width="32.9188" height="5.04162" rx="2.22425" fill="#438A9D" stroke="#318C73" stroke-width="1.48283"/>
<rect x="47.8955" y="116.106" width="29.6566" height="5.04162" rx="2.22425" fill="#438A9D" stroke="#318C73" stroke-width="1.48283"/>
<rect x="83.1867" y="108.395" width="6.22789" height="5.04162" rx="2.22425" fill="#438A9D" stroke="#318C73" stroke-width="1.48283"/>
<rect x="91.4904" y="108.395" width="26.6909" height="5.04162" rx="2.22425" fill="#438A9D" stroke="#318C73" stroke-width="1.48283"/>
<rect x="40.7775" y="100.684" width="85.7076" height="5.04162" rx="2.22425" fill="#438A9D" stroke="#318C73" stroke-width="1.48283"/>
<rect x="36.9223" y="92.9734" width="98.4599" height="5.04162" rx="2.22425" fill="#438A9D" stroke="#318C73" stroke-width="1.48283"/>
<rect x="31.8811" y="85.2628" width="108.247" height="5.04162" rx="2.22425" fill="#438A9D" stroke="#318C73" stroke-width="1.48283"/>
<rect x="38.7021" y="77.5521" width="104.688" height="5.04162" rx="2.22425" fill="#438A9D" stroke="#318C73" stroke-width="1.48283"/>
<rect x="26.2458" y="69.8413" width="117.144" height="5.04162" rx="2.22425" fill="#438A9D" stroke="#318C73" stroke-width="1.48283"/>
<rect x="20.6113" y="62.1305" width="52.1956" height="5.04162" rx="2.22425" fill="#438A9D" stroke="#318C73" stroke-width="1.48283"/>
<rect x="82.2971" y="62.1305" width="28.1738" height="5.04162" rx="2.22425" fill="#438A9D" stroke="#318C73" stroke-width="1.48283"/>
<rect x="119.665" y="62.1305" width="25.5047" height="5.04162" rx="2.22425" fill="#438A9D" stroke="#318C73" stroke-width="1.48283"/>
<rect x="119.665" y="62.1305" width="28.1738" height="5.04162" rx="2.22425" fill="#438A9D" stroke="#318C73" stroke-width="1.48283"/>
<rect x="91.4904" y="55.6062" width="7.71072" height="5.04162" rx="2.22425" fill="#438A9D" stroke="#318C73" stroke-width="1.48283"/>
<rect x="128.561" y="54.4199" width="25.8012" height="5.04162" rx="2.22425" fill="#438A9D" stroke="#318C73" stroke-width="1.48283"/>
<rect x="133.306" y="46.7093" width="28.4703" height="5.04162" rx="2.22425" fill="#438A9D" stroke="#318C73" stroke-width="1.48283"/>
<rect x="130.341" y="38.9984" width="33.2154" height="5.04162" rx="2.22425" fill="#438A9D" stroke="#318C73" stroke-width="1.48283"/>
<rect x="139.534" y="31.2878" width="10.3798" height="5.04162" rx="2.22425" fill="#438A9D" stroke="#318C73" stroke-width="1.48283"/>
<rect x="14.3835" y="54.4199" width="60.2029" height="5.04162" rx="2.22425" fill="#438A9D" stroke="#318C73" stroke-width="1.48283"/>
<rect x="7.85909" y="46.7093" width="64.948" height="5.04162" rx="2.22425" fill="#438A9D" stroke="#318C73" stroke-width="1.48283"/>
<rect x="7.85909" y="38.9984" width="64.948" height="5.04162" rx="2.22425" fill="#438A9D" stroke="#318C73" stroke-width="1.48283"/>
<rect x="0.741415" y="31.2878" width="72.0656" height="5.04162" rx="2.22425" fill="#438A9D" stroke="#318C73" stroke-width="1.48283"/>
<rect x="7.85909" y="23.5769" width="66.7274" height="5.04162" rx="2.22425" fill="#438A9D" stroke="#318C73" stroke-width="1.48283"/>
<rect x="16.7556" y="15.8663" width="13.642" height="5.04162" rx="2.22425" fill="#438A9D" stroke="#318C73" stroke-width="1.48283"/>
<rect x="37.5158" y="15.8663" width="30.2497" height="5.04162" rx="2.22425" fill="#438A9D" stroke="#318C73" stroke-width="1.48283"/>
<rect x="40.7775" y="8.15548" width="11.5661" height="5.04162" rx="2.22425" fill="#438A9D" stroke="#318C73" stroke-width="1.48283"/>
<rect x="41.9641" y="0.741415" width="8.30385" height="5.04162" rx="2.22425" fill="#438A9D" stroke="#318C73" stroke-width="1.48283"/>
</svg>
