<svg width="169" height="147" viewBox="0 0 169 147" fill="none" xmlns="http://www.w3.org/2000/svg">
<g clip-path="url(#clip0_3131_58)">
<path d="M67.9807 146.4C105.525 146.4 135.961 115.964 135.961 78.4197C135.961 40.875 105.525 10.439 67.9807 10.439C30.436 10.439 0 40.875 0 78.4197C0 115.964 30.436 146.4 67.9807 146.4Z" fill="#F8EDE3"/>
<mask id="mask0_3131_58" style="mask-type:alpha" maskUnits="userSpaceOnUse" x="0" y="-29" width="153" height="176">
<path d="M149.243 89.3338C150.709 104.615 134.781 92.9316 132.599 99.5959C123.698 126.772 98.1317 146.4 67.9807 146.4C30.436 146.4 0 115.964 0 78.4198C0 40.875 0 -29 67.9807 -29C116.045 -29 145.118 -2.40232 149.243 31.3342C149.732 35.3351 152.274 50.4822 152.523 54.3892C153.145 64.1337 149.243 81.4823 149.243 89.3338Z" fill="#EFA6B4"/>
</mask>
<g mask="url(#mask0_3131_58)">
<path d="M93.6523 10.439H26.6523C20.5772 10.439 15.6523 15.3638 15.6523 21.439V155.439C15.6523 161.514 20.5772 166.439 26.6523 166.439H93.6523C99.7274 166.439 104.652 161.514 104.652 155.439V21.439C104.652 15.3638 99.7274 10.439 93.6523 10.439Z" fill="#292C32"/>
<path d="M101.48 1.41992H34.4805C28.9577 1.41992 24.4805 5.89707 24.4805 11.4199V145.42C24.4805 150.943 28.9577 155.42 34.4805 155.42H101.48C107.003 155.42 111.48 150.943 111.48 145.42V11.4199C111.48 5.89707 107.003 1.41992 101.48 1.41992Z" fill="white" stroke="#292C32" stroke-width="2"/>
<path d="M138.849 27.7007H50.7422C49.0853 27.7007 47.7422 29.0438 47.7422 30.7007V86.7007C47.7422 88.3575 49.0853 89.7007 50.7422 89.7007H138.849C140.506 89.7007 141.849 88.3575 141.849 86.7007V30.7007C141.849 29.0438 140.506 27.7007 138.849 27.7007Z" fill="#292C32"/>
<path d="M143.537 23.0713H55.4297C54.3251 23.0713 53.4297 23.9667 53.4297 25.0713V81.0713C53.4297 82.1759 54.3251 83.0713 55.4297 83.0713H143.537C144.641 83.0713 145.537 82.1759 145.537 81.0713V25.0713C145.537 23.9667 144.641 23.0713 143.537 23.0713Z" fill="#1E756B" stroke="#292C32" stroke-width="2"/>
<path d="M117.43 75.2142C120.793 75.2142 123.519 72.488 123.519 69.1249C123.519 65.7619 120.793 63.0356 117.43 63.0356C114.067 63.0356 111.341 65.7619 111.341 69.1249C111.341 72.488 114.067 75.2142 117.43 75.2142Z" fill="white"/>
<path d="M125.547 75.2142C128.91 75.2142 131.636 72.488 131.636 69.1249C131.636 65.7619 128.91 63.0356 125.547 63.0356C122.184 63.0356 119.458 65.7619 119.458 69.1249C119.458 72.488 122.184 75.2142 125.547 75.2142Z" fill="#FAAC04"/>
<path d="M90.381 68.125H65.5078C64.9555 68.125 64.5078 68.5727 64.5078 69.125C64.5078 69.6773 64.9555 70.125 65.5078 70.125H90.381C90.9333 70.125 91.381 69.6773 91.381 69.125C91.381 68.5727 90.9333 68.125 90.381 68.125Z" fill="white"/>
<path d="M90.381 58.125H65.5078C64.9555 58.125 64.5078 58.5727 64.5078 59.125C64.5078 59.6773 64.9555 60.125 65.5078 60.125H90.381C90.9333 60.125 91.381 59.6773 91.381 59.125C91.381 58.5727 90.9333 58.125 90.381 58.125Z" fill="white"/>
<path d="M90.381 48.125H65.5078C64.9555 48.125 64.5078 48.5727 64.5078 49.125C64.5078 49.6773 64.9555 50.125 65.5078 50.125H90.381C90.9333 50.125 91.381 49.6773 91.381 49.125C91.381 48.5727 90.9333 48.125 90.381 48.125Z" fill="white"/>
<path d="M90.381 38.125H65.5078C64.9555 38.125 64.5078 38.5727 64.5078 39.125C64.5078 39.6773 64.9555 40.125 65.5078 40.125H90.381C90.9333 40.125 91.381 39.6773 91.381 39.125C91.381 38.5727 90.9333 38.125 90.381 38.125Z" fill="white"/>
<path d="M49.4805 1.83496H86.4805V3.63827C86.4805 5.84741 84.6896 7.63827 82.4805 7.63827H53.4805C51.2713 7.63827 49.4805 5.84741 49.4805 3.63827V1.83496Z" fill="#292C32"/>
</g>
<g clip-path="url(#clip1_3131_58)">
<path d="M125.945 37.9385C125.949 37.9615 125.953 37.9795 125.955 37.9922V54.586C125.955 54.8401 125.749 55.0461 125.495 55.0461H119.567C119.313 55.0461 119.107 54.8401 119.107 54.586V37.9922C119.11 37.9795 119.113 37.9615 119.117 37.9385C119.127 37.8885 119.141 37.8147 119.159 37.7206C119.197 37.5324 119.254 37.2629 119.329 36.9393C119.481 36.2914 119.708 35.43 120.01 34.5707C120.313 33.7082 120.687 32.8632 121.128 32.2386C121.575 31.6047 122.046 31.2598 122.531 31.2598C123.017 31.2598 123.488 31.6047 123.935 32.2386C124.375 32.8632 124.749 33.7082 125.053 34.5707C125.355 35.43 125.582 36.2914 125.733 36.9393C125.809 37.2629 125.865 37.5324 125.903 37.7206C125.922 37.8147 125.936 37.8885 125.945 37.9385Z" fill="white" stroke="#292C32" stroke-width="0.519873"/>
<path d="M127.254 40.829C127.254 39.9993 127.926 39.3267 128.756 39.3267C129.586 39.3267 130.258 39.9993 130.258 40.829V55.0464H127.254V40.829Z" fill="white" stroke="#292C32" stroke-width="0.519873"/>
<path d="M127.254 55.0465H133.785C133.788 54.9885 133.779 54.882 133.716 54.7072C133.529 54.1956 132.919 53.2155 131.171 51.4348C129.426 49.6571 128.354 48.8403 127.729 48.4683C127.52 48.3444 127.365 48.2718 127.254 48.2295V55.0465Z" fill="#1E756B" stroke="#292C32" stroke-width="0.519873"/>
<path d="M113.502 41.3485C113.502 40.5188 114.175 39.8462 115.005 39.8462C115.835 39.8462 116.507 40.5188 116.507 41.3485V55.5659H113.502V41.3485Z" fill="#292C32" stroke="#292C32" stroke-width="0.519873"/>
<path d="M110.042 55.5664C110.038 55.5084 110.047 55.4019 110.111 55.2271C110.298 54.7154 110.908 53.7354 112.655 51.9547C114.401 50.1763 115.458 49.3589 116.068 48.9867C116.258 48.8703 116.402 48.7994 116.507 48.7563V55.5664H110.042Z" fill="#292C32"/>
<path d="M110.054 55.6276C110.054 55.6276 110.054 55.6276 110.054 55.6274M110.042 55.5664C110.038 55.5084 110.047 55.4019 110.111 55.2271C110.298 54.7154 110.908 53.7354 112.655 51.9547C114.401 50.1763 115.458 49.3589 116.068 48.9867C116.258 48.8703 116.402 48.7994 116.507 48.7563V55.5664H110.042Z" stroke="#292C32" stroke-width="0.519873"/>
<path d="M114.802 40.829C114.802 39.9993 115.475 39.3267 116.304 39.3267C117.134 39.3267 117.807 39.9993 117.807 40.829V55.0464H114.802V40.829Z" fill="white" stroke="#292C32" stroke-width="0.519873"/>
<path d="M111.341 55.0463C111.338 54.9883 111.347 54.8819 111.411 54.707C111.597 54.1954 112.207 53.2154 113.955 51.4346C115.701 49.6563 116.757 48.8389 117.367 48.4667C117.558 48.3503 117.702 48.2794 117.806 48.2363V55.0463H111.341Z" fill="#1E756B"/>
<path d="M111.354 55.1076C111.354 55.1076 111.354 55.1075 111.354 55.1074M111.341 55.0463C111.338 54.9883 111.347 54.8819 111.411 54.707C111.597 54.1954 112.207 53.2154 113.955 51.4346C115.701 49.6563 116.757 48.8389 117.367 48.4667C117.558 48.3503 117.702 48.2794 117.806 48.2363V55.0463H111.341Z" stroke="#292C32" stroke-width="0.519873"/>
<path d="M119.309 57.3857H119.049V57.6457V58.5976C119.049 59.1811 119.523 59.6542 120.106 59.6542H123.395C123.979 59.6542 124.452 59.1811 124.452 58.5976V57.6457V57.3857H124.192H119.309Z" fill="#292C32" stroke="#292C32" stroke-width="0.519873"/>
<path d="M120.089 56.3462H119.829V56.6061V57.5579C119.829 58.1415 120.302 58.6146 120.886 58.6146H124.175C124.759 58.6146 125.232 58.1415 125.232 57.5579V56.6061V56.3462H124.972H120.089Z" fill="#FAAC04" stroke="#292C32" stroke-width="0.519873"/>
<path d="M124.181 37.5097V37.1801C124.181 36.2692 123.442 35.5308 122.532 35.5308C121.621 35.5308 120.882 36.2692 120.882 37.1801V37.5097" stroke="#292C32" stroke-width="0.519873" stroke-linecap="round"/>
<path d="M121.445 60.667V63.5219" stroke="#292C32" stroke-width="0.519873" stroke-linecap="round"/>
<path d="M123.264 60.667V61.4198" stroke="#292C32" stroke-width="0.519873" stroke-linecap="round"/>
<path d="M123.264 62.4902V66.2923" stroke="#292C32" stroke-width="0.519873" stroke-linecap="round"/>
</g>
</g>
<defs>
<clipPath id="clip0_3131_58">
<rect width="169" height="147" fill="white"/>
</clipPath>
<clipPath id="clip1_3131_58">
<rect width="31.1924" height="35.6113" fill="white" transform="translate(107 31)"/>
</clipPath>
</defs>
</svg>
