<svg width="169" height="136" viewBox="0 0 169 136" fill="none" xmlns="http://www.w3.org/2000/svg">
<circle cx="82.3909" cy="67.9807" r="67.9807" fill="#F8EDE3"/>
<path d="M90.9768 103.228L91.1831 102.806L90.9887 102.377C88.816 97.5867 87.6056 92.2663 87.6056 86.6604C87.6056 65.6238 104.659 48.5703 125.696 48.5703C146.732 48.5703 163.786 65.6238 163.786 86.6604C163.786 107.697 146.732 124.75 125.696 124.75C115.323 124.75 105.921 120.606 99.0512 113.88L98.7301 113.566L98.2819 113.597L85.8915 114.464C85.71 114.476 85.5828 114.288 85.6625 114.124L90.9768 103.228Z" fill="#292C32" stroke="#292C32" stroke-width="2"/>
<path d="M94.9768 99.2284L95.1831 98.8055L94.9887 98.377C92.816 93.5867 91.6056 88.2663 91.6056 82.6604C91.6056 61.6238 108.659 44.5703 129.696 44.5703C150.732 44.5703 167.786 61.6238 167.786 82.6604C167.786 103.697 150.732 120.75 129.696 120.75C119.323 120.75 109.921 116.606 103.051 109.88L102.73 109.566L102.282 109.597L89.8915 110.464C89.71 110.476 89.5828 110.288 89.6625 110.124L94.9768 99.2284Z" fill="white" stroke="#292C32" stroke-width="2"/>
<circle cx="114.006" cy="83.6603" r="4.34218" fill="#1E756B"/>
<circle cx="130.924" cy="83.6603" r="4.34218" fill="#1E756B"/>
<circle cx="146.346" cy="83.6603" r="4.34218" fill="#1E756B"/>
<path d="M39.09 86.6604C17.5012 86.6604 0 69.1592 0 47.5704C0 25.9816 17.5012 8.48035 39.09 8.48035C60.6789 8.48035 78.1801 25.9816 78.1801 47.5704C78.1801 53.3216 76.9381 58.7827 74.7077 63.7001L80.0219 74.596C80.4392 75.4514 79.7739 76.4378 78.8244 76.3714L66.4341 75.5049C59.3848 82.4061 49.7343 86.6604 39.09 86.6604Z" fill="#292C32"/>
<path d="M77.797 59.287L77.6026 59.7155L77.8089 60.1385L83.1232 71.0343C83.2029 71.1979 83.0757 71.3865 82.8942 71.3738L70.5038 70.5074L70.0556 70.476L69.7345 70.7904C62.8646 77.5159 53.4623 81.6604 43.09 81.6604C22.0535 81.6604 5 64.6069 5 43.5704C5 22.5338 22.0535 5.48035 43.09 5.48035C64.1266 5.48035 81.1801 22.5338 81.1801 43.5704C81.1801 49.1763 79.9697 54.4968 77.797 59.287Z" fill="#FAAC04" stroke="#292C32" stroke-width="2"/>
<path d="M41.1365 63.6636C43.5483 63.6636 45.5035 61.7085 45.5035 59.2966C45.5035 56.8848 43.5483 54.9297 41.1365 54.9297C38.7247 54.9297 36.7695 56.8848 36.7695 59.2966C36.7695 61.7085 38.7247 63.6636 41.1365 63.6636Z" fill="white"/>
<path d="M32.9683 39.7758C34.0519 39.7758 35.0911 39.3768 35.8572 38.6665C36.6234 37.9561 37.0539 36.9927 37.0539 35.9882C37.0564 35.3059 37.2578 34.6368 37.6366 34.0519C38.0154 33.4669 38.5576 32.9876 39.2059 32.6647C39.8543 32.3418 40.5847 32.1872 41.3199 32.2174C42.0552 32.2476 42.768 32.4613 43.383 32.836C43.9981 33.2107 44.4926 33.7325 44.8142 34.3462C45.1358 34.9599 45.2726 35.6428 45.2102 36.3227C45.1477 37.0025 44.8884 37.6541 44.4595 38.2086C44.0306 38.7631 43.4481 39.1999 42.7736 39.4728C41.0746 40.1615 39.629 41.2945 38.6137 42.733C37.5985 44.1716 37.0575 45.8533 37.0571 47.5724V49.2541C37.0571 50.2587 37.4876 51.2221 38.2538 51.9324C39.0199 52.6428 40.0591 53.0418 41.1427 53.0418C42.2262 53.0418 43.2654 52.6428 44.0316 51.9324C44.7978 51.2221 45.2282 50.2587 45.2282 49.2541V47.5724C45.2276 47.3262 45.3046 47.0852 45.4498 46.879C45.595 46.6728 45.8019 46.5105 46.0453 46.4119C48.0698 45.592 49.8177 44.2802 51.1041 42.615C52.3904 40.9498 53.1674 38.9932 53.3527 36.9523C53.5381 34.9113 53.125 32.8619 52.1572 31.0207C51.1893 29.1795 49.7027 27.6151 47.8545 26.493C46.0064 25.3708 43.8654 24.7326 41.6582 24.6459C39.4509 24.5592 37.2594 25.0273 35.3155 26.0005C33.3716 26.9737 31.7476 28.4159 30.6152 30.1746C29.4829 31.9333 28.8843 33.943 28.8828 35.9912C28.8837 36.9952 29.3145 37.9579 30.0806 38.6675C30.8467 39.3772 31.8854 39.7758 32.9683 39.7758Z" fill="white"/>
</svg>
