<svg width="156" height="146" viewBox="0 0 156 146" fill="none" xmlns="http://www.w3.org/2000/svg">
<path d="M68.1089 145.953C105.724 145.953 136.218 115.517 136.218 77.9719C136.218 40.4272 105.724 9.99121 68.1089 9.99121C30.4934 9.99121 0 40.4272 0 77.9719C0 115.517 30.4934 145.953 68.1089 145.953Z" fill="#F8EDE3"/>
<path d="M67.1072 127.368C93.333 127.368 114.593 106.148 114.593 79.9715C114.593 53.795 93.333 32.5747 67.1072 32.5747C40.8813 32.5747 19.6211 53.795 19.6211 79.9715C19.6211 106.148 40.8813 127.368 67.1072 127.368Z" fill="#292C32"/>
<path d="M119.019 75.075C119.019 100.698 98.2084 121.472 72.533 121.472C46.8576 121.472 26.0469 100.698 26.0469 75.075C26.0469 49.4526 46.8576 28.6782 72.533 28.6782C98.2084 28.6782 119.019 49.4526 119.019 75.075Z" fill="white" stroke="#292C32" stroke-width="2"/>
<path d="M103.815 75.0747C103.815 92.3156 89.8065 106.3 72.5285 106.3C55.2505 106.3 41.2422 92.3156 41.2422 75.0747C41.2422 57.8338 55.2505 43.8491 72.5285 43.8491C89.8065 43.8491 103.815 57.8338 103.815 75.0747Z" fill="#FAAC04" stroke="#292C32" stroke-width="2"/>
<path d="M118.711 70.4534C137.096 70.4534 152 55.5773 152 37.2267C152 18.8761 137.096 4 118.711 4C100.326 4 85.4217 18.8761 85.4217 37.2267C85.4217 55.5773 100.326 70.4534 118.711 70.4534Z" fill="#292C32"/>
<path d="M155.001 33.2267C155.001 51.0232 140.546 65.4534 122.711 65.4534C104.877 65.4534 90.4219 51.0232 90.4219 33.2267C90.4219 15.4302 104.877 1 122.711 1C140.546 1 155.001 15.4302 155.001 33.2267Z" fill="#1E756B" stroke="#292C32" stroke-width="2"/>
<g clip-path="url(#clip0_3131_42)">
<path d="M72.5329 55.0747C83.5791 55.0747 92.5329 64.0285 92.5329 75.0747C92.5329 86.121 83.5791 95.0747 72.5329 95.0747C61.4866 95.0747 52.5329 86.121 52.5329 75.0747C52.5329 64.0285 61.4866 55.0747 72.5329 55.0747ZM76.7229 62.0247C76.4179 61.8747 76.1129 62.0247 76.0379 62.3285C75.9616 62.4047 75.9616 62.481 75.9616 62.6322V63.6947L75.9741 63.8247C76.0394 64.0819 76.1975 64.3058 76.4179 64.4535C82.3604 66.5785 85.4079 73.1785 83.1979 79.0197C82.0554 82.2072 79.5416 84.6335 76.4179 85.7722C76.1129 85.9235 75.9616 86.151 75.9616 86.531V87.5935L75.9679 87.7035C75.9798 87.8235 76.0299 87.9365 76.111 88.0259C76.192 88.1152 76.2996 88.1762 76.4179 88.1997C76.4941 88.1997 76.6466 88.1997 76.7229 88.1247C78.4374 87.5893 80.029 86.72 81.4061 85.567C82.7833 84.4139 83.9187 82.9999 84.7471 81.4062C85.5755 79.8125 86.0804 78.0707 86.2329 76.2811C86.3853 74.4914 86.1823 72.6893 85.6354 70.9785C84.2654 66.6535 80.9129 63.3897 76.7229 62.0247ZM68.6479 61.9497C68.5716 61.9497 68.4191 61.9497 68.3429 62.0247C66.6284 62.5601 65.0368 63.4294 63.6597 64.5824C62.2825 65.7355 61.1471 67.1496 60.3187 68.7432C59.4903 70.3369 58.9854 72.0787 58.8329 73.8684C58.6805 75.658 58.8835 77.4601 59.4304 79.171C60.8004 83.421 64.0766 86.6835 68.3429 88.0485C68.6479 88.1997 68.9529 88.0485 69.0279 87.7447C69.1041 87.6697 69.1041 87.5922 69.1041 87.441V86.3785L69.0916 86.2785C69.0391 86.0672 68.8429 85.826 68.6479 85.696C62.7054 83.571 59.6579 76.971 61.8679 71.1297C63.0104 67.9422 65.5241 65.516 68.6479 64.3772C68.9529 64.226 69.1041 63.9985 69.1041 63.6185V62.556L69.0979 62.446C69.086 62.3259 69.0359 62.2129 68.9548 62.1235C68.8738 62.0342 68.7662 61.9732 68.6479 61.9497ZM73.0666 65.8947H71.9229L71.8129 65.9047C71.5629 65.9547 71.3804 66.1697 71.3129 66.5022V68.2472L71.0541 68.2872C68.9191 68.6672 67.5816 70.141 67.5816 71.9647C67.5816 74.4672 69.1041 75.4535 72.3041 75.8335C74.4379 76.2122 75.1229 76.6685 75.1229 77.8822C75.1229 79.0947 74.0566 79.9297 72.6091 79.9297C70.6279 79.9297 69.9429 79.096 69.7141 77.9572C69.6391 77.6547 69.4091 77.5022 69.1804 77.5022H67.8854L67.7866 77.511C67.663 77.5301 67.5507 77.5938 67.4708 77.6901C67.3909 77.7863 67.349 77.9084 67.3529 78.0335V78.1085L67.3941 78.3335C67.7566 80.1135 68.9766 81.3872 71.3904 81.751V83.5722L71.4004 83.6822C71.4504 83.9297 71.6666 84.1122 72.0004 84.1785H73.1429L73.2529 84.1685C73.5029 84.1185 73.6854 83.9035 73.7529 83.5722V81.7497L74.0116 81.6997C76.1529 81.2472 77.5616 79.6985 77.5616 77.7285C77.5616 75.0735 75.9616 74.1635 72.7616 73.7835C70.4754 73.4797 70.0191 72.8735 70.0191 71.811C70.0191 70.7485 70.7816 70.066 72.3041 70.066C73.6754 70.066 74.4379 70.521 74.8179 71.6597C74.8578 71.7696 74.9303 71.8648 75.0256 71.9324C75.121 72.0001 75.2347 72.0371 75.3516 72.0385H76.5704L76.6691 72.031C76.7929 72.0113 76.9052 71.9473 76.9852 71.851C77.0653 71.7546 77.1075 71.6324 77.1041 71.5072V71.4322L77.0579 71.216C76.8702 70.439 76.4423 69.741 75.835 69.2212C75.2278 68.7015 74.472 68.3864 73.6754 68.321V66.5022L73.6654 66.3922C73.6154 66.1435 73.4004 65.961 73.0666 65.8947Z" fill="white"/>
</g>
<g clip-path="url(#clip1_3131_42)">
<path d="M122.711 30.5604C120.943 30.5604 119.248 29.858 117.997 28.6078C116.747 27.3575 116.045 25.6618 116.045 23.8937C116.045 22.1256 116.747 20.4299 117.997 19.1797C119.248 17.9294 120.943 17.2271 122.711 17.2271C124.48 17.2271 126.175 17.9294 127.425 19.1797C128.676 20.4299 129.378 22.1256 129.378 23.8937C129.378 25.6618 128.676 27.3575 127.425 28.6078C126.175 29.858 124.48 30.5604 122.711 30.5604ZM122.711 19.8937C120.498 19.8937 118.711 21.6804 118.711 23.8937C118.711 26.1071 120.498 27.8937 122.711 27.8937C124.925 27.8937 126.711 26.1071 126.711 23.8937C126.711 21.6804 124.925 19.8937 122.711 19.8937Z" fill="white"/>
<path d="M138.711 41.2271C137.965 41.2271 137.378 40.6404 137.378 39.8937C137.378 39.1471 137.965 38.5604 138.711 38.5604C139.458 38.5604 140.045 37.9737 140.045 37.2271C140.045 35.4589 139.342 33.7632 138.092 32.513C136.842 31.2628 135.146 30.5604 133.378 30.5604H130.711C129.965 30.5604 129.378 29.9737 129.378 29.2271C129.378 28.4804 129.965 27.8937 130.711 27.8937C132.925 27.8937 134.711 26.1071 134.711 23.8937C134.711 21.6804 132.925 19.8937 130.711 19.8937C129.965 19.8937 129.378 19.3071 129.378 18.5604C129.378 17.8137 129.965 17.2271 130.711 17.2271C132.48 17.2271 134.175 17.9294 135.425 19.1797C136.676 20.4299 137.378 22.1256 137.378 23.8937C137.378 25.5471 136.791 27.0404 135.778 28.2137C139.751 29.2804 142.711 32.9071 142.711 37.2271C142.711 39.4404 140.925 41.2271 138.711 41.2271ZM106.711 41.2271C104.498 41.2271 102.711 39.4404 102.711 37.2271C102.711 32.9071 105.645 29.2804 109.645 28.2137C108.658 27.0404 108.045 25.5471 108.045 23.8937C108.045 22.1256 108.747 20.4299 109.997 19.1797C111.248 17.9294 112.943 17.2271 114.711 17.2271C115.458 17.2271 116.045 17.8137 116.045 18.5604C116.045 19.3071 115.458 19.8937 114.711 19.8937C112.498 19.8937 110.711 21.6804 110.711 23.8937C110.711 26.1071 112.498 27.8937 114.711 27.8937C115.458 27.8937 116.045 28.4804 116.045 29.2271C116.045 29.9737 115.458 30.5604 114.711 30.5604H112.045C110.277 30.5604 108.581 31.2628 107.331 32.513C106.08 33.7632 105.378 35.4589 105.378 37.2271C105.378 37.9737 105.965 38.5604 106.711 38.5604C107.458 38.5604 108.045 39.1471 108.045 39.8937C108.045 40.6404 107.458 41.2271 106.711 41.2271ZM130.711 49.2271H114.711C112.498 49.2271 110.711 47.4404 110.711 45.2271V42.5604C110.711 37.4137 114.898 33.2271 120.045 33.2271H125.378C130.525 33.2271 134.711 37.4137 134.711 42.5604V45.2271C134.711 47.4404 132.925 49.2271 130.711 49.2271ZM120.045 35.8937C118.277 35.8937 116.581 36.5961 115.331 37.8463C114.08 39.0966 113.378 40.7923 113.378 42.5604V45.2271C113.378 45.9737 113.965 46.5604 114.711 46.5604H130.711C131.458 46.5604 132.045 45.9737 132.045 45.2271V42.5604C132.045 40.7923 131.342 39.0966 130.092 37.8463C128.842 36.5961 127.146 35.8937 125.378 35.8937H120.045Z" fill="white"/>
</g>
<defs>
<clipPath id="clip0_3131_42">
<rect width="40" height="40" fill="white" transform="translate(52.5329 55.0747)"/>
</clipPath>
<clipPath id="clip1_3131_42">
<rect width="40" height="42.6667" fill="white" transform="translate(102.711 11.8936)"/>
</clipPath>
</defs>
</svg>
