<svg width="26" height="26" viewBox="0 0 26 26" fill="none" xmlns="http://www.w3.org/2000/svg">
<path d="M14.6158 24.8602C11.4665 21.7017 12.5832 19.2412 14.293 17.5314L15.3966 16.4278C15.9242 15.9002 16.6398 15.6038 17.386 15.6038C18.1321 15.6038 18.8477 15.9002 19.3753 16.4278L24.1518 21.2043C24.3435 21.3962 24.4847 21.6324 24.5629 21.8921C24.6411 22.1517 24.6539 22.4266 24.6001 22.6924C24.5463 22.9582 24.4276 23.2065 24.2546 23.4153C24.0816 23.6241 23.8597 23.7869 23.6086 23.8892C20.6177 25.1115 17.3324 25.4234 14.165 24.7856C10.9975 24.1478 8.08898 22.5888 5.8043 20.3041C3.51962 18.0194 1.96056 15.1108 1.32276 11.9434C0.684961 8.77595 0.996821 5.49068 2.21921 2.49981C2.32146 2.24867 2.48424 2.02672 2.69304 1.85372C2.90184 1.68073 3.15018 1.56206 3.41595 1.50828C3.68172 1.4545 3.95667 1.46729 4.2163 1.5455C4.47593 1.62371 4.71219 1.76491 4.90403 1.95654L9.68055 6.73306C10.2081 7.26068 10.5045 7.97626 10.5045 8.7224C10.5045 9.46854 10.2081 10.1841 9.68055 10.7117L8.57697 11.8153C6.87107 13.5212 4.4067 14.6419 1.24816 11.4925" stroke="#055F5B" stroke-width="1.5" stroke-linecap="round" stroke-linejoin="round"/>
</svg>
