<svg width="131" height="137" viewBox="0 0 131 137" fill="none" xmlns="http://www.w3.org/2000/svg">
<ellipse cx="65.1134" cy="68.9232" rx="49.3282" ry="49.9106" fill="#F8EDE3"/>
<rect x="32.1289" y="52.1447" width="60.0847" height="39.5053" rx="2" fill="#292C32" stroke="#292C32" stroke-width="2"/>
<rect x="37.3164" y="46.5236" width="60.0847" height="39.5053" rx="2" fill="#FAAC04" stroke="#292C32" stroke-width="2"/>
<ellipse cx="83.4313" cy="77.0232" rx="4.01724" ry="4.07641" fill="white"/>
<ellipse cx="88.7868" cy="77.0232" rx="4.01724" ry="4.07641" fill="#1E756B"/>
<rect x="44.2852" y="76.3538" width="17.7288" height="1.33888" rx="0.66944" fill="white"/>
<path d="M102.606 34.9254C95.8122 27.2593 86.8738 21.8564 76.9731 19.4315C67.0723 17.0066 56.6757 17.674 47.1587 21.3455C37.6418 25.0169 29.453 31.5193 23.6758 39.9924C17.8985 48.4655 14.8051 58.5101 14.8047 68.7971V73.0473" stroke="#292C32" stroke-width="2" stroke-linecap="round" stroke-linejoin="round"/>
<path d="M27.6211 102.675C34.4142 110.34 43.3521 115.743 53.2523 118.168C63.1526 120.593 73.5487 119.926 83.0654 116.256C92.5821 112.585 100.771 106.083 106.549 97.6111C112.326 89.1388 115.421 79.0951 115.422 68.8085V64.5809" stroke="#292C32" stroke-width="2" stroke-linecap="round" stroke-linejoin="round"/>
<path fill-rule="evenodd" clip-rule="evenodd" d="M128.909 76L116.329 63.3C116.139 63.11 115.889 63 115.619 63C115.349 63 115.099 63.11 114.909 63.3L113.419 64.81C113.209 64.84 113.009 64.94 112.869 65.09L100.289 77.79C100.009 78.08 99.9189 78.51 100.079 78.88C100.229 79.25 100.599 79.49 100.999 79.49H126.149C126.559 79.49 126.919 79.25 127.079 78.88C127.229 78.51 127.149 78.08 126.859 77.79L126.769 77.7H128.199C128.599 77.7 128.969 77.46 129.119 77.09C129.279 76.71 129.189 76.28 128.909 76Z" fill="#292C32"/>
<path fill-rule="evenodd" clip-rule="evenodd" d="M125.799 75.7H105.439L113.709 67.35L114.419 66.64L115.119 65.93L115.619 65.42L125.799 75.7Z" fill="#1E756B"/>
<path fill-rule="evenodd" clip-rule="evenodd" d="M28.3041 60.62C28.1441 60.25 27.7841 60 27.3841 60H2.22408C1.82408 60 1.46408 60.25 1.30408 60.62C1.14408 60.99 1.23408 61.42 1.51408 61.71L2.03408 62.23H1.00408C0.594078 62.23 0.234078 62.47 0.0740782 62.84C-0.0759218 63.21 0.00407821 63.64 0.294078 63.93L12.8641 76.63C13.0541 76.82 13.3141 76.93 13.5741 76.93C13.8441 76.93 14.1041 76.82 14.2841 76.63L26.8641 63.93C27.1541 63.64 27.2341 63.21 27.0741 62.84C27.0641 62.82 27.0541 62.8 27.0441 62.78L28.0941 61.71C28.3741 61.42 28.4641 60.99 28.3041 60.62ZM24.7541 62.23L22.7741 64.23L14.8041 72.28L6.83408 64.23L4.85408 62.23L4.62408 62H4.64408L4.85408 62.21L6.83408 64.21L14.8041 72.26L22.7741 64.21L24.7541 62.21L24.9641 62H24.9841L24.7541 62.23Z" fill="#292C32"/>
<path fill-rule="evenodd" clip-rule="evenodd" d="M24.985 62L24.755 62.23L22.775 64.23L14.805 72.28L6.835 64.23L4.855 62.23L4.625 62H24.985Z" fill="#1E756B"/>
</svg>
