<svg width="169" height="147" viewBox="0 0 169 147" fill="none" xmlns="http://www.w3.org/2000/svg">
<circle cx="67.9807" cy="78.7635" r="67.9807" fill="#F8EDE3"/>
<mask id="mask0" mask-type="alpha" maskUnits="userSpaceOnUse" x="0" y="-14" width="153" height="161">
<path d="M149.243 89.6776C150.709 104.959 143.01 99.6125 140.827 106.277C139.325 110.864 133.871 113.44 131.477 117.539C128.461 122.704 120.031 122.893 115.808 127.074C103.525 139.235 86.6301 146.744 67.9807 146.744C30.436 146.744 0 116.308 0 78.7636C0 41.2189 0 -14 67.9807 -14C116.045 -14 135.002 7.93928 139.127 41.6758C139.616 45.6767 152.274 50.826 152.523 54.733C153.145 64.4776 149.243 81.8261 149.243 89.6776Z" fill="#EFA6B4"/>
</mask>
<g mask="url(#mask0)">
<rect x="15.4922" y="10.7827" width="75.143" height="130.908" rx="11" fill="#292C32"/>
<rect x="24.4805" y="1.76355" width="87" height="154" rx="10" fill="white" stroke="#292C32" stroke-width="2"/>
<path d="M74.0176 22.8301C71.5852 21.4258 68.8259 20.6865 66.0173 20.6867C63.2086 20.6869 60.4494 21.4265 58.0172 22.8311C55.585 24.2357 53.5654 26.2559 52.1615 28.6886C50.7576 31.1212 50.0189 33.8806 50.0195 36.6893" stroke="#1E756B" stroke-width="4" stroke-linecap="round" stroke-linejoin="round"/>
<path d="M82.0186 36.6893C82.0214 34.4872 81.5682 32.3083 80.6875 30.2899" stroke="#1E756B" stroke-width="4" stroke-linecap="round" stroke-linejoin="round"/>
<path d="M66.0195 68.6867C67.0941 68.6868 68.166 68.5797 69.2193 68.3667" stroke="#1E756B" stroke-width="4" stroke-linecap="round" stroke-linejoin="round"/>
<path d="M50.0195 46.2885V52.688C50.0186 55.8017 50.9264 58.8481 52.6315 61.4535C54.3366 64.0589 56.7649 66.1101 59.6188 67.3556" stroke="#1E756B" stroke-width="4" stroke-linecap="round" stroke-linejoin="round"/>
<path d="M75.6176 39.889V36.6892C75.6179 35.0041 75.1746 33.3485 74.3322 31.889C73.4899 30.4294 72.2781 29.2174 70.8188 28.3747C69.3595 27.5319 67.704 27.0882 66.0188 27.0881C64.3337 27.0881 62.6782 27.5316 61.2188 28.3742" stroke="#1E756B" stroke-width="4" stroke-linecap="round" stroke-linejoin="round"/>
<path d="M56.418 36.6893V52.688C56.418 55.2338 57.4293 57.6754 59.2295 59.4756C61.0297 61.2758 63.4713 62.2872 66.0172 62.2872" stroke="#1E756B" stroke-width="4" stroke-linecap="round" stroke-linejoin="round"/>
<path d="M69.2198 44.6886V36.6892C69.2198 35.8406 68.8827 35.0268 68.2826 34.4267C67.6825 33.8266 66.8687 33.4895 66.0201 33.4895C65.1714 33.4895 64.3576 33.8266 63.7575 34.4267C63.1574 35.0268 62.8203 35.8406 62.8203 36.6892V43.0887" stroke="#1E756B" stroke-width="4" stroke-linecap="round" stroke-linejoin="round"/>
<path d="M62.8203 52.688C62.8203 53.5366 63.1574 54.3505 63.7575 54.9505C64.3576 55.5506 65.1714 55.8877 66.0201 55.8877" stroke="#1E756B" stroke-width="4" stroke-linecap="round" stroke-linejoin="round"/>
<path d="M72.4062 55.8877C72.4062 59.2822 73.7547 62.5377 76.155 64.9379C78.5552 67.3382 81.8107 68.6867 85.2052 68.6867C88.5997 68.6867 91.8552 67.3382 94.2554 64.9379C96.6557 62.5377 98.0042 59.2822 98.0042 55.8877C98.0042 52.4932 96.6557 49.2377 94.2554 46.8375C91.8552 44.4372 88.5997 43.0887 85.2052 43.0887C81.8107 43.0887 78.5552 44.4372 76.155 46.8375C73.7547 49.2377 72.4062 52.4932 72.4062 55.8877Z" fill="#FAAC04"/>
<path d="M90.9146 52.1654L84.7178 60.4293C84.58 60.6125 84.4045 60.7641 84.2031 60.8737C84.0017 60.9833 83.7791 61.0483 83.5504 61.0645C83.3217 61.0807 83.0922 61.0476 82.8774 60.9674C82.6625 60.8873 82.4674 60.762 82.3052 60.5999L79.1055 57.4002" stroke="white" stroke-width="2" stroke-linecap="round" stroke-linejoin="round"/>
<path d="M49.4805 2.17877H86.4805V3.98209C86.4805 6.19122 84.6896 7.98208 82.4805 7.98208H53.4805C51.2713 7.98208 49.4805 6.19122 49.4805 3.98209V2.17877Z" fill="#292C32"/>
<rect x="47.5078" y="84.7698" width="86.8696" height="28.3475" rx="3" fill="#292C32"/>
<rect x="53.5078" y="79.7637" width="84.8545" height="26.3762" rx="2" fill="#FAAC04" stroke="#292C32" stroke-width="2"/>
<path d="M75.7761 90.4823C75.5975 90.2101 75.3182 90.0199 74.9994 89.9536C74.6807 89.8873 74.3487 89.9502 74.0764 90.1286L73.8717 90.2629C73.8099 90.3033 73.7384 90.3263 73.6647 90.3295C73.5909 90.3326 73.5177 90.3157 73.4528 90.2806C73.3878 90.2456 73.3336 90.1936 73.2958 90.1302C73.258 90.0669 73.238 89.9944 73.2379 89.9206V89.6766C73.2379 89.3509 73.1085 89.0385 72.8782 88.8082C72.6479 88.5779 72.3355 88.4485 72.0098 88.4485C71.6841 88.4485 71.3717 88.5779 71.1413 88.8082C70.911 89.0385 70.7816 89.3509 70.7816 89.6766V89.8912C70.7817 89.9653 70.7616 90.0381 70.7235 90.1018C70.6854 90.1654 70.6307 90.2175 70.5653 90.2525C70.4999 90.2875 70.4262 90.304 70.3521 90.3004C70.278 90.2967 70.2063 90.273 70.1446 90.2318L69.9661 90.1122C69.6951 89.9358 69.3654 89.8734 69.0487 89.9386C68.7319 90.0037 68.4537 90.1912 68.2743 90.4603C68.0949 90.7294 68.0289 91.0583 68.0906 91.3758C68.1522 91.6932 68.3366 91.9735 68.6037 92.1559L69.2718 92.5996C69.3277 92.6375 69.3735 92.6885 69.4052 92.7482C69.4369 92.8078 69.4535 92.8743 69.4536 92.9419C69.4532 93.0087 69.4365 93.0744 69.4048 93.1332C69.3731 93.1921 69.3274 93.2422 69.2718 93.2792L68.6037 93.7181C68.4639 93.8042 68.3427 93.9174 68.2475 94.0512C68.1522 94.1849 68.0847 94.3364 68.0489 94.4967C68.0132 94.6569 68.01 94.8227 68.0395 94.9843C68.0689 95.1458 68.1305 95.2998 68.2205 95.4371C68.3106 95.5745 68.4272 95.6924 68.5636 95.7838C68.7 95.8753 68.8533 95.9385 69.0145 95.9697C69.1757 96.0008 69.3416 95.9994 69.5022 95.9653C69.6628 95.9313 69.815 95.8654 69.9498 95.7715L70.1528 95.6389C70.2144 95.598 70.286 95.5747 70.3599 95.5716C70.4338 95.5684 70.5071 95.5854 70.572 95.6209C70.6368 95.6562 70.6909 95.7082 70.7287 95.7716C70.7664 95.835 70.7864 95.9074 70.7865 95.9811V96.2268C70.7865 96.5525 70.9159 96.8649 71.1463 97.0952C71.3766 97.3255 71.689 97.4549 72.0147 97.4549C72.3404 97.4549 72.6528 97.3255 72.8831 97.0952C73.1135 96.8649 73.2428 96.5525 73.2428 96.2268V96.0123C73.2431 95.9382 73.2634 95.8656 73.3016 95.8022C73.3398 95.7388 73.3945 95.6869 73.4599 95.6522C73.5253 95.6174 73.5989 95.601 73.6728 95.6047C73.7467 95.6084 73.8183 95.6321 73.8798 95.6733L74.0583 95.7912C74.3294 95.9676 74.659 96.03 74.9758 95.9648C75.2925 95.8997 75.5708 95.7122 75.7502 95.4431C75.9296 95.1741 75.9956 94.8451 75.9339 94.5276C75.8722 94.2102 75.6879 93.9299 75.4208 93.7476L74.7559 93.3038C74.6992 93.2667 74.6525 93.2161 74.6203 93.1565C74.588 93.0969 74.5711 93.0301 74.5711 92.9624C74.5711 92.8946 74.588 92.8278 74.6203 92.7682C74.6525 92.7086 74.6992 92.658 74.7559 92.6209L75.4257 92.1821C75.5604 92.0935 75.6763 91.9793 75.7668 91.8459C75.8573 91.7126 75.9207 91.5627 75.9532 91.4048C75.9857 91.247 75.9869 91.0842 75.9565 90.9259C75.9261 90.7676 75.8648 90.6169 75.7761 90.4823Z" fill="white"/>
<path d="M91.7331 90.4823C91.5546 90.2101 91.2752 90.0199 90.9565 89.9536C90.6377 89.8873 90.3057 89.9502 90.0334 90.1286L89.8287 90.2629C89.767 90.3033 89.6954 90.3263 89.6217 90.3295C89.548 90.3326 89.4748 90.3157 89.4098 90.2806C89.3449 90.2456 89.2906 90.1936 89.2528 90.1302C89.215 90.0669 89.195 89.9944 89.195 89.9206V89.6766C89.195 89.3509 89.0656 89.0385 88.8352 88.8082C88.6049 88.5779 88.2925 88.4485 87.9668 88.4485C87.6411 88.4485 87.3287 88.5779 87.0984 88.8082C86.8681 89.0385 86.7387 89.3509 86.7387 89.6766V89.8912C86.7387 89.9653 86.7186 90.0381 86.6805 90.1018C86.6424 90.1654 86.5877 90.2175 86.5223 90.2525C86.4569 90.2875 86.3832 90.304 86.3091 90.3004C86.235 90.2967 86.1633 90.273 86.1017 90.2318L85.9232 90.1122C85.6521 89.9358 85.3225 89.8734 85.0057 89.9386C84.689 90.0037 84.4107 90.1912 84.2313 90.4603C84.0519 90.7294 83.9859 91.0583 84.0476 91.3758C84.1093 91.6932 84.2937 91.9735 84.5607 92.1559L85.2289 92.5996C85.2848 92.6375 85.3305 92.6885 85.3622 92.7482C85.3939 92.8078 85.4105 92.8743 85.4106 92.9419C85.4103 93.0087 85.3935 93.0744 85.3618 93.1332C85.3301 93.1921 85.2845 93.2422 85.2289 93.2792L84.5607 93.7181C84.4209 93.8042 84.2998 93.9174 84.2045 94.0512C84.1092 94.1849 84.0417 94.3364 84.006 94.4967C83.9703 94.6569 83.967 94.8227 83.9965 94.9843C84.026 95.1458 84.0875 95.2998 84.1776 95.4371C84.2676 95.5745 84.3842 95.6924 84.5206 95.7838C84.657 95.8753 84.8103 95.9385 84.9715 95.9697C85.1328 96.0008 85.2986 95.9994 85.4592 95.9653C85.6199 95.9313 85.7721 95.8654 85.9068 95.7715L86.1098 95.6389C86.1715 95.598 86.2431 95.5747 86.3169 95.5716C86.3908 95.5684 86.4642 95.5854 86.5291 95.6209C86.5939 95.6562 86.648 95.7082 86.6857 95.7716C86.7235 95.835 86.7434 95.9074 86.7436 95.9811V96.2268C86.7436 96.5525 86.873 96.8649 87.1033 97.0952C87.3336 97.3255 87.646 97.4549 87.9717 97.4549C88.2975 97.4549 88.6098 97.3255 88.8402 97.0952C89.0705 96.8649 89.1999 96.5525 89.1999 96.2268V96.0123C89.2001 95.9382 89.2204 95.8656 89.2586 95.8022C89.2969 95.7388 89.3516 95.6869 89.4169 95.6522C89.4823 95.6174 89.5559 95.601 89.6298 95.6047C89.7038 95.6084 89.7753 95.6321 89.8369 95.6733L90.0154 95.7912C90.2864 95.9676 90.6161 96.03 90.9328 95.9648C91.2496 95.8997 91.5278 95.7122 91.7072 95.4431C91.8866 95.1741 91.9526 94.8451 91.891 94.5276C91.8293 94.2102 91.6449 93.9299 91.3778 93.7476L90.713 93.3038C90.6562 93.2667 90.6096 93.2161 90.5773 93.1565C90.545 93.0969 90.5281 93.0301 90.5281 92.9624C90.5281 92.8946 90.545 92.8278 90.5773 92.7682C90.6096 92.7086 90.6562 92.658 90.713 92.6209L91.3827 92.1821C91.5174 92.0935 91.6333 91.9793 91.7238 91.8459C91.8143 91.7126 91.8777 91.5627 91.9102 91.4048C91.9428 91.247 91.9439 91.0842 91.9135 90.9259C91.8831 90.7676 91.8218 90.6169 91.7331 90.4823Z" fill="white"/>
<path d="M107.69 90.4823C107.512 90.2101 107.232 90.0199 106.914 89.9536C106.595 89.8873 106.263 89.9502 105.99 90.1286L105.786 90.2629C105.724 90.3033 105.652 90.3263 105.579 90.3295C105.505 90.3326 105.432 90.3157 105.367 90.2806C105.302 90.2456 105.248 90.1936 105.21 90.1302C105.172 90.0669 105.152 89.9944 105.152 89.9206V89.6766C105.152 89.3509 105.023 89.0385 104.792 88.8082C104.562 88.5779 104.25 88.4485 103.924 88.4485C103.598 88.4485 103.286 88.5779 103.055 88.8082C102.825 89.0385 102.696 89.3509 102.696 89.6766V89.8912C102.696 89.9653 102.676 90.0381 102.638 90.1018C102.599 90.1654 102.545 90.2175 102.479 90.2525C102.414 90.2875 102.34 90.304 102.266 90.3004C102.192 90.2967 102.12 90.273 102.059 90.2318L101.88 90.1122C101.609 89.9358 101.279 89.8734 100.963 89.9386C100.646 90.0037 100.368 90.1912 100.188 90.4603C100.009 90.7294 99.9429 91.0583 100.005 91.3758C100.066 91.6932 100.251 91.9735 100.518 92.1559L101.186 92.5996C101.242 92.6375 101.288 92.6885 101.319 92.7482C101.351 92.8078 101.368 92.8743 101.368 92.9419C101.367 93.0087 101.351 93.0744 101.319 93.1332C101.287 93.1921 101.242 93.2422 101.186 93.2792L100.518 93.7181C100.378 93.8042 100.257 93.9174 100.162 94.0512C100.066 94.1849 99.9987 94.3364 99.963 94.4967C99.9273 94.6569 99.9241 94.8227 99.9535 94.9843C99.983 95.1458 100.045 95.2998 100.135 95.4371C100.225 95.5745 100.341 95.6924 100.478 95.7838C100.614 95.8753 100.767 95.9385 100.929 95.9697C101.09 96.0008 101.256 95.9994 101.416 95.9653C101.577 95.9313 101.729 95.8654 101.864 95.7715L102.067 95.6389C102.128 95.598 102.2 95.5747 102.274 95.5716C102.348 95.5684 102.421 95.5854 102.486 95.6209C102.551 95.6562 102.605 95.7082 102.643 95.7716C102.68 95.835 102.7 95.9074 102.701 95.9811V96.2268C102.701 96.5525 102.83 96.8649 103.06 97.0952C103.291 97.3255 103.603 97.4549 103.929 97.4549C104.254 97.4549 104.567 97.3255 104.797 97.0952C105.028 96.8649 105.157 96.5525 105.157 96.2268V96.0123C105.157 95.9382 105.177 95.8656 105.216 95.8022C105.254 95.7388 105.309 95.6869 105.374 95.6522C105.439 95.6174 105.513 95.601 105.587 95.6047C105.661 95.6084 105.732 95.6321 105.794 95.6733L105.972 95.7912C106.243 95.9676 106.573 96.03 106.89 95.9648C107.207 95.8997 107.485 95.7122 107.664 95.4431C107.844 95.1741 107.91 94.8451 107.848 94.5276C107.786 94.2102 107.602 93.9299 107.335 93.7476L106.67 93.3038C106.613 93.2667 106.567 93.2161 106.534 93.1565C106.502 93.0969 106.485 93.0301 106.485 92.9624C106.485 92.8946 106.502 92.8278 106.534 92.7682C106.567 92.7086 106.613 92.658 106.67 92.6209L107.34 92.1821C107.474 92.0935 107.59 91.9793 107.681 91.8459C107.771 91.7126 107.835 91.5627 107.867 91.4048C107.9 91.247 107.901 91.0842 107.871 90.9259C107.84 90.7676 107.779 90.6169 107.69 90.4823Z" fill="white"/>
<path d="M123.647 90.4823C123.469 90.2101 123.189 90.0199 122.871 89.9536C122.552 89.8873 122.22 89.9502 121.947 90.1286L121.743 90.2629C121.681 90.3033 121.609 90.3263 121.536 90.3295C121.462 90.3326 121.389 90.3157 121.324 90.2806C121.259 90.2456 121.205 90.1936 121.167 90.1302C121.129 90.0669 121.109 89.9944 121.109 89.9206V89.6766C121.109 89.3509 120.98 89.0385 120.749 88.8082C120.519 88.5779 120.207 88.4485 119.881 88.4485C119.555 88.4485 119.243 88.5779 119.012 88.8082C118.782 89.0385 118.653 89.3509 118.653 89.6766V89.8912C118.653 89.9653 118.633 90.0381 118.595 90.1018C118.556 90.1654 118.502 90.2175 118.436 90.2525C118.371 90.2875 118.297 90.304 118.223 90.3004C118.149 90.2967 118.077 90.273 118.016 90.2318L117.837 90.1122C117.566 89.9358 117.237 89.8734 116.92 89.9386C116.603 90.0037 116.325 90.1912 116.145 90.4603C115.966 90.7294 115.9 91.0583 115.962 91.3758C116.023 91.6932 116.208 91.9735 116.475 92.1559L117.143 92.5996C117.199 92.6375 117.245 92.6885 117.276 92.7482C117.308 92.8078 117.325 92.8743 117.325 92.9419C117.324 93.0087 117.308 93.0744 117.276 93.1332C117.244 93.1921 117.199 93.2422 117.143 93.2792L116.475 93.7181C116.335 93.8042 116.214 93.9174 116.119 94.0512C116.023 94.1849 115.956 94.3364 115.92 94.4967C115.884 94.6569 115.881 94.8227 115.911 94.9843C115.94 95.1458 116.002 95.2998 116.092 95.4371C116.182 95.5745 116.298 95.6924 116.435 95.7838C116.571 95.8753 116.724 95.9385 116.886 95.9697C117.047 96.0008 117.213 95.9994 117.373 95.9653C117.534 95.9313 117.686 95.8654 117.821 95.7715L118.024 95.6389C118.086 95.598 118.157 95.5747 118.231 95.5716C118.305 95.5684 118.378 95.5854 118.443 95.6209C118.508 95.6562 118.562 95.7082 118.6 95.7716C118.638 95.835 118.658 95.9074 118.658 95.9811V96.2268C118.658 96.5525 118.787 96.8649 119.017 97.0952C119.248 97.3255 119.56 97.4549 119.886 97.4549C120.212 97.4549 120.524 97.3255 120.754 97.0952C120.985 96.8649 121.114 96.5525 121.114 96.2268V96.0123C121.114 95.9382 121.134 95.8656 121.173 95.8022C121.211 95.7388 121.266 95.6869 121.331 95.6522C121.396 95.6174 121.47 95.601 121.544 95.6047C121.618 95.6084 121.689 95.6321 121.751 95.6733L121.929 95.7912C122.2 95.9676 122.53 96.03 122.847 95.9648C123.164 95.8997 123.442 95.7122 123.621 95.4431C123.801 95.1741 123.867 94.8451 123.805 94.5276C123.743 94.2102 123.559 93.9299 123.292 93.7476L122.627 93.3038C122.57 93.2667 122.524 93.2161 122.491 93.1565C122.459 93.0969 122.442 93.0301 122.442 92.9624C122.442 92.8946 122.459 92.8278 122.491 92.7682C122.524 92.7086 122.57 92.658 122.627 92.6209L123.297 92.1821C123.431 92.0935 123.547 91.9793 123.638 91.8459C123.728 91.7126 123.792 91.5627 123.824 91.4048C123.857 91.247 123.858 91.0842 123.828 90.9259C123.797 90.7676 123.736 90.6169 123.647 90.4823Z" fill="white"/>
</g>
</svg>
