<svg width="122" height="122" viewBox="0 0 122 122" fill="none" xmlns="http://www.w3.org/2000/svg">
<circle cx="60.8496" cy="60.8496" r="60.8496" fill="#F8EDE3"/>
<path d="M59.5013 104.712C81.5169 104.712 99.364 86.8653 99.364 64.8497C99.364 42.8342 81.5169 24.9871 59.5013 24.9871C37.4858 24.9871 19.6387 42.8342 19.6387 64.8497C19.6387 86.8653 37.4858 104.712 59.5013 104.712Z" fill="#292C32" stroke="#292C32" stroke-width="2" stroke-linecap="round" stroke-linejoin="round"/>
<path d="M63.5013 100.712C85.5169 100.712 103.364 82.8653 103.364 60.8498C103.364 38.8342 85.5169 20.9871 63.5013 20.9871C41.4858 20.9871 23.6387 38.8342 23.6387 60.8498C23.6387 82.8653 41.4858 100.712 63.5013 100.712Z" fill="white" stroke="#292C32" stroke-width="2" stroke-linecap="round" stroke-linejoin="round"/>
<path d="M102.289 60.7909C102.289 82.213 84.9233 99.5791 63.5011 99.5791C42.079 99.5791 24.7129 82.213 24.7129 60.7909C24.7129 39.3687 42.079 22.0027 63.5011 22.0027C84.9233 22.0027 102.289 39.3687 102.289 60.7909ZM29.445 60.7909C29.445 79.5996 44.6924 94.847 63.5011 94.847C82.3098 94.847 97.5573 79.5996 97.5573 60.7909C97.5573 41.9822 82.3098 26.7347 63.5011 26.7347C44.6924 26.7347 29.445 41.9822 29.445 60.7909Z" fill="#FAAC04"/>
<path d="M62.5664 59.5156V42.7716" stroke="#292C32" stroke-width="2" stroke-linecap="round" stroke-linejoin="round"/>
<path d="M62.5664 59.5157L78.8147 75.764" stroke="#292C32" stroke-width="2" stroke-linecap="round" stroke-linejoin="round"/>
<circle cx="63.5017" cy="60.9228" r="5.35518" fill="#055F5B"/>
</svg>
