<svg width="131" height="137" viewBox="0 0 131 137" fill="none" xmlns="http://www.w3.org/2000/svg">
<ellipse cx="57.9165" cy="79.0608" rx="57.9165" ry="57.939" fill="#F8EDE3"/>
<mask id="mask0" mask-type="alpha" maskUnits="userSpaceOnUse" x="0" y="0" width="130" height="137">
<path d="M127.148 88.3629C128.397 101.387 121.838 96.8303 119.978 102.51C118.698 106.42 114.052 108.616 112.012 112.109C109.443 116.511 102.261 116.672 98.6631 120.236C88.199 130.6 73.8049 137 57.9165 137C25.9301 137 0 111.06 0 79.061C0 47.0622 0 3.76065e-05 57.9165 3.76065e-05C98.8652 3.76065e-05 115.015 18.6985 118.53 47.4517C118.947 50.8615 129.73 55.2502 129.943 58.5801C130.472 66.8853 127.148 81.6712 127.148 88.3629Z" fill="#EFA6B4"/>
</mask>
<g mask="url(#mask0)">
<rect x="14.1895" y="22.1057" width="73.8239" height="130.956" rx="10" fill="#292C32" stroke="#292C32" stroke-width="2"/>
<rect x="21.0059" y="13.5828" width="73.8239" height="130.956" rx="10" fill="white" stroke="#292C32" stroke-width="2"/>
<path d="M63.0605 31.3898C60.9882 30.1929 58.6374 29.5628 56.2446 29.563C53.8517 29.5631 51.501 30.1935 49.4289 31.3906C47.3567 32.5878 45.6362 34.3095 44.4401 36.3829C43.244 38.4562 42.6147 40.8079 42.6152 43.2017" stroke="#1E756B" stroke-width="3.5" stroke-linecap="round" stroke-linejoin="round"/>
<path d="M69.8762 43.2017C69.8786 41.3249 69.4925 39.4678 68.7422 37.7476" stroke="#1E756B" stroke-width="3.5" stroke-linecap="round" stroke-linejoin="round"/>
<path d="M56.2461 70.4727C57.1616 70.4728 58.0748 70.3814 58.9721 70.2" stroke="#1E756B" stroke-width="3.5" stroke-linecap="round" stroke-linejoin="round"/>
<path d="M42.6152 51.3831V56.8372C42.6145 59.491 43.3879 62.0874 44.8405 64.3079C46.2932 66.5285 48.362 68.2767 50.7933 69.3382" stroke="#1E756B" stroke-width="3.5" stroke-linecap="round" stroke-linejoin="round"/>
<path d="M64.4234 45.9288V43.2017C64.4237 41.7654 64.046 40.3544 63.3283 39.1105C62.6107 37.8665 61.5783 36.8335 60.335 36.1153C59.0918 35.397 57.6814 35.0189 56.2457 35.0188C54.81 35.0187 53.3996 35.3968 52.1562 36.1149" stroke="#1E756B" stroke-width="3.5" stroke-linecap="round" stroke-linejoin="round"/>
<path d="M48.0664 43.2017V56.8371C48.0664 59.0069 48.928 61.0879 50.4617 62.6222C51.9954 64.1564 54.0755 65.0184 56.2445 65.0184" stroke="#1E756B" stroke-width="3.5" stroke-linecap="round" stroke-linejoin="round"/>
<path d="M58.9735 50.0194V43.2017C58.9735 42.4784 58.6863 41.7848 58.1751 41.2734C57.6639 40.7619 56.9705 40.4746 56.2475 40.4746C55.5245 40.4746 54.8311 40.7619 54.3199 41.2734C53.8087 41.7848 53.5215 42.4784 53.5215 43.2017V48.6559" stroke="#1E756B" stroke-width="3.5" stroke-linecap="round" stroke-linejoin="round"/>
<path d="M53.5215 56.8372C53.5215 57.5604 53.8087 58.2541 54.3199 58.7655C54.8312 59.2769 55.5245 59.5643 56.2475 59.5643" stroke="#1E756B" stroke-width="3.5" stroke-linecap="round" stroke-linejoin="round"/>
<path d="M61.6875 59.5644C61.6875 62.4574 62.8363 65.232 64.8812 67.2777C66.9262 69.3235 69.6997 70.4727 72.5916 70.4727C75.4836 70.4727 78.2571 69.3235 80.302 67.2777C82.3469 65.232 83.4958 62.4574 83.4958 59.5644C83.4958 56.6713 82.3469 53.8967 80.302 51.851C78.2571 49.8053 75.4836 48.656 72.5916 48.656C69.6997 48.656 66.9262 49.8053 64.8812 51.851C62.8363 53.8967 61.6875 56.6713 61.6875 59.5644Z" fill="#FAAC04"/>
<path d="M77.4554 56.3918L72.176 63.435C72.0586 63.5912 71.9091 63.7204 71.7375 63.8138C71.5659 63.9072 71.3763 63.9626 71.1814 63.9764C70.9866 63.9902 70.791 63.962 70.608 63.8937C70.425 63.8254 70.2588 63.7186 70.1206 63.5805L67.3945 60.8534" stroke="white" stroke-width="2" stroke-linecap="round" stroke-linejoin="round"/>
<path d="M42.1562 13.7888H73.6786V14.7349C73.6786 16.944 71.8877 18.7349 69.6786 18.7349H46.1562C43.9471 18.7349 42.1562 16.944 42.1562 14.7349V13.7888Z" fill="#292C32"/>
<rect x="41.4746" y="85.1748" width="71.9961" height="22.1846" rx="2" fill="#292C32" stroke="#292C32" stroke-width="2"/>
<rect x="45.7344" y="80.061" width="71.9961" height="22.1846" rx="2" fill="#FAAC04" stroke="#292C32" stroke-width="2"/>
<path d="M64.5575 89.0486C64.4053 88.8166 64.1673 88.6545 63.8958 88.598C63.6242 88.5415 63.3414 88.5951 63.1094 88.7471L62.935 88.8616C62.8824 88.896 62.8214 88.9156 62.7586 88.9183C62.6958 88.921 62.6334 88.9066 62.5781 88.8767C62.5228 88.8468 62.4766 88.8025 62.4443 88.7485C62.4121 88.6945 62.3951 88.6328 62.3951 88.5699V88.3619C62.3951 88.0843 62.2848 87.8181 62.0886 87.6218C61.8924 87.4255 61.6262 87.3152 61.3487 87.3152C61.0712 87.3152 60.8051 87.4255 60.6089 87.6218C60.4126 87.8181 60.3024 88.0843 60.3024 88.3619V88.5448C60.3025 88.608 60.2853 88.67 60.2529 88.7243C60.2204 88.7785 60.1738 88.8229 60.1181 88.8527C60.0624 88.8825 59.9996 88.8966 59.9364 88.8935C59.8733 88.8904 59.8122 88.8702 59.7597 88.835L59.6076 88.7332C59.3767 88.5828 59.0959 88.5296 58.826 88.5852C58.5561 88.6407 58.3191 88.8005 58.1662 89.0298C58.0134 89.2591 57.9572 89.5395 58.0097 89.8101C58.0623 90.0806 58.2194 90.3195 58.4469 90.4749L59.0161 90.8531C59.0637 90.8855 59.1027 90.9289 59.1297 90.9798C59.1567 91.0306 59.1709 91.0873 59.171 91.1448C59.1707 91.2018 59.1564 91.2578 59.1294 91.3079C59.1024 91.3581 59.0635 91.4008 59.0161 91.4323L58.4469 91.8064C58.3278 91.8798 58.2246 91.9763 58.1434 92.0903C58.0622 92.2043 58.0047 92.3334 57.9743 92.47C57.9438 92.6066 57.9411 92.7479 57.9662 92.8856C57.9913 93.0232 58.0438 93.1545 58.1205 93.2715C58.1972 93.3886 58.2965 93.489 58.4127 93.567C58.5289 93.6449 58.6595 93.6988 58.7969 93.7254C58.9342 93.7519 59.0755 93.7507 59.2124 93.7217C59.3492 93.6927 59.4789 93.6365 59.5937 93.5565L59.7667 93.4435C59.8192 93.4086 59.8802 93.3888 59.9431 93.3861C60.0061 93.3834 60.0685 93.3979 60.1238 93.4281C60.179 93.4582 60.2251 93.5025 60.2573 93.5566C60.2894 93.6106 60.3065 93.6723 60.3066 93.7352V93.9445C60.3066 94.2221 60.4168 94.4884 60.6131 94.6847C60.8093 94.881 61.0754 94.9912 61.3529 94.9912C61.6304 94.9912 61.8966 94.881 62.0928 94.6847C62.289 94.4884 62.3992 94.2221 62.3992 93.9445V93.7617C62.3994 93.6986 62.4168 93.6367 62.4493 93.5827C62.4819 93.5286 62.5285 93.4844 62.5842 93.4548C62.6399 93.4251 62.7025 93.4111 62.7655 93.4143C62.8286 93.4175 62.8895 93.4377 62.9419 93.4728L63.094 93.5733C63.3249 93.7236 63.6058 93.7768 63.8756 93.7213C64.1455 93.6657 64.3826 93.5059 64.5354 93.2766C64.6882 93.0473 64.7445 92.7669 64.6919 92.4964C64.6394 92.2258 64.4823 91.9869 64.2547 91.8315L63.6883 91.4533C63.64 91.4217 63.6002 91.3785 63.5727 91.3277C63.5452 91.2769 63.5308 91.2201 63.5308 91.1623C63.5308 91.1045 63.5452 91.0476 63.5727 90.9968C63.6002 90.946 63.64 90.9029 63.6883 90.8713L64.2589 90.4973C64.3737 90.4218 64.4724 90.3245 64.5495 90.2108C64.6267 90.0971 64.6806 89.9694 64.7084 89.8348C64.7361 89.7003 64.737 89.5616 64.7111 89.4267C64.6852 89.2918 64.633 89.1633 64.5575 89.0486V89.0486Z" fill="white"/>
<path d="M78.1512 89.0486C77.9991 88.8166 77.7611 88.6545 77.4895 88.598C77.218 88.5415 76.9351 88.5951 76.7031 88.7471L76.5287 88.8616C76.4761 88.896 76.4152 88.9156 76.3524 88.9183C76.2896 88.921 76.2272 88.9066 76.1719 88.8767C76.1165 88.8468 76.0703 88.8025 76.0381 88.7485C76.0059 88.6945 75.9888 88.6328 75.9888 88.5699V88.3619C75.9888 88.0843 75.8786 87.8181 75.6823 87.6218C75.4861 87.4255 75.22 87.3152 74.9425 87.3152C74.665 87.3152 74.3988 87.4255 74.2026 87.6218C74.0064 87.8181 73.8962 88.0843 73.8962 88.3619V88.5448C73.8962 88.608 73.8791 88.67 73.8466 88.7243C73.8142 88.7785 73.7676 88.8229 73.7118 88.8527C73.6561 88.8825 73.5933 88.8966 73.5302 88.8935C73.4671 88.8904 73.406 88.8702 73.3535 88.835L73.2014 88.7332C72.9705 88.5828 72.6896 88.5296 72.4198 88.5852C72.1499 88.6407 71.9128 88.8005 71.76 89.0298C71.6072 89.2591 71.5509 89.5395 71.6035 89.8101C71.656 90.0806 71.8131 90.3195 72.0407 90.4749L72.6099 90.8531C72.6575 90.8855 72.6965 90.9289 72.7235 90.9798C72.7505 91.0306 72.7646 91.0873 72.7647 91.1448C72.7644 91.2018 72.7502 91.2578 72.7232 91.3079C72.6962 91.3581 72.6572 91.4008 72.6099 91.4323L72.0407 91.8064C71.9215 91.8798 71.8183 91.9763 71.7372 92.0903C71.656 92.2043 71.5985 92.3334 71.568 92.47C71.5376 92.6066 71.5349 92.7479 71.56 92.8856C71.5851 93.0232 71.6375 93.1545 71.7142 93.2715C71.7909 93.3886 71.8903 93.489 72.0065 93.567C72.1227 93.6449 72.2533 93.6988 72.3906 93.7254C72.528 93.7519 72.6693 93.7507 72.8061 93.7217C72.943 93.6927 73.0727 93.6365 73.1874 93.5565L73.3604 93.4435C73.4129 93.4086 73.4739 93.3888 73.5369 93.3861C73.5998 93.3834 73.6623 93.3979 73.7176 93.4281C73.7728 93.4582 73.8189 93.5025 73.851 93.5566C73.8832 93.6106 73.9002 93.6723 73.9003 93.7352V93.9445C73.9003 94.2221 74.0106 94.4884 74.2068 94.6847C74.403 94.881 74.6692 94.9912 74.9467 94.9912C75.2242 94.9912 75.4903 94.881 75.6865 94.6847C75.8828 94.4884 75.993 94.2221 75.993 93.9445V93.7617C75.9932 93.6986 76.0105 93.6367 76.0431 93.5827C76.0756 93.5286 76.1222 93.4844 76.1779 93.4548C76.2336 93.4251 76.2963 93.4111 76.3593 93.4143C76.4223 93.4175 76.4833 93.4377 76.5357 93.4728L76.6878 93.5733C76.9187 93.7236 77.1995 93.7768 77.4694 93.7213C77.7393 93.6657 77.9763 93.5059 78.1292 93.2766C78.282 93.0473 78.3382 92.7669 78.2857 92.4964C78.2331 92.2258 78.076 91.9869 77.8485 91.8315L77.2821 91.4533C77.2337 91.4217 77.194 91.3785 77.1665 91.3277C77.139 91.2769 77.1246 91.2201 77.1246 91.1623C77.1246 91.1045 77.139 91.0476 77.1665 90.9968C77.194 90.946 77.2337 90.9029 77.2821 90.8713L77.8527 90.4973C77.9674 90.4218 78.0662 90.3245 78.1433 90.2108C78.2204 90.0971 78.2744 89.9694 78.3021 89.8348C78.3298 89.7003 78.3308 89.5616 78.3049 89.4267C78.279 89.2918 78.2268 89.1633 78.1512 89.0486V89.0486Z" fill="white"/>
<path d="M91.7469 89.0486C91.5948 88.8166 91.3568 88.6545 91.0852 88.598C90.8137 88.5415 90.5308 88.5951 90.2988 88.7471L90.1244 88.8616C90.0718 88.896 90.0109 88.9156 89.9481 88.9183C89.8853 88.921 89.8229 88.9066 89.7676 88.8767C89.7122 88.8468 89.666 88.8025 89.6338 88.7485C89.6016 88.6945 89.5845 88.6328 89.5845 88.5699V88.3619C89.5845 88.0843 89.4743 87.8181 89.2781 87.6218C89.0818 87.4255 88.8157 87.3152 88.5382 87.3152C88.2607 87.3152 87.9945 87.4255 87.7983 87.6218C87.6021 87.8181 87.4919 88.0843 87.4919 88.3619V88.5448C87.4919 88.608 87.4748 88.67 87.4423 88.7243C87.4099 88.7785 87.3633 88.8229 87.3075 88.8527C87.2518 88.8825 87.189 88.8966 87.1259 88.8935C87.0628 88.8904 87.0017 88.8702 86.9492 88.835L86.7971 88.7332C86.5662 88.5828 86.2853 88.5296 86.0155 88.5852C85.7456 88.6407 85.5085 88.8005 85.3557 89.0298C85.2029 89.2591 85.1466 89.5395 85.1992 89.8101C85.2517 90.0806 85.4088 90.3195 85.6364 90.4749L86.2056 90.8531C86.2532 90.8855 86.2922 90.9289 86.3192 90.9798C86.3462 91.0306 86.3603 91.0873 86.3604 91.1448C86.3601 91.2018 86.3459 91.2578 86.3189 91.3079C86.2919 91.3581 86.253 91.4008 86.2056 91.4323L85.6364 91.8064C85.5172 91.8798 85.414 91.9763 85.3329 92.0903C85.2517 92.2043 85.1942 92.3334 85.1637 92.47C85.1333 92.6066 85.1306 92.7479 85.1557 92.8856C85.1808 93.0232 85.2332 93.1545 85.3099 93.2715C85.3866 93.3886 85.486 93.489 85.6022 93.567C85.7184 93.6449 85.849 93.6988 85.9863 93.7254C86.1237 93.7519 86.265 93.7507 86.4018 93.7217C86.5387 93.6927 86.6684 93.6365 86.7831 93.5565L86.9561 93.4435C87.0086 93.4086 87.0696 93.3888 87.1326 93.3861C87.1955 93.3834 87.258 93.3979 87.3133 93.4281C87.3685 93.4582 87.4146 93.5025 87.4467 93.5566C87.4789 93.6106 87.4959 93.6723 87.496 93.7352V93.9445C87.496 94.2221 87.6063 94.4884 87.8025 94.6847C87.9987 94.881 88.2649 94.9912 88.5424 94.9912C88.8199 94.9912 89.086 94.881 89.2822 94.6847C89.4785 94.4884 89.5887 94.2221 89.5887 93.9445V93.7617C89.5889 93.6986 89.6062 93.6367 89.6388 93.5827C89.6713 93.5286 89.7179 93.4844 89.7736 93.4548C89.8293 93.4251 89.892 93.4111 89.955 93.4143C90.018 93.4175 90.079 93.4377 90.1314 93.4728L90.2835 93.5733C90.5144 93.7236 90.7952 93.7768 91.0651 93.7213C91.335 93.6657 91.572 93.5059 91.7249 93.2766C91.8777 93.0473 91.9339 92.7669 91.8814 92.4964C91.8288 92.2258 91.6717 91.9869 91.4442 91.8315L90.8778 91.4533C90.8294 91.4217 90.7897 91.3785 90.7622 91.3277C90.7347 91.2769 90.7203 91.2201 90.7203 91.1623C90.7203 91.1045 90.7347 91.0476 90.7622 90.9968C90.7897 90.946 90.8294 90.9029 90.8778 90.8713L91.4484 90.4973C91.5631 90.4218 91.6619 90.3245 91.739 90.2108C91.8161 90.0971 91.8701 89.9694 91.8978 89.8348C91.9255 89.7003 91.9265 89.5616 91.9006 89.4267C91.8747 89.2918 91.8225 89.1633 91.7469 89.0486V89.0486Z" fill="white"/>
<path d="M105.341 89.0486C105.189 88.8166 104.951 88.6545 104.679 88.598C104.407 88.5415 104.125 88.5951 103.893 88.7471L103.718 88.8616C103.666 88.896 103.605 88.9156 103.542 88.9183C103.479 88.921 103.417 88.9066 103.361 88.8767C103.306 88.8468 103.26 88.8025 103.228 88.7485C103.195 88.6945 103.178 88.6328 103.178 88.5699V88.3619C103.178 88.0843 103.068 87.8181 102.872 87.6218C102.676 87.4255 102.409 87.3152 102.132 87.3152C101.854 87.3152 101.588 87.4255 101.392 87.6218C101.196 87.8181 101.086 88.0843 101.086 88.3619V88.5448C101.086 88.608 101.069 88.67 101.036 88.7243C101.004 88.7785 100.957 88.8229 100.901 88.8527C100.846 88.8825 100.783 88.8966 100.72 88.8935C100.657 88.8904 100.595 88.8702 100.543 88.835L100.391 88.7332C100.16 88.5828 99.8791 88.5296 99.6092 88.5852C99.3394 88.6407 99.1023 88.8005 98.9495 89.0298C98.7966 89.2591 98.7404 89.5395 98.7929 89.8101C98.8455 90.0806 99.0026 90.3195 99.2301 90.4749L99.7993 90.8531C99.8469 90.8855 99.8859 90.9289 99.9129 90.9798C99.9399 91.0306 99.9541 91.0873 99.9542 91.1448C99.9539 91.2018 99.9396 91.2578 99.9126 91.3079C99.8856 91.3581 99.8467 91.4008 99.7993 91.4323L99.2301 91.8064C99.111 91.8798 99.0078 91.9763 98.9266 92.0903C98.8454 92.2043 98.7879 92.3334 98.7575 92.47C98.727 92.6066 98.7243 92.7479 98.7494 92.8856C98.7745 93.0232 98.827 93.1545 98.9037 93.2715C98.9804 93.3886 99.0797 93.489 99.1959 93.567C99.3121 93.6449 99.4427 93.6988 99.5801 93.7254C99.7174 93.7519 99.8587 93.7507 99.9956 93.7217C100.132 93.6927 100.262 93.6365 100.377 93.5565L100.55 93.4435C100.602 93.4086 100.663 93.3888 100.726 93.3861C100.789 93.3834 100.852 93.3979 100.907 93.4281C100.962 93.4582 101.008 93.5025 101.04 93.5566C101.073 93.6106 101.09 93.6723 101.09 93.7352V93.9445C101.09 94.2221 101.2 94.4884 101.396 94.6847C101.592 94.881 101.859 94.9912 102.136 94.9912C102.414 94.9912 102.68 94.881 102.876 94.6847C103.072 94.4884 103.182 94.2221 103.182 93.9445V93.7617C103.183 93.6986 103.2 93.6367 103.233 93.5827C103.265 93.5286 103.312 93.4844 103.367 93.4548C103.423 93.4251 103.486 93.4111 103.549 93.4143C103.612 93.4175 103.673 93.4377 103.725 93.4728L103.877 93.5733C104.108 93.7236 104.389 93.7768 104.659 93.7213C104.929 93.6657 105.166 93.5059 105.319 93.2766C105.471 93.0473 105.528 92.7669 105.475 92.4964C105.423 92.2258 105.265 91.9869 105.038 91.8315L104.472 91.4533C104.423 91.4217 104.383 91.3785 104.356 91.3277C104.328 91.2769 104.314 91.2201 104.314 91.1623C104.314 91.1045 104.328 91.0476 104.356 90.9968C104.383 90.946 104.423 90.9029 104.472 90.8713L105.042 90.4973C105.157 90.4218 105.256 90.3245 105.333 90.2108C105.41 90.0971 105.464 89.9694 105.492 89.8348C105.519 89.7003 105.52 89.5616 105.494 89.4267C105.468 89.2918 105.416 89.1633 105.341 89.0486V89.0486Z" fill="white"/>
</g>
</svg>
