<svg width="180" height="188" viewBox="0 0 180 188" fill="none" xmlns="http://www.w3.org/2000/svg">
<circle cx="90" cy="97.7175" r="90" fill="#F8EDE3"/>
<path d="M103.396 55.6893L103.675 55.9241H104.04H119.045C123.735 55.9241 127.537 59.7262 127.537 64.4163V75.5375V76.003L127.893 76.3027L134.686 82.0186V147.81C134.686 150.971 132.124 153.533 128.963 153.533H37.7373C34.5762 153.533 32.0137 150.971 32.0137 147.81V82.0137L39.9324 75.3247L40.2871 75.0251V74.5607V64.4163C40.2871 59.7262 44.0892 55.9241 48.7793 55.9241H62.5336H62.8995L63.1789 55.688L79.3067 42.0647C81.5835 40.1414 84.9147 40.1383 87.1951 42.0572L103.396 55.6893Z" fill="#292C32" stroke="#292C32" stroke-width="2"/>
<path d="M96.1951 37.0572L143.503 76.8647L137.185 93.8743C136.755 95.0322 135.65 95.8004 134.415 95.8004H50.9247C49.7236 95.8004 48.6419 95.0734 48.1884 93.9611L41.2101 76.8479L88.3067 37.0648C90.5835 35.1415 93.9147 35.1384 96.1951 37.0572Z" fill="#FAAC04" stroke="#292C32" stroke-width="2"/>
<rect x="49.2871" y="50.9242" width="87.2499" height="74.0098" rx="8.49215" fill="white" stroke="#292C32" stroke-width="2"/>
<path d="M91.6525 118.404L92.3422 119.075L93.0392 118.412L135.979 77.5521H143.686V142.81C143.686 145.971 141.124 148.533 137.963 148.533H46.7373C43.5762 148.533 41.0137 145.971 41.0137 142.81V77.5687L49.8337 77.7134L91.6525 118.404Z" fill="#FAAC04" stroke="#292C32" stroke-width="2"/>
<path d="M95.3525 106.02L141.156 138.876C145.363 141.894 143.228 148.533 138.05 148.533H46.3578C41.2036 148.533 39.0528 141.944 43.2144 138.903L88.1758 106.051C90.3101 104.492 93.2046 104.479 95.3525 106.02Z" fill="#EFA044" stroke="#292C32" stroke-width="2"/>
<circle cx="92.9131" cy="78.595" r="19.6523" fill="#1E756B" stroke="#292C32" stroke-width="2"/>
<path d="M102.468 71.9792L89.2371 85.2107L83.3564 79.33" stroke="white" stroke-width="3" stroke-miterlimit="10" stroke-linecap="square"/>
<line x1="43.7006" y1="32.346" x2="55.5741" y2="37.946" stroke="#292C32" stroke-width="3" stroke-linecap="round"/>
<line x1="63.9093" y1="10.2246" x2="70.4396" y2="21.8188" stroke="#292C32" stroke-width="3" stroke-linecap="round"/>
<line x1="91.6572" y1="14.8068" x2="91.6572" y2="1.50002" stroke="#292C32" stroke-width="3" stroke-linecap="round"/>
<line x1="114.618" y1="21.3188" x2="121.271" y2="9.79478" stroke="#292C32" stroke-width="3" stroke-linecap="round"/>
<line x1="129.632" y1="37.9492" x2="141.692" y2="32.3256" stroke="#292C32" stroke-width="3" stroke-linecap="round"/>
</svg>
