<svg width="122" height="137" viewBox="0 0 122 137" fill="none" xmlns="http://www.w3.org/2000/svg">
<g clip-path="url(#clip0)">
<circle cx="60" cy="69" r="60" fill="#F8EDE3"/>
<rect x="17.9727" y="28.4746" width="70.7145" height="82.0305" rx="6" fill="#292C32"/>
<rect x="24.9727" y="24.4746" width="68.7145" height="80.0305" rx="5" fill="white" stroke="#292C32" stroke-width="2"/>
<rect x="33.6602" y="66.6709" width="6.66617" height="25.8428" rx="3.33308" fill="#FAAC04"/>
<rect x="44.8281" y="36.4653" width="6.66617" height="56.0486" rx="3.33308" fill="#FAAC04"/>
<rect x="55.9961" y="47.5649" width="6.66617" height="44.9495" rx="3.33308" fill="#FAAC04"/>
<rect x="67.1641" y="59.085" width="6.66617" height="33.4294" rx="3.33308" fill="#FAAC04"/>
<rect x="78.332" y="38.1519" width="6.66617" height="54.3627" rx="3.33308" fill="#FAAC04"/>
<circle cx="99.6177" cy="88.0386" r="11.7974" fill="white"/>
<path fill-rule="evenodd" clip-rule="evenodd" d="M85.9654 75.6771C83.967 76.4305 82.1255 77.5041 80.5035 78.8353L76.518 77.464C75.4184 77.0853 74.2071 77.5392 73.6245 78.5442L69.9614 84.8895C69.3813 85.8969 69.5949 87.1738 70.4712 87.936L73.6498 90.6993C73.4821 91.7262 73.3948 92.78 73.3948 93.8543C73.3948 94.9284 73.482 95.9822 73.6498 97.0089L70.4712 99.7722C69.5949 100.534 69.3813 101.811 69.9614 102.819L73.6245 109.164C74.2046 110.171 75.4184 110.623 76.518 110.247L80.5053 108.875C82.1269 110.205 83.9678 111.278 85.9655 112.031L86.7691 116.165C86.9924 117.306 87.9901 118.129 89.1529 118.129H96.4789C97.6417 118.129 98.6394 117.306 98.8627 116.165L99.6666 112.03C101.664 111.277 103.505 110.203 105.127 108.872L109.114 110.244C110.213 110.623 111.425 110.169 112.007 109.162L115.67 102.816C116.251 101.809 116.037 100.532 115.161 99.7698L111.98 97.0045C112.147 95.9792 112.234 94.9269 112.234 93.8543C112.234 92.7808 112.147 91.7277 111.979 90.7016L115.161 87.936C116.037 87.1738 116.251 85.8969 115.67 84.8895L112.007 78.5442C111.427 77.5368 110.213 77.0853 109.114 77.4615L105.124 78.8343C103.503 77.5043 101.663 76.4315 99.6666 75.6783L98.8627 71.5434C98.6394 70.4025 97.6417 69.5796 96.4789 69.5796H89.1529C87.9901 69.5796 86.9924 70.4025 86.7691 71.5434L85.9654 75.6771ZM83.1046 93.8543C83.1046 99.2165 87.4522 103.564 92.8144 103.564C98.1767 103.564 102.524 99.2165 102.524 93.8543C102.524 88.492 98.1767 84.1444 92.8144 84.1444C87.4522 84.1444 83.1046 88.492 83.1046 93.8543Z" fill="#292C32"/>
<path fill-rule="evenodd" clip-rule="evenodd" d="M73.6245 78.5442C74.2071 77.5392 75.4184 77.0853 76.5181 77.464L80.5035 78.8353C82.1256 77.5041 83.967 76.4305 85.9655 75.6771L86.7692 71.5434C86.9925 70.4025 87.9902 69.5796 89.1529 69.5796H96.479C97.6417 69.5796 98.6394 70.4025 98.8627 71.5434L99.6667 75.6783C101.663 76.4315 103.503 77.5043 105.124 78.8343L109.114 77.4615C110.214 77.0853 111.427 77.5368 112.007 78.5442L115.67 84.8895C116.251 85.8969 116.037 87.1738 115.161 87.936L111.979 90.7016C112.147 91.7277 112.234 92.7808 112.234 93.8543C112.234 94.9269 112.147 95.9792 111.98 97.0045L115.161 99.7698C116.037 100.532 116.251 101.809 115.67 102.816L112.007 109.162C111.425 110.169 110.214 110.623 109.114 110.244L105.127 108.872C103.505 110.203 101.664 111.277 99.6666 112.03L98.8627 116.165C98.6394 117.306 97.6417 118.129 96.479 118.129H89.1529C87.9902 118.129 86.9925 117.306 86.7692 116.165L85.9655 112.031C83.9678 111.278 82.127 110.205 80.5054 108.875L76.5181 110.247C75.4184 110.623 74.2047 110.171 73.6245 109.164L69.9615 102.819C69.3814 101.811 69.595 100.534 70.4713 99.7722L73.6499 97.0089C73.4821 95.9822 73.3949 94.9284 73.3949 93.8543C73.3949 92.78 73.4821 91.7262 73.6499 90.6993L70.4713 87.936C69.595 87.1738 69.3814 85.8969 69.9615 84.8895L73.6245 78.5442ZM71.5229 91.5004L69.1591 89.4453C67.5601 88.0545 67.1716 85.7263 68.2284 83.8914L71.8943 77.5411C72.9549 75.7114 75.1627 74.8822 77.1688 75.5728C77.1689 75.5728 77.1686 75.5727 77.1688 75.5728L80.1314 76.5921C81.3917 75.6647 82.7577 74.8717 84.2085 74.2344L84.8064 71.1592C85.2131 69.0815 87.0319 67.5796 89.1529 67.5796H96.479C98.6 67.5796 100.419 69.0815 100.825 71.1592L100.826 71.1617L101.424 74.2358C102.873 74.8726 104.237 75.6649 105.496 76.5912L108.466 75.5692C110.465 74.8853 112.68 75.7041 113.741 77.546L117.404 83.8914C118.46 85.7263 118.072 88.0542 116.473 89.445L114.106 91.5027C114.191 92.2755 114.234 93.0602 114.234 93.8543C114.234 94.6475 114.191 95.4313 114.107 96.2033L116.473 98.2604C118.072 99.6513 118.46 101.979 117.404 103.814L113.739 110.162L113.739 110.163C112.678 111.996 110.47 112.826 108.463 112.135L105.499 111.115C104.239 112.043 102.874 112.835 101.424 113.473L100.825 116.549C100.419 118.627 98.6 120.129 96.479 120.129H89.1529C87.0319 120.129 85.2131 118.627 84.8064 116.549L84.2086 113.474C82.7585 112.837 81.3931 112.045 80.1334 111.118L77.1655 112.139C75.1669 112.823 72.9529 112.004 71.8919 110.163C71.8917 110.163 71.8916 110.162 71.8914 110.162L68.2284 103.817C67.1716 101.982 67.5597 99.654 69.1587 98.2632L71.5229 96.2079C71.4383 95.4344 71.3949 94.649 71.3949 93.8543C71.3949 93.0594 71.4383 92.274 71.5229 91.5004ZM85.1047 93.8543C85.1047 98.1119 88.5568 101.564 92.8145 101.564C97.0722 101.564 100.524 98.1119 100.524 93.8543C100.524 89.5966 97.0722 86.1444 92.8145 86.1444C88.5568 86.1444 85.1047 89.5966 85.1047 93.8543ZM92.8145 103.564C87.4523 103.564 83.1047 99.2165 83.1047 93.8543C83.1047 88.492 87.4523 84.1444 92.8145 84.1444C98.1767 84.1444 102.524 88.492 102.524 93.8543C102.524 99.2165 98.1767 103.564 92.8145 103.564Z" fill="#292C32"/>
<path fill-rule="evenodd" clip-rule="evenodd" d="M89.9654 71.6766C87.967 72.43 86.1255 73.5036 84.5035 74.8348L80.518 73.4635C79.4184 73.0848 78.2071 73.5387 77.6245 74.5437L73.9614 80.889C73.3813 81.8964 73.5949 83.1733 74.4712 83.9355L77.6498 86.6989C77.4821 87.7257 77.3948 88.7795 77.3948 89.8538C77.3948 90.9279 77.482 91.9817 77.6498 93.0084L74.4712 95.7717C73.5949 96.534 73.3813 97.8108 73.9614 98.8182L77.6245 105.164C78.2046 106.171 79.4184 106.622 80.518 106.246L84.5053 104.874C86.1269 106.205 87.9678 107.278 89.9655 108.031L90.7691 112.164C90.9924 113.305 91.9901 114.128 93.1529 114.128H100.479C101.642 114.128 102.639 113.305 102.863 112.164L103.667 108.03C105.664 107.276 107.505 106.203 109.127 104.872L113.114 106.244C114.213 106.622 115.425 106.169 116.007 105.161L119.67 98.8158C120.251 97.8084 120.037 96.5315 119.161 95.7693L115.98 93.004C116.147 91.9787 116.234 90.9264 116.234 89.8538C116.234 88.7803 116.147 87.7272 115.979 86.7011L119.161 83.9355C120.037 83.1733 120.251 81.8964 119.67 80.889L116.007 74.5437C115.427 73.5363 114.213 73.0848 113.114 73.461L109.124 74.8338C107.503 73.5038 105.663 72.431 103.667 71.6778L102.863 67.5429C102.639 66.402 101.642 65.5791 100.479 65.5791H93.1529C91.9901 65.5791 90.9924 66.402 90.7691 67.5429L89.9654 71.6766ZM87.1046 89.8538C87.1046 95.216 91.4522 99.5636 96.8144 99.5636C102.177 99.5636 106.524 95.216 106.524 89.8538C106.524 84.4915 102.177 80.144 96.8144 80.144C91.4522 80.144 87.1046 84.4915 87.1046 89.8538Z" fill="#1E756B"/>
<path fill-rule="evenodd" clip-rule="evenodd" d="M77.6245 74.5437C78.2071 73.5387 79.4184 73.0848 80.5181 73.4635L84.5035 74.8348C86.1256 73.5036 87.967 72.43 89.9655 71.6766L90.7692 67.5429C90.9925 66.402 91.9902 65.5791 93.1529 65.5791H100.479C101.642 65.5791 102.639 66.402 102.863 67.5429L103.667 71.6778C105.663 72.431 107.503 73.5038 109.124 74.8338L113.114 73.461C114.214 73.0848 115.427 73.5363 116.007 74.5437L119.67 80.889C120.251 81.8964 120.037 83.1733 119.161 83.9355L115.979 86.7011C116.147 87.7272 116.234 88.7803 116.234 89.8538C116.234 90.9264 116.147 91.9787 115.98 93.004L119.161 95.7693C120.037 96.5315 120.251 97.8084 119.67 98.8158L116.007 105.161C115.425 106.169 114.214 106.622 113.114 106.244L109.127 104.872C107.505 106.203 105.664 107.276 103.667 108.03L102.863 112.164C102.639 113.305 101.642 114.128 100.479 114.128H93.1529C91.9902 114.128 90.9925 113.305 90.7692 112.164L89.9655 108.031C87.9678 107.278 86.127 106.205 84.5054 104.874L80.5181 106.246C79.4184 106.622 78.2047 106.171 77.6245 105.164L73.9615 98.8182C73.3814 97.8108 73.595 96.534 74.4713 95.7717L77.6499 93.0084C77.4821 91.9817 77.3949 90.9279 77.3949 89.8538C77.3949 88.7795 77.4821 87.7257 77.6499 86.6989L74.4713 83.9355C73.595 83.1733 73.3814 81.8964 73.9615 80.889L77.6245 74.5437ZM75.5229 87.4999L73.1591 85.4449C71.5601 84.054 71.1716 81.7258 72.2284 79.8909L75.8943 73.5406C76.9549 71.7109 79.1627 70.8817 81.1688 71.5723C81.1689 71.5723 81.1686 71.5722 81.1688 71.5723L84.1314 72.5917C85.3917 71.6643 86.7577 70.8712 88.2085 70.2339L88.8064 67.1587C89.2131 65.081 91.0319 63.5791 93.1529 63.5791H100.479C102.6 63.5791 104.419 65.081 104.825 67.1587L104.826 67.1612L105.424 70.2354C106.873 70.8721 108.237 71.6644 109.496 72.5907L112.466 71.5687C114.465 70.8848 116.68 71.7036 117.741 73.5456L121.404 79.8909C122.46 81.7258 122.072 84.0537 120.473 85.4445L118.106 87.5022C118.191 88.275 118.234 89.0597 118.234 89.8538C118.234 90.647 118.191 91.4308 118.107 92.2028L120.473 94.2599C122.072 95.6508 122.46 97.979 121.404 99.8139L117.739 106.161L117.739 106.162C116.678 107.996 114.47 108.826 112.463 108.135L109.499 107.115C108.239 108.042 106.874 108.835 105.424 109.472L104.825 112.549C104.419 114.626 102.6 116.128 100.479 116.128H93.1529C91.0319 116.128 89.2131 114.626 88.8064 112.549L88.2086 109.474C86.7585 108.837 85.3931 108.044 84.1334 107.117L81.1655 108.138C79.1669 108.822 76.9529 108.004 75.8919 106.163C75.8917 106.162 75.8916 106.162 75.8914 106.162L72.2284 99.8163C71.1716 97.9814 71.5597 95.6535 73.1587 94.2627L75.5229 92.2074C75.4383 91.4339 75.3949 90.6486 75.3949 89.8538C75.3949 89.0589 75.4383 88.2735 75.5229 87.4999ZM89.1047 89.8538C89.1047 94.1114 92.5568 97.5636 96.8145 97.5636C101.072 97.5636 104.524 94.1114 104.524 89.8538C104.524 85.5961 101.072 82.144 96.8145 82.144C92.5568 82.144 89.1047 85.5961 89.1047 89.8538ZM96.8145 99.5636C91.4523 99.5636 87.1047 95.216 87.1047 89.8538C87.1047 84.4915 91.4523 80.144 96.8145 80.144C102.177 80.144 106.524 84.4915 106.524 89.8538C106.524 95.216 102.177 99.5636 96.8145 99.5636Z" fill="#292C32"/>
<g clip-path="url(#clip1)">
<path fill-rule="evenodd" clip-rule="evenodd" d="M118.46 92.63C118.55 91.86 118.59 91.07 118.59 90.28C118.59 89.48 118.55 88.7 118.46 87.93L120.83 85.87C122.43 84.48 122.82 82.15 121.76 80.32L118.1 73.97C117.04 72.13 114.82 71.31 112.82 71.99L109.85 73.02C108.59 72.09 107.23 71.3 105.78 70.66L105.18 67.59V67.58C104.78 65.51 102.96 64 100.84 64H93.5096C91.3896 64 89.5696 65.51 89.1596 67.58L89.0696 68.03C87.1396 68.22 85.5396 69.66 85.1596 71.58L84.9396 72.71C84.7896 72.8 84.6396 72.91 84.4896 73.02L81.5296 72C79.5196 71.31 77.3096 72.14 76.2496 73.97L75.1596 75.87C73.9696 76.11 72.8996 76.85 72.2496 77.97L68.5896 84.32C67.5296 86.15 67.9196 88.48 69.5196 89.87L71.8796 91.92C71.7996 92.7 71.7496 93.48 71.7496 94.28C71.7496 95.07 71.7996 95.86 71.8796 96.63L69.5196 98.69C67.9196 100.08 67.5296 102.41 68.5896 104.24L72.2496 110.59C73.3096 112.43 75.5196 113.25 77.5196 112.56L80.4896 111.54C81.7496 112.47 83.1196 113.26 84.5696 113.9L85.1596 116.97C85.5696 119.05 87.3896 120.55 89.5096 120.55H96.8396C98.9596 120.55 100.78 119.05 101.18 116.97L101.27 116.53C103.2 116.34 104.81 114.91 105.18 112.97L105.4 111.86C105.55 111.76 105.71 111.65 105.86 111.54L108.82 112.56C109.3 112.72 109.78 112.8 110.26 112.8C111.81 112.8 113.29 111.99 114.1 110.59L115.19 108.69C116.38 108.45 117.45 107.71 118.1 106.59L121.76 100.24C122.82 98.4 122.43 96.08 120.83 94.68L118.46 92.63ZM120.03 99.24L118.34 102.16L116.36 105.59C115.87 106.44 114.92 106.9 113.98 106.78C113.81 106.76 113.64 106.73 113.47 106.67L109.48 105.3C107.86 106.63 106.02 107.7 104.02 108.45L103.59 110.67L103.22 112.59C103.17 112.86 103.07 113.11 102.94 113.34C102.66 113.83 102.21 114.2 101.68 114.39C101.42 114.5 101.13 114.55 100.84 114.55H93.5096C92.3496 114.55 91.3496 113.73 91.1296 112.59L90.3196 108.46C88.3296 107.7 86.4796 106.63 84.8596 105.3L80.8796 106.67C79.7796 107.05 78.5596 106.6 77.9796 105.59L74.3196 99.24C73.7396 98.24 73.9496 96.96 74.8296 96.2L78.0096 93.43C77.8396 92.41 77.7496 91.35 77.7496 90.28C77.7496 89.2 77.8396 88.15 78.0096 87.12L74.8296 84.36C73.9496 83.6 73.7396 82.32 74.3196 81.31L76.3596 77.78L77.4096 75.96L77.9796 74.97C78.5596 73.96 79.7796 73.51 80.8796 73.89L83.9596 74.95L84.8596 75.26C85.4596 74.76 86.0996 74.3 86.7596 73.88C87.8796 73.17 89.0696 72.57 90.3196 72.1L90.7296 70L91.1196 68L91.1296 67.97C91.3496 66.83 92.3496 66 93.5096 66H100.84C102 66 103 66.83 103.22 67.97L104.02 72.1C106.02 72.86 107.86 73.93 109.48 75.26L113.47 73.89C114.57 73.51 115.78 73.96 116.36 74.97L120.03 81.31C120.61 82.32 120.39 83.6 119.52 84.36L118.23 85.49L116.34 87.13C116.49 88.09 116.58 89.07 116.59 90.08V90.28C116.59 91.35 116.5 92.4 116.34 93.43L119.52 96.19C120.39 96.96 120.61 98.23 120.03 99.24Z" fill="#292C32"/>
<path fill-rule="evenodd" clip-rule="evenodd" d="M116.338 93.43C116.498 92.4 116.588 91.35 116.588 90.28V90.08C116.578 89.07 116.488 88.09 116.338 87.13L118.228 85.49L119.518 84.36C120.388 83.6 120.608 82.32 120.028 81.31L116.358 74.97C115.778 73.96 114.568 73.51 113.468 73.89L109.478 75.26C107.858 73.93 106.018 72.86 104.018 72.1L103.218 67.97C102.998 66.83 101.998 66 100.838 66H93.5078C92.3478 66 91.3478 66.83 91.1278 67.97L91.1178 68L90.7278 70L90.3178 72.1C89.0678 72.57 87.8778 73.17 86.7578 73.88C86.0978 74.3 85.4578 74.76 84.8578 75.26L83.9578 74.95L80.8778 73.89C79.7778 73.51 78.5578 73.96 77.9778 74.97L77.4078 75.96L76.3578 77.78L74.3178 81.31C73.7378 82.32 73.9478 83.6 74.8278 84.36L78.0078 87.12C77.8378 88.15 77.7478 89.2 77.7478 90.28C77.7478 91.35 77.8378 92.41 78.0078 93.43L74.8278 96.2C73.9478 96.96 73.7378 98.24 74.3178 99.24L77.9778 105.59C78.5578 106.6 79.7778 107.05 80.8778 106.67L84.8578 105.3C86.4778 106.63 88.3278 107.7 90.3178 108.46L91.1278 112.59C91.3478 113.73 92.3478 114.55 93.5078 114.55H100.838C101.128 114.55 101.418 114.5 101.678 114.39C102.208 114.2 102.658 113.83 102.938 113.34C103.068 113.11 103.168 112.86 103.218 112.59L103.588 110.67L104.018 108.45C106.018 107.7 107.858 106.63 109.478 105.3L113.468 106.67C113.638 106.73 113.808 106.76 113.978 106.78C114.918 106.9 115.868 106.44 116.358 105.59L118.338 102.16L120.028 99.24C120.608 98.23 120.388 96.96 119.518 96.19L116.338 93.43ZM101.738 98.85C100.728 99.39 99.6178 99.75 98.4378 99.91C98.0178 99.96 97.5978 99.99 97.1678 99.99C91.8078 99.99 87.4578 95.64 87.4578 90.28C87.4578 89.85 87.4878 89.43 87.5378 89.01C87.6978 87.83 88.0578 86.72 88.5978 85.71C90.2378 82.65 93.4578 80.57 97.1678 80.57C102.528 80.57 106.878 84.92 106.878 90.28C106.878 93.99 104.798 97.21 101.738 98.85Z" fill="#1E756B"/>
<path fill-rule="evenodd" clip-rule="evenodd" d="M97.1709 80.5698C93.4609 80.5698 90.2409 82.6498 88.6009 85.7098C88.0609 86.7198 87.7009 87.8298 87.5409 89.0098C87.4909 89.4298 87.4609 89.8498 87.4609 90.2798C87.4609 95.6398 91.8109 99.9898 97.1709 99.9898C97.6009 99.9898 98.0209 99.9598 98.4409 99.9098C99.6209 99.7498 100.731 99.3898 101.741 98.8498C104.801 97.2098 106.881 93.9898 106.881 90.2798C106.881 84.9198 102.531 80.5698 97.1709 80.5698ZM100.231 97.3598C99.2909 97.7698 98.2609 97.9898 97.1709 97.9898C92.9109 97.9898 89.4609 94.5398 89.4609 90.2798C89.4609 89.1798 89.6909 88.1398 90.1109 87.1998C91.0509 86.7898 92.0809 86.5698 93.1709 86.5698C97.4309 86.5698 100.881 90.0198 100.881 94.2798C100.881 95.3798 100.651 96.4198 100.231 97.3598Z" fill="#292C32"/>
</g>
</g>
<defs>
<clipPath id="clip0">
<rect width="122" height="137" fill="white"/>
</clipPath>
<clipPath id="clip1">
<rect width="54.36" height="56.55" fill="white" transform="translate(68 64)"/>
</clipPath>
</defs>
</svg>
