<svg width="17" height="15" viewBox="0 0 17 15" fill="none" xmlns="http://www.w3.org/2000/svg">
<path d="M2.58667 13.9458H2.58697H14.648C15.6608 13.9458 16.4849 13.1216 16.4849 12.1088V4.49134C16.4849 3.47783 15.6607 2.65437 14.648 2.65437H11.4066V2.26958C11.4066 1.43133 10.7253 0.75 9.88705 0.75H7.34789C6.50965 0.75 5.82831 1.43133 5.82831 2.26958V2.65437H2.58697C1.57353 2.65437 0.75 3.47789 0.75 4.49134L0.75 12.1088L0.75 12.1091C0.750583 12.596 0.944277 13.0629 1.28859 13.4072C1.63291 13.7515 2.09974 13.9452 2.58667 13.9458ZM1.88479 4.49134C1.88479 4.10444 2.20007 3.78916 2.58697 3.78916H14.648C15.0349 3.78916 15.3501 4.10444 15.3501 4.49134V12.1088C15.3501 12.4957 15.0349 12.811 14.648 12.811H2.58697C2.20007 12.811 1.88479 12.4957 1.88479 12.1088V4.49134ZM10.2718 2.26958V2.65437H6.9631V2.26958C6.9631 2.05788 7.13619 1.88479 7.34789 1.88479H9.88705C10.0992 1.88479 10.2718 2.05772 10.2718 2.26958Z" fill="#494A4D" stroke="#494A4D" stroke-width="0.5"/>
</svg>
