<svg width="25" height="26" viewBox="0 0 25 26" fill="none" xmlns="http://www.w3.org/2000/svg">
<g clip-path="url(#clip0)">
<path d="M10.6553 15.4815C13.3213 15.4815 15.4825 13.3203 15.4825 10.6543C15.4825 7.98834 13.3213 5.82715 10.6553 5.82715C7.98932 5.82715 5.82812 7.98834 5.82812 10.6543C5.82812 13.3203 7.98932 15.4815 10.6553 15.4815Z" stroke="#055F5B" stroke-width="2" stroke-linecap="round" stroke-linejoin="round"/>
<path d="M20.3087 10.6543C20.3087 19.1287 12.8727 23.8818 11.0523 24.9213C10.9309 24.9906 10.7936 25.0271 10.6538 25.0271C10.514 25.0271 10.3767 24.9906 10.2553 24.9213C8.4349 23.8808 1 19.1265 1 10.6543C1 8.09384 2.01715 5.63822 3.82769 3.82769C5.63822 2.01715 8.09384 1 10.6543 1C13.2148 1 15.6704 2.01715 17.481 3.82769C19.2915 5.63822 20.3087 8.09384 20.3087 10.6543Z" stroke="#055F5B" stroke-width="2" stroke-linecap="round" stroke-linejoin="round"/>
</g>
<defs>
<clipPath id="clip0">
<rect width="25" height="26" fill="white"/>
</clipPath>
</defs>
</svg>
