<svg width="22" height="29" viewBox="0 0 22 29" fill="none" xmlns="http://www.w3.org/2000/svg">
<path d="M18.6259 11.5755H2.76259C1.78914 11.5755 1 12.3646 1 13.3381V25.6762C1 26.6497 1.78914 27.4388 2.76259 27.4388H18.6259C19.5994 27.4388 20.3885 26.6497 20.3885 25.6762V13.3381C20.3885 12.3646 19.5994 11.5755 18.6259 11.5755Z" stroke="#A0A2A7" stroke-width="1.5" stroke-linecap="round" stroke-linejoin="round"/>
<path d="M4.52344 11.5755V7.16907C4.52344 5.53293 5.17339 3.9638 6.33032 2.80688C7.48724 1.64995 9.05637 1 10.6925 1C12.3286 1 13.8978 1.64995 15.0547 2.80688C16.2116 3.9638 16.8616 5.53293 16.8616 7.16907V11.5755" stroke="#A0A2A7" stroke-width="1.5" stroke-linecap="round" stroke-linejoin="round"/>
</svg>
