<svg width="122" height="137" viewBox="0 0 122 137" fill="none" xmlns="http://www.w3.org/2000/svg">
<circle cx="60" cy="69" r="60" fill="#F8EDE3"/>
<rect x="1.67188" y="25.8862" width="113.034" height="91.1971" rx="5" fill="#292C32" stroke="#292C32" stroke-width="2"/>
<rect x="7.67188" y="20.8862" width="113.034" height="91.1971" rx="5" fill="white" stroke="#292C32" stroke-width="2"/>
<rect x="23.2031" y="87.0049" width="15.2833" height="14.0497" rx="1" fill="#FAAC04"/>
<rect x="45.4336" y="78.251" width="15.2833" height="22.8038" rx="1" fill="#FAAC04"/>
<rect x="67.6641" y="63.2485" width="15.2833" height="37.8071" rx="1" fill="#FAAC04"/>
<rect x="89.8984" y="49.874" width="15.2833" height="51.1808" rx="1" fill="#FAAC04"/>
<path d="M30.1953 77.0434C30.1953 77.0434 52.1385 73.9377 69.224 56.6219C86.3096 39.3062 98.9341 36.0938 98.9341 36.0938" stroke="#292C32" stroke-width="2"/>
<circle cx="97.5386" cy="36.5459" r="4.63232" fill="#1E756B"/>
<circle cx="75.0347" cy="51.7563" r="4.63232" fill="#1E756B"/>
<circle cx="53.0776" cy="67.8804" r="4.63232" fill="#1E756B"/>
<circle cx="30.8433" cy="77.0425" r="4.63232" fill="#1E756B"/>
</svg>
