<svg width="248" height="269" viewBox="0 0 248 269" fill="none" xmlns="http://www.w3.org/2000/svg">
<circle cx="124" cy="145" r="124" fill="#F8EDE3"/>
<path d="M160.321 42.0262L193.829 61.4071L198.66 68.4118L160.321 42.0262Z" fill="#AA870B" stroke="#292C32" stroke-width="2"/>
<path d="M134.518 19.4353L134.518 19.4353L209.364 34.7514C211.164 35.1198 211.948 37.2536 210.813 38.6988L176.618 82.2625C175.576 83.5894 173.541 83.506 172.611 82.0982L132.859 21.89L132.859 21.89C132.071 20.6977 133.119 19.1489 134.518 19.4353Z" fill="#FAAC04" stroke="#292C32" stroke-width="2"/>
<path d="M195.347 60.0871L195.239 59.9303L195.081 59.8242L146.875 27.521L201.316 51.8011L201.527 69.0462L195.347 60.0871Z" fill="#DDB464" stroke="#292C32" stroke-width="2"/>
<path d="M141.86 107.809L142.03 107.953L142.245 108.01L163.828 113.793C169.185 115.229 172.363 120.735 170.928 126.091L169.742 130.518L169.577 131.132L170.064 131.542L173.926 134.791V211.395C173.926 215.162 170.872 218.216 167.105 218.216H60.9927C57.2257 218.216 54.1719 215.162 54.1719 211.395V134.787L65.5915 125.141L65.8309 124.938L65.9121 124.635L72.5829 99.7397C74.0182 94.3831 79.5241 91.2042 84.8807 92.6395L98.942 96.4072L99.4468 96.5425L99.8461 96.2052L109.241 88.2691C111.95 85.9807 115.914 85.977 118.627 88.2602L141.86 107.809Z" fill="#292C32" stroke="#292C32" stroke-width="2"/>
<path d="M128.625 82.2601L183.741 128.638L176.352 148.531C175.828 149.942 174.482 150.878 172.977 150.878H75.8621C74.3986 150.878 73.0808 149.992 72.5282 148.637L64.3663 128.621L119.239 82.2691C121.948 79.9807 125.912 79.9769 128.625 82.2601Z" fill="#669F99" stroke="#292C32" stroke-width="2"/>
<rect x="85.1798" y="84.0407" width="101.814" height="86.4138" rx="10.0412" transform="rotate(15 85.1798 84.0407)" fill="white" stroke="#292C32" stroke-width="2"/>
<path d="M123.351 176.89L124.041 177.561L124.738 176.897L174.732 129.325H183.926V205.395C183.926 209.162 180.872 212.216 177.105 212.216H70.9927C67.2257 212.216 64.1719 209.162 64.1719 205.395V129.341L74.6618 129.514L123.351 176.89Z" fill="#669F99" stroke="#292C32" stroke-width="2"/>
<path d="M127.636 162.469L180.914 200.686C185.937 204.289 183.388 212.216 177.207 212.216H70.5508C64.3977 212.216 61.83 204.349 66.7982 200.719L119.097 162.506C121.636 160.651 125.08 160.636 127.636 162.469Z" fill="#055F5B" stroke="#292C32" stroke-width="2"/>
<circle cx="125.667" cy="129.071" r="20.519" transform="rotate(15 125.667 129.071)" fill="#FAAC04" stroke="#292C32" stroke-width="2"/>
<path d="M129.831 114.923C128.834 114.657 127.809 115.25 127.543 116.248L127.32 117.085C123.992 117.06 120.936 119.263 120.038 122.632L118.114 129.857L115.894 130.757L115.889 130.756C115.487 130.886 115.174 131.21 115.063 131.624C114.887 132.287 115.284 132.972 115.947 133.149L132.806 137.641C133.469 137.817 134.155 137.421 134.332 136.757C134.442 136.344 134.332 135.906 134.042 135.592L132.564 133.707L134.489 126.482C135.387 123.114 133.833 119.682 130.933 118.047L131.156 117.21C131.422 116.213 130.828 115.188 129.831 114.923ZM121.647 135.958C121.294 137.284 122.088 138.654 123.414 139.007C124.741 139.361 126.111 138.568 126.464 137.241L121.647 135.958Z" fill="white"/>
<path d="M209.549 76.3577C242.047 110.003 209.596 149.286 199.455 131.168C193.031 119.693 213.65 114.671 220.539 122.659C236.105 140.708 209.931 167.508 192.049 170.906" stroke="#292C32" stroke-width="3" stroke-linecap="round" stroke-linejoin="round" stroke-dasharray="6.24 6.24"/>
</svg>
