<svg width="25" height="29" viewBox="0 0 25 29" fill="none" xmlns="http://www.w3.org/2000/svg">
<path d="M12.8154 12.4037C15.944 12.4037 18.4803 9.86738 18.4803 6.7387C18.4803 3.61002 15.944 1.07373 12.8154 1.07373C9.68668 1.07373 7.15039 3.61002 7.15039 6.7387C7.15039 9.86738 9.68668 12.4037 12.8154 12.4037Z" stroke="#055F5B" stroke-width="1.5" stroke-linecap="round" stroke-linejoin="round"/>
<path d="M3.83645 27.5102C2.53852 27.5102 1.46184 26.4469 1.72917 25.1768C2.17848 23.0421 3.23874 21.0648 4.80479 19.4987C6.92957 17.374 9.81138 16.1803 12.8163 16.1803C15.8212 16.1803 18.703 17.374 20.8277 19.4987C22.3938 21.0648 23.454 23.0421 23.9034 25.1768C24.1707 26.4469 23.094 27.5102 21.7961 27.5102H3.83645Z" stroke="#055F5B" stroke-width="1.5" stroke-linecap="round" stroke-linejoin="round"/>
</svg>
