<svg width="18" height="18" viewBox="0 0 18 18" fill="none" xmlns="http://www.w3.org/2000/svg">
<path d="M8.76439 14.6083C8.5061 14.6083 8.25839 14.5057 8.07575 14.3231C7.89311 14.1404 7.7905 13.8927 7.7905 13.6344H6.81662C6.55833 13.6344 6.31062 13.5318 6.12798 13.3492C5.94534 13.1665 5.84273 12.9188 5.84273 12.6605C5.84273 12.4023 5.94534 12.1545 6.12798 11.9719C6.31062 11.7893 6.55833 11.6867 6.81662 11.6867H9.4513C9.6297 11.6865 9.8025 11.6243 9.94007 11.5107C10.0776 11.3971 10.1714 11.2393 10.2053 11.0641C10.2393 10.889 10.2112 10.7075 10.126 10.5507C10.0408 10.394 9.90372 10.2718 9.73828 10.205L7.05944 9.13377C6.55562 8.93296 6.12373 8.58545 5.81974 8.13629C5.51575 7.68713 5.35366 7.15702 5.35449 6.61465C5.35465 5.94286 5.60351 5.2949 6.05308 4.7957C6.50264 4.2965 7.12109 3.9814 7.78921 3.91114V3.89556C7.78921 3.6371 7.89188 3.38922 8.07464 3.20646C8.2574 3.0237 8.50528 2.92103 8.76374 2.92103C9.02221 2.92103 9.27008 3.0237 9.45284 3.20646C9.6356 3.38922 9.73828 3.6371 9.73828 3.89556H10.7122C10.9705 3.89556 11.2182 3.99817 11.4008 4.18081C11.5834 4.36345 11.6861 4.61116 11.6861 4.86945C11.6861 5.12774 11.5834 5.37545 11.4008 5.55809C11.2182 5.74073 10.9705 5.84333 10.7122 5.84333H8.07098C7.96984 5.84281 7.8696 5.8624 7.77609 5.90094C7.68257 5.93949 7.59765 5.99623 7.52625 6.06787C7.45485 6.13951 7.3984 6.22462 7.36017 6.31827C7.32194 6.41191 7.3027 6.51221 7.30356 6.61336C7.30326 6.76675 7.34902 6.91671 7.43491 7.04381C7.5208 7.17091 7.64287 7.2693 7.78531 7.32624L10.4628 8.39751C11.1311 8.66578 11.6658 9.18809 11.9496 9.84992C12.2334 10.5118 12.2432 11.2591 11.9769 11.9282C11.7949 12.3883 11.4899 12.7895 11.0954 13.0881C10.7008 13.3867 10.2318 13.5712 9.73958 13.6214V13.6344C9.73889 13.8927 9.63588 14.1402 9.45311 14.3228C9.27034 14.5053 9.0227 14.608 8.76439 14.6083Z" fill="#494A4D"/>
<path d="M8.76498 17.53C3.93191 17.53 0 13.5981 0 8.76498C0 3.93191 3.93191 0 8.76498 0C13.5981 0 17.53 3.93191 17.53 8.76498C17.53 13.5981 13.5981 17.53 8.76498 17.53ZM8.76498 1.94777C5.00578 1.94777 1.94777 5.00578 1.94777 8.76498C1.94777 12.5242 5.00578 15.5822 8.76498 15.5822C12.5242 15.5822 15.5822 12.5242 15.5822 8.76498C15.5822 5.00578 12.5242 1.94777 8.76498 1.94777Z" fill="#494A4D"/>
</svg>
