<svg width="23" height="25" viewBox="0 0 23 25" fill="none" xmlns="http://www.w3.org/2000/svg">
<path d="M2.13008 24.2577C1.33091 24.2577 0.679688 23.6079 0.679688 22.8073V9.75381C0.679688 8.9532 1.33091 8.30343 2.13008 8.30343H10.8324V3.53165C10.8326 3.29919 10.8886 3.07019 10.9958 2.86389C11.1029 2.65759 11.258 2.48003 11.448 2.34615C11.6381 2.21226 11.8575 2.12596 12.0878 2.09451C12.3181 2.06305 12.5526 2.08736 12.7716 2.16539L19.5347 4.58028V1.05149C19.5347 0.859154 19.6111 0.674699 19.7471 0.538698C19.8831 0.402698 20.0676 0.326294 20.2599 0.326294C20.4523 0.326294 20.6367 0.402698 20.7727 0.538698C20.9087 0.674699 20.9851 0.859154 20.9851 1.05149V5.09807L21.4724 5.27212C22.0482 5.47807 22.4355 6.02632 22.4355 6.63838V22.8073C22.4355 23.192 22.2827 23.5609 22.0107 23.8329C21.7387 24.1049 21.3698 24.2577 20.9851 24.2577H2.13008V24.2577ZM20.9851 22.8073V6.63838L12.2828 3.53165V8.30343H15.9088C16.1011 8.30343 16.2855 8.37983 16.4215 8.51583C16.5575 8.65183 16.634 8.83629 16.634 9.02862C16.634 9.22095 16.5575 9.40541 16.4215 9.54141C16.2855 9.67741 16.1011 9.75381 15.9088 9.75381H12.2828V12.6546H18.0843C18.2767 12.6546 18.4611 12.731 18.5971 12.867C18.7331 13.003 18.8095 13.1875 18.8095 13.3798C18.8095 13.5721 18.7331 13.7566 18.5971 13.8926C18.4611 14.0286 18.2767 14.105 18.0843 14.105H12.2828V22.8073H13.7332V18.4561C13.7332 18.0715 13.886 17.7026 14.158 17.4306C14.43 17.1586 14.7989 17.0058 15.1836 17.0058H18.0843C18.469 17.0058 18.8379 17.1586 19.1099 17.4306C19.3819 17.7026 19.5347 18.0715 19.5347 18.4561V22.8073H20.9851ZM18.0843 22.8073V18.4561H15.1836V22.8073H18.0843ZM2.13008 22.8073H10.8324V9.75381H2.13008V12.6546H5.75604C5.94838 12.6546 6.13283 12.731 6.26883 12.867C6.40483 13.003 6.48124 13.1875 6.48124 13.3798C6.48124 13.5721 6.40483 13.7566 6.26883 13.8926C6.13283 14.0286 5.94838 14.105 5.75604 14.105H2.13008V17.0058H5.75604C5.94838 17.0058 6.13283 17.0822 6.26883 17.2182C6.40483 17.3542 6.48124 17.5386 6.48124 17.7309C6.48124 17.9233 6.40483 18.1077 6.26883 18.2437C6.13283 18.3797 5.94838 18.4561 5.75604 18.4561H2.13008V22.8073Z" fill="#A0A2A7"/>
</svg>
