<svg width="29" height="29" viewBox="0 0 29 29" fill="none" xmlns="http://www.w3.org/2000/svg">
<path d="M20.385 14.2177C20.385 15.4378 20.0232 16.6306 19.3453 17.6451C18.6675 18.6596 17.704 19.4503 16.5767 19.9172C15.4495 20.3841 14.2091 20.5063 13.0124 20.2682C11.8157 20.0302 10.7165 19.4427 9.85376 18.5799C8.991 17.7171 8.40345 16.6179 8.16541 15.4212C7.92738 14.2246 8.04955 12.9842 8.51647 11.8569C8.98339 10.7297 9.7741 9.76619 10.7886 9.08832C11.8031 8.41045 12.9958 8.04865 14.2159 8.04865C15.8521 8.04865 17.4212 8.6986 18.5781 9.85552C19.7351 11.0124 20.385 12.5816 20.385 14.2177Z" stroke="#055F5B" stroke-width="1.5" stroke-linecap="round" stroke-linejoin="round"/>
<path d="M20.3862 14.2177V16.8616C20.3862 17.7965 20.7576 18.6931 21.4187 19.3542C22.0798 20.0153 22.9764 20.3867 23.9113 20.3867C24.8463 20.3867 25.7429 20.0153 26.404 19.3542C27.0651 18.6931 27.4365 17.7965 27.4365 16.8616V14.2177C27.4364 11.2401 26.4309 8.3497 24.583 6.01489C22.735 3.68008 20.1529 2.0376 17.2549 1.35355C14.3569 0.669493 11.3129 0.983947 8.61593 2.24596C5.91898 3.50798 3.72714 5.64362 2.3955 8.30688C1.06387 10.9701 0.670466 14.005 1.27902 16.9198C1.88758 19.8345 3.46245 22.4585 5.74848 24.3664C8.03451 26.2744 10.8978 27.3546 13.8744 27.432C16.851 27.5095 19.7666 26.5797 22.1487 24.7932" stroke="#055F5B" stroke-width="1.5" stroke-linecap="round" stroke-linejoin="round"/>
</svg>
