<svg width="126" height="122" viewBox="0 0 126 122" fill="none" xmlns="http://www.w3.org/2000/svg">
<circle cx="64.8496" cy="60.8496" r="60.8496" fill="#F8EDE3"/>
<path d="M12.0234 92.6556H13.0234V91.6556V31.1594C13.0234 29.5026 14.3666 28.1594 16.0234 28.1594H102.921C104.578 28.1594 105.921 29.5026 105.921 31.1594V91.6556V92.6556H106.921H117.207C117.613 92.6556 117.942 92.985 117.942 93.3912C117.942 98.8298 113.533 103.239 108.095 103.239H10.8474C5.40885 103.239 1 98.8298 1 93.3912C1 92.985 1.32934 92.6556 1.73559 92.6556H12.0234Z" fill="#292C32" stroke="#292C32" stroke-width="2"/>
<path d="M21.0234 24.1594H107.921C109.578 24.1594 110.921 25.5026 110.921 27.1594V88.1952H18.0234V27.1594C18.0234 25.5026 19.3666 24.1594 21.0234 24.1594Z" fill="#FAAC04" stroke="#292C32" stroke-width="2"/>
<path d="M23.3066 29.9987H105.637V80.8965H23.3066V29.9987Z" fill="white" stroke="#292C32" stroke-width="2"/>
<path d="M6.73559 88.6557H122.207C122.613 88.6557 122.942 88.985 122.942 89.3912C122.942 94.8298 118.533 99.2387 113.095 99.2387H15.8474C10.4089 99.2387 6 94.8298 6 89.3912C6 88.985 6.32934 88.6557 6.73559 88.6557Z" fill="white" stroke="#292C32" stroke-width="2"/>
<rect x="54.0254" y="86.8652" width="20.8932" height="3.56724" rx="1.78362" fill="#FAAC04" stroke="#292C32" stroke-width="2"/>
<line x1="38.7109" y1="41.1773" x2="84.9264" y2="41.1773" stroke="#292C32" stroke-width="2" stroke-linecap="round"/>
<line x1="38.7109" y1="48.1773" x2="60.8184" y2="48.1773" stroke="#1E756B" stroke-width="2" stroke-linecap="round"/>
<line x1="65.8926" y1="48.1773" x2="94.2813" y2="48.1773" stroke="#292C32" stroke-width="2" stroke-linecap="round"/>
<line x1="38.8301" y1="55.1773" x2="69.5384" y2="55.1773" stroke="#292C32" stroke-width="2" stroke-linecap="round"/>
<line x1="38.8301" y1="62.1773" x2="56.9692" y2="62.1773" stroke="#292C32" stroke-width="2" stroke-linecap="round"/>
<line x1="38.8301" y1="69.1773" x2="78.6294" y2="69.1773" stroke="#1E756B" stroke-width="2" stroke-linecap="round"/>
<line x1="74.5391" y1="55.1773" x2="85.0897" y2="55.1773" stroke="#1E756B" stroke-width="2" stroke-linecap="round"/>
</svg>
