<svg width="56" height="56" viewBox="0 0 56 56" fill="none" xmlns="http://www.w3.org/2000/svg">
<rect width="56" height="56" fill="#055F5B"/>
<path d="M42.6674 23.9135C42.5665 23.8574 42.4523 23.8294 42.3368 23.8326C42.2214 23.8358 42.1089 23.87 42.0112 23.9316L30.5797 31.8833C29.6552 32.4573 28.5886 32.7614 27.5003 32.7614C26.4121 32.7614 25.3455 32.4573 24.4209 31.8833L12.9894 23.9316C12.8917 23.8702 12.7792 23.8361 12.6637 23.8329C12.5483 23.8297 12.4341 23.8575 12.3331 23.9134C12.232 23.9694 12.1478 24.0514 12.0893 24.1509C12.0307 24.2504 11.9999 24.3638 12 24.4793V35.4303C12 36.458 12.4083 37.4437 13.135 38.1704C13.8617 38.8971 14.8473 39.3054 15.8751 39.3054H39.1256C40.1533 39.3054 41.139 38.8971 41.8657 38.1704C42.5924 37.4437 43.0007 36.458 43.0007 35.4303V24.4793C43.0011 24.3638 42.9703 24.2502 42.9117 24.1507C42.853 24.0511 42.7687 23.9692 42.6674 23.9135V23.9135Z" fill="white"/>
<path d="M43.0007 19.8751C43.0007 18.8473 42.5924 17.8617 41.8657 17.135C41.139 16.4083 40.1533 16 39.1256 16H15.8751C14.8473 16 13.8617 16.4083 13.135 17.135C12.4083 17.8617 12 18.8473 12 19.8751C12 19.9077 12.0082 19.9397 12.0241 19.9682C12.0399 19.9967 12.0627 20.0207 12.0904 20.0378L26.467 29.834C26.7748 30.0254 27.1301 30.1268 27.4926 30.1268C27.8551 30.1268 28.2103 30.0254 28.5182 29.834L42.9025 20.0378C42.9315 20.0214 42.9557 19.9978 42.9729 19.9693C42.9901 19.9408 42.9997 19.9084 43.0007 19.8751V19.8751Z" fill="white"/>
</svg>
