<svg width="169" height="146" viewBox="0 0 169 146" fill="none" xmlns="http://www.w3.org/2000/svg">
<ellipse cx="68.1089" cy="77.9717" rx="68.1089" ry="67.9807" fill="#F8EDE3"/>
<ellipse cx="67.1072" cy="79.9717" rx="47.4861" ry="47.3968" fill="#292C32"/>
<path d="M119.019 75.0751C119.019 100.698 98.2084 121.472 72.533 121.472C46.8576 121.472 26.0469 100.698 26.0469 75.0751C26.0469 49.4527 46.8576 28.6783 72.533 28.6783C98.2084 28.6783 119.019 49.4527 119.019 75.0751Z" fill="white" stroke="#292C32" stroke-width="2"/>
<path d="M103.815 75.0748C103.815 92.3157 89.8065 106.3 72.5285 106.3C55.2505 106.3 41.2422 92.3157 41.2422 75.0748C41.2422 57.8339 55.2505 43.8492 72.5285 43.8492C89.8065 43.8492 103.815 57.8339 103.815 75.0748Z" fill="#FAAC04" stroke="#292C32" stroke-width="2"/>
<path d="M61.2266 91.1876V58.962H74.4623C78.3528 58.962 81.2974 59.7113 83.3088 61.2098C85.3202 62.7083 86.3227 64.9044 86.3227 67.7935C86.3227 69.3725 85.9191 70.7646 85.1184 71.9667C84.3113 73.1687 83.1893 74.05 81.751 74.6108C83.3911 75.0265 84.6826 75.8563 85.6286 77.1163C86.5762 78.3667 87.0556 79.8958 87.0556 81.7149C87.0556 84.8118 86.0725 87.1594 84.1047 88.7513C82.1368 90.3433 79.3376 91.1554 75.6989 91.1876H61.2266ZM67.6838 71.8523H74.7271C78.0574 71.7959 79.7282 70.5246 79.7282 67.9127C79.7282 66.4529 79.3053 65.4007 78.461 64.7594C77.6167 64.1181 76.2849 63.7959 74.4623 63.7959H67.6838V71.8523ZM67.6838 76.6861V86.3538H75.5036C77.0549 86.3538 80.5984 85.5981 80.5984 82.1499C80.5984 78.7018 78.7952 76.7296 75.7554 76.6861H67.6838Z" fill="white"/>
<path d="M66.0703 54.1283H70.9133V62.1847H66.0703V54.1283ZM74.1419 54.1283H78.9848V62.1847H74.1419V54.1283ZM66.0703 87.9651H70.9133V96.0215H66.0703V87.9651ZM74.1419 87.9651H78.9848V96.0215H74.1419V87.9651Z" fill="white"/>
<ellipse cx="118.711" cy="37.2267" rx="33.2893" ry="33.2267" fill="#292C32"/>
<path d="M155.001 33.2267C155.001 51.0232 140.546 65.4534 122.711 65.4534C104.877 65.4534 90.4219 51.0232 90.4219 33.2267C90.4219 15.4302 104.877 1 122.711 1C140.546 1 155.001 15.4302 155.001 33.2267Z" fill="#1E756B" stroke="#292C32" stroke-width="2"/>
<path d="M110.305 32.9683L122.625 39.413L135.116 33.0363" stroke="white" stroke-width="2"/>
<path d="M122.582 10.5889V55.8644" stroke="white" stroke-width="2"/>
<path d="M122.695 11.0622L134.253 33.5596" stroke="white" stroke-width="2"/>
<path d="M122.477 11.032L111.014 33.7723" stroke="white" stroke-width="2"/>
<path d="M122.707 55.3857L134.682 33.4452" stroke="white" stroke-width="2"/>
<path d="M122.461 55.3882L110.732 33.3967" stroke="white" stroke-width="2"/>
</svg>
