<svg width="130" height="130" viewBox="0 0 130 130" fill="none" xmlns="http://www.w3.org/2000/svg">
<circle cx="65" cy="65" r="65" fill="#F8EDE3"/>
<path d="M74.7108 40.5178H75.5161V39.7125V34.3229C75.5161 30.824 72.8201 28.128 69.3212 28.128H58.5419C55.043 28.128 52.347 30.824 52.347 34.3229V39.7125V40.5178H53.1523H56.7454H57.5506V39.7125V34.3229C57.5506 33.9669 57.6658 33.7328 57.8088 33.5898C57.9519 33.4467 58.1859 33.3316 58.5419 33.3316H69.3212C69.6772 33.3316 69.9112 33.4467 70.0543 33.5898C70.1973 33.7328 70.3125 33.9669 70.3125 34.3229V39.7125V40.5178H71.1177H74.7108ZM35.1862 99.8039H92.6758C97.0729 99.8039 100.667 96.2096 100.667 91.8125V48.6953C100.667 44.2981 97.0729 40.7038 92.6758 40.7038H35.1862C30.789 40.7038 27.1947 44.2981 27.1947 48.6953V91.8125C27.1947 96.2096 30.789 99.8039 35.1862 99.8039Z" fill="#292C32" stroke="#292C32" stroke-width="1.61054"/>
<path d="M56.015 36.7793V37.5846H56.8203H60.4134H61.2187V36.7793V31.3896C61.2187 31.0337 61.3338 30.7996 61.4769 30.6566C61.6199 30.5135 61.854 30.3984 62.21 30.3984H72.9893C73.3452 30.3984 73.5793 30.5135 73.7223 30.6566C73.8654 30.7996 73.9805 31.0337 73.9805 31.3896V36.7793V37.5846H74.7858H78.3789H79.1842V36.7793V31.3896C79.1842 27.8908 76.4881 25.1947 72.9893 25.1947H62.21C58.7111 25.1947 56.015 27.8908 56.015 31.3896V36.7793Z" fill="#FAAC04" stroke="#292C32" stroke-width="1.61054"/>
<path d="M38.8542 96.8707H96.3437C100.741 96.8707 104.335 93.2764 104.335 88.8792V45.7621C104.335 41.3649 100.741 37.7706 96.3437 37.7706H38.8542C34.457 37.7706 30.8627 41.3649 30.8627 45.7621V88.8792C30.8627 93.2764 34.457 96.8707 38.8542 96.8707Z" fill="white" stroke="#292C32" stroke-width="1.61054"/>
<path d="M38.8542 69.9225H96.3437C100.741 69.9225 104.335 66.3281 104.335 61.931V45.7621C104.335 41.3649 100.741 37.7706 96.3437 37.7706H38.8542C34.457 37.7706 30.8627 41.3649 30.8627 45.7621V61.931C30.8627 66.3281 34.457 69.9225 38.8542 69.9225Z" fill="#1E756B" stroke="#292C32" stroke-width="1.61054"/>
<path d="M64.0055 64.7895H71.1917C71.9137 64.7895 72.5779 64.5453 73.0636 64.0596C73.5494 63.5738 73.7935 62.9096 73.7935 62.1877V58.5946C73.7935 57.8726 73.5494 57.2084 73.0636 56.7227C72.5779 56.2369 71.9137 55.9928 71.1917 55.9928H64.0055C63.2836 55.9928 62.6194 56.2369 62.1336 56.7227C61.6479 57.2084 61.4037 57.8726 61.4037 58.5946V62.1877C61.4037 62.9096 61.6479 63.5738 62.1336 64.0596C62.6194 64.5453 63.2836 64.7895 64.0055 64.7895Z" fill="#FAAC04" stroke="#292C32" stroke-width="1.61054"/>
</svg>
