<svg width="72" height="72" viewBox="0 0 72 72" fill="none" xmlns="http://www.w3.org/2000/svg">
<rect width="72" height="72" fill="#055F5B"/>
<path d="M43.0157 39.425C42.9141 39.3768 42.8269 39.3029 42.7628 39.2104C42.6988 39.118 42.6602 39.0104 42.6508 38.8983C42.6414 38.7862 42.6617 38.6737 42.7095 38.5719C42.7573 38.4702 42.831 38.3827 42.9233 38.3184C44.5724 37.161 45.8954 35.5982 46.7646 33.7806C47.6338 31.9631 48.02 29.9521 47.8857 27.9419C47.7515 25.9317 47.1015 23.99 45.9983 22.3041C44.8952 20.6182 43.3762 19.2451 41.5878 18.3172C39.7995 17.3894 37.8022 16.9381 35.7887 17.0068C33.7752 17.0756 31.8133 17.6622 30.0925 18.7099C28.3716 19.7576 26.9499 21.2312 25.9643 22.9884C24.9788 24.7456 24.4628 26.7272 24.466 28.7419C24.4708 30.6579 24.9477 32.5431 25.8545 34.2309C26.7613 35.9187 28.0701 37.357 29.6651 38.4185C29.7584 38.4816 29.8334 38.5681 29.8825 38.6695C29.9316 38.7708 29.9531 38.8833 29.9448 38.9956C29.9364 39.1079 29.8986 39.216 29.835 39.309C29.7715 39.402 29.6845 39.4765 29.5829 39.5251C27.0082 40.7967 24.8402 42.7627 23.3236 45.2012C21.807 47.6396 21.0022 50.4534 21 53.325C21 53.6655 21.1352 53.992 21.376 54.2328C21.6167 54.4735 21.9433 54.6087 22.2837 54.6087H50.5254C50.8659 54.6087 51.1924 54.4735 51.4332 54.2328C51.6739 53.992 51.8092 53.6655 51.8092 53.325C51.8066 50.414 50.9792 47.5633 49.4229 45.1032C47.8666 42.6431 45.645 40.6743 43.0157 39.425V39.425ZM29.9911 26.5647C30.024 26.4733 30.0773 26.3905 30.1468 26.3226C30.2164 26.2547 30.3004 26.2035 30.3926 26.1729C30.4848 26.1422 30.5828 26.1329 30.6792 26.1456C30.7755 26.1584 30.8677 26.1928 30.9488 26.2464C32.6191 27.3502 34.493 28.1095 36.4606 28.4798C38.4282 28.8501 40.4499 28.824 42.4072 28.403C42.4575 28.3923 42.5095 28.393 42.5595 28.4049C42.6095 28.4168 42.6562 28.4397 42.6963 28.4719C42.7363 28.5041 42.7687 28.5448 42.7911 28.591C42.8135 28.6373 42.8253 28.6879 42.8257 28.7393C42.8257 30.4927 42.1292 32.1743 40.8894 33.4141C39.6495 34.6539 37.968 35.3505 36.2146 35.3505C34.4612 35.3505 32.7796 34.6539 31.5398 33.4141C30.3 32.1743 29.6035 30.4927 29.6035 28.7393C29.6037 27.9973 29.7349 27.2611 29.9911 26.5647V26.5647Z" fill="white"/>
<circle cx="36.3305" cy="30.2861" r="8.22505" fill="white"/>
</svg>
