<svg width="384" height="264" viewBox="0 0 384 264" fill="none" xmlns="http://www.w3.org/2000/svg">
<g clip-path="url(#clip0_3133_110)">
<mask id="mask0_3133_110" style="mask-type:alpha" maskUnits="userSpaceOnUse" x="0" y="0" width="384" height="264">
<path d="M0 0H384V264H0V0Z" fill="#C4C4C4"/>
</mask>
<g mask="url(#mask0_3133_110)">
<path d="M-105.66 -17.3857H544.797V428.575H-105.66V-17.3857Z" fill="#E9F8F7"/>
</g>
<path d="M188.189 34.0894L212.429 52.0668C216.997 53.1431 221.591 54.5703 226.256 56.3505L225.722 55.8589L225.925 55.5188C242.899 61.6697 251.196 66.8318 263.629 76.591C264.843 77.408 266.068 78.2411 267.302 79.0954L267.612 79.3103L267.592 79.6859C267.069 89.5572 266.354 98.7017 265.387 107.213C264.782 115.758 263.678 123.885 261.65 134.049L275.607 138.732L275.976 138.855L275.665 139.088L254.772 154.656C253.401 158.199 251.897 161.599 250.25 164.876L250.504 165.141C249.922 166.011 249.345 166.867 248.774 167.71C243.01 178.378 235.618 187.706 226.154 196.347C225.368 197.123 224.574 197.886 223.767 198.633C218.961 203.08 213.757 207.012 207.726 210.665C202.027 214.499 195.805 218.266 189.007 222.027L188.663 222.217L188.328 222.011C186.205 220.709 184.127 219.413 182.092 218.124C170.272 213.004 161.071 207.538 152.738 199.932C146.922 194.623 141.531 188.275 135.967 180.283C132.825 176.498 129.949 172.542 127.335 168.359C126.176 166.504 125.069 164.604 124.013 162.657L110.441 167.217L110.064 167.345L110.186 166.964L116.778 146.315C110.532 128.692 107.382 107.257 107.053 79.6595L107.048 79.2641L107.391 79.0664C109.926 77.6 112.417 76.1887 114.866 74.8301C122.905 68.1513 130.709 63.0038 140.369 59.0592C152.107 54.2662 166.571 51.2527 187.501 49.4082L187.866 34.2476L187.876 33.8574L188.189 34.0894Z" fill="#040404"/>
<path d="M113.773 79.1845C114.696 155.617 138.734 181.91 191.887 214.059C248.438 183.217 263.445 152.458 267.381 79.1845C212.11 41.46 178.361 42.3628 113.773 79.1845Z" fill="#FAAC04" stroke="black" stroke-width="1.34972"/>
<path d="M222.345 58.7003L191.504 82.0592L190.94 66.9099C164.979 67.8303 149.942 72.3661 131.691 85.4917C131.706 100.958 132.346 109.562 135.6 124.681L125.251 117.091L120.499 131.489V130.193C116.683 110.627 116.091 99.3471 115.642 79.1267C135.01 62.0622 150.376 54.0981 190.94 50.5932L191.296 35.9997L222.345 58.7003Z" fill="#1E756B" stroke="black" stroke-width="0.404916"/>
<path d="M232.85 121.319L244.465 158.519L275.705 135.569L262.072 131.06C265.97 111.857 266.364 100.325 266.417 78.2424C253.083 67.7688 245.152 62.6237 227.76 56.4109L230.872 59.2363L216.786 69.7597C230.632 74.0294 238.029 77.4034 250.458 85.2534C250.458 85.2534 252.921 97.3934 246.501 125.941L232.85 121.319Z" fill="#1E756B" stroke="black" stroke-width="0.404916"/>
<path d="M159.463 147.836L128.146 125.817L116.329 162.301L130.252 157.688C149.575 190.453 162.865 201.881 191.12 212.989C221.136 200.671 232.995 187.466 251.381 160.401L241.657 166.353L237.151 152.576C226.376 172.127 217.902 182.198 191.12 195.941C191.12 195.941 156.34 179.98 145.645 152.744L159.463 147.836Z" fill="#1E756B" stroke="black" stroke-width="0.404916"/>
<g clip-path="url(#clip1_3133_110)">
<path d="M200.263 105.188C200.273 105.245 200.281 105.29 200.287 105.321V146.261C200.287 146.888 199.779 147.396 199.152 147.396H184.527C183.901 147.396 183.392 146.888 183.392 146.261V105.321C183.398 105.29 183.406 105.245 183.417 105.188C183.44 105.065 183.474 104.883 183.521 104.651C183.614 104.186 183.753 103.521 183.94 102.723C184.314 101.125 184.873 98.9993 185.619 96.8792C186.367 94.7513 187.29 92.6664 188.377 91.1255C189.48 89.5615 190.641 88.7104 191.84 88.7104C193.038 88.7104 194.199 89.5615 195.303 91.1255C196.39 92.6664 197.312 94.7513 198.061 96.8792C198.806 98.9993 199.366 101.125 199.739 102.723C199.926 103.521 200.066 104.186 200.158 104.651C200.205 104.883 200.24 105.065 200.263 105.188Z" fill="white" stroke="#292C32" stroke-width="1.28264"/>
<path d="M203.491 112.319C203.491 110.272 205.151 108.613 207.198 108.613C209.245 108.613 210.904 110.272 210.904 112.319V147.397H203.491V112.319Z" fill="white" stroke="#292C32" stroke-width="1.28264"/>
<path d="M203.491 147.397H219.606C219.613 147.254 219.591 146.991 219.434 146.56C218.974 145.298 217.469 142.88 213.157 138.486C208.852 134.1 206.205 132.085 204.663 131.167C204.149 130.862 203.766 130.683 203.491 130.578V147.397Z" fill="white" stroke="#292C32" stroke-width="1.28264"/>
<path d="M169.564 113.602C169.564 111.555 171.223 109.895 173.27 109.895C175.318 109.895 176.977 111.555 176.977 113.602V148.679H169.564V113.602Z" fill="#292C32" stroke="#292C32" stroke-width="1.28264"/>
<path d="M161.025 148.68C161.017 148.537 161.04 148.274 161.197 147.843C161.657 146.58 163.162 144.162 167.474 139.769C171.78 135.381 174.388 133.365 175.893 132.446C176.363 132.159 176.718 131.984 176.976 131.878V148.68H161.025Z" fill="#292C32"/>
<path d="M161.056 148.831C161.056 148.831 161.056 148.831 161.056 148.83M161.025 148.68C161.017 148.537 161.04 148.274 161.197 147.843C161.657 146.58 163.162 144.162 167.474 139.769C171.78 135.381 174.388 133.365 175.893 132.446C176.363 132.159 176.718 131.984 176.976 131.878V148.68H161.025Z" stroke="#292C32" stroke-width="1.28264"/>
<path d="M172.77 112.319C172.77 110.272 174.43 108.613 176.477 108.613C178.524 108.613 180.184 110.272 180.184 112.319V147.397H172.77V112.319Z" fill="white" stroke="#292C32" stroke-width="1.28264"/>
<path d="M164.232 147.396C164.224 147.253 164.246 146.991 164.403 146.559C164.863 145.297 166.369 142.879 170.681 138.486C174.987 134.098 177.595 132.081 179.099 131.163C179.569 130.876 179.924 130.701 180.183 130.595V147.396H164.232Z" fill="white"/>
<path d="M164.263 147.548C164.263 147.548 164.263 147.548 164.262 147.547M164.232 147.396C164.224 147.253 164.246 146.991 164.403 146.559C164.863 145.297 166.369 142.879 170.681 138.486C174.987 134.098 177.595 132.081 179.099 131.163C179.569 130.876 179.924 130.701 180.183 130.595V147.396H164.232Z" stroke="#292C32" stroke-width="1.28264"/>
<path d="M183.891 153.168H183.25V153.81V156.158C183.25 157.598 184.417 158.765 185.856 158.765H193.971C195.411 158.765 196.578 157.598 196.578 156.158V153.81V153.168H195.937H183.891Z" fill="#292C32" stroke="#292C32" stroke-width="1.28264"/>
<path d="M185.815 150.604H185.174V151.245V153.593C185.174 155.033 186.341 156.2 187.78 156.2H195.895C197.335 156.2 198.502 155.033 198.502 153.593V151.245V150.604H197.861H185.815Z" fill="white" stroke="#292C32" stroke-width="1.28264"/>
<path d="M195.91 104.13V103.317C195.91 101.069 194.088 99.2476 191.841 99.2476C189.593 99.2476 187.771 101.069 187.771 103.317V104.13" stroke="#292C32" stroke-width="1.28264" stroke-linecap="round"/>
<path d="M189.159 161.264V168.308" stroke="#292C32" stroke-width="1.28264" stroke-linecap="round"/>
<path d="M193.648 161.264V163.121" stroke="#292C32" stroke-width="1.28264" stroke-linecap="round"/>
<path d="M193.648 165.763V175.143" stroke="#292C32" stroke-width="1.28264" stroke-linecap="round"/>
</g>
</g>
<defs>
<clipPath id="clip0_3133_110">
<rect width="384" height="264" fill="white"/>
</clipPath>
<clipPath id="clip1_3133_110">
<rect width="76.9584" height="87.8608" fill="white" transform="translate(153.521 88.0693)"/>
</clipPath>
</defs>
</svg>
