<svg width="134" height="137" viewBox="0 0 134 137" fill="none" xmlns="http://www.w3.org/2000/svg">
<g clip-path="url(#clip0)">
<circle cx="74.4102" cy="69" r="60" fill="#F8EDE3"/>
<circle cx="72.4754" cy="70.7606" r="42.0834" fill="#292C32" stroke="#292C32" stroke-width="1.64562"/>
<circle cx="76.4754" cy="66.7606" r="42.0834" fill="#1E756B" stroke="#292C32" stroke-width="1.64562"/>
<circle cx="76.4716" cy="66.7607" r="34.0185" fill="white"/>
<circle cx="76.4739" cy="66.761" r="26.7551" fill="#1E756B"/>
<circle cx="76.4721" cy="66.7611" r="19.1283" fill="white"/>
<circle cx="76.4808" cy="66.7606" r="11.5355" fill="#1E756B"/>
<path d="M67.2492 66.8481H7.42188" stroke="#292C32" stroke-width="2" stroke-linecap="round"/>
<path d="M1 73.9556L8.19531 66.7622L1 59.5669" stroke="#292C32" stroke-width="2" stroke-linecap="round"/>
<path d="M9.22266 73.9556L16.418 66.7622L9.22266 59.5669" stroke="#292C32" stroke-width="2" stroke-linecap="round"/>
<path d="M67.5391 72.0142V63.1788V61.5085C67.5391 60.6508 68.5479 60.1911 69.1951 60.7537L75.238 66.0066C75.6966 66.4053 75.6966 67.1174 75.238 67.5161L69.1951 72.7689C68.5479 73.3316 67.5391 72.8718 67.5391 72.0142Z" fill="#292C32" stroke="#292C32" stroke-width="2" stroke-linecap="round"/>
</g>
<defs>
<clipPath id="clip0">
<rect width="134" height="137" fill="white"/>
</clipPath>
</defs>
</svg>
