<svg width="120" height="120" viewBox="0 0 120 120" fill="none" xmlns="http://www.w3.org/2000/svg">
<g clip-path="url(#clip0)">
<circle cx="60" cy="60" r="60" fill="#F8EDE3"/>
<path d="M57.6827 27.962C50.1626 27.962 44.0429 34.0063 44.0429 41.4387V61.6538H37.223V41.4387C37.223 30.2732 46.3821 21.2236 57.6827 21.2236V27.962Z" fill="#292C32"/>
<path d="M79.8355 98.782H36.6889C33.5381 98.782 30.9829 96.2569 30.9829 93.1438V57.2511C30.9829 54.138 33.5381 51.6133 36.6889 51.6133H79.8355C82.9863 51.6133 85.5419 54.138 85.5419 57.2511V93.1438C85.5419 96.2569 82.9863 98.782 79.8355 98.782Z" fill="#292C32"/>
<path d="M48.0975 41.4387C48.0975 34.0063 54.2172 27.962 61.7372 27.962C69.2572 27.962 75.3769 34.0063 75.3769 41.4387V61.6538H82.1973V41.4387C82.1973 30.2732 73.0377 21.2236 61.7372 21.2236C50.4367 21.2236 41.2776 30.2732 41.2776 41.4387V61.6538H48.0975V41.4387Z" fill="white"/>
<path fill-rule="evenodd" clip-rule="evenodd" d="M74.2179 62.7996V41.4393C74.2179 34.6396 68.6172 29.1079 61.7372 29.1079C54.8572 29.1079 49.2565 34.6396 49.2565 41.4393V62.7996H40.1185V41.4393C40.1185 29.6414 49.7965 20.0791 61.7372 20.0791C73.6778 20.0791 83.3563 29.6414 83.3563 41.4393V62.7996H74.2179ZM48.0975 61.6544H41.2776V41.4393C41.2776 30.2739 50.4366 21.2243 61.7372 21.2243C73.0377 21.2243 82.1973 30.2739 82.1973 41.4393V61.6544H75.3769V41.4393C75.3769 34.007 69.2572 27.9627 61.7372 27.9627C54.2172 27.9627 48.0975 34.007 48.0975 41.4393V61.6544Z" fill="#292C32"/>
<path d="M83.3105 95.3465H40.1639C37.0131 95.3465 34.4579 92.8214 34.4579 89.7082V53.8155C34.4579 50.7024 37.0131 48.1777 40.1639 48.1777H83.3105C86.4612 48.1777 89.0169 50.7024 89.0169 53.8155V89.7082C89.0169 92.8214 86.4612 95.3465 83.3105 95.3465Z" fill="#055F5B"/>
<path fill-rule="evenodd" clip-rule="evenodd" d="M40.1639 94.2013H83.3105C85.8211 94.2013 87.8578 92.1889 87.8578 89.7082V53.8155C87.8578 51.335 85.8212 49.3229 83.3105 49.3229H40.1639C37.6532 49.3229 35.6169 51.3349 35.6169 53.8155V89.7082C35.6169 92.189 37.6533 94.2013 40.1639 94.2013ZM40.1639 95.3465H83.3105C86.4612 95.3465 89.0169 92.8214 89.0169 89.7082V53.8155C89.0169 50.7024 86.4612 48.1777 83.3105 48.1777H40.1639C37.0131 48.1777 34.4579 50.7024 34.4579 53.8155V89.7082C34.4579 92.8214 37.0131 95.3465 40.1639 95.3465Z" fill="#292C32"/>
<path fill-rule="evenodd" clip-rule="evenodd" d="M64.8603 74.7952C66.8891 73.6211 68.2539 71.4272 68.2539 68.9146C68.2539 65.1648 65.2141 62.125 61.4643 62.125C57.7144 62.125 54.6746 65.1648 54.6746 68.9146C54.6746 71.4283 56.0405 73.6229 58.0706 74.7967V82.4953H64.8603V74.7952Z" fill="#FAAC04"/>
<path fill-rule="evenodd" clip-rule="evenodd" d="M64.8604 82.4959H58.0707V74.7973C56.0406 73.6235 54.6747 71.4289 54.6747 68.9152C54.6747 65.1654 57.7145 62.1256 61.4644 62.1256C65.2142 62.1256 68.2541 65.1654 68.2541 68.9152C68.2541 71.4278 66.8892 73.6217 64.8604 74.7958V82.4959ZM66.0144 75.4273C68.0643 73.9924 69.408 71.6113 69.408 68.9152C69.408 64.5281 65.8515 60.9717 61.4644 60.9717C57.0772 60.9717 53.5208 64.5281 53.5208 68.9152C53.5208 71.6124 54.8655 73.9943 56.9168 75.429V83.6498H66.0144V75.4273Z" fill="#292C32"/>
</g>
<defs>
<clipPath id="clip0">
<rect width="120" height="120" fill="white"/>
</clipPath>
</defs>
</svg>
