<svg width="131" height="137" viewBox="0 0 131 137" fill="none" xmlns="http://www.w3.org/2000/svg">
<ellipse cx="54.5745" cy="72.0389" rx="54.5745" ry="54.9612" fill="#F8EDE3"/>
<path d="M91.1562 73.7394C91.1562 94.357 74.5618 111.059 54.1064 111.059C33.651 111.059 17.0566 94.357 17.0566 73.7394C17.0566 53.1217 33.651 36.4199 54.1064 36.4199C74.5618 36.4199 91.1562 53.1217 91.1562 73.7394Z" fill="#292C32" stroke="#292C32" stroke-width="2"/>
<path d="M95.1699 69.6969C95.1699 90.3145 78.5755 107.016 58.1201 107.016C37.6647 107.016 21.0703 90.3145 21.0703 69.6969C21.0703 49.0793 37.6647 32.3774 58.1201 32.3774C78.5755 32.3774 95.1699 49.0793 95.1699 69.6969Z" fill="white" stroke="#292C32" stroke-width="2"/>
<path d="M82.987 69.6966C82.987 83.5379 71.8433 94.7504 58.1165 94.7504C44.3898 94.7504 33.2461 83.5379 33.2461 69.6966C33.2461 55.8553 44.3898 44.6428 58.1165 44.6428C71.8433 44.6428 82.987 55.8553 82.987 69.6966Z" fill="#FAAC04" stroke="#292C32" stroke-width="2"/>
<path d="M49.0605 82.7235V56.6697H59.6661C62.7835 56.6697 65.1429 57.2754 66.7546 58.4869C68.3664 59.6984 69.1696 61.474 69.1696 63.8097C69.1696 65.0864 68.8463 66.2119 68.2047 67.1837C67.5579 68.1555 66.6589 68.8681 65.5064 69.3214C66.8206 69.6575 67.8554 70.3284 68.6134 71.3471C69.3727 72.358 69.7569 73.5942 69.7569 75.065C69.7569 77.5687 68.9692 79.4668 67.3923 80.7538C65.8155 82.0409 63.5726 82.6974 60.657 82.7235H49.0605ZM54.2346 67.0912H59.8783C62.5468 67.0456 63.8856 66.0178 63.8856 63.9061C63.8856 62.7259 63.5467 61.8752 62.8702 61.3568C62.1937 60.8383 61.1265 60.5777 59.6661 60.5777H54.2346V67.0912ZM54.2346 70.9993V78.8154H60.5005C61.7435 78.8154 64.5828 78.2044 64.5828 75.4167C64.5828 72.6289 63.138 71.0344 60.7022 70.9993H54.2346Z" fill="white"/>
<path d="M52.9434 52.7617H56.8239V59.2752H52.9434V52.7617ZM59.411 52.7617H63.2915V59.2752H59.411V52.7617ZM52.9434 80.1182H56.8239V86.6317H52.9434V80.1182ZM59.411 80.1182H63.2915V86.6317H59.411V80.1182Z" fill="white"/>
<path d="M120.79 39.0971C120.79 53.3876 109.288 64.9602 95.1155 64.9602C80.9428 64.9602 69.4414 53.3876 69.4414 39.0971C69.4414 24.8066 80.9428 13.2339 95.1155 13.2339C109.288 13.2339 120.79 24.8066 120.79 39.0971Z" fill="#292C32" stroke="#292C32" stroke-width="2"/>
<path d="M124.001 35.8632C124.001 50.1537 112.499 61.7264 98.3265 61.7264C84.1537 61.7264 72.6523 50.1537 72.6523 35.8632C72.6523 21.5727 84.1537 10 98.3265 10C112.499 10 124.001 21.5727 124.001 35.8632Z" fill="#1E756B" stroke="#292C32" stroke-width="2"/>
<path d="M88.3848 35.6541L98.2568 40.8645L108.265 35.709" stroke="white" stroke-width="2"/>
<path d="M98.2207 17.5608V54.1653" stroke="white" stroke-width="2"/>
<path d="M98.3125 17.9434L107.573 36.1321" stroke="white" stroke-width="2"/>
<path d="M98.1367 17.9189L88.9522 36.3041" stroke="white" stroke-width="2"/>
<path d="M98.3223 53.7783L107.918 36.0397" stroke="white" stroke-width="2"/>
<path d="M98.125 53.7803L88.7271 36.0005" stroke="white" stroke-width="2"/>
</svg>
