<svg width="72" height="72" viewBox="0 0 72 72" fill="none" xmlns="http://www.w3.org/2000/svg">
<rect width="72" height="72" fill="#055F5B"/>
<path d="M45.9994 13H26.7691C25.239 13 23.7716 13.6078 22.6897 14.6897C21.6078 15.7716 21 17.239 21 18.7691V53.2529C21 54.783 21.6078 56.2504 22.6897 57.3323C23.7716 58.4142 25.239 59.022 26.7691 59.022H45.9994C47.5295 59.022 48.9969 58.4142 50.0788 57.3323C51.1607 56.2504 51.7685 54.783 51.7685 53.2529V18.7691C51.7685 17.239 51.1607 15.7716 50.0788 14.6897C48.9969 13.6078 47.5295 13 45.9994 13V13ZM36.3843 56.1375C36.0039 56.1375 35.6321 56.0247 35.3159 55.8134C34.9996 55.6021 34.7532 55.3018 34.6076 54.9504C34.4621 54.599 34.424 54.2123 34.4982 53.8393C34.5724 53.4663 34.7555 53.1236 35.0245 52.8547C35.2934 52.5857 35.6361 52.4026 36.0091 52.3284C36.3821 52.2542 36.7688 52.2922 37.1202 52.4378C37.4716 52.5833 37.7719 52.8298 37.9832 53.1461C38.1945 53.4623 38.3073 53.8341 38.3073 54.2144C38.3073 54.7245 38.1047 55.2136 37.7441 55.5742C37.3834 55.9349 36.8943 56.1375 36.3843 56.1375ZM47.9225 47.4838C47.9225 47.9939 47.7199 48.483 47.3592 48.8436C46.9986 49.2043 46.5095 49.4069 45.9994 49.4069H26.7691C26.2591 49.4069 25.7699 49.2043 25.4093 48.8436C25.0487 48.483 24.8461 47.9939 24.8461 47.4838V19.7306C24.8461 19.2206 25.0487 18.7315 25.4093 18.3708C25.7699 18.0102 26.2591 17.8076 26.7691 17.8076H45.9994C46.5095 17.8076 46.9986 18.0102 47.3592 18.3708C47.7199 18.7315 47.9225 19.2206 47.9225 19.7306V47.4838Z" fill="white"/>
</svg>
