<svg width="150" height="143" viewBox="0 0 150 143" fill="none" xmlns="http://www.w3.org/2000/svg">
<g clip-path="url(#clip0)">
<circle cx="70.3809" cy="71.3809" r="71.3809" fill="#F8EDE3"/>
<path d="M46.2655 96.358L46.2653 96.3578C40.2169 90.2423 33.5872 82.7703 28.4168 74.9647C23.2316 67.1364 19.5927 59.0884 19.3644 51.7995L19.3644 51.7992C19.3337 50.8286 19.9248 49.4796 21.0924 47.8728C22.2268 46.3114 23.7758 44.6794 25.3637 43.1813C26.9466 41.6879 28.5425 40.3516 29.7529 39.3816C30.3573 38.8972 30.864 38.5055 31.2226 38.2327C31.5622 37.9744 31.7599 37.8298 31.7845 37.8118C31.7864 37.8105 31.7872 37.8098 31.7871 37.8099L31.7901 37.8078C34.7627 35.7102 37.8274 36.5722 38.9779 38.1823C39.9895 39.6006 49.7408 54.5509 50.8009 56.2448L50.8018 56.2462C51.6412 57.5825 51.6183 59.7968 50.3264 62.2674L50.3246 62.271C49.5811 63.7068 47.0751 68.1618 45.8915 70.2591L45.5836 70.8045L45.9401 71.3196C47.2451 73.2055 50.6557 77.7422 57.6479 84.8112C64.638 91.88 69.1222 95.3312 70.9935 96.6573L71.5164 97.0279L72.0715 96.7075C74.1452 95.5106 78.5493 92.9759 79.9739 92.2177L79.9768 92.2161C82.3635 90.9358 84.5386 90.9013 85.8797 91.7299C87.6487 92.826 102.39 102.737 103.74 103.692L103.74 103.693C104.604 104.303 105.222 105.405 105.343 106.785C105.463 108.162 105.047 109.663 104.119 111.002L104.114 111.01L104.108 111.018L104.107 111.02C104.072 111.069 103.506 111.859 102.581 113.041C101.634 114.252 100.327 115.851 98.8666 117.442C97.4015 119.039 95.8042 120.602 94.2748 121.759C92.6998 122.95 91.3763 123.569 90.4266 123.569H90.4264H90.4262H90.4261H90.4259H90.4257H90.4255H90.4253H90.4251H90.4249H90.4248H90.4246H90.4244H90.4242H90.424H90.4238H90.4236H90.4234H90.4232H90.4231H90.4229H90.4227H90.4225H90.4223H90.4221H90.4219H90.4218H90.4216H90.4214H90.4212H90.421H90.4208H90.4206H90.4204H90.4202H90.4201H90.4199H90.4197H90.4195H90.4193H90.4191H90.4189H90.4187H90.4186H90.4184H90.4182H90.418H90.4178H90.4176H90.4174H90.4173H90.4171H90.4169H90.4167H90.4165H90.4163H90.4161H90.4159H90.4157H90.4156H90.4154H90.4152H90.415H90.4148H90.4146H90.4144H90.4143H90.4141H90.4139H90.4137H90.4135H90.4133H90.4131H90.4129H90.4128H90.4126H90.4124H90.4122H90.412H90.4118H90.4116H90.4114H90.4113H90.4111H90.4109H90.4107H90.4105H90.4103H90.4101H90.41H90.4098H90.4096H90.4094H90.4092H90.409H90.4088H90.4086H90.4084H90.4083H90.4081H90.4079H90.4077H90.4075H90.4073H90.4071H90.407H90.4068H90.4066H90.4064H90.4062H90.406H90.4058H90.4056H90.4055H90.4053H90.4051H90.4049H90.4047H90.4045H90.4043H90.4042H90.404H90.4038H90.4036H90.4034H90.4032H90.403H90.4028H90.4027H90.4025H90.4023H90.4021H90.4019H90.4017H90.4015H90.4014H90.4012H90.401H90.4008H90.4006H90.4004H90.4002H90.4H90.3999H90.3997H90.3995H90.3993H90.3991H90.3989H90.3987H90.3986H90.3984H90.3982H90.398H90.3978H90.3976H90.3974H90.3972H90.3971H90.3969H90.3967H90.3965H90.3963H90.3961H90.3959H90.3958H90.3956H90.3954H90.3952H90.395H90.3948H90.3946H90.3944H90.3943H90.3941H90.3939H90.3937H90.3935H90.3933H90.3932H90.393H90.3928H90.3926H90.3924H90.3922H90.392H90.3918H90.3917H90.3915H90.3913H90.3911H90.3909H90.3907H90.3905H90.3904H90.3902H90.39H90.3898H90.3896H90.3894H90.3892H90.3891H90.3889H90.3887H90.3885H90.3883H90.3881H90.3879H90.3878H90.3876H90.3874H90.3872H90.387H90.3868H90.3866H90.3865H90.3863H90.3861H90.3859H90.3857H90.3855H90.3853H90.3852H90.385H90.3848H90.3846H90.3844H90.3842H90.384H90.3839H90.3837H90.3835H90.3833H90.3831H90.3829H90.3828H90.3826H90.3824H90.3822H90.382H90.3818H90.3816H90.3815H90.3813H90.3811H90.3809H90.3807H90.3805H90.3804H90.3802H90.38H90.3798H90.3796H90.3794H90.3792H90.3791H90.3789H90.3787H90.3785H90.3783H90.3781H90.378H90.3778H90.3776H90.3774H90.3772H90.377H90.3768H90.3767H90.3765H90.3763H90.3761H90.3759H90.3757H90.3756H90.3754H90.3752H90.375H90.3748H90.3746H90.3745H90.3743H90.3741H90.3739H90.3737H90.3735H90.3734H90.3732H90.373H90.3728H90.3726H90.3724H90.3722H90.3721H90.3719H90.3717H90.3715H90.3713H90.3711H90.371H90.3708H90.3706H90.3704H90.3702H90.37H90.3699H90.3697H90.3695H90.3693H90.3691H90.3689H90.3688H90.3686H90.3684H90.3682H90.368H90.3678H90.3677H90.3675H90.3673H90.3671H90.3669H90.3667H90.3666H90.3664H90.3662H90.366H90.3658H90.3657H90.3655H90.3653H90.3651H90.3649H90.3647H90.3646H90.3644H90.3642H90.364H90.3638H90.3636H90.3635H90.3633H90.3631H90.3629H90.3627H90.3625H90.3624H90.3622H90.362H90.3618H90.3616H90.3615H90.3613H90.3611H90.3609H90.3607H90.3605H90.3604H90.3602H90.36H90.3598H90.3596H90.3595H90.3593H90.3591H90.3589H90.3587H90.3586H90.3584H90.3582H90.358H90.3578H90.3576H90.3575H90.3573H90.3571H90.3569H90.3567H90.3566H90.3564H90.3562H90.356H90.3558H90.3557H90.3555H90.3553H90.3551H90.3549H90.3547H90.3546H90.3544H90.3542H90.354H90.3538H90.3537H90.3535H90.3533H90.3531H90.3529H90.3528H90.3526H90.3524H90.3522H90.352H90.3519H90.3517H90.3515H90.3513H90.3511H90.351H90.3508H90.3506H90.3504H90.3502H90.3501H90.3499H90.3497H90.3495H90.3493C83.12 123.325 75.157 119.646 67.4166 114.405C59.6934 109.176 52.3091 102.473 46.2655 96.358Z" fill="#292C32" stroke="#292C32" stroke-width="2"/>
<path d="M49.2655 92.358L49.2653 92.3578C43.2169 86.2423 36.5872 78.7703 31.4168 70.9647C26.2316 63.1364 22.5927 55.0884 22.3644 47.7995L22.3644 47.7992C22.3337 46.8286 22.9248 45.4796 24.0924 43.8728C25.2268 42.3114 26.7758 40.6794 28.3637 39.1813C29.9466 37.6879 31.5425 36.3516 32.7529 35.3816C33.3573 34.8972 33.864 34.5055 34.2226 34.2327C34.5622 33.9744 34.7599 33.8298 34.7845 33.8118C34.7864 33.8105 34.7872 33.8098 34.7871 33.8099L34.7901 33.8078C37.7627 31.7102 40.8274 32.5722 41.9779 34.1823C42.9895 35.6006 52.7408 50.5509 53.8009 52.2448L53.8018 52.2462C54.6412 53.5825 54.6183 55.7968 53.3264 58.2674L53.3246 58.271C52.5811 59.7068 50.0751 64.1618 48.8915 66.2591L48.5836 66.8045L48.9401 67.3196C50.2451 69.2055 53.6557 73.7422 60.6479 80.8112C67.638 87.88 72.1222 91.3312 73.9935 92.6573L74.5164 93.0279L75.0715 92.7075C77.1452 91.5106 81.5493 88.9759 82.9739 88.2177L82.9768 88.2161C85.3635 86.9358 87.5386 86.9013 88.8797 87.7299C90.6487 88.826 105.39 98.7366 106.74 99.6923L106.74 99.6926C107.604 100.303 108.222 101.405 108.343 102.785C108.463 104.162 108.047 105.663 107.119 107.002L107.114 107.01L107.108 107.018L107.107 107.02C107.072 107.069 106.506 107.859 105.581 109.041C104.634 110.252 103.327 111.851 101.867 113.442C100.401 115.039 98.8042 116.602 97.2748 117.759C95.6998 118.95 94.3763 119.569 93.4266 119.569H93.4264H93.4262H93.4261H93.4259H93.4257H93.4255H93.4253H93.4251H93.4249H93.4248H93.4246H93.4244H93.4242H93.424H93.4238H93.4236H93.4234H93.4232H93.4231H93.4229H93.4227H93.4225H93.4223H93.4221H93.4219H93.4218H93.4216H93.4214H93.4212H93.421H93.4208H93.4206H93.4204H93.4202H93.4201H93.4199H93.4197H93.4195H93.4193H93.4191H93.4189H93.4187H93.4186H93.4184H93.4182H93.418H93.4178H93.4176H93.4174H93.4173H93.4171H93.4169H93.4167H93.4165H93.4163H93.4161H93.4159H93.4157H93.4156H93.4154H93.4152H93.415H93.4148H93.4146H93.4144H93.4143H93.4141H93.4139H93.4137H93.4135H93.4133H93.4131H93.4129H93.4128H93.4126H93.4124H93.4122H93.412H93.4118H93.4116H93.4114H93.4113H93.4111H93.4109H93.4107H93.4105H93.4103H93.4101H93.41H93.4098H93.4096H93.4094H93.4092H93.409H93.4088H93.4086H93.4084H93.4083H93.4081H93.4079H93.4077H93.4075H93.4073H93.4071H93.407H93.4068H93.4066H93.4064H93.4062H93.406H93.4058H93.4056H93.4055H93.4053H93.4051H93.4049H93.4047H93.4045H93.4043H93.4042H93.404H93.4038H93.4036H93.4034H93.4032H93.403H93.4028H93.4027H93.4025H93.4023H93.4021H93.4019H93.4017H93.4015H93.4014H93.4012H93.401H93.4008H93.4006H93.4004H93.4002H93.4H93.3999H93.3997H93.3995H93.3993H93.3991H93.3989H93.3987H93.3986H93.3984H93.3982H93.398H93.3978H93.3976H93.3974H93.3972H93.3971H93.3969H93.3967H93.3965H93.3963H93.3961H93.3959H93.3958H93.3956H93.3954H93.3952H93.395H93.3948H93.3946H93.3944H93.3943H93.3941H93.3939H93.3937H93.3935H93.3933H93.3932H93.393H93.3928H93.3926H93.3924H93.3922H93.392H93.3918H93.3917H93.3915H93.3913H93.3911H93.3909H93.3907H93.3905H93.3904H93.3902H93.39H93.3898H93.3896H93.3894H93.3892H93.3891H93.3889H93.3887H93.3885H93.3883H93.3881H93.3879H93.3878H93.3876H93.3874H93.3872H93.387H93.3868H93.3866H93.3865H93.3863H93.3861H93.3859H93.3857H93.3855H93.3853H93.3852H93.385H93.3848H93.3846H93.3844H93.3842H93.384H93.3839H93.3837H93.3835H93.3833H93.3831H93.3829H93.3828H93.3826H93.3824H93.3822H93.382H93.3818H93.3816H93.3815H93.3813H93.3811H93.3809H93.3807H93.3805H93.3804H93.3802H93.38H93.3798H93.3796H93.3794H93.3792H93.3791H93.3789H93.3787H93.3785H93.3783H93.3781H93.378H93.3778H93.3776H93.3774H93.3772H93.377H93.3768H93.3767H93.3765H93.3763H93.3761H93.3759H93.3757H93.3756H93.3754H93.3752H93.375H93.3748H93.3746H93.3745H93.3743H93.3741H93.3739H93.3737H93.3735H93.3734H93.3732H93.373H93.3728H93.3726H93.3724H93.3722H93.3721H93.3719H93.3717H93.3715H93.3713H93.3711H93.371H93.3708H93.3706H93.3704H93.3702H93.37H93.3699H93.3697H93.3695H93.3693H93.3691H93.3689H93.3688H93.3686H93.3684H93.3682H93.368H93.3678H93.3677H93.3675H93.3673H93.3671H93.3669H93.3667H93.3666H93.3664H93.3662H93.366H93.3658H93.3657H93.3655H93.3653H93.3651H93.3649H93.3647H93.3646H93.3644H93.3642H93.364H93.3638H93.3636H93.3635H93.3633H93.3631H93.3629H93.3627H93.3625H93.3624H93.3622H93.362H93.3618H93.3616H93.3615H93.3613H93.3611H93.3609H93.3607H93.3605H93.3604H93.3602H93.36H93.3598H93.3596H93.3595H93.3593H93.3591H93.3589H93.3587H93.3586H93.3584H93.3582H93.358H93.3578H93.3576H93.3575H93.3573H93.3571H93.3569H93.3567H93.3566H93.3564H93.3562H93.356H93.3558H93.3557H93.3555H93.3553H93.3551H93.3549H93.3547H93.3546H93.3544H93.3542H93.354H93.3538H93.3537H93.3535H93.3533H93.3531H93.3529H93.3528H93.3526H93.3524H93.3522H93.352H93.3519H93.3517H93.3515H93.3513H93.3511H93.351H93.3508H93.3506H93.3504H93.3502H93.3501H93.3499H93.3497H93.3495H93.3493C86.12 119.325 78.157 115.646 70.4166 110.405C62.6934 105.176 55.3091 98.4727 49.2655 92.358Z" fill="#1E756B" stroke="#292C32" stroke-width="2"/>
<path d="M77.8983 55.5749L78.1038 55.1527L77.9102 54.725C75.9069 50.2985 74.7909 45.382 74.7909 40.2016C74.7909 20.7584 90.5199 5 109.918 5C129.317 5 145.046 20.7584 145.046 40.2016C145.046 59.6448 129.317 75.4032 109.918 75.4032C100.353 75.4032 91.6827 71.5735 85.3469 65.358L85.0256 65.0429L84.5767 65.0743L73.2819 65.8658C73.105 65.8782 72.9738 65.6925 73.0554 65.5248L77.8983 55.5749Z" fill="#292C32" stroke="#292C32" stroke-width="2"/>
<path d="M81.8983 51.5749L82.1038 51.1527L81.9102 50.725C79.9069 46.2985 78.7909 41.382 78.7909 36.2016C78.7909 16.7584 94.5199 1 113.918 1C133.317 1 149.046 16.7584 149.046 36.2016C149.046 55.6448 133.317 71.4032 113.918 71.4032C104.353 71.4032 95.6827 67.5735 89.3469 61.358L89.0256 61.0429L88.5767 61.0743L77.2819 61.8658C77.105 61.8782 76.9738 61.6925 77.0554 61.5248L81.8983 51.5749Z" fill="#FAAC04" stroke="#292C32" stroke-width="2"/>
<path d="M113.034 54.3787C115.263 54.3787 117.07 52.568 117.07 50.3344C117.07 48.1008 115.263 46.2902 113.034 46.2902C110.805 46.2902 108.998 48.1008 108.998 50.3344C108.998 52.568 110.805 54.3787 113.034 54.3787Z" fill="white"/>
<path d="M105.483 32.2561C106.484 32.2561 107.445 31.8865 108.153 31.2287C108.861 30.5709 109.259 29.6786 109.259 28.7483C109.261 28.1164 109.447 27.4968 109.797 26.9551C110.147 26.4133 110.649 25.9694 111.248 25.6704C111.847 25.3714 112.522 25.2282 113.202 25.2562C113.881 25.2841 114.54 25.482 115.108 25.829C115.677 26.1761 116.134 26.6593 116.431 27.2277C116.728 27.7961 116.855 28.4285 116.797 29.0581C116.739 29.6877 116.5 30.2912 116.103 30.8047C115.707 31.3182 115.168 31.7227 114.545 31.9755C112.975 32.6133 111.639 33.6625 110.7 34.9948C109.762 36.327 109.262 37.8845 109.262 39.4766V41.034C109.262 41.9643 109.66 42.8566 110.368 43.5144C111.076 44.1722 112.036 44.5418 113.038 44.5418C114.039 44.5418 115 44.1722 115.708 43.5144C116.416 42.8566 116.814 41.9643 116.814 41.034V39.4766C116.813 39.2485 116.884 39.0253 117.018 38.8344C117.153 38.6434 117.344 38.4931 117.569 38.4018C119.44 37.6425 121.055 36.4276 122.244 34.8854C123.433 33.3433 124.151 31.5313 124.322 29.6412C124.494 27.751 124.112 25.853 123.217 24.1479C122.323 22.4428 120.949 20.994 119.241 19.9547C117.533 18.9155 115.554 18.3245 113.514 18.2442C111.474 18.1639 109.449 18.5973 107.652 19.4986C105.856 20.3999 104.355 21.7356 103.308 23.3643C102.262 24.993 101.708 26.8543 101.707 28.7511C101.708 29.6809 102.106 30.5724 102.814 31.2297C103.522 31.8869 104.482 32.2561 105.483 32.2561Z" fill="white"/>
</g>
<defs>
<clipPath id="clip0">
<rect width="150" height="143" fill="white"/>
</clipPath>
</defs>
</svg>
