<svg width="17" height="17" viewBox="0 0 17 17" fill="none" xmlns="http://www.w3.org/2000/svg">
<path d="M13.377 3.8562H2.90415C1.85252 3.8562 1 4.70872 1 5.76035V13.3769C1 14.4286 1.85252 15.2811 2.90415 15.2811H13.377C14.4286 15.2811 15.2811 14.4286 15.2811 13.3769V5.76035C15.2811 4.70872 14.4286 3.8562 13.377 3.8562Z" stroke="#1E756B" stroke-width="1.5" stroke-linecap="round" stroke-linejoin="round"/>
<path d="M10.5221 3.38018C10.5221 2.74892 10.2713 2.14351 9.82494 1.69714C9.37857 1.25077 8.77317 1 8.1419 1C7.51064 1 6.90523 1.25077 6.45886 1.69714C6.01249 2.14351 5.76172 2.74892 5.76172 3.38018V3.85622H10.5221V3.38018Z" stroke="#1E756B" stroke-width="1.5" stroke-linecap="round" stroke-linejoin="round"/>
</svg>
