<svg width="56" height="56" viewBox="0 0 56 56" fill="none" xmlns="http://www.w3.org/2000/svg">
<rect width="56" height="56" fill="#055F5B"/>
<path d="M34.7526 11H20.3275C19.1798 11 18.0791 11.4559 17.2675 12.2675C16.4559 13.0791 16 14.1798 16 15.3275V41.1945C16 42.3422 16.4559 43.443 17.2675 44.2545C18.0791 45.0661 19.1798 45.522 20.3275 45.522H34.7526C35.9003 45.522 37.001 45.0661 37.8126 44.2545C38.6242 43.443 39.0801 42.3422 39.0801 41.1945V15.3275C39.0801 14.1798 38.6242 13.0791 37.8126 12.2675C37.001 11.4559 35.9003 11 34.7526 11V11ZM27.54 43.3583C27.2547 43.3583 26.9758 43.2737 26.7386 43.1152C26.5014 42.9567 26.3165 42.7314 26.2073 42.4678C26.0982 42.2042 26.0696 41.9142 26.1253 41.6344C26.1809 41.3545 26.3183 41.0975 26.52 40.8958C26.7218 40.694 26.9788 40.5566 27.2586 40.501C27.5384 40.4453 27.8285 40.4739 28.0921 40.5831C28.3556 40.6922 28.5809 40.8771 28.7394 41.1144C28.8979 41.3516 28.9825 41.6305 28.9825 41.9158C28.9825 42.2983 28.8306 42.6653 28.56 42.9358C28.2895 43.2063 27.9226 43.3583 27.54 43.3583ZM36.1951 36.867C36.1951 37.2496 36.0431 37.6165 35.7726 37.887C35.5021 38.1575 35.1351 38.3095 34.7526 38.3095H20.3275C19.9449 38.3095 19.578 38.1575 19.3075 37.887C19.037 37.6165 18.885 37.2496 18.885 36.867V16.0488C18.885 15.6662 19.037 15.2993 19.3075 15.0288C19.578 14.7582 19.9449 14.6063 20.3275 14.6063H34.7526C35.1351 14.6063 35.5021 14.7582 35.7726 15.0288C36.0431 15.2993 36.1951 15.6662 36.1951 16.0488V36.867Z" fill="white"/>
</svg>
