<svg width="122" height="122" viewBox="0 0 122 122" fill="none" xmlns="http://www.w3.org/2000/svg">
<circle cx="60.8496" cy="60.8496" r="60.8496" fill="#F8EDE3"/>
<path d="M58.8401 106.958L58.8553 106.968L58.8707 106.977C59.9278 107.628 61.1804 108.056 62.4722 108.056C62.8005 108.056 63.1497 107.995 63.433 107.893C64.4532 107.772 65.2816 107.338 65.9925 106.911L66.0129 106.899L66.0327 106.886L68.3945 105.312C82.8706 95.6608 96.4647 83.3758 96.4647 59.75V33.0555C96.4647 31.6131 95.5214 30.3243 94.0325 30.0032C94.031 30.0028 94.0296 30.0025 94.0282 30.0022L63.1298 23.1359C62.6914 23.029 62.1788 23.0292 61.7407 23.1365L30.833 30.1479L30.833 30.1479L30.8294 30.1488C29.4548 30.466 28.4082 31.7213 28.4082 33.1986V59.8216C28.4082 83.4486 42.0758 95.7334 56.4765 105.382L56.4784 105.383L58.8401 106.958Z" fill="#292C32" stroke="#292C32" stroke-width="2"/>
<path d="M62.8401 102.958L62.8553 102.968L62.8707 102.977C63.9278 103.628 65.1804 104.056 66.4722 104.056C66.8005 104.056 67.1497 103.995 67.433 103.893C68.4532 103.772 69.2816 103.338 69.9925 102.911L70.0129 102.899L70.0327 102.886L72.3945 101.312C86.8706 91.6608 100.465 79.3758 100.465 55.75V29.0555C100.465 27.6131 99.5214 26.3243 98.0325 26.0032C98.031 26.0028 98.0296 26.0025 98.0282 26.0022L67.1298 19.1359C66.6914 19.029 66.1788 19.0292 65.7407 19.1365L34.833 26.1479L34.833 26.1479L34.8294 26.1488C33.4548 26.466 32.4082 27.7213 32.4082 29.1986V55.8216C32.4082 79.4486 46.0758 91.7334 60.4765 101.382L60.4784 101.383L62.8401 102.958Z" fill="white" stroke="#292C32" stroke-width="2"/>
<path d="M85.4082 53.1809V52.1809H84.4082H72.2832V40.0559V39.0559H71.2832H62.5332H61.5332V40.0559V52.1809H49.4082H48.4082V53.1809V61.9309V62.9309H49.4082H61.5332V75.0559V76.0559H62.5332H71.2832H72.2832V75.0559V62.9309H84.4082H85.4082V61.9309V53.1809Z" fill="#1E756B" stroke="#292C32" stroke-width="2"/>
</svg>
