<svg width="28" height="22" viewBox="0 0 28 22" fill="none" xmlns="http://www.w3.org/2000/svg">
<path d="M25.2089 21C26.4131 21 26.7777 20.2074 26.8435 19.0797C26.8592 18.8113 26.7824 18.5457 26.626 18.327C25.6022 16.8106 24.5013 15.3477 23.3274 13.9443H4.51221C3.34036 15.3479 2.24136 16.8107 1.21954 18.327C1.06314 18.5457 0.986356 18.8113 1.00199 19.0797C1.06785 20.2074 1.43239 21 2.63656 21H25.2089Z" stroke="#055F5B" stroke-width="1.5" stroke-linecap="round" stroke-linejoin="round"/>
<path d="M23.3269 13.9443V2.18478C23.3477 2.02542 23.3317 1.86342 23.2799 1.71126C23.2282 1.5591 23.1422 1.42087 23.0285 1.30723C22.9149 1.19359 22.7767 1.10758 22.6245 1.05584C22.4724 1.0041 22.3103 0.988021 22.151 1.00883H5.55714C4.76102 1.00883 4.51172 1.43805 4.51172 2.18478V13.9443" stroke="#055F5B" stroke-width="1.5" stroke-linecap="round" stroke-linejoin="round"/>
<path d="M10.3906 17.4721H16.2704" stroke="#055F5B" stroke-width="1.5" stroke-linecap="round" stroke-linejoin="round"/>
</svg>
