<svg width="150" height="143" viewBox="0 0 150 143" fill="none" xmlns="http://www.w3.org/2000/svg">
<circle cx="75.3809" cy="71.3809" r="71.3809" fill="#F8EDE3"/>
<path d="M89.0836 35.2688H90.0836V34.2688V26.9188C90.0836 22.2016 86.4509 18.5688 81.7336 18.5688H67.0336C62.3163 18.5688 58.6836 22.2016 58.6836 26.9188V34.2688V35.2688H59.6836H64.5836H65.5836V34.2688V26.9188C65.5836 26.4111 65.7485 26.0657 65.9645 25.8497C66.1804 25.6337 66.5258 25.4688 67.0336 25.4688H81.7336C82.2413 25.4688 82.5868 25.6337 82.8027 25.8497C83.0187 26.0657 83.1836 26.4111 83.1836 26.9188V34.2688V35.2688H84.1836H89.0836ZM35.1828 116.119H113.583C119.525 116.119 124.383 111.261 124.383 105.319V46.5189C124.383 40.5766 119.525 35.7189 113.583 35.7189H35.1828C29.2405 35.7189 24.3828 40.5766 24.3828 46.5189V105.319C24.3828 111.261 29.2405 116.119 35.1828 116.119Z" fill="#292C32" stroke="#292C32" stroke-width="2"/>
<path d="M63.6836 30.2688V31.2688H64.6836H69.5836H70.5836V30.2688V22.9188C70.5836 22.4111 70.7485 22.0657 70.9645 21.8497C71.1804 21.6337 71.5258 21.4688 72.0336 21.4688H86.7336C87.2413 21.4688 87.5868 21.6337 87.8027 21.8497C88.0187 22.0657 88.1836 22.4111 88.1836 22.9188V30.2688V31.2688H89.1836H94.0836H95.0836V30.2688V22.9188C95.0836 18.2016 91.4509 14.5688 86.7336 14.5688H72.0336C67.3163 14.5688 63.6836 18.2016 63.6836 22.9188V30.2688Z" fill="#FAAC04" stroke="#292C32" stroke-width="2"/>
<path d="M40.1828 112.119H118.583C124.525 112.119 129.383 107.261 129.383 101.319V42.5189C129.383 36.5766 124.525 31.7189 118.583 31.7189H40.1828C34.2405 31.7189 29.3828 36.5766 29.3828 42.5189V101.319C29.3828 107.261 34.2405 112.119 40.1828 112.119Z" fill="white" stroke="#292C32" stroke-width="2"/>
<path d="M40.1828 75.3689H118.583C124.525 75.3689 129.383 70.5112 129.383 64.5689V42.5189C129.383 36.5766 124.525 31.7189 118.583 31.7189H40.1828C34.2405 31.7189 29.3828 36.5766 29.3828 42.5189V64.5689C29.3828 70.5112 34.2405 75.3689 40.1828 75.3689Z" fill="#1E756B" stroke="#292C32" stroke-width="2"/>
<path d="M74.4832 68.3688H84.2832C85.2455 68.3688 86.125 68.0437 86.7666 67.4022C87.4081 66.7607 87.7332 65.8811 87.7332 64.9188V60.0188C87.7332 59.0566 87.4081 58.177 86.7666 57.5355C86.125 56.894 85.2455 56.5688 84.2832 56.5688H74.4832C73.521 56.5688 72.6414 56.894 71.9998 57.5355C71.3583 58.177 71.0332 59.0566 71.0332 60.0188V64.9188C71.0332 65.8811 71.3583 66.7607 71.9998 67.4022C72.6414 68.0437 73.521 68.3688 74.4832 68.3688Z" fill="#FAAC04" stroke="#292C32" stroke-width="2"/>
</svg>
