<svg width="150" height="143" viewBox="0 0 150 143" fill="none" xmlns="http://www.w3.org/2000/svg">
<circle cx="75.3809" cy="71.3809" r="71.3809" fill="#F8EDE3"/>
<path d="M110.409 120.569C113.464 120.569 115.939 118.094 115.939 115.039V32.0983C115.939 29.0433 113.464 26.5688 110.409 26.5688H43.4094C40.3544 26.5688 37.8799 29.0433 37.8799 32.0983V37.6277H32.3497C29.2947 37.6277 26.8203 40.1021 26.8203 43.1571V115.039C26.8203 118.094 29.2947 120.569 32.3497 120.569L110.409 120.569Z" fill="#292C32"/>
<g filter="url(#filter0_d)">
<path d="M43.6445 113.569V32.6277H36.3504C33.8477 32.6277 31.821 34.6544 31.821 37.1571V109.039C31.821 111.542 33.8477 113.569 36.3504 113.569H43.6445Z" fill="#FAAC04" stroke="#292C32" stroke-width="2"/>
<path d="M42.8806 109.039C42.8806 110.799 42.1856 112.395 41.055 113.569H114.41C116.913 113.569 118.939 111.542 118.939 109.039V26.0983C118.939 23.5955 116.913 21.5688 114.41 21.5688H47.41C44.9073 21.5688 42.8806 23.5955 42.8806 26.0983V109.039Z" fill="white" stroke="#292C32" stroke-width="2"/>
<rect width="62" height="26" rx="3" transform="matrix(-1 0 0 1 111.939 29.5688)" fill="#1E756B"/>
<line x1="1.5" y1="-1.5" x2="60.5" y2="-1.5" transform="matrix(-1 0 0 1 111.939 69.5688)" stroke="#292C32" stroke-width="3" stroke-linecap="round"/>
<line x1="1.5" y1="-1.5" x2="46.5" y2="-1.5" transform="matrix(-1 0 0 1 97.9395 81.5688)" stroke="#292C32" stroke-width="3" stroke-linecap="round"/>
<line x1="1.5" y1="-1.5" x2="60.5" y2="-1.5" transform="matrix(-1 0 0 1 111.939 93.5688)" stroke="#292C32" stroke-width="3" stroke-linecap="round"/>
</g>
<defs>
<filter id="filter0_d" x="28.8203" y="20.5688" width="91.1195" height="100" filterUnits="userSpaceOnUse" color-interpolation-filters="sRGB">
<feFlood flood-opacity="0" result="BackgroundImageFix"/>
<feColorMatrix in="SourceAlpha" type="matrix" values="0 0 0 0 0 0 0 0 0 0 0 0 0 0 0 0 0 0 127 0"/>
<feOffset dx="-2" dy="6"/>
<feColorMatrix type="matrix" values="0 0 0 0 0.160784 0 0 0 0 0.172549 0 0 0 0 0.196078 0 0 0 1 0"/>
<feBlend mode="normal" in2="BackgroundImageFix" result="effect1_dropShadow"/>
<feBlend mode="normal" in="SourceGraphic" in2="effect1_dropShadow" result="shape"/>
</filter>
</defs>
</svg>
