<svg width="120" height="137" viewBox="0 0 120 137" fill="none" xmlns="http://www.w3.org/2000/svg">
<circle cx="60" cy="69" r="60" fill="#F8EDE3"/>
<rect x="9.21484" y="27.9932" width="53.1829" height="59.617" rx="5" fill="#292C32" stroke="#292C32" stroke-width="2"/>
<rect x="15.2148" y="22.9932" width="53.1829" height="59.617" rx="5" fill="white" stroke="#292C32" stroke-width="2"/>
<rect x="32.7969" y="56.3247" width="18.0151" height="2.02218" rx="1.01109" fill="#292C32"/>
<rect x="25.5273" y="63.5571" width="32.5534" height="2.02218" rx="1.01109" fill="#292C32"/>
<rect x="25.5273" y="69.1021" width="32.5534" height="2.02218" rx="1.01109" fill="#292C32"/>
<rect x="51.8789" y="52.0977" width="53.1829" height="59.617" rx="5" fill="#292C32" stroke="#292C32" stroke-width="2"/>
<rect x="57.8789" y="47.0977" width="53.1829" height="59.617" rx="5" fill="#FAAC04" stroke="#292C32" stroke-width="2"/>
<rect x="75.6172" y="82.3501" width="18.0151" height="2.02218" rx="1.01109" fill="white"/>
<rect x="68.3477" y="89.583" width="32.5534" height="2.02218" rx="1.01109" fill="white"/>
<rect x="68.3477" y="95.1274" width="32.5534" height="2.02218" rx="1.01109" fill="white"/>
<circle cx="84.4673" cy="65.2881" r="12.5064" fill="white"/>
<path d="M84.4719 65.3447C85.2075 65.3449 85.9265 65.1269 86.5382 64.7184C87.1498 64.3098 87.6266 63.7291 87.9081 63.0496C88.1897 62.3701 88.2635 61.6224 88.1201 60.9009C87.9766 60.1795 87.6225 59.5168 87.1025 58.9967C86.5824 58.4765 85.9198 58.1223 85.1984 57.9787C84.477 57.8352 83.7293 57.9088 83.0497 58.1902C82.3702 58.4717 81.7893 58.9483 81.3807 59.5599C80.972 60.1714 80.7539 60.8905 80.7539 61.626C80.7549 62.6118 81.1469 63.557 81.8439 64.2542C82.5409 64.9514 83.4861 65.3436 84.4719 65.3447ZM84.4719 63.8818C84.1331 63.8816 83.7988 63.8051 83.4936 63.658C83.1884 63.5109 82.9202 63.297 82.709 63.0321C82.4978 62.7672 82.349 62.4581 82.2735 62.1278C82.198 61.7976 82.1979 61.4545 82.2732 61.1242C82.2798 61.0957 82.2932 61.0693 82.3122 61.0471C82.3312 61.0248 82.3552 61.0074 82.3822 60.9964C82.4093 60.9853 82.4386 60.9808 82.4677 60.9833C82.4968 60.9858 82.5249 60.9953 82.5496 61.0108C83.7202 61.7511 85.1346 62.0024 86.4886 61.7108C86.5172 61.7047 86.5469 61.7056 86.5751 61.7133C86.6033 61.7211 86.6293 61.7355 86.6508 61.7553C86.6723 61.7752 86.6887 61.7999 86.6986 61.8274C86.7086 61.8549 86.7118 61.8844 86.708 61.9135C86.6377 62.4571 86.3721 62.9565 85.9606 63.3187C85.5492 63.6809 85.0201 63.881 84.4719 63.8818Z" fill="#FAAC04"/>
<path d="M84.4722 66.1655C82.8557 66.1672 81.3058 66.8102 80.1627 67.9533C79.0197 69.0963 78.3767 70.6462 78.375 72.2627C78.375 72.3706 78.4178 72.4739 78.4941 72.5502C78.5703 72.6264 78.6737 72.6692 78.7815 72.6692H90.163C90.2708 72.6692 90.3742 72.6264 90.4504 72.5502C90.5266 72.4739 90.5694 72.3706 90.5694 72.2627C90.5677 70.6462 89.9248 69.0963 88.7817 67.9533C87.6386 66.8102 86.0888 66.1672 84.4722 66.1655ZM83.8625 67.7915C83.8625 67.6297 83.9267 67.4747 84.0411 67.3603C84.1554 67.246 84.3105 67.1817 84.4722 67.1817C84.6339 67.1817 84.789 67.246 84.9034 67.3603C85.0177 67.4747 85.0819 67.6297 85.0819 67.7915V70.2303C85.0819 70.3921 85.0177 70.5471 84.9034 70.6615C84.789 70.7758 84.6339 70.8401 84.4722 70.8401C84.3105 70.8401 84.1554 70.7758 84.0411 70.6615C83.9267 70.5471 83.8625 70.3921 83.8625 70.2303V67.7915Z" fill="#FAAC04"/>
<circle cx="84.6239" cy="61.8597" r="3.03015" fill="#FAAC04"/>
<ellipse cx="84.4732" cy="69.1357" rx="3.36778" ry="2.38034" fill="#FAAC04"/>
<circle cx="41.8072" cy="40.2955" r="12.5064" fill="#1E756B"/>
<path d="M41.8079 39.9263C42.5434 39.9264 43.2625 39.7085 43.8741 39.2999C44.4857 38.8914 44.9625 38.3106 45.2441 37.6311C45.5257 36.9516 45.5994 36.2039 45.456 35.4825C45.3126 34.7611 44.9585 34.0984 44.4384 33.5782C43.9184 33.0581 43.2558 32.7038 42.5344 32.5603C41.813 32.4167 41.0652 32.4903 40.3857 32.7718C39.7061 33.0532 39.1253 33.5299 38.7166 34.1414C38.308 34.753 38.0898 35.472 38.0898 36.2075C38.0908 37.1934 38.4828 38.1386 39.1799 38.8358C39.8769 39.5329 40.822 39.9251 41.8079 39.9263ZM41.8079 38.4634C41.4691 38.4631 41.1347 38.3866 40.8295 38.2395C40.5243 38.0924 40.2562 37.8785 40.045 37.6136C39.8338 37.3487 39.6849 37.0397 39.6094 36.7094C39.534 36.3791 39.5339 36.0361 39.6091 35.7057C39.6158 35.6773 39.6292 35.6508 39.6481 35.6286C39.6671 35.6064 39.6911 35.589 39.7182 35.5779C39.7452 35.5668 39.7745 35.5623 39.8036 35.5649C39.8327 35.5674 39.8608 35.5768 39.8856 35.5924C41.0562 36.3326 42.4705 36.584 43.8245 36.2924C43.8531 36.2863 43.8828 36.2871 43.911 36.2949C43.9392 36.3026 43.9652 36.317 43.9867 36.3369C44.0082 36.3567 44.0246 36.3814 44.0346 36.409C44.0445 36.4365 44.0478 36.466 44.044 36.495C43.9736 37.0386 43.708 37.5381 43.2966 37.9002C42.8851 38.2624 42.356 38.4626 41.8079 38.4634Z" fill="white"/>
<path d="M41.8082 40.7471C40.1916 40.7488 38.6418 41.3917 37.4987 42.5348C36.3556 43.6779 35.7127 45.2277 35.7109 46.8443C35.7109 46.9521 35.7538 47.0555 35.83 47.1317C35.9062 47.2079 36.0096 47.2508 36.1174 47.2508H47.4989C47.6067 47.2508 47.7101 47.2079 47.7863 47.1317C47.8626 47.0555 47.9054 46.9521 47.9054 46.8443C47.9037 45.2277 47.2607 43.6779 46.1176 42.5348C44.9746 41.3917 43.4247 40.7488 41.8082 40.7471ZM41.1984 42.373C41.1984 42.2113 41.2627 42.0562 41.377 41.9419C41.4914 41.8275 41.6465 41.7633 41.8082 41.7633C41.9699 41.7633 42.125 41.8275 42.2393 41.9419C42.3536 42.0562 42.4179 42.2113 42.4179 42.373V44.8119C42.4179 44.9736 42.3536 45.1287 42.2393 45.243C42.125 45.3574 41.9699 45.4216 41.8082 45.4216C41.6465 45.4216 41.4914 45.3574 41.377 45.243C41.2627 45.1287 41.1984 44.9736 41.1984 44.8119V42.373Z" fill="white"/>
<circle cx="41.9598" cy="36.4413" r="3.03015" fill="white"/>
<ellipse cx="41.8092" cy="43.7173" rx="3.36778" ry="2.38034" fill="white"/>
</svg>
