<svg width="23" height="28" viewBox="0 0 23 28" fill="none" xmlns="http://www.w3.org/2000/svg">
<path d="M22 26.5H11.5L11.5 11C11.5 10.7348 11.6054 10.4804 11.7929 10.2929C11.9804 10.1054 12.2348 10 12.5 10H21C21.2652 10 21.5196 10.1054 21.7071 10.2929C21.8946 10.4804 22 10.7348 22 11L22 26.5Z" stroke="#A0A2A7" stroke-width="1.5" stroke-linecap="round" stroke-linejoin="round"/>
<path d="M11.5 26.5H1V2.5C1 2.10218 1.15804 1.72065 1.43934 1.43934C1.72064 1.15804 2.10218 1 2.5 1H14.5C14.8978 1 15.2794 1.15804 15.5607 1.43934C15.842 1.72065 16 2.10218 16 2.5V10" stroke="#A0A2A7" stroke-width="1.5" stroke-linecap="round" stroke-linejoin="round"/>
<path d="M5.5 10H1" stroke="#A0A2A7" stroke-width="1.5" stroke-linecap="round" stroke-linejoin="round"/>
<path d="M5.5 16H1" stroke="#A0A2A7" stroke-width="1.5" stroke-linecap="round" stroke-linejoin="round"/>
</svg>
