<svg width="122" height="122" viewBox="0 0 122 122" fill="none" xmlns="http://www.w3.org/2000/svg">
<circle cx="60.8496" cy="60.8496" r="60.8496" fill="#F8EDE3"/>
<path d="M52.2465 38.4195H53.2465V37.4195V29.239H65.0174V37.4195V38.4195H66.0174H68.3125C70.1317 38.4195 71.6076 36.9436 71.6076 35.1244V28.239C71.6076 25.1505 69.1058 22.6487 66.0174 22.6487H52.2465C49.1581 22.6487 46.6562 25.1505 46.6562 28.239V35.1244C46.6562 36.9436 48.1322 38.4195 49.9514 38.4195H52.2465Z" fill="#292C32" stroke="#292C32" stroke-width="2"/>
<path d="M31.5905 30.5341H24.7051V32.8292H20.1157C17.5795 32.8292 15.5254 34.8834 15.5254 37.4195V92.5028C15.5254 95.039 17.5795 97.0931 20.1157 97.0931H98.1504C100.687 97.0931 102.741 95.039 102.741 92.5028V37.4195C102.741 34.8834 100.687 32.8292 98.1504 32.8292L93.5592 32.8293V30.5341H86.6738V32.8293L31.5905 32.8292V30.5341Z" fill="#292C32"/>
<path d="M57.2446 34.4195H58.2446V33.4195V25.239H70.0154V33.4195V34.4195H71.0154H73.3106C75.1298 34.4195 76.6057 32.9436 76.6057 31.1244V24.239C76.6057 21.1505 74.1038 18.6487 71.0154 18.6487H57.2446C54.1562 18.6487 51.6543 21.1505 51.6543 24.239V31.1244C51.6543 32.9436 53.1302 34.4195 54.9494 34.4195H57.2446Z" fill="#FAAC04" stroke="#292C32" stroke-width="2"/>
<path d="M25.1137 29.8292H103.148C105.132 29.8292 106.739 31.4356 106.739 33.4195V88.5028C106.739 90.4867 105.132 92.0931 103.148 92.0931H25.1137C23.1299 92.0931 21.5234 90.4867 21.5234 88.5028V33.4195C21.5234 31.4356 23.1299 29.8292 25.1137 29.8292Z" fill="white" stroke="#292C32" stroke-width="2"/>
<path d="M29.7031 26.5341H36.5885V28.8292H29.7031V26.5341ZM91.6719 26.5341H98.5573V28.8292H91.6719V26.5341Z" fill="#292C32"/>
<path d="M38.8848 28.8292H43.475V93.0931H38.8848V28.8292ZM84.7875 28.8292H89.3778V93.0931H84.7875V28.8292Z" fill="#292C32"/>
<path d="M61.8349 37.0098C59.1348 37.0098 56.5453 38.0824 54.6361 39.9916C52.7269 41.9008 51.6543 44.4903 51.6543 47.1904C51.6543 49.8904 52.7269 52.4799 54.6361 54.3891C56.5453 56.2983 59.1348 57.3709 61.8349 57.3709C64.5349 57.3709 67.1244 56.2983 69.0336 54.3891C70.9428 52.4799 72.0154 49.8904 72.0154 47.1904C72.0154 44.4903 70.9428 41.9008 69.0336 39.9916C67.1244 38.0824 64.5349 37.0098 61.8349 37.0098Z" fill="#1E756B" stroke="#292C32" stroke-width="2"/>
<path d="M101.313 67.5522L102.22 67.082L101.731 66.1858L96.1169 55.8921L95.6478 55.032L94.7782 55.4834L65.965 70.4408L65.059 70.9111L65.5479 71.8073L71.1619 82.0964L71.631 82.9562L72.5003 82.505L101.313 67.5522Z" fill="#FAAC04" stroke="#292C32" stroke-width="2"/>
</svg>
