<svg width="131" height="137" viewBox="0 0 131 137" fill="none" xmlns="http://www.w3.org/2000/svg">
<ellipse cx="67.4979" cy="68.5" rx="52.3924" ry="52.5" fill="#F8EDE3"/>
<path d="M71.2373 95.8199L71.4428 95.3977L71.2491 94.9699C69.5877 91.2993 68.6619 87.2222 68.6619 82.9257C68.6619 66.8034 81.7043 53.7373 97.7885 53.7373C113.873 53.7373 126.915 66.8034 126.915 82.9257C126.915 99.0479 113.873 112.114 97.7885 112.114C89.8576 112.114 82.6685 108.939 77.4149 103.785L77.0936 103.47L76.6447 103.501L67.1755 104.165L71.2373 95.8199Z" fill="#292C32" stroke="#292C32" stroke-width="2"/>
<path d="M74.3193 92.7308L74.5248 92.3086L74.3312 91.8808C72.6697 88.2102 71.744 84.1331 71.744 79.8366C71.744 63.7143 84.7863 50.6482 100.87 50.6482C116.955 50.6482 129.997 63.7143 129.997 79.8366C129.997 95.9588 116.955 109.025 100.87 109.025C92.9397 109.025 85.7505 105.85 80.4969 100.696L80.1756 100.381L79.7267 100.412L70.2575 101.076L74.3193 92.7308Z" fill="white" stroke="#292C32" stroke-width="2"/>
<ellipse cx="88.7801" cy="80.609" rx="3.3465" ry="3.35336" fill="#1E756B"/>
<ellipse cx="101.819" cy="80.609" rx="3.34649" ry="3.35336" fill="#1E756B"/>
<ellipse cx="113.704" cy="80.609" rx="3.34649" ry="3.35336" fill="#1E756B"/>
<path d="M57.5838 64.7817L57.3902 65.2095L57.5957 65.6317L61.6574 73.9766L52.1883 73.3131L51.7393 73.2816L51.4181 73.5968C46.1645 78.7506 38.9753 81.9258 31.0445 81.9258C14.9603 81.9258 1.91797 68.8597 1.91797 52.7374C1.91797 36.6152 14.9603 23.5491 31.0445 23.5491C47.1287 23.5491 60.171 36.6152 60.171 52.7374C60.171 57.034 59.2453 61.1111 57.5838 64.7817ZM61.7376 73.9822L61.7375 73.9822C61.7375 73.9822 61.7376 73.9822 61.7376 73.9822Z" fill="#292C32" stroke="#292C32" stroke-width="2"/>
<path d="M60.6678 61.6926L60.4742 62.1203L60.6797 62.5426L64.7414 70.8875L55.2723 70.224L54.8233 70.1925L54.5021 70.5077C49.2484 75.6615 42.0593 78.8367 34.1285 78.8367C18.0443 78.8367 5.00195 65.7705 5.00195 49.6483C5.00195 33.5261 18.0443 20.46 34.1285 20.46C50.2127 20.46 63.255 33.5261 63.255 49.6483C63.255 53.9449 62.3293 58.022 60.6678 61.6926Z" fill="#FAAC04" stroke="#292C32" stroke-width="2"/>
<path d="M32.6195 65.1657C34.4783 65.1657 35.9851 63.6557 35.9851 61.7932C35.9851 59.9306 34.4783 58.4207 32.6195 58.4207C30.7607 58.4207 29.2539 59.9306 29.2539 61.7932C29.2539 63.6557 30.7607 65.1657 32.6195 65.1657Z" fill="white"/>
<path d="M26.3245 46.7178C27.1596 46.7178 27.9604 46.4096 28.5509 45.861C29.1414 45.3124 29.4732 44.5684 29.4732 43.7926C29.4752 43.2657 29.6303 42.749 29.9223 42.2972C30.2142 41.8455 30.6321 41.4753 31.1318 41.226C31.6314 40.9766 32.1943 40.8572 32.761 40.8805C33.3277 40.9038 33.877 41.0689 34.351 41.3583C34.8251 41.6476 35.2061 42.0506 35.454 42.5246C35.7019 42.9985 35.8073 43.5259 35.7592 44.0509C35.7111 44.576 35.5112 45.0792 35.1807 45.5074C34.8501 45.9356 34.4012 46.273 33.8814 46.4837C32.5719 47.0156 31.4578 47.8906 30.6754 49.0015C29.8929 50.1125 29.476 51.4112 29.4757 52.7389V54.0376C29.4757 54.8134 29.8074 55.5574 30.3979 56.106C30.9884 56.6546 31.7893 56.9628 32.6244 56.9628C33.4595 56.9628 34.2604 56.6546 34.8509 56.106C35.4414 55.5574 35.7731 54.8134 35.7731 54.0376V52.7389C35.7726 52.5487 35.832 52.3626 35.9439 52.2034C36.0558 52.0441 36.2153 51.9187 36.4028 51.8426C37.9631 51.2095 39.3102 50.1963 40.3016 48.9103C41.293 47.6244 41.8918 46.1134 42.0346 44.5372C42.1775 42.961 41.8592 41.3782 41.1132 39.9563C40.3673 38.5344 39.2216 37.3263 37.7972 36.4597C36.3728 35.5931 34.7228 35.1002 33.0217 35.0333C31.3206 34.9663 29.6316 35.3277 28.1334 36.0793C26.6353 36.8309 25.3836 37.9447 24.5109 39.3029C23.6382 40.6611 23.1769 42.2132 23.1758 43.795C23.1764 44.5703 23.5085 45.3138 24.0989 45.8618C24.6893 46.4099 25.4898 46.7178 26.3245 46.7178Z" fill="white"/>
</svg>
