<svg width="384" height="264" viewBox="0 0 384 264" fill="none" xmlns="http://www.w3.org/2000/svg">
<mask id="mask0" mask-type="alpha" maskUnits="userSpaceOnUse" x="0" y="0" width="384" height="264">
<path d="M0 0H384V264H0V0Z" fill="#C4C4C4"/>
</mask>
<g mask="url(#mask0)">
<rect width="650.457" height="445.961" transform="matrix(-1 0 0 1 544.797 -17.3857)" fill="#E9F8F7"/>
</g>
<rect x="99.5" y="63.5" width="172.067" height="138" rx="4.17785" fill="#292C32" stroke="#292C32" stroke-width="3"/>
<rect x="105.5" y="58.5" width="172.067" height="138" rx="4.17785" fill="white" stroke="#292C32" stroke-width="3"/>
<line x1="131.915" y1="76.8726" x2="131.915" y2="180.967" stroke="#FAAC04" stroke-width="0.946309"/>
<line x1="262.033" y1="131.285" x2="116.302" y2="131.285" stroke="#FAAC04" stroke-width="0.946309"/>
<line x1="262.033" y1="93.4329" x2="116.302" y2="93.4329" stroke="#FAAC04" stroke-width="0.946309"/>
<line x1="266.764" y1="169.138" x2="121.032" y2="169.138" stroke="#FAAC04" stroke-width="0.946309"/>
<line x1="169.768" y1="76.8726" x2="169.768" y2="180.967" stroke="#FAAC04" stroke-width="0.946309"/>
<line x1="207.62" y1="76.8726" x2="207.62" y2="180.967" stroke="#FAAC04" stroke-width="0.946309"/>
<line x1="245.471" y1="76.8726" x2="245.471" y2="180.967" stroke="#FAAC04" stroke-width="0.946309"/>
<path d="M125.766 170.557C140.073 113.882 168.335 119.191 197.322 129.316C230.494 140.901 251.247 96.902 256.356 83.4966" stroke="#1E756B" stroke-width="2.83893" stroke-linecap="round" stroke-linejoin="round"/>
<path d="M304.592 162.068L304.592 162.068C304.683 155.375 299.288 149.826 292.593 149.732L201.329 148.444C201.329 148.444 201.329 148.444 201.329 148.444C194.63 148.348 189.082 153.744 188.991 160.438L188.424 201.022L188.424 201.022C188.333 207.715 193.727 213.264 200.422 213.358C200.422 213.358 200.422 213.358 200.422 213.358L291.686 214.646L291.687 214.646C298.381 214.74 303.93 209.348 304.024 202.653L304.024 202.652L304.592 162.068Z" fill="#292C32" stroke="#292C32" stroke-width="3"/>
<path d="M308.594 157.068L308.594 157.068C308.685 150.375 303.29 144.826 296.595 144.732L205.331 143.444C205.331 143.444 205.331 143.444 205.331 143.444C198.632 143.348 193.084 148.744 192.993 155.438L192.426 196.022L192.426 196.022C192.335 202.715 197.729 208.264 204.424 208.358C204.424 208.358 204.424 208.358 204.424 208.358L295.688 209.646L295.688 209.646C302.383 209.74 307.932 204.348 308.026 197.653L308.026 197.652L308.594 157.068Z" fill="#1E756B" stroke="#292C32" stroke-width="3"/>
<path d="M246.371 192.041C248.407 192.586 250.53 192.726 252.619 192.451C254.708 192.176 256.723 191.492 258.548 190.439C260.373 189.386 261.973 187.984 263.255 186.312C264.538 184.641 265.479 182.733 266.024 180.698C266.57 178.663 266.709 176.541 266.433 174.452C266.158 172.363 265.474 170.349 264.42 168.524C263.366 166.7 261.963 165.1 260.291 163.818C258.619 162.535 256.711 161.594 254.676 161.049C252.64 160.503 250.517 160.364 248.428 160.639C246.338 160.914 244.324 161.597 242.499 162.651C240.674 163.704 239.074 165.106 237.791 166.777C236.509 168.449 235.568 170.356 235.022 172.391C234.477 174.426 234.338 176.549 234.613 178.638C234.889 180.727 235.573 182.741 236.627 184.565C237.681 186.39 239.084 187.989 240.755 189.272C242.427 190.554 244.336 191.495 246.371 192.041Z" fill="#FAAC04" stroke="#292C32" stroke-width="2.5"/>
<path d="M277.793 183.449C279.31 183.856 280.927 183.644 282.287 182.859C283.648 182.074 284.641 180.78 285.047 179.263C285.454 177.746 285.241 176.13 284.455 174.77C283.669 173.41 282.375 172.417 280.858 172.011C279.341 171.604 277.724 171.817 276.363 172.602C275.003 173.387 274.01 174.68 273.604 176.197C273.197 177.714 273.41 179.33 274.196 180.69C274.982 182.051 276.276 183.043 277.793 183.449Z" fill="#FAAC04" stroke="#292C32" stroke-width="2.5"/>
<path d="M220.162 182.632C221.679 183.039 223.296 182.826 224.657 182.041C226.017 181.256 227.01 179.963 227.416 178.446C227.823 176.929 227.61 175.313 226.824 173.953C226.038 172.593 224.744 171.6 223.227 171.194C221.71 170.787 220.093 171 218.733 171.785C217.372 172.57 216.379 173.863 215.973 175.38C215.566 176.897 215.779 178.513 216.565 179.873C217.351 181.233 218.645 182.226 220.162 182.632Z" fill="#FAAC04" stroke="#292C32" stroke-width="2.5"/>
</svg>
