<svg width="384" height="264" viewBox="0 0 384 264" fill="none" xmlns="http://www.w3.org/2000/svg">
<mask id="mask0" mask-type="alpha" maskUnits="userSpaceOnUse" x="0" y="0" width="384" height="264">
<path d="M0 0H384V264H0V0Z" fill="#C4C4C4"/>
</mask>
<g mask="url(#mask0)">
<path d="M-191.23 -77.4175H575.95V433.598H-191.23V-77.4175Z" fill="#E9F8F7"/>
</g>
<path d="M103.215 67.4019H257.987C263.406 67.4019 267.8 71.7953 267.8 77.2149V214.554C267.8 219.974 263.407 224.367 257.987 224.367H103.215C97.7953 224.367 93.4019 219.974 93.4019 214.554V77.2149C93.4019 71.7953 97.7953 67.4019 103.215 67.4019Z" fill="#292C32" stroke="#292C32" stroke-width="2.80373"/>
<path d="M111.215 60.4019H265.987C271.406 60.4019 275.8 64.7953 275.8 70.2149V207.554C275.8 212.974 271.407 217.367 265.987 217.367H111.215C105.795 217.367 101.402 212.974 101.402 207.554V70.2149C101.402 64.7953 105.795 60.4019 111.215 60.4019Z" fill="white" stroke="#292C32" stroke-width="2.80373"/>
<line x1="114.31" y1="149.773" x2="262.887" y2="149.773" stroke="#292C32" stroke-width="2.80373" stroke-linecap="round"/>
<line x1="133.675" y1="92.0862" x2="133.675" y2="164.941" stroke="#292C32" stroke-width="2.80373" stroke-linecap="round"/>
<line x1="159.539" y1="92.0862" x2="159.539" y2="164.941" stroke="#292C32" stroke-width="2.80373" stroke-linecap="round"/>
<line x1="185.402" y1="92.0862" x2="185.402" y2="177.383" stroke="#292C32" stroke-width="2.80373" stroke-linecap="round"/>
<line x1="211.265" y1="92.0862" x2="211.265" y2="192.969" stroke="#292C32" stroke-width="2.80373" stroke-linecap="round"/>
<line x1="237.126" y1="92.0862" x2="237.126" y2="169.917" stroke="#292C32" stroke-width="2.80373" stroke-linecap="round"/>
<rect x="124.666" y="114.276" width="18.5479" height="12.7427" rx="1.40187" fill="#1E756B"/>
<rect x="150.529" y="104.088" width="18.5479" height="32.4167" rx="1.40187" fill="#FAAC04"/>
<rect x="176.393" y="131.59" width="18.5479" height="32.4167" rx="1.40187" fill="#1E756B"/>
<rect x="202.256" y="121.809" width="18.5479" height="58.7307" rx="1.40187" fill="#FAAC04"/>
<rect x="228.115" y="102.15" width="18.5479" height="24.8684" rx="1.40187" fill="#1E756B"/>
</svg>
