<svg width="384" height="264" viewBox="0 0 384 264" fill="none" xmlns="http://www.w3.org/2000/svg">
<mask id="mask0" mask-type="alpha" maskUnits="userSpaceOnUse" x="0" y="0" width="384" height="264">
<path d="M0 0H384V264H0V0Z" fill="#C4C4C4"/>
</mask>
<g mask="url(#mask0)">
<rect width="650.457" height="445.961" transform="matrix(-1 0 0 1 544.797 -17.3857)" fill="#E9F8F7"/>
</g>
<path d="M105 210.32C105 198.943 114.223 189.719 125.601 189.719H229.611V230.921H125.601C114.223 230.921 105 221.698 105 210.32V210.32Z" fill="#292C32"/>
<path d="M123.393 187.542V74.8835C123.393 67.2641 129.568 61.0886 137.187 61.0886H242.948C250.568 61.0886 256.743 67.2641 256.743 74.8835V209.641C256.743 220.447 248.843 230.099 238.088 231.129C225.746 232.306 215.359 222.632 215.359 210.533C215.359 200.684 222.238 192.444 231.453 190.356" fill="#292C32"/>
<path d="M123.393 187.542V74.8835C123.393 67.2641 129.568 61.0886 137.187 61.0886H242.948C250.568 61.0886 256.743 67.2641 256.743 74.8835V209.641C256.743 220.447 248.843 230.099 238.088 231.129C225.746 232.306 215.359 222.632 215.359 210.533C215.359 200.684 222.238 192.444 231.453 190.356" stroke="#292C32" stroke-width="3" stroke-linecap="round" stroke-linejoin="round"/>
<path d="M238.351 231.129L125.725 231.157C114.289 231.194 105 221.937 105 210.501V210.533C105 199.125 114.247 189.841 125.66 189.841H132.59H233.752" stroke="#292C32" stroke-width="2.66364" stroke-linecap="round" stroke-linejoin="round"/>
<path d="M114 201.32C114 189.943 123.223 180.719 134.601 180.719H238.611V221.921H134.601C123.223 221.921 114 212.698 114 201.32V201.32Z" fill="white"/>
<path d="M132.393 178.542V65.8835C132.393 58.2641 138.568 52.0886 146.187 52.0886H251.948C259.568 52.0886 265.743 58.2641 265.743 65.8835V200.641C265.743 211.447 257.843 221.099 247.088 222.129C234.746 223.306 224.359 213.632 224.359 201.533C224.359 191.684 231.238 183.444 240.453 181.356" fill="white"/>
<path d="M132.393 178.542V65.8835C132.393 58.2641 138.568 52.0886 146.187 52.0886H251.948C259.568 52.0886 265.743 58.2641 265.743 65.8835V200.641C265.743 211.447 257.843 221.099 247.088 222.129C234.746 223.306 224.359 213.632 224.359 201.533C224.359 191.684 231.238 183.444 240.453 181.356" stroke="#292C32" stroke-width="3" stroke-linecap="round" stroke-linejoin="round"/>
<path d="M247.351 222.129L134.725 222.157C123.289 222.194 114 212.937 114 201.501V201.533C114 190.125 123.247 180.841 134.66 180.841H141.59H242.752" stroke="#292C32" stroke-width="2.66364" stroke-linecap="round" stroke-linejoin="round"/>
<rect x="149.5" y="104.672" width="99.8389" height="35.5236" rx="5.77121" fill="#FAAC04" stroke="#292C32" stroke-width="2.66364"/>
<circle cx="246.672" cy="67.1429" r="27.8111" fill="#292C32" stroke="#292C32" stroke-width="2.66364"/>
<circle cx="250.672" cy="63.1429" r="27.8111" fill="#1E756B" stroke="#292C32" stroke-width="2.66364"/>
<line x1="149.5" y1="155.269" x2="249.339" y2="155.269" stroke="#292C32" stroke-width="2.66364" stroke-linecap="round"/>
<line x1="149.5" y1="168.333" x2="233.26" y2="168.333" stroke="#292C32" stroke-width="2.66364" stroke-linecap="round"/>
<path d="M263.733 54.0986L244.948 73.1922L236.6 64.7062" stroke="white" stroke-width="4.43939" stroke-miterlimit="10" stroke-linecap="square"/>
<path d="M159.738 67.6321V64.1477" stroke="#055F5B" stroke-width="3.55152" stroke-linecap="round" stroke-linejoin="round"/>
<path d="M164.949 67.6321H157.879C156.791 67.6286 155.736 68.0049 154.896 68.696C154.055 69.3871 153.483 70.3498 153.276 71.4179C153.07 72.4861 153.243 73.5928 153.765 74.5472C154.287 75.5017 155.126 76.244 156.137 76.6461L163.325 79.5242C164.332 79.9295 165.167 80.6725 165.686 81.6259C166.205 82.5793 166.376 83.6837 166.17 84.7496C165.964 85.8155 165.394 86.7765 164.557 87.4678C163.72 88.159 162.668 88.5375 161.583 88.5383H154.496" stroke="#1E756B" stroke-width="3.55152" stroke-linecap="round" stroke-linejoin="round"/>
<path d="M159.738 92.0227V88.5383" stroke="#1E756B" stroke-width="3.55152" stroke-linecap="round" stroke-linejoin="round"/>
</svg>
