<svg width="384" height="264" viewBox="0 0 384 264" fill="none" xmlns="http://www.w3.org/2000/svg">
<mask id="mask0" mask-type="alpha" maskUnits="userSpaceOnUse" x="0" y="0" width="384" height="264">
<path d="M0 0H384V264H0V0Z" fill="#C4C4C4"/>
</mask>
<g mask="url(#mask0)">
<rect width="650.457" height="445.961" transform="matrix(-1 0 0 1 544.797 -17.3857)" fill="#E9F8F7"/>
</g>
<path d="M224.358 134.5C224.358 154.303 208.305 170.357 188.501 170.357C168.698 170.357 152.645 154.303 152.645 134.5C152.645 114.697 168.698 98.6433 188.501 98.6433C208.305 98.6433 224.358 114.697 224.358 134.5Z" fill="#292C32"/>
<path fill-rule="evenodd" clip-rule="evenodd" d="M188.501 168.598C207.333 168.598 222.6 153.332 222.6 134.5C222.6 115.668 207.333 100.402 188.501 100.402C169.67 100.402 154.403 115.668 154.403 134.5C154.403 153.332 169.67 168.598 188.501 168.598ZM188.501 170.357C208.305 170.357 224.358 154.303 224.358 134.5C224.358 114.697 208.305 98.6433 188.501 98.6433C168.698 98.6433 152.645 114.697 152.645 134.5C152.645 154.303 168.698 170.357 188.501 170.357Z" fill="#292C32"/>
<path d="M227.358 131.5C227.358 151.303 211.305 167.357 191.501 167.357C171.698 167.357 155.645 151.303 155.645 131.5C155.645 111.697 171.698 95.6433 191.501 95.6433C211.305 95.6433 227.358 111.697 227.358 131.5Z" fill="#FAAC04"/>
<path fill-rule="evenodd" clip-rule="evenodd" d="M191.501 165.598C210.333 165.598 225.6 150.332 225.6 131.5C225.6 112.668 210.333 97.4021 191.501 97.4021C172.67 97.4021 157.403 112.668 157.403 131.5C157.403 150.332 172.67 165.598 191.501 165.598ZM191.501 167.357C211.305 167.357 227.358 151.303 227.358 131.5C227.358 111.697 211.305 95.6433 191.501 95.6433C171.698 95.6433 155.645 111.697 155.645 131.5C155.645 151.303 171.698 167.357 191.501 167.357Z" fill="#292C32"/>
<path fill-rule="evenodd" clip-rule="evenodd" d="M189.149 114.399L199.061 114.399C200.572 114.399 201.796 115.624 201.796 117.134C201.796 118.645 200.572 119.87 199.061 119.87H189.152C188.269 119.87 187.413 120.178 186.732 120.741C186.051 121.304 185.586 122.086 185.419 122.953C185.251 123.821 185.39 124.72 185.813 125.496C186.235 126.271 186.914 126.876 187.733 127.206C187.734 127.206 187.734 127.207 187.735 127.207L197.796 131.233C199.794 132.037 201.45 133.511 202.48 135.403C203.51 137.294 203.85 139.485 203.441 141.6C203.032 143.714 201.901 145.621 200.24 146.992C198.579 148.364 196.493 149.115 194.339 149.116H184.438C182.927 149.116 181.702 147.891 181.702 146.381C181.702 144.87 182.927 143.646 184.438 143.646H194.336C195.219 143.645 196.075 143.337 196.757 142.774C197.438 142.211 197.902 141.429 198.07 140.562C198.238 139.694 198.098 138.795 197.676 138.019C197.253 137.244 196.575 136.639 195.756 136.309C195.755 136.309 195.754 136.309 195.754 136.308L185.693 132.282C183.695 131.478 182.039 130.004 181.009 128.112C179.979 126.221 179.639 124.03 180.047 121.915C180.456 119.801 181.588 117.894 183.249 116.523C184.909 115.151 186.995 114.4 189.149 114.399Z" fill="#292C32"/>
<path fill-rule="evenodd" clip-rule="evenodd" d="M191.749 108.844C193.26 108.844 194.484 110.069 194.484 111.58L194.484 117.134C194.484 118.645 193.26 119.87 191.749 119.87C190.238 119.87 189.014 118.645 189.014 117.134L189.014 111.58C189.014 110.069 190.238 108.844 191.749 108.844Z" fill="#292C32"/>
<path fill-rule="evenodd" clip-rule="evenodd" d="M191.749 143.646C193.26 143.646 194.484 144.87 194.484 146.381V151.421C194.484 152.931 193.26 154.156 191.749 154.156C190.238 154.156 189.014 152.931 189.014 151.421V146.381C189.014 144.87 190.238 143.646 191.749 143.646Z" fill="#292C32"/>
<path d="M137.801 200.515C136.196 202.614 133.183 203.025 131.175 201.306C120.333 192.026 111.931 180.192 106.749 166.841C100.99 152 99.4309 135.859 102.245 120.191C105.058 104.522 112.135 89.9318 122.699 78.0223C132.202 67.3082 144.195 59.1365 157.589 54.2082C160.069 53.2956 162.751 54.7289 163.526 57.2557L172.488 86.505C173.262 89.0318 171.829 91.6851 169.395 92.7151C163.042 95.4035 157.349 99.4815 152.745 104.672C147.079 111.06 143.283 118.885 141.774 127.289C140.265 135.693 141.101 144.35 144.19 152.31C146.701 158.778 150.62 164.582 155.641 169.313C157.564 171.125 157.985 174.111 156.38 176.211L137.801 200.515Z" fill="#292C32"/>
<path fill-rule="evenodd" clip-rule="evenodd" d="M109.546 165.755C114.548 178.644 122.659 190.068 133.126 199.027C133.742 199.555 134.79 199.513 135.417 198.693L153.996 174.389C154.554 173.66 154.53 172.388 153.583 171.496C148.239 166.46 144.066 160.281 141.394 153.395C138.105 144.921 137.215 135.705 138.821 126.759C140.428 117.812 144.469 109.482 150.5 102.681C155.401 97.1557 161.463 92.8143 168.226 89.9523C169.424 89.4452 169.889 88.261 169.62 87.3839L160.657 58.1347C160.355 57.1474 159.386 56.7436 158.625 57.0236C145.695 61.7813 134.117 69.67 124.943 80.013C114.745 91.51 107.913 105.595 105.197 120.721C102.481 135.847 103.986 151.429 109.546 165.755ZM131.175 201.306C133.183 203.025 136.196 202.614 137.801 200.515L156.38 176.211C157.985 174.111 157.564 171.125 155.641 169.313C150.62 164.582 146.701 158.778 144.19 152.31C141.101 144.35 140.265 135.693 141.774 127.289C143.283 118.885 147.079 111.06 152.745 104.672C157.349 99.4815 163.042 95.4035 169.395 92.7151C171.829 91.6851 173.262 89.0318 172.488 86.505L163.526 57.2557C162.751 54.7289 160.069 53.2956 157.589 54.2082C144.195 59.1365 132.202 67.3082 122.699 78.0223C112.135 89.9318 105.058 104.522 102.245 120.191C99.4309 135.859 100.99 152 106.749 166.841C111.931 180.192 120.333 192.026 131.175 201.306Z" fill="#292C32"/>
<path d="M177.653 54.2591C177.335 51.6356 179.205 49.2371 181.842 49.0644C200.856 47.8193 219.802 52.8796 235.707 63.5338C251.612 74.1881 263.501 89.7834 269.585 107.841C270.429 110.345 268.922 112.987 266.375 113.691L236.89 121.844C234.343 122.548 231.73 121.042 230.767 118.58C227.327 109.781 221.268 102.201 213.355 96.9012C205.443 91.6011 196.128 88.8821 186.681 89.0486C184.039 89.0951 181.652 87.2521 181.334 84.6286L177.653 54.2591Z" fill="#292C32"/>
<path fill-rule="evenodd" clip-rule="evenodd" d="M234.037 66.0263C218.683 55.741 200.393 50.856 182.038 52.058C181.228 52.111 180.507 52.8734 180.631 53.8982L184.312 84.2676C184.422 85.1781 185.328 86.072 186.629 86.049C196.685 85.8718 206.602 88.7664 215.025 94.4088C223.448 100.051 229.899 108.121 233.561 117.488C234.035 118.7 235.206 119.197 236.09 118.952L265.576 110.8C266.571 110.524 267.001 109.568 266.742 108.799C260.869 91.3667 249.392 76.3115 234.037 66.0263ZM181.842 49.0644C179.205 49.2371 177.335 51.6356 177.653 54.2591L181.334 84.6286C181.652 87.2521 184.039 89.0951 186.681 89.0486C196.128 88.8821 205.443 91.6011 213.355 96.9012C221.268 102.201 227.327 109.781 230.767 118.58C231.73 121.042 234.343 122.548 236.89 121.844L266.375 113.691C268.922 112.987 270.429 110.345 269.585 107.841C263.501 89.7834 251.612 74.1881 235.707 63.5338C219.802 52.8796 200.856 47.8193 181.842 49.0644Z" fill="#292C32"/>
<path d="M268.671 125.092C271.293 124.756 273.704 126.608 273.895 129.244C274.287 134.656 274.169 140.093 273.544 145.484C273.239 148.109 270.75 149.855 268.146 149.406L237.999 144.208C235.395 143.759 233.674 141.282 233.853 138.646C233.949 137.219 233.98 135.79 233.945 134.361C233.88 131.719 235.707 129.319 238.328 128.983L268.671 125.092Z" fill="#292C32"/>
<path fill-rule="evenodd" clip-rule="evenodd" d="M270.564 145.138C271.168 139.934 271.281 134.686 270.903 129.461C270.844 128.652 270.077 127.936 269.053 128.068L238.71 131.958C237.8 132.075 236.912 132.986 236.944 134.287C236.982 135.808 236.949 137.33 236.846 138.849C236.758 140.147 237.605 141.096 238.509 141.251L268.656 146.45C269.673 146.625 270.47 145.943 270.564 145.138ZM273.895 129.244C273.704 126.608 271.293 124.756 268.671 125.092L238.328 128.983C235.707 129.319 233.88 131.719 233.945 134.361C233.98 135.79 233.949 137.219 233.853 138.646C233.674 141.282 235.395 143.759 237.999 144.208L268.146 149.406C270.75 149.855 273.239 148.109 273.544 145.484C274.169 140.093 274.287 134.656 273.895 129.244Z" fill="#292C32"/>
<path d="M264.327 163.694C266.808 164.605 268.093 167.36 267.047 169.787C262.382 180.61 255.557 190.368 246.991 198.462C245.07 200.277 242.04 200.014 240.334 197.996L220.584 174.634C218.878 172.616 219.152 169.612 220.984 167.708C224.332 164.227 227.118 160.245 229.239 155.906C230.4 153.531 233.127 152.244 235.608 153.155L264.327 163.694Z" fill="#292C32"/>
<path fill-rule="evenodd" clip-rule="evenodd" d="M244.93 196.281C253.2 188.467 259.789 179.048 264.292 168.6C264.613 167.855 264.263 166.866 263.293 166.51L234.574 155.971C233.713 155.655 232.506 156.054 231.934 157.223C229.676 161.842 226.711 166.082 223.146 169.787C222.244 170.725 222.283 171.997 222.875 172.697L242.625 196.059C243.292 196.848 244.341 196.838 244.93 196.281ZM267.047 169.787C268.093 167.36 266.808 164.605 264.327 163.694L235.608 153.155C233.127 152.244 230.4 153.531 229.239 155.906C227.118 160.245 224.332 164.227 220.984 167.708C219.152 169.612 218.878 172.616 220.584 174.634L240.334 197.996C242.04 200.014 245.07 200.277 246.991 198.462C255.557 190.368 262.382 180.61 267.047 169.787Z" fill="#292C32"/>
<path d="M231.648 204.406C233.073 206.632 232.431 209.604 230.131 210.905C218.751 217.338 206.043 221.123 192.955 221.949C179.867 222.774 166.784 220.617 154.686 215.664C152.241 214.663 151.23 211.795 152.365 209.409L165.499 181.78C166.634 179.393 169.483 178.404 171.974 179.287C177.872 181.379 184.148 182.263 190.426 181.866C196.705 181.47 202.82 179.805 208.408 176.988C210.769 175.799 213.719 176.423 215.145 178.648L231.648 204.406Z" fill="#292C32"/>
<path fill-rule="evenodd" clip-rule="evenodd" d="M192.766 218.955C205.401 218.158 217.669 214.504 228.654 208.293C229.36 207.894 229.679 206.894 229.122 206.025L212.619 180.266C212.124 179.494 210.92 179.082 209.759 179.667C203.809 182.665 197.299 184.439 190.615 184.86C183.931 185.282 177.25 184.341 170.971 182.115C169.745 181.68 168.602 182.24 168.209 183.068L155.074 210.697C154.631 211.629 155.072 212.581 155.823 212.888C167.502 217.669 180.132 219.752 192.766 218.955ZM230.131 210.905C232.431 209.604 233.073 206.632 231.648 204.406L215.145 178.648C213.719 176.423 210.769 175.799 208.408 176.988C202.82 179.805 196.705 181.47 190.426 181.866C184.148 182.263 177.872 181.379 171.974 179.287C169.483 178.404 166.634 179.393 165.499 181.78L152.365 209.409C151.23 211.795 152.241 214.663 154.686 215.664C166.784 220.617 179.867 222.774 192.955 221.949C206.043 221.123 218.751 217.338 230.131 210.905Z" fill="#292C32"/>
<path d="M141.801 196.515C140.196 198.614 137.183 199.025 135.175 197.306C124.333 188.026 115.931 176.192 110.749 162.841C104.99 148 103.431 131.859 106.245 116.191C109.058 100.522 116.135 85.9318 126.699 74.0223C136.202 63.3082 148.195 55.1365 161.589 50.2082C164.069 49.2956 166.751 50.7289 167.526 53.2557L176.488 82.505C177.262 85.0318 175.829 87.6851 173.395 88.7151C167.042 91.4035 161.349 95.4815 156.745 100.672C151.079 107.06 147.283 114.885 145.774 123.289C144.265 131.693 145.101 140.35 148.19 148.31C150.701 154.778 154.62 160.582 159.641 165.313C161.564 167.125 161.985 170.111 160.38 172.211L141.801 196.515Z" fill="white"/>
<path fill-rule="evenodd" clip-rule="evenodd" d="M113.546 161.755C118.548 174.644 126.659 186.068 137.126 195.027C137.742 195.555 138.79 195.513 139.417 194.693L157.996 170.389C158.554 169.66 158.53 168.388 157.583 167.496C152.239 162.46 148.066 156.281 145.394 149.395C142.105 140.921 141.215 131.705 142.821 122.759C144.428 113.812 148.469 105.482 154.5 98.6814C159.401 93.1557 165.463 88.8143 172.226 85.9523C173.424 85.4452 173.889 84.261 173.62 83.3839L164.657 54.1347C164.355 53.1474 163.386 52.7436 162.625 53.0236C149.695 57.7813 138.117 65.67 128.943 76.013C118.745 87.51 111.913 101.595 109.197 116.721C106.481 131.847 107.986 147.429 113.546 161.755ZM135.175 197.306C137.183 199.025 140.196 198.614 141.801 196.515L160.38 172.211C161.985 170.111 161.564 167.125 159.641 165.313C154.62 160.582 150.701 154.778 148.19 148.31C145.101 140.35 144.265 131.693 145.774 123.289C147.283 114.885 151.079 107.06 156.745 100.672C161.349 95.4815 167.042 91.4035 173.395 88.7151C175.829 87.6851 177.262 85.0318 176.488 82.505L167.526 53.2557C166.751 50.7289 164.069 49.2956 161.589 50.2082C148.195 55.1365 136.202 63.3082 126.699 74.0223C116.135 85.9318 109.058 100.522 106.245 116.191C103.431 131.859 104.99 148 110.749 162.841C115.931 176.192 124.333 188.026 135.175 197.306Z" fill="#292C32"/>
<path d="M181.653 50.2591C181.335 47.6356 183.205 45.2371 185.842 45.0644C204.856 43.8193 223.802 48.8796 239.707 59.5338C255.612 70.1881 267.501 85.7834 273.585 103.841C274.429 106.345 272.922 108.987 270.375 109.691L240.89 117.844C238.343 118.548 235.73 117.042 234.767 114.58C231.327 105.781 225.268 98.2014 217.355 92.9012C209.443 87.6011 200.128 84.8821 190.681 85.0486C188.039 85.0951 185.652 83.2521 185.334 80.6286L181.653 50.2591Z" fill="#FAAC04"/>
<path fill-rule="evenodd" clip-rule="evenodd" d="M238.037 62.0263C222.683 51.741 204.393 46.856 186.038 48.058C185.228 48.111 184.507 48.8734 184.631 49.8982L188.312 80.2676C188.422 81.1781 189.328 82.072 190.629 82.049C200.685 81.8718 210.602 84.7664 219.025 90.4088C227.448 96.0512 233.899 104.121 237.561 113.488C238.035 114.7 239.206 115.197 240.09 114.952L269.576 106.8C270.571 106.524 271.001 105.568 270.742 104.799C264.869 87.3667 253.392 72.3115 238.037 62.0263ZM185.842 45.0644C183.205 45.2371 181.335 47.6356 181.653 50.2591L185.334 80.6286C185.652 83.2521 188.039 85.0951 190.681 85.0486C200.128 84.8821 209.443 87.6011 217.355 92.9012C225.268 98.2014 231.327 105.781 234.767 114.58C235.73 117.042 238.343 118.548 240.89 117.844L270.375 109.691C272.922 108.987 274.429 106.345 273.585 103.841C267.501 85.7834 255.612 70.1881 239.707 59.5338C223.802 48.8796 204.856 43.8193 185.842 45.0644Z" fill="#292C32"/>
<path d="M272.671 121.092C275.293 120.756 277.704 122.608 277.895 125.244C278.287 130.656 278.169 136.093 277.544 141.484C277.239 144.109 274.75 145.855 272.146 145.406L241.999 140.208C239.395 139.759 237.674 137.282 237.853 134.646C237.949 133.219 237.98 131.79 237.945 130.361C237.88 127.719 239.707 125.319 242.328 124.983L272.671 121.092Z" fill="white"/>
<path fill-rule="evenodd" clip-rule="evenodd" d="M274.564 141.138C275.168 135.934 275.281 130.686 274.903 125.461C274.844 124.652 274.077 123.936 273.053 124.068L242.71 127.958C241.8 128.075 240.912 128.986 240.944 130.287C240.982 131.808 240.949 133.33 240.846 134.849C240.758 136.147 241.605 137.096 242.509 137.251L272.656 142.45C273.673 142.625 274.47 141.943 274.564 141.138ZM277.895 125.244C277.704 122.608 275.293 120.756 272.671 121.092L242.328 124.983C239.707 125.319 237.88 127.719 237.945 130.361C237.98 131.79 237.949 133.219 237.853 134.646C237.674 137.282 239.395 139.759 241.999 140.208L272.146 145.406C274.75 145.855 277.239 144.109 277.544 141.484C278.169 136.093 278.287 130.656 277.895 125.244Z" fill="#292C32"/>
<path d="M268.327 159.694C270.808 160.605 272.093 163.36 271.047 165.787C266.382 176.61 259.557 186.368 250.991 194.462C249.07 196.277 246.04 196.014 244.334 193.996L224.584 170.634C222.878 168.616 223.152 165.612 224.984 163.708C228.332 160.227 231.118 156.245 233.239 151.906C234.4 149.531 237.127 148.244 239.608 149.155L268.327 159.694Z" fill="#1E756B"/>
<path fill-rule="evenodd" clip-rule="evenodd" d="M248.93 192.281C257.2 184.467 263.789 175.048 268.292 164.6C268.613 163.855 268.263 162.866 267.293 162.51L238.574 151.971C237.713 151.655 236.506 152.054 235.934 153.223C233.676 157.842 230.711 162.082 227.146 165.787C226.244 166.725 226.283 167.997 226.875 168.697L246.625 192.059C247.292 192.848 248.341 192.838 248.93 192.281ZM271.047 165.787C272.093 163.36 270.808 160.605 268.327 159.694L239.608 149.155C237.127 148.244 234.4 149.531 233.239 151.906C231.118 156.245 228.332 160.227 224.984 163.708C223.152 165.612 222.878 168.616 224.584 170.634L244.334 193.996C246.04 196.014 249.07 196.277 250.991 194.462C259.557 186.368 266.382 176.61 271.047 165.787Z" fill="#292C32"/>
<path d="M235.648 200.406C237.073 202.632 236.431 205.604 234.131 206.905C222.751 213.338 210.043 217.123 196.955 217.949C183.867 218.774 170.784 216.617 158.686 211.664C156.241 210.663 155.23 207.795 156.365 205.409L169.499 177.78C170.634 175.393 173.483 174.404 175.974 175.287C181.872 177.379 188.148 178.263 194.426 177.866C200.705 177.47 206.82 175.805 212.408 172.988C214.769 171.799 217.719 172.423 219.145 174.648L235.648 200.406Z" fill="#1E756B"/>
<path fill-rule="evenodd" clip-rule="evenodd" d="M196.766 214.955C209.401 214.158 221.669 210.504 232.654 204.293C233.36 203.894 233.679 202.894 233.122 202.025L216.619 176.266C216.124 175.494 214.92 175.082 213.759 175.667C207.809 178.665 201.299 180.439 194.615 180.86C187.931 181.282 181.25 180.341 174.971 178.115C173.745 177.68 172.602 178.24 172.209 179.068L159.074 206.697C158.631 207.629 159.072 208.581 159.823 208.888C171.502 213.669 184.132 215.752 196.766 214.955ZM234.131 206.905C236.431 205.604 237.073 202.632 235.648 200.406L219.145 174.648C217.719 172.423 214.769 171.799 212.408 172.988C206.82 175.805 200.705 177.47 194.426 177.866C188.148 178.263 181.872 177.379 175.974 175.287C173.483 174.404 170.634 175.393 169.499 177.78L156.365 205.409C155.23 207.795 156.241 210.663 158.686 211.664C170.784 216.617 183.867 218.774 196.955 217.949C210.043 217.123 222.751 213.338 234.131 206.905Z" fill="#292C32"/>
</svg>
