<svg width="483" height="436" viewBox="0 0 483 436" fill="none" xmlns="http://www.w3.org/2000/svg">
<path d="M127.574 357.378C185.001 330.604 210.119 262.938 210.119 262.938C210.119 262.938 142.138 238.685 84.7167 265.462C27.3004 292.24 2.18359 359.9 2.18359 359.9C2.18359 359.9 70.1573 384.156 127.574 357.378Z" fill="#1C807B"/>
<path d="M276.124 229.745L1.58159 357.762C0.660897 358.196 0.263962 359.286 0.690434 360.21C1.12225 361.136 2.21273 361.533 3.13876 361.101L277.687 233.086C278.608 232.653 279.005 231.562 278.578 230.638C278.141 229.71 277.045 229.311 276.124 229.745Z" fill="#055F5B"/>
<path d="M64.3862 329.07L50.0927 368.341C49.7444 369.298 50.2375 370.355 51.1944 370.704C52.1513 371.052 53.2086 370.559 53.5569 369.602L67.8503 330.331C68.1986 329.374 67.7056 328.317 66.7487 327.969C65.7918 327.62 64.7345 328.113 64.3862 329.07Z" fill="#055F5B"/>
<path d="M121.503 302.437L98.6891 365.117C98.3409 366.074 98.8339 367.132 99.7908 367.48C100.748 367.828 101.805 367.335 102.153 366.378L124.967 303.698C125.315 302.741 124.822 301.684 123.865 301.335C122.909 300.987 121.851 301.48 121.503 302.437Z" fill="#055F5B"/>
<path d="M178.624 275.8L156.476 336.652C156.127 337.609 156.62 338.667 157.577 339.015C158.534 339.363 159.592 338.87 159.94 337.913L182.088 277.061C182.437 276.104 181.943 275.047 180.987 274.698C180.022 274.354 178.972 274.843 178.624 275.8Z" fill="#055F5B"/>
<path d="M25.3183 314.843C24.97 315.8 25.463 316.858 26.42 317.206L65.4931 331.427C66.45 331.776 67.5073 331.283 67.8556 330.326C68.2039 329.369 67.7109 328.312 66.754 327.963L27.6827 313.736C26.7166 313.397 25.6647 313.892 25.3183 314.843Z" fill="#055F5B"/>
<path d="M123.823 301.32L59.8154 279.573C58.8507 279.246 57.8037 279.761 57.4787 280.72C57.1518 281.685 57.6666 282.732 58.6313 283.059L122.639 304.806C123.603 305.133 124.645 304.616 124.977 303.653C125.302 302.694 124.787 301.647 123.823 301.32Z" fill="#055F5B"/>
<path d="M121.448 253.034C120.491 252.686 119.434 253.179 119.086 254.136C118.738 255.093 119.231 256.15 120.188 256.498L179.719 278.166C180.676 278.514 181.734 278.021 182.082 277.064C182.43 276.107 181.937 275.05 180.98 274.702L121.448 253.034Z" fill="#055F5B"/>
<path d="M215.761 63.5193C195.61 106.727 213.858 157.878 213.858 157.878C213.858 157.878 264.772 138.978 284.919 95.7719C305.067 52.5658 286.82 1.4185 286.82 1.4185C286.82 1.4185 235.904 20.3147 215.761 63.5193Z" fill="#1C807B"/>
<path d="M285.685 1.19351L220.015 142.017C219.689 142.709 219.989 143.534 220.686 143.859C221.381 144.18 222.202 143.881 222.528 143.189L288.202 2.36374C288.523 1.66842 288.225 0.847838 287.532 0.521458C286.835 0.196542 286.01 0.496721 285.685 1.19351Z" fill="#055F5B"/>
<path d="M252.511 20.6747L263.266 50.2235C263.528 50.9436 264.323 51.3146 265.043 51.0525C265.763 50.7904 266.134 49.9949 265.872 49.2748L255.117 19.726C254.855 19.006 254.06 18.635 253.34 18.8971C252.62 19.1591 252.249 19.9547 252.511 20.6747Z" fill="#055F5B"/>
<path d="M226.065 46.0387L243.231 93.2018C243.493 93.9218 244.288 94.2928 245.008 94.0307C245.728 93.7686 246.101 92.9772 245.837 92.2531L228.671 45.09C228.409 44.37 227.614 43.999 226.894 44.261C226.174 44.5231 225.803 45.3187 226.065 46.0387Z" fill="#055F5B"/>
<path d="M206.522 90.3915L223.187 136.179C223.449 136.899 224.244 137.27 224.964 137.008C225.684 136.746 226.055 135.95 225.793 135.23L209.128 89.4428C208.866 88.7228 208.07 88.3519 207.35 88.6139C206.63 88.876 206.26 89.6715 206.522 90.3915Z" fill="#055F5B"/>
<path d="M263.268 50.2234C263.53 50.9435 264.326 51.3145 265.046 51.0524L294.447 40.3557C295.167 40.0936 295.538 39.2981 295.276 38.578C295.014 37.858 294.219 37.4871 293.499 37.7492L264.097 48.4459C263.379 48.7119 263.006 49.5034 263.268 50.2234Z" fill="#055F5B"/>
<path d="M291.442 73.0132L244.031 91.4359C243.316 91.714 242.962 92.5172 243.24 93.2314C243.518 93.9455 244.321 94.3 245.036 94.0219L292.447 75.5993C293.162 75.3211 293.516 74.5179 293.238 73.8037C292.96 73.0896 292.156 72.7351 291.442 73.0132Z" fill="#055F5B"/>
<path d="M224.015 134.403C223.295 134.665 222.924 135.46 223.186 136.18C223.448 136.9 224.244 137.271 224.964 137.009L269.762 120.704C270.482 120.442 270.852 119.647 270.59 118.927C270.328 118.207 269.533 117.836 268.813 118.098L224.015 134.403Z" fill="#055F5B"/>
<path d="M194.674 105.558C222.664 145.532 203.753 207.065 203.753 207.065C203.753 207.065 139.464 203.79 111.478 163.813C83.4922 123.839 102.402 62.3106 102.402 62.3106C102.402 62.3106 166.683 65.5882 194.674 105.558Z" fill="#097E78"/>
<path d="M230.064 242.391L103.454 61.5725C103.048 60.9929 102.246 60.8515 101.662 61.2567C101.083 61.6626 100.941 62.4643 101.347 63.0479L227.961 243.867C228.367 244.447 229.169 244.589 229.752 244.183C230.333 243.774 230.473 242.976 230.064 242.391Z" fill="#055F5B"/>
<path d="M134.684 67.8655C134.808 67.1654 134.341 66.4983 133.641 66.3749C132.941 66.2515 132.273 66.7185 132.15 67.4186L126.661 98.5456C126.538 99.2457 127.005 99.9127 127.705 100.036C128.405 100.16 129.072 99.6925 129.196 98.9925L134.684 67.8655Z" fill="#055F5B"/>
<path d="M160.048 77.0273C160.171 76.3273 159.704 75.6602 159.004 75.5368C158.304 75.4133 157.637 75.8804 157.513 76.5805L148.213 129.327C148.089 130.027 148.556 130.694 149.256 130.818C149.956 130.941 150.623 130.474 150.747 129.774L160.048 77.0273Z" fill="#055F5B"/>
<path d="M184.251 92.7275C184.374 92.0274 183.907 91.3603 183.207 91.2369C182.507 91.1135 181.84 91.5805 181.716 92.2806L169.757 160.104C169.634 160.804 170.101 161.471 170.801 161.594C171.501 161.718 172.168 161.251 172.292 160.551L184.251 92.7275Z" fill="#055F5B"/>
<path d="M205.563 124.874C205.687 124.174 205.22 123.507 204.519 123.384C203.819 123.26 203.152 123.728 203.029 124.428L191.311 190.882C191.188 191.582 191.655 192.249 192.355 192.373C193.055 192.496 193.722 192.029 193.845 191.329L205.563 124.874Z" fill="#055F5B"/>
<path d="M128.152 97.502L97.0253 92.0135C96.3252 91.8901 95.6621 92.3578 95.5386 93.0579C95.4152 93.7579 95.8823 94.425 96.5784 94.5478L127.705 100.036C128.405 100.16 129.073 99.6927 129.196 98.9926C129.319 98.2925 128.852 97.6255 128.152 97.502Z" fill="#055F5B"/>
<path d="M149.703 128.283L96.9565 118.983C96.2564 118.859 95.5894 119.326 95.4659 120.026C95.3425 120.726 95.8096 121.394 96.5096 121.517L149.256 130.818C149.956 130.941 150.623 130.474 150.747 129.774C150.87 129.074 150.403 128.407 149.703 128.283Z" fill="#055F5B"/>
<path d="M171.277 159.065L102.828 145.467C102.13 145.328 101.454 145.781 101.315 146.479C101.176 147.176 101.629 147.853 102.326 147.992L170.776 161.59C171.473 161.729 172.15 161.275 172.289 160.578C172.428 159.881 171.975 159.204 171.277 159.065Z" fill="#055F5B"/>
<path d="M192.805 189.838L126.35 178.121C125.65 177.997 124.983 178.464 124.86 179.164C124.736 179.864 125.203 180.531 125.903 180.655L192.358 192.373C193.058 192.496 193.725 192.029 193.848 191.329C193.972 190.629 193.505 189.962 192.805 189.838Z" fill="#055F5B"/>
<path d="M138.524 332.748L315.77 343.93C315.469 347.247 314.547 350.577 312.741 353.664L135.322 340.414C136.987 338.582 138.05 335.892 138.524 332.748Z" fill="white"/>
<path d="M313.258 327.323C314.11 329.738 314.897 332.479 315.384 335.386L138.541 323.474L138.535 323.455C138.106 320.278 137.273 317.108 136.095 314.278L313.002 327.419L313.258 327.323Z" fill="white"/>
<path d="M138.541 323.474L315.384 335.386C315.851 338.134 316.037 341.041 315.768 343.93L138.521 332.748C138.995 329.885 138.983 326.676 138.541 323.474Z" fill="#FFF5DF"/>
<path d="M313.256 327.323L313.006 327.419L136.099 314.278C133.755 308.565 129.964 304.146 125.103 303.672L308.895 317.96C308.888 317.96 311.258 321.771 313.256 327.323Z" fill="#FFF5DF"/>
<path d="M317.824 358.192C288.486 356.489 130.081 345.166 130.081 345.166L127.929 339.876L135.319 340.414L312.739 353.664C314.551 350.577 315.467 347.254 315.768 343.93C316.037 341.041 315.851 338.134 315.384 335.386C314.897 332.479 314.109 329.738 313.257 327.323C311.259 321.771 308.89 317.954 308.89 317.954L125.098 303.666C125.047 303.659 124.995 303.666 124.944 303.659L118.745 303.185L117.029 296.608L312.297 312.132C321.999 325.146 326.271 346.748 317.824 358.192Z" fill="#FABB41"/>
<path d="M424.176 161.323C434.576 169.168 438.028 185.557 435.261 196.316C402.766 241.499 349.001 316.071 317.825 358.192C326.272 346.748 322.001 325.146 312.298 312.132L424.176 161.323Z" fill="#FABB41"/>
<path d="M424.176 161.323L312.298 312.132L117.036 296.614L267.327 155.828L424.176 161.323Z" fill="#FFD885"/>
<path d="M331.032 260.543C331.032 260.543 339.653 276.552 327.396 296.155C327.396 296.155 154.561 263.904 113.482 250.543C113.482 250.543 119.76 226.297 116.331 217.615C142.749 221.403 298.128 251.458 331.032 260.543Z" fill="white"/>
<path d="M329.899 303.178C329.899 303.178 151.384 274.96 105.631 253.667L105.607 247.675L113.483 250.537C154.563 263.898 327.397 296.149 327.397 296.149C339.655 276.546 331.034 260.537 331.034 260.537C298.13 251.452 142.751 221.397 116.333 217.609L109.176 215.876L109.908 208.499L109.951 208.493C112.745 208.951 292.2 237.029 335.054 254.972C342.01 263.477 343.132 290.628 329.899 303.178Z" fill="#29A28D"/>
<path d="M477.468 183.588C477.468 183.588 487.047 198.701 480 218.353L329.893 303.178C343.126 290.628 342.003 263.477 335.054 254.985L477.468 183.588Z" fill="#2CBAA0"/>
<path d="M477.468 183.588L335.054 254.984C292.199 237.035 112.745 208.957 109.951 208.506L284.591 138.69C284.597 138.69 448.244 171.355 477.468 183.588Z" fill="#3ED5BA"/>
<path d="M435.871 156.652C442.13 161.374 449.519 168.201 449.519 168.201C444.278 169.543 435.358 172.338 424.028 176.084C377.348 191.52 289.826 223.283 251.017 237.584C253.439 236.461 392.18 172.203 435.871 156.652Z" fill="#FFF5DF"/>
<path d="M435.869 156.652C392.179 172.203 253.437 236.461 251.015 237.578C289.831 223.277 377.347 191.514 424.027 176.078C437.932 186.346 450.055 198.25 450.055 198.25C442.41 200.086 430.696 203.368 416.425 207.493C365.596 222.16 282.174 247.425 233.304 255.881C228.624 248.145 230.375 240.085 231.583 234.948C258.276 218.194 369.708 164.748 433.612 142.21C440.451 147.25 446.864 153.381 446.864 153.381C444.698 153.711 440.921 154.858 435.869 156.652Z" fill="white"/>
<path d="M416.426 207.493C425.419 215.131 432.942 221.141 441.343 229.244C425.852 233.386 299.179 255.711 233.305 255.881C282.175 247.425 365.597 222.16 416.426 207.493Z" fill="#FFD885"/>
<path d="M233.286 258.505L233.311 255.881C299.186 255.71 425.852 233.386 441.349 229.244L440.52 233.618C401.588 244.484 265.751 262.995 233.286 258.505Z" fill="#FABB41"/>
<path d="M226.76 234.491C239.011 217.877 421.705 137.103 446.049 133.443L444.481 138.531C441.046 139.647 437.41 140.868 433.609 142.216C369.705 164.748 258.272 218.194 231.58 234.954C230.378 240.091 228.627 248.151 233.3 255.887L233.276 258.511C231.885 258.322 230.671 258.09 229.682 257.809C224.502 249.194 225.412 240.189 226.76 234.491Z" fill="#FABB41"/>
<path d="M155.35 137.414L226.758 234.491C225.41 240.189 224.501 249.201 229.687 257.809L156.814 157.14C155.075 151.691 154.49 141.606 155.35 137.414Z" fill="#FABB41"/>
<path d="M314.908 57.7634L446.053 133.443C421.709 137.103 239.015 217.871 226.764 234.491L155.355 137.414C187.265 101.118 314.908 57.7634 314.908 57.7634Z" fill="#FFD885"/>
</svg>
