<svg width="278" height="283" viewBox="0 0 278 283" fill="none" xmlns="http://www.w3.org/2000/svg">
<rect width="277.676" height="282.758" fill="white"/>
<rect x="100.75" y="108.308" width="76.1863" height="10" rx="5" fill="#A0A2A7"/>
<rect x="116.855" y="128.735" width="43.9754" height="10" rx="5" fill="#E7E9EE"/>
<circle cx="138.837" cy="123.522" r="76.7351" stroke="#E7E9EE" stroke-width="10"/>
<path d="M78.1993 76.4963C85.2094 67.4572 94.1516 60.0996 104.372 54.9619C114.592 49.8243 125.831 47.0365 137.268 46.8027C148.704 46.5688 160.048 48.8947 170.47 53.6102C180.891 58.3257 190.127 65.3115 197.501 74.0565" stroke="#055F5B" stroke-width="10" stroke-linecap="round"/>
<path d="M193.097 69.2618C201.174 77.3391 207.346 87.1178 211.162 97.8844C214.979 108.651 216.343 120.134 215.156 131.495" stroke="#FAAC04" stroke-width="10" stroke-linecap="round"/>
<path d="M146.726 199.85C130.785 201.498 114.728 198.113 100.808 190.171C86.8889 182.229 75.8052 170.128 69.1128 155.566C62.4204 141.005 60.455 124.713 63.4925 108.978C66.5299 93.2423 74.4178 78.8528 86.0492 67.8283" stroke="#055F5B" stroke-width="10" stroke-linecap="round"/>
<rect x="70.957" y="229.321" width="56.0071" height="8" rx="4" fill="#E7E9EE"/>
<circle cx="53.957" cy="233.321" r="9" fill="#FAAC04"/>
<rect x="176.711" y="229.487" width="56.0071" height="8" rx="4" fill="#E7E9EE"/>
<circle cx="164.949" cy="233.487" r="7.48462" fill="#055F5B"/>
</svg>
