<svg width="384" height="264" viewBox="0 0 384 264" fill="none" xmlns="http://www.w3.org/2000/svg">
<mask id="mask0" mask-type="alpha" maskUnits="userSpaceOnUse" x="0" y="0" width="384" height="264">
<path d="M0 0H384V264H0V0Z" fill="#C4C4C4"/>
</mask>
<g mask="url(#mask0)">
<rect width="650.457" height="445.961" transform="matrix(-1 0 0 1 544.797 -17.3857)" fill="#E9F8F7"/>
</g>
<circle cx="187.659" cy="137.659" r="64.6591" fill="#292C32" stroke="#292C32" stroke-width="4"/>
<circle cx="192.94" cy="131.659" r="64.6591" fill="#FAAC04" stroke="#292C32" stroke-width="4"/>
<path d="M206.993 104.952H188.57C185.747 104.954 183.012 105.938 180.835 107.736C178.658 109.534 177.175 112.033 176.639 114.805C176.103 117.577 176.549 120.449 177.899 122.929C179.249 125.409 181.42 127.341 184.039 128.395L202.743 135.88C205.362 136.934 207.533 138.866 208.883 141.346C210.234 143.825 210.679 146.697 210.143 149.469C209.608 152.241 208.124 154.741 205.947 156.538C203.77 158.336 201.035 159.321 198.212 159.323H179.808" stroke="#292C32" stroke-width="9.33128" stroke-linecap="round" stroke-linejoin="round"/>
<path d="M193.4 104.952L193.4 94.6262" stroke="#292C32" stroke-width="9.33128" stroke-linecap="round" stroke-linejoin="round"/>
<path d="M193.4 168.692V159.323" stroke="#292C32" stroke-width="9.33128" stroke-linecap="round" stroke-linejoin="round"/>
<path d="M266.242 109.022L266.617 109.971H267.637L290.308 109.971L290.308 123.149C290.308 125.376 293.001 126.491 294.576 124.916L319.943 99.5491C320.919 98.5728 320.919 96.9899 319.943 96.0136L294.576 70.6463L293.521 71.7012L294.576 70.6463C293.001 69.0714 290.308 70.1869 290.308 72.4141V85.3207L254.486 85.3207L251.198 85.3207L253.353 87.8038C258.771 94.0462 263.155 101.208 266.242 109.022Z" fill="#292C32" stroke="#292C32" stroke-width="3"/>
<path d="M271.242 104.022L271.617 104.971H272.637L295.308 104.971L295.308 118.149C295.308 120.376 298.001 121.491 299.576 119.916L324.943 94.5491C325.919 93.5728 325.919 91.9899 324.943 91.0136L299.576 65.6463L298.521 66.7012L299.576 65.6463C298.001 64.0714 295.308 65.1869 295.308 67.4141V80.3207L259.486 80.3207L256.198 80.3207L258.353 82.8038C263.771 89.0462 268.155 96.2075 271.242 104.022Z" fill="white" stroke="#292C32" stroke-width="3"/>
<path d="M112.829 162.891L112.456 161.937H111.432L88.8672 161.937L88.8672 148.759C88.8672 146.532 86.1743 145.416 84.5994 146.991L59.2322 172.358C58.2559 173.335 58.2559 174.918 59.2322 175.894L84.5994 201.261C86.1744 202.836 88.8672 201.721 88.8672 199.493V186.587L124.455 186.587H127.722L125.593 184.109C120.22 177.858 115.878 170.698 112.829 162.891Z" fill="#292C32" stroke="#292C32" stroke-width="3"/>
<path d="M112.829 157.891L112.456 156.937H111.432L88.8672 156.937L88.8672 143.759C88.8672 141.532 86.1743 140.416 84.5994 141.991L59.2322 167.358C58.2559 168.335 58.2559 169.918 59.2322 170.894L84.5994 196.261C86.1744 197.836 88.8672 196.721 88.8672 194.493V181.587L124.455 181.587H127.722L125.593 179.109C120.22 172.858 115.878 165.698 112.829 157.891Z" fill="#1E756B" stroke="#292C32" stroke-width="3"/>
</svg>
