<svg width="352" height="353" viewBox="0 0 352 353" fill="none" xmlns="http://www.w3.org/2000/svg">
<path d="M297.191 152.398C244.334 205.259 146.467 193.102 146.467 193.102C146.467 193.102 134.31 95.2401 187.172 42.3783C240.033 -10.4789 337.891 1.67848 337.891 1.67848C337.891 1.67848 350.048 99.5359 297.191 152.398Z" fill="#1C807B"/>
<path d="M338.931 0.639299C339.503 1.21087 339.503 2.14081 338.931 2.71693L99.8129 241.84C99.2413 242.416 98.3114 242.416 97.7353 241.84C97.1637 241.268 97.1637 240.338 97.7353 239.762L336.854 0.639299C337.425 0.0631862 338.355 0.0631862 338.931 0.639299Z" fill="#055F5B"/>
<path d="M338.097 48.4207C338.909 48.4207 339.566 49.0784 339.566 49.8904C339.566 50.7024 338.909 51.3602 338.097 51.3602H289.676C288.864 51.3602 288.206 50.7024 288.206 49.8904C288.206 49.0784 288.864 48.4207 289.676 48.4207H338.097Z" fill="#055F5B"/>
<path d="M331.026 89.1251C331.838 89.1251 332.496 89.7828 332.496 90.5948C332.496 91.4068 331.838 92.0646 331.026 92.0646H248.973C248.161 92.0646 247.504 91.4068 247.504 90.5948C247.504 89.7828 248.161 89.1251 248.973 89.1251H331.026Z" fill="#055F5B"/>
<path d="M313.776 129.825C314.588 129.825 315.246 130.483 315.246 131.29C315.246 132.102 314.588 132.76 313.776 132.76H208.271C207.459 132.76 206.801 132.102 206.801 131.29C206.801 130.478 207.459 129.825 208.271 129.825H313.776Z" fill="#055F5B"/>
<path d="M270.948 170.525C271.76 170.525 272.418 171.182 272.418 171.994C272.418 172.806 271.76 173.464 270.948 173.464H167.57C166.758 173.464 166.1 172.806 166.1 171.994C166.1 171.182 166.758 170.525 167.57 170.525H270.948Z" fill="#055F5B"/>
<path d="M291.145 1.46976V49.8904C291.145 50.7024 290.487 51.3602 289.675 51.3602C288.863 51.3602 288.205 50.7024 288.205 49.8904V1.46976C288.205 0.657762 288.863 0 289.675 0C290.487 0 291.145 0.657762 291.145 1.46976Z" fill="#055F5B"/>
<path d="M250.441 8.54191V90.5948C250.441 91.4069 249.784 92.0646 248.972 92.0646C248.16 92.0646 247.502 91.4069 247.502 90.5948V8.54191C247.502 7.72991 248.16 7.07214 248.972 7.07214C249.784 7.07214 250.441 7.72991 250.441 8.54191Z" fill="#055F5B"/>
<path d="M210.612 22.9356C211.424 22.9538 212.069 23.6251 212.05 24.4371L209.746 131.326C209.728 132.138 209.056 132.783 208.244 132.764C207.432 132.746 206.793 132.075 206.806 131.263L209.111 24.3736C209.129 23.5616 209.8 22.9175 210.612 22.9356Z" fill="#055F5B"/>
<path d="M169.039 68.6164V171.995C169.039 172.807 168.381 173.464 167.569 173.464C166.757 173.464 166.1 172.807 166.1 171.995V68.6164C166.1 67.8044 166.757 67.1466 167.569 67.1466C168.381 67.1466 169.039 67.8044 169.039 68.6164Z" fill="#055F5B"/>
<path d="M34.7341 159.876C78.0615 203.207 158.283 193.242 158.283 193.242C158.283 193.242 168.249 113.024 124.918 69.6926C81.5867 26.3652 1.37215 36.3306 1.37215 36.3306C1.37215 36.3306 -8.59332 116.545 34.7341 159.876Z" fill="#1C807B"/>
<path d="M0.520156 35.4788C0.0516309 35.9473 0.0516309 36.7096 0.520156 37.1818L196.527 233.193C196.996 233.665 197.758 233.665 198.23 233.193C198.699 232.724 198.699 231.962 198.23 231.49L2.22324 35.4788C1.75471 35.0065 0.9924 35.0065 0.520156 35.4788Z" fill="#055F5B"/>
<path d="M1.20478 74.6456C0.539172 74.6456 0 75.1848 0 75.8504C0 76.516 0.539172 77.0552 1.20478 77.0552H40.8956C41.5612 77.0552 42.1003 76.516 42.1003 75.8504C42.1003 75.1848 41.5612 74.6456 40.8956 74.6456H1.20478Z" fill="#055F5B"/>
<path d="M7.00183 108.011C6.33623 108.011 5.79706 108.551 5.79706 109.216C5.79706 109.882 6.33623 110.421 7.00183 110.421H74.2612C74.9268 110.421 75.466 109.882 75.466 109.216C75.466 108.551 74.9268 108.011 74.2612 108.011H7.00183Z" fill="#055F5B"/>
<path d="M21.1384 141.373C20.4728 141.373 19.9336 141.912 19.9336 142.574C19.9336 143.24 20.4728 143.779 21.1384 143.779H107.622C108.288 143.779 108.827 143.24 108.827 142.574C108.827 141.909 108.288 141.373 107.622 141.373H21.1384Z" fill="#055F5B"/>
<path d="M56.2438 174.735C55.5782 174.735 55.0391 175.274 55.0391 175.94C55.0391 176.606 55.5782 177.145 56.2438 177.145H140.984C141.649 177.145 142.188 176.606 142.188 175.94C142.188 175.274 141.649 174.735 140.984 174.735H56.2438Z" fill="#055F5B"/>
<path d="M39.6908 36.1596V75.8504C39.6908 76.516 40.23 77.0552 40.8956 77.0552C41.5612 77.0552 42.1003 76.516 42.1003 75.8504V36.1596C42.1003 35.494 41.5612 34.9548 40.8956 34.9548C40.23 34.9548 39.6908 35.494 39.6908 36.1596Z" fill="#055F5B"/>
<path d="M73.058 41.9567V109.216C73.058 109.882 73.5972 110.421 74.2628 110.421C74.9284 110.421 75.4675 109.882 75.4675 109.216V41.9567C75.4675 41.2911 74.9284 40.7519 74.2628 40.7519C73.5972 40.7519 73.058 41.2911 73.058 41.9567Z" fill="#055F5B"/>
<path d="M105.706 53.7553C105.04 53.7702 104.512 54.3205 104.527 54.9861L106.416 142.604C106.431 143.27 106.981 143.798 107.647 143.783C108.312 143.768 108.837 143.218 108.826 142.552L106.937 54.9341C106.922 54.2685 106.371 53.7404 105.706 53.7553Z" fill="#055F5B"/>
<path d="M139.781 91.2002V175.94C139.781 176.606 140.32 177.145 140.985 177.145C141.651 177.145 142.19 176.606 142.19 175.94V91.2002C142.19 90.5346 141.651 89.9954 140.985 89.9954C140.32 89.9954 139.781 90.5346 139.781 91.2002Z" fill="#055F5B"/>
<path d="M179.729 341.882L11.6778 304.494L7.25391 306.653C7.25391 306.653 160.935 341.801 177.957 346.069C179.005 345.707 179.816 344.209 180.347 342.057L179.729 341.882Z" fill="#29A28D"/>
<path d="M183.143 313.841L4.28516 277.389V281.189L9.37045 282.281C9.41413 282.319 9.45159 282.369 9.47655 282.406L9.55767 282.319C9.55767 282.319 161.299 314.397 178.295 318.134C181.328 322.726 182.008 335.449 180.348 342.051C179.818 344.209 179.007 345.701 177.958 346.063C160.937 341.788 7.25522 306.647 7.25522 306.647V310.871L183.206 352.851C186.688 342.949 187.249 332.654 183.143 313.841Z" fill="#33C1A8"/>
<path d="M345.624 250.678L183.145 313.841C187.244 332.654 186.689 342.943 183.207 352.851L349.424 285.014C355.788 262.982 345.624 250.678 345.624 250.678Z" fill="#2CBAA0"/>
<path d="M4.28516 277.396L183.143 313.841L345.623 250.678L162.284 231.466L4.28516 277.396Z" fill="#3ED5BA"/>
<path d="M9.55768 282.325L9.47656 282.412C16.7145 289.862 11.6791 304.494 11.6791 304.494L179.73 341.882L180.348 342.051C182.014 335.449 181.328 322.726 178.295 318.134C161.299 314.403 9.55768 282.325 9.55768 282.325Z" fill="white"/>
<path d="M13.3625 294.998C13.3874 294.199 13.3874 293.375 13.3438 292.552C47.6678 301.674 145.954 324.823 145.954 324.823C145.954 324.823 36.6799 300.295 13.3625 294.998Z" fill="#D8FBF4"/>
<path d="M229.26 287.348L229.385 287.367C230.389 280.977 231.837 267.618 228.299 258.452L61.3398 245.468C64.3286 257.023 61.7204 272.566 61.7204 272.566L229.26 287.348Z" fill="white"/>
<path d="M158.766 265.64L94.7539 248.076L202.961 256.487L158.766 265.64Z" fill="#EEFDFF"/>
<path d="M228.723 291.023C228.723 291.023 229.023 289.632 229.385 287.373L229.26 287.354L61.7204 272.579L55.2312 276.06L228.723 291.023Z" fill="#E9A521"/>
<path d="M232.355 254.465L55.7179 240.994L55.8864 245.012L61.3335 245.48L228.293 258.465C231.837 267.631 230.389 280.99 229.379 287.379C229.017 289.644 228.717 291.029 228.717 291.029L55.2187 276.06V280.478L232.43 295.852C232.43 295.815 232.455 295.79 232.455 295.746C235.818 280.297 237.284 270.644 232.355 254.465Z" fill="#FABB41"/>
<path d="M306.238 203.107L232.355 254.459C237.284 270.644 235.812 280.297 232.461 295.734L306.881 233.637C310.531 228.203 311.024 210.538 306.238 203.107Z" fill="#FABB41"/>
<path d="M171.245 193.604L55.3129 240.969L55.7185 240.988L232.356 254.465L306.239 203.107L171.245 193.604Z" fill="#FFD885"/>
<path d="M159.233 192.437L6.40625 172.708C11.9782 187.165 7.8164 221.139 7.11133 221.838C7.04893 221.863 7.00524 221.907 6.9366 221.926L159.233 246.803L159.676 246.822C160.45 235.353 161.754 209.453 159.233 192.437Z" fill="white"/>
<path d="M64.3616 199.569L41.0192 177.175L140.323 189.991L64.3616 199.569Z" fill="#D8FBF4"/>
<path d="M6.9197 221.926C3.24457 223.829 0 225.258 0 225.258L159.235 252.649C159.235 252.649 159.428 250.472 159.678 246.822L159.235 246.803L6.93844 221.926H6.9197Z" fill="#29A28D"/>
<path d="M164.276 188.587L1.5225 167.192L1.2854 172.252L6.40809 172.701L159.235 192.431C161.756 209.453 160.452 235.353 159.678 246.815C159.428 250.466 159.235 252.643 159.235 252.643L0 225.251L0.255845 230.78L164.464 258.77C164.464 258.777 170.273 220.322 164.276 188.587Z" fill="#33C1A8"/>
<path d="M164.763 188.656L164.276 188.587C170.279 220.322 164.464 258.777 164.464 258.777L323.549 207.874L336.677 201.959C338.942 174.261 335.098 153.034 334.262 148.847L164.763 188.656Z" fill="#2CBAA0"/>
<path d="M247.999 198.883C220.314 206.264 192.623 197.697 164.938 192.475C164.732 191.171 164.513 189.873 164.276 188.587L164.763 188.656L264.884 165.145C258.638 177.955 256.448 196.774 247.999 198.883Z" fill="#29A28D"/>
<path d="M164.276 188.587L164.763 188.656L334.262 148.854C334.156 148.367 334.094 148.111 334.094 148.111C334.094 148.111 214.343 136.643 199.181 134.833L1.5163 167.204L164.276 188.587Z" fill="#3ED5BA"/>
<path d="M199.181 134.827C206.98 135.763 242.44 139.245 275.048 142.414L264.416 165.033L182.852 184.407C188.474 168.115 193.347 151.456 197.665 135.077L199.181 134.827Z" fill="#29A28D"/>
<path d="M246.353 181.711L246.372 181.73C254.764 167.129 245.393 139.045 241.443 135.12L40.5712 132.325C50.1989 145.029 45.7751 167.41 44.9514 171.185C44.9265 171.247 44.9265 171.335 44.9016 171.397C44.0904 175.734 42.9173 178.635 42.9173 178.635L246.353 181.711Z" fill="white"/>
<path d="M46.6599 156.51C46.6848 155.418 46.6786 154.294 46.6411 153.159C55.9444 153.433 212.178 157.976 212.178 157.976C212.178 157.976 59.5821 156.51 46.6599 156.51Z" fill="#FFF5DF"/>
<path d="M36.6845 181.674L36.7095 182.46H36.7344L243.602 185.386C244.688 184.301 245.611 183.078 246.379 181.736L246.36 181.718L42.9241 178.641C39.7357 180.626 36.6845 181.674 36.6845 181.674Z" fill="#E9A521"/>
<path d="M241.442 135.12C245.391 139.045 254.769 167.129 246.371 181.73C245.603 183.078 244.68 184.295 243.594 185.38L36.7264 182.454H36.7015L36.8886 187.857C36.8886 187.857 175.009 189.267 246.215 190.397C248.967 187.134 250.982 183.652 252.367 180.045C260.691 158.906 248.436 134.028 243.675 128.924L35.5659 126.534L35.1416 132L40.5638 132.325L241.442 135.12Z" fill="#FABB41"/>
<path d="M252.373 180.052H252.398L268.135 149.128C283.334 118.741 264.035 94.1447 264.035 94.1447L243.688 128.924C248.443 134.035 260.697 158.912 252.373 180.052Z" fill="#FABB41"/>
<path d="M35.5721 126.535L243.682 128.931L264.029 94.1447L96.1275 90.3448L35.5721 126.535Z" fill="#FFD885"/>
</svg>
