<svg width="131" height="30" viewBox="0 0 131 30" fill="none" xmlns="http://www.w3.org/2000/svg">
<path d="M123.791 9.35352C127.271 9.35352 129.551 11.7775 129.551 15.0175C129.551 15.5695 129.455 16.0735 129.359 16.5295H120.767C120.959 18.4495 122.567 19.4575 124.367 19.4575C125.783 19.4575 126.839 18.8575 127.583 18.0895L129.311 20.1535C127.799 21.5935 126.239 22.1695 124.223 22.1695C120.191 22.1695 117.527 19.3615 117.527 15.7855C117.527 12.2095 120.143 9.35352 123.791 9.35352ZM123.767 11.9695C122.231 11.9695 121.031 12.8815 120.767 14.4175H126.503V14.3935C126.383 12.8815 125.231 11.9695 123.767 11.9695Z" fill="#A0A2A7"/>
<path d="M108.379 9.64154H110.203V6.30554H113.227V9.64154H116.131V12.1375H113.227V17.5855C113.227 18.7615 113.803 19.3615 114.931 19.3615C115.291 19.3615 115.891 19.3135 116.443 18.9535V21.6895C115.891 21.9775 115.147 22.1695 114.115 22.1695C111.619 22.1695 110.107 20.7055 110.107 18.0415V12.1375H108.379V9.64154Z" fill="#A0A2A7"/>
<path d="M94.6016 9.6416H97.7216V16.6976C97.7216 18.4496 98.7536 19.3856 100.194 19.3856C102.138 19.3856 103.002 17.6096 103.002 15.9536V9.6416H106.122V21.8816H103.122V20.2016C102.354 21.4736 101.154 22.1696 99.3536 22.1696C96.4736 22.1696 94.6016 20.2976 94.6016 17.0576V9.6416Z" fill="#A0A2A7"/>
<path d="M84.6367 9.64154H86.4607V6.30554H89.4847V9.64154H92.3887V12.1375H89.4847V17.5855C89.4847 18.7615 90.0607 19.3615 91.1887 19.3615C91.5487 19.3615 92.1487 19.3135 92.7007 18.9535V21.6895C92.1487 21.9775 91.4047 22.1695 90.3727 22.1695C87.8767 22.1695 86.3647 20.7055 86.3647 18.0415V12.1375H84.6367V9.64154Z" fill="#A0A2A7"/>
<path d="M79.2523 21.8815V9.64152H82.3723V21.8815H79.2523ZM80.7883 4.33752C81.7723 4.33752 82.5883 5.05752 82.5883 6.08952C82.5883 7.12152 81.7723 7.86552 80.7883 7.86552C79.7563 7.86552 78.9883 7.12152 78.9883 6.08952C78.9883 5.05752 79.7563 4.33752 80.7883 4.33752Z" fill="#A0A2A7"/>
<path d="M69.0039 9.64154H70.8279V6.30554H73.8519V9.64154H76.7559V12.1375H73.8519V17.5855C73.8519 18.7615 74.4279 19.3615 75.5559 19.3615C75.9159 19.3615 76.5159 19.3135 77.0679 18.9535V21.6895C76.5159 21.9775 75.7719 22.1695 74.7399 22.1695C72.2439 22.1695 70.7319 20.7055 70.7319 18.0415V12.1375H69.0039V9.64154Z" fill="#A0A2A7"/>
<path d="M62.915 22.1695C60.707 22.1695 58.811 21.1375 57.875 19.4095L59.987 17.8495C60.659 18.9055 61.595 19.6495 62.915 19.6495C64.067 19.6495 64.763 19.2415 64.763 18.5935C64.763 17.8255 64.115 17.5135 62.123 16.8415C59.627 16.0015 58.283 15.0175 58.283 13.0015C58.283 10.8895 60.347 9.35352 62.987 9.35352C65.003 9.35352 66.659 10.3135 67.451 11.7775L65.363 13.2895C64.859 12.4495 64.091 11.8495 62.939 11.8495C61.955 11.8495 61.211 12.3055 61.211 12.9775C61.211 13.6255 61.859 13.9615 63.755 14.6335C66.083 15.4735 67.691 16.2895 67.691 18.5215C67.691 20.5855 65.747 22.1695 62.915 22.1695Z" fill="#A0A2A7"/>
<path d="M44.1172 9.64152H47.1172V11.3215C47.8852 10.0495 49.0852 9.35352 50.8852 9.35352C53.7652 9.35352 55.6372 11.2255 55.6372 14.4655V21.8815H52.5172V14.8255C52.5172 13.0735 51.4852 12.1375 50.0452 12.1375C48.1012 12.1375 47.2372 13.8895 47.2372 15.5695V21.8815H44.1172V9.64152Z" fill="#A0A2A7"/>
<path d="M37.4398 21.8815V9.64152H40.5598V21.8815H37.4398ZM38.9758 4.33752C39.9598 4.33752 40.7758 5.05752 40.7758 6.08952C40.7758 7.12152 39.9598 7.86552 38.9758 7.86552C37.9438 7.86552 37.1758 7.12152 37.1758 6.08952C37.1758 5.05752 37.9438 4.33752 38.9758 4.33752Z" fill="#A0A2A7"/>
<path fill-rule="evenodd" clip-rule="evenodd" d="M7.78776 2.11301C3.33329 4.27169 0.261719 8.83645 0.261719 14.1186C0.261719 21.4824 6.23126 27.4519 13.5951 27.4519C18.8771 27.4519 23.4418 24.3805 25.6006 19.9261H13.6069L13.5952 19.9261C10.4077 19.9261 7.81996 17.3581 7.78806 14.1781H7.78776V14.1187V2.11301ZM26.7442 16.3401C26.8653 15.6177 26.9284 14.8755 26.9284 14.1186C26.9284 6.75482 20.9589 0.785278 13.5951 0.785278C12.8382 0.785278 12.0962 0.848333 11.3738 0.969474V8.75122C12.0581 8.46768 12.8084 8.3112 13.5952 8.3112C16.8026 8.3112 19.4027 10.9113 19.4027 14.1187C19.4027 14.9055 19.2462 15.6558 18.9627 16.3401H26.7442Z" fill="#A0A2A7"/>
</svg>
