<svg width="265" height="80" viewBox="0 0 265 80" fill="none" xmlns="http://www.w3.org/2000/svg">
<path d="M109.755 71.1608L109.94 70.0537H115.757L115.572 71.1608H113.319L112.293 77.3443H110.983L112.009 71.1608H109.755ZM117.434 74.1404L116.907 77.3443H115.615L116.825 70.0537H118.089L117.633 72.8055H117.701C117.874 72.4946 118.11 72.2501 118.409 72.0721C118.711 71.8941 119.072 71.8052 119.495 71.8052C119.87 71.8052 120.185 71.8847 120.442 72.0437C120.698 72.2027 120.878 72.4352 120.983 72.7414C121.09 73.0475 121.107 73.4213 121.036 73.8627L120.452 77.3443H119.16L119.708 74.0621C119.768 73.6942 119.719 73.4083 119.563 73.2042C119.408 72.9977 119.164 72.8945 118.829 72.8945C118.599 72.8945 118.387 72.9443 118.192 73.044C117.997 73.1413 117.834 73.2825 117.701 73.4676C117.57 73.6527 117.481 73.877 117.434 74.1404ZM124.165 77.4511C123.617 77.4511 123.164 77.3371 122.806 77.1093C122.447 76.8791 122.196 76.554 122.051 76.1339C121.908 75.7115 121.885 75.2143 121.98 74.6423C122.072 74.0799 122.261 73.5863 122.546 73.1615C122.83 72.7343 123.186 72.402 123.614 72.1647C124.043 71.925 124.518 71.8052 125.038 71.8052C125.375 71.8052 125.684 71.8597 125.967 71.9689C126.249 72.0757 126.488 72.2418 126.682 72.4673C126.877 72.6927 127.011 72.9799 127.084 73.3288C127.158 73.6753 127.154 74.0882 127.074 74.5676L127.013 74.9627H122.528L122.667 74.0941H125.913C125.956 73.8473 125.942 73.6278 125.871 73.4356C125.799 73.241 125.681 73.0879 125.515 72.9763C125.348 72.8648 125.141 72.809 124.892 72.809C124.638 72.809 124.4 72.8743 124.18 73.0048C123.961 73.133 123.777 73.2991 123.628 73.5032C123.478 73.7073 123.383 73.9221 123.343 74.1475L123.197 74.9805C123.145 75.3223 123.157 75.6011 123.233 75.8171C123.309 76.0331 123.442 76.1921 123.631 76.2941C123.821 76.3962 124.061 76.4472 124.35 76.4472C124.54 76.4472 124.716 76.4211 124.877 76.3689C125.039 76.3167 125.182 76.2383 125.308 76.1339C125.436 76.0271 125.543 75.8966 125.628 75.7423L126.807 75.8776C126.676 76.1956 126.485 76.4733 126.234 76.7106C125.982 76.9456 125.681 77.1283 125.329 77.2588C124.981 77.387 124.593 77.4511 124.165 77.4511ZM132.02 74.1404L131.493 77.3443H130.201L131.112 71.8763H132.348L132.191 72.8055H132.259C132.43 72.4993 132.669 72.2561 132.978 72.0757C133.286 71.8953 133.646 71.8052 134.056 71.8052C134.429 71.8052 134.742 71.8858 134.996 72.0472C135.25 72.2062 135.43 72.44 135.537 72.7485C135.644 73.0547 135.661 73.4261 135.587 73.8627L135.003 77.3443H133.715L134.259 74.0621C134.321 73.699 134.275 73.4142 134.12 73.2077C133.969 72.9989 133.724 72.8945 133.387 72.8945C133.162 72.8945 132.954 72.9443 132.764 73.044C132.574 73.1413 132.414 73.2825 132.284 73.4676C132.155 73.6527 132.068 73.877 132.02 74.1404ZM138.713 77.4511C138.164 77.4511 137.711 77.3371 137.353 77.1093C136.994 76.8791 136.743 76.554 136.598 76.1339C136.456 75.7115 136.432 75.2143 136.527 74.6423C136.619 74.0799 136.808 73.5863 137.093 73.1615C137.378 72.7343 137.734 72.402 138.161 72.1647C138.59 71.925 139.065 71.8052 139.585 71.8052C139.922 71.8052 140.232 71.8597 140.514 71.9689C140.796 72.0757 141.035 72.2418 141.229 72.4673C141.424 72.6927 141.558 72.9799 141.632 73.3288C141.705 73.6753 141.702 74.0882 141.621 74.5676L141.561 74.9627H137.075L137.214 74.0941H140.461C140.503 73.8473 140.489 73.6278 140.418 73.4356C140.347 73.241 140.228 73.0879 140.062 72.9763C139.896 72.8648 139.688 72.809 139.439 72.809C139.185 72.809 138.948 72.8743 138.727 73.0048C138.509 73.133 138.325 73.2991 138.175 73.5032C138.026 73.7073 137.931 73.9221 137.89 74.1475L137.744 74.9805C137.692 75.3223 137.704 75.6011 137.78 75.8171C137.856 76.0331 137.989 76.1921 138.179 76.2941C138.369 76.3962 138.608 76.4472 138.898 76.4472C139.088 76.4472 139.263 76.4211 139.425 76.3689C139.586 76.3167 139.73 76.2383 139.855 76.1339C139.984 76.0271 140.09 75.8966 140.176 75.7423L141.354 75.8776C141.224 76.1956 141.032 76.4733 140.781 76.7106C140.529 76.9456 140.228 77.1283 139.877 77.2588C139.528 77.387 139.14 77.4511 138.713 77.4511ZM144.106 71.8763L144.875 73.8948L146.331 71.8763H147.694L145.59 74.6103L146.811 77.3443H145.455L144.626 75.3757L143.152 77.3443H141.785L143.906 74.6103L142.739 71.8763H144.106ZM151.421 71.8763L151.254 72.8731H148.114L148.278 71.8763H151.421ZM149.268 70.5663H150.556L149.702 75.6996C149.676 75.8729 149.681 76.0058 149.716 76.0983C149.754 76.1885 149.815 76.2502 149.898 76.2834C149.983 76.3167 150.079 76.3333 150.186 76.3333C150.264 76.3333 150.338 76.3273 150.407 76.3155C150.476 76.3012 150.53 76.2905 150.57 76.2834L150.627 77.2909C150.549 77.3146 150.444 77.3407 150.311 77.3692C150.18 77.3977 150.023 77.4143 149.841 77.419C149.513 77.4261 149.228 77.3763 148.986 77.2695C148.747 77.1603 148.571 76.993 148.459 76.7676C148.35 76.5397 148.325 76.255 148.385 75.9132L149.268 70.5663ZM157.716 71.8763L157.549 72.8731H154.409L154.573 71.8763H157.716ZM155.562 70.5663H156.851L155.997 75.6996C155.97 75.8729 155.975 76.0058 156.011 76.0983C156.049 76.1885 156.109 76.2502 156.192 76.2834C156.278 76.3167 156.374 76.3333 156.481 76.3333C156.559 76.3333 156.633 76.3273 156.701 76.3155C156.77 76.3012 156.825 76.2905 156.865 76.2834L156.922 77.2909C156.844 77.3146 156.738 77.3407 156.605 77.3692C156.475 77.3977 156.318 77.4143 156.135 77.419C155.808 77.4261 155.523 77.3763 155.281 77.2695C155.041 77.1603 154.866 76.993 154.754 76.7676C154.645 76.5397 154.62 76.255 154.679 75.9132L155.562 70.5663ZM160.23 77.4511C159.682 77.4511 159.229 77.3371 158.87 77.1093C158.512 76.8791 158.26 76.554 158.116 76.1339C157.973 75.7115 157.949 75.2143 158.044 74.6423C158.137 74.0799 158.326 73.5863 158.61 73.1615C158.895 72.7343 159.251 72.402 159.678 72.1647C160.108 71.925 160.583 71.8052 161.102 71.8052C161.439 71.8052 161.749 71.8597 162.031 71.9689C162.314 72.0757 162.552 72.2418 162.747 72.4673C162.942 72.6927 163.076 72.9799 163.149 73.3288C163.223 73.6753 163.219 74.0882 163.138 74.5676L163.078 74.9627H158.593L158.731 74.0941H161.978C162.021 73.8473 162.006 73.6278 161.935 73.4356C161.864 73.241 161.745 73.0879 161.579 72.9763C161.413 72.8648 161.206 72.809 160.956 72.809C160.702 72.809 160.465 72.8743 160.244 73.0048C160.026 73.133 159.842 73.2991 159.693 73.5032C159.543 73.7073 159.448 73.9221 159.408 74.1475L159.262 74.9805C159.21 75.3223 159.221 75.6011 159.297 75.8171C159.373 76.0331 159.506 76.1921 159.696 76.2941C159.886 76.3962 160.126 76.4472 160.415 76.4472C160.605 76.4472 160.781 76.4211 160.942 76.3689C161.103 76.3167 161.247 76.2383 161.373 76.1339C161.501 76.0271 161.608 75.8966 161.693 75.7423L162.872 75.8776C162.741 76.1956 162.55 76.4733 162.298 76.7106C162.047 76.9456 161.745 77.1283 161.394 77.2588C161.045 77.387 160.657 77.4511 160.23 77.4511ZM166.147 77.4511C165.601 77.4511 165.152 77.3312 164.801 77.0915C164.45 76.8518 164.204 76.5208 164.064 76.0983C163.926 75.6735 163.904 75.1846 163.996 74.6317C164.087 74.0763 164.273 73.5863 164.555 73.1615C164.84 72.7343 165.198 72.402 165.63 72.1647C166.062 71.925 166.545 71.8052 167.079 71.8052C167.523 71.8052 167.902 71.887 168.215 72.0508C168.53 72.2122 168.765 72.4412 168.92 72.7378C169.076 73.0321 169.137 73.3762 169.101 73.7702H167.866C167.861 73.5068 167.779 73.2872 167.62 73.1116C167.461 72.9336 167.229 72.8446 166.923 72.8446C166.657 72.8446 166.412 72.9158 166.189 73.0582C165.966 73.1982 165.778 73.4 165.623 73.6634C165.469 73.9268 165.362 74.2425 165.303 74.6103C165.241 74.9829 165.242 75.3033 165.306 75.5715C165.373 75.8373 165.493 76.0425 165.666 76.1873C165.842 76.3297 166.063 76.4009 166.332 76.4009C166.522 76.4009 166.698 76.3653 166.862 76.2941C167.026 76.2205 167.169 76.1149 167.293 75.9773C167.419 75.8396 167.517 75.6723 167.588 75.4753H168.82C168.723 75.8622 168.549 76.2051 168.3 76.5041C168.053 76.8008 167.747 77.0334 167.382 77.2019C167.016 77.368 166.605 77.4511 166.147 77.4511ZM171.384 74.1404L170.857 77.3443H169.565L170.775 70.0537H172.039L171.583 72.8055H171.651C171.824 72.4946 172.06 72.2501 172.359 72.0721C172.661 71.8941 173.023 71.8052 173.445 71.8052C173.82 71.8052 174.136 71.8847 174.392 72.0437C174.648 72.2027 174.829 72.4352 174.933 72.7414C175.04 73.0475 175.058 73.4213 174.987 73.8627L174.403 77.3443H173.11L173.659 74.0621C173.718 73.6942 173.669 73.4083 173.513 73.2042C173.358 72.9977 173.114 72.8945 172.779 72.8945C172.549 72.8945 172.337 72.9443 172.142 73.044C171.948 73.1413 171.784 73.2825 171.651 73.4676C171.52 73.6527 171.431 73.877 171.384 74.1404ZM180.602 77.4511C180.054 77.4511 179.601 77.3371 179.242 77.1093C178.884 76.8791 178.632 76.554 178.488 76.1339C178.345 75.7115 178.322 75.2143 178.416 74.6423C178.509 74.0799 178.698 73.5863 178.982 73.1615C179.267 72.7343 179.623 72.402 180.05 72.1647C180.48 71.925 180.955 71.8052 181.474 71.8052C181.811 71.8052 182.121 71.8597 182.403 71.9689C182.686 72.0757 182.924 72.2418 183.119 72.4673C183.314 72.6927 183.448 72.9799 183.521 73.3288C183.595 73.6753 183.591 74.0882 183.511 74.5676L183.45 74.9627H178.965L179.103 74.0941H182.35C182.393 73.8473 182.379 73.6278 182.307 73.4356C182.236 73.241 182.117 73.0879 181.951 72.9763C181.785 72.8648 181.578 72.809 181.328 72.809C181.074 72.809 180.837 72.8743 180.616 73.0048C180.398 73.133 180.214 73.2991 180.065 73.5032C179.915 73.7073 179.82 73.9221 179.78 74.1475L179.634 74.9805C179.582 75.3223 179.594 75.6011 179.669 75.8171C179.745 76.0331 179.878 76.1921 180.068 76.2941C180.258 76.3962 180.498 76.4472 180.787 76.4472C180.977 76.4472 181.153 76.4211 181.314 76.3689C181.476 76.3167 181.619 76.2383 181.745 76.1339C181.873 76.0271 181.98 75.8966 182.065 75.7423L183.244 75.8776C183.113 76.1956 182.922 76.4733 182.67 76.7106C182.419 76.9456 182.117 77.1283 181.766 77.2588C181.417 77.387 181.029 77.4511 180.602 77.4511ZM189.787 71.8763L186.928 77.3443H185.504L184.468 71.8763H185.792L186.376 75.9381H186.433L188.366 71.8763H189.787ZM191.98 77.4511C191.442 77.4511 190.993 77.3324 190.635 77.0951C190.279 76.8577 190.028 76.5243 189.884 76.0948C189.739 75.6652 189.713 75.1668 189.805 74.5996C189.898 74.0395 190.083 73.5495 190.361 73.1294C190.641 72.7094 190.993 72.3842 191.418 72.154C191.845 71.9214 192.323 71.8052 192.852 71.8052C193.391 71.8052 193.839 71.925 194.195 72.1647C194.551 72.402 194.801 72.7355 194.946 73.165C195.093 73.5946 195.12 74.0953 195.028 74.6673C194.937 75.225 194.751 75.7127 194.469 76.1304C194.189 76.548 193.836 76.8732 193.411 77.1058C192.987 77.336 192.51 77.4511 191.98 77.4511ZM192.087 76.4187C192.386 76.4187 192.648 76.338 192.874 76.1766C193.102 76.0129 193.288 75.7934 193.433 75.5181C193.58 75.2404 193.682 74.9319 193.739 74.5925C193.791 74.265 193.792 73.9683 193.742 73.7025C193.693 73.4344 193.586 73.222 193.422 73.0653C193.261 72.9063 193.036 72.8268 192.749 72.8268C192.45 72.8268 192.186 72.9099 191.955 73.076C191.728 73.2398 191.541 73.4605 191.396 73.7381C191.252 74.0134 191.152 74.3208 191.097 74.6601C191.043 74.9876 191.041 75.2843 191.09 75.5501C191.14 75.8159 191.247 76.0271 191.411 76.1838C191.574 76.3404 191.8 76.4187 192.087 76.4187ZM198.179 70.0537L196.969 77.3443H195.68L196.89 70.0537H198.179ZM202.16 75.0446L202.69 71.8763H203.979L203.067 77.3443H201.818L201.982 76.3724H201.925C201.754 76.6786 201.509 76.9289 201.191 77.1236C200.876 77.3182 200.513 77.4155 200.102 77.4155C199.744 77.4155 199.441 77.336 199.194 77.1769C198.948 77.0156 198.772 76.7818 198.667 76.4757C198.565 76.1671 198.55 75.7945 198.621 75.3579L199.205 71.8763H200.494L199.945 75.1585C199.891 75.505 199.941 75.7803 200.095 75.9844C200.252 76.1885 200.484 76.2905 200.793 76.2905C200.983 76.2905 201.174 76.2443 201.366 76.1517C201.56 76.0592 201.73 75.9215 201.875 75.7388C202.02 75.5537 202.115 75.3223 202.16 75.0446ZM208.034 71.8763L207.867 72.8731H204.727L204.891 71.8763H208.034ZM205.881 70.5663H207.169L206.315 75.6996C206.289 75.8729 206.294 76.0058 206.329 76.0983C206.367 76.1885 206.428 76.2502 206.511 76.2834C206.596 76.3167 206.692 76.3333 206.799 76.3333C206.877 76.3333 206.951 76.3273 207.02 76.3155C207.089 76.3012 207.143 76.2905 207.183 76.2834L207.24 77.2909C207.162 77.3146 207.057 77.3407 206.924 77.3692C206.793 77.3977 206.636 77.4143 206.454 77.419C206.126 77.4261 205.841 77.3763 205.599 77.2695C205.36 77.1603 205.184 76.993 205.072 76.7676C204.963 76.5397 204.938 76.255 204.998 75.9132L205.881 70.5663ZM208.201 77.3443L209.112 71.8763H210.401L209.489 77.3443H208.201ZM209.945 71.0932C209.739 71.0932 209.568 71.0244 209.432 70.8867C209.297 70.7491 209.238 70.5841 209.254 70.3919C209.271 70.1997 209.358 70.0347 209.514 69.8971C209.673 69.7594 209.855 69.6906 210.059 69.6906C210.265 69.6906 210.435 69.7594 210.568 69.8971C210.703 70.0347 210.763 70.1997 210.746 70.3919C210.732 70.5841 210.645 70.7491 210.486 70.8867C210.329 71.0244 210.149 71.0932 209.945 71.0932ZM213.214 77.4511C212.675 77.4511 212.227 77.3324 211.868 77.0951C211.512 76.8577 211.262 76.5243 211.117 76.0948C210.972 75.6652 210.946 75.1668 211.039 74.5996C211.131 74.0395 211.316 73.5495 211.594 73.1294C211.874 72.7094 212.227 72.3842 212.651 72.154C213.079 71.9214 213.557 71.8052 214.086 71.8052C214.625 71.8052 215.072 71.925 215.428 72.1647C215.784 72.402 216.034 72.7355 216.179 73.165C216.326 73.5946 216.354 74.0953 216.261 74.6673C216.171 75.225 215.985 75.7127 215.702 76.1304C215.422 76.548 215.07 76.8732 214.645 77.1058C214.22 77.336 213.743 77.4511 213.214 77.4511ZM213.321 76.4187C213.62 76.4187 213.882 76.338 214.107 76.1766C214.335 76.0129 214.521 75.7934 214.666 75.5181C214.813 75.2404 214.915 74.9319 214.972 74.5925C215.025 74.265 215.026 73.9683 214.976 73.7025C214.926 73.4344 214.819 73.222 214.656 73.0653C214.494 72.9063 214.27 72.8268 213.983 72.8268C213.684 72.8268 213.419 72.9099 213.189 73.076C212.961 73.2398 212.775 73.4605 212.63 73.7381C212.485 74.0134 212.386 74.3208 212.331 74.6601C212.276 74.9876 212.274 75.2843 212.324 75.5501C212.374 75.8159 212.481 76.0271 212.644 76.1838C212.808 76.3404 213.033 76.4187 213.321 76.4187ZM218.736 74.1404L218.209 77.3443H216.917L217.828 71.8763H219.064L218.907 72.8055H218.975C219.145 72.4993 219.385 72.2561 219.694 72.0757C220.002 71.8953 220.362 71.8052 220.772 71.8052C221.145 71.8052 221.458 71.8858 221.712 72.0472C221.966 72.2062 222.146 72.44 222.253 72.7485C222.36 73.0547 222.377 73.4261 222.303 73.8627L221.719 77.3443H220.431L220.975 74.0621C221.037 73.699 220.991 73.4142 220.836 73.2077C220.684 72.9989 220.44 72.8945 220.103 72.8945C219.878 72.8945 219.67 72.9443 219.48 73.044C219.29 73.1413 219.13 73.2825 218.999 73.4676C218.871 73.6527 218.784 73.877 218.736 74.1404ZM223.891 77.4226C223.672 77.4226 223.492 77.3466 223.35 77.1947C223.207 77.0429 223.141 76.8577 223.15 76.6394C223.16 76.4258 223.246 76.2443 223.41 76.0948C223.574 75.9452 223.763 75.8705 223.976 75.8705C224.187 75.8705 224.367 75.9464 224.514 76.0983C224.663 76.2502 224.731 76.4306 224.717 76.6394C224.707 76.7866 224.662 76.9195 224.581 77.0381C224.503 77.1568 224.403 77.2505 224.282 77.3193C224.161 77.3882 224.031 77.4226 223.891 77.4226ZM226.798 77.4226C226.58 77.4226 226.399 77.3466 226.257 77.1947C226.115 77.0429 226.048 76.8577 226.058 76.6394C226.067 76.4258 226.154 76.2443 226.318 76.0948C226.481 75.9452 226.67 75.8705 226.884 75.8705C227.095 75.8705 227.274 75.9464 227.421 76.0983C227.571 76.2502 227.638 76.4306 227.624 76.6394C227.615 76.7866 227.569 76.9195 227.489 77.0381C227.41 77.1568 227.311 77.2505 227.19 77.3193C227.069 77.3882 226.938 77.4226 226.798 77.4226ZM229.706 77.4226C229.487 77.4226 229.307 77.3466 229.165 77.1947C229.022 77.0429 228.956 76.8577 228.965 76.6394C228.975 76.4258 229.061 76.2443 229.225 76.0948C229.389 75.9452 229.578 75.8705 229.791 75.8705C230.002 75.8705 230.182 75.9464 230.329 76.0983C230.478 76.2502 230.546 76.4306 230.532 76.6394C230.522 76.7866 230.477 76.9195 230.396 77.0381C230.318 77.1568 230.218 77.2505 230.097 77.3193C229.976 77.3882 229.846 77.4226 229.706 77.4226Z" fill="black"/>
<rect x="30.4133" y="69.1547" width="20.8967" height="3.21646" rx="1.41903" fill="#4AB68E" stroke="white" stroke-width="0.946018"/>
<rect x="30.4133" y="74.0748" width="18.8254" height="3.21646" rx="1.41903" fill="#4AB68E" stroke="white" stroke-width="0.946018"/>
<rect x="52.8208" y="69.1547" width="3.94976" height="3.21646" rx="1.41903" fill="#4AB68E" stroke="white" stroke-width="0.946018"/>
<rect x="58.0921" y="69.1547" width="16.9424" height="3.21646" rx="1.41903" fill="#4AB68E" stroke="white" stroke-width="0.946018"/>
<rect x="25.8936" y="64.234" width="54.4139" height="3.21646" rx="1.41903" fill="#4AB68E" stroke="white" stroke-width="0.946018"/>
<rect x="23.4443" y="59.3161" width="62.5107" height="3.21646" rx="1.41903" fill="#4AB68E" stroke="white" stroke-width="0.946018"/>
<rect x="20.245" y="54.3969" width="68.7246" height="3.21646" rx="1.41903" fill="#4AB68E" stroke="white" stroke-width="0.946018"/>
<rect x="24.5757" y="49.4765" width="66.465" height="3.21646" rx="1.41903" fill="#4AB68E" stroke="white" stroke-width="0.946018"/>
<rect x="16.6685" y="44.5573" width="74.3736" height="3.21646" rx="1.41903" fill="#4AB68E" stroke="white" stroke-width="0.946018"/>
<rect x="13.0889" y="39.6366" width="33.1361" height="3.21646" rx="1.41903" fill="#4AB68E" stroke="white" stroke-width="0.946018"/>
<rect x="52.2556" y="39.6366" width="17.8839" height="3.21646" rx="1.41903" fill="#4AB68E" stroke="white" stroke-width="0.946018"/>
<rect x="75.9811" y="39.6366" width="16.1892" height="3.21646" rx="1.41903" fill="#4AB68E" stroke="white" stroke-width="0.946018"/>
<rect x="75.9811" y="39.6366" width="17.8839" height="3.21646" rx="1.41903" fill="#4AB68E" stroke="white" stroke-width="0.946018"/>
<rect x="58.0921" y="35.4766" width="4.89125" height="3.21646" rx="1.41903" fill="#4AB68E" stroke="white" stroke-width="0.946018"/>
<rect x="81.6296" y="34.7184" width="16.3775" height="3.21646" rx="1.41903" fill="#4AB68E" stroke="white" stroke-width="0.946018"/>
<rect x="84.6423" y="29.7995" width="18.0722" height="3.21646" rx="1.41903" fill="#4AB68E" stroke="white" stroke-width="0.946018"/>
<rect x="82.759" y="24.8791" width="21.085" height="3.21646" rx="1.41903" fill="#4AB68E" stroke="white" stroke-width="0.946018"/>
<rect x="88.598" y="19.9612" width="6.58594" height="3.21646" rx="1.41903" fill="#4AB68E" stroke="white" stroke-width="0.946018"/>
<rect x="9.1351" y="34.7184" width="38.2202" height="3.21646" rx="1.41903" fill="#4AB68E" stroke="white" stroke-width="0.946018"/>
<rect x="4.99278" y="29.7995" width="41.233" height="3.21646" rx="1.41903" fill="#4AB68E" stroke="white" stroke-width="0.946018"/>
<rect x="4.99278" y="24.8791" width="41.233" height="3.21646" rx="1.41903" fill="#4AB68E" stroke="white" stroke-width="0.946018"/>
<rect x="0.473009" y="19.9611" width="45.7521" height="3.21646" rx="1.41903" fill="#4AB68E" stroke="white" stroke-width="0.946018"/>
<rect x="4.99278" y="15.0414" width="42.3627" height="3.21646" rx="1.41903" fill="#4AB68E" stroke="white" stroke-width="0.946018"/>
<rect x="10.6406" y="10.1238" width="8.65723" height="3.21646" rx="1.41903" fill="#4AB68E" stroke="white" stroke-width="0.946018"/>
<rect x="23.8223" y="10.1238" width="19.202" height="3.21646" rx="1.41903" fill="#4AB68E" stroke="white" stroke-width="0.946018"/>
<rect x="25.8936" y="5.2012" width="7.33914" height="3.21646" rx="1.41903" fill="#4AB68E" stroke="white" stroke-width="0.946018"/>
<rect x="26.6457" y="0.473009" width="5.26785" height="3.21646" rx="1.41903" fill="#4AB68E" stroke="white" stroke-width="0.946018"/>
<rect x="30.4133" y="69.1547" width="20.8967" height="3.21646" rx="1.41903" fill="#4AB68E" stroke="white" stroke-width="0.946018"/>
<rect x="30.4133" y="74.0748" width="18.8254" height="3.21646" rx="1.41903" fill="#4AB68E" stroke="white" stroke-width="0.946018"/>
<rect x="52.8208" y="69.1547" width="3.94976" height="3.21646" rx="1.41903" fill="#4AB68E" stroke="white" stroke-width="0.946018"/>
<rect x="58.0921" y="69.1547" width="16.9424" height="3.21646" rx="1.41903" fill="#4AB68E" stroke="white" stroke-width="0.946018"/>
<rect x="25.8936" y="64.234" width="54.4139" height="3.21646" rx="1.41903" fill="#4AB68E" stroke="white" stroke-width="0.946018"/>
<rect x="23.4443" y="59.3161" width="62.5107" height="3.21646" rx="1.41903" fill="#4AB68E" stroke="white" stroke-width="0.946018"/>
<rect x="20.245" y="54.3969" width="68.7246" height="3.21646" rx="1.41903" fill="#4AB68E" stroke="white" stroke-width="0.946018"/>
<rect x="24.5757" y="49.4765" width="66.465" height="3.21646" rx="1.41903" fill="#4AB68E" stroke="white" stroke-width="0.946018"/>
<rect x="16.6685" y="44.5573" width="74.3736" height="3.21646" rx="1.41903" fill="#4AB68E" stroke="white" stroke-width="0.946018"/>
<rect x="13.0889" y="39.6366" width="33.1361" height="3.21646" rx="1.41903" fill="#4AB68E" stroke="white" stroke-width="0.946018"/>
<rect x="52.2556" y="39.6366" width="17.8839" height="3.21646" rx="1.41903" fill="#4AB68E" stroke="white" stroke-width="0.946018"/>
<rect x="75.9811" y="39.6366" width="16.1892" height="3.21646" rx="1.41903" fill="#4AB68E" stroke="white" stroke-width="0.946018"/>
<rect x="75.9811" y="39.6366" width="17.8839" height="3.21646" rx="1.41903" fill="#4AB68E" stroke="white" stroke-width="0.946018"/>
<rect x="58.0921" y="35.4766" width="4.89125" height="3.21646" rx="1.41903" fill="#4AB68E" stroke="white" stroke-width="0.946018"/>
<rect x="81.6296" y="34.7184" width="16.3775" height="3.21646" rx="1.41903" fill="#4AB68E" stroke="white" stroke-width="0.946018"/>
<rect x="84.6423" y="29.7995" width="18.0722" height="3.21646" rx="1.41903" fill="#4AB68E" stroke="white" stroke-width="0.946018"/>
<rect x="82.759" y="24.8791" width="21.085" height="3.21646" rx="1.41903" fill="#4AB68E" stroke="white" stroke-width="0.946018"/>
<rect x="88.598" y="19.9612" width="6.58594" height="3.21646" rx="1.41903" fill="#4AB68E" stroke="white" stroke-width="0.946018"/>
<rect x="9.1351" y="34.7184" width="38.2202" height="3.21646" rx="1.41903" fill="#4AB68E" stroke="white" stroke-width="0.946018"/>
<rect x="4.99278" y="29.7995" width="41.233" height="3.21646" rx="1.41903" fill="#4AB68E" stroke="white" stroke-width="0.946018"/>
<rect x="4.99278" y="24.8791" width="41.233" height="3.21646" rx="1.41903" fill="#4AB68E" stroke="white" stroke-width="0.946018"/>
<rect x="0.473009" y="19.9611" width="45.7521" height="3.21646" rx="1.41903" fill="#4AB68E" stroke="white" stroke-width="0.946018"/>
<rect x="4.99278" y="15.0414" width="42.3627" height="3.21646" rx="1.41903" fill="#4AB68E" stroke="white" stroke-width="0.946018"/>
<rect x="10.6406" y="10.1238" width="8.65723" height="3.21646" rx="1.41903" fill="#4AB68E" stroke="white" stroke-width="0.946018"/>
<rect x="23.8223" y="10.1238" width="19.202" height="3.21646" rx="1.41903" fill="#4AB68E" stroke="white" stroke-width="0.946018"/>
<rect x="25.8936" y="5.2012" width="7.33914" height="3.21646" rx="1.41903" fill="#4AB68E" stroke="white" stroke-width="0.946018"/>
<rect x="26.6457" y="0.473009" width="5.26785" height="3.21646" rx="1.41903" fill="#4AB68E" stroke="white" stroke-width="0.946018"/>
<path d="M119.81 21.4255C119.752 20.785 119.493 20.2871 119.033 19.9319C118.578 19.5709 117.929 19.3903 117.085 19.3903C116.526 19.3903 116.06 19.4631 115.687 19.6087C115.314 19.7543 115.035 19.9552 114.849 20.2114C114.662 20.4618 114.566 20.75 114.56 21.0761C114.549 21.344 114.601 21.5798 114.718 21.7836C114.84 21.9874 115.015 22.1679 115.242 22.3251C115.475 22.4765 115.754 22.6105 116.08 22.7269C116.406 22.8434 116.773 22.9453 117.181 23.0326L118.718 23.382C119.603 23.5742 120.383 23.8304 121.059 24.1507C121.74 24.4709 122.311 24.8523 122.771 25.2949C123.237 25.7374 123.589 26.247 123.828 26.8234C124.067 27.3999 124.189 28.0463 124.195 28.7625C124.189 29.8922 123.903 30.8617 123.339 31.6711C122.774 32.4805 121.961 33.1007 120.902 33.5316C119.848 33.9625 118.575 34.1779 117.085 34.1779C115.588 34.1779 114.284 33.9537 113.172 33.5054C112.059 33.057 111.195 32.3757 110.577 31.4615C109.96 30.5473 109.643 29.3914 109.625 27.9939H113.766C113.801 28.5703 113.955 29.0507 114.229 29.4351C114.502 29.8194 114.878 30.1105 115.355 30.3085C115.839 30.5065 116.398 30.6055 117.032 30.6055C117.615 30.6055 118.11 30.5269 118.517 30.3697C118.931 30.2124 119.248 29.9941 119.469 29.7146C119.691 29.4351 119.804 29.1148 119.81 28.7538C119.804 28.416 119.699 28.1278 119.495 27.889C119.292 27.6445 118.977 27.4349 118.552 27.2602C118.133 27.0796 117.597 26.9137 116.945 26.7623L115.076 26.3256C113.527 25.9704 112.307 25.3968 111.416 24.6049C110.525 23.8071 110.083 22.7298 110.088 21.3731C110.083 20.2667 110.379 19.2972 110.979 18.4645C111.579 17.6318 112.409 16.9825 113.469 16.5167C114.528 16.0508 115.737 15.8179 117.093 15.8179C118.479 15.8179 119.682 16.0537 120.701 16.5254C121.726 16.9912 122.52 17.6463 123.085 18.4907C123.65 19.335 123.938 20.3133 123.95 21.4255H119.81ZM125.793 19.5738V16.0625H140.913V19.5738H135.488V33.9508H131.226V19.5738H125.793ZM144.66 33.9508H140.013L146.048 16.0625H151.805L157.84 33.9508H153.193L148.992 20.5695H148.852L144.66 33.9508ZM144.04 26.9108H153.752V30.195H144.04V26.9108ZM159.766 33.9508V16.0625H167.155C168.495 16.0625 169.651 16.3041 170.623 16.7874C171.601 17.2649 172.355 17.952 172.885 18.8488C173.415 19.7397 173.68 20.7966 173.68 22.0194C173.68 23.2597 173.409 24.3137 172.868 25.1813C172.326 26.0431 171.558 26.7011 170.562 27.1553C169.566 27.6037 168.387 27.8279 167.024 27.8279H162.351V24.4214H166.221C166.873 24.4214 167.418 24.337 167.854 24.1681C168.297 23.9934 168.632 23.7314 168.859 23.382C169.086 23.0268 169.199 22.5726 169.199 22.0194C169.199 21.4662 169.086 21.0091 168.859 20.6481C168.632 20.2813 168.297 20.0076 167.854 19.8271C167.412 19.6407 166.867 19.5476 166.221 19.5476H164.09V33.9508H159.766ZM169.837 25.7753L174.292 33.9508H169.575L165.208 25.7753H169.837ZM175.466 19.5738V16.0625H190.586V19.5738H185.162V33.9508H180.899V19.5738H175.466ZM203.52 16.0625H207.834V27.6008C207.834 28.9343 207.517 30.096 206.882 31.0859C206.248 32.07 205.363 32.8328 204.227 33.3743C203.092 33.9101 201.773 34.1779 200.27 34.1779C198.75 34.1779 197.423 33.9101 196.287 33.3743C195.152 32.8328 194.27 32.07 193.641 31.0859C193.012 30.096 192.697 28.9343 192.697 27.6008V16.0625H197.021V27.2252C197.021 27.8425 197.155 28.3927 197.423 28.8761C197.697 29.3594 198.078 29.7379 198.567 30.0115C199.056 30.2852 199.624 30.4221 200.27 30.4221C200.917 30.4221 201.481 30.2852 201.965 30.0115C202.454 29.7379 202.835 29.3594 203.109 28.8761C203.383 28.3927 203.52 27.8425 203.52 27.2252V16.0625ZM210.544 33.9508V16.0625H217.934C219.273 16.0625 220.429 16.3245 221.401 16.8486C222.38 17.3668 223.134 18.0918 223.664 19.0235C224.193 19.9493 224.458 21.0266 224.458 22.2553C224.458 23.4897 224.188 24.5699 223.646 25.4958C223.11 26.4158 222.345 27.1291 221.349 27.6357C220.353 28.1423 219.171 28.3957 217.803 28.3957H213.243V24.9892H216.999C217.651 24.9892 218.196 24.8756 218.632 24.6485C219.075 24.4214 219.41 24.1041 219.637 23.6965C219.864 23.283 219.978 22.8026 219.978 22.2553C219.978 21.7021 219.864 21.2246 219.637 20.8228C219.41 20.4152 219.075 20.1007 218.632 19.8795C218.19 19.6582 217.645 19.5476 216.999 19.5476H214.868V33.9508H210.544Z" fill="#0D726F"/>
<path d="M124.455 55.967C124.455 56.2457 124.356 56.4835 124.16 56.6803C123.979 56.8606 123.75 56.9508 123.471 56.9508H120.987C120.692 56.9508 120.413 56.918 120.15 56.8524C119.904 56.7704 119.683 56.5081 119.486 56.0653L114.026 44.0869C113.96 43.9557 113.887 43.8901 113.805 43.8901C113.723 43.8901 113.682 43.9557 113.682 44.0869V56.4589C113.682 56.5901 113.632 56.7049 113.534 56.8032C113.452 56.9016 113.345 56.9508 113.214 56.9508H111.124C110.992 56.9508 110.878 56.9016 110.779 56.8032C110.681 56.7049 110.632 56.5901 110.632 56.4589V39.6595C110.632 39.3807 110.722 39.1512 110.902 38.9708C111.099 38.774 111.337 38.6756 111.615 38.6756H114.272C114.534 38.6756 114.739 38.7248 114.887 38.8232C115.051 38.9216 115.207 39.1348 115.354 39.4627L121.085 52.1053C121.134 52.2365 121.2 52.3021 121.282 52.3021C121.364 52.3021 121.405 52.2283 121.405 52.0807V39.143C121.405 38.8314 121.561 38.6756 121.872 38.6756H123.988C124.299 38.6756 124.455 38.8314 124.455 39.143V55.967ZM131.561 56.4589C131.561 56.5901 131.512 56.7049 131.414 56.8032C131.315 56.9016 131.2 56.9508 131.069 56.9508H128.634C128.503 56.9508 128.388 56.9016 128.29 56.8032C128.191 56.7049 128.142 56.5901 128.142 56.4589V39.143C128.142 39.0118 128.191 38.9052 128.29 38.8232C128.388 38.7248 128.503 38.6756 128.634 38.6756H131.069C131.2 38.6756 131.315 38.7248 131.414 38.8232C131.512 38.9052 131.561 39.0118 131.561 39.143V56.4589ZM147.181 56.1391C147.181 56.4671 147.026 56.6639 146.714 56.7295C146.091 56.8606 145.361 56.959 144.525 57.0246C143.689 57.1066 142.631 57.1476 141.352 57.1476C140.696 57.1476 139.983 57.0246 139.212 56.7786C138.441 56.5327 137.72 56.1227 137.048 55.5488C136.392 54.9749 135.842 54.2042 135.4 53.2368C134.973 52.2529 134.76 51.0395 134.76 49.5965V46.0546C134.76 44.5952 134.965 43.3818 135.375 42.4143C135.801 41.4468 136.343 40.6762 136.998 40.1022C137.654 39.5119 138.368 39.0938 139.138 38.8478C139.925 38.6019 140.688 38.4789 141.426 38.4789C142.016 38.4789 142.582 38.4953 143.123 38.5281C143.681 38.5609 144.189 38.6019 144.648 38.651C145.107 38.7002 145.517 38.7494 145.878 38.7986C146.239 38.8478 146.517 38.8888 146.714 38.9216C147.026 38.9872 147.181 39.1594 147.181 39.4381V41.0861C147.181 41.2665 147.149 41.3977 147.083 41.4796C147.017 41.5616 146.886 41.6026 146.689 41.6026H146.616C146.042 41.5534 145.328 41.5124 144.476 41.4796C143.623 41.4304 142.606 41.4058 141.426 41.4058C141.016 41.4058 140.614 41.4878 140.221 41.6518C139.843 41.7994 139.499 42.0536 139.188 42.4143C138.892 42.7751 138.655 43.2588 138.474 43.8655C138.294 44.4558 138.204 45.1855 138.204 46.0546V49.5965C138.204 50.4656 138.294 51.1952 138.474 51.7856C138.671 52.3759 138.917 52.8514 139.212 53.2122C139.524 53.5729 139.868 53.8353 140.245 53.9992C140.622 54.1468 140.991 54.2206 141.352 54.2206C142.221 54.2206 143.033 54.196 143.787 54.1468V47.8747C143.787 47.7435 143.828 47.6288 143.91 47.5304C144.008 47.432 144.123 47.3828 144.254 47.3828H146.689C146.821 47.3828 146.935 47.432 147.034 47.5304C147.132 47.6288 147.181 47.7435 147.181 47.8747V56.1391ZM161.712 56.2867C161.712 56.4671 161.671 56.5901 161.589 56.6557C161.524 56.7213 161.401 56.7704 161.22 56.8032C161.023 56.836 160.802 56.877 160.556 56.9262C160.327 56.959 160.031 56.9918 159.671 57.0246C159.326 57.0574 158.9 57.082 158.392 57.0984C157.9 57.1312 157.285 57.1476 156.547 57.1476C155.743 57.1476 154.997 57.082 154.309 56.9508C153.62 56.8196 153.021 56.5737 152.513 56.2129C152.005 55.8358 151.603 55.3193 151.308 54.6633C151.013 54.0074 150.865 53.1548 150.865 52.1053V43.5211C150.865 42.4717 151.013 41.619 151.308 40.9631C151.603 40.3072 152.005 39.7989 152.513 39.4381C153.021 39.061 153.62 38.8068 154.309 38.6756C154.997 38.5445 155.743 38.4789 156.547 38.4789C157.285 38.4789 157.9 38.4953 158.392 38.5281C158.9 38.5445 159.326 38.5691 159.671 38.6019C160.031 38.6346 160.327 38.6756 160.556 38.7248C160.802 38.7576 161.023 38.7904 161.22 38.8232C161.401 38.856 161.524 38.9052 161.589 38.9708C161.671 39.0364 161.712 39.1594 161.712 39.3397V40.9139C161.712 41.0451 161.663 41.1599 161.565 41.2583C161.466 41.3567 161.351 41.4058 161.22 41.4058H156.203C155.481 41.4058 154.973 41.5534 154.678 41.8486C154.399 42.1437 154.259 42.7013 154.259 43.5211V46.1776H160.925C161.056 46.1776 161.171 46.2268 161.269 46.3251C161.368 46.4235 161.417 46.5383 161.417 46.6695V48.4404C161.417 48.5716 161.368 48.6864 161.269 48.7848C161.171 48.8832 161.056 48.9324 160.925 48.9324H154.259V52.1053C154.259 52.9252 154.399 53.4827 154.678 53.7779C154.973 54.073 155.481 54.2206 156.203 54.2206H161.22C161.351 54.2206 161.466 54.2698 161.565 54.3682C161.663 54.4666 161.712 54.5814 161.712 54.7125V56.2867ZM178.319 56.6557C178.319 56.8524 178.221 56.9508 178.024 56.9508H175.023C174.892 56.9508 174.794 56.9016 174.728 56.8032C174.662 56.7049 174.597 56.5901 174.531 56.4589L170.989 49.8916H170.645C170.317 49.8916 169.94 49.8834 169.513 49.867C169.087 49.8342 168.735 49.8096 168.456 49.7932V56.4589C168.456 56.5901 168.407 56.7049 168.308 56.8032C168.226 56.9016 168.12 56.9508 167.988 56.9508H165.529C165.398 56.9508 165.283 56.9016 165.184 56.8032C165.086 56.7049 165.037 56.5901 165.037 56.4589V39.5365C165.037 39.2906 165.102 39.1184 165.234 39.02C165.381 38.9052 165.578 38.8314 165.824 38.7986C166.464 38.7002 167.201 38.6264 168.038 38.5773C168.874 38.5117 169.743 38.4789 170.645 38.4789C171.596 38.4789 172.498 38.5773 173.351 38.774C174.203 38.9544 174.949 39.2578 175.589 39.6841C176.245 40.1104 176.761 40.6844 177.138 41.4058C177.532 42.1109 177.729 42.9882 177.729 44.0377V44.259C177.729 45.5709 177.425 46.6367 176.819 47.4566C176.228 48.2765 175.425 48.8832 174.408 49.2767L178.27 56.4589C178.303 56.5081 178.319 56.5737 178.319 56.6557ZM174.334 44.0377C174.334 43.103 174.023 42.4307 173.4 42.0208C172.793 41.6108 171.875 41.4058 170.645 41.4058C170.514 41.4058 170.342 41.414 170.128 41.4304C169.932 41.4304 169.727 41.4386 169.513 41.455C169.3 41.455 169.095 41.4632 168.899 41.4796C168.718 41.4796 168.571 41.4878 168.456 41.5042V47.0384C168.554 47.0384 168.702 47.0466 168.899 47.063C169.112 47.063 169.325 47.0712 169.538 47.0876C169.768 47.0876 169.981 47.0958 170.178 47.1122C170.391 47.1122 170.547 47.1122 170.645 47.1122C171.924 47.1122 172.859 46.9073 173.449 46.4973C174.039 46.0874 174.334 45.3413 174.334 44.259V44.0377ZM200.464 49.6211C200.464 52.0643 199.791 53.9337 198.447 55.2291C197.119 56.5081 195.216 57.1476 192.74 57.1476C192.298 57.1476 191.83 57.1394 191.338 57.123C190.863 57.1066 190.396 57.082 189.936 57.0492C189.494 57.0164 189.084 56.9836 188.707 56.9508C188.346 56.918 188.075 56.8852 187.895 56.8524C187.682 56.8196 187.518 56.7459 187.403 56.6311C187.305 56.5163 187.255 56.3359 187.255 56.0899V39.5365C187.255 39.2906 187.305 39.1102 187.403 38.9954C187.518 38.8806 187.682 38.8068 187.895 38.774C188.075 38.7412 188.346 38.7084 188.707 38.6756C189.084 38.6428 189.494 38.61 189.936 38.5773C190.396 38.5445 190.863 38.5199 191.338 38.5035C191.83 38.4871 192.298 38.4789 192.74 38.4789C195.216 38.4789 197.119 39.1266 198.447 40.422C199.791 41.701 200.464 43.5621 200.464 46.0054V49.6211ZM197.069 46.0054C197.069 45.0871 196.955 44.3328 196.725 43.7425C196.512 43.1358 196.209 42.6603 195.815 42.3159C195.438 41.9552 194.987 41.7092 194.462 41.578C193.937 41.4304 193.364 41.3567 192.74 41.3567C192.281 41.3567 191.888 41.3649 191.56 41.3813C191.232 41.3977 190.937 41.414 190.674 41.4304V54.196C190.937 54.2124 191.232 54.2288 191.56 54.2452C191.888 54.2616 192.281 54.2698 192.74 54.2698C193.364 54.2698 193.937 54.2042 194.462 54.073C194.987 53.9255 195.438 53.6795 195.815 53.3351C196.209 52.9744 196.512 52.4989 196.725 51.9085C196.955 51.3018 197.069 50.5393 197.069 49.6211V46.0054ZM214.508 56.2867C214.508 56.4671 214.467 56.5901 214.385 56.6557C214.32 56.7213 214.197 56.7704 214.016 56.8032C213.819 56.836 213.598 56.877 213.352 56.9262C213.122 56.959 212.827 56.9918 212.467 57.0246C212.122 57.0574 211.696 57.082 211.188 57.0984C210.696 57.1312 210.081 57.1476 209.343 57.1476C208.539 57.1476 207.793 57.082 207.105 56.9508C206.416 56.8196 205.817 56.5737 205.309 56.2129C204.801 55.8358 204.399 55.3193 204.104 54.6633C203.809 54.0074 203.661 53.1548 203.661 52.1053V43.5211C203.661 42.4717 203.809 41.619 204.104 40.9631C204.399 40.3072 204.801 39.7989 205.309 39.4381C205.817 39.061 206.416 38.8068 207.105 38.6756C207.793 38.5445 208.539 38.4789 209.343 38.4789C210.081 38.4789 210.696 38.4953 211.188 38.5281C211.696 38.5445 212.122 38.5691 212.467 38.6019C212.827 38.6346 213.122 38.6756 213.352 38.7248C213.598 38.7576 213.819 38.7904 214.016 38.8232C214.197 38.856 214.32 38.9052 214.385 38.9708C214.467 39.0364 214.508 39.1594 214.508 39.3397V40.9139C214.508 41.0451 214.459 41.1599 214.361 41.2583C214.262 41.3567 214.147 41.4058 214.016 41.4058H208.998C208.277 41.4058 207.769 41.5534 207.474 41.8486C207.195 42.1437 207.055 42.7013 207.055 43.5211V46.1776H213.721C213.852 46.1776 213.967 46.2268 214.065 46.3251C214.164 46.4235 214.213 46.5383 214.213 46.6695V48.4404C214.213 48.5716 214.164 48.6864 214.065 48.7848C213.967 48.8832 213.852 48.9324 213.721 48.9324H207.055V52.1053C207.055 52.9252 207.195 53.4827 207.474 53.7779C207.769 54.073 208.277 54.2206 208.998 54.2206H214.016C214.147 54.2206 214.262 54.2698 214.361 54.3682C214.459 54.4666 214.508 54.5814 214.508 54.7125V56.2867ZM228.188 56.2867C228.188 56.4671 228.147 56.5901 228.065 56.6557C227.999 56.7213 227.876 56.7704 227.696 56.8032C227.516 56.8524 227.253 56.9016 226.909 56.9508C226.581 56.9836 226.22 57.0164 225.827 57.0492C225.433 57.082 225.031 57.1066 224.621 57.123C224.212 57.1394 223.843 57.1476 223.515 57.1476C222.711 57.1476 221.965 57.082 221.276 56.9508C220.588 56.8196 219.989 56.5737 219.481 56.2129C218.972 55.8358 218.571 55.3193 218.276 54.6633C217.98 54.0074 217.833 53.1548 217.833 52.1053V39.1676C217.833 39.0364 217.882 38.9216 217.98 38.8232C218.079 38.7248 218.194 38.6756 218.325 38.6756H220.76C220.891 38.6756 221.006 38.7248 221.104 38.8232C221.203 38.9216 221.252 39.0364 221.252 39.1676V52.1053C221.252 52.9252 221.391 53.4827 221.67 53.7779C221.949 54.073 222.449 54.2206 223.17 54.2206H227.696C227.827 54.2206 227.942 54.2698 228.04 54.3682C228.139 54.4666 228.188 54.5814 228.188 54.7125V56.2867ZM242.297 41.0861C242.297 41.2173 242.248 41.3239 242.15 41.4058C242.051 41.4878 241.936 41.5288 241.805 41.5288H237.501V56.4589C237.501 56.5901 237.452 56.7049 237.353 56.8032C237.255 56.9016 237.14 56.9508 237.009 56.9508H234.574C234.443 56.9508 234.328 56.9016 234.229 56.8032C234.131 56.7049 234.082 56.5901 234.082 56.4589V41.5288H229.778C229.646 41.5288 229.532 41.4878 229.433 41.4058C229.335 41.3239 229.286 41.2173 229.286 41.0861V39.143C229.286 39.0118 229.335 38.9052 229.433 38.8232C229.532 38.7248 229.646 38.6756 229.778 38.6756H241.805C241.936 38.6756 242.051 38.7248 242.15 38.8232C242.248 38.9052 242.297 39.0118 242.297 39.143V41.0861ZM258.337 56.5327C258.337 56.6639 258.296 56.7704 258.214 56.8524C258.132 56.918 258.025 56.9508 257.894 56.9508H255.287C255.172 56.9508 255.073 56.9098 254.991 56.8278C254.909 56.7459 254.852 56.6475 254.819 56.5327L253.688 51.8594H248.031L246.899 56.5327C246.866 56.6475 246.809 56.7459 246.727 56.8278C246.645 56.9098 246.547 56.9508 246.432 56.9508H243.825C243.693 56.9508 243.587 56.918 243.505 56.8524C243.423 56.7704 243.382 56.6639 243.382 56.5327C243.382 56.5163 243.382 56.4999 243.382 56.4835C243.398 56.4671 243.406 56.4425 243.406 56.4097L247.44 40.9877C247.588 40.4138 247.801 39.9629 248.08 39.6349C248.359 39.3069 248.654 39.061 248.965 38.897C249.293 38.7166 249.621 38.6019 249.949 38.5527C250.293 38.5035 250.597 38.4789 250.859 38.4789C251.122 38.4789 251.417 38.5035 251.745 38.5527C252.089 38.6019 252.417 38.7166 252.729 38.897C253.056 39.061 253.36 39.3069 253.639 39.6349C253.917 39.9629 254.131 40.4138 254.278 40.9877L258.312 56.4097C258.312 56.4425 258.312 56.4671 258.312 56.4835C258.328 56.4999 258.337 56.5163 258.337 56.5327ZM251.253 41.7502C251.22 41.6026 251.179 41.5042 251.13 41.455C251.081 41.3895 250.99 41.3567 250.859 41.3567C250.728 41.3567 250.638 41.3895 250.589 41.455C250.539 41.5042 250.498 41.6026 250.466 41.7502L248.695 49.0554H253.024L251.253 41.7502Z" fill="#FAAC04"/>
<path d="M255.647 61.4004H258.108C258.61 61.4004 259.016 61.807 259.016 62.3087V62.9851C259.016 63.4867 258.61 63.8934 258.108 63.8934H255.647V61.4004Z" fill="#FAAC04"/>
<path d="M255.647 67.6655H258.108C258.61 67.6655 259.016 68.0722 259.016 68.5738V69.2502C259.016 69.7519 258.61 70.1586 258.108 70.1586H255.647V67.6655Z" fill="#FAAC04"/>
<path d="M255.647 71.4243H249.802C248.209 71.4243 246.918 70.1331 246.918 68.5406V67.2837H27.7842C26.9679 67.2837 26.3058 66.6224 26.3057 65.8062V65.7583C26.3057 64.942 26.9679 64.2798 27.7842 64.2798H246.918V63.0308C246.918 61.4382 248.209 60.147 249.802 60.147H255.647V71.4243Z" fill="#0D726F"/>
</svg>
