<svg width="328" height="328" viewBox="0 0 328 328" fill="none" xmlns="http://www.w3.org/2000/svg">
<g clip-path="url(#clip0)">
<g opacity="0.17">
<path d="M0.271492 154.388C0.199252 163.312 1.02202 172.273 4.92037 179.608C8.45034 186.278 13.564 191.995 18.5806 197.487C23.5202 202.987 28.6271 208.627 32.2759 215.325C36.9043 223.914 38.8231 233.439 40.715 242.655C42.1592 249.856 43.6303 257.365 46.4811 264.249C47.3622 266.343 48.2432 268.437 49.131 270.608C51.3788 275.917 53.5983 281.344 55.5518 286.833C54.4153 285.809 53.2789 284.784 52.1424 283.759C50.6179 279.628 48.8626 275.517 47.1558 271.518C46.268 269.347 45.3451 267.218 44.4641 265.124C41.5579 258.05 40.0449 250.507 38.5873 243.152C36.7859 234.082 34.8805 224.712 30.3978 216.458C26.8881 210.02 21.8648 204.45 16.9738 199.062C11.9087 193.458 6.66946 187.635 3.0005 180.706C1.88861 178.633 1.02919 176.343 0.323692 174.04C-0.101378 167.409 -0.128236 160.898 0.271492 154.388Z" fill="white"/>
<path d="M147.545 54.5831C158.431 63.3617 164.702 78.3207 164.346 94.6349C164.18 102.481 162.454 110.231 160.82 117.701C160.345 119.797 159.911 121.929 159.477 124.06C154.884 146.444 153.974 169.281 156.694 191.956C157.918 202.394 160.481 207.326 164.025 214.149C165.47 216.931 167.109 220.16 168.893 224.152C170.774 228.369 172.816 232.649 174.767 236.781C177.989 243.478 181.35 250.434 184.025 257.527C191.2 276.167 194.587 296.264 197.8 315.716C198.232 318.431 198.705 321.181 199.178 323.931C198.457 324.11 197.736 324.29 197.009 324.392C196.529 321.565 196.056 318.815 195.582 316.065C192.382 296.767 189.044 276.783 181.966 258.366C179.263 251.392 175.943 244.471 172.721 237.774C170.77 233.642 168.652 229.369 166.806 225.11C165.064 221.153 163.431 218.001 161.986 215.22C158.346 208.172 155.768 203.086 154.434 192.27C151.694 169.364 152.66 146.29 157.234 123.675C157.667 121.543 158.143 119.447 158.612 117.274C160.253 109.88 161.908 102.214 162.095 94.5992C162.47 78.9425 156.49 64.6559 146.105 56.2986C144.48 55.0063 142.715 53.8814 140.984 52.7146L139.547 51.7936C128.934 44.8132 119.305 36.2347 110.088 27.9303C105.291 23.6202 100.327 19.1696 95.2359 15.0403C95.9433 14.707 96.6859 14.3319 97.477 14.0688C102.324 18.0645 106.995 22.2692 111.576 26.3269C120.786 34.5543 130.331 43.0626 140.825 50.0146L142.263 50.9357C144.028 52.0606 145.836 53.2206 147.545 54.5831Z" fill="white"/>
<path d="M19.5994 85.9755C20.7227 97.0427 20.6798 107.63 19.3802 117.592C18.7324 123.037 17.3299 128.277 15.9558 133.399C12.7469 145.465 9.67312 156.861 16.4902 169.64C19.9716 176.197 25.408 181.615 30.6703 186.815C35.2564 191.376 39.9681 196.042 43.5158 201.586C47.6479 208.048 50.1127 215.392 52.4802 222.513C54.6333 228.954 57.1845 235.515 59.8882 242.49C67.4868 261.985 75.293 282.082 75.0307 301.683C74.291 301.205 73.5514 300.727 72.8468 300.207C72.7566 281.451 65.2067 262.068 57.8645 243.287C55.1607 236.312 52.5676 229.716 50.4078 223.198C48.0538 216.232 45.6795 209.034 41.6796 202.755C38.229 197.435 33.6011 192.839 29.1405 188.383C23.7526 183.078 18.1907 177.555 14.5285 170.703C7.3714 157.14 10.5303 145.388 13.8176 132.888C15.1633 127.885 16.5307 122.687 17.192 117.395C18.2848 108.615 18.4489 99.4127 17.6776 89.7104C18.3744 88.3701 18.966 87.1552 19.5994 85.9755Z" fill="white"/>
<path d="M137.309 68.3111C144.715 82.5117 147.832 97.7467 146.767 114.821C146.146 124.567 144.883 134.06 143.593 143.245C141.292 159.923 139.105 175.699 140.823 193.112C142.235 207.488 149.341 217.799 156.842 228.657C159.104 231.91 161.415 235.274 163.626 238.841C174.526 256.187 179.479 276.456 182.558 292.16C183.315 295.932 184.036 299.745 184.799 303.594C186.215 310.914 187.644 318.388 189.221 325.771C188.493 325.874 187.765 325.976 187.038 326.078C185.461 318.695 184.039 311.298 182.623 303.979C181.902 300.165 181.18 296.351 180.424 292.579C177.358 277.03 172.509 257.061 161.79 240.01C159.585 236.52 157.275 233.155 155.055 229.938C147.372 218.785 140.135 208.292 138.675 193.377C136.972 175.692 139.11 159.804 141.475 142.965C142.73 133.822 144.042 124.441 144.627 114.737C145.649 98.054 142.643 83.197 135.424 69.3677C127.642 54.4245 116.638 47.4009 102.723 38.5771L99.6455 36.6364C92.9952 32.4109 86.5839 27.8155 80.4117 22.8503C81.0705 22.405 81.7362 22.0366 82.4018 21.6682C88.3162 26.3458 94.4346 30.6954 100.764 34.794L103.841 36.7347C118.042 45.7273 129.249 52.8495 137.309 68.3111Z" fill="white"/>
<path d="M16.8069 222.455C19.8026 227.892 19.967 235.088 19.8871 242.151C19.1085 240.785 18.365 239.377 17.6984 237.962C17.6186 232.619 17.0906 227.47 14.9222 223.511C13.539 220.996 11.3214 219.135 8.94999 217.288C8.53448 216.084 8.11225 214.802 7.73185 213.556C8.1921 213.942 8.72929 214.322 9.18954 214.708C12.0563 216.9 15.0068 219.162 16.8069 222.455Z" fill="white"/>
<path d="M173.564 47.1117C185.722 58.4541 191.354 76.2992 187.893 92.5748C186.855 97.5506 185.062 102.321 183.256 106.937C182.749 108.222 182.283 109.543 181.775 110.828C170.947 140.387 168.704 172.8 175.246 204.6C178.136 218.575 184.209 232.156 190.046 245.253C193.662 253.35 197.375 261.67 200.319 270.058C204.96 283.221 206.15 297.268 207.258 310.818C207.568 314.358 207.849 318.016 208.2 321.591C207.48 321.77 206.801 321.985 206.08 322.164C205.673 318.4 205.35 314.707 205.026 311.013C203.89 297.582 202.755 283.725 198.212 270.785C195.316 262.51 191.603 254.189 188.029 246.127C182.144 232.918 176.022 219.225 173.077 205.061C166.424 172.883 168.71 140.078 179.735 110.114C180.201 108.794 180.709 107.509 181.217 106.224C182.953 101.691 184.71 96.9628 185.726 92.1829C188.982 76.6618 183.613 59.6078 171.999 48.7218C165.669 42.8399 157.871 38.7923 150.283 34.9202C147.602 33.5264 144.802 32.1043 142.115 30.6336C136.573 27.5517 131.592 23.8004 126.66 20.1611C123.591 17.8709 120.438 15.5105 117.228 13.3876C114.926 11.8832 112.777 10.3653 110.628 8.84748C111.496 8.57769 112.364 8.30791 113.191 8.00301C114.886 9.21161 116.616 10.3784 118.423 11.5384C121.717 13.7315 124.87 16.0919 127.939 18.3822C132.787 21.9512 137.768 25.7026 143.108 28.6859C145.76 30.1984 148.518 31.5854 151.233 32.9374C159.025 36.908 166.983 41.0192 173.564 47.1117Z" fill="white"/>
<path d="M211.761 74.2423C212.357 85.9372 208.965 98.5626 201.993 110.609C200.783 112.731 199.63 114.616 198.512 116.458C193.259 125.098 189.468 131.4 188.743 143.055C187.96 155.375 188.015 167.97 188.945 180.372C190.89 207.03 197.515 237.117 207.666 264.957C209.155 269.13 210.882 273.36 212.519 277.443C216.035 286.168 219.696 295.23 221.797 304.622C222.679 308.499 223.337 312.474 223.799 316.427C223.127 316.718 222.413 316.974 221.699 317.231C221.223 313.124 220.594 309.031 219.705 305.077C217.582 295.88 214.004 286.889 210.537 278.275C208.9 274.192 207.173 269.963 205.642 265.754C195.471 237.684 188.755 207.45 186.79 180.561C185.889 168.04 185.827 155.368 186.603 142.971C187.358 130.77 191.254 124.343 196.676 115.417C197.759 113.616 198.948 111.69 200.123 109.61C206.89 97.8912 210.169 85.741 209.571 74.4727C208.902 61.5049 202.948 49.7359 193.586 42.8787C188.117 38.8599 181.517 36.5297 175.112 34.2211C173.91 33.7835 172.709 33.3459 171.507 32.9082C153.725 26.4 136.86 17.0976 121.626 5.59786C122.536 5.36317 123.404 5.0934 124.356 4.89382C139.075 15.8184 155.276 24.636 172.298 30.8618C173.499 31.2995 174.7 31.7371 175.902 32.1748C182.426 34.5117 189.229 36.9405 194.942 41.0929C204.758 48.2594 211.114 60.6521 211.761 74.2423Z" fill="white"/>
<path d="M221.381 44.1689C226.569 52.5155 227.108 62.6646 227.588 71.6946C228.333 85.0824 228.367 97.8732 221.158 107.653C219.254 110.262 216.925 112.443 214.631 114.583C212.554 116.548 210.407 118.596 208.63 120.884C199.555 132.805 201.748 145.911 204.127 159.815C204.498 161.837 204.827 163.824 205.121 165.853C205.695 169.757 206.423 173.648 207.074 177.546C209.029 188.812 211.06 200.497 210.972 211.903L210.991 212.56C210.881 224.162 210.771 236.19 212.829 247.757C214.49 256.994 218.471 264.826 222.646 273.106C223.674 275.11 224.661 277.078 225.654 279.124C230.612 289.274 233.996 300.027 236.596 310.694C235.93 311.062 235.258 311.353 234.55 311.687C231.985 300.978 228.602 290.225 223.685 280.11C222.734 278.1 221.706 276.096 220.719 274.128C216.454 265.7 212.383 257.721 210.695 248.176C208.581 236.42 208.685 224.315 208.823 212.595L208.804 211.938C208.912 200.763 206.888 189.154 204.94 177.965C204.247 174.032 203.554 170.1 202.98 166.196C202.651 164.208 202.357 162.179 201.986 160.157C199.662 146.442 197.256 132.231 206.964 119.557C208.804 117.108 211.063 115.011 213.21 112.962C215.392 110.872 217.686 108.733 219.45 106.291C226.243 97.0898 226.167 84.6904 225.497 71.7225C225.044 63.0003 224.49 53.1239 219.615 45.2539C213.112 34.7348 200.609 30.0908 188.505 25.567L186.019 24.6214C169.662 18.4538 153.952 10.8338 139.087 1.78293C140.235 1.605 141.382 1.42699 142.495 1.2909C156.565 9.67467 171.416 16.7884 186.809 22.5751L189.254 23.4855C201.574 28.2618 214.432 32.9909 221.381 44.1689Z" fill="white"/>
<path d="M78.521 71.2447C87.4902 82.4784 95.1259 93.0922 97.0917 109.358C98.5671 121.79 98.7613 134.645 98.9218 147.114C99.1395 163.34 99.3624 180.068 102.574 195.954C106.254 214.086 115.016 230.921 123.541 247.272C126.376 252.646 129.308 258.243 131.968 263.826C141.475 283.426 147.482 304.223 153.351 324.335C153.634 325.357 153.959 326.414 154.249 327.513C153.508 327.461 152.69 327.417 151.949 327.365C151.686 326.574 151.5 325.776 151.237 324.985C145.416 304.985 139.458 284.3 129.999 264.812C127.305 259.272 124.414 253.709 121.579 248.336C113.005 231.872 104.154 214.89 100.37 196.457C97.1444 180.418 96.9079 163.535 96.6835 147.233C96.5297 134.84 96.3356 121.986 94.7968 109.714C92.878 93.9867 85.4583 83.6254 76.7117 72.7211C71.6211 66.3819 61.4365 56.7665 55.6908 58.0058C54.739 58.2054 53.9681 58.6993 53.2659 59.5361C52.5286 60.4148 51.9438 61.7065 51.4696 63.3763C50.7467 66.1922 51.2603 69.4039 51.6566 72.1606L58.0919 112.925C59.0638 119.16 59.0003 125.523 58.9935 131.65C58.9165 137.859 58.8947 144.258 59.9017 150.451C62.1004 164.06 66.3594 176.404 72.7221 187.09C83.4649 205.302 98.3014 233.081 103.162 263.826C105.086 276.064 105.414 288.674 105.778 300.816C105.909 305.418 105.999 309.985 106.123 314.51C106.169 315.475 106.173 316.405 106.177 317.335C105.415 317.053 104.696 316.806 103.97 316.482C103.951 315.824 103.932 315.167 103.913 314.509C103.789 309.984 103.699 305.417 103.61 300.85C103.288 288.744 102.889 276.217 101.014 264.092C96.2223 233.689 81.5248 206.17 70.7954 188.112C64.3708 177.159 59.9377 164.598 57.7121 150.681C56.6849 144.258 56.7768 137.775 56.812 131.53C56.8606 125.439 56.8958 119.194 55.9792 113.149L49.5438 72.3842C49.0504 69.4034 48.5166 65.9608 49.353 62.6698C50.4015 58.7012 52.3676 56.3581 55.2229 55.7594C64.4327 53.7905 78.3887 71.0625 78.521 71.2447Z" fill="white"/>
<path d="M38.2901 58.5204C43.5825 79.5742 46.5232 101.222 46.9529 122.972C47.0115 126.301 46.9999 129.714 46.9248 133.287C46.7857 145.434 46.6033 157.972 50.7561 168.658C53.3073 175.22 57.8458 181.452 62.329 187.496C65.5031 191.87 68.8446 196.385 71.4233 201.045C77.6575 212.479 82.9533 224.267 87.0883 236.078C93.1834 253.456 96.0313 273.6 95.4785 294.312C95.3043 300.298 95.0599 306.367 94.8088 312.36C94.0826 312.035 93.3915 311.669 92.6653 311.345C92.9082 305.702 93.1026 299.948 93.3037 294.27C93.9186 273.823 91.0558 253.953 85.0578 236.799C80.9714 225.099 75.7659 213.458 69.5385 202.101C67.0502 197.589 63.7924 193.144 60.6183 188.77C56.0866 182.614 51.4225 176.276 48.8092 169.449C44.504 158.35 44.6662 145.581 44.827 133.238C44.867 129.707 44.9204 126.329 44.8618 123C44.4157 101.949 41.6544 81.0223 36.6116 60.6057C37.0964 59.943 37.6932 59.2317 38.2901 58.5204Z" fill="white"/>
<path d="M167.367 327.683C165.1 313.731 161.551 296.208 154.32 279.588C148.991 267.416 142.385 256.169 135.967 245.293C122.408 222.365 109.656 200.685 109.557 172.082C109.526 164.641 109.979 156.964 110.462 148.741C112.124 120.333 113.896 90.9461 95.3885 69.0712C89.5097 62.1418 82.5574 56.2369 75.8562 50.5425C71.3306 46.6739 66.6026 42.7066 62.3161 38.4681C61.7655 37.9347 61.2081 37.3244 60.6021 36.6021C60.062 37.0758 59.4801 37.5143 58.94 37.9881C59.5878 38.7455 60.1938 39.4679 60.7863 40.0364C65.1564 44.3451 69.8493 48.3542 74.4518 52.2162C81.1112 57.8754 88.0217 63.7452 93.7332 70.5341C111.718 91.7569 109.983 120.675 108.322 148.657C107.839 156.879 107.352 164.598 107.424 172.074C107.535 201.258 120.461 223.156 134.124 246.385C140.535 257.184 147.099 268.395 152.38 280.456C159.458 296.662 162.98 313.878 165.199 327.718L167.367 327.683Z" fill="white"/>
<path d="M29.6304 69.8622C32.3033 81.8018 34.1634 94.2003 35.0919 107.029C35.7017 114.885 35.2774 122.443 34.9032 129.687C34.0233 145.775 33.1815 160.969 43.4565 176.935C46.4618 181.595 49.9153 186.062 53.2433 190.423C56.9128 195.142 60.6726 200.008 63.879 205.194C82.9928 235.778 86.5499 271.561 84.7219 307.388C84.0308 307.022 83.2979 306.621 82.6001 306.178C84.2577 271.063 80.6559 236.098 62.036 206.286C58.8783 201.212 55.1602 196.381 51.4975 191.739C48.1277 187.343 44.6323 182.841 41.5433 178.11C30.9067 161.556 31.7216 146.054 32.6447 129.574C33.0608 122.366 33.4567 114.926 32.8604 107.224C31.9641 95.2069 30.3252 83.5644 27.8668 72.3039C28.492 71.4738 29.0403 70.6504 29.6304 69.8622Z" fill="white"/>
<path d="M174.817 327.303C174.323 324.322 173.913 321.411 173.462 318.466C171.028 302.163 168.469 285.328 162.522 269.643C160.547 264.35 157.988 258.138 154.237 252.496C151.816 248.753 148.835 245.253 145.944 241.901C124.086 216.287 115.487 184.473 120.306 147.376C120.866 143.14 121.566 138.736 122.286 134.564C124.449 121.62 126.614 108.249 124.399 95.3385C119.954 69.7909 100.562 55.088 80.041 39.4373C76.2186 36.5151 72.3544 33.5578 68.5603 30.5168C69.2192 30.0715 69.8011 29.6329 70.4249 29.2294C74.0097 32.0948 77.7066 34.9117 81.3617 37.6934C101.339 52.8878 121.986 68.6439 126.575 94.9543C128.901 108.242 126.638 121.816 124.488 134.914C123.768 139.087 123.061 143.413 122.501 147.649C117.741 184.082 126.215 215.364 147.641 240.473C150.539 243.902 153.52 247.402 156.067 251.25C159.949 257.075 162.557 263.398 164.581 268.804C170.625 284.713 173.197 301.702 175.603 318.123C176.061 321.146 176.478 324.134 177.013 327.15L174.817 327.303Z" fill="white"/>
<path d="M228.626 27.7174C232.752 31.8924 234.785 38.7318 236.589 44.7382C237.08 46.3623 237.53 47.9512 238.042 49.3796C240.494 56.57 243.136 65.062 244.113 74.0097C245.572 87.1411 243.027 99.2658 236.892 108.022C234.137 111.984 230.804 115.533 227.575 118.956C218.71 128.415 211.053 136.607 216.383 150.562C227.612 180.091 232.496 212.424 230.487 243.964L230.389 245.95C230.022 251.06 229.704 256.283 230.68 261.238C231.643 266.039 233.907 270.648 236.074 275.033L237.018 276.966C241.282 285.821 244.957 295.036 247.876 304.473C247.211 304.841 246.587 305.245 245.921 305.613C242.996 296.099 239.349 286.765 235.043 277.876L234.099 275.943C231.841 271.41 229.528 266.689 228.539 261.58C227.459 256.325 227.84 250.941 228.159 245.718L228.292 243.691C230.251 212.465 225.401 180.517 214.311 151.248C208.516 135.975 217.03 126.934 225.965 117.391C229.123 114.051 232.422 110.545 235.071 106.708C240.89 98.3285 243.293 86.7977 241.916 74.1631C240.96 65.4462 238.366 57.0664 235.928 50.0298C235.415 48.6015 234.925 46.9773 234.469 45.3113C232.726 39.5709 230.755 32.9976 227.012 29.2155C216.935 19.048 200.57 12.8033 187.377 7.79329L186.092 7.28543C182.362 5.86712 178.437 4.42718 174.316 2.96558C171.634 1.9984 168.91 0.996064 166.144 -0.0413384C168.473 -0.0124564 170.801 0.0164687 173.143 0.199249C173.786 0.453189 174.429 0.707105 175.106 0.919204C179.269 2.41591 183.194 3.85585 186.966 5.30927L188.251 5.81713C201.57 10.9325 218.213 17.269 228.626 27.7174Z" fill="white"/>
<path d="M244.571 21.2047C246.158 23.392 247.605 25.7467 248.918 28.3457C254.476 39.1412 257.252 51.3819 259.419 61.9701C261.635 72.6704 263.68 84.0834 262.18 95.3026C260.566 107.423 254.791 117.195 245.503 123.59L245.244 123.729C236.321 129.86 229.921 134.258 228.952 145.779C228.222 154.721 231.039 163.431 234.184 172.344L235.929 177.231C242.525 195.457 249.293 214.327 247.388 233.762C246.999 237.285 246.413 240.787 245.744 244.218C244.825 249.222 243.884 254.422 243.909 259.576C243.99 272.906 250.311 285.341 256.445 297.404C256.633 297.775 256.862 298.181 257.015 298.595C256.433 299.033 255.809 299.437 255.185 299.84C254.949 299.357 254.713 298.874 254.477 298.39C248.211 286.145 241.75 273.451 241.699 259.576C241.661 254.268 242.63 248.949 243.543 243.868C244.141 240.52 244.804 237.012 245.123 233.572C246.998 214.683 240.25 196.044 233.787 178L232.041 173.113C228.757 163.94 225.879 154.965 226.728 145.625C227.764 133.09 234.9 128.239 243.928 121.983L244.146 121.809C252.922 115.769 258.394 106.528 259.909 95.0361C261.358 84.1315 259.333 72.9493 257.173 62.438C254.978 51.9686 252.221 39.9587 246.837 29.3806C244.732 25.2613 242.289 21.7144 239.615 18.6143C239.698 18.6845 239.817 18.7129 239.901 18.7832L244.571 21.2047Z" fill="white"/>
<path d="M262.882 33.2883C271.869 53.5924 276.13 71.7125 275.856 88.5235C275.524 105.999 270.494 118.961 260.448 128.214C258.975 129.545 257.383 130.847 255.826 132.108C251.443 135.631 247.355 138.974 245.338 143.842C243.166 149.149 244.16 155.188 245.404 161.437C248.527 176.749 252.279 192.161 256.466 207.225L256.736 208.093C258.643 214.827 260.564 221.715 260.295 228.833C260.188 231.595 259.759 234.23 259.331 236.865C259.002 238.871 258.681 240.954 258.513 243.024C257.146 258.418 264.621 272.962 272.091 287.002C271.551 287.476 270.976 287.991 270.394 288.43C262.653 273.948 254.871 259.005 256.324 242.828C256.527 240.716 256.842 238.556 257.206 236.509C257.641 233.951 258.07 231.315 258.155 228.749C258.416 221.981 256.509 215.247 254.657 208.702L254.422 207.792C250.117 192.699 246.4 177.246 243.27 161.857C241.922 155.306 240.936 148.918 243.292 143.052C245.499 137.702 250.022 134.011 254.44 130.446C255.962 129.227 257.554 127.925 258.992 126.636C268.574 117.85 273.379 105.411 273.688 88.558C273.985 71.1247 269.266 52.1918 259.324 30.7306L259.408 30.8008L262.882 33.2883Z" fill="white"/>
<path d="M274.64 43.1537L278.362 46.7049C283.299 59.2606 287.653 72.255 288.845 85.875C290.59 105.378 284.95 122.891 273.465 133.86C272.391 134.884 271.276 135.874 270.119 136.828C267.341 139.203 264.711 141.488 262.918 144.475C258.009 152.619 260.984 160.035 264.111 167.865C265.151 170.449 266.24 173.145 267.063 175.903C271.135 189.659 272.955 203.805 272.452 218C272.338 220.685 272.182 223.335 271.991 226.027C271.636 231.718 271.224 237.647 271.687 243.383C272.676 255.121 277.177 266.242 282.301 276.959C281.81 277.545 281.199 278.102 280.666 278.653C275.347 267.487 270.498 255.932 269.491 243.536C269.015 237.646 269.42 231.641 269.768 225.872C269.924 223.222 270.079 220.572 270.235 217.923C270.758 203.959 268.959 190.043 264.907 176.518C264.133 173.872 263.051 171.253 262.011 168.669C258.793 160.692 255.429 152.38 260.921 143.37C262.884 140.097 265.766 137.596 268.544 135.221C269.624 134.273 270.781 133.319 271.82 132.337C282.877 121.793 288.228 104.965 286.543 86.1539C285.384 71.1353 280.146 56.9002 274.64 43.1537Z" fill="white"/>
<path d="M292.393 62.1869L295.985 66.9126C297.725 73.5062 299.157 80.1268 299.939 86.843C302.291 106.642 297.711 125.187 287.283 137.613C286.202 138.987 284.995 140.256 283.829 141.56C278.705 147.242 273.44 153.092 274.437 160.06C274.889 163.006 276.488 165.774 278.08 168.465L278.804 169.642C288.398 186.249 292.154 206.584 289.041 225.504C288.684 227.629 288.257 229.838 287.781 231.934C286.722 237.105 285.641 242.473 285.868 247.725C286.146 254.447 288.529 260.868 291.418 266.857C290.927 267.443 290.4 268.07 289.874 268.698C286.672 262.232 283.968 255.258 283.664 247.802C283.411 242.241 284.555 236.713 285.643 231.423C286.077 229.292 286.511 227.16 286.868 225.035C289.909 206.625 286.312 186.78 276.912 170.622L276.231 169.479C274.548 166.641 272.817 163.691 272.325 160.284C271.163 152.322 276.821 146.089 282.261 140.03C283.426 138.726 284.556 137.464 285.645 136.167C295.686 124.201 300.089 106.292 297.784 87.0315C296.784 78.706 294.896 70.4195 292.393 62.1869Z" fill="white"/>
<path d="M305.879 82.0586L308.978 87.7967C309.463 91.1272 309.872 94.4644 310.238 97.7664C311.479 109.289 307.212 123.89 297.671 141.124C297.101 142.143 296.531 143.162 295.891 144.265C293.359 148.557 290.489 153.422 289.991 157.924C289.493 162.426 291.39 168.153 293.072 173.201C293.654 174.972 294.228 176.667 294.636 178.22L295.195 180.188C298.968 193.62 302.858 207.508 300.649 221.697C300.299 223.899 299.795 226.114 299.361 228.246C298.637 231.488 297.891 234.926 297.677 238.24C297.385 243.771 298.549 249.097 300.546 254.195C300.068 254.935 299.59 255.674 299.07 256.379C296.698 250.538 295.201 244.505 295.53 238.079C295.724 234.534 296.505 231.054 297.258 227.693C297.734 225.597 298.203 223.423 298.483 221.305C300.578 207.592 296.785 193.928 293.075 180.761L292.515 178.794C292.072 177.282 291.539 175.622 290.923 173.893C289.185 168.656 287.191 162.705 287.761 157.693C288.295 152.722 291.264 147.655 293.936 143.196C294.541 142.135 295.188 141.109 295.723 140.132C305.067 123.302 309.22 109.176 308.02 98.1155C307.555 92.806 306.818 87.4816 305.879 82.0586Z" fill="white"/>
<path d="M311.858 234.169C311.315 229.293 311.408 224.594 311.564 219.734C311.639 216.161 311.743 212.469 311.567 208.685C310.892 195.213 308.642 182.345 304.843 170.388C304.622 169.632 304.317 168.805 304.054 168.014C302.226 162.63 300.219 156.525 302.364 150.91C303.662 147.578 305.82 144.327 307.908 141.159C309.342 138.94 310.712 136.882 311.81 134.808C315.795 127.171 317.997 119.108 318.928 110.692C319.454 112.274 319.98 113.856 320.471 115.48C319.3 122.484 317.144 129.302 313.758 135.801C312.632 137.993 311.156 140.177 309.757 142.354C307.739 145.438 305.651 148.606 304.452 151.735C302.589 156.589 304.486 162.316 306.203 167.322C306.508 168.148 306.771 168.94 307.034 169.731C310.924 181.835 313.194 194.934 313.882 208.56C314.065 212.421 313.968 216.19 313.858 219.805C313.776 223.301 313.681 226.644 313.865 230.078L311.858 234.169Z" fill="white"/>
<path d="M324.894 193.911C323.642 187.585 322.048 181.328 320.076 175.181L319.377 172.955C317.577 167.452 315.764 161.795 315.903 155.851C316.127 147.768 319.243 140.4 322.267 133.312C322.81 131.986 323.353 130.659 323.931 129.29C324.234 130.543 324.461 131.802 324.729 133.097C324.602 133.418 324.44 133.781 324.313 134.103C321.353 141.03 318.335 148.195 318.113 155.852C317.976 161.369 319.74 166.914 321.484 172.228L322.183 174.454C323.623 178.941 324.831 183.449 325.892 188.047L324.894 193.911Z" fill="white"/>
<path d="M74.2007 95.4269C72.3919 94.6935 70.5384 94.7781 69.137 95.5986C66.411 97.2327 66.0984 100.749 66.0897 103.309C66.1102 113.736 67.3336 124.174 69.768 134.274C71.6022 141.945 75.8238 146.77 80.2031 146.31C81.7003 146.14 82.9546 145.41 83.9727 144.196C85.7984 142.021 86.8738 138.36 86.995 133.542C87.2568 122.353 84.6512 111.183 79.475 101.207C78.5926 99.5399 77.4941 97.62 75.7084 96.2642C75.2549 95.955 74.7244 95.6525 74.2007 95.4269ZM77.5484 102.229C82.5788 111.869 85.0738 122.661 84.8202 133.5C84.6595 139.639 82.743 143.878 79.9795 144.197C77.293 144.509 73.6543 141.028 71.9375 133.813C69.5166 123.867 68.2716 113.624 68.2645 103.351C68.2702 101.645 68.4247 99.4215 69.513 98.1244C69.7237 97.8734 69.9762 97.6575 70.2705 97.4766C71.1184 96.976 72.2443 96.9938 73.4456 97.4314C73.8087 97.5935 74.1367 97.7974 74.5066 98.0365C75.8387 99.083 76.7982 100.744 77.5484 102.229Z" fill="white"/>
<path d="M130.906 296.446L131.141 297.356C133.821 307.163 136.586 316.613 139.373 325.868C138.59 325.781 137.801 325.618 137.011 325.454C134.293 316.543 131.667 307.351 129.055 297.888L128.779 296.943C124.566 281.144 121.264 277.518 119.223 277.231C117.734 277.051 116.238 279.004 115.337 280.672C113.691 283.569 114 287.109 114.511 291.174L118.465 321.3C117.71 321.095 116.956 320.89 116.159 320.649L112.328 291.481C111.878 288.109 111.272 283.393 113.424 279.638C115.31 276.371 117.385 274.833 119.538 275.071C124.718 275.781 128.323 286.864 130.906 296.446Z" fill="white"/>
</g>
</g>
<defs>
<clipPath id="clip0">
<rect width="328" height="328" fill="white"/>
</clipPath>
</defs>
</svg>
