<svg width="245" height="245" viewBox="0 0 245 245" fill="none" xmlns="http://www.w3.org/2000/svg">
<g clip-path="url(#clip0)">
<g opacity="0.2">
<path d="M0.222501 114.892C0.168569 121.554 0.782819 128.244 3.69321 133.72C6.32857 138.699 10.1463 142.967 13.8915 147.068C17.5792 151.174 21.3919 155.384 24.116 160.385C27.5714 166.798 29.0039 173.908 30.4163 180.789C31.4945 186.165 32.5928 191.771 34.7212 196.91C35.3789 198.474 36.0367 200.037 36.6994 201.658C38.3776 205.621 40.0346 209.673 41.493 213.771C40.6446 213.006 39.7961 212.241 38.9477 211.476C37.8095 208.391 36.4991 205.322 35.2248 202.337C34.5621 200.716 33.873 199.126 33.2153 197.563C31.0456 192.283 29.9161 186.65 28.8279 181.16C27.483 174.389 26.0605 167.393 22.7139 161.231C20.0936 156.424 16.3434 152.266 12.6919 148.244C8.91044 144.06 4.99902 139.713 2.25989 134.54C1.42979 132.992 0.788177 131.282 0.261472 129.563C-0.0558717 124.612 -0.075923 119.751 0.222501 114.892Z" fill="#EACDC1"/>
<path d="M110.173 40.3803C118.301 46.9341 122.983 58.102 122.717 70.2817C122.593 76.1392 121.305 81.9249 120.085 87.502C119.73 89.067 119.406 90.6583 119.082 92.2496C115.652 108.961 114.973 126.01 117.004 142.938C117.918 150.731 119.832 154.413 122.477 159.507C123.556 161.584 124.78 163.995 126.112 166.975C127.516 170.123 129.04 173.318 130.497 176.404C132.902 181.403 135.411 186.596 137.409 191.892C142.765 205.808 145.294 220.811 147.693 235.334C148.015 237.361 148.368 239.414 148.722 241.467C148.183 241.601 147.645 241.735 147.102 241.811C146.744 239.701 146.39 237.648 146.037 235.594C143.648 221.187 141.156 206.267 135.872 192.518C133.853 187.311 131.375 182.144 128.97 177.145C127.513 174.06 125.931 170.87 124.553 167.691C123.253 164.736 122.034 162.383 120.955 160.306C118.237 155.045 116.313 151.248 115.317 143.173C113.271 126.072 113.993 108.846 117.407 91.962C117.731 90.3707 118.086 88.8056 118.436 87.1831C119.661 81.6635 120.897 75.9402 121.036 70.255C121.316 58.5662 116.852 47.9003 109.099 41.661C107.886 40.6962 106.568 39.8564 105.276 38.9853L104.202 38.2977C96.2791 33.0864 89.0906 26.6819 82.2095 20.4822C78.6284 17.2643 74.9223 13.9417 71.1214 10.8589C71.6496 10.61 72.204 10.33 72.7946 10.1336C76.4131 13.1166 79.9005 16.2558 83.3204 19.2851C90.1965 25.4274 97.3225 31.7795 105.157 36.9696L106.23 37.6572C107.548 38.4971 108.898 39.3631 110.173 40.3803Z" fill="#EACDC1"/>
<path d="M14.6538 63.8172C15.4924 72.0796 15.4604 79.9841 14.4901 87.4207C14.0064 91.4862 12.9594 95.3984 11.9336 99.2219C9.5379 108.23 7.24311 116.738 12.3325 126.278C14.9316 131.174 18.9903 135.218 22.919 139.1C26.3428 142.506 29.8603 145.99 32.509 150.128C35.5939 154.953 37.434 160.436 39.2015 165.751C40.8089 170.56 42.7136 175.459 44.7321 180.666C50.4049 195.22 56.2328 210.224 56.037 224.858C55.4848 224.501 54.9326 224.144 54.4066 223.756C54.3392 209.753 48.7027 195.282 43.2212 181.261C41.2027 176.054 39.2668 171.129 37.6544 166.263C35.8969 161.062 34.1243 155.689 31.1382 151.001C28.562 147.029 25.107 143.598 21.7768 140.271C17.7544 136.311 13.6021 132.188 10.868 127.072C5.52472 116.946 7.88304 108.173 10.3372 98.8405C11.3419 95.1057 12.3627 91.2248 12.8565 87.2741C13.6723 80.7194 13.7948 73.849 13.219 66.6055C13.7392 65.6049 14.1809 64.6979 14.6538 63.8172Z" fill="#EACDC1"/>
<path d="M102.531 50.6298C108.06 61.2315 110.387 72.6055 109.592 85.3524C109.128 92.6289 108.185 99.7158 107.222 106.573C105.504 119.024 103.872 130.803 105.154 143.802C106.209 154.535 111.513 162.233 117.114 170.339C118.802 172.767 120.527 175.279 122.178 177.942C130.316 190.892 134.013 206.024 136.312 217.748C136.877 220.564 137.416 223.411 137.985 226.285C139.042 231.75 140.109 237.329 141.286 242.841C140.743 242.918 140.2 242.994 139.657 243.071C138.48 237.559 137.418 232.036 136.361 226.572C135.822 223.724 135.284 220.877 134.719 218.061C132.43 206.452 128.81 191.545 120.808 178.815C119.161 176.209 117.437 173.697 115.779 171.295C110.043 162.969 104.64 155.135 103.55 144C102.279 130.797 103.876 118.935 105.641 106.364C106.578 99.5381 107.557 92.5348 107.994 85.2896C108.757 72.8349 106.513 61.7431 101.123 51.4186C95.3138 40.2625 87.0981 35.0189 76.7098 28.4313L74.4123 26.9825C69.4474 23.8278 64.661 20.3971 60.053 16.6902C60.5449 16.3577 61.0418 16.0827 61.5387 15.8077C65.9543 19.2999 70.5221 22.5472 75.2471 25.607L77.5446 27.0558C88.1465 33.7695 96.5134 39.0867 102.531 50.6298Z" fill="#EACDC1"/>
<path d="M12.5688 165.708C14.8053 169.767 14.928 175.14 14.8684 180.413C14.2871 179.393 13.732 178.342 13.2344 177.285C13.1748 173.296 12.7807 169.452 11.1617 166.497C10.1291 164.619 8.47356 163.23 6.70311 161.851C6.3929 160.952 6.07768 159.995 5.79368 159.065C6.13729 159.353 6.53834 159.636 6.88194 159.925C9.02221 161.561 11.2249 163.25 12.5688 165.708Z" fill="#EACDC1"/>
<path d="M129.597 34.8024C138.673 43.2703 142.878 56.5928 140.294 68.7437C139.519 72.4584 138.181 76.0199 136.833 79.4664C136.454 80.4257 136.106 81.4113 135.727 82.3707C127.643 104.438 125.968 128.637 130.853 152.378C133.01 162.812 137.544 172.95 141.902 182.728C144.602 188.773 147.374 194.985 149.571 201.247C153.036 211.074 153.925 221.561 154.752 231.677C154.983 234.32 155.193 237.051 155.455 239.72C154.917 239.854 154.41 240.014 153.872 240.148C153.568 237.338 153.327 234.58 153.086 231.823C152.237 221.796 151.39 211.45 147.998 201.79C145.837 195.612 143.064 189.4 140.396 183.381C136.002 173.52 131.432 163.297 129.233 152.722C124.266 128.699 125.973 104.208 134.204 81.8382C134.552 80.8526 134.931 79.8932 135.31 78.9338C136.606 75.5498 137.918 72.0197 138.677 68.4511C141.107 56.8635 137.099 44.1316 128.428 36.0044C123.703 31.6132 117.881 28.5914 112.216 25.7006C110.214 24.6601 108.124 23.5984 106.118 22.5004C101.98 20.1995 98.2621 17.3989 94.5801 14.682C92.2886 12.9721 89.9347 11.2099 87.5384 9.62506C85.8193 8.50193 84.2151 7.36873 82.6109 6.23555C83.259 6.03413 83.9071 5.83273 84.5239 5.6051C85.7895 6.5074 87.0814 7.37848 88.4307 8.24453C90.8894 9.88182 93.2433 11.644 95.5348 13.3538C99.1543 16.0184 102.873 18.819 106.859 21.0463C108.839 22.1755 110.898 23.211 112.926 24.2203C118.742 27.1847 124.684 30.2539 129.597 34.8024Z" fill="#EACDC1"/>
<path d="M158.112 55.0577C158.558 63.7887 156.025 73.2144 150.82 82.2082C149.917 83.7923 149.056 85.1991 148.221 86.5746C144.299 93.0249 141.469 97.7298 140.928 106.431C140.343 115.629 140.384 125.032 141.079 134.291C142.53 154.193 147.477 176.655 155.055 197.439C156.167 200.555 157.456 203.713 158.678 206.761C161.303 213.275 164.037 220.04 165.605 227.052C166.264 229.947 166.755 232.914 167.1 235.865C166.598 236.082 166.065 236.274 165.531 236.465C165.176 233.399 164.706 230.343 164.043 227.391C162.458 220.525 159.787 213.813 157.198 207.382C155.976 204.334 154.687 201.176 153.544 198.035C145.951 177.078 140.937 154.506 139.47 134.432C138.797 125.084 138.751 115.623 139.33 106.368C139.894 97.2598 142.802 92.4611 146.85 85.7972C147.659 84.4529 148.546 83.015 149.423 81.4621C154.476 72.7132 156.924 63.6423 156.477 55.2297C155.978 45.5483 151.533 36.762 144.544 31.6426C140.461 28.6424 135.533 26.9027 130.751 25.1792C129.854 24.8524 128.957 24.5257 128.06 24.199C114.784 19.3402 102.194 12.3953 90.8204 3.80995C91.4997 3.63474 92.1478 3.43334 92.8583 3.28434C103.847 11.4403 115.942 18.0232 128.65 22.6712C129.547 22.998 130.444 23.3247 131.341 23.6514C136.211 25.3961 141.291 27.2094 145.556 30.3094C152.884 35.6597 157.63 44.9117 158.112 55.0577Z" fill="#EACDC1"/>
<path d="M165.294 32.6057C169.168 38.8371 169.57 46.4141 169.929 53.1556C170.485 63.1504 170.51 72.6997 165.128 80.0013C163.707 81.9491 161.968 83.5773 160.255 85.1743C158.705 86.6414 157.102 88.171 155.775 89.879C149 98.7786 150.637 108.563 152.414 118.943C152.69 120.453 152.936 121.937 153.155 123.451C153.584 126.366 154.127 129.271 154.614 132.181C156.073 140.591 157.589 149.316 157.523 157.831L157.537 158.322C157.456 166.983 157.373 175.963 158.91 184.598C160.15 191.494 163.122 197.341 166.239 203.523C167.006 205.019 167.743 206.488 168.484 208.015C172.186 215.593 174.712 223.621 176.653 231.585C176.156 231.86 175.655 232.077 175.126 232.326C173.211 224.331 170.685 216.303 167.015 208.752C166.304 207.251 165.537 205.755 164.8 204.286C161.616 197.994 158.577 192.037 157.317 184.911C155.738 176.135 155.816 167.097 155.919 158.347L155.905 157.857C155.985 149.514 154.475 140.847 153.02 132.494C152.503 129.558 151.985 126.622 151.557 123.707C151.311 122.223 151.092 120.709 150.815 119.199C149.08 108.96 147.283 98.3499 154.531 88.8879C155.905 87.06 157.591 85.4943 159.194 83.9647C160.823 82.404 162.536 80.807 163.852 78.9841C168.925 72.1148 168.867 62.8578 168.368 53.1764C168.029 46.6647 167.616 39.2913 163.976 33.4157C159.121 25.5626 149.787 22.0955 140.751 18.7182L138.894 18.0122C126.682 13.4076 114.954 7.71881 103.857 0.961742C104.713 0.828903 105.57 0.696003 106.401 0.594402C116.905 6.85346 127.992 12.1643 139.484 16.4845L141.309 17.1642C150.507 20.73 160.107 24.2606 165.294 32.6057Z" fill="#EACDC1"/>
<path d="M58.6391 52.82C65.3353 61.2067 71.0358 69.1306 72.5035 81.2744C73.6049 90.5558 73.7499 100.152 73.8697 109.462C74.0322 121.575 74.1987 134.064 76.5966 145.924C79.3439 159.461 85.8849 172.029 92.2497 184.237C94.3662 188.248 96.5553 192.427 98.5408 196.595C105.639 211.227 110.123 226.754 114.505 241.769C114.716 242.532 114.959 243.321 115.175 244.142C114.622 244.103 114.011 244.07 113.458 244.031C113.262 243.441 113.123 242.845 112.926 242.254C108.581 227.323 104.133 211.88 97.0712 197.331C95.0595 193.195 92.9016 189.042 90.7851 185.03C84.3841 172.739 77.7756 160.061 74.9508 146.3C72.5427 134.325 72.3662 121.721 72.1987 109.55C72.0839 100.298 71.9389 90.7016 70.7901 81.5401C69.3576 69.7984 63.8183 62.063 57.2884 53.9223C53.4879 49.1896 45.8844 42.011 41.5948 42.9362C40.8843 43.0852 40.3087 43.454 39.7845 44.0787C39.2341 44.7347 38.7974 45.6991 38.4434 46.9457C37.9037 49.0479 38.2872 51.4457 38.583 53.5037L43.3874 83.9375C44.113 88.5919 44.0656 93.3428 44.0605 97.9164C44.003 102.552 43.9868 107.33 44.7386 111.953C46.38 122.113 49.5597 131.328 54.3098 139.307C62.3301 152.903 73.4065 173.642 77.0355 196.595C78.4716 205.732 78.7164 215.146 78.9885 224.21C79.0864 227.646 79.1532 231.056 79.2461 234.434C79.2802 235.155 79.2831 235.849 79.2859 236.543C78.7176 236.333 78.1804 236.148 77.6383 235.906C77.6243 235.415 77.6103 234.924 77.5963 234.434C77.5033 231.055 77.4366 227.646 77.3698 224.236C77.129 215.198 76.8318 205.846 75.432 196.793C71.8543 174.096 60.8817 153.551 52.8714 140.069C48.075 131.892 44.7654 122.515 43.1039 112.125C42.337 107.329 42.4056 102.49 42.4319 97.8273C42.4682 93.2799 42.4944 88.6177 41.8102 84.1044L37.0057 53.6707C36.6373 51.4453 36.2388 48.8752 36.8632 46.4183C37.646 43.4554 39.1138 41.7061 41.2455 41.2591C48.1213 39.7893 58.5404 52.6839 58.6391 52.82Z" fill="#EACDC1"/>
<path d="M28.6064 43.3201C32.5576 59.0383 34.753 75.1994 35.0738 91.4378C35.1176 93.9231 35.1089 96.4709 35.0529 99.1386C34.949 108.207 34.8128 117.568 37.9131 125.546C39.8178 130.444 43.2061 135.097 46.5531 139.609C48.9228 142.875 51.4175 146.246 53.3426 149.724C57.9969 158.261 61.9506 167.061 65.0376 175.879C69.5881 188.853 71.7142 203.892 71.3015 219.355C71.1714 223.823 70.989 228.355 70.8015 232.828C70.2593 232.586 69.7434 232.313 69.2012 232.071C69.3826 227.858 69.5277 223.562 69.6779 219.323C70.1369 204.058 67.9996 189.224 63.5217 176.417C60.471 167.682 56.5847 158.992 51.9355 150.513C50.0778 147.144 47.6457 143.826 45.276 140.56C41.8927 135.965 38.4107 131.233 36.4597 126.136C33.2456 117.85 33.3667 108.317 33.4867 99.102C33.5165 96.4655 33.5564 93.9439 33.5127 91.4586C33.1796 75.7423 31.1182 60.1193 27.3533 44.8769C27.7153 44.3822 28.1608 43.8512 28.6064 43.3201Z" fill="#EACDC1"/>
<path d="M124.969 244.269C123.276 233.852 120.626 220.77 115.228 208.362C111.249 199.275 106.318 190.878 101.526 182.759C91.4036 165.642 81.8832 149.456 81.8095 128.102C81.7866 122.546 82.1245 116.815 82.4847 110.676C83.7262 89.4676 85.0484 67.5283 71.2317 51.1972C66.8427 46.024 61.6524 41.6155 56.6494 37.3643C53.2708 34.4761 49.741 31.5142 46.5409 28.3499C46.1298 27.9517 45.7136 27.4961 45.2612 26.9568C44.858 27.3104 44.4236 27.6379 44.0204 27.9915C44.504 28.557 44.9564 29.0963 45.3987 29.5207C48.6614 32.7375 52.1649 35.7306 55.601 38.6138C60.5727 42.8388 65.7318 47.221 69.9958 52.2894C83.4226 68.1336 82.1277 89.7232 80.8873 110.613C80.5271 116.752 80.163 122.515 80.2171 128.096C80.2998 149.884 89.9501 166.232 100.151 183.574C104.937 191.636 109.837 200.006 113.78 209.01C119.064 221.109 121.694 233.962 123.35 244.295L124.969 244.269Z" fill="#EACDC1"/>
<path d="M22.1429 51.7873C24.1384 60.7011 25.5271 69.9574 26.2204 79.535C26.6756 85.3997 26.3588 91.0425 26.0794 96.4505C25.4226 108.462 24.7941 119.805 32.465 131.724C34.7087 135.204 37.287 138.538 39.7716 141.794C42.5111 145.317 45.3181 148.95 47.7118 152.822C61.9816 175.655 64.6372 202.369 63.2725 229.117C62.7566 228.843 62.2094 228.544 61.6884 228.213C62.926 201.998 60.237 175.894 46.336 153.637C43.9785 149.849 41.2027 146.242 38.4682 142.777C35.9524 139.494 33.3429 136.134 31.0368 132.602C23.0958 120.243 23.7042 108.67 24.3933 96.3665C24.704 90.9847 24.9995 85.4306 24.5544 79.6808C23.8852 70.7088 22.6616 62.017 20.8263 53.6102C21.2931 52.9905 21.7024 52.3758 22.1429 51.7873Z" fill="#EACDC1"/>
<path d="M130.537 243.984C130.168 241.759 129.862 239.586 129.525 237.387C127.708 225.216 125.798 212.648 121.358 200.938C119.883 196.986 117.973 192.348 115.173 188.136C113.365 185.342 111.14 182.729 108.981 180.226C92.6628 161.103 86.2433 137.352 89.8406 109.657C90.2586 106.494 90.7814 103.207 91.3193 100.092C92.934 90.4278 94.5499 80.4456 92.8962 70.8073C89.5777 51.7342 75.1006 40.7575 59.7802 29.0732C56.9265 26.8916 54.0415 24.6837 51.209 22.4135C51.7009 22.081 52.1354 21.7535 52.6011 21.4523C55.2774 23.5915 58.0374 25.6945 60.7661 27.7713C75.6805 39.1149 91.0947 50.8779 94.5209 70.5204C96.2571 80.4409 94.5677 90.5744 92.963 100.353C92.4251 103.468 91.8973 106.698 91.4793 109.861C87.9255 137.06 94.2524 160.414 110.248 179.16C112.412 181.72 114.637 184.333 116.539 187.206C119.437 191.554 121.384 196.275 122.895 200.311C127.407 212.189 129.327 224.872 131.124 237.131C131.466 239.388 131.777 241.618 132.176 243.87L130.537 243.984Z" fill="#EACDC1"/>
<path d="M170.702 20.3234C173.782 23.4403 175.3 28.5464 176.647 33.0305C177.014 34.243 177.349 35.4293 177.732 36.4957C179.562 41.8638 181.535 48.2036 182.264 54.8837C183.353 64.6872 181.453 73.7391 176.873 80.2759C174.817 83.2345 172.328 85.8835 169.917 88.4389C163.299 95.5013 157.582 101.617 161.562 112.035C169.945 134.081 173.591 158.219 172.091 181.766L172.018 183.249C171.744 187.064 171.506 190.963 172.235 194.662C172.954 198.246 174.644 201.688 176.262 204.961L176.967 206.405C180.151 213.015 182.894 219.895 185.074 226.94C184.577 227.215 184.111 227.517 183.614 227.792C181.43 220.689 178.707 213.72 175.493 207.084L174.788 205.64C173.102 202.257 171.376 198.732 170.637 194.918C169.83 190.994 170.116 186.975 170.353 183.076L170.452 181.562C171.915 158.25 168.294 134.399 160.015 112.547C155.689 101.145 162.045 94.3954 168.715 87.2705C171.073 84.7776 173.536 82.1598 175.514 79.295C179.858 73.0394 181.652 64.4308 180.624 54.9983C179.91 48.4905 177.974 42.2344 176.154 36.9811C175.771 35.9147 175.404 34.7022 175.064 33.4584C173.763 29.1728 172.291 24.2654 169.497 21.4418C161.974 13.851 149.757 9.18898 139.907 5.44866L138.947 5.06951C136.163 4.01064 133.233 2.93563 130.156 1.84445C128.153 1.12238 126.12 0.374064 124.055 -0.400428C125.793 -0.378865 127.532 -0.35727 129.281 -0.220812C129.76 -0.031229 130.24 0.158337 130.746 0.316683C133.854 1.43408 136.784 2.50909 139.6 3.59417L140.559 3.97332C150.503 7.79227 162.928 12.5229 170.702 20.3234Z" fill="#EACDC1"/>
<path d="M182.608 15.461C183.793 17.0939 184.873 18.8519 185.853 20.7922C190.002 28.8518 192.075 37.9903 193.693 45.8951C195.347 53.8836 196.874 62.4042 195.754 70.7801C194.549 79.8292 190.238 87.124 183.304 91.8985L183.11 92.0023C176.448 96.5794 171.67 99.8628 170.947 108.465C170.402 115.14 172.505 121.642 174.853 128.297L176.156 131.945C181.08 145.552 186.133 159.64 184.711 174.149C184.42 176.78 183.983 179.394 183.484 181.956C182.798 185.692 182.095 189.574 182.113 193.422C182.174 203.373 186.893 212.656 191.473 221.662C191.613 221.94 191.784 222.243 191.898 222.551C191.463 222.879 190.998 223.18 190.532 223.481C190.356 223.121 190.18 222.76 190.003 222.399C185.325 213.257 180.502 203.78 180.464 193.421C180.435 189.459 181.159 185.488 181.84 181.694C182.287 179.195 182.781 176.576 183.02 174.008C184.42 159.906 179.382 145.99 174.557 132.519L173.253 128.871C170.802 122.023 168.653 115.322 169.287 108.349C170.06 98.9907 175.387 95.3697 182.128 90.699L182.29 90.569C188.842 86.0594 192.928 79.1607 194.058 70.5812C195.141 62.4401 193.629 54.0919 192.016 46.2445C190.377 38.4283 188.319 29.4622 184.299 21.5648C182.728 18.4896 180.904 15.8415 178.907 13.5271C178.97 13.5795 179.059 13.6007 179.121 13.6531L182.608 15.461Z" fill="#EACDC1"/>
<path d="M196.28 24.4828C202.989 39.6412 206.17 53.1691 205.966 65.7196C205.718 78.766 201.962 88.4434 194.462 95.3515C193.363 96.3449 192.174 97.3172 191.012 98.2582C187.74 100.889 184.688 103.385 183.182 107.019C181.561 110.981 182.302 115.489 183.232 120.155C185.563 131.586 188.364 143.092 191.49 154.338L191.691 154.987C193.115 160.014 194.549 165.156 194.349 170.471C194.268 172.533 193.949 174.5 193.629 176.467C193.383 177.965 193.143 179.52 193.018 181.065C191.997 192.558 197.578 203.415 203.155 213.897C202.752 214.251 202.323 214.636 201.888 214.963C196.109 204.152 190.299 192.996 191.384 180.918C191.536 179.342 191.771 177.729 192.042 176.201C192.367 174.291 192.687 172.324 192.751 170.408C192.946 165.354 191.522 160.327 190.139 155.441L189.964 154.761C186.75 143.494 183.975 131.957 181.638 120.468C180.631 115.578 179.896 110.808 181.654 106.429C183.302 102.435 186.679 99.6793 189.977 97.0174C191.113 96.1076 192.302 95.1353 193.375 94.173C200.529 87.6137 204.116 78.3272 204.347 65.7454C204.569 52.7303 201.046 38.5955 193.624 22.5733L193.686 22.6257L196.28 24.4828Z" fill="#EACDC1"/>
<path d="M205.061 31.8481L207.84 34.4993C211.526 43.873 214.777 53.5742 215.667 63.7425C216.969 78.303 212.759 91.3777 204.184 99.5664C203.383 100.331 202.55 101.07 201.686 101.782C199.613 103.555 197.649 105.261 196.31 107.491C192.645 113.572 194.866 119.108 197.201 124.953C197.978 126.882 198.791 128.895 199.405 130.954C202.445 141.224 203.803 151.785 203.428 162.383C203.343 164.387 203.227 166.366 203.084 168.375C202.819 172.624 202.512 177.051 202.857 181.333C203.595 190.096 206.955 198.399 210.781 206.4C210.414 206.837 209.959 207.253 209.56 207.664C205.589 199.329 201.969 190.702 201.217 181.447C200.862 177.05 201.164 172.566 201.424 168.26C201.54 166.282 201.657 164.303 201.773 162.325C202.164 151.9 200.82 141.511 197.795 131.414C197.217 129.438 196.409 127.483 195.633 125.554C193.23 119.599 190.719 113.393 194.82 106.667C196.285 104.223 198.437 102.356 200.51 100.582C201.317 99.8752 202.181 99.1629 202.956 98.4293C211.211 90.558 215.206 77.9942 213.948 63.9507C213.083 52.7383 209.172 42.1108 205.061 31.8481Z" fill="#EACDC1"/>
<path d="M218.314 46.0574L220.996 49.5855C222.295 54.5081 223.364 59.4508 223.948 64.4649C225.704 79.2463 222.284 93.0911 214.5 102.368C213.692 103.394 212.791 104.341 211.921 105.315C208.095 109.557 204.165 113.924 204.909 119.127C205.247 121.326 206.44 123.392 207.629 125.401L208.169 126.28C215.332 138.678 218.136 153.86 215.812 167.985C215.546 169.571 215.227 171.22 214.872 172.785C214.081 176.646 213.273 180.653 213.443 184.575C213.65 189.593 215.43 194.386 217.587 198.857C217.22 199.295 216.827 199.763 216.434 200.232C214.043 195.405 212.025 190.198 211.798 184.632C211.609 180.48 212.463 176.353 213.275 172.404C213.599 170.813 213.923 169.221 214.19 167.635C216.46 153.891 213.775 139.075 206.757 127.011L206.248 126.159C204.992 124.04 203.699 121.837 203.332 119.294C202.465 113.349 206.689 108.696 210.75 104.173C211.62 103.199 212.464 102.257 213.277 101.289C220.773 92.3551 224.06 78.9848 222.339 64.6056C221.593 58.3901 220.183 52.2036 218.314 46.0574Z" fill="#EACDC1"/>
<path d="M228.378 60.8932L230.692 65.1771C231.054 67.6635 231.359 70.155 231.633 72.6202C232.559 81.2223 229.374 92.1233 222.25 104.99C221.825 105.751 221.399 106.511 220.921 107.335C219.031 110.539 216.888 114.171 216.517 117.532C216.145 120.893 217.561 125.169 218.817 128.937C219.251 130.26 219.68 131.525 219.984 132.685L220.402 134.153C223.219 144.182 226.123 154.55 224.474 165.143C224.212 166.787 223.836 168.441 223.512 170.032C222.971 172.453 222.415 175.019 222.255 177.494C222.037 181.623 222.906 185.599 224.397 189.405C224.04 189.957 223.683 190.509 223.295 191.035C221.524 186.675 220.406 182.171 220.652 177.373C220.797 174.727 221.38 172.129 221.942 169.619C222.297 168.054 222.647 166.432 222.856 164.85C224.421 154.612 221.589 144.411 218.819 134.581L218.401 133.113C218.071 131.984 217.673 130.745 217.212 129.454C215.915 125.544 214.427 121.101 214.852 117.359C215.251 113.649 217.467 109.866 219.462 106.536C219.914 105.744 220.397 104.978 220.796 104.249C227.772 91.6846 230.873 81.1382 229.977 72.8808C229.63 68.9169 229.079 64.9419 228.378 60.8932Z" fill="#EACDC1"/>
<path d="M232.842 174.454C232.436 170.814 232.506 167.306 232.622 163.678C232.678 161.01 232.756 158.253 232.624 155.428C232.121 145.371 230.441 135.764 227.605 126.837C227.44 126.273 227.212 125.656 227.016 125.065C225.651 121.046 224.152 116.488 225.754 112.296C226.723 109.808 228.334 107.381 229.893 105.016C230.963 103.359 231.987 101.822 232.806 100.275C235.781 94.5729 237.425 88.5535 238.12 82.2698C238.512 83.451 238.905 84.6324 239.272 85.8449C238.398 91.0733 236.788 96.1635 234.26 101.016C233.42 102.652 232.318 104.283 231.273 105.908C229.767 108.211 228.208 110.576 227.313 112.912C225.922 116.535 227.338 120.811 228.62 124.548C228.848 125.165 229.044 125.756 229.241 126.347C232.144 135.383 233.839 145.163 234.353 155.335C234.489 158.218 234.417 161.031 234.335 163.73C234.274 166.341 234.203 168.836 234.34 171.4L232.842 174.454Z" fill="#EACDC1"/>
<path d="M242.576 144.399C241.642 139.676 240.451 135.004 238.979 130.415L238.457 128.753C237.114 124.645 235.76 120.422 235.864 115.984C236.031 109.949 238.357 104.449 240.615 99.1574C241.02 98.1668 241.426 97.1761 241.857 96.1543C242.084 97.0896 242.253 98.03 242.453 98.9965C242.358 99.2364 242.237 99.5074 242.143 99.7473C239.932 104.919 237.679 110.268 237.514 115.984C237.411 120.104 238.728 124.243 240.031 128.21L240.552 129.872C241.627 133.223 242.529 136.588 243.322 140.021L242.576 144.399Z" fill="#EACDC1"/>
<path d="M55.4167 70.8733C54.0664 70.3258 52.6826 70.3889 51.6363 71.0014C49.6012 72.2215 49.3678 74.8468 49.3613 76.7577C49.3767 84.5422 50.29 92.335 52.1074 99.8751C53.4768 105.602 56.6285 109.205 59.898 108.861C61.0157 108.734 61.9521 108.189 62.7122 107.283C64.0752 105.659 64.878 102.926 64.9686 99.3287C65.164 90.9758 63.2188 82.6365 59.3544 75.1887C58.6956 73.9439 57.8755 72.5106 56.5424 71.4984C56.2038 71.2675 55.8077 71.0417 55.4167 70.8733ZM57.916 75.9514C61.6716 83.1482 63.5343 91.2052 63.345 99.2971C63.225 103.881 61.7941 107.045 59.731 107.283C57.7254 107.517 55.0088 104.918 53.7271 99.5308C51.9197 92.1056 50.9902 84.4589 50.9849 76.7893C50.9893 75.5154 51.1045 73.8555 51.9171 72.8872C52.0743 72.6997 52.2628 72.5386 52.4826 72.4036C53.1156 72.0298 53.9561 72.0431 54.853 72.3698C55.1241 72.4908 55.369 72.643 55.6451 72.8215C56.6396 73.6028 57.3559 74.8426 57.916 75.9514Z" fill="#EACDC1"/>
<path d="M97.7478 220.948L97.923 221.628C99.9239 228.949 101.988 236.004 104.069 242.913C103.484 242.849 102.895 242.727 102.305 242.605C100.276 235.951 98.3154 229.09 96.3658 222.024L96.1594 221.319C93.0146 209.524 90.549 206.817 89.0252 206.603C87.9136 206.468 86.7966 207.926 86.1241 209.172C84.8951 211.335 85.1262 213.977 85.5075 217.012L88.4594 239.503C87.896 239.35 87.3327 239.197 86.7381 239.017L83.8778 217.241C83.5418 214.724 83.0891 211.203 84.6962 208.4C86.1037 205.961 87.653 204.812 89.2604 204.99C93.1274 205.52 95.8195 213.794 97.7478 220.948Z" fill="#EACDC1"/>
</g>
</g>
<defs>
<clipPath id="clip0">
<rect width="245" height="245" fill="white"/>
</clipPath>
</defs>
</svg>
