<svg width="351" height="351" viewBox="0 0 351 351" fill="none" xmlns="http://www.w3.org/2000/svg">
<g clip-path="url(#clip0)">
<g opacity="0.42">
<path d="M0.100999 165.262C0.0235717 174.826 0.905407 184.43 5.08365 192.292C8.86705 199.441 14.3479 205.568 19.7246 211.455C25.0188 217.35 30.4924 223.394 34.4032 230.573C39.3638 239.779 41.4205 249.988 43.4482 259.866C44.996 267.584 46.5727 275.632 49.6283 283.01C50.5726 285.255 51.5169 287.499 52.4684 289.826C54.8776 295.515 57.2564 301.332 59.3501 307.216C58.1321 306.117 56.9141 305.019 55.696 303.921C54.0621 299.493 52.1807 295.086 50.3514 290.8C49.3999 288.474 48.4107 286.192 47.4664 283.947C44.3515 276.366 42.73 268.281 41.1677 260.398C39.2369 250.677 37.1948 240.634 32.3903 231.788C28.6285 224.887 23.2446 218.918 18.0024 213.143C12.5737 207.136 6.95831 200.896 3.02594 193.469C1.83422 191.247 0.9131 188.793 0.156946 186.324C-0.298642 179.217 -0.327428 172.239 0.100999 165.262Z" fill="#EACDC1"/>
<path d="M157.95 58.291C169.618 67.6998 176.34 83.7329 175.958 101.218C175.779 109.628 173.93 117.934 172.179 125.94C171.669 128.187 171.204 130.472 170.739 132.756C165.816 156.747 164.841 181.224 167.756 205.526C169.068 216.714 171.815 222 175.613 229.313C177.162 232.294 178.919 235.756 180.831 240.035C182.847 244.554 185.035 249.141 187.126 253.57C190.58 260.747 194.182 268.203 197.05 275.805C204.74 295.784 208.369 317.323 211.814 338.172C212.276 341.082 212.783 344.029 213.291 346.977C212.518 347.169 211.745 347.361 210.965 347.471C210.451 344.441 209.944 341.494 209.437 338.546C206.006 317.862 202.429 296.443 194.843 276.705C191.945 269.229 188.388 261.812 184.934 254.635C182.843 250.205 180.572 245.625 178.594 241.061C176.727 236.82 174.977 233.441 173.428 230.46C169.526 222.907 166.764 217.456 165.334 205.863C162.397 181.313 163.433 156.582 168.334 132.343C168.799 130.059 169.309 127.812 169.812 125.483C171.57 117.558 173.344 109.342 173.545 101.18C173.946 84.3993 167.537 69.087 156.407 60.1297C154.665 58.7446 152.773 57.5389 150.918 56.2884L149.378 55.3012C138.003 47.8197 127.683 38.6253 117.804 29.7247C112.663 25.1051 107.342 20.335 101.886 15.9092C102.644 15.552 103.44 15.1499 104.288 14.868C109.482 19.1505 114.489 23.6572 119.399 28.0062C129.27 36.8243 139.501 45.9434 150.748 53.3945L152.289 54.3817C154.181 55.5874 156.118 56.8307 157.95 58.291Z" fill="#EACDC1"/>
<path d="M20.8195 91.9372C22.0235 103.799 21.9775 115.147 20.5846 125.823C19.8902 131.66 18.3871 137.276 16.9144 142.765C13.4751 155.698 10.1806 167.912 17.4871 181.608C21.2184 188.637 27.0452 194.443 32.6853 200.016C37.6007 204.905 42.6506 209.906 46.453 215.848C50.8818 222.774 53.5235 230.646 56.061 238.277C58.3687 245.181 61.1031 252.213 64.0009 259.688C72.145 280.583 80.5117 302.123 80.2305 323.132C79.4378 322.62 78.645 322.107 77.8899 321.55C77.7932 301.447 69.7012 280.672 61.8318 260.543C58.934 253.068 56.1547 245.998 53.8399 239.012C51.3168 231.545 48.772 223.831 44.485 217.101C40.7867 211.399 35.8264 206.473 31.0456 201.697C25.2709 196.011 19.3097 190.092 15.3845 182.748C7.71362 168.211 11.0993 155.615 14.6226 142.218C16.0649 136.856 17.5305 131.284 18.2393 125.613C19.4105 116.203 19.5864 106.339 18.7597 95.9403C19.5066 94.5037 20.1406 93.2017 20.8195 91.9372Z" fill="#EACDC1"/>
<path d="M146.979 73.0047C154.917 88.2249 158.257 104.554 157.116 122.854C156.451 133.3 155.097 143.474 153.715 153.318C151.248 171.194 148.904 188.103 150.745 206.765C152.259 222.174 159.874 233.225 167.915 244.863C170.339 248.349 172.815 251.955 175.186 255.778C186.868 274.369 192.176 296.094 195.477 312.925C196.288 316.967 197.061 321.055 197.879 325.18C199.396 333.026 200.928 341.036 202.618 348.949C201.838 349.059 201.058 349.169 200.278 349.279C198.588 341.365 197.064 333.437 195.546 325.592C194.773 321.504 194 317.417 193.189 313.374C189.903 296.708 184.706 275.306 173.218 257.031C170.855 253.29 168.378 249.684 165.999 246.235C157.765 234.282 150.008 223.035 148.443 207.05C146.618 188.095 148.91 171.066 151.444 153.018C152.789 143.219 154.195 133.165 154.823 122.763C155.918 104.883 152.696 88.9593 144.959 74.1372C136.618 58.1212 124.824 50.5933 109.91 41.1359L106.612 39.056C99.4838 34.5271 92.6122 29.6018 85.9968 24.2801C86.703 23.8028 87.4164 23.4079 88.1298 23.0131C94.4689 28.0265 101.027 32.6885 107.81 37.0813L111.108 39.1613C126.329 48.7995 138.34 56.4331 146.979 73.0047Z" fill="#EACDC1"/>
<path d="M17.8275 238.215C21.0383 244.042 21.2145 251.755 21.1288 259.325C20.2943 257.861 19.4975 256.352 18.783 254.835C18.6975 249.108 18.1316 243.59 15.8075 239.347C14.325 236.651 11.9482 234.657 9.40652 232.677C8.96118 231.386 8.50864 230.013 8.10092 228.677C8.59421 229.091 9.16997 229.498 9.66326 229.912C12.7359 232.261 15.8982 234.685 17.8275 238.215Z" fill="#EACDC1"/>
<path d="M185.837 50.2832C198.868 62.4399 204.904 81.5661 201.195 99.0103C200.082 104.343 198.161 109.456 196.226 114.404C195.681 115.781 195.182 117.196 194.637 118.574C183.032 150.255 180.628 184.995 187.64 219.078C190.738 234.057 197.247 248.613 203.503 262.65C207.378 271.328 211.358 280.246 214.513 289.236C219.487 303.344 220.763 318.4 221.95 332.922C222.282 336.716 222.584 340.637 222.96 344.469C222.188 344.661 221.46 344.891 220.687 345.083C220.251 341.049 219.905 337.09 219.559 333.131C218.341 318.736 217.124 303.884 212.254 290.016C209.151 281.146 205.172 272.227 201.341 263.587C195.033 249.43 188.472 234.754 185.315 219.572C178.184 185.084 180.635 149.924 192.451 117.809C192.951 116.394 193.495 115.017 194.039 113.64C195.9 108.781 197.783 103.713 198.873 98.5902C202.362 81.9548 196.608 63.6764 184.16 52.0088C177.375 45.7047 169.018 41.3664 160.884 37.2164C158.011 35.7225 155.011 34.1983 152.13 32.622C146.19 29.3189 140.852 25.2982 135.566 21.3977C132.276 18.943 128.897 16.4131 125.457 14.1378C122.989 12.5254 120.686 10.8986 118.383 9.27176C119.313 8.9826 120.244 8.69345 121.129 8.36666C122.946 9.66204 124.801 10.9126 126.738 12.1559C130.268 14.5064 133.647 17.0363 136.937 19.491C142.133 23.3163 147.471 27.337 153.194 30.5344C156.037 32.1556 158.993 33.6422 161.903 35.0912C170.254 39.3469 178.784 43.7532 185.837 50.2832Z" fill="#EACDC1"/>
<path d="M226.776 79.3617C227.415 91.8962 223.779 105.428 216.307 118.34C215.01 120.614 213.774 122.634 212.576 124.608C206.945 133.868 202.882 140.623 202.106 153.115C201.266 166.319 201.325 179.819 202.322 193.111C204.406 221.683 211.507 253.93 222.387 283.769C223.983 288.241 225.834 292.775 227.588 297.151C231.357 306.503 235.281 316.215 237.533 326.282C238.479 330.437 239.184 334.697 239.679 338.934C238.958 339.246 238.193 339.521 237.427 339.796C236.918 335.394 236.243 331.007 235.291 326.769C233.015 316.912 229.18 307.275 225.464 298.043C223.71 293.667 221.859 289.134 220.218 284.623C209.317 254.537 202.119 222.133 200.013 193.313C199.047 179.893 198.98 166.311 199.812 153.025C200.621 139.948 204.797 133.059 210.608 123.492C211.769 121.562 213.043 119.498 214.302 117.269C221.555 104.708 225.07 91.6859 224.429 79.6087C223.712 65.7098 217.331 53.0959 207.297 45.7463C201.435 41.439 194.36 38.9415 187.496 36.4672C186.208 35.9981 184.92 35.5291 183.633 35.06C164.573 28.0846 146.498 18.1143 130.17 5.7889C131.145 5.53737 132.076 5.24823 133.096 5.03432C148.871 16.7432 166.236 26.1939 184.48 32.8667C185.767 33.3358 187.055 33.8048 188.343 34.2739C195.335 36.7786 202.626 39.3818 208.75 43.8324C219.27 51.5134 226.083 64.7958 226.776 79.3617Z" fill="#EACDC1"/>
<path d="M237.086 47.129C242.648 56.0749 243.225 66.9527 243.74 76.631C244.538 90.9799 244.574 104.689 236.848 115.171C234.807 117.968 232.311 120.305 229.852 122.598C227.626 124.704 225.325 126.9 223.421 129.352C213.693 142.129 216.044 156.176 218.594 171.078C218.992 173.245 219.344 175.375 219.659 177.55C220.275 181.734 221.055 185.904 221.753 190.082C223.848 202.156 226.024 214.681 225.93 226.906L225.95 227.61C225.833 240.045 225.714 252.937 227.921 265.334C229.701 275.234 233.968 283.628 238.442 292.503C239.544 294.65 240.602 296.76 241.666 298.952C246.981 309.831 250.607 321.357 253.394 332.789C252.68 333.184 251.96 333.496 251.202 333.853C248.452 322.376 244.826 310.851 239.556 300.01C238.537 297.855 237.435 295.708 236.377 293.598C231.806 284.565 227.443 276.013 225.633 265.783C223.368 253.183 223.479 240.209 223.627 227.647L223.607 226.943C223.722 214.966 221.553 202.523 219.465 190.531C218.723 186.316 217.98 182.101 217.364 177.917C217.012 175.787 216.697 173.612 216.3 171.445C213.808 156.745 211.229 141.513 221.634 127.929C223.607 125.305 226.028 123.057 228.329 120.862C230.668 118.621 233.126 116.328 235.016 113.711C242.298 103.849 242.216 90.5598 241.498 76.6609C241.013 67.3125 240.419 56.727 235.194 48.2919C228.224 37.0176 214.824 32.0402 201.851 27.1916L199.186 26.1781C181.654 19.5677 164.817 11.4006 148.885 1.69996C150.115 1.50926 151.345 1.31846 152.537 1.1726C167.617 10.1583 183.534 17.7827 200.033 23.985L202.653 24.9607C215.857 30.0799 229.639 35.1486 237.086 47.129Z" fill="#EACDC1"/>
<path d="M83.9697 76.1488C93.5829 88.1891 101.767 99.5649 103.874 116.999C105.455 130.323 105.663 144.101 105.835 157.466C106.068 174.856 106.307 192.786 109.75 209.812C113.694 229.246 123.085 247.289 132.222 264.814C135.261 270.574 138.403 276.573 141.254 282.557C151.444 303.563 157.881 325.854 164.172 347.41C164.475 348.505 164.824 349.638 165.135 350.816C164.34 350.761 163.464 350.713 162.669 350.657C162.387 349.81 162.188 348.954 161.906 348.106C155.668 326.671 149.282 304.5 139.144 283.614C136.256 277.675 133.158 271.713 130.119 265.954C120.93 248.309 111.443 230.108 107.387 210.351C103.93 193.16 103.677 175.065 103.436 157.592C103.271 144.31 103.063 130.533 101.414 117.38C99.3575 100.524 91.4051 89.4184 82.0305 77.7312C76.5744 70.9369 65.6586 60.6311 59.5004 61.9594C58.4803 62.1733 57.654 62.7027 56.9014 63.5996C56.1112 64.5413 55.4844 65.9258 54.9761 67.7155C54.2014 70.7335 54.7518 74.1758 55.1765 77.1304L62.0739 120.822C63.1156 127.504 63.0475 134.325 63.0402 140.89C62.9576 147.546 62.9344 154.404 64.0137 161.041C66.3702 175.628 70.935 188.858 77.7544 200.311C89.2686 219.831 105.17 249.604 110.38 282.557C112.442 295.673 112.793 309.189 113.184 322.202C113.324 327.134 113.42 332.029 113.554 336.879C113.603 337.914 113.607 338.911 113.611 339.907C112.795 339.605 112.024 339.34 111.245 338.993C111.225 338.288 111.205 337.583 111.185 336.879C111.052 332.029 110.956 327.134 110.86 322.239C110.514 309.263 110.088 295.838 108.078 282.841C102.942 250.256 87.1892 220.761 75.6894 201.406C68.8035 189.668 64.0522 176.205 61.6668 161.288C60.5659 154.404 60.6644 147.456 60.7021 140.763C60.7542 134.234 60.7919 127.541 59.8095 121.062L52.9121 77.3701C52.3833 74.1753 51.8112 70.4856 52.7076 66.9583C53.8313 62.7047 55.9386 60.1934 58.9989 59.5517C68.87 57.4415 83.8279 75.9535 83.9697 76.1488Z" fill="#EACDC1"/>
<path d="M40.8499 62.5108C46.5222 85.0762 49.6741 108.278 50.1346 131.59C50.1975 135.158 50.185 138.816 50.1046 142.645C49.9555 155.664 49.76 169.103 54.2109 180.556C56.9453 187.589 61.8096 194.269 66.6147 200.746C70.0167 205.435 73.598 210.274 76.3619 215.268C83.0437 227.523 88.7198 240.157 93.1516 252.817C99.6843 271.442 102.737 293.032 102.144 315.231C101.957 321.647 101.696 328.152 101.426 334.574C100.648 334.227 99.9073 333.835 99.129 333.487C99.3893 327.439 99.5977 321.271 99.8132 315.186C100.472 293.272 97.4039 271.974 90.9753 253.589C86.5955 241.049 81.0163 228.573 74.3418 216.4C71.6748 211.564 68.1832 206.8 64.7812 202.111C59.9241 195.514 54.9252 188.721 52.1242 181.404C47.51 169.508 47.6838 155.822 47.8561 142.593C47.899 138.808 47.9562 135.188 47.8934 131.62C47.4153 109.057 44.4558 86.6282 39.0509 64.7458C39.5705 64.0355 40.2102 63.2732 40.8499 62.5108Z" fill="#EACDC1"/>
<path d="M179.196 350.998C176.765 336.044 172.961 317.263 165.212 299.45C159.499 286.404 152.42 274.35 145.541 262.693C131.008 238.119 117.341 214.882 117.235 184.225C117.202 176.25 117.687 168.022 118.204 159.209C119.986 128.761 121.885 97.2646 102.049 73.8192C95.7481 66.3923 88.2967 60.0634 81.1143 53.9603C76.2639 49.8139 71.1964 45.5618 66.6022 41.0189C66.012 40.4473 65.4146 39.7932 64.7651 39.019C64.1862 39.5267 63.5625 39.9967 62.9837 40.5044C63.678 41.3163 64.3274 42.0906 64.9625 42.6999C69.6464 47.3179 74.6762 51.6149 79.6091 55.7541C86.7467 61.8196 94.1533 68.1109 100.275 75.3872C119.551 98.1337 117.692 129.128 115.911 159.119C115.394 167.932 114.871 176.205 114.949 184.218C115.068 215.496 128.922 238.966 143.566 263.863C150.437 275.437 157.472 287.454 163.132 300.38C170.719 317.75 174.494 336.202 176.872 351.035L179.196 350.998Z" fill="#EACDC1"/>
<path d="M31.5667 74.6668C34.4315 87.4637 36.4252 100.752 37.4204 114.502C38.0739 122.922 37.6192 131.023 37.218 138.787C36.2751 156.03 35.3728 172.315 46.3854 189.427C49.6065 194.422 53.308 199.209 56.8749 203.883C60.8078 208.941 64.8376 214.157 68.2742 219.715C88.7603 252.494 92.5727 290.846 90.6135 329.246C89.8728 328.854 89.0873 328.424 88.3393 327.949C90.116 290.313 86.2557 252.838 66.2989 220.885C62.9145 215.447 58.9295 210.269 55.0038 205.294C51.392 200.582 47.6457 195.757 44.3349 190.686C32.9347 172.944 33.8081 156.329 34.7974 138.666C35.2434 130.94 35.6677 122.966 35.0286 114.711C34.0679 101.831 32.3114 89.3528 29.6765 77.2838C30.3466 76.3941 30.9342 75.5116 31.5667 74.6668Z" fill="#EACDC1"/>
<path d="M187.179 350.591C186.651 347.396 186.211 344.276 185.727 341.119C183.118 323.646 180.376 305.603 174.002 288.791C171.885 283.118 169.142 276.46 165.123 270.413C162.528 266.401 159.333 262.65 156.234 259.057C132.807 231.604 123.591 197.506 128.755 157.746C129.355 153.206 130.106 148.486 130.878 144.014C133.196 130.14 135.516 115.809 133.142 101.972C128.378 74.5905 107.594 58.8321 85.5994 42.0577C81.5025 38.9257 77.3608 35.7561 73.2944 32.4968C74.0006 32.0195 74.6243 31.5494 75.2929 31.117C79.1351 34.1881 83.0974 37.2072 87.0149 40.1887C108.426 56.4739 130.555 73.3612 135.474 101.561C137.967 115.803 135.541 130.351 133.238 144.389C132.465 148.861 131.708 153.498 131.108 158.039C126.006 197.087 135.089 230.615 158.053 257.526C161.159 261.202 164.354 264.953 167.083 269.078C171.245 275.32 174.04 282.098 176.209 287.892C182.687 304.943 185.444 323.152 188.022 340.752C188.513 343.992 188.96 347.194 189.533 350.426L187.179 350.591Z" fill="#EACDC1"/>
<path d="M244.852 29.4963C249.274 33.971 251.452 41.3014 253.387 47.7391C253.913 49.4798 254.395 51.1828 254.944 52.7137C257.571 60.4204 260.404 69.522 261.45 79.1122C263.014 93.1863 260.287 106.182 253.711 115.566C250.759 119.813 247.186 123.616 243.725 127.285C234.224 137.424 226.017 146.203 231.73 161.161C243.765 192.81 248.999 227.464 246.846 261.268L246.741 263.397C246.348 268.874 246.007 274.472 247.053 279.783C248.085 284.928 250.512 289.868 252.834 294.568L253.847 296.64C258.417 306.13 262.356 316.007 265.484 326.122C264.771 326.516 264.102 326.949 263.389 327.344C260.253 317.147 256.344 307.142 251.73 297.615L250.717 295.543C248.298 290.685 245.819 285.625 244.758 280.149C243.601 274.517 244.01 268.746 244.351 263.149L244.493 260.975C246.593 227.508 241.395 193.266 229.509 161.895C223.298 145.527 232.423 135.836 242 125.608C245.385 122.029 248.92 118.271 251.76 114.158C257.997 105.177 260.572 92.8183 259.096 79.2766C258.071 69.9338 255.291 60.9524 252.678 53.4106C252.129 51.8797 251.602 50.1389 251.114 48.3534C249.246 42.2008 247.134 35.1556 243.122 31.1019C232.321 20.2044 214.782 13.5114 200.641 8.14171L199.264 7.59739C195.267 6.07725 191.059 4.53393 186.642 2.9674C183.768 1.93077 180.848 0.856475 177.884 -0.255408C180.38 -0.224452 182.876 -0.19345 185.386 0.00245309C186.074 0.274624 186.763 0.54677 187.489 0.774097C191.951 2.37826 196.158 3.92158 200.201 5.47935L201.578 6.02367C215.853 11.5063 233.692 18.2978 244.852 29.4963Z" fill="#EACDC1"/>
<path d="M261.943 22.5161C263.644 24.8604 265.194 27.3842 266.601 30.1697C272.558 41.7404 275.534 54.8598 277.857 66.2082C280.232 77.6768 282.424 89.9092 280.816 101.934C279.086 114.925 272.896 125.398 262.942 132.252L262.664 132.401C253.1 138.972 246.241 143.686 245.202 156.035C244.42 165.619 247.439 174.953 250.809 184.506L252.68 189.744C259.75 209.279 267.004 229.504 264.962 250.334C264.545 254.11 263.917 257.863 263.2 261.541C262.215 266.904 261.207 272.478 261.233 278.002C261.319 292.288 268.095 305.616 274.67 318.545C274.871 318.943 275.116 319.379 275.28 319.821C274.656 320.291 273.988 320.724 273.319 321.156C273.066 320.638 272.813 320.12 272.56 319.602C265.843 306.477 258.919 292.872 258.864 278.001C258.824 272.312 259.862 266.612 260.84 261.166C261.482 257.578 262.192 253.817 262.534 250.131C264.544 229.885 257.312 209.908 250.384 190.569L248.513 185.331C244.993 175.5 241.908 165.88 242.819 155.869C243.929 142.434 251.577 137.235 261.254 130.53L261.487 130.343C270.893 123.869 276.758 113.965 278.381 101.648C279.935 89.9607 277.765 77.9757 275.449 66.7098C273.096 55.4887 270.142 42.6166 264.371 31.2789C262.115 26.864 259.497 23.0624 256.63 19.7397C256.72 19.815 256.847 19.8454 256.937 19.9207L261.943 22.5161Z" fill="#EACDC1"/>
<path d="M281.566 35.4673C291.199 57.2291 295.765 76.6502 295.472 94.6681C295.116 113.398 289.724 127.291 278.957 137.208C277.378 138.635 275.672 140.03 274.004 141.381C269.306 145.158 264.924 148.741 262.763 153.958C260.435 159.647 261.5 166.119 262.834 172.817C266.181 189.228 270.202 205.747 274.69 221.892L274.979 222.822C277.023 230.04 279.082 237.422 278.794 245.052C278.679 248.012 278.219 250.836 277.76 253.66C277.408 255.81 277.063 258.043 276.883 260.261C275.418 276.761 283.43 292.348 291.437 307.396C290.858 307.904 290.241 308.457 289.618 308.927C281.321 293.405 272.98 277.389 274.538 260.05C274.755 257.788 275.093 255.473 275.483 253.278C275.949 250.536 276.409 247.712 276.5 244.961C276.78 237.707 274.736 230.489 272.751 223.474L272.499 222.499C267.884 206.323 263.901 189.76 260.546 173.266C259.101 166.246 258.045 159.399 260.57 153.111C262.935 147.378 267.783 143.422 272.518 139.6C274.149 138.294 275.855 136.898 277.396 135.517C287.667 126.1 292.817 112.768 293.148 94.7051C293.466 76.0202 288.408 55.728 277.753 32.7259L277.843 32.8012L281.566 35.4673Z" fill="#EACDC1"/>
<path d="M294.168 46.0411L298.157 49.8472C303.448 63.3044 308.116 77.2318 309.393 91.8297C311.263 112.733 305.218 131.504 292.908 143.26C291.758 144.357 290.563 145.418 289.322 146.44C286.345 148.986 283.526 151.435 281.604 154.637C276.343 163.366 279.531 171.314 282.883 179.706C283.998 182.475 285.165 185.365 286.047 188.321C290.412 203.064 292.362 218.227 291.823 233.441C291.701 236.318 291.534 239.159 291.329 242.044C290.949 248.143 290.507 254.498 291.004 260.646C292.063 273.227 296.887 285.146 302.379 296.633C301.853 297.26 301.198 297.858 300.627 298.448C294.926 286.481 289.729 274.096 288.649 260.81C288.139 254.498 288.573 248.06 288.946 241.878C289.113 239.038 289.28 236.198 289.447 233.358C290.008 218.391 288.079 203.476 283.736 188.98C282.906 186.144 281.747 183.337 280.632 180.567C277.183 172.019 273.578 163.109 279.465 153.453C281.568 149.944 284.657 147.264 287.634 144.718C288.792 143.703 290.032 142.68 291.145 141.627C302.996 130.327 308.731 112.29 306.926 92.1285C305.684 76.0317 300.069 60.7746 294.168 46.0411Z" fill="#EACDC1"/>
<path d="M313.197 66.4406L317.047 71.5057C318.912 78.5727 320.447 85.6685 321.284 92.867C323.806 114.087 318.896 133.964 307.721 147.282C306.561 148.755 305.267 150.115 304.018 151.512C298.526 157.602 292.883 163.872 293.952 171.341C294.436 174.498 296.15 177.465 297.857 180.349L298.632 181.611C308.915 199.41 312.941 221.205 309.605 241.484C309.222 243.761 308.764 246.128 308.254 248.375C307.119 253.917 305.96 259.67 306.203 265.3C306.501 272.504 309.056 279.386 312.152 285.805C311.626 286.433 311.061 287.105 310.497 287.778C307.065 280.848 304.167 273.373 303.842 265.382C303.57 259.422 304.797 253.497 305.963 247.827C306.428 245.543 306.893 243.258 307.275 240.981C310.535 221.249 306.68 199.979 296.605 182.66L295.874 181.436C294.071 178.394 292.215 175.233 291.688 171.581C290.443 163.047 296.507 156.366 302.338 149.873C303.587 148.475 304.798 147.123 305.964 145.732C316.726 132.907 321.446 113.712 318.975 93.0689C317.904 84.1458 315.88 75.2643 313.197 66.4406Z" fill="#EACDC1"/>
<path d="M327.65 87.7391L330.972 93.8892C331.492 97.4588 331.93 101.036 332.323 104.575C333.653 116.924 329.08 132.574 318.853 151.045C318.242 152.138 317.632 153.23 316.946 154.412C314.232 159.012 311.156 164.226 310.622 169.051C310.089 173.877 312.122 180.015 313.925 185.425C314.548 187.324 315.164 189.14 315.6 190.805L316.2 192.913C320.244 207.311 324.413 222.196 322.046 237.403C321.67 239.763 321.13 242.137 320.665 244.422C319.889 247.897 319.089 251.582 318.86 255.134C318.547 261.062 319.795 266.77 321.935 272.234C321.423 273.027 320.91 273.82 320.353 274.575C317.811 268.315 316.206 261.848 316.559 254.961C316.767 251.162 317.604 247.432 318.411 243.829C318.921 241.583 319.423 239.253 319.723 236.983C321.97 222.285 317.904 207.64 313.927 193.528L313.327 191.419C312.853 189.799 312.282 188.02 311.621 186.167C309.759 180.554 307.622 174.176 308.232 168.803C308.805 163.476 311.986 158.045 314.851 153.265C315.499 152.128 316.192 151.029 316.766 149.982C326.781 131.944 331.232 116.803 329.946 104.949C329.448 99.2582 328.658 93.5515 327.65 87.7391Z" fill="#EACDC1"/>
<path d="M334.061 250.771C333.479 245.545 333.578 240.508 333.746 235.299C333.826 231.469 333.937 227.512 333.748 223.457C333.025 209.018 330.614 195.226 326.542 182.41C326.305 181.599 325.978 180.714 325.696 179.866C323.737 174.095 321.586 167.552 323.885 161.534C325.276 157.963 327.589 154.478 329.827 151.083C331.364 148.704 332.833 146.498 334.01 144.276C338.28 136.091 340.64 127.449 341.638 118.428C342.202 120.124 342.766 121.82 343.292 123.56C342.037 131.066 339.726 138.374 336.097 145.34C334.89 147.689 333.308 150.03 331.809 152.364C329.646 155.669 327.408 159.065 326.123 162.418C324.126 167.621 326.159 173.759 328 179.124C328.327 180.01 328.609 180.858 328.891 181.706C333.059 194.679 335.492 208.719 336.23 223.323C336.426 227.461 336.322 231.5 336.204 235.375C336.116 239.122 336.014 242.705 336.212 246.386L334.061 250.771Z" fill="#EACDC1"/>
<path d="M348.029 207.622C346.688 200.842 344.979 194.135 342.865 187.547L342.116 185.161C340.187 179.263 338.244 173.2 338.393 166.83C338.632 158.166 341.972 150.269 345.213 142.673C345.795 141.25 346.377 139.828 346.997 138.361C347.322 139.704 347.565 141.054 347.853 142.442C347.716 142.786 347.543 143.175 347.407 143.519C344.233 150.944 340.999 158.623 340.762 166.83C340.614 172.743 342.505 178.686 344.375 184.382L345.124 186.768C346.666 191.577 347.962 196.409 349.099 201.337L348.029 207.622Z" fill="#EACDC1"/>
<path d="M79.3396 102.067C77.401 101.281 75.4144 101.372 73.9123 102.251C70.9907 104.003 70.6556 107.772 70.6463 110.515C70.6683 121.691 71.9795 132.878 74.5887 143.703C76.5545 151.925 81.0792 157.097 85.773 156.603C87.3776 156.421 88.722 155.639 89.8132 154.338C91.77 152.006 92.9226 148.083 93.0525 142.919C93.3331 130.927 90.5404 118.955 84.9926 108.263C84.0468 106.475 82.8695 104.418 80.9556 102.965C80.4695 102.633 79.9009 102.309 79.3396 102.067ZM82.9277 109.357C88.3193 119.689 90.9934 131.256 90.7216 142.873C90.5494 149.454 88.4952 153.996 85.5333 154.339C82.654 154.674 78.754 150.943 76.9139 143.209C74.3192 132.549 72.9848 121.571 72.9772 110.56C72.9834 108.732 73.1489 106.349 74.3154 104.958C74.5412 104.689 74.8118 104.458 75.1272 104.264C76.036 103.727 77.2427 103.747 78.5303 104.216C78.9195 104.389 79.2711 104.608 79.6674 104.864C81.0953 105.986 82.1236 107.766 82.9277 109.357Z" fill="#EACDC1"/>
<path d="M140.116 317.519L140.367 318.494C143.24 329.005 146.204 339.134 149.191 349.053C148.351 348.96 147.505 348.785 146.659 348.609C143.745 339.058 140.931 329.207 138.132 319.064L137.835 318.051C133.321 301.118 129.781 297.231 127.593 296.924C125.997 296.731 124.394 298.824 123.428 300.612C121.664 303.717 121.996 307.511 122.543 311.868L126.781 344.157C125.972 343.937 125.163 343.717 124.31 343.459L120.204 312.197C119.721 308.582 119.071 303.528 121.378 299.504C123.399 296.003 125.623 294.354 127.931 294.609C133.482 295.37 137.347 307.248 140.116 317.519Z" fill="#EACDC1"/>
</g>
</g>
<defs>
<clipPath id="clip0">
<rect width="351" height="351" fill="white"/>
</clipPath>
</defs>
</svg>
