<svg width="344" height="344" viewBox="0 0 344 344" fill="none" xmlns="http://www.w3.org/2000/svg">
<g clip-path="url(#clip0)">
<g opacity="0.4">
<path d="M-0.208128 161.837C-0.284151 171.227 0.58169 180.658 4.68415 188.377C8.39893 195.396 13.7803 201.412 19.0595 207.192C24.2577 212.98 29.6321 218.915 33.4719 225.964C38.3426 235.003 40.3619 245.026 42.3528 254.725C43.8726 262.303 45.4207 270.205 48.4209 277.45C49.348 279.653 50.2752 281.857 51.2094 284.142C53.5749 289.728 55.9106 295.44 57.9664 301.216C56.7704 300.138 55.5745 299.059 54.3786 297.981C52.7742 293.633 50.927 289.307 49.1308 285.099C48.1966 282.814 47.2253 280.573 46.2982 278.37C43.2398 270.926 41.6477 262.987 40.1138 255.248C38.218 245.703 36.2129 235.842 31.4955 227.157C27.802 220.381 22.5157 214.519 17.3686 208.85C12.0383 202.952 6.5248 196.825 2.66376 189.533C1.49365 187.351 0.589243 184.941 -0.153196 182.517C-0.60052 175.539 -0.628784 168.687 -0.208128 161.837Z" fill="#EACDC1"/>
<path d="M154.78 56.8063C166.237 66.0445 172.837 81.7868 172.462 98.9551C172.287 107.212 170.471 115.367 168.751 123.229C168.251 125.435 167.794 127.678 167.338 129.921C162.504 153.477 161.546 177.51 164.409 201.371C165.696 212.356 168.395 217.546 172.123 224.727C173.644 227.654 175.37 231.052 177.247 235.254C179.226 239.691 181.374 244.195 183.428 248.544C186.819 255.591 190.356 262.911 193.171 270.375C200.722 289.992 204.285 311.14 207.667 331.611C208.121 334.468 208.619 337.362 209.117 340.256C208.359 340.445 207.6 340.634 206.834 340.741C206.329 337.766 205.831 334.872 205.333 331.978C201.965 311.67 198.453 290.639 191.004 271.259C188.159 263.919 184.666 256.636 181.275 249.589C179.222 245.24 176.993 240.743 175.05 236.262C173.217 232.097 171.499 228.78 169.978 225.853C166.147 218.436 163.435 213.084 162.031 201.702C159.147 177.597 160.164 153.314 164.977 129.516C165.433 127.272 165.934 125.066 166.427 122.779C168.154 114.999 169.896 106.931 170.092 98.9176C170.487 82.4411 164.194 67.4065 153.266 58.6117C151.555 57.2517 149.697 56.0679 147.876 54.8401L146.364 53.8708C135.195 46.525 125.062 37.4973 115.363 28.7582C110.315 24.2223 105.091 19.5388 99.733 15.1932C100.478 14.8425 101.259 14.4478 102.092 14.1709C107.192 18.3758 112.108 22.8007 116.929 27.0708C126.621 35.729 136.666 44.6827 147.71 51.9987L149.222 52.968C151.08 54.1518 152.982 55.3725 154.78 56.8063Z" fill="#EACDC1"/>
<path d="M20.1365 89.8424C21.3186 101.489 21.2735 112.631 19.9058 123.114C19.224 128.844 17.7482 134.359 16.3021 139.748C12.9252 152.447 9.6905 164.439 16.8645 177.887C20.5282 184.788 26.2492 190.489 31.787 195.961C36.6133 200.761 41.5715 205.672 45.3051 211.506C49.6535 218.306 52.2473 226.035 54.7388 233.528C57.0046 240.306 59.6894 247.211 62.5347 254.551C70.531 275.067 78.746 296.216 78.4699 316.844C77.6915 316.341 76.9131 315.838 76.1717 315.291C76.0768 295.552 68.1315 275.154 60.4049 255.39C57.5597 248.05 54.8308 241.108 52.5579 234.249C50.0806 226.918 47.582 219.344 43.3727 212.736C39.7415 207.138 34.8712 202.301 30.1771 197.611C24.5072 192.028 18.654 186.217 14.8001 179.006C7.26828 164.733 10.5925 152.365 14.052 139.211C15.4681 133.946 16.9071 128.476 17.6031 122.907C18.753 113.668 18.9257 103.983 18.114 93.7728C18.8474 92.3623 19.4699 91.0839 20.1365 89.8424Z" fill="#EACDC1"/>
<path d="M144.007 71.2532C151.802 86.1973 155.081 102.23 153.961 120.198C153.308 130.455 151.978 140.444 150.621 150.11C148.199 167.661 145.898 184.264 147.705 202.588C149.192 217.716 156.669 228.568 164.564 239.994C166.944 243.417 169.375 246.958 171.703 250.712C183.173 268.965 188.385 290.296 191.626 306.821C192.422 310.791 193.181 314.804 193.984 318.855C195.474 326.558 196.978 334.423 198.637 342.193C197.871 342.301 197.106 342.408 196.34 342.516C194.681 334.746 193.184 326.962 191.694 319.259C190.935 315.246 190.176 311.232 189.38 307.263C186.153 290.899 181.051 269.885 169.77 251.942C167.45 248.269 165.019 244.728 162.682 241.342C154.597 229.606 146.981 218.563 145.445 202.867C143.653 184.256 145.903 167.536 148.392 149.816C149.712 140.194 151.093 130.322 151.709 120.109C152.784 102.553 149.621 86.9184 142.024 72.3651C133.835 56.6396 122.254 49.2482 107.611 39.9624L104.372 37.9202C97.3737 33.4734 90.6267 28.6375 84.1314 23.4123C84.8247 22.9436 85.5252 22.556 86.2257 22.1683C92.4498 27.0908 98.8885 31.6682 105.549 35.9813L108.787 38.0236C123.732 47.487 135.526 54.9821 144.007 71.2532Z" fill="#EACDC1"/>
<path d="M17.1977 233.467C20.3502 239.188 20.5232 246.762 20.4391 254.195C19.6197 252.757 18.8373 251.275 18.1359 249.786C18.0519 244.163 17.4963 238.744 15.2143 234.579C13.7587 231.932 11.425 229.974 8.92941 228.03C8.49215 226.762 8.04781 225.414 7.64749 224.103C8.13184 224.509 8.69715 224.908 9.1815 225.315C12.1984 227.621 15.3034 230.001 17.1977 233.467Z" fill="#EACDC1"/>
<path d="M182.161 48.9438C194.956 60.88 200.883 79.6594 197.241 96.7872C196.148 102.023 194.262 107.044 192.361 111.902C191.827 113.254 191.337 114.643 190.802 115.996C179.407 147.102 177.047 181.212 183.932 214.677C186.973 229.384 193.364 243.676 199.507 257.459C203.312 265.979 207.22 274.736 210.317 283.563C215.201 297.415 216.454 312.197 217.62 326.456C217.946 330.181 218.242 334.031 218.611 337.793C217.853 337.982 217.138 338.208 216.38 338.397C215.951 334.436 215.611 330.549 215.271 326.662C214.076 312.528 212.881 297.945 208.1 284.328C205.053 275.619 201.145 266.863 197.384 258.379C191.19 244.478 184.748 230.069 181.649 215.162C174.647 181.3 177.053 146.778 188.656 115.245C189.146 113.856 189.681 112.503 190.215 111.151C192.042 106.381 193.891 101.405 194.961 96.3746C198.387 80.0409 192.737 62.0941 180.515 50.6381C173.853 44.4483 165.647 40.1888 157.661 36.114C154.84 34.6472 151.894 33.1507 149.066 31.6029C143.234 28.3597 137.992 24.412 132.802 20.5822C129.572 18.172 126.254 15.688 122.876 13.454C120.453 11.8709 118.192 10.2735 115.931 8.67621C116.844 8.39229 117.758 8.10839 118.627 7.78752C120.411 9.0594 122.232 10.2873 124.134 11.508C127.6 13.8159 130.918 16.2999 134.148 18.7101C139.25 22.466 144.491 26.4138 150.111 29.5532C152.902 31.145 155.804 32.6046 158.662 34.0273C166.861 38.2059 175.236 42.5323 182.161 48.9438Z" fill="#EACDC1"/>
<path d="M222.356 77.4949C222.984 89.802 219.413 103.088 212.077 115.766C210.804 117.999 209.59 119.982 208.413 121.921C202.885 131.013 198.896 137.645 198.133 149.911C197.309 162.875 197.367 176.13 198.345 189.181C200.392 217.235 207.364 248.897 218.046 278.195C219.614 282.586 221.431 287.037 223.153 291.334C226.853 300.516 230.707 310.052 232.918 319.936C233.846 324.017 234.538 328.199 235.025 332.359C234.317 332.665 233.566 332.935 232.814 333.205C232.314 328.883 231.651 324.576 230.716 320.415C228.482 310.737 224.717 301.274 221.068 292.21C219.345 287.913 217.528 283.462 215.917 279.034C205.213 249.493 198.146 217.676 196.078 189.38C195.129 176.203 195.064 162.868 195.881 149.822C196.675 136.982 200.775 130.218 206.481 120.825C207.621 118.93 208.872 116.903 210.108 114.714C217.23 102.382 220.681 89.5956 220.051 77.7374C219.347 64.0905 213.082 51.7054 203.23 44.4892C197.475 40.26 190.528 37.8078 183.788 35.3783C182.524 34.9178 181.259 34.4573 179.995 33.9967C161.281 27.1478 143.534 17.3583 127.502 5.25649C128.46 5.00952 129.373 4.72562 130.375 4.5156C145.864 16.0121 162.914 25.2914 180.827 31.8432C182.091 32.3037 183.355 32.7643 184.619 33.2248C191.485 35.6841 198.644 38.2401 204.657 42.6099C214.986 50.1516 221.676 63.1932 222.356 77.4949Z" fill="#EACDC1"/>
<path d="M232.48 45.8469C237.94 54.6306 238.507 65.3111 239.012 74.8138C239.796 88.9025 239.831 102.363 232.246 112.655C230.242 115.401 227.791 117.696 225.377 119.947C223.191 122.015 220.932 124.171 219.062 126.579C209.511 139.124 211.819 152.916 214.323 167.547C214.713 169.676 215.059 171.767 215.369 173.902C215.973 178.011 216.739 182.105 217.424 186.207C219.482 198.062 221.618 210.36 221.526 222.363L221.546 223.055C221.431 235.264 221.314 247.922 223.481 260.094C225.229 269.815 229.418 278.057 233.811 286.77C234.893 288.879 235.931 290.95 236.976 293.103C242.195 303.784 245.755 315.101 248.492 326.326C247.791 326.713 247.083 327.02 246.339 327.371C243.64 316.102 240.079 304.786 234.905 294.141C233.904 292.025 232.822 289.917 231.784 287.845C227.295 278.977 223.011 270.58 221.235 260.535C219.01 248.164 219.119 235.425 219.264 223.091L219.244 222.399C219.358 210.639 217.228 198.423 215.178 186.648C214.449 182.51 213.72 178.371 213.115 174.263C212.769 172.171 212.46 170.036 212.07 167.908C209.624 153.475 207.092 138.519 217.308 125.182C219.245 122.605 221.622 120.398 223.881 118.242C226.177 116.042 228.592 113.791 230.447 111.221C237.597 101.539 237.516 88.49 236.812 74.8432C236.335 65.6643 235.752 55.2708 230.621 46.9887C223.778 35.919 210.621 31.0318 197.883 26.2712L195.267 25.2761C178.053 18.7855 161.521 10.7666 145.878 1.24188C147.085 1.05463 148.293 0.867298 149.464 0.724082C164.27 9.54679 179.899 17.033 196.098 23.1227L198.671 24.0807C211.636 29.1071 225.168 34.0838 232.48 45.8469Z" fill="#EACDC1"/>
<path d="M82.1409 74.3403C91.5797 86.1621 99.6152 97.3316 101.684 114.449C103.237 127.532 103.441 141.06 103.61 154.182C103.839 171.257 104.074 188.861 107.454 205.579C111.326 224.66 120.546 242.376 129.518 259.584C132.501 265.239 135.587 271.129 138.386 277.004C148.391 297.63 154.712 319.516 160.888 340.681C161.187 341.756 161.529 342.869 161.834 344.025C161.054 343.971 160.193 343.924 159.413 343.87C159.136 343.037 158.94 342.198 158.664 341.365C152.538 320.318 146.268 298.55 136.314 278.042C133.479 272.211 130.437 266.358 127.454 260.703C118.431 243.377 109.116 225.507 105.134 206.108C101.739 189.229 101.491 171.462 101.254 154.307C101.093 141.265 100.888 127.738 99.2688 114.824C97.2496 98.2729 89.4414 87.3692 80.2369 75.894C74.8798 69.2229 64.162 59.104 58.1154 60.4082C57.1138 60.6183 56.3025 61.138 55.5636 62.0186C54.7877 62.9433 54.1723 64.3027 53.6732 66.0599C52.9125 69.0232 53.453 72.403 53.87 75.3041L60.6423 118.203C61.6651 124.764 61.5982 131.461 61.591 137.908C61.51 144.443 61.4871 151.176 62.5469 157.693C64.8606 172.015 69.3427 185.005 76.0384 196.251C87.3437 215.416 102.957 244.65 108.072 277.004C110.097 289.883 110.442 303.153 110.825 315.931C110.963 320.774 111.057 325.58 111.188 330.342C111.236 331.357 111.24 332.336 111.244 333.315C110.443 333.018 109.686 332.758 108.922 332.417C108.902 331.725 108.883 331.033 108.863 330.341C108.732 325.579 108.638 320.773 108.544 315.967C108.204 303.227 107.785 290.044 105.812 277.284C100.769 245.29 85.302 216.329 74.0109 197.326C67.2498 185.8 62.5847 172.581 60.2426 157.935C59.1616 151.176 59.2583 144.354 59.2953 137.782C59.3465 131.372 59.3835 124.8 58.419 118.439L51.6466 75.5394C51.1274 72.4025 50.5657 68.7797 51.4458 65.3164C52.5492 61.14 54.6182 58.6743 57.623 58.0442C67.3151 55.9723 82.0017 74.1485 82.1409 74.3403Z" fill="#EACDC1"/>
<path d="M39.8025 60.9497C45.3721 83.1058 48.4667 105.886 48.9189 128.776C48.9806 132.279 48.9684 135.87 48.8894 139.631C48.743 152.414 48.5511 165.609 52.9212 176.854C55.6061 183.759 60.3821 190.318 65.1 196.678C68.4403 201.281 71.9568 206.033 74.6705 210.936C81.2311 222.969 86.8042 235.374 91.1556 247.804C97.5699 266.092 100.567 287.29 99.9851 309.086C99.8018 315.385 99.5446 321.773 99.2803 328.079C98.5161 327.738 97.7888 327.352 97.0246 327.011C97.2803 321.073 97.4848 315.017 97.6965 309.042C98.3435 287.525 95.3308 266.614 89.0188 248.562C84.7185 236.25 79.2405 224 72.687 212.048C70.0684 207.299 66.6401 202.622 63.2998 198.018C58.5308 191.54 53.6226 184.871 50.8724 177.686C46.3419 166.006 46.5126 152.568 46.6818 139.579C46.7238 135.863 46.78 132.308 46.7183 128.805C46.2489 106.652 43.3431 84.6296 38.0362 63.1441C38.5464 62.4467 39.1745 61.6982 39.8025 60.9497Z" fill="#EACDC1"/>
<path d="M175.641 344.205C173.254 329.522 169.519 311.081 161.91 293.591C156.302 280.782 149.35 268.946 142.596 257.501C128.327 233.373 114.908 210.557 114.804 180.457C114.771 172.626 115.248 164.547 115.755 155.894C117.505 125.999 119.369 95.0731 99.8933 72.0529C93.7066 64.7607 86.3904 58.5466 79.3383 52.5542C74.5758 48.4829 69.6003 44.308 65.0893 39.8476C64.5098 39.2863 63.9232 38.644 63.2856 37.8838C62.7172 38.3823 62.1048 38.8439 61.5365 39.3424C62.2182 40.1395 62.8558 40.8997 63.4794 41.498C68.0784 46.0323 73.0169 50.2513 77.8604 54.3154C84.8685 60.2709 92.1407 66.4481 98.1512 73.5924C117.078 95.9264 115.252 126.359 113.504 155.805C112.996 164.458 112.483 172.581 112.559 180.449C112.676 211.16 126.279 234.205 140.657 258.65C147.404 270.014 154.311 281.813 159.869 294.504C167.317 311.559 171.024 329.676 173.359 344.241L175.641 344.205Z" fill="#EACDC1"/>
<path d="M30.6891 72.8851C33.5019 85.4499 35.4594 98.4975 36.4366 111.998C37.0782 120.265 36.6318 128.219 36.2379 135.842C35.312 152.773 34.4261 168.762 45.239 185.564C48.4017 190.468 52.036 195.169 55.5383 199.758C59.3999 204.724 63.3566 209.845 66.7307 215.302C86.8453 247.487 90.5886 285.144 88.665 322.847C87.9377 322.462 87.1664 322.04 86.432 321.573C88.1765 284.62 84.3861 247.825 64.7913 216.451C61.4683 211.112 57.5556 206.028 53.7011 201.143C50.1548 196.516 46.4764 191.779 43.2257 186.8C32.0323 169.379 32.8898 153.066 33.8612 135.723C34.2991 128.137 34.7157 120.308 34.0882 112.203C33.145 99.5567 31.4203 87.3048 28.8331 75.4546C29.4911 74.5811 30.0681 73.7146 30.6891 72.8851Z" fill="#EACDC1"/>
<path d="M183.478 343.804C182.959 340.668 182.528 337.605 182.053 334.505C179.491 317.348 176.799 299.632 170.54 283.126C168.462 277.555 165.768 271.018 161.822 265.081C159.274 261.142 156.137 257.459 153.094 253.931C130.092 226.976 121.043 193.497 126.114 154.457C126.703 149.999 127.44 145.365 128.198 140.974C130.474 127.352 132.752 113.282 130.421 99.6954C125.743 72.8102 105.336 57.3376 83.7408 40.8675C79.7183 37.7923 75.6517 34.6802 71.659 31.48C72.3524 31.0113 72.9648 30.5498 73.6212 30.1251C77.3938 33.1406 81.2842 36.1049 85.1306 39.0323C106.154 55.0222 127.882 71.6032 132.711 99.2911C135.158 113.275 132.777 127.559 130.515 141.343C129.757 145.734 129.013 150.287 128.424 154.745C123.414 193.085 132.333 226.005 154.881 252.428C157.93 256.037 161.067 259.72 163.747 263.77C167.833 269.899 170.577 276.554 172.707 282.243C179.068 298.985 181.774 316.863 184.306 334.144C184.788 337.325 185.227 340.469 185.79 343.643L183.478 343.804Z" fill="#EACDC1"/>
<path d="M240.107 28.534C244.449 32.9276 246.588 40.125 248.487 46.4459C249.004 48.155 249.477 49.8271 250.016 51.3303C252.596 58.8972 255.377 67.8337 256.405 77.2499C257.94 91.0688 255.262 103.828 248.806 113.043C245.907 117.213 242.399 120.947 239.001 124.549C229.672 134.504 221.614 143.124 227.223 157.81C239.04 188.885 244.179 222.911 242.065 256.102L241.962 258.192C241.576 263.57 241.241 269.067 242.268 274.281C243.281 279.333 245.664 284.183 247.945 288.798L248.939 290.833C253.426 300.15 257.293 309.848 260.365 319.779C259.665 320.167 259.008 320.592 258.308 320.979C255.229 310.967 251.391 301.144 246.86 291.79L245.866 289.755C243.49 284.985 241.057 280.017 240.015 274.641C238.878 269.11 239.28 263.445 239.615 257.948L239.755 255.815C241.817 222.954 236.713 189.334 225.043 158.532C218.945 142.46 227.904 132.945 237.307 122.902C240.63 119.388 244.102 115.698 246.89 111.66C253.013 102.842 255.542 90.7075 254.093 77.4114C253.087 68.2381 250.357 59.4195 247.791 52.0146C247.252 50.5114 246.735 48.8022 246.255 47.049C244.421 41.0081 242.347 34.0906 238.409 30.1105C227.803 19.4106 210.583 12.839 196.698 7.56671L195.346 7.03227C191.421 5.5397 187.29 4.02437 182.953 2.48625C180.131 1.46843 177.264 0.413613 174.354 -0.678103C176.804 -0.647709 179.255 -0.617269 181.72 -0.424919C182.396 -0.157684 183.072 0.109525 183.785 0.332729C188.166 1.9078 192.297 3.42312 196.266 4.95264L197.618 5.48708C211.634 10.8702 229.149 17.5386 240.107 28.534Z" fill="#EACDC1"/>
<path d="M256.887 21.6803C258.557 23.9821 260.08 26.4601 261.461 29.1952C267.31 40.5559 270.233 53.4374 272.513 64.58C274.844 75.8405 276.997 87.8511 275.419 99.6577C273.719 112.413 267.642 122.696 257.868 129.426L257.596 129.572C248.205 136.024 241.47 140.652 240.45 152.777C239.682 162.187 242.647 171.353 245.956 180.732L247.793 185.876C254.734 205.056 261.857 224.914 259.852 245.366C259.442 249.074 258.826 252.759 258.122 256.37C257.155 261.636 256.165 267.108 256.19 272.532C256.275 286.56 262.928 299.645 269.383 312.34C269.581 312.731 269.822 313.158 269.983 313.593C269.37 314.055 268.714 314.479 268.057 314.904C267.809 314.395 267.56 313.887 267.312 313.378C260.717 300.491 253.918 287.133 253.865 272.532C253.825 266.946 254.845 261.349 255.805 256.002C256.435 252.478 257.132 248.786 257.468 245.167C259.442 225.288 252.34 205.673 245.538 186.685L243.701 181.542C240.246 171.889 237.216 162.444 238.111 152.615C239.2 139.423 246.71 134.319 256.211 127.735L256.44 127.552C265.675 121.195 271.434 111.471 273.028 99.3773C274.553 87.9017 272.422 76.1341 270.149 65.0725C267.839 54.0549 264.938 41.4163 259.272 30.2843C257.057 25.9494 254.486 22.2168 251.671 18.9543C251.759 19.0282 251.884 19.0581 251.972 19.132L256.887 21.6803Z" fill="#EACDC1"/>
<path d="M276.152 34.3966C285.61 55.7637 290.093 74.8325 289.805 92.5237C289.456 110.914 284.162 124.555 273.59 134.292C272.04 135.693 270.365 137.063 268.727 138.39C264.114 142.098 259.812 145.616 257.69 150.738C255.404 156.324 256.45 162.678 257.759 169.255C261.046 185.368 264.994 201.587 269.4 217.44L269.684 218.353C271.691 225.44 273.713 232.689 273.43 240.18C273.317 243.086 272.866 245.859 272.415 248.632C272.069 250.743 271.731 252.935 271.554 255.113C270.115 271.314 277.982 286.618 285.843 301.393C285.275 301.892 284.67 302.435 284.057 302.896C275.911 287.656 267.721 271.931 269.251 254.906C269.465 252.685 269.796 250.412 270.179 248.257C270.637 245.565 271.088 242.792 271.178 240.091C271.452 232.968 269.445 225.881 267.496 218.994L267.249 218.036C262.718 202.154 258.807 185.891 255.513 169.696C254.094 162.803 253.057 156.08 255.536 149.907C257.859 144.277 262.619 140.393 267.268 136.641C268.869 135.358 270.545 133.988 272.058 132.631C282.142 123.385 287.198 110.295 287.524 92.56C287.836 74.214 282.87 54.2898 272.408 31.705L272.496 31.7789L276.152 34.3966Z" fill="#EACDC1"/>
<path d="M288.527 44.7787L292.444 48.5158C297.639 61.7289 302.222 75.4036 303.476 89.7367C305.312 110.261 299.377 128.691 287.29 140.234C286.161 141.312 284.987 142.353 283.769 143.357C280.846 145.857 278.079 148.261 276.191 151.405C271.025 159.976 274.156 167.78 277.447 176.019C278.542 178.738 279.688 181.575 280.554 184.478C284.839 198.954 286.754 213.841 286.225 228.779C286.105 231.605 285.941 234.393 285.74 237.226C285.366 243.215 284.933 249.455 285.42 255.491C286.46 267.844 291.197 279.547 296.59 290.825C296.072 291.441 295.43 292.028 294.869 292.608C289.271 280.858 284.168 268.697 283.109 255.653C282.607 249.454 283.033 243.134 283.4 237.064C283.564 234.275 283.728 231.486 283.892 228.698C284.442 214.003 282.549 199.358 278.285 185.125C277.47 182.341 276.331 179.584 275.236 176.865C271.85 168.471 268.31 159.724 274.09 150.242C276.155 146.798 279.189 144.166 282.112 141.666C283.249 140.669 284.466 139.665 285.559 138.631C297.195 127.536 302.826 109.826 301.054 90.0302C299.834 74.2253 294.321 59.2449 288.527 44.7787Z" fill="#EACDC1"/>
<path d="M307.209 64.8081L310.99 69.7813C312.821 76.7201 314.328 83.6873 315.151 90.7551C317.626 111.591 312.806 131.106 301.833 144.184C300.694 145.63 299.424 146.965 298.198 148.337C292.805 154.316 287.265 160.472 288.314 167.806C288.789 170.906 290.472 173.818 292.148 176.65L292.909 177.889C303.006 195.365 306.959 216.765 303.682 236.676C303.307 238.912 302.857 241.236 302.357 243.442C301.242 248.885 300.104 254.533 300.343 260.061C300.635 267.134 303.144 273.891 306.184 280.194C305.667 280.81 305.113 281.471 304.559 282.131C301.189 275.327 298.344 267.987 298.024 260.141C297.757 254.289 298.962 248.472 300.107 242.905C300.563 240.662 301.02 238.419 301.395 236.183C304.596 216.809 300.811 195.924 290.918 178.92L290.201 177.718C288.431 174.731 286.608 171.627 286.091 168.041C284.868 159.662 290.822 153.103 296.547 146.727C297.774 145.355 298.963 144.027 300.108 142.662C310.675 130.069 315.309 111.222 312.883 90.9534C311.831 82.1921 309.844 73.4718 307.209 64.8081Z" fill="#EACDC1"/>
<path d="M321.402 85.7203L324.663 91.7588C325.174 95.2636 325.604 98.7756 325.989 102.251C327.295 114.376 322.805 129.742 312.764 147.878C312.164 148.951 311.565 150.023 310.891 151.184C308.226 155.701 305.206 160.82 304.682 165.558C304.158 170.295 306.155 176.322 307.925 181.634C308.537 183.498 309.141 185.282 309.57 186.917L310.159 188.987C314.129 203.123 318.223 217.738 315.899 232.67C315.53 234.987 315 237.318 314.543 239.561C313.781 242.973 312.996 246.591 312.771 250.079C312.464 255.899 313.689 261.504 315.79 266.869C315.287 267.647 314.784 268.426 314.237 269.167C311.741 263.021 310.165 256.672 310.512 249.909C310.716 246.179 311.538 242.517 312.33 238.98C312.83 236.773 313.324 234.486 313.619 232.257C315.824 217.826 311.832 203.446 307.927 189.59L307.338 187.52C306.873 185.929 306.312 184.183 305.663 182.363C303.834 176.852 301.736 170.589 302.336 165.314C302.898 160.084 306.022 154.751 308.834 150.058C309.471 148.942 310.152 147.862 310.714 146.834C320.548 129.123 324.918 114.257 323.655 102.618C323.166 97.0304 322.391 91.4272 321.402 85.7203Z" fill="#EACDC1"/>
<path d="M327.697 245.795C327.125 240.664 327.223 235.718 327.387 230.604C327.466 226.844 327.575 222.958 327.39 218.976C326.68 204.8 324.312 191.257 320.315 178.674C320.082 177.878 319.761 177.009 319.484 176.176C317.56 170.51 315.448 164.086 317.705 158.176C319.071 154.671 321.342 151.249 323.539 147.915C325.049 145.58 326.491 143.414 327.647 141.232C331.839 133.195 334.157 124.71 335.136 115.852C335.69 117.518 336.244 119.183 336.76 120.892C335.528 128.262 333.259 135.437 329.696 142.277C328.511 144.583 326.958 146.882 325.485 149.173C323.362 152.418 321.165 155.752 319.903 159.045C317.943 164.153 319.939 170.18 321.746 175.448C322.067 176.318 322.344 177.15 322.62 177.983C326.713 190.721 329.102 204.506 329.827 218.845C330.019 222.908 329.917 226.874 329.801 230.679C329.715 234.358 329.615 237.876 329.809 241.49L327.697 245.795Z" fill="#EACDC1"/>
<path d="M341.41 203.429C340.094 196.772 338.416 190.187 336.34 183.718L335.605 181.375C333.711 175.584 331.803 169.631 331.949 163.376C332.184 154.87 335.464 147.116 338.646 139.657C339.218 138.261 339.789 136.865 340.397 135.424C340.717 136.743 340.955 138.068 341.237 139.431C341.104 139.769 340.933 140.151 340.8 140.489C337.684 147.779 334.508 155.319 334.275 163.377C334.13 169.183 335.987 175.018 337.823 180.61L338.558 182.953C340.073 187.675 341.345 192.419 342.462 197.258L341.41 203.429Z" fill="#EACDC1"/>
<path d="M77.5953 99.7886C75.6918 99.0168 73.7413 99.1058 72.2664 99.9692C69.3978 101.689 69.0688 105.39 69.0596 108.083C69.0813 119.056 70.3687 130.041 72.9305 140.669C74.8607 148.742 79.3033 153.82 83.912 153.335C85.4875 153.157 86.8075 152.388 87.8789 151.111C89.8002 148.822 90.9319 144.969 91.0595 139.899C91.3349 128.125 88.5929 116.37 83.1458 105.872C82.2171 104.117 81.0611 102.096 79.182 100.67C78.7047 100.344 78.1464 100.026 77.5953 99.7886ZM81.1183 106.947C86.4121 117.091 89.0377 128.448 88.7708 139.855C88.6017 146.316 86.5848 150.776 83.6767 151.112C80.8495 151.441 77.0203 147.778 75.2136 140.184C72.6659 129.717 71.3557 118.939 71.3483 108.128C71.3543 106.332 71.5169 103.992 72.6622 102.627C72.8839 102.363 73.1496 102.136 73.4593 101.946C74.3516 101.419 75.5364 101.437 76.8007 101.898C77.1828 102.069 77.528 102.283 77.9172 102.535C79.3191 103.636 80.3287 105.384 81.1183 106.947Z" fill="#EACDC1"/>
<path d="M137.269 311.332L137.516 312.29C140.336 322.61 143.246 332.555 146.179 342.294C145.355 342.203 144.524 342.031 143.693 341.859C140.832 332.481 138.069 322.808 135.321 312.849L135.03 311.855C130.597 295.229 127.121 291.413 124.973 291.111C123.406 290.922 121.832 292.977 120.884 294.733C119.152 297.781 119.477 301.506 120.015 305.784L124.176 337.488C123.382 337.271 122.588 337.055 121.749 336.802L117.718 306.107C117.244 302.558 116.606 297.596 118.871 293.644C120.855 290.207 123.039 288.588 125.305 288.838C130.756 289.585 134.55 301.248 137.269 311.332Z" fill="#EACDC1"/>
</g>
</g>
<defs>
<clipPath id="clip0">
<rect width="344" height="344" fill="white"/>
</clipPath>
</defs>
</svg>
