<svg width="320" height="320" viewBox="0 0 320 320" fill="none" xmlns="http://www.w3.org/2000/svg">
<g clip-path="url(#clip0)">
<g opacity="0.2">
<path d="M0.707048 151.076C0.636488 159.792 1.44012 168.545 5.24783 175.71C8.69572 182.224 13.6905 187.808 18.5904 193.173C23.4151 198.545 28.4033 204.054 31.9673 210.596C36.488 218.986 38.3623 228.289 40.2102 237.291C41.6207 244.325 43.0576 251.659 45.8422 258.383C46.7028 260.428 47.5633 262.473 48.4304 264.594C50.626 269.779 52.7939 275.08 54.7019 280.442C53.5919 279.441 52.4819 278.44 51.3719 277.439C49.8828 273.404 48.1683 269.388 46.5012 265.482C45.6341 263.362 44.7326 261.282 43.872 259.237C41.0334 252.328 39.5557 244.96 38.1319 237.776C36.3724 228.917 34.5113 219.765 30.1329 211.703C26.7047 205.414 21.7983 199.974 17.021 194.712C12.0736 189.237 6.95624 183.55 3.3726 176.783C2.28656 174.757 1.44713 172.521 0.758034 170.271C0.342849 163.794 0.316615 157.435 0.707048 151.076Z" fill="#EACDC1"/>
<path d="M144.558 53.5918C155.192 62.1663 161.317 76.7775 160.969 92.7124C160.807 100.376 159.121 107.945 157.525 115.242C157.061 117.29 156.637 119.371 156.213 121.453C151.726 143.317 150.838 165.623 153.495 187.77C154.69 197.966 157.194 202.783 160.655 209.448C162.067 212.164 163.668 215.319 165.41 219.218C167.247 223.337 169.241 227.517 171.147 231.553C174.294 238.094 177.577 244.888 180.191 251.817C187.198 270.024 190.506 289.653 193.645 308.653C194.067 311.305 194.529 313.991 194.991 316.677C194.287 316.852 193.583 317.027 192.872 317.127C192.403 314.366 191.941 311.68 191.479 308.994C188.353 290.144 185.093 270.625 178.179 252.636C175.539 245.824 172.296 239.064 169.149 232.524C167.244 228.487 165.174 224.313 163.371 220.154C161.67 216.289 160.075 213.21 158.664 210.493C155.108 203.609 152.59 198.642 151.288 188.077C148.611 165.704 149.555 143.166 154.022 121.077C154.446 118.995 154.91 116.948 155.368 114.825C156.971 107.603 158.588 100.116 158.77 92.6775C159.136 77.3848 153.295 63.4304 143.152 55.2675C141.565 54.0052 139.84 52.9065 138.15 51.7668L136.746 50.8672C126.38 44.0491 116.975 35.6701 107.972 27.5588C103.287 23.3489 98.4384 19.0018 93.4656 14.9685C94.1566 14.643 94.8819 14.2766 95.6547 14.0196C100.389 17.9224 104.951 22.0294 109.426 25.9927C118.422 34.0288 127.745 42.3393 137.995 49.1296L139.399 50.0292C141.124 51.128 142.889 52.261 144.558 53.5918Z" fill="#EACDC1"/>
<path d="M19.5897 84.2548C20.687 95.0647 20.645 105.406 19.3757 115.136C18.7429 120.455 17.373 125.573 16.0309 130.575C12.8966 142.361 9.89428 153.492 16.5528 165.974C19.9533 172.379 25.2633 177.67 30.4032 182.749C34.8827 187.204 39.4848 191.762 42.9501 197.177C46.9861 203.489 49.3935 210.662 51.706 217.617C53.809 223.908 56.3009 230.317 58.9418 237.13C66.3636 256.171 73.9884 275.801 73.7321 294.947C73.0097 294.48 72.2872 294.013 71.599 293.505C71.5109 275.185 64.1365 256.253 56.9651 237.908C54.3242 231.096 51.7914 224.653 49.6818 218.286C47.3825 211.482 45.0634 204.452 41.1566 198.319C37.7862 193.123 33.2658 188.633 28.909 184.281C23.6464 179.099 18.2138 173.705 14.6367 167.012C7.64608 153.764 10.7315 142.286 13.9424 130.076C15.2568 125.19 16.5924 120.113 17.2383 114.944C18.3057 106.368 18.466 97.3796 17.7126 87.9028C18.3933 86.5936 18.9711 85.4071 19.5897 84.2548Z" fill="#EACDC1"/>
<path d="M134.562 67.0011C141.796 80.8715 144.84 95.7522 143.8 112.429C143.194 121.949 141.96 131.221 140.7 140.192C138.452 156.483 136.317 171.892 137.994 188.9C139.374 202.942 146.314 213.013 153.641 223.619C155.85 226.796 158.107 230.082 160.267 233.566C170.914 250.508 175.751 270.306 178.759 285.645C179.498 289.329 180.202 293.054 180.948 296.813C182.331 303.963 183.727 311.263 185.267 318.475C184.556 318.575 183.845 318.675 183.134 318.775C181.595 311.563 180.205 304.338 178.822 297.189C178.118 293.464 177.413 289.739 176.674 286.054C173.679 270.866 168.944 251.362 158.474 234.708C156.32 231.299 154.064 228.012 151.895 224.87C144.391 213.976 137.322 203.727 135.896 189.159C134.233 171.885 136.321 156.366 138.631 139.919C139.857 130.989 141.138 121.826 141.71 112.347C142.708 96.0524 139.772 81.5408 132.721 68.0331C125.12 53.4374 114.371 46.5771 100.78 37.9585L97.7742 36.0629C91.2786 31.9356 85.0164 27.4471 78.9877 22.5974C79.6312 22.1624 80.2814 21.8026 80.9315 21.4428C86.7084 26.0116 92.6845 30.2601 98.8664 34.2634L101.872 36.1589C115.743 44.9424 126.689 51.899 134.562 67.0011Z" fill="#EACDC1"/>
<path d="M16.8638 217.56C19.7898 222.871 19.9504 229.9 19.8723 236.799C19.1118 235.464 18.3856 234.089 17.7346 232.707C17.6566 227.488 17.1409 222.459 15.0229 218.592C13.6719 216.135 11.5059 214.318 9.18956 212.513C8.78371 211.337 8.3713 210.086 7.99974 208.869C8.44929 209.246 8.97399 209.617 9.42354 209.994C12.2237 212.134 15.1056 214.344 16.8638 217.56Z" fill="#EACDC1"/>
<path d="M169.97 46.2942C181.845 57.3729 187.346 74.803 183.966 90.7002C182.952 95.5602 181.201 100.22 179.437 104.729C178.941 105.984 178.486 107.273 177.99 108.529C167.414 137.4 165.223 169.06 171.614 200.12C174.436 213.771 180.368 227.036 186.069 239.828C189.601 247.737 193.228 255.864 196.103 264.057C200.636 276.914 201.799 290.634 202.881 303.869C203.183 307.326 203.458 310.899 203.801 314.391C203.097 314.566 202.434 314.776 201.73 314.951C201.332 311.275 201.017 307.667 200.701 304.059C199.591 290.94 198.483 277.405 194.045 264.767C191.217 256.683 187.59 248.556 184.099 240.682C178.35 227.78 172.371 214.406 169.495 200.571C162.996 169.141 165.229 137.099 175.998 107.832C176.453 106.542 176.949 105.287 177.445 104.032C179.141 99.6047 180.857 94.9861 181.85 90.3173C185.03 75.1571 179.786 58.4997 168.442 47.8668C162.259 42.1217 154.642 38.1682 147.23 34.3861C144.612 33.0248 141.877 31.6357 139.253 30.1992C133.839 27.189 128.975 23.5249 124.157 19.9703C121.159 17.7333 118.08 15.4277 114.945 13.3542C112.695 11.8848 110.597 10.4022 108.498 8.91969C109.346 8.65617 110.194 8.39267 111.001 8.09486C112.656 9.27536 114.347 10.415 116.112 11.5481C119.329 13.6902 122.408 15.9957 125.406 18.2327C130.142 21.7187 135.007 25.3829 140.222 28.2968C142.813 29.7742 145.506 31.1289 148.159 32.4494C155.769 36.3278 163.542 40.3433 169.97 46.2942Z" fill="#EACDC1"/>
<path d="M207.28 72.7942C207.863 84.2171 204.549 96.549 197.74 108.316C196.558 110.388 195.431 112.229 194.339 114.028C189.208 122.467 185.505 128.623 184.797 140.007C184.032 152.04 184.086 164.343 184.995 176.456C186.894 202.495 193.365 231.882 203.28 259.074C204.735 263.15 206.422 267.282 208.02 271.27C211.454 279.792 215.031 288.643 217.083 297.817C217.945 301.604 218.587 305.486 219.039 309.347C218.382 309.632 217.684 309.882 216.987 310.133C216.522 306.121 215.907 302.123 215.039 298.261C212.966 289.278 209.471 280.496 206.084 272.083C204.486 268.095 202.799 263.963 201.303 259.853C191.369 232.435 184.809 202.904 182.89 176.641C182.01 164.411 181.949 152.033 182.707 139.925C183.445 128.008 187.25 121.73 192.546 113.011C193.604 111.252 194.765 109.371 195.912 107.34C202.522 95.8932 205.725 84.0255 205.141 73.0193C204.487 60.3529 198.672 48.8576 189.528 42.1598C184.186 38.2346 177.739 35.9585 171.483 33.7036C170.31 33.2761 169.136 32.8487 167.963 32.4212C150.593 26.0644 134.121 16.9783 119.241 5.74591C120.13 5.51668 120.978 5.25318 121.907 5.05824C136.284 15.7288 152.109 24.3413 168.734 30.4224C169.908 30.8499 171.081 31.2773 172.255 31.7048C178.627 33.9874 185.272 36.3598 190.853 40.4156C200.44 47.4155 206.649 59.52 207.28 72.7942Z" fill="#EACDC1"/>
<path d="M216.677 43.4199C221.745 51.5725 222.271 61.4856 222.74 70.3057C223.468 83.3821 223.5 95.8755 216.46 105.428C214.6 107.977 212.325 110.107 210.084 112.196C208.056 114.116 205.959 116.117 204.223 118.351C195.358 129.995 197.501 142.796 199.825 156.377C200.187 158.352 200.508 160.293 200.795 162.275C201.356 166.088 202.067 169.889 202.703 173.695C204.613 184.699 206.596 196.113 206.51 207.254L206.529 207.896C206.422 219.228 206.314 230.976 208.324 242.274C209.947 251.296 213.835 258.946 217.913 267.034C218.917 268.991 219.88 270.914 220.85 272.911C225.694 282.826 228.998 293.329 231.538 303.747C230.888 304.107 230.231 304.392 229.54 304.717C227.035 294.258 223.73 283.755 218.928 273.875C217.999 271.911 216.994 269.954 216.031 268.032C211.865 259.8 207.888 252.007 206.24 242.684C204.175 231.201 204.276 219.378 204.411 207.93L204.393 207.288C204.498 196.373 202.521 185.034 200.619 174.105C199.942 170.264 199.265 166.423 198.704 162.609C198.383 160.668 198.096 158.686 197.733 156.711C195.463 143.315 193.113 129.434 202.595 117.055C204.393 114.663 206.599 112.615 208.696 110.614C210.827 108.572 213.068 106.482 214.791 104.098C221.426 95.1103 221.351 82.9992 220.698 70.3329C220.255 61.8135 219.714 52.1667 214.952 44.4797C208.6 34.2053 196.389 29.6692 184.566 25.2506L182.137 24.327C166.16 18.3028 150.816 10.86 136.297 2.01958C137.418 1.84579 138.539 1.67191 139.625 1.53899C153.368 9.72782 167.874 16.6761 182.909 22.3283L185.297 23.2175C197.33 27.8828 209.89 32.5019 216.677 43.4199Z" fill="#EACDC1"/>
<path d="M77.1403 69.8665C85.9011 80.839 93.3592 91.206 95.2793 107.094C96.7204 119.237 96.91 131.792 97.0668 143.972C97.2794 159.82 97.4972 176.16 100.634 191.676C104.229 209.387 112.787 225.83 121.114 241.801C123.883 247.049 126.747 252.517 129.344 257.97C138.631 277.114 144.498 297.428 150.23 317.072C150.507 318.07 150.824 319.102 151.108 320.176C150.384 320.125 149.585 320.082 148.861 320.031C148.604 319.259 148.422 318.479 148.165 317.707C142.48 298.172 136.66 277.968 127.422 258.933C124.79 253.521 121.967 248.088 119.197 242.84C110.823 226.759 102.177 210.172 98.4811 192.167C95.3307 176.501 95.0998 160.011 94.8806 144.088C94.7304 131.983 94.5408 119.428 93.0377 107.441C91.1636 92.0797 83.9164 81.9593 75.3731 71.3086C70.4009 65.1167 60.4531 55.7249 54.841 56.9354C53.9114 57.1303 53.1584 57.6128 52.4725 58.4301C51.7524 59.2883 51.1812 60.5501 50.718 62.181C50.0119 64.9314 50.5136 68.0684 50.9006 70.761L57.1863 110.578C58.1356 116.667 58.0736 122.883 58.0669 128.867C57.9917 134.932 57.9705 141.182 58.9541 147.231C61.1016 160.524 65.2616 172.58 71.4763 183.018C81.9693 200.807 96.4608 227.94 101.209 257.97C103.088 269.923 103.408 282.24 103.764 294.099C103.892 298.594 103.979 303.055 104.101 307.475C104.145 308.418 104.149 309.326 104.153 310.235C103.409 309.959 102.707 309.718 101.997 309.401C101.979 308.759 101.961 308.117 101.942 307.475C101.821 303.055 101.733 298.594 101.646 294.133C101.331 282.308 100.942 270.073 99.1108 258.229C94.43 228.534 80.0743 201.654 69.5944 184.016C63.3192 173.318 58.9892 161.049 56.8153 147.456C55.812 141.182 55.9018 134.85 55.9361 128.75C55.9836 122.801 56.018 116.701 55.1227 110.796L48.837 70.9794C48.3551 68.0679 47.8337 64.7054 48.6506 61.491C49.6747 57.6146 51.5951 55.326 54.384 54.7412C63.3797 52.8181 77.0112 69.6884 77.1403 69.8665Z" fill="#EACDC1"/>
<path d="M37.8406 57.4378C43.0099 78.0021 45.8822 99.146 46.3019 120.391C46.3592 123.642 46.3479 126.976 46.2746 130.466C46.1387 142.331 45.9605 154.577 50.0167 165.015C52.5086 171.424 56.9416 177.511 61.3205 183.414C64.4208 187.687 67.6846 192.097 70.2034 196.648C76.2926 207.816 81.4653 219.33 85.5041 230.867C91.4575 247.841 94.2392 267.516 93.6992 287.747C93.5291 293.593 93.2904 299.521 93.0451 305.375C92.3358 305.058 91.6608 304.7 90.9514 304.384C91.1887 298.872 91.3786 293.251 91.575 287.705C92.1756 267.734 89.3793 248.326 83.5208 231.571C79.5295 220.143 74.445 208.773 68.3624 197.68C65.9319 193.273 62.7499 188.931 59.6496 184.658C55.2233 178.646 50.6677 172.456 48.1151 165.787C43.9101 154.946 44.0685 142.474 44.2255 130.418C44.2646 126.969 44.3167 123.67 44.2595 120.418C43.8238 99.8562 41.1267 79.4164 36.2011 59.4746C36.6747 58.8272 37.2576 58.1325 37.8406 57.4378Z" fill="#EACDC1"/>
<path d="M163.921 320.342C161.706 306.714 158.239 289.598 151.177 273.365C145.971 261.476 139.519 250.491 133.251 239.868C120.007 217.473 107.551 196.297 107.455 168.359C107.425 161.091 107.867 153.592 108.338 145.561C109.962 117.813 111.692 89.1097 93.6157 67.7434C87.8736 60.9752 81.0829 55.2075 74.5375 49.6456C70.1172 45.8669 65.4991 41.9919 61.3123 37.8519C60.7744 37.331 60.23 36.7349 59.6381 36.0293C59.1106 36.492 58.5422 36.9204 58.0147 37.3831C58.6474 38.1229 59.2393 38.8285 59.818 39.3838C64.0866 43.5923 68.6704 47.5082 73.1658 51.2803C79.6704 56.808 86.4201 62.5413 91.9988 69.1724C109.565 89.9017 107.871 118.148 106.248 145.479C105.777 153.51 105.301 161.049 105.372 168.352C105.48 196.857 118.105 218.245 131.451 240.934C137.713 251.482 144.124 262.433 149.282 274.213C156.196 290.042 159.636 306.857 161.803 320.376L163.921 320.342Z" fill="#EACDC1"/>
<path d="M29.3857 68.5156C31.9964 80.1776 33.8133 92.2877 34.7203 104.818C35.3158 112.491 34.9014 119.874 34.5359 126.949C33.6765 142.664 32.8543 157.504 42.8903 173.098C45.8257 177.651 49.199 182.013 52.4496 186.273C56.0337 190.882 59.7062 195.635 62.8379 200.701C81.5073 230.573 84.9817 265.524 83.1962 300.518C82.5212 300.161 81.8053 299.769 81.1237 299.337C82.7428 265.038 79.2248 230.886 61.0378 201.767C57.9535 196.811 54.3219 192.092 50.7444 187.558C47.4529 183.264 44.0388 178.867 41.0217 174.246C30.6324 158.077 31.4283 142.936 32.3299 126.839C32.7363 119.798 33.123 112.532 32.5406 105.009C31.6651 93.2709 30.0643 81.8992 27.6631 70.9005C28.2738 70.0897 28.8093 69.2855 29.3857 68.5156Z" fill="#EACDC1"/>
<path d="M171.199 319.97C170.717 317.059 170.317 314.216 169.876 311.339C167.498 295.415 164.999 278.972 159.191 263.651C157.261 258.481 154.761 252.414 151.098 246.902C148.734 243.247 145.822 239.828 142.998 236.554C121.648 211.536 113.25 180.462 117.956 144.227C118.503 140.089 119.187 135.788 119.89 131.713C122.003 119.07 124.117 106.01 121.954 93.3997C117.612 68.446 98.6714 54.0851 78.6273 38.7983C74.8938 35.944 71.1194 33.0555 67.4135 30.0852C68.0571 29.6502 68.6255 29.2218 69.2348 28.8277C72.7363 31.6265 76.3472 34.3779 79.9173 37.095C99.43 51.936 119.597 67.3257 124.079 93.0244C126.351 106.004 124.14 119.261 122.041 132.055C121.337 136.13 120.647 140.356 120.1 144.494C115.45 180.08 123.728 210.634 144.656 235.159C147.486 238.509 150.398 241.927 152.885 245.686C156.678 251.375 159.225 257.552 161.202 262.832C167.105 278.371 169.617 294.965 171.967 311.004C172.415 313.957 172.822 316.875 173.344 319.82L171.199 319.97Z" fill="#EACDC1"/>
<path d="M223.753 27.351C227.783 31.4289 229.769 38.1093 231.532 43.976C232.011 45.5623 232.45 47.1143 232.951 48.5095C235.345 55.5327 237.926 63.8272 238.88 72.5669C240.305 85.393 237.82 97.2358 231.827 105.788C229.137 109.659 225.88 113.124 222.727 116.468C214.068 125.708 206.589 133.708 211.795 147.339C222.763 176.182 227.533 207.763 225.571 238.569L225.475 240.509C225.117 245.501 224.806 250.602 225.759 255.442C226.7 260.131 228.911 264.633 231.028 268.916L231.951 270.804C236.115 279.453 239.705 288.454 242.556 297.671C241.906 298.031 241.297 298.425 240.647 298.785C237.789 289.493 234.227 280.375 230.021 271.693L229.099 269.804C226.894 265.377 224.635 260.766 223.668 255.776C222.613 250.643 222.986 245.384 223.297 240.283L223.427 238.302C225.34 207.803 220.603 176.598 209.771 148.009C204.111 133.092 212.427 124.261 221.154 114.939C224.239 111.678 227.461 108.253 230.049 104.505C235.733 96.3202 238.08 85.0575 236.735 72.7167C235.801 64.2025 233.267 56.0175 230.886 49.1446C230.385 47.7495 229.906 46.1631 229.46 44.5358C227.758 38.9289 225.833 32.5084 222.177 28.8142C212.334 18.8832 196.35 12.7837 183.464 7.89017L182.208 7.39412C178.566 6.00879 174.731 4.60233 170.706 3.17472C168.086 2.23002 165.426 1.251 162.724 0.237716C164.999 0.265927 167.273 0.294179 169.561 0.47271C170.189 0.720745 170.816 0.968756 171.478 1.17592C175.544 2.63783 179.378 4.04428 183.062 5.46391L184.317 5.95996C197.326 10.9564 213.583 17.1456 223.753 27.351Z" fill="#EACDC1"/>
<path d="M239.33 20.9895C240.88 23.1259 242.293 25.4259 243.575 27.9644C249.004 38.509 251.716 50.465 253.833 60.807C255.997 71.2585 257.995 82.4061 256.53 93.3644C254.953 105.204 249.312 114.747 240.24 120.994L239.987 121.13C231.271 127.118 225.02 131.414 224.074 142.668C223.361 151.402 226.112 159.908 229.184 168.614L230.889 173.388C237.331 191.19 243.942 209.621 242.082 228.604C241.701 232.046 241.129 235.466 240.476 238.818C239.578 243.705 238.659 248.784 238.683 253.819C238.762 266.838 244.937 278.984 250.928 290.766C251.111 291.129 251.335 291.526 251.484 291.929C250.916 292.358 250.307 292.752 249.697 293.146C249.467 292.674 249.236 292.202 249.005 291.73C242.885 279.769 236.574 267.37 236.525 253.818C236.488 248.633 237.434 243.438 238.325 238.476C238.91 235.206 239.557 231.779 239.869 228.419C241.701 209.969 235.109 191.763 228.796 174.139L227.091 169.365C223.884 160.406 221.072 151.64 221.902 142.517C222.914 130.273 229.883 125.535 238.702 119.425L238.914 119.255C247.486 113.355 252.831 104.329 254.311 93.1042C255.727 82.4531 253.749 71.531 251.639 61.2641C249.494 51.0381 246.802 39.3075 241.543 28.9753C239.487 24.9518 237.101 21.4874 234.489 18.4593C234.57 18.5279 234.686 18.5557 234.768 18.6243L239.33 20.9895Z" fill="#EACDC1"/>
<path d="M257.215 32.7924C265.993 52.6243 270.155 70.3231 269.887 86.7432C269.563 103.812 264.649 116.473 254.837 125.511C253.398 126.811 251.843 128.083 250.323 129.314C246.042 132.756 242.049 136.021 240.079 140.775C237.957 145.959 238.928 151.858 240.144 157.962C243.194 172.917 246.859 187.971 250.948 202.685L251.212 203.533C253.075 210.11 254.951 216.838 254.688 223.791C254.583 226.488 254.165 229.062 253.746 231.636C253.425 233.595 253.111 235.63 252.947 237.651C251.612 252.688 258.914 266.893 266.21 280.606C265.683 281.069 265.121 281.573 264.552 282.001C256.991 267.856 249.39 253.261 250.81 237.459C251.008 235.397 251.316 233.287 251.671 231.287C252.096 228.789 252.515 226.215 252.598 223.708C252.853 217.097 250.99 210.52 249.181 204.127L248.952 203.238C244.746 188.497 241.116 173.402 238.059 158.371C236.742 151.973 235.779 145.734 238.08 140.004C240.236 134.779 244.654 131.173 248.969 127.691C250.455 126.5 252.01 125.228 253.415 123.969C262.775 115.388 267.468 103.238 267.769 86.777C268.059 69.749 263.45 51.2563 253.74 30.2941L253.821 30.3627L257.215 32.7924Z" fill="#EACDC1"/>
<path d="M268.699 42.4284L272.335 45.897C277.157 58.1608 281.411 70.8531 282.575 84.1564C284.279 103.206 278.77 120.312 267.552 131.025C266.503 132.026 265.414 132.992 264.284 133.924C261.571 136.244 259.002 138.476 257.25 141.394C252.455 149.349 255.361 156.592 258.416 164.239C259.432 166.763 260.495 169.397 261.299 172.091C265.277 185.527 267.054 199.344 266.563 213.209C266.451 215.832 266.299 218.42 266.112 221.049C265.766 226.608 265.364 232.399 265.816 238.002C266.781 249.467 271.177 260.329 276.183 270.797C275.703 271.369 275.107 271.914 274.586 272.452C269.39 261.546 264.654 250.259 263.671 238.152C263.205 232.399 263.601 226.533 263.941 220.898C264.093 218.31 264.245 215.722 264.398 213.133C264.908 199.494 263.151 185.902 259.193 172.692C258.437 170.107 257.38 167.549 256.364 165.025C253.221 157.234 249.936 149.115 255.3 140.315C257.217 137.118 260.033 134.675 262.745 132.355C263.8 131.429 264.931 130.497 265.945 129.538C276.745 119.24 281.972 102.802 280.326 84.4287C279.194 69.7594 274.078 55.8553 268.699 42.4284Z" fill="#EACDC1"/>
<path d="M286.038 61.019L289.547 65.6348C291.247 72.0751 292.645 78.5417 293.409 85.1018C295.706 104.44 291.232 122.554 281.048 134.692C279.991 136.034 278.812 137.273 277.674 138.546C272.669 144.096 267.526 149.81 268.5 156.617C268.941 159.494 270.503 162.197 272.059 164.826L272.765 165.976C282.136 182.196 285.805 202.059 282.765 220.539C282.416 222.614 281.999 224.771 281.534 226.819C280.499 231.87 279.443 237.113 279.665 242.243C279.936 248.808 282.265 255.08 285.087 260.93C284.606 261.502 284.092 262.115 283.578 262.728C280.45 256.413 277.809 249.6 277.513 242.318C277.265 236.887 278.383 231.487 279.446 226.32C279.869 224.238 280.293 222.156 280.642 220.081C283.613 202.099 280.099 182.715 270.918 166.932L270.252 165.817C268.608 163.045 266.917 160.163 266.437 156.835C265.302 149.058 270.828 142.97 276.142 137.052C277.28 135.779 278.384 134.546 279.447 133.279C289.255 121.591 293.556 104.098 291.304 85.2858C290.328 77.154 288.484 69.0602 286.038 61.019Z" fill="#EACDC1"/>
<path d="M299.209 80.4288L302.236 86.0335C302.71 89.2865 303.109 92.5461 303.467 95.7714C304.679 107.026 300.512 121.288 291.192 138.121C290.635 139.116 290.079 140.112 289.453 141.189C286.98 145.381 284.177 150.133 283.691 154.53C283.205 158.928 285.057 164.521 286.7 169.452C287.268 171.182 287.83 172.837 288.227 174.355L288.774 176.276C292.459 189.397 296.259 202.962 294.101 216.821C293.759 218.971 293.267 221.135 292.843 223.217C292.136 226.384 291.407 229.742 291.198 232.979C290.913 238.381 292.05 243.583 294 248.563C293.533 249.285 293.066 250.007 292.559 250.696C290.242 244.991 288.78 239.098 289.101 232.822C289.291 229.359 290.054 225.96 290.789 222.677C291.253 220.629 291.712 218.506 291.985 216.438C294.032 203.043 290.327 189.697 286.703 176.836L286.156 174.915C285.724 173.438 285.203 171.817 284.601 170.128C282.904 165.013 280.956 159.2 281.513 154.304C282.034 149.449 284.934 144.5 287.544 140.144C288.135 139.108 288.767 138.106 289.289 137.152C298.416 120.714 302.473 106.916 301.301 96.1124C300.847 90.9263 300.127 85.7257 299.209 80.4288Z" fill="#EACDC1"/>
<path d="M305.05 229.003C304.52 224.24 304.61 219.65 304.763 214.903C304.836 211.413 304.937 207.806 304.765 204.111C304.107 190.952 301.909 178.383 298.198 166.704C297.982 165.965 297.684 165.158 297.427 164.386C295.642 159.127 293.681 153.164 295.776 147.679C297.044 144.425 299.152 141.249 301.191 138.155C302.592 135.987 303.931 133.977 305.004 131.952C308.895 124.492 311.046 116.617 311.955 108.396C312.469 109.941 312.983 111.487 313.462 113.073C312.319 119.914 310.213 126.573 306.906 132.921C305.806 135.062 304.364 137.196 302.998 139.322C301.027 142.335 298.988 145.429 297.816 148.485C295.997 153.226 297.849 158.82 299.527 163.71C299.825 164.517 300.082 165.289 300.339 166.062C304.137 177.885 306.355 190.68 307.027 203.988C307.205 207.759 307.111 211.441 307.003 214.972C306.923 218.387 306.83 221.652 307.01 225.006L305.05 229.003Z" fill="#EACDC1"/>
<path d="M317.784 189.68C316.562 183.501 315.005 177.389 313.078 171.385L312.396 169.211C310.638 163.836 308.867 158.311 309.003 152.505C309.221 144.61 312.265 137.414 315.218 130.49C315.749 129.194 316.279 127.898 316.844 126.561C317.14 127.785 317.361 129.015 317.624 130.28C317.5 130.594 317.341 130.948 317.217 131.262C314.325 138.029 311.378 145.027 311.161 152.506C311.027 157.895 312.75 163.31 314.454 168.501L315.137 170.675C316.543 175.058 317.723 179.461 318.76 183.953L317.784 189.68Z" fill="#EACDC1"/>
<path d="M72.9199 93.4862C71.1531 92.7698 69.3427 92.8524 67.9739 93.6538C65.3113 95.25 65.0059 98.6848 64.9975 101.185C65.0175 111.369 66.2125 121.565 68.5902 131.43C70.3818 138.922 74.5052 143.636 78.7827 143.186C80.2451 143.02 81.4702 142.307 82.4647 141.122C84.2479 138.997 85.2983 135.421 85.4167 130.715C85.6724 119.787 83.1274 108.876 78.0716 99.1321C77.2096 97.5035 76.1367 95.6282 74.3925 94.304C73.9496 94.0019 73.4314 93.7065 72.9199 93.4862ZM76.1897 100.13C81.1032 109.546 83.5402 120.087 83.2925 130.674C83.1355 136.67 81.2635 140.81 78.5643 141.122C75.9403 141.427 72.3862 138.027 70.7093 130.979C68.3446 121.265 67.1286 111.26 67.1217 101.226C67.1273 99.5595 67.2781 97.3878 68.3412 96.1209C68.547 95.8757 68.7936 95.6648 69.081 95.4882C69.9092 94.9992 71.0089 95.0166 72.1823 95.4441C72.537 95.6024 72.8574 95.8016 73.2186 96.035C74.5198 97.0572 75.4569 98.6793 76.1897 100.13Z" fill="#EACDC1"/>
<path d="M128.303 289.831L128.532 290.72C131.15 300.299 133.851 309.53 136.573 318.569C135.808 318.484 135.037 318.325 134.266 318.165C131.611 309.46 129.046 300.483 126.495 291.239L126.225 290.316C122.111 274.885 118.885 271.343 116.891 271.063C115.437 270.887 113.975 272.795 113.096 274.424C111.488 277.254 111.79 280.711 112.289 284.681L116.151 314.108C115.414 313.907 114.677 313.706 113.899 313.471L110.157 284.982C109.717 281.688 109.125 277.082 111.227 273.414C113.069 270.223 115.096 268.721 117.199 268.953C122.258 269.647 125.78 280.472 128.303 289.831Z" fill="#EACDC1"/>
</g>
</g>
<defs>
<clipPath id="clip0">
<rect width="320" height="320" fill="white"/>
</clipPath>
</defs>
</svg>
