<svg width="318" height="318" viewBox="0 0 318 318" fill="none" xmlns="http://www.w3.org/2000/svg">
<g clip-path="url(#clip0)">
<g opacity="0.2">
<path d="M0.342275 150.238C0.272107 158.905 1.07128 167.609 4.85783 174.734C8.28656 181.213 13.2536 186.766 18.1263 192.101C22.9242 197.443 27.8847 202.921 31.4288 209.427C35.9244 217.77 37.7882 227.021 39.6259 235.973C41.0286 242.968 42.4575 250.261 45.2266 256.948C46.0824 258.982 46.9382 261.016 47.8005 263.125C49.9838 268.281 52.1396 273.552 54.0371 278.884C52.9333 277.889 51.8294 276.893 50.7256 275.898C49.2448 271.885 47.5398 267.892 45.8819 264.008C45.0196 261.899 44.1232 259.831 43.2674 257.797C40.4446 250.927 38.975 243.599 37.5592 236.455C35.8094 227.646 33.9587 218.544 29.6046 210.528C26.1955 204.274 21.3163 198.864 16.5655 193.631C11.6457 188.187 6.55675 182.531 2.99302 175.801C1.91301 173.787 1.07825 171.563 0.392978 169.326C-0.0199005 162.885 -0.0459888 156.561 0.342275 150.238Z" fill="#EACDC1"/>
<path d="M143.39 53.295C153.965 61.8218 160.056 76.3518 159.71 92.1981C159.549 99.819 157.872 107.346 156.286 114.603C155.824 116.639 155.402 118.709 154.981 120.779C150.519 142.521 149.635 164.704 152.278 186.728C153.466 196.867 155.956 201.657 159.398 208.285C160.802 210.986 162.394 214.123 164.127 218.001C165.954 222.097 167.937 226.254 169.832 230.268C172.962 236.772 176.226 243.529 178.825 250.418C185.794 268.524 189.083 288.044 192.205 306.939C192.624 309.576 193.084 312.247 193.543 314.918C192.843 315.092 192.143 315.266 191.436 315.366C190.97 312.62 190.51 309.949 190.051 307.278C186.942 288.533 183.7 269.122 176.825 251.233C174.199 244.459 170.975 237.737 167.845 231.232C165.95 227.218 163.892 223.068 162.099 218.932C160.407 215.088 158.821 212.026 157.418 209.324C153.882 202.479 151.378 197.539 150.083 187.033C147.421 164.784 148.359 142.371 152.802 120.405C153.223 118.335 153.685 116.299 154.14 114.188C155.734 107.006 157.342 99.5602 157.523 92.1635C157.887 76.9558 152.079 63.0789 141.992 54.9613C140.414 53.7061 138.699 52.6134 137.018 51.4801L135.622 50.5855C125.313 43.8053 115.961 35.4728 107.008 27.4066C102.349 23.2201 97.527 18.8972 92.5819 14.8863C93.2691 14.5626 93.9904 14.1982 94.7588 13.9427C99.4666 17.8237 104.004 21.9079 108.453 25.8492C117.399 33.8407 126.671 42.105 136.864 48.8576L138.26 49.7522C139.975 50.8449 141.731 51.9716 143.39 53.295Z" fill="#EACDC1"/>
<path d="M19.1171 83.7875C20.2082 94.5373 20.1665 104.821 18.9042 114.497C18.2749 119.786 16.9127 124.876 15.578 129.851C12.4611 141.571 9.47547 152.64 16.097 165.052C19.4786 171.422 24.7591 176.684 29.8705 181.735C34.3251 186.165 38.9015 190.698 42.3476 196.082C46.3611 202.359 48.7552 209.493 51.0548 216.409C53.1461 222.665 55.6242 229.038 58.2504 235.813C65.631 254.749 73.2134 274.27 72.9586 293.309C72.2401 292.845 71.5217 292.38 70.8373 291.875C70.7497 273.657 63.4163 254.83 56.2847 236.587C53.6585 229.813 51.1398 223.405 49.0419 217.074C46.7553 210.308 44.4492 203.317 40.564 197.218C37.2124 192.05 32.7172 187.586 28.3845 183.258C23.1512 178.105 17.7488 172.741 14.1916 166.085C7.23977 152.911 10.308 141.496 13.5011 129.355C14.8082 124.495 16.1364 119.446 16.7787 114.306C17.8402 105.778 17.9995 96.8394 17.2503 87.4153C17.9272 86.1134 18.5018 84.9334 19.1171 83.7875Z" fill="#EACDC1"/>
<path d="M133.449 66.6298C140.644 80.4231 143.67 95.2212 142.636 111.806C142.033 121.273 140.806 130.493 139.553 139.414C137.318 155.614 135.194 170.938 136.862 187.851C138.234 201.815 145.136 211.83 152.423 222.377C154.62 225.536 156.864 228.804 159.012 232.269C169.599 249.117 174.41 268.805 177.401 284.058C178.136 287.722 178.836 291.427 179.578 295.165C180.953 302.275 182.341 309.534 183.872 316.706C183.165 316.805 182.459 316.905 181.752 317.004C180.221 309.833 178.839 302.648 177.464 295.538C176.763 291.834 176.062 288.129 175.328 284.466C172.349 269.362 167.64 249.966 157.229 233.404C155.087 230.014 152.843 226.746 150.686 223.621C143.224 212.788 136.194 202.596 134.776 188.109C133.122 170.931 135.199 155.498 137.496 139.142C138.715 130.262 139.989 121.15 140.558 111.724C141.55 95.5196 138.631 81.0887 131.619 67.6561C124.06 53.1415 113.371 46.3193 99.8553 37.7485L96.8661 35.8636C90.4065 31.7592 84.1791 27.2956 78.1839 22.4728C78.8239 22.0403 79.4704 21.6824 80.117 21.3246C85.8618 25.8681 91.8047 30.093 97.9522 34.074L100.941 35.959C114.735 44.6937 125.621 51.6116 133.449 66.6298Z" fill="#EACDC1"/>
<path d="M16.4021 216.352C19.3118 221.633 19.4715 228.623 19.3939 235.484C18.6376 234.157 17.9155 232.789 17.268 231.415C17.1905 226.225 16.6777 221.223 14.5714 217.378C13.2279 214.935 11.0739 213.128 8.7705 211.334C8.36691 210.164 7.95679 208.919 7.5873 207.709C8.03434 208.084 8.55613 208.453 9.00318 208.828C11.7878 210.957 14.6536 213.154 16.4021 216.352Z" fill="#EACDC1"/>
<path d="M168.663 46.0379C180.473 57.055 185.943 74.3883 182.581 90.1972C181.573 95.0302 179.832 99.6637 178.078 104.148C177.585 105.396 177.132 106.678 176.639 107.926C166.121 136.638 163.943 168.121 170.298 199.009C173.105 212.584 179.004 225.775 184.673 238.497C188.185 246.361 191.792 254.443 194.651 262.59C199.159 275.376 200.315 289.02 201.391 302.181C201.692 305.619 201.965 309.173 202.307 312.645C201.606 312.819 200.947 313.027 200.247 313.202C199.851 309.546 199.538 305.958 199.224 302.371C198.12 289.325 197.018 275.865 192.604 263.297C189.792 255.258 186.186 247.176 182.714 239.346C176.997 226.515 171.051 213.215 168.19 199.457C161.728 168.202 163.949 136.338 174.658 107.234C175.11 105.951 175.604 104.703 176.097 103.455C177.783 99.0522 179.49 94.4593 180.477 89.8164C183.639 74.7405 178.424 58.1756 167.143 47.6018C160.995 41.8886 153.421 37.9571 146.05 34.1961C143.446 32.8423 140.727 31.4609 138.117 30.0324C132.733 27.0389 127.896 23.3952 123.105 19.8603C120.124 17.6357 117.061 15.343 113.944 13.281C111.707 11.8198 109.62 10.3454 107.533 8.87111C108.376 8.60906 109.219 8.34702 110.022 8.05086C111.668 9.2248 113.349 10.3581 115.104 11.4849C118.303 13.6151 121.366 15.9078 124.347 18.1323C129.056 21.599 133.894 25.2428 139.081 28.1405C141.657 29.6097 144.336 30.9569 146.973 32.2701C154.541 36.1269 162.271 40.1201 168.663 46.0379Z" fill="#EACDC1"/>
<path d="M205.764 72.3907C206.344 83.7501 203.048 96.0134 196.277 107.715C195.102 109.776 193.982 111.606 192.895 113.396C187.793 121.788 184.111 127.909 183.407 139.23C182.646 151.196 182.7 163.43 183.603 175.477C185.492 201.37 191.927 230.594 201.787 257.636C203.233 261.689 204.911 265.798 206.5 269.763C209.916 278.238 213.472 287.04 215.513 296.163C216.37 299.929 217.009 303.79 217.458 307.629C216.805 307.912 216.111 308.161 215.417 308.41C214.955 304.421 214.344 300.445 213.481 296.605C211.419 287.672 207.943 278.938 204.575 270.572C202.986 266.606 201.308 262.498 199.821 258.41C189.942 231.145 183.419 201.778 181.51 175.66C180.634 163.498 180.574 151.189 181.328 139.148C182.061 127.298 185.846 121.054 191.112 112.384C192.164 110.635 193.319 108.764 194.46 106.744C201.033 95.3613 204.218 83.5596 203.637 72.6145C202.987 60.0186 197.205 48.5871 188.111 41.9266C182.799 38.0231 176.388 35.7597 170.166 33.5173C168.999 33.0922 167.832 32.6672 166.665 32.2421C149.393 25.9205 133.012 16.8849 118.215 5.71498C119.098 5.48702 119.942 5.22499 120.866 5.03114C135.163 15.6424 150.9 24.2071 167.433 30.2544C168.6 30.6795 169.767 31.1045 170.934 31.5296C177.271 33.7995 183.879 36.1587 189.428 40.192C198.962 47.153 205.136 59.1903 205.764 72.3907Z" fill="#EACDC1"/>
<path d="M215.108 43.1796C220.148 51.2869 220.672 61.145 221.138 69.916C221.861 82.9197 221.894 95.3438 214.892 104.843C213.043 107.378 210.78 109.496 208.552 111.574C206.535 113.483 204.45 115.473 202.724 117.695C193.908 129.274 196.039 142.004 198.35 155.509C198.71 157.473 199.029 159.403 199.315 161.374C199.873 165.166 200.58 168.946 201.212 172.731C203.111 183.674 205.083 195.025 204.998 206.103L205.016 206.742C204.91 218.011 204.802 229.694 206.802 240.929C208.416 249.901 212.282 257.508 216.337 265.551C217.336 267.497 218.294 269.409 219.259 271.396C224.075 281.255 227.361 291.7 229.887 302.06C229.241 302.418 228.587 302.701 227.9 303.025C225.409 292.624 222.122 282.179 217.347 272.354C216.423 270.401 215.424 268.455 214.466 266.543C210.323 258.357 206.369 250.607 204.729 241.336C202.676 229.917 202.777 218.16 202.91 206.775L202.892 206.137C202.997 195.282 201.031 184.007 199.139 173.139C198.466 169.319 197.793 165.499 197.235 161.707C196.916 159.776 196.63 157.806 196.27 155.841C194.013 142.52 191.675 128.716 201.105 116.405C202.892 114.027 205.086 111.99 207.172 110C209.291 107.969 211.519 105.892 213.232 103.52C219.831 94.5828 219.757 82.539 219.107 69.9431C218.667 61.471 218.129 51.8778 213.393 44.2335C207.076 34.0162 194.933 29.5054 183.176 25.1113L180.761 24.1928C164.872 18.2021 149.614 10.8006 135.175 2.00936C136.29 1.83653 137.404 1.66362 138.485 1.53143C152.151 9.67475 166.576 16.5845 181.528 22.2052L183.903 23.0895C195.869 27.7288 208.359 32.3223 215.108 43.1796Z" fill="#EACDC1"/>
<path d="M76.3465 69.4792C85.0585 80.3907 92.4752 90.7001 94.3847 106.5C95.8177 118.575 96.0063 131.061 96.1622 143.173C96.3737 158.933 96.5902 175.182 99.7101 190.612C103.284 208.224 111.795 224.576 120.075 240.458C122.829 245.678 125.677 251.115 128.26 256.537C137.495 275.575 143.329 295.776 149.03 315.311C149.305 316.303 149.621 317.33 149.903 318.397C149.183 318.347 148.388 318.304 147.668 318.254C147.413 317.486 147.232 316.711 146.977 315.942C141.323 296.516 135.536 276.424 126.348 257.495C123.731 252.113 120.924 246.71 118.17 241.491C109.842 225.5 101.244 209.005 97.5687 191.1C94.4358 175.521 94.2061 159.122 93.9882 143.288C93.8388 131.251 93.6502 118.765 92.1555 106.845C90.2918 91.5689 83.0849 81.5048 74.5891 70.9133C69.6445 64.7558 59.752 55.4162 54.1711 56.62C53.2466 56.8138 52.4978 57.2936 51.8158 58.1064C51.0997 58.9598 50.5316 60.2146 50.071 61.8365C49.3688 64.5716 49.8677 67.6911 50.2526 70.3688L56.5034 109.965C57.4474 116.02 57.3857 122.201 57.3791 128.152C57.3043 134.183 57.2832 140.399 58.2613 146.414C60.3969 159.633 64.5338 171.622 70.7139 182.002C81.1487 199.692 95.5596 226.674 100.281 256.537C102.15 268.424 102.468 280.673 102.822 292.466C102.949 296.936 103.036 301.372 103.157 305.767C103.202 306.705 103.205 307.608 103.209 308.512C102.47 308.238 101.771 307.997 101.065 307.683C101.047 307.044 101.029 306.405 101.011 305.767C100.89 301.372 100.803 296.936 100.716 292.5C100.403 280.74 100.016 268.573 98.1949 256.795C93.5401 227.265 79.2642 200.535 68.8425 182.994C62.6021 172.356 58.2962 160.155 56.1344 146.637C55.1367 140.398 55.226 134.102 55.2601 128.036C55.3074 122.119 55.3416 116.054 54.4513 110.182L48.2004 70.586C47.7212 67.6906 47.2027 64.3468 48.0151 61.1502C49.0335 57.2954 50.9432 55.0195 53.7166 54.438C62.6623 52.5256 76.2181 69.3021 76.3465 69.4792Z" fill="#EACDC1"/>
<path d="M37.2692 57.1196C42.4099 77.5696 45.2662 98.596 45.6836 119.723C45.7405 122.956 45.7293 126.271 45.6564 129.742C45.5212 141.541 45.3441 153.719 49.3777 164.099C51.8558 170.472 56.2641 176.526 60.6187 182.396C63.7018 186.645 66.9474 191.03 69.4522 195.556C75.5076 206.662 80.6516 218.112 84.6679 229.585C90.5882 246.465 93.3544 266.03 92.8175 286.149C92.6483 291.963 92.4109 297.858 92.167 303.679C91.4616 303.364 90.7903 303.008 90.0849 302.693C90.3209 297.212 90.5097 291.623 90.7051 286.108C91.3023 266.248 88.5216 246.947 82.6956 230.285C78.7265 218.921 73.6703 207.614 67.6214 196.582C65.2045 192.2 62.0402 187.882 58.9571 183.633C54.5553 177.654 50.025 171.498 47.4867 164.867C43.305 154.086 43.4625 141.683 43.6187 129.694C43.6575 126.264 43.7094 122.983 43.6525 119.75C43.2192 99.3023 40.5371 78.9761 35.6389 59.1451C36.1098 58.5014 36.6895 57.8105 37.2692 57.1196Z" fill="#EACDC1"/>
<path d="M162.646 318.563C160.443 305.011 156.996 287.99 149.973 271.847C144.796 260.024 138.38 249.1 132.146 238.536C118.976 216.266 106.59 195.207 106.494 167.424C106.464 160.197 106.903 152.74 107.372 144.753C108.987 117.16 110.708 88.6155 92.7314 67.368C87.0212 60.6374 80.2683 54.9018 73.7592 49.3708C69.3635 45.613 64.7711 41.7596 60.6075 37.6426C60.0727 37.1245 59.5313 36.5317 58.9427 35.8301C58.4181 36.2902 57.8529 36.7162 57.3283 37.1763C57.9575 37.9121 58.546 38.6138 59.1216 39.1659C63.3664 43.3511 67.9247 47.2452 72.3952 50.9964C78.8636 56.4933 85.5759 62.1948 91.1235 68.789C108.592 89.4031 106.908 117.492 105.294 144.671C104.825 152.658 104.351 160.155 104.422 167.417C104.529 195.764 117.085 217.034 130.356 239.597C136.583 250.085 142.959 260.975 148.088 272.69C154.964 288.432 158.385 305.153 160.54 318.597L162.646 318.563Z" fill="#EACDC1"/>
<path d="M28.8592 68.1358C31.4555 79.733 33.2623 91.7759 34.1642 104.237C34.7564 111.867 34.3443 119.209 33.9808 126.245C33.1262 141.872 32.3085 156.63 42.2888 172.138C45.2079 176.665 48.5624 181.003 51.795 185.239C55.3592 189.823 59.0112 194.549 62.1256 199.586C80.6912 229.293 84.1463 264.049 82.3707 298.849C81.6995 298.494 80.9876 298.104 80.3097 297.674C81.9199 263.566 78.4214 229.604 60.3355 200.647C57.2683 195.718 53.6569 191.026 50.0992 186.517C46.826 182.247 43.4309 177.874 40.4305 173.279C30.099 157.2 30.8905 142.143 31.7871 126.135C32.1913 119.133 32.5758 111.907 31.9966 104.426C31.126 92.7536 29.5341 81.4451 27.1462 70.5075C27.7535 69.7012 28.2861 68.9014 28.8592 68.1358Z" fill="#EACDC1"/>
<path d="M169.88 318.193C169.401 315.298 169.003 312.471 168.564 309.61C166.2 293.774 163.715 277.423 157.938 262.187C156.02 257.045 153.534 251.012 149.891 245.531C147.539 241.896 144.644 238.497 141.836 235.24C120.604 210.361 112.252 179.46 116.933 143.427C117.476 139.312 118.157 135.035 118.856 130.982C120.957 118.409 123.06 105.422 120.908 92.8816C116.591 68.0667 97.7553 53.7855 77.8226 38.5836C74.1098 35.7453 70.3564 32.8728 66.6711 29.919C67.3111 29.4864 67.8764 29.0604 68.4823 28.6685C71.9643 31.4518 75.5551 34.1878 79.1054 36.8898C98.5097 51.6484 118.564 66.9526 123.022 92.5084C125.281 105.415 123.083 118.6 120.995 131.322C120.295 135.375 119.608 139.577 119.065 143.692C114.441 179.08 122.673 209.465 143.484 233.853C146.299 237.185 149.194 240.584 151.668 244.322C155.439 249.979 157.972 256.122 159.938 261.372C165.809 276.825 168.307 293.326 170.644 309.277C171.089 312.213 171.493 315.115 172.013 318.044L169.88 318.193Z" fill="#EACDC1"/>
<path d="M222.147 27.2C226.155 31.2553 228.129 37.8985 229.882 43.7326C230.359 45.3102 230.796 46.8535 231.294 48.2409C233.675 55.2252 236.241 63.4735 237.19 72.1647C238.607 84.9194 236.135 96.6964 230.177 105.201C227.501 109.05 224.263 112.497 221.127 115.821C212.516 125.01 205.078 132.966 210.256 146.522C221.163 175.204 225.906 206.609 223.955 237.244L223.86 239.173C223.503 244.138 223.194 249.211 224.142 254.023C225.077 258.686 227.277 263.163 229.382 267.423L230.299 269.301C234.441 277.901 238.01 286.852 240.846 296.018C240.199 296.376 239.593 296.768 238.947 297.126C236.105 287.885 232.563 278.818 228.38 270.184L227.463 268.306C225.27 263.904 223.024 259.318 222.063 254.356C221.013 249.251 221.384 244.022 221.694 238.949L221.823 236.979C223.726 206.649 219.015 175.618 208.243 147.187C202.615 132.353 210.884 123.571 219.563 114.301C222.63 111.058 225.834 107.652 228.408 103.925C234.06 95.786 236.394 84.5859 235.057 72.3137C234.128 63.8468 231.608 55.7073 229.24 48.8725C228.742 47.4851 228.265 45.9075 227.822 44.2894C226.13 38.7136 224.215 32.3288 220.58 28.6551C210.791 18.7792 194.896 12.7137 182.081 7.84734L180.833 7.35405C177.211 5.97642 173.398 4.57778 169.395 3.1581C166.79 2.21865 164.144 1.24506 161.457 0.237413C163.719 0.265467 165.981 0.293563 168.256 0.471101C168.88 0.717758 169.504 0.964391 170.162 1.17041C174.206 2.62419 178.019 4.02283 181.682 5.43457L182.93 5.92786C195.867 10.8965 212.033 17.0513 222.147 27.2Z" fill="#EACDC1"/>
<path d="M237.635 20.8738C239.176 22.9984 240.582 25.2856 241.857 27.81C247.255 38.2959 249.953 50.1855 252.057 60.4701C254.209 70.8635 256.196 81.9492 254.739 92.8466C253.171 104.62 247.562 114.111 238.541 120.323L238.289 120.458C229.621 126.413 223.405 130.685 222.464 141.876C221.755 150.561 224.491 159.021 227.545 167.678L229.241 172.425C235.648 190.129 242.222 208.457 240.371 227.335C239.993 230.757 239.424 234.158 238.775 237.491C237.882 242.352 236.968 247.403 236.992 252.409C237.07 265.356 243.211 277.434 249.169 289.152C249.351 289.512 249.574 289.907 249.722 290.308C249.157 290.734 248.551 291.126 247.945 291.518C247.716 291.049 247.486 290.579 247.257 290.11C241.17 278.215 234.895 265.885 234.845 252.409C234.809 247.253 235.75 242.087 236.636 237.151C237.218 233.9 237.861 230.492 238.171 227.151C239.993 208.803 233.438 190.698 227.16 173.172L225.464 168.425C222.275 159.516 219.479 150.798 220.304 141.726C221.31 129.55 228.241 124.839 237.011 118.762L237.222 118.593C245.746 112.726 251.061 103.75 252.533 92.5878C253.941 81.9959 251.974 71.1344 249.875 60.9246C247.743 50.7554 245.066 39.09 239.836 28.8152C237.791 24.8141 235.419 21.3689 232.821 18.3577C232.902 18.4259 233.017 18.4535 233.099 18.5217L237.635 20.8738Z" fill="#EACDC1"/>
<path d="M255.42 32.6111C264.15 52.3329 268.288 69.9333 268.022 86.2622C267.7 103.236 262.814 115.827 253.056 124.815C251.625 126.107 250.079 127.372 248.567 128.596C244.31 132.019 240.338 135.266 238.38 139.994C236.27 145.149 237.235 151.015 238.444 157.085C241.477 171.958 245.122 186.928 249.189 201.559L249.451 202.403C251.303 208.943 253.169 215.634 252.908 222.548C252.803 225.231 252.387 227.79 251.971 230.35C251.652 232.298 251.339 234.321 251.176 236.331C249.848 251.284 257.11 265.411 264.366 279.048C263.841 279.508 263.282 280.009 262.717 280.435C255.198 266.369 247.639 251.854 249.051 236.141C249.248 234.09 249.554 231.992 249.907 230.003C250.33 227.518 250.746 224.959 250.829 222.466C251.083 215.892 249.23 209.351 247.431 202.993L247.203 202.11C243.021 187.45 239.411 172.44 236.371 157.492C235.061 151.13 234.104 144.925 236.392 139.227C238.536 134.031 242.929 130.445 247.22 126.982C248.698 125.798 250.245 124.533 251.641 123.281C260.949 114.747 265.616 102.665 265.916 86.2957C266.205 69.3624 261.621 50.9725 251.964 30.1268L252.046 30.195L255.42 32.6111Z" fill="#EACDC1"/>
<path d="M266.841 42.1936L270.457 45.6429C275.252 57.8386 279.482 70.4603 280.639 83.6897C282.334 102.634 276.856 119.644 265.7 130.298C264.658 131.293 263.574 132.254 262.45 133.181C259.752 135.488 257.198 137.707 255.456 140.609C250.688 148.52 253.577 155.723 256.615 163.328C257.625 165.838 258.683 168.456 259.482 171.136C263.438 184.497 265.205 198.238 264.716 212.025C264.606 214.633 264.454 217.207 264.269 219.822C263.924 225.35 263.524 231.109 263.974 236.68C264.934 248.082 269.306 258.884 274.283 269.293C273.806 269.862 273.213 270.404 272.695 270.939C267.528 260.093 262.818 248.869 261.84 236.829C261.378 231.108 261.771 225.275 262.109 219.672C262.261 217.098 262.412 214.524 262.563 211.95C263.071 198.387 261.324 184.87 257.388 171.733C256.636 169.163 255.585 166.619 254.574 164.109C251.449 156.361 248.182 148.287 253.517 139.536C255.423 136.357 258.223 133.927 260.92 131.62C261.97 130.7 263.094 129.773 264.102 128.819C274.842 118.578 280.04 102.232 278.404 83.9605C277.278 69.3727 272.19 55.5459 266.841 42.1936Z" fill="#EACDC1"/>
<path d="M284.086 60.6809L287.575 65.2711C289.266 71.6756 290.657 78.1063 291.416 84.6299C293.701 103.861 289.251 121.874 279.123 133.944C278.073 135.279 276.9 136.511 275.768 137.778C270.791 143.297 265.677 148.978 266.646 155.747C267.084 158.609 268.638 161.297 270.184 163.911L270.887 165.054C280.206 181.185 283.855 200.937 280.831 219.314C280.484 221.378 280.069 223.523 279.607 225.56C278.578 230.583 277.528 235.796 277.748 240.898C278.018 247.427 280.334 253.664 283.14 259.481C282.662 260.05 282.151 260.659 281.639 261.269C278.529 254.989 275.903 248.214 275.608 240.972C275.362 235.571 276.474 230.202 277.53 225.063C277.952 222.993 278.373 220.923 278.72 218.859C281.674 200.977 278.18 181.701 269.05 166.006L268.388 164.896C266.753 162.14 265.071 159.274 264.594 155.965C263.465 148.231 268.961 142.176 274.245 136.292C275.377 135.025 276.475 133.799 277.532 132.54C287.285 120.916 291.562 103.521 289.323 84.8129C288.352 76.7263 286.518 68.6774 284.086 60.6809Z" fill="#EACDC1"/>
<path d="M297.185 79.9829L300.195 85.5564C300.667 88.7914 301.063 92.0328 301.419 95.2402C302.624 106.432 298.48 120.615 289.212 137.354C288.659 138.344 288.105 139.334 287.483 140.405C285.024 144.575 282.236 149.3 281.753 153.673C281.269 158.045 283.112 163.608 284.746 168.511C285.31 170.232 285.869 171.877 286.264 173.387L286.808 175.297C290.473 188.345 294.251 201.835 292.105 215.617C291.765 217.755 291.276 219.907 290.854 221.977C290.151 225.127 289.426 228.466 289.218 231.685C288.935 237.057 290.066 242.231 292.005 247.182C291.541 247.901 291.076 248.619 290.571 249.304C288.268 243.631 286.813 237.77 287.133 231.529C287.322 228.086 288.08 224.705 288.812 221.441C289.274 219.404 289.729 217.293 290.001 215.236C292.036 201.915 288.352 188.644 284.748 175.854L284.204 173.944C283.774 172.475 283.257 170.863 282.658 169.183C280.97 164.097 279.034 158.316 279.587 153.448C280.106 148.62 282.989 143.698 285.585 139.366C286.173 138.336 286.801 137.34 287.32 136.39C296.397 120.044 300.431 106.323 299.265 95.5793C298.814 90.4221 298.097 85.2503 297.185 79.9829Z" fill="#EACDC1"/>
<path d="M302.992 227.731C302.465 222.995 302.555 218.43 302.707 213.71C302.78 210.239 302.88 206.653 302.71 202.977C302.054 189.892 299.869 177.393 296.179 165.778C295.964 165.044 295.668 164.242 295.412 163.473C293.637 158.243 291.687 152.314 293.771 146.859C295.031 143.623 297.128 140.465 299.155 137.388C300.548 135.233 301.88 133.233 302.946 131.219C306.816 123.801 308.955 115.97 309.859 107.794C310.37 109.331 310.881 110.868 311.358 112.446C310.221 119.248 308.127 125.871 304.838 132.184C303.744 134.313 302.31 136.434 300.952 138.549C298.992 141.545 296.964 144.622 295.799 147.661C293.99 152.376 295.832 157.938 297.5 162.801C297.796 163.603 298.052 164.372 298.307 165.14C302.085 176.898 304.29 189.621 304.958 202.856C305.136 206.606 305.042 210.267 304.935 213.778C304.855 217.175 304.763 220.421 304.942 223.757L302.992 227.731Z" fill="#EACDC1"/>
<path d="M315.651 188.627C314.436 182.482 312.887 176.405 310.972 170.434L310.293 168.272C308.545 162.927 306.784 157.432 306.919 151.659C307.136 143.807 310.162 136.651 313.1 129.766C313.627 128.477 314.155 127.189 314.716 125.859C315.011 127.076 315.231 128.3 315.492 129.557C315.368 129.869 315.211 130.222 315.088 130.534C312.212 137.262 309.281 144.222 309.065 151.659C308.932 157.018 310.646 162.404 312.34 167.565L313.019 169.728C314.417 174.087 315.591 178.465 316.622 182.931L315.651 188.627Z" fill="#EACDC1"/>
<path d="M72.153 92.9676C70.3961 92.2552 68.5957 92.3374 67.2345 93.1343C64.5867 94.7216 64.283 98.1374 64.2746 100.623C64.2946 110.752 65.4829 120.89 67.8474 130.7C69.629 138.151 73.7295 142.838 77.9833 142.391C79.4375 142.226 80.6558 141.517 81.6447 140.338C83.418 138.225 84.4626 134.669 84.5804 129.989C84.8346 119.122 82.3038 108.272 77.2761 98.5822C76.4189 96.9626 75.3519 95.0978 73.6175 93.7809C73.177 93.4805 72.6617 93.1867 72.153 92.9676ZM75.4047 99.5744C80.2908 108.938 82.7143 119.42 82.468 129.948C82.3119 135.912 80.4502 140.029 77.7661 140.339C75.1566 140.642 71.6223 137.261 69.9547 130.252C67.6032 120.592 66.3939 110.643 66.387 100.665C66.3926 99.0072 66.5426 96.8476 67.5998 95.5877C67.8044 95.3439 68.0496 95.1342 68.3355 94.9585C69.1591 94.4722 70.2526 94.4895 71.4196 94.9146C71.7722 95.0721 72.0908 95.2701 72.4501 95.5023C73.744 96.5188 74.6759 98.1319 75.4047 99.5744Z" fill="#EACDC1"/>
<path d="M127.231 288.222L127.459 289.106C130.062 298.631 132.748 307.81 135.455 316.8C134.694 316.716 133.927 316.557 133.16 316.398C130.52 307.742 127.969 298.814 125.433 289.622L125.164 288.704C121.072 273.359 117.865 269.836 115.882 269.558C114.436 269.383 112.983 271.28 112.108 272.9C110.509 275.714 110.809 279.152 111.305 283.1L115.146 312.363C114.413 312.164 113.68 311.964 112.906 311.73L109.185 283.399C108.748 280.123 108.159 275.543 110.25 271.896C112.081 268.723 114.097 267.228 116.188 267.46C121.219 268.149 124.722 278.914 127.231 288.222Z" fill="#EACDC1"/>
</g>
</g>
<defs>
<clipPath id="clip0">
<rect width="318" height="318" fill="white"/>
</clipPath>
</defs>
</svg>
