<svg width="259" height="259" viewBox="0 0 259 259" fill="none" xmlns="http://www.w3.org/2000/svg">
<g clip-path="url(#clip0)">
<g opacity="0.17">
<path d="M0.198584 121.977C0.141457 129.034 0.792102 136.12 3.87494 141.921C6.66645 147.195 10.7104 151.716 14.6775 156.06C18.5837 160.409 22.6223 164.869 25.5078 170.166C29.1679 176.958 30.6854 184.49 32.1815 191.779C33.3235 197.474 34.4869 203.411 36.7414 208.855C37.4381 210.511 38.1348 212.167 38.8369 213.884C40.6144 218.082 42.3696 222.374 43.9144 226.715C43.0157 225.905 42.117 225.094 41.2183 224.284C40.0127 221.017 38.6246 217.766 37.2749 214.603C36.5728 212.887 35.843 211.203 35.1462 209.547C32.848 203.953 31.6516 197.988 30.4989 192.171C29.0743 184.999 27.5675 177.589 24.0226 171.062C21.2471 165.97 17.2746 161.566 13.4068 157.305C9.4013 152.873 5.25812 148.269 2.35669 142.79C1.47741 141.15 0.797778 139.339 0.239864 137.517C-0.0962824 132.274 -0.117522 127.125 0.198584 121.977Z" fill="white"/>
<path d="M116.662 43.0506C125.272 49.9927 130.231 61.8224 129.949 74.7237C129.818 80.9283 128.453 87.0568 127.161 92.9643C126.785 94.6221 126.442 96.3077 126.099 97.9933C122.466 115.695 121.747 133.754 123.898 151.685C124.865 159.94 126.893 163.84 129.695 169.236C130.838 171.436 132.134 173.99 133.545 177.147C135.032 180.481 136.647 183.865 138.19 187.134C140.738 192.429 143.396 197.93 145.511 203.539C151.185 218.28 153.863 234.173 156.405 249.555C156.746 251.702 157.12 253.877 157.494 256.052C156.924 256.194 156.354 256.335 155.779 256.416C155.399 254.181 155.025 252.006 154.651 249.832C152.12 234.57 149.48 218.767 143.883 204.203C141.745 198.687 139.12 193.215 136.572 187.919C135.029 184.651 133.354 181.272 131.894 177.904C130.517 174.775 129.226 172.282 128.083 170.082C125.204 164.509 123.166 160.487 122.111 151.934C119.943 133.82 120.708 115.573 124.324 97.6886C124.668 96.003 125.044 94.3452 125.415 92.6266C126.712 86.7799 128.021 80.7175 128.169 74.6955C128.465 62.3141 123.736 51.0162 115.524 44.4072C114.239 43.3853 112.843 42.4957 111.474 41.573L110.338 40.8446C101.945 35.3245 94.3303 28.5406 87.0415 21.9735C83.2482 18.565 79.3225 15.0455 75.2964 11.78C75.8559 11.5164 76.4431 11.2198 77.0687 11.0117C80.9016 14.1715 84.5957 17.4967 88.2182 20.7055C95.5017 27.2118 103.05 33.9402 111.349 39.4378L112.486 40.1662C113.882 41.0558 115.311 41.9731 116.662 43.0506Z" fill="white"/>
<path d="M15.4836 67.8758C16.3719 76.6278 16.338 85.0006 15.3103 92.8779C14.7979 97.1843 13.6889 101.328 12.6023 105.378C10.0646 114.921 7.63387 123.932 13.0248 134.038C15.7779 139.224 20.0771 143.508 24.2385 147.62C27.8653 151.227 31.5912 154.917 34.3968 159.301C37.6645 164.411 39.6136 170.219 41.4859 175.85C43.1885 180.944 45.2061 186.132 47.3442 191.648C53.3531 207.065 59.5263 222.958 59.3189 238.458C58.734 238.08 58.149 237.702 57.5919 237.291C57.5205 222.459 51.55 207.13 45.7438 192.278C43.6057 186.763 41.555 181.546 39.847 176.392C37.9854 170.883 36.1078 165.191 32.9447 160.225C30.216 156.019 26.5562 152.384 23.0287 148.86C18.768 144.665 14.3696 140.297 11.4735 134.879C5.81367 124.153 8.31172 114.859 10.9113 104.974C11.9755 101.018 13.0569 96.9074 13.5798 92.7227C14.444 85.7795 14.5738 78.5021 13.9638 70.8294C14.5149 69.7695 14.9827 68.8088 15.4836 67.8758Z" fill="white"/>
<path d="M108.567 53.9069C114.424 65.1368 116.888 77.1846 116.046 90.6869C115.555 98.3945 114.557 105.901 113.537 113.165C111.717 126.354 109.987 138.83 111.345 152.6C112.463 163.968 118.082 172.122 124.014 180.709C125.803 183.281 127.63 185.942 129.379 188.763C137.998 202.48 141.915 218.509 144.35 230.927C144.948 233.91 145.519 236.926 146.122 239.97C147.242 245.758 148.372 251.669 149.619 257.507C149.043 257.588 148.468 257.669 147.893 257.75C146.646 251.912 145.521 246.062 144.401 240.274C143.831 237.258 143.26 234.242 142.662 231.259C140.237 218.962 136.403 203.171 127.927 189.687C126.183 186.927 124.356 184.266 122.6 181.722C116.525 172.902 110.801 164.604 109.647 152.81C108.301 138.824 109.991 126.26 111.862 112.943C112.854 105.713 113.891 98.2948 114.354 90.6203C115.162 77.4277 112.785 65.6787 107.076 54.7424C100.922 42.9253 92.2199 37.371 81.2161 30.3931L78.7825 28.8584C73.5234 25.5169 68.4533 21.8828 63.5723 17.9563C64.0934 17.6041 64.6197 17.3128 65.1461 17.0215C69.8233 20.7206 74.6617 24.1603 79.6667 27.4015L82.1003 28.9361C93.3304 36.0475 102.193 41.6798 108.567 53.9069Z" fill="white"/>
<path d="M13.2772 175.804C15.6462 180.103 15.7762 185.795 15.713 191.38C15.0973 190.3 14.5093 189.186 13.9822 188.067C13.9191 183.842 13.5016 179.77 11.7867 176.639C10.693 174.65 8.93929 173.179 7.06393 171.718C6.73534 170.766 6.40144 169.752 6.10061 168.767C6.46458 169.072 6.88939 169.373 7.25336 169.678C9.52045 171.411 11.8537 173.2 13.2772 175.804Z" fill="white"/>
<path d="M137.238 37.1421C146.853 46.1117 151.306 60.2236 148.569 73.0945C147.749 77.0293 146.331 80.8018 144.903 84.4525C144.501 85.4687 144.133 86.5126 143.731 87.5289C135.168 110.904 133.395 136.537 138.569 161.684C140.854 172.736 145.656 183.476 150.272 193.833C153.132 200.236 156.068 206.816 158.396 213.449C162.066 223.859 163.007 234.967 163.884 245.682C164.128 248.481 164.351 251.374 164.629 254.201C164.059 254.343 163.522 254.513 162.952 254.654C162.63 251.678 162.374 248.757 162.119 245.836C161.22 235.215 160.323 224.256 156.73 214.024C154.44 207.479 151.504 200.899 148.677 194.524C144.023 184.078 139.182 173.25 136.853 162.049C131.592 136.603 133.399 110.66 142.118 86.9648C142.487 85.9208 142.888 84.9046 143.29 83.8884C144.663 80.3039 146.052 76.5645 146.856 72.7845C149.431 60.5104 145.185 47.0241 136.001 38.4153C130.995 33.7639 124.828 30.563 118.827 27.501C116.707 26.3988 114.493 25.2742 112.368 24.1111C107.985 21.674 104.047 18.7074 100.147 15.8295C97.7194 14.0183 95.226 12.1517 92.6877 10.4729C90.8668 9.28327 89.1675 8.08292 87.4683 6.8826C88.1547 6.66925 88.8412 6.45591 89.4946 6.21479C90.8352 7.17056 92.2036 8.09325 93.6329 9.01061C96.2373 10.7449 98.7307 12.6115 101.158 14.4227C104.992 17.2451 108.93 20.2117 113.153 22.5709C115.251 23.767 117.431 24.8639 119.579 25.933C125.74 29.073 132.034 32.3241 137.238 37.1421Z" fill="white"/>
<path d="M167.445 58.5973C167.917 67.8457 165.234 77.8299 159.721 87.3565C158.764 89.0345 157.852 90.5246 156.968 91.9816C152.813 98.8141 149.815 103.798 149.242 113.015C148.623 122.757 148.667 132.718 149.402 142.525C150.94 163.607 156.179 187.399 164.206 209.415C165.384 212.715 166.75 216.06 168.044 219.289C170.825 226.189 173.72 233.355 175.382 240.782C176.079 243.849 176.6 246.992 176.965 250.118C176.433 250.348 175.869 250.551 175.304 250.753C174.928 247.506 174.43 244.269 173.727 241.142C172.048 233.869 169.219 226.759 166.477 219.947C165.183 216.719 163.817 213.374 162.606 210.046C154.563 187.847 149.252 163.938 147.698 142.674C146.985 132.773 146.936 122.752 147.55 112.948C148.147 103.3 151.228 98.2169 155.516 91.1582C156.372 89.7343 157.312 88.2111 158.241 86.5662C163.593 77.299 166.186 67.6905 165.713 58.7796C165.184 48.5245 160.476 39.2176 153.073 33.7948C148.748 30.6168 143.528 28.774 138.463 26.9484C137.513 26.6023 136.562 26.2563 135.612 25.9102C121.55 20.7635 108.213 13.4071 96.166 4.31304C96.8855 4.12745 97.572 3.91412 98.3247 3.75629C109.964 12.3955 122.777 19.3685 136.237 24.2919C137.187 24.638 138.137 24.984 139.087 25.3302C144.247 27.1782 149.627 29.0989 154.145 32.3827C161.907 38.05 166.934 47.8502 167.445 58.5973Z" fill="white"/>
<path d="M175.053 34.815C179.157 41.4155 179.583 49.4415 179.962 56.5825C180.551 67.1695 180.578 77.2846 174.877 85.0188C173.372 87.082 171.53 88.8067 169.716 90.4984C168.073 92.0524 166.376 93.6726 164.97 95.4818C157.793 104.909 159.528 115.273 161.409 126.268C161.703 127.867 161.963 129.439 162.195 131.043C162.649 134.131 163.225 137.208 163.74 140.29C165.286 149.199 166.891 158.44 166.822 167.46L166.837 167.98C166.75 177.154 166.663 186.666 168.291 195.813C169.604 203.118 172.752 209.311 176.054 215.859C176.867 217.444 177.647 219.001 178.432 220.618C182.354 228.645 185.029 237.149 187.085 245.584C186.559 245.875 186.027 246.106 185.468 246.369C183.439 237.901 180.764 229.397 176.876 221.398C176.123 219.808 175.31 218.224 174.53 216.667C171.157 210.003 167.938 203.693 166.603 196.145C164.931 186.848 165.013 177.276 165.122 168.007L165.107 167.487C165.193 158.65 163.592 149.47 162.052 140.621C161.504 137.512 160.956 134.402 160.502 131.314C160.242 129.743 160.009 128.138 159.716 126.539C157.878 115.693 155.975 104.455 163.652 94.432C165.108 92.4958 166.894 90.8373 168.592 89.2171C170.317 87.5639 172.131 85.8722 173.526 83.9413C178.899 76.6651 178.838 66.8595 178.309 56.6045C177.95 49.707 177.512 41.8966 173.657 35.673C168.514 27.3545 158.627 23.682 149.055 20.1046L147.089 19.3568C134.154 14.4794 121.731 8.45347 109.975 1.29604C110.883 1.15533 111.79 1.01455 112.67 0.906931C123.797 7.53685 135.541 13.1624 147.714 17.7386L149.647 18.4585C159.39 22.2356 169.558 25.9754 175.053 34.815Z" fill="white"/>
<path d="M62.078 56.2266C69.1709 65.1103 75.2092 73.5037 76.7638 86.367C77.9306 96.1984 78.0841 106.364 78.211 116.225C78.3832 129.056 78.5595 142.285 81.0995 154.847C84.0096 169.186 90.9382 182.499 97.68 195.43C99.922 199.679 102.241 204.106 104.344 208.521C111.862 224.02 116.612 240.467 121.254 256.371C121.478 257.179 121.735 258.015 121.964 258.884C121.378 258.844 120.731 258.808 120.145 258.768C119.937 258.142 119.79 257.511 119.582 256.885C114.979 241.07 110.267 224.711 102.787 209.301C100.656 204.919 98.3706 200.52 96.1287 196.271C89.3484 183.251 82.3484 169.822 79.3561 155.245C76.8055 142.561 76.6185 129.21 76.441 116.318C76.3194 106.518 76.1659 96.3528 74.949 86.6484C73.4316 74.2111 67.5641 66.0173 60.6472 57.3942C56.6216 52.3811 48.5676 44.7772 44.0238 45.7573C43.2712 45.9151 42.6615 46.3057 42.1062 46.9674C41.5232 47.6623 41.0607 48.6838 40.6857 50.0043C40.114 52.2311 40.5202 54.7709 40.8336 56.9509L45.9226 89.1879C46.6912 94.1181 46.641 99.1505 46.6356 103.995C46.5747 108.906 46.5575 113.966 47.3539 118.863C49.0926 129.625 52.4606 139.387 57.4922 147.838C65.9877 162.24 77.7204 184.207 81.5644 208.521C83.0856 218.199 83.3449 228.171 83.6331 237.772C83.7369 241.412 83.8076 245.023 83.906 248.602C83.9421 249.365 83.9452 250.1 83.9482 250.836C83.3462 250.613 82.7772 250.417 82.2029 250.161C82.1881 249.641 82.1733 249.121 82.1584 248.601C82.06 245.023 81.9893 241.411 81.9186 237.8C81.6635 228.226 81.3487 218.32 79.8659 208.731C76.0763 184.689 64.4535 162.926 55.9686 148.645C50.888 139.984 47.3823 130.051 45.6223 119.045C44.81 113.966 44.8826 108.839 44.9104 103.901C44.9489 99.0839 44.9767 94.1454 44.2519 89.3647L39.1628 57.1277C38.7726 54.7705 38.3505 52.0481 39.0119 49.4456C39.841 46.3072 41.3958 44.4542 43.6538 43.9808C50.937 42.4238 61.9734 56.0825 62.078 56.2266Z" fill="white"/>
<path d="M30.2641 46.1642C34.4494 62.8137 36.7749 79.9324 37.1147 97.1329C37.161 99.7655 37.1519 102.464 37.0925 105.29C36.9825 114.896 36.8383 124.811 40.1223 133.262C42.1398 138.451 45.7288 143.379 49.2742 148.158C51.7843 151.618 54.4267 155.188 56.466 158.873C61.396 167.915 65.584 177.237 68.8539 186.578C73.674 200.32 75.9261 216.25 75.4889 232.629C75.3512 237.363 75.1579 242.162 74.9593 246.901C74.385 246.645 73.8385 246.355 73.2642 246.099C73.4563 241.637 73.6101 237.086 73.7691 232.596C74.2553 216.427 71.9914 200.713 67.2482 187.147C64.0167 177.895 59.9002 168.69 54.9755 159.708C53.0077 156.14 50.4315 152.625 47.9214 149.166C44.3376 144.298 40.6493 139.286 38.5827 133.887C35.1781 125.11 35.3064 115.012 35.4335 105.251C35.4651 102.459 35.5074 99.7876 35.461 97.155C35.1083 80.5075 32.9247 63.9588 28.9368 47.8133C29.3201 47.2892 29.7921 46.7267 30.2641 46.1642Z" fill="white"/>
<path d="M132.341 259.019C130.548 247.986 127.741 234.128 122.023 220.985C117.808 211.359 112.585 202.465 107.509 193.865C96.7868 175.733 86.7024 158.588 86.6243 135.969C86.6001 130.085 86.958 124.014 87.3395 117.511C88.6545 95.0458 90.0552 71.8066 75.4198 54.5078C70.7707 49.0281 65.2728 44.3584 59.9735 39.8553C56.3947 36.7959 52.6557 33.6586 49.266 30.3068C48.8305 29.885 48.3897 29.4024 47.9105 28.8311C47.4834 29.2057 47.0232 29.5526 46.5961 29.9272C47.1084 30.5262 47.5876 31.0975 48.0561 31.547C51.5121 34.9544 55.2233 38.1248 58.8629 41.1788C64.1292 45.6541 69.594 50.296 74.1107 55.6647C88.333 72.4478 86.9613 95.3166 85.6475 117.445C85.2659 123.947 84.8802 130.051 84.9376 135.963C85.0252 159.042 95.2473 176.359 106.052 194.728C111.122 203.268 116.313 212.134 120.489 221.671C126.086 234.488 128.872 248.102 130.626 259.047L132.341 259.019Z" fill="white"/>
<path d="M23.4159 55.1333C25.5297 64.5753 27.0007 74.38 27.7349 84.5251C28.2171 90.7373 27.8816 96.7145 27.5857 102.443C26.8899 115.166 26.2242 127.181 34.3496 139.807C36.7262 143.492 39.4573 147.025 42.0891 150.473C44.991 154.205 47.9643 158.053 50.4998 162.154C65.6151 186.34 68.4281 214.637 66.9825 242.97C66.436 242.68 65.8564 242.363 65.3045 242.013C66.6155 214.244 63.7671 186.594 49.0424 163.018C46.5453 159.005 43.605 155.185 40.7085 151.514C38.0437 148.037 35.2795 144.477 32.8367 140.736C24.4253 127.645 25.0697 115.386 25.7997 102.354C26.1287 96.6532 26.4418 90.77 25.9702 84.6795C25.2614 75.176 23.9654 65.9691 22.0213 57.0642C22.5157 56.4078 22.9493 55.7567 23.4159 55.1333Z" fill="white"/>
<path d="M138.232 258.718C137.842 256.361 137.518 254.059 137.161 251.73C135.236 238.838 133.212 225.525 128.51 213.121C126.948 208.935 124.924 204.022 121.958 199.561C120.043 196.601 117.686 193.833 115.4 191.182C98.1142 170.926 91.3143 145.768 95.1247 116.431C95.5674 113.082 96.1212 109.599 96.691 106.3C98.4014 96.0633 100.113 85.4895 98.3613 75.2801C94.8462 55.077 79.5114 43.4499 63.2831 31.0732C60.2604 28.7624 57.2045 26.4237 54.2041 24.0189C54.7252 23.6667 55.1854 23.3199 55.6787 23.0008C58.5136 25.2668 61.4371 27.4944 64.3275 29.6942C80.1256 41.7099 96.4531 54.1699 100.082 74.9763C101.921 85.4846 100.132 96.2185 98.4321 106.577C97.8623 109.876 97.3032 113.298 96.8605 116.647C93.0961 145.459 99.7979 170.197 116.742 190.053C119.033 192.765 121.391 195.532 123.405 198.575C126.475 203.182 128.537 208.182 130.138 212.457C134.917 225.038 136.951 238.473 138.854 251.459C139.216 253.85 139.546 256.212 139.969 258.597L138.232 258.718Z" fill="white"/>
<path d="M180.783 21.8051C184.045 25.1067 185.653 30.5153 187.08 35.2652C187.469 36.5495 187.824 37.8061 188.229 38.9356C190.168 44.6219 192.257 51.3373 193.03 58.4132C194.184 68.7976 192.171 78.3859 187.32 85.31C185.141 88.4438 182.505 91.2498 179.952 93.9566C172.941 101.437 166.886 107.915 171.101 118.951C179.981 142.303 183.843 167.872 182.254 192.814L182.177 194.384C181.887 198.426 181.635 202.556 182.407 206.474C183.168 210.27 184.959 213.915 186.672 217.383L187.419 218.912C190.791 225.914 193.698 233.202 196.006 240.664C195.48 240.956 194.986 241.275 194.46 241.566C192.146 234.043 189.262 226.661 185.857 219.631L185.11 218.102C183.325 214.518 181.496 210.785 180.714 206.745C179.86 202.589 180.162 198.331 180.413 194.201L180.518 192.598C182.068 167.904 178.232 142.64 169.462 119.493C164.88 107.416 171.613 100.266 178.678 92.7189C181.176 90.0784 183.785 87.3055 185.88 84.2709C190.481 77.6446 192.382 68.526 191.293 58.5345C190.536 51.6412 188.485 45.0144 186.557 39.4499C186.152 38.3203 185.764 37.0359 185.403 35.7184C184.025 31.1789 182.466 25.9807 179.507 22.9898C171.537 14.9493 158.596 10.011 148.163 6.04903L147.147 5.64742C144.197 4.52581 141.093 3.3871 137.834 2.23127C135.713 1.46641 133.559 0.673762 131.372 -0.146619C133.213 -0.123779 135.055 -0.100905 136.907 0.0436386C137.415 0.244455 137.923 0.445253 138.459 0.612981C141.751 1.79658 144.855 2.93529 147.838 4.08466L148.854 4.48628C159.387 8.53151 172.548 13.5425 180.783 21.8051Z" fill="white"/>
<path d="M193.391 16.6548C194.646 18.3845 195.79 20.2466 196.828 22.3019C201.223 30.8391 203.419 40.519 205.133 48.8922C206.885 57.3541 208.502 66.3795 207.316 75.2517C206.039 84.837 201.473 92.5639 194.128 97.6214L193.923 97.7313C186.866 102.58 181.805 106.058 181.039 115.169C180.462 122.24 182.689 129.128 185.176 136.176L186.557 140.041C191.773 154.454 197.125 169.377 195.619 184.746C195.31 187.532 194.848 190.301 194.319 193.015C193.592 196.972 192.848 201.084 192.867 205.16C192.931 215.701 197.93 225.534 202.781 235.074C202.929 235.368 203.111 235.689 203.231 236.016C202.771 236.363 202.278 236.682 201.785 237.001C201.598 236.619 201.411 236.236 201.224 235.854C196.269 226.17 191.16 216.132 191.119 205.16C191.089 200.962 191.856 196.756 192.577 192.738C193.051 190.09 193.575 187.316 193.827 184.596C195.31 169.658 189.974 154.918 184.862 140.649L183.482 136.784C180.885 129.531 178.609 122.433 179.281 115.047C180.1 105.134 185.743 101.298 192.882 96.3508L193.054 96.2131C199.994 91.4363 204.322 84.1288 205.52 75.041C206.666 66.4176 205.065 57.5746 203.356 49.2623C201.62 40.983 199.44 31.4856 195.183 23.1203C193.518 19.8628 191.586 17.0579 189.471 14.6063C189.537 14.6618 189.631 14.6843 189.697 14.7399L193.391 16.6548Z" fill="white"/>
<path d="M207.871 26.2106C214.979 42.2671 218.348 56.5966 218.131 69.8908C217.869 83.7102 213.891 93.961 205.946 101.278C204.781 102.331 203.523 103.361 202.292 104.357C198.826 107.144 195.592 109.788 193.998 113.637C192.28 117.834 193.066 122.609 194.05 127.551C196.52 139.66 199.487 151.848 202.798 163.76L203.011 164.447C204.519 169.772 206.038 175.219 205.826 180.848C205.741 183.033 205.402 185.116 205.063 187.2C204.803 188.786 204.549 190.434 204.416 192.07C203.335 204.244 209.247 215.745 215.154 226.848C214.727 227.223 214.272 227.63 213.812 227.977C207.69 216.525 201.536 204.708 202.686 191.915C202.846 190.245 203.095 188.537 203.383 186.918C203.727 184.895 204.066 182.811 204.134 180.782C204.34 175.429 202.832 170.104 201.367 164.928L201.181 164.208C197.777 152.273 194.837 140.053 192.362 127.883C191.296 122.703 190.517 117.651 192.379 113.012C194.125 108.782 197.702 105.863 201.195 103.043C202.399 102.079 203.658 101.049 204.795 100.03C212.373 93.0821 216.172 83.2454 216.417 69.9181C216.652 56.1318 212.92 41.1596 205.058 24.1879L205.124 24.2435L207.871 26.2106Z" fill="white"/>
<path d="M217.171 34.0122L220.114 36.8204C224.018 46.7496 227.462 57.0256 228.404 67.7964C229.784 83.2196 225.324 97.069 216.241 105.743C215.393 106.553 214.511 107.335 213.596 108.09C211.399 109.968 209.319 111.775 207.901 114.137C204.019 120.578 206.371 126.443 208.845 132.634C209.667 134.677 210.528 136.81 211.179 138.991C214.399 149.869 215.838 161.056 215.441 172.281C215.35 174.405 215.227 176.5 215.076 178.629C214.795 183.13 214.47 187.818 214.836 192.354C215.617 201.637 219.177 210.431 223.229 218.906C222.841 219.37 222.358 219.81 221.936 220.246C217.73 211.416 213.895 202.278 213.099 192.476C212.722 187.818 213.042 183.068 213.318 178.507C213.441 176.411 213.564 174.316 213.688 172.22C214.101 161.177 212.678 150.173 209.474 139.477C208.862 137.385 208.006 135.313 207.183 133.27C204.639 126.962 201.979 120.389 206.322 113.264C207.874 110.675 210.154 108.698 212.35 106.819C213.204 106.07 214.119 105.315 214.94 104.538C223.684 96.2007 227.916 82.8925 226.584 68.0169C225.668 56.1401 221.525 44.883 217.171 34.0122Z" fill="white"/>
<path d="M231.21 49.0637L234.051 52.8009C235.427 58.0151 236.559 63.2507 237.177 68.5619C239.038 84.219 235.415 98.8842 227.17 108.711C226.314 109.798 225.36 110.801 224.438 111.832C220.386 116.326 216.222 120.952 217.011 126.462C217.368 128.792 218.633 130.981 219.892 133.109L220.464 134.04C228.051 147.172 231.022 163.253 228.56 178.216C228.277 179.896 227.94 181.642 227.563 183.3C226.726 187.39 225.871 191.634 226.05 195.788C226.27 201.104 228.155 206.181 230.44 210.917C230.051 211.381 229.634 211.877 229.218 212.373C226.686 207.26 224.548 201.745 224.308 195.849C224.107 191.451 225.012 187.08 225.873 182.896C226.216 181.211 226.559 179.525 226.841 177.845C229.246 163.286 226.402 147.592 218.968 134.814L218.429 133.911C217.098 131.667 215.729 129.334 215.34 126.639C214.421 120.343 218.896 115.414 223.198 110.622C224.119 109.591 225.013 108.593 225.874 107.568C233.814 98.1046 237.297 83.9421 235.474 68.7109C234.683 62.1271 233.19 55.5741 231.21 49.0637Z" fill="white"/>
<path d="M241.874 64.7782L244.325 69.3159C244.708 71.9497 245.031 74.5887 245.321 77.2C246.302 86.3118 242.928 97.8587 235.383 111.488C234.932 112.293 234.481 113.099 233.975 113.971C231.973 117.366 229.703 121.213 229.31 124.773C228.916 128.333 230.416 132.862 231.746 136.854C232.206 138.255 232.661 139.595 232.983 140.823L233.425 142.379C236.409 153.002 239.485 163.984 237.738 175.205C237.461 176.946 237.063 178.698 236.72 180.384C236.147 182.948 235.557 185.667 235.388 188.287C235.157 192.661 236.077 196.873 237.657 200.904C237.278 201.489 236.9 202.074 236.489 202.631C234.614 198.013 233.43 193.241 233.69 188.16C233.844 185.357 234.461 182.605 235.056 179.946C235.433 178.289 235.803 176.57 236.025 174.895C237.682 164.05 234.683 153.245 231.748 142.832L231.305 141.277C230.956 140.081 230.534 138.769 230.047 137.401C228.673 133.26 227.096 128.554 227.546 124.59C227.969 120.659 230.316 116.652 232.43 113.126C232.908 112.287 233.42 111.475 233.842 110.703C241.232 97.394 244.516 86.2228 243.567 77.4761C243.2 73.2773 242.617 69.0667 241.874 64.7782Z" fill="white"/>
<path d="M246.602 185.068C246.172 181.212 246.246 177.496 246.369 173.653C246.429 170.827 246.511 167.907 246.371 164.915C245.838 154.261 244.059 144.085 241.054 134.629C240.879 134.031 240.638 133.378 240.43 132.752C238.985 128.495 237.397 123.667 239.094 119.226C240.12 116.592 241.827 114.02 243.478 111.515C244.612 109.76 245.696 108.132 246.564 106.493C249.715 100.453 251.456 94.0773 252.192 87.4212C252.608 88.6725 253.024 89.9238 253.413 91.2082C252.487 96.7464 250.782 102.138 248.104 107.278C247.214 109.011 246.046 110.738 244.94 112.46C243.345 114.899 241.694 117.404 240.745 119.879C239.272 123.717 240.772 128.246 242.13 132.205C242.371 132.858 242.579 133.484 242.787 134.11C245.863 143.682 247.658 154.041 248.202 164.816C248.347 167.869 248.27 170.85 248.183 173.709C248.119 176.473 248.043 179.117 248.189 181.833L246.602 185.068Z" fill="white"/>
<path d="M256.911 153.232C255.921 148.229 254.66 143.281 253.101 138.42L252.548 136.659C251.125 132.307 249.691 127.834 249.801 123.134C249.978 116.741 252.442 110.915 254.834 105.31C255.263 104.261 255.692 103.211 256.15 102.129C256.389 103.12 256.569 104.116 256.781 105.14C256.68 105.394 256.552 105.681 256.452 105.935C254.111 111.413 251.724 117.079 251.549 123.134C251.44 127.497 252.835 131.882 254.215 136.084L254.767 137.845C255.906 141.393 256.861 144.958 257.701 148.595L256.911 153.232Z" fill="white"/>
<path d="M58.6635 75.3502C57.2331 74.7702 55.7674 74.8371 54.6591 75.4859C52.5034 76.7782 52.2562 79.5591 52.2493 81.5832C52.2656 89.829 53.233 98.0835 55.1581 106.07C56.6086 112.137 59.9471 115.953 63.4103 115.588C64.5942 115.454 65.5861 114.877 66.3913 113.917C67.835 112.197 68.6854 109.302 68.7813 105.492C68.9883 96.6438 66.9278 87.8104 62.8345 79.9213C62.1366 78.6027 61.268 77.0845 59.8559 76.0123C59.4972 75.7678 59.0777 75.5286 58.6635 75.3502ZM61.3109 80.7291C65.289 88.3524 67.262 96.8868 67.0615 105.458C66.9344 110.313 65.4188 113.665 63.2334 113.918C61.109 114.165 58.2315 111.412 56.8738 105.706C54.9593 97.8405 53.9747 89.7408 53.9691 81.6167C53.9737 80.2673 54.0958 78.5091 54.9565 77.4833C55.1231 77.2848 55.3228 77.1141 55.5555 76.9711C56.226 76.5752 57.1164 76.5892 58.0664 76.9353C58.3536 77.0635 58.6129 77.2248 58.9054 77.4138C59.9589 78.2414 60.7176 79.5547 61.3109 80.7291Z" fill="white"/>
<path d="M103.506 234.317L103.692 235.036C105.811 242.792 107.998 250.265 110.202 257.584C109.583 257.515 108.958 257.386 108.334 257.256C106.184 250.209 104.107 242.941 102.042 235.457L101.823 234.709C98.4923 222.216 95.8807 219.348 94.2666 219.121C93.0891 218.979 91.9059 220.524 91.1936 221.843C89.8917 224.134 90.1366 226.933 90.5404 230.147L93.6672 253.971C93.0705 253.809 92.4737 253.647 91.8439 253.456L88.8142 230.39C88.4582 227.723 87.9787 223.994 89.681 221.025C91.1719 218.442 92.813 217.225 94.5157 217.413C98.6118 217.975 101.463 226.739 103.506 234.317Z" fill="white"/>
</g>
</g>
<defs>
<clipPath id="clip0">
<rect width="259" height="259" fill="white"/>
</clipPath>
</defs>
</svg>
