<svg width="571" height="571" viewBox="0 0 571 571" fill="none" xmlns="http://www.w3.org/2000/svg">
<g clip-path="url(#clip0)">
<g opacity="0.12">
<path d="M0.293329 268.367C0.167371 283.926 1.60195 299.551 8.39915 312.341C14.554 323.97 23.4703 333.938 32.2172 343.515C40.8299 353.104 49.7344 362.938 56.0964 374.617C64.1665 389.593 67.5122 406.2 70.8109 422.27C73.329 434.826 75.894 447.918 80.8648 459.921C82.401 463.573 83.9372 467.224 85.4851 471.009C89.4044 480.265 93.2743 489.728 96.6804 499.299C94.6989 497.512 92.7174 495.726 90.7359 493.939C88.0777 486.735 85.0171 479.567 82.0412 472.595C80.4932 468.809 78.884 465.097 77.3478 461.446C72.2806 449.113 69.6426 435.96 67.1011 423.136C63.96 407.322 60.6379 390.983 52.8219 376.593C46.7022 365.366 37.9436 355.655 29.4155 346.261C20.584 336.489 11.4489 326.337 5.05165 314.256C3.11294 310.64 1.61446 306.647 0.384345 302.632C-0.356809 291.07 -0.403639 279.717 0.293329 268.367Z" fill="white"/>
<path d="M257.087 94.346C276.069 109.652 287.004 135.735 286.383 164.181C286.093 177.861 283.084 191.373 280.235 204.399C279.406 208.054 278.649 211.77 277.893 215.487C269.883 254.516 268.297 294.335 273.041 333.87C275.174 352.07 279.644 360.67 285.822 372.567C288.342 377.417 291.201 383.048 294.311 390.008C297.59 397.36 301.15 404.822 304.552 412.028C310.17 423.704 316.031 435.832 320.695 448.2C333.205 480.702 339.11 515.742 344.714 549.659C345.466 554.393 346.291 559.188 347.116 563.983C345.859 564.296 344.602 564.608 343.333 564.787C342.497 559.858 341.671 555.063 340.846 550.268C335.266 516.619 329.446 481.775 317.105 449.664C312.391 437.503 306.604 425.436 300.985 413.76C297.583 406.554 293.89 399.103 290.671 391.679C287.634 384.779 284.787 379.282 282.268 374.433C275.92 362.145 271.426 353.277 269.1 334.418C264.322 294.48 266.007 254.246 273.981 214.815C274.738 211.099 275.567 207.443 276.385 203.654C279.245 190.763 282.131 177.396 282.457 164.118C283.111 136.819 272.684 111.909 254.577 97.3372C251.744 95.084 248.666 93.1226 245.648 91.0882L243.142 89.4822C224.637 77.3112 207.848 62.3536 191.778 47.8741C183.414 40.3588 174.758 32.5989 165.881 25.3989C167.115 24.8178 168.41 24.1637 169.789 23.7051C178.24 30.6719 186.385 38.0034 194.372 45.0784C210.431 59.4238 227.074 74.2589 245.372 86.3804L247.878 87.9864C250.956 89.9478 254.108 91.9704 257.087 94.346Z" fill="white"/>
<path d="M34.0001 149.082C35.9588 168.379 35.8839 186.84 33.618 204.208C32.4883 213.703 30.043 222.84 27.6471 231.77C22.0521 252.809 16.6926 272.679 28.5789 294.96C34.6491 306.394 44.1281 315.839 53.3035 324.906C61.2998 332.859 69.515 340.996 75.701 350.662C82.9057 361.929 87.2032 374.734 91.3313 387.149C95.0854 398.38 99.5338 409.82 104.248 421.981C117.497 455.973 131.108 491.015 130.651 525.192C129.361 524.358 128.071 523.525 126.843 522.618C126.685 489.915 113.521 456.118 100.719 423.372C96.0051 411.211 91.4838 399.709 87.7179 388.344C83.6133 376.197 79.4735 363.648 72.4994 352.699C66.4828 343.424 58.4135 335.41 50.636 327.64C41.2417 318.39 31.5439 308.761 25.1584 296.814C12.6793 273.165 18.1871 252.674 23.9189 230.879C26.2653 222.156 28.6495 213.092 29.8026 203.866C31.7079 188.557 31.994 172.511 30.6492 155.594C31.8643 153.257 32.8957 151.139 34.0001 149.082Z" fill="white"/>
<path d="M239.238 118.282C252.153 143.043 257.586 169.607 255.729 199.377C254.647 216.371 252.445 232.923 250.196 248.937C246.183 278.018 242.371 305.526 245.365 335.886C247.828 360.952 260.217 378.931 273.297 397.863C277.241 403.534 281.269 409.401 285.126 415.62C304.131 445.864 312.766 481.206 318.135 508.586C319.454 515.163 320.712 521.813 322.043 528.524C324.511 541.287 327.003 554.318 329.752 567.192C328.483 567.37 327.215 567.549 325.946 567.727C323.197 554.854 320.717 541.957 318.248 529.194C316.991 522.544 315.733 515.894 314.414 509.318C309.067 482.205 300.614 447.388 281.924 417.658C278.079 411.572 274.051 405.706 270.18 400.096C256.785 380.65 244.165 362.354 241.62 336.348C238.652 305.513 242.379 277.81 246.503 248.449C248.691 232.507 250.978 216.151 251.998 199.23C253.78 170.142 248.539 144.238 235.952 120.125C222.384 94.0697 203.196 81.8232 178.934 66.4379L173.568 63.0542C161.973 55.6865 150.794 47.674 140.032 39.0166C141.181 38.2401 142.341 37.5978 143.502 36.9555C153.814 45.1114 164.482 52.6955 175.518 59.8418L180.884 63.2255C205.644 78.9051 225.185 91.3235 239.238 118.282Z" fill="white"/>
<path d="M29.1326 387.048C34.3559 396.528 34.6425 409.076 34.5032 421.391C33.1456 419.009 31.8492 416.553 30.687 414.086C30.5479 404.77 29.6273 395.792 25.8463 388.89C23.4347 384.504 19.5681 381.26 15.4332 378.039C14.7087 375.939 13.9725 373.705 13.3093 371.533C14.1117 372.206 15.0484 372.868 15.8509 373.541C20.8495 377.362 25.994 381.306 29.1326 387.048Z" fill="white"/>
<path d="M302.454 81.3188C323.652 101.096 333.472 132.21 327.438 160.589C325.628 169.264 322.502 177.582 319.354 185.631C318.468 187.872 317.655 190.174 316.77 192.414C297.89 243.954 293.979 300.47 305.387 355.916C310.426 380.284 321.015 403.963 331.192 426.8C337.497 440.917 343.971 455.425 349.104 470.05C357.196 493.002 359.271 517.493 361.203 541.119C361.743 547.291 362.233 553.67 362.846 559.903C361.589 560.215 360.405 560.589 359.148 560.902C358.439 554.339 357.875 547.899 357.312 541.459C355.331 518.041 353.352 493.879 345.43 471.318C340.382 456.888 333.907 442.38 327.675 428.324C317.413 405.292 306.74 381.417 301.605 356.72C290.004 300.615 293.99 243.416 313.214 191.171C314.026 188.869 314.912 186.628 315.797 184.388C318.824 176.484 321.888 168.24 323.66 159.905C329.336 132.843 319.975 103.107 299.725 84.1262C288.688 73.8705 275.092 66.813 261.86 60.0616C257.186 57.6314 252.305 55.1518 247.619 52.5875C237.956 47.2139 229.272 40.673 220.672 34.3276C215.321 30.3343 209.823 26.2187 204.227 22.5172C200.212 19.8942 196.465 17.2476 192.718 14.6011C194.232 14.1306 195.745 13.6603 197.186 13.1286C200.142 15.236 203.159 17.2704 206.31 19.293C212.053 23.1169 217.55 27.2325 222.902 31.2258C231.355 37.4488 240.039 43.9897 249.35 49.1914C253.974 51.8287 258.783 54.2471 263.518 56.6043C277.103 63.5276 290.979 70.6958 302.454 81.3188Z" fill="white"/>
<path d="M369.05 128.624C370.091 149.015 364.175 171.029 352.02 192.034C349.91 195.734 347.899 199.019 345.95 202.232C336.79 217.296 330.18 228.285 328.916 248.607C327.551 270.087 327.647 292.048 329.269 313.673C332.659 360.154 344.211 412.614 361.91 461.156C364.507 468.432 367.518 475.807 370.372 482.926C376.502 498.14 382.887 513.94 386.551 530.316C388.088 537.076 389.235 544.006 390.041 550.898C388.869 551.406 387.624 551.853 386.378 552.3C385.549 545.14 384.452 538.003 382.902 531.108C379.201 515.073 372.962 499.396 366.916 484.377C364.063 477.258 361.052 469.883 358.382 462.546C340.648 413.602 328.938 360.886 325.512 314.002C323.94 292.17 323.832 270.075 325.186 248.46C326.502 227.187 333.295 215.98 342.749 200.416C344.637 197.277 346.709 193.918 348.758 190.291C360.558 169.858 366.275 148.673 365.232 129.026C364.065 106.415 353.685 85.8945 337.362 73.9382C327.826 66.9311 316.317 62.868 305.149 58.8428C303.054 58.0797 300.959 57.3167 298.865 56.5536C267.858 45.2059 238.454 28.9861 211.891 8.93508C213.477 8.52588 214.991 8.0555 216.65 7.70752C242.314 26.7556 270.563 42.1301 300.242 52.9855C302.337 53.7486 304.432 54.5116 306.527 55.2748C317.902 59.3494 329.764 63.5843 339.726 70.8246C356.84 83.3201 367.923 104.928 369.05 128.624Z" fill="white"/>
<path d="M385.824 76.1877C394.871 90.741 395.811 108.437 396.647 124.182C397.946 147.525 398.005 169.827 385.436 186.88C382.116 191.429 378.055 195.232 374.055 198.962C370.434 202.388 366.691 205.96 363.592 209.949C347.768 230.734 351.592 253.586 355.741 277.829C356.387 281.355 356.961 284.82 357.473 288.358C358.474 295.165 359.744 301.949 360.879 308.745C364.288 328.388 367.828 348.763 367.675 368.65L367.708 369.797C367.517 390.025 367.324 410.997 370.914 431.166C373.81 447.271 380.75 460.927 388.03 475.365C389.823 478.858 391.542 482.29 393.274 485.857C401.92 503.554 407.819 522.304 412.353 540.902C411.193 541.545 410.02 542.053 408.787 542.634C404.314 523.962 398.415 505.213 389.842 487.576C388.183 484.071 386.39 480.578 384.671 477.146C377.234 462.451 370.135 448.539 367.192 431.897C363.506 411.399 363.687 390.293 363.928 369.857L363.895 368.711C364.083 349.226 360.554 328.985 357.158 309.476C355.949 302.619 354.741 295.762 353.74 288.954C353.166 285.49 352.654 281.952 352.008 278.426C347.955 254.512 343.759 229.733 360.686 207.635C363.895 203.366 367.834 199.709 371.577 196.137C375.382 192.491 379.382 188.762 382.457 184.504C394.302 168.461 394.168 146.841 393.001 124.23C392.212 109.022 391.246 91.8018 382.745 78.0795C371.406 59.7385 349.607 51.6411 328.502 43.7534L324.167 42.1046C295.646 31.3507 268.255 18.0644 242.337 2.2833C244.337 1.97305 246.338 1.66267 248.278 1.42538C272.811 16.0434 298.704 28.4469 325.545 38.5367L329.807 40.1241C351.288 48.4521 373.709 56.6978 385.824 76.1877Z" fill="white"/>
<path d="M136.733 123.397C152.372 142.985 165.686 161.491 169.114 189.853C171.686 211.529 172.025 233.942 172.304 255.684C172.684 283.975 173.073 313.143 178.673 340.842C185.089 372.457 200.366 401.81 215.231 430.32C220.174 439.689 225.286 449.45 229.924 459.184C246.501 493.357 256.974 529.62 267.207 564.687C267.701 566.469 268.268 568.312 268.773 570.228C267.481 570.138 266.055 570.061 264.763 569.971C264.304 568.591 263.979 567.2 263.521 565.821C253.372 530.949 242.984 494.882 226.491 460.903C221.793 451.242 216.753 441.544 211.81 432.174C196.861 403.469 181.427 373.859 174.829 341.719C169.205 313.752 168.793 284.315 168.402 255.891C168.134 234.283 167.795 211.87 165.112 190.473C161.766 163.05 148.829 144.984 133.579 125.972C124.703 114.919 106.945 98.1531 96.9265 100.314C95.267 100.662 93.9228 101.523 92.6985 102.982C91.4129 104.514 90.3932 106.767 89.5664 109.678C88.306 114.588 89.2015 120.188 89.8924 124.994L101.113 196.072C102.808 206.942 102.697 218.038 102.685 228.72C102.551 239.547 102.513 250.704 104.269 261.502C108.102 285.231 115.528 306.754 126.622 325.386C145.354 357.141 171.223 405.576 179.698 459.184C183.052 480.522 183.624 502.509 184.259 523.679C184.488 531.703 184.644 539.666 184.861 547.556C184.941 549.239 184.947 550.861 184.954 552.483C183.627 551.99 182.372 551.559 181.106 550.994C181.073 549.848 181.041 548.701 181.008 547.555C180.791 539.665 180.635 531.702 180.479 523.739C179.916 502.63 179.222 480.789 175.953 459.647C167.597 406.637 141.971 358.654 123.263 327.167C112.061 308.071 104.331 286.169 100.451 261.903C98.6598 250.703 98.82 239.4 98.8814 228.512C98.9662 217.891 99.0276 207.003 97.4294 196.462L86.2086 125.384C85.3483 120.187 84.4176 114.184 85.8759 108.446C87.704 101.526 91.1321 97.441 96.1106 96.397C112.169 92.9641 136.503 123.08 136.733 123.397Z" fill="white"/>
<path d="M66.5856 101.211C75.8135 137.921 80.9409 175.665 81.6901 213.589C81.7924 219.394 81.7722 225.344 81.6413 231.575C81.3987 252.754 81.0807 274.616 88.3214 293.248C92.7698 304.689 100.683 315.556 108.5 326.093C114.034 333.721 119.861 341.593 124.357 349.717C135.227 369.654 144.461 390.207 151.671 410.802C162.298 441.103 167.264 476.225 166.3 512.339C165.996 522.776 165.57 533.358 165.132 543.807C163.866 543.242 162.661 542.603 161.395 542.038C161.818 532.199 162.157 522.165 162.508 512.265C163.58 476.615 158.588 441.968 148.13 412.058C141.005 391.659 131.929 371.362 121.071 351.559C116.732 343.692 111.052 335.942 105.517 328.314C97.6157 317.582 89.4835 306.531 84.9269 294.627C77.4203 275.274 77.7032 253.01 77.9835 231.489C78.0532 225.332 78.1463 219.443 78.0441 213.638C77.2663 176.933 72.4518 140.445 63.6591 104.847C64.5043 103.691 65.5449 102.451 66.5856 101.211Z" fill="white"/>
<path d="M291.648 570.525C287.695 546.198 281.507 515.644 268.899 486.666C259.607 465.442 248.089 445.832 236.899 426.87C213.257 386.892 191.022 349.09 190.85 299.217C190.797 286.243 191.586 272.857 192.427 258.521C195.326 208.988 198.415 157.749 166.146 119.607C155.895 107.525 143.773 97.2294 132.089 87.3008C124.198 80.5553 115.954 73.638 108.48 66.2477C107.52 65.3177 106.548 64.2536 105.492 62.9941C104.55 63.82 103.535 64.5847 102.594 65.4107C103.723 66.7314 104.78 67.991 105.813 68.9822C113.433 76.4949 121.615 83.4852 129.64 90.2189C141.252 100.086 153.301 110.321 163.259 122.158C194.618 159.162 191.593 209.585 188.696 258.374C187.855 272.711 187.005 286.169 187.131 299.205C187.324 350.089 209.863 388.271 233.686 428.773C244.864 447.602 256.308 467.15 265.516 488.179C277.858 516.437 283.999 546.454 287.868 570.586L291.648 570.525Z" fill="white"/>
<path d="M51.4829 120.986C56.1433 141.804 59.3866 163.422 61.0057 185.791C62.0688 199.488 61.329 212.667 60.6765 225.297C59.1425 253.349 57.6746 279.841 75.5901 307.679C80.8302 315.805 86.8518 323.593 92.6545 331.197C99.0526 339.425 105.608 347.91 111.199 356.952C144.526 410.278 150.728 472.669 147.541 535.138C146.336 534.5 145.058 533.801 143.841 533.028C146.732 471.802 140.451 410.837 107.986 358.856C102.48 350.009 95.9969 341.585 89.6105 333.491C83.7348 325.826 77.6403 317.977 72.2544 309.728C53.7083 280.864 55.1291 253.836 56.7386 225.101C57.4641 212.532 58.1544 199.56 57.1147 186.131C55.5519 165.178 52.6943 144.878 48.4078 125.244C49.498 123.796 50.4539 122.361 51.4829 120.986Z" fill="white"/>
<path d="M304.636 569.862C303.776 564.665 303.061 559.59 302.274 554.454C298.03 526.028 293.569 496.675 283.2 469.326C279.756 460.096 275.293 449.266 268.754 439.428C264.533 432.902 259.335 426.8 254.294 420.954C216.182 376.294 201.19 320.823 209.591 256.14C210.567 248.754 211.788 241.076 213.044 233.801C216.816 211.231 220.589 187.918 216.727 165.407C208.977 120.862 175.166 95.2263 139.385 67.9376C132.72 62.8424 125.982 57.6861 119.367 52.3838C120.516 51.6073 121.531 50.8426 122.618 50.139C128.869 55.1352 135.315 60.0467 141.688 64.897C176.52 91.3899 212.52 118.862 220.522 164.737C224.577 187.907 220.631 211.573 216.883 234.411C215.627 241.687 214.394 249.23 213.418 256.616C205.118 320.141 219.895 374.685 257.254 418.464C262.306 424.444 267.504 430.546 271.944 437.256C278.714 447.412 283.261 458.438 286.79 467.863C297.328 495.603 301.812 525.224 306.007 553.857C306.806 559.127 307.533 564.336 308.466 569.595L304.636 569.862Z" fill="white"/>
<path d="M398.46 47.5024C405.654 54.782 409.198 66.7072 412.345 77.18C413.201 80.0118 413.985 82.7823 414.878 85.2728C419.152 97.8101 423.76 112.617 425.463 128.218C428.007 151.114 423.57 172.255 412.873 187.521C408.07 194.431 402.257 200.618 396.628 206.586C381.171 223.08 367.819 237.362 377.114 261.696C396.693 313.183 405.208 369.558 401.704 424.551L401.534 428.014C400.894 436.925 400.339 446.032 402.041 454.671C403.72 463.041 407.668 471.078 411.446 478.724L413.093 482.095C420.527 497.533 426.935 513.601 432.025 530.056C430.865 530.698 429.777 531.401 428.617 532.044C423.515 515.455 417.156 499.18 409.649 483.681L408.002 480.31C404.066 472.407 400.033 464.175 398.308 455.268C396.424 446.104 397.09 436.717 397.646 427.61L397.877 424.075C401.293 369.63 392.837 313.925 373.5 262.891C363.397 236.262 378.241 220.497 393.82 203.857C399.327 198.035 405.079 191.921 409.698 185.231C419.844 170.62 424.034 150.515 421.633 128.486C419.966 113.287 415.443 98.6755 411.192 86.4066C410.298 83.916 409.442 81.0841 408.647 78.1794C405.608 68.1703 402.172 56.709 395.646 50.1145C378.075 32.3864 349.542 21.4981 326.538 12.7626L324.297 11.8771C317.794 9.40413 310.95 6.89344 303.765 4.34499C299.088 2.6586 294.338 0.910918 289.516 -0.897905C293.576 -0.847546 297.636 -0.797111 301.72 -0.478414C302.841 -0.0356427 303.961 0.407087 305.142 0.776904C312.401 3.38658 319.245 5.89726 325.821 8.43145L328.062 9.31696C351.285 18.2361 380.304 29.2846 398.46 47.5024Z" fill="white"/>
<path d="M426.262 36.1469C429.03 39.9607 431.552 44.0664 433.841 48.598C443.532 67.4212 448.374 88.7641 452.152 107.226C456.015 125.883 459.581 145.783 456.966 165.345C454.151 186.479 444.082 203.516 427.888 214.667L427.436 214.909C411.877 225.599 400.718 233.267 399.029 253.357C397.756 268.948 402.668 284.133 408.151 299.674L411.195 308.196C422.695 339.975 434.496 372.876 431.175 406.763C430.495 412.907 429.475 419.012 428.308 424.995C426.706 433.72 425.065 442.787 425.108 451.774C425.249 475.015 436.271 496.696 446.967 517.73C447.294 518.377 447.694 519.086 447.96 519.806C446.945 520.571 445.857 521.274 444.77 521.978C444.358 521.135 443.946 520.292 443.534 519.45C432.608 498.098 421.343 475.965 421.255 451.773C421.189 442.518 422.878 433.244 424.469 424.385C425.513 418.547 426.668 412.43 427.225 406.433C430.495 373.497 418.729 340.998 407.459 309.537L404.415 301.015C398.689 285.022 393.67 269.373 395.152 253.087C396.958 231.23 409.399 222.774 425.142 211.865L425.521 211.561C440.823 201.029 450.364 184.917 453.005 164.88C455.533 145.867 452.002 126.369 448.235 108.042C444.407 89.7872 439.601 68.8467 430.213 50.4025C426.543 43.2202 422.284 37.0357 417.62 31.6303C417.766 31.7528 417.973 31.8024 418.119 31.9248L426.262 36.1469Z" fill="white"/>
<path d="M458.183 57.2162C473.854 92.6186 481.282 124.213 480.805 153.525C480.226 183.995 471.455 206.596 453.939 222.73C451.371 225.05 448.595 227.321 445.881 229.519C438.239 235.663 431.11 241.491 427.594 249.978C423.807 259.233 425.539 269.761 427.71 280.658C433.155 307.356 439.697 334.228 446.997 360.494L447.467 362.007C450.793 373.749 454.142 385.759 453.673 398.17C453.486 402.986 452.739 407.58 451.992 412.175C451.419 415.672 450.858 419.304 450.565 422.913C448.182 449.755 461.216 475.113 474.241 499.593C473.299 500.419 472.296 501.318 471.282 502.083C457.784 476.833 444.215 450.778 446.75 422.57C447.104 418.889 447.653 415.123 448.287 411.553C449.046 407.092 449.793 402.498 449.942 398.023C450.397 386.221 447.071 374.48 443.842 363.068L443.433 361.481C435.926 335.167 429.445 308.221 423.988 281.389C421.637 269.968 419.919 258.829 424.026 248.601C427.874 239.273 435.761 232.837 443.464 226.62C446.117 224.496 448.893 222.225 451.4 219.978C468.109 204.658 476.486 182.97 477.025 153.585C477.543 123.188 469.314 90.1765 451.98 52.7566L452.126 52.879L458.183 57.2162Z" fill="white"/>
<path d="M478.686 74.4177L485.177 80.6096C493.784 102.502 501.377 125.159 503.455 148.907C506.498 182.913 496.664 213.449 476.638 232.574C474.766 234.36 472.821 236.085 470.804 237.748C465.961 241.89 461.375 245.874 458.248 251.082C449.689 265.283 454.876 278.214 460.329 291.864C462.143 296.37 464.041 301.071 465.476 305.88C472.576 329.865 475.748 354.531 474.872 379.281C474.673 383.963 474.401 388.583 474.068 393.276C473.449 403.2 472.731 413.538 473.539 423.539C475.262 444.006 483.11 463.396 492.045 482.082C491.188 483.104 490.124 484.076 489.194 485.036C479.92 465.568 471.465 445.42 469.709 423.807C468.878 413.537 469.584 403.065 470.192 393.007C470.463 388.387 470.735 383.766 471.007 379.146C471.919 354.798 468.782 330.535 461.716 306.953C460.366 302.339 458.48 297.772 456.666 293.267C451.055 279.359 445.191 264.865 454.767 249.156C458.188 243.449 463.215 239.088 468.058 234.947C469.941 233.295 471.959 231.631 473.769 229.918C493.049 211.534 502.379 182.192 499.442 149.393C497.421 123.207 488.287 98.3863 478.686 74.4177Z" fill="white"/>
<path d="M509.642 107.604L515.906 115.844C518.94 127.34 521.437 138.884 522.799 150.595C526.901 185.116 518.914 217.451 500.733 239.118C498.847 241.514 496.743 243.726 494.711 245.999C485.776 255.907 476.596 266.106 478.335 278.257C479.122 283.393 481.91 288.219 484.687 292.911L485.948 294.963C502.677 323.919 509.227 359.376 503.798 392.365C503.176 396.07 502.431 399.921 501.602 403.576C499.754 412.593 497.869 421.951 498.265 431.11C498.75 442.83 502.906 454.025 507.943 464.468C507.086 465.489 506.168 466.584 505.25 467.678C499.667 456.404 494.953 444.243 494.424 431.243C493.981 421.548 495.977 411.91 497.874 402.685C498.63 398.969 499.387 395.253 500.009 391.548C505.312 359.448 499.04 324.846 482.65 296.671L481.462 294.68C478.528 289.732 475.509 284.588 474.651 278.647C472.625 264.764 482.49 253.896 491.976 243.332C494.008 241.059 495.979 238.858 497.876 236.597C515.384 215.732 523.062 184.506 519.043 150.923C517.299 136.407 514.007 121.958 509.642 107.604Z" fill="white"/>
<path d="M533.155 142.253L538.559 152.258C539.405 158.065 540.117 163.883 540.756 169.641C542.92 189.731 535.48 215.19 518.844 245.24C517.85 247.017 516.857 248.794 515.74 250.716C511.325 258.2 506.322 266.682 505.454 274.532C504.586 282.382 507.893 292.368 510.826 301.169C511.84 304.257 512.842 307.212 513.552 309.921L514.528 313.351C521.106 336.773 527.889 360.988 524.037 385.728C523.427 389.566 522.548 393.429 521.791 397.145C520.528 402.799 519.228 408.794 518.855 414.572C518.346 424.216 520.376 433.502 523.857 442.391C523.024 443.68 522.19 444.97 521.284 446.198C517.148 436.015 514.538 425.495 515.112 414.291C515.45 408.11 516.812 402.043 518.124 396.182C518.954 392.527 519.772 388.737 520.26 385.044C523.913 361.133 517.3 337.308 510.83 314.35L509.854 310.921C509.082 308.284 508.153 305.391 507.078 302.376C504.049 293.245 500.572 282.868 501.565 274.129C502.497 265.462 507.673 256.627 512.333 248.851C513.387 247.002 514.515 245.213 515.448 243.509C531.74 214.166 538.982 189.535 536.889 170.249C536.079 160.992 534.794 151.708 533.155 142.253Z" fill="white"/>
<path d="M543.584 407.474C542.638 398.972 542.799 390.778 543.072 382.305C543.203 376.074 543.383 369.637 543.076 363.039C541.9 339.55 537.977 317.113 531.353 296.264C530.968 294.945 530.436 293.505 529.977 292.125C526.79 282.738 523.29 272.093 527.03 262.302C529.293 256.493 533.056 250.824 536.696 245.3C539.197 241.431 541.587 237.842 543.501 234.227C550.448 220.911 554.288 206.853 555.911 192.177C556.828 194.936 557.745 197.695 558.602 200.527C556.56 212.738 552.801 224.626 546.898 235.958C544.934 239.78 542.36 243.588 539.921 247.384C536.403 252.762 532.762 258.285 530.671 263.741C527.423 272.205 530.73 282.19 533.725 290.919C534.256 292.359 534.715 293.739 535.174 295.118C541.955 316.224 545.914 339.064 547.113 362.821C547.432 369.553 547.263 376.125 547.071 382.428C546.929 388.524 546.762 394.352 547.083 400.341L543.584 407.474Z" fill="white"/>
<path d="M566.306 337.279C564.124 326.249 561.344 315.339 557.906 304.621L556.687 300.739C553.55 291.144 550.388 281.281 550.631 270.918C551.02 256.823 556.453 243.977 561.726 231.619C562.673 229.305 563.62 226.992 564.628 224.605C565.157 226.789 565.552 228.986 566.02 231.243C565.798 231.803 565.516 232.436 565.294 232.997C560.132 245.075 554.871 257.568 554.484 270.918C554.244 280.538 557.321 290.206 560.362 299.471L561.58 303.353C564.09 311.178 566.197 319.038 568.048 327.055L566.306 337.279Z" fill="white"/>
<path d="M129.202 165.562C126.048 164.283 122.816 164.43 120.373 165.861C115.62 168.71 115.075 174.842 115.06 179.305C115.095 197.485 117.228 215.685 121.473 233.295C124.671 246.67 132.032 255.084 139.668 254.281C142.278 253.985 144.465 252.712 146.241 250.596C149.424 246.803 151.299 240.42 151.51 232.019C151.967 212.511 147.424 193.035 138.398 175.64C136.86 172.733 134.944 169.385 131.831 167.022C131.04 166.482 130.115 165.955 129.202 165.562ZM135.039 177.421C143.81 194.23 148.16 213.047 147.718 231.945C147.438 242.65 144.096 250.041 139.278 250.597C134.594 251.142 128.249 245.073 125.256 232.491C121.035 215.15 118.864 197.291 118.851 179.378C118.862 176.403 119.131 172.527 121.029 170.265C121.396 169.827 121.836 169.451 122.349 169.135C123.828 168.263 125.791 168.294 127.885 169.057C128.519 169.339 129.09 169.695 129.735 170.112C132.058 171.936 133.731 174.832 135.039 177.421Z" fill="white"/>
<path d="M228.072 516.06L228.481 517.647C233.154 534.746 237.976 551.224 242.835 567.36C241.47 567.209 240.093 566.924 238.716 566.639C233.977 551.1 229.397 535.075 224.844 518.573L224.362 516.926C217.017 489.38 211.259 483.056 207.7 482.556C205.104 482.243 202.495 485.648 200.925 488.557C198.054 493.608 198.594 499.779 199.485 506.867L206.379 559.396C205.063 559.038 203.747 558.68 202.359 558.261L195.678 507.403C194.894 501.523 193.836 493.301 197.59 486.753C200.877 481.058 204.495 478.375 208.25 478.791C217.281 480.028 223.568 499.352 228.072 516.06Z" fill="white"/>
</g>
</g>
<defs>
<clipPath id="clip0">
<rect width="571" height="571" fill="white"/>
</clipPath>
</defs>
</svg>
