<svg width="310" height="310" viewBox="0 0 310 310" fill="none" xmlns="http://www.w3.org/2000/svg">
<g clip-path="url(#clip0)">
<g opacity="0.22">
<path d="M0.538504 145.988C0.470272 154.417 1.24739 162.881 4.92945 169.809C8.26357 176.108 13.0935 181.508 17.8317 186.696C22.4973 191.89 27.3209 197.218 30.7672 203.544C35.1388 211.657 36.9512 220.653 38.7381 229.358C40.1021 236.159 41.4916 243.252 44.1843 249.754C45.0165 251.732 45.8486 253.709 46.6871 255.76C48.8102 260.774 50.9065 265.9 52.7516 271.085C51.6783 270.117 50.6049 269.149 49.5315 268.181C48.0916 264.279 46.4336 260.396 44.8215 256.619C43.983 254.568 43.1113 252.557 42.2791 250.58C39.5342 243.899 38.1052 236.774 36.7285 229.827C35.0269 221.261 33.2273 212.41 28.9934 204.614C25.6783 198.533 20.9337 193.272 16.3141 188.184C11.53 182.89 6.58149 177.391 3.1161 170.846C2.0659 168.887 1.25417 166.725 0.587808 164.549C0.186322 158.286 0.160954 152.137 0.538504 145.988Z" fill="white"/>
<path d="M139.644 51.7205C149.927 60.0121 155.85 74.1411 155.514 89.5502C155.356 96.9608 153.726 104.28 152.183 111.336C151.734 113.316 151.324 115.33 150.915 117.343C146.576 138.485 145.717 160.055 148.286 181.471C149.441 191.33 151.863 195.989 155.21 202.434C156.575 205.061 158.123 208.111 159.808 211.882C161.585 215.864 163.513 219.906 165.356 223.81C168.399 230.135 171.574 236.705 174.101 243.404C180.877 261.011 184.076 279.992 187.112 298.365C187.519 300.929 187.966 303.527 188.413 306.124C187.732 306.293 187.051 306.463 186.364 306.56C185.91 303.89 185.464 301.292 185.017 298.695C181.994 280.467 178.841 261.592 172.156 244.197C169.602 237.609 166.467 231.073 163.424 224.748C161.581 220.844 159.58 216.808 157.837 212.786C156.191 209.049 154.649 206.071 153.284 203.444C149.846 196.788 147.411 191.984 146.151 181.768C143.563 160.133 144.476 138.339 148.795 116.979C149.205 114.966 149.654 112.986 150.097 110.933C151.647 103.95 153.211 96.709 153.387 89.5165C153.741 74.7284 148.093 61.2345 138.284 53.3409C136.749 52.1203 135.082 51.0578 133.448 49.9558L132.09 49.0858C122.066 42.4927 112.971 34.3902 104.266 26.5466C99.7349 22.4755 95.0462 18.2719 90.2375 14.3717C90.9057 14.0569 91.6071 13.7026 92.3543 13.4541C96.9322 17.2281 101.344 21.1996 105.671 25.0321C114.37 32.803 123.386 40.8393 133.298 47.4056L134.655 48.2755C136.323 49.338 138.03 50.4336 139.644 51.7205Z" fill="white"/>
<path d="M18.7973 81.3712C19.8583 91.8244 19.8178 101.825 18.5903 111.233C17.9784 116.377 16.6537 121.326 15.3559 126.163C12.325 137.56 9.42176 148.324 15.8606 160.394C19.1488 166.587 24.2836 171.704 29.254 176.615C33.5856 180.924 38.0358 185.331 41.3868 190.567C45.2896 196.671 47.6176 203.608 49.8538 210.333C51.8874 216.417 54.2971 222.614 56.8508 229.201C64.0277 247.615 71.4009 266.597 71.1531 285.111C70.4545 284.659 69.7558 284.208 69.0904 283.717C69.0052 266.001 61.8741 247.694 54.9393 229.955C52.3856 223.367 49.9364 217.137 47.8964 210.98C45.6729 204.4 43.4304 197.602 39.6525 191.671C36.3933 186.647 32.0221 182.305 27.809 178.097C22.7201 173.086 17.4668 167.87 14.0077 161.398C7.24775 148.587 10.2314 137.487 13.3363 125.681C14.6073 120.956 15.8988 116.046 16.5235 111.048C17.5556 102.755 17.7106 94.0629 16.9821 84.8989C17.6403 83.6329 18.199 82.4855 18.7973 81.3712Z" fill="white"/>
<path d="M129.976 64.687C136.972 78.0997 139.915 92.4894 138.909 108.616C138.323 117.822 137.13 126.788 135.912 135.463C133.738 151.216 131.673 166.117 133.295 182.563C134.629 196.142 141.34 205.881 148.426 216.136C150.562 219.209 152.745 222.387 154.834 225.756C165.128 242.139 169.806 261.284 172.715 276.116C173.429 279.678 174.111 283.281 174.832 286.916C176.169 293.83 177.519 300.889 179.008 307.862C178.32 307.959 177.633 308.056 176.946 308.153C175.457 301.179 174.113 294.193 172.776 287.279C172.095 283.677 171.413 280.075 170.699 276.512C167.803 261.825 163.223 242.965 153.099 226.86C151.017 223.563 148.834 220.385 146.738 217.346C139.481 206.812 132.645 196.901 131.266 182.814C129.658 166.11 131.678 151.103 133.911 135.199C135.097 126.563 136.335 117.703 136.888 108.537C137.853 92.7796 135.015 78.7469 128.196 65.6849C120.846 51.5709 110.452 44.9369 97.3092 36.6027L94.4025 34.7697C88.1212 30.7786 82.0656 26.4382 76.2358 21.7485C76.8582 21.3279 77.4868 20.9799 78.1155 20.632C83.7018 25.0501 89.4807 29.1584 95.4586 33.0295L98.3653 34.8625C111.778 43.3562 122.364 50.0832 129.976 64.687Z" fill="white"/>
<path d="M16.1602 210.278C18.9897 215.413 19.145 222.211 19.0695 228.882C18.3341 227.591 17.6318 226.261 17.0022 224.925C16.9269 219.878 16.4282 215.015 14.38 211.276C13.0736 208.9 10.9791 207.143 8.73921 205.398C8.34676 204.26 7.94795 203.05 7.58866 201.873C8.02337 202.238 8.53075 202.596 8.96547 202.961C11.6732 205.031 14.46 207.168 16.1602 210.278Z" fill="white"/>
<path d="M164.219 44.6637C175.702 55.3768 181.022 72.2318 177.753 87.6044C176.772 92.3041 175.079 96.8098 173.374 101.17C172.894 102.384 172.454 103.631 171.974 104.844C161.747 132.763 159.628 163.378 165.808 193.414C168.537 206.614 174.274 219.441 179.787 231.812C183.202 239.459 186.709 247.318 189.49 255.241C193.873 267.673 194.997 280.941 196.044 293.739C196.336 297.082 196.602 300.537 196.934 303.914C196.253 304.083 195.611 304.286 194.931 304.455C194.546 300.9 194.241 297.412 193.936 293.923C192.863 281.237 191.791 268.149 187.499 255.927C184.765 248.111 181.257 240.252 177.882 232.637C172.323 220.161 166.541 207.228 163.759 193.849C157.475 163.457 159.634 132.472 170.048 104.171C170.488 102.924 170.968 101.71 171.447 100.496C173.087 96.2151 174.747 91.7489 175.706 87.2342C178.781 72.5742 173.71 56.4665 162.741 46.1845C156.762 40.6289 149.397 36.8059 142.229 33.1486C139.697 31.8322 137.053 30.489 134.515 29.0999C129.28 26.189 124.576 22.6458 119.918 19.2084C117.019 17.0453 114.041 14.8158 111.009 12.8107C108.834 11.3898 106.805 9.95615 104.775 8.52252C105.595 8.26769 106.415 8.01288 107.195 7.7249C108.796 8.86644 110.431 9.96849 112.138 11.0642C115.248 13.1356 118.227 15.365 121.126 17.5282C125.705 20.8992 130.409 24.4424 135.452 27.2602C137.958 28.6888 140.562 29.9989 143.127 31.2758C150.486 35.0262 158.003 38.9092 164.219 44.6637Z" fill="white"/>
<path d="M200.295 70.2891C200.858 81.3351 197.654 93.26 191.07 104.638C189.927 106.643 188.837 108.422 187.781 110.163C182.819 118.323 179.239 124.275 178.554 135.284C177.815 146.92 177.867 158.817 178.745 170.531C180.582 195.71 186.84 224.127 196.427 250.422C197.834 254.364 199.465 258.359 201.011 262.215C204.332 270.457 207.79 279.016 209.775 287.887C210.608 291.549 211.229 295.303 211.666 299.036C211.031 299.311 210.356 299.554 209.682 299.796C209.232 295.917 208.638 292.051 207.798 288.316C205.793 279.63 202.414 271.137 199.139 263.001C197.593 259.145 195.962 255.15 194.516 251.175C184.909 224.662 178.566 196.106 176.71 170.709C175.858 158.882 175.8 146.913 176.533 135.205C177.246 123.681 180.926 117.61 186.047 109.179C187.07 107.478 188.193 105.659 189.303 103.694C195.694 92.6259 198.792 81.1498 198.227 70.5067C197.594 58.2584 191.971 47.1424 183.129 40.6656C177.963 36.8698 171.729 34.6689 165.679 32.4884C164.544 32.075 163.41 31.6617 162.275 31.2483C145.479 25.1013 129.55 16.315 115.161 5.45326C116.021 5.23159 116.84 4.97679 117.739 4.78828C131.642 15.1067 146.944 23.4351 163.021 29.3155C164.156 29.7289 165.291 30.1422 166.426 30.5556C172.587 32.7628 179.013 35.0569 184.41 38.979C193.68 45.7478 199.684 57.453 200.295 70.2891Z" fill="white"/>
<path d="M209.381 41.8841C214.282 49.7676 214.791 59.3537 215.245 67.8827C215.948 80.5276 215.98 92.6088 209.171 101.846C207.373 104.311 205.173 106.371 203.006 108.391C201.045 110.247 199.017 112.182 197.338 114.343C188.766 125.602 190.838 137.981 193.085 151.113C193.436 153.024 193.746 154.901 194.024 156.817C194.566 160.505 195.254 164.18 195.869 167.861C197.715 178.502 199.633 189.539 199.55 200.312L199.568 200.933C199.465 211.891 199.36 223.251 201.304 234.177C202.873 242.901 206.633 250.298 210.576 258.119C211.548 260.012 212.479 261.871 213.417 263.803C218.101 273.39 221.296 283.546 223.752 293.621C223.124 293.969 222.489 294.244 221.82 294.559C219.398 284.445 216.202 274.288 211.558 264.735C210.659 262.836 209.688 260.943 208.757 259.084C204.728 251.124 200.883 243.588 199.289 234.573C197.292 223.469 197.39 212.036 197.52 200.966L197.502 200.345C197.604 189.79 195.693 178.825 193.853 168.257C193.198 164.542 192.544 160.828 192.001 157.14C191.691 155.263 191.413 153.347 191.063 151.437C188.868 138.483 186.595 125.06 195.764 113.089C197.503 110.777 199.636 108.796 201.664 106.861C203.725 104.886 205.892 102.866 207.557 100.559C213.974 91.8688 213.902 80.1574 213.269 67.909C212.842 59.6707 212.318 50.3423 207.713 42.9089C201.571 32.9735 189.763 28.5871 178.33 24.3143L175.982 23.4212C160.532 17.5958 145.694 10.3985 131.654 1.84988C132.738 1.68182 133.822 1.51368 134.872 1.38514C148.162 9.30375 162.188 16.0228 176.728 21.4885L179.037 22.3484C190.673 26.8596 202.819 31.3264 209.381 41.8841Z" fill="white"/>
<path d="M74.4493 67.4578C82.9209 78.0682 90.1329 88.0931 91.9897 103.457C93.3832 115.199 93.5666 127.34 93.7182 139.118C93.9238 154.443 94.1344 170.244 97.1681 185.248C100.644 202.374 108.919 218.275 116.971 233.719C119.649 238.794 122.419 244.081 124.931 249.354C133.91 267.866 139.584 287.51 145.127 306.506C145.395 307.471 145.702 308.469 145.976 309.507C145.276 309.459 144.503 309.416 143.803 309.368C143.555 308.621 143.379 307.867 143.13 307.12C137.633 288.23 132.005 268.692 123.071 250.286C120.526 245.052 117.796 239.798 115.119 234.723C107.02 219.173 98.6597 203.133 95.0859 185.723C92.0394 170.573 91.816 154.627 91.6041 139.23C91.4589 127.525 91.2755 115.383 89.822 103.793C88.0097 88.9379 81.0017 79.1515 72.7404 68.8523C67.9322 62.8648 58.3127 53.7828 52.8858 54.9534C51.9868 55.1419 51.2587 55.6084 50.5954 56.3988C49.8991 57.2287 49.3467 58.4488 48.8988 60.0259C48.216 62.6856 48.7011 65.719 49.0754 68.3228L55.1537 106.826C56.0717 112.714 56.0117 118.725 56.0052 124.511C55.9325 130.376 55.912 136.42 56.8631 142.269C58.9398 155.124 62.9625 166.782 68.9721 176.876C79.1189 194.077 93.1322 220.315 97.7234 249.354C99.5403 260.913 99.8499 272.823 100.194 284.291C100.318 288.638 100.403 292.952 100.52 297.226C100.563 298.137 100.567 299.016 100.571 299.894C99.8514 299.628 99.1719 299.394 98.486 299.088C98.4682 298.467 98.4506 297.846 98.4329 297.225C98.3153 292.951 98.2308 288.638 98.1463 284.324C97.8417 272.889 97.4657 261.058 95.6947 249.605C91.1684 220.89 77.2864 194.897 67.1523 177.841C61.0842 167.496 56.897 155.632 54.7949 142.487C53.8247 136.42 53.9115 130.297 53.9448 124.399C53.9907 118.645 54.0239 112.747 53.1582 107.037L47.0799 68.534C46.6138 65.7186 46.1097 62.467 46.8996 59.3586C47.89 55.6102 49.7469 53.3971 52.4438 52.8316C61.1427 50.972 74.3243 67.2856 74.4493 67.4578Z" fill="white"/>
<path d="M36.4487 55.4392C41.4475 75.3249 44.225 95.7711 44.6309 116.315C44.6862 119.459 44.6753 122.683 44.6044 126.058C44.473 137.531 44.3007 149.373 48.223 159.466C50.6328 165.664 54.9194 171.55 59.1539 177.259C62.1519 181.39 65.3079 185.655 67.7436 190.056C73.6319 200.856 78.6339 211.989 82.5394 223.146C88.2964 239.56 90.9863 258.585 90.4641 278.148C90.2996 283.802 90.0688 289.535 89.8316 295.195C89.1457 294.888 88.4929 294.543 87.807 294.237C88.0365 288.907 88.2201 283.471 88.41 278.108C88.9908 258.797 86.2868 240.028 80.6216 223.826C76.762 212.776 71.8453 201.781 65.9633 191.054C63.6131 186.792 60.5361 182.594 57.5381 178.462C53.2578 172.648 48.8525 166.662 46.3842 160.213C42.3179 149.73 42.4711 137.669 42.623 126.011C42.6607 122.676 42.7112 119.486 42.6558 116.341C42.2345 96.4579 39.6264 76.6926 34.8634 57.4088C35.3213 56.7829 35.885 56.1111 36.4487 55.4392Z" fill="white"/>
<path d="M158.366 309.668C156.224 296.49 152.872 279.939 146.043 264.241C141.009 252.744 134.77 242.122 128.708 231.85C115.901 210.194 103.857 189.716 103.763 162.7C103.734 155.672 104.162 148.421 104.618 140.654C106.188 113.822 107.861 86.0659 90.3809 65.4047C84.8282 58.8598 78.2617 53.2824 71.9322 47.9041C67.6578 44.25 63.1921 40.5029 59.1434 36.4995C58.6233 35.9958 58.0968 35.4193 57.5245 34.7371C57.0144 35.1845 56.4647 35.5987 55.9546 36.0461C56.5665 36.7616 57.1388 37.4439 57.6984 37.9808C61.8262 42.0505 66.2587 45.8372 70.6058 49.4848C76.8957 54.83 83.4227 60.3742 88.8173 66.7865C105.804 86.8317 104.166 114.146 102.597 140.575C102.141 148.341 101.68 155.632 101.749 162.693C101.853 190.257 114.062 210.94 126.967 232.881C133.023 243.08 139.222 253.67 144.21 265.061C150.896 280.368 154.223 296.628 156.318 309.701L158.366 309.668Z" fill="white"/>
<path d="M28.2684 66.1517C30.793 77.4289 32.5499 89.1394 33.4269 101.257C34.0028 108.676 33.6021 115.815 33.2486 122.657C32.4176 137.853 31.6225 152.204 41.3273 167.284C44.1659 171.686 47.4278 175.904 50.5712 180.023C54.0371 184.481 57.5883 189.077 60.6167 193.975C78.6701 222.862 82.0298 256.659 80.3033 290.499C79.6505 290.153 78.9582 289.774 78.2991 289.356C79.8648 256.19 76.4629 223.165 58.876 195.006C55.8935 190.214 52.3818 185.651 48.9222 181.266C45.7394 177.114 42.4379 172.862 39.5204 168.394C29.4739 152.758 30.2436 138.117 31.1154 122.551C31.5084 115.742 31.8824 108.715 31.3192 101.441C30.4726 90.0902 28.9246 79.0937 26.6026 68.4579C27.1932 67.6739 27.711 66.8962 28.2684 66.1517Z" fill="white"/>
<path d="M165.401 309.309C164.935 306.494 164.548 303.744 164.122 300.962C161.822 285.564 159.406 269.663 153.789 254.849C151.923 249.849 149.506 243.981 145.964 238.652C143.677 235.117 140.861 231.812 138.131 228.645C117.485 204.452 109.364 174.404 113.915 139.365C114.444 135.364 115.105 131.205 115.786 127.264C117.828 115.038 119.873 102.409 117.781 90.2147C113.582 66.0845 95.2666 52.1975 75.884 37.4151C72.2737 34.655 68.6238 31.8618 65.0403 28.9896C65.6626 28.5689 66.2122 28.1547 66.8014 27.7736C70.1873 30.48 73.6791 33.1406 77.1314 35.768C96.0003 50.1193 115.501 65.0012 119.836 89.8518C122.033 102.403 119.895 115.223 117.865 127.594C117.185 131.535 116.517 135.622 115.988 139.623C111.492 174.034 119.496 203.581 139.734 227.296C142.471 230.536 145.286 233.841 147.692 237.476C151.359 242.977 153.822 248.95 155.733 254.056C161.442 269.082 163.871 285.128 166.144 300.639C166.577 303.494 166.97 306.316 167.476 309.164L165.401 309.309Z" fill="white"/>
<path d="M216.226 26.3453C220.123 30.2887 222.043 36.7486 223.748 42.4217C224.212 43.9557 224.636 45.4565 225.12 46.8056C227.436 53.5971 229.932 61.6179 230.854 70.0692C232.232 82.472 229.829 93.924 224.034 102.194C221.432 105.937 218.283 109.288 215.234 112.521C206.861 121.456 199.628 129.193 204.663 142.374C215.269 170.265 219.882 200.804 217.984 230.594L217.892 232.469C217.545 237.297 217.244 242.23 218.166 246.909C219.076 251.444 221.214 255.797 223.261 259.939L224.153 261.765C228.18 270.128 231.652 278.832 234.409 287.746C233.78 288.094 233.191 288.475 232.562 288.823C229.799 279.837 226.354 271.02 222.288 262.624L221.395 260.798C219.263 256.517 217.079 252.058 216.144 247.233C215.124 242.269 215.485 237.184 215.785 232.251L215.911 230.336C217.761 200.843 213.18 170.667 202.706 143.022C197.233 128.597 205.274 120.057 213.713 111.043C216.696 107.889 219.812 104.577 222.314 100.953C227.81 93.0387 230.08 82.1477 228.78 70.2141C227.876 61.9808 225.426 54.0659 223.123 47.4198C222.639 46.0707 222.176 44.5366 221.745 42.9631C220.099 37.5412 218.237 31.3325 214.702 27.7603C205.184 18.1569 189.728 12.2587 177.266 7.52666L176.052 7.04698C172.53 5.70736 168.822 4.34731 164.93 2.96681C162.396 2.05329 159.824 1.10656 157.211 0.126719C159.411 0.153999 161.61 0.181319 163.822 0.353959C164.429 0.593809 165.036 0.833637 165.676 1.03397C169.608 2.44763 173.316 3.80768 176.878 5.18046L178.092 5.66014C190.671 10.4917 206.392 16.4766 216.226 26.3453Z" fill="white"/>
<path d="M231.287 20.1939C232.786 22.2599 234.152 24.4839 235.393 26.9387C240.642 37.1353 243.265 48.6968 245.312 58.6975C247.404 68.8041 249.336 79.5839 247.92 90.1806C246.395 101.629 240.94 110.858 232.168 116.898L231.923 117.03C223.495 122.82 217.45 126.975 216.535 137.857C215.845 146.303 218.506 154.529 221.476 162.947L223.125 167.563C229.355 184.778 235.748 202.601 233.948 220.958C233.58 224.286 233.027 227.593 232.395 230.834C231.527 235.561 230.639 240.472 230.662 245.34C230.738 257.93 236.709 269.675 242.503 281.069C242.68 281.419 242.897 281.803 243.041 282.193C242.491 282.608 241.902 282.989 241.313 283.37C241.09 282.913 240.867 282.457 240.644 282C234.725 270.434 228.623 258.445 228.575 245.34C228.539 240.326 229.454 235.302 230.316 230.503C230.881 227.341 231.507 224.028 231.809 220.779C233.58 202.937 227.206 185.332 221.101 168.29L219.452 163.674C216.351 155.01 213.632 146.533 214.435 137.711C215.413 125.871 222.152 121.29 230.68 115.381L230.885 115.216C239.175 109.511 244.343 100.783 245.774 89.929C247.143 79.6294 245.23 69.0676 243.19 59.1395C241.116 49.251 238.513 37.9074 233.427 27.9162C231.439 24.0255 229.132 20.6754 226.606 17.7473C226.685 17.8136 226.797 17.8404 226.876 17.9068L231.287 20.1939Z" fill="white"/>
<path d="M248.58 31.6072C257.068 50.7848 261.092 67.8996 260.834 83.7778C260.52 100.283 255.769 112.527 246.28 121.266C244.889 122.523 243.386 123.753 241.915 124.944C237.776 128.272 233.914 131.43 232.009 136.027C229.958 141.04 230.896 146.744 232.072 152.646C235.021 167.109 238.565 181.665 242.52 195.893L242.775 196.713C244.576 203.074 246.39 209.58 246.136 216.303C246.035 218.912 245.63 221.4 245.225 223.889C244.915 225.784 244.611 227.751 244.453 229.706C243.162 244.246 250.222 257.983 257.278 271.244C256.768 271.691 256.225 272.178 255.675 272.593C248.363 258.915 241.013 244.801 242.386 229.521C242.578 227.526 242.875 225.486 243.219 223.552C243.63 221.136 244.034 218.647 244.115 216.223C244.362 209.83 242.56 203.47 240.811 197.288L240.589 196.429C236.523 182.174 233.012 167.577 230.056 153.042C228.782 146.855 227.851 140.822 230.076 135.281C232.161 130.228 236.433 126.742 240.606 123.374C242.043 122.223 243.547 120.993 244.905 119.776C253.956 111.477 258.494 99.7282 258.786 83.8104C259.066 67.3444 254.609 49.4619 245.219 29.1914L245.298 29.2578L248.58 31.6072Z" fill="white"/>
<path d="M259.685 40.9253L263.201 44.2795C267.863 56.1386 271.977 68.4121 273.102 81.2764C274.75 99.6976 269.423 116.239 258.575 126.599C257.561 127.566 256.508 128.501 255.415 129.402C252.791 131.646 250.307 133.804 248.613 136.625C243.977 144.318 246.787 151.322 249.741 158.717C250.723 161.158 251.751 163.704 252.529 166.309C256.375 179.302 258.093 192.663 257.618 206.071C257.511 208.607 257.364 211.11 257.183 213.652C256.848 219.028 256.459 224.628 256.896 230.045C257.83 241.132 262.081 251.636 266.921 261.758C266.457 262.312 265.881 262.838 265.377 263.358C260.353 252.812 255.773 241.898 254.822 230.19C254.372 224.627 254.754 218.954 255.083 213.506C255.23 211.003 255.378 208.5 255.525 205.997C256.019 192.808 254.319 179.665 250.492 166.89C249.761 164.391 248.739 161.917 247.756 159.476C244.717 151.943 241.54 144.091 246.728 135.582C248.581 132.49 251.304 130.128 253.927 127.884C254.947 126.989 256.04 126.088 257.021 125.16C267.465 115.202 272.519 99.3068 270.928 81.5398C269.833 67.3545 264.885 53.9092 259.685 40.9253Z" fill="white"/>
<path d="M276.454 58.9023L279.847 63.3659C281.49 69.5937 282.843 75.8469 283.581 82.1905C285.803 100.891 281.477 118.407 271.628 130.144C270.606 131.442 269.466 132.64 268.365 133.872C263.525 139.238 258.553 144.763 259.495 151.345C259.921 154.128 261.431 156.742 262.935 159.284L263.619 160.396C272.681 176.081 276.229 195.288 273.288 213.158C272.951 215.165 272.548 217.251 272.098 219.231C271.098 224.116 270.076 229.185 270.291 234.147C270.553 240.495 272.805 246.56 275.534 252.217C275.069 252.77 274.572 253.363 274.074 253.955C271.05 247.848 268.496 241.261 268.21 234.219C267.97 228.967 269.051 223.746 270.079 218.749C270.489 216.736 270.898 214.722 271.235 212.716C274.108 195.327 270.711 176.583 261.832 161.321L261.188 160.242C259.599 157.561 257.964 154.775 257.499 151.557C256.402 144.036 261.746 138.149 266.884 132.427C267.985 131.195 269.052 130.003 270.08 128.778C279.564 117.476 283.724 100.56 281.546 82.3684C280.602 74.5049 278.818 66.6782 276.454 58.9023Z" fill="white"/>
<path d="M289.192 77.6716L292.119 83.0913C292.577 86.237 292.963 89.389 293.309 92.5079C294.481 103.391 290.451 117.182 281.439 133.46C280.901 134.423 280.363 135.385 279.758 136.427C277.366 140.481 274.656 145.076 274.185 149.328C273.715 153.58 275.507 158.989 277.096 163.757C277.645 165.43 278.188 167.03 278.572 168.498L279.101 170.356C282.665 183.044 286.339 196.161 284.252 209.563C283.922 211.642 283.445 213.735 283.036 215.748C282.352 218.81 281.647 222.058 281.445 225.188C281.17 230.412 282.269 235.442 284.155 240.257C283.703 240.956 283.252 241.654 282.761 242.32C280.52 236.803 279.106 231.105 279.418 225.036C279.601 221.687 280.338 218.401 281.049 215.226C281.499 213.246 281.942 211.193 282.206 209.192C284.185 196.24 280.603 183.334 277.098 170.897L276.569 169.04C276.151 167.611 275.648 166.044 275.066 164.411C273.424 159.464 271.541 153.843 272.079 149.109C272.584 144.415 275.388 139.629 277.912 135.416C278.483 134.414 279.094 133.446 279.599 132.523C288.425 116.627 292.348 103.284 291.214 92.8376C290.775 87.8227 290.079 82.7937 289.192 77.6716Z" fill="white"/>
<path d="M294.841 221.343C294.328 216.737 294.416 212.299 294.564 207.709C294.635 204.334 294.732 200.846 294.566 197.272C293.929 184.548 291.804 172.394 288.216 161.1C288.007 160.386 287.719 159.605 287.47 158.858C285.744 153.773 283.848 148.007 285.874 142.703C287.1 139.556 289.138 136.485 291.11 133.493C292.465 131.397 293.759 129.453 294.796 127.495C298.559 120.281 300.639 112.666 301.519 104.716C302.015 106.21 302.512 107.705 302.976 109.239C301.87 115.854 299.834 122.294 296.636 128.432C295.572 130.503 294.178 132.565 292.857 134.622C290.951 137.535 288.979 140.527 287.846 143.482C286.087 148.067 287.878 153.476 289.5 158.205C289.788 158.985 290.037 159.732 290.285 160.479C293.959 171.912 296.103 184.285 296.753 197.154C296.925 200.801 296.834 204.361 296.73 207.775C296.653 211.078 296.563 214.235 296.737 217.479L294.841 221.343Z" fill="white"/>
<path d="M307.148 183.318C305.967 177.343 304.461 171.433 302.598 165.627L301.938 163.524C300.238 158.327 298.526 152.984 298.657 147.37C298.868 139.735 301.811 132.776 304.668 126.082C305.18 124.828 305.693 123.575 306.239 122.282C306.526 123.466 306.74 124.655 306.993 125.878C306.873 126.182 306.72 126.524 306.6 126.828C303.804 133.371 300.954 140.138 300.744 147.37C300.614 152.582 302.281 157.819 303.928 162.838L304.588 164.94C305.948 169.179 307.09 173.437 308.092 177.78L307.148 183.318Z" fill="white"/>
<path d="M70.3686 90.2982C68.6601 89.6055 66.9095 89.6854 65.5858 90.4603C63.0111 92.0038 62.7158 95.3253 62.7076 97.7428C62.727 107.591 63.8825 117.45 66.1818 126.99C67.9142 134.235 71.9016 138.793 76.038 138.358C77.4521 138.197 78.6368 137.508 79.5984 136.362C81.3228 134.307 82.3385 130.849 82.453 126.298C82.7003 115.731 80.2393 105.18 75.3503 95.7579C74.5168 94.183 73.4793 92.3696 71.7927 91.0891C71.3643 90.797 70.8632 90.5113 70.3686 90.2982ZM73.5305 96.7227C78.2819 105.828 80.6384 116.021 80.3989 126.258C80.2471 132.057 78.4369 136.061 75.8268 136.362C73.2893 136.658 69.8525 133.37 68.2309 126.554C65.9443 117.16 64.7684 107.486 64.7617 97.7828C64.7672 96.1712 64.913 94.0711 65.941 92.846C66.14 92.6089 66.3784 92.405 66.6564 92.2342C67.4573 91.7613 68.5207 91.7781 69.6554 92.1915C69.9983 92.3446 70.3081 92.5372 70.6575 92.763C71.9157 93.7514 72.8219 95.32 73.5305 96.7227Z" fill="white"/>
<path d="M123.927 280.164L124.149 281.024C126.68 290.286 129.292 299.212 131.925 307.954C131.185 307.872 130.439 307.717 129.693 307.563C127.126 299.146 124.645 290.464 122.179 281.526L121.918 280.633C117.939 265.711 114.82 262.286 112.892 262.015C111.486 261.845 110.073 263.69 109.222 265.266C107.667 268.002 107.959 271.345 108.442 275.184L112.176 303.639C111.463 303.445 110.751 303.251 109.998 303.024L106.38 275.475C105.955 272.289 105.382 267.835 107.415 264.289C109.196 261.203 111.156 259.75 113.19 259.975C118.082 260.646 121.488 271.113 123.927 280.164Z" fill="white"/>
</g>
</g>
<defs>
<clipPath id="clip0">
<rect width="310" height="310" fill="white"/>
</clipPath>
</defs>
</svg>
