<svg width="400" height="400" viewBox="0 0 400 400" fill="none" xmlns="http://www.w3.org/2000/svg">
<g clip-path="url(#clip0)">
<g opacity="0.2">
<path d="M20.7904 189.52C20.7112 199.308 21.6137 209.137 25.8898 217.183C29.7618 224.499 35.3709 230.77 40.8735 236.795C46.2917 242.827 51.8935 249.014 55.8958 256.36C60.9726 265.782 63.0774 276.229 65.1526 286.339C66.7367 294.238 68.3503 302.474 71.4774 310.025C72.4438 312.322 73.4102 314.619 74.384 317C76.8496 322.823 79.2841 328.776 81.4269 334.798C80.1803 333.673 78.9338 332.549 77.6872 331.425C76.015 326.894 74.0896 322.384 72.2174 317.998C71.2436 315.617 70.2313 313.281 69.2649 310.984C66.0771 303.226 64.4176 294.951 62.8187 286.883C60.8427 276.935 58.7528 266.657 53.8358 257.604C49.9859 250.541 44.4759 244.432 39.111 238.522C33.5551 232.374 27.8083 225.988 23.7839 218.388C22.5642 216.113 21.6216 213.602 20.8477 211.075C20.3814 203.802 20.352 196.66 20.7904 189.52Z" fill="white"/>
<path d="M182.332 80.0442C194.273 89.6733 201.152 106.082 200.762 123.977C200.579 132.583 198.686 141.083 196.894 149.277C196.372 151.577 195.896 153.915 195.421 156.253C190.382 180.806 189.384 205.856 192.368 230.727C193.71 242.177 196.522 247.586 200.409 255.071C201.994 258.122 203.792 261.664 205.749 266.043C207.812 270.668 210.051 275.363 212.191 279.896C215.726 287.241 219.413 294.871 222.347 302.651C230.217 323.098 233.932 345.142 237.457 366.479C237.93 369.457 238.449 372.473 238.968 375.489C238.178 375.686 237.387 375.883 236.589 375.995C236.062 372.894 235.543 369.878 235.024 366.862C231.514 345.693 227.852 323.773 220.089 303.572C217.123 295.922 213.482 288.33 209.948 280.985C207.808 276.452 205.484 271.765 203.459 267.094C201.549 262.754 199.758 259.296 198.173 256.245C194.179 248.514 191.352 242.936 189.889 231.071C186.883 205.947 187.943 180.636 192.96 155.83C193.435 153.492 193.957 151.193 194.472 148.809C196.271 140.699 198.087 132.29 198.292 123.938C198.703 106.764 192.144 91.0929 180.753 81.9259C178.97 80.5084 177.034 79.2745 175.136 77.9947L173.559 76.9844C161.917 69.3277 151.356 59.918 141.246 50.809C135.984 46.0812 130.539 41.1994 124.955 36.67C125.731 36.3044 126.545 35.893 127.413 35.6044C132.73 39.9872 137.853 44.5994 142.878 49.0502C152.981 58.0748 163.451 67.4075 174.962 75.0331L176.538 76.0433C178.475 77.2773 180.457 78.5496 182.332 80.0442Z" fill="white"/>
<path d="M41.9914 114.479C43.2236 126.618 43.1765 138.232 41.751 149.158C41.0403 155.131 39.502 160.879 37.9948 166.497C34.475 179.733 31.1034 192.232 38.5809 206.25C42.3997 213.442 48.3628 219.385 54.135 225.088C59.1655 230.091 64.3336 235.21 68.2251 241.291C72.7576 248.379 75.4611 256.435 78.0581 264.245C80.4197 271.31 83.2182 278.507 86.1839 286.158C94.5186 307.542 103.081 329.586 102.794 351.087C101.982 350.563 101.171 350.038 100.398 349.468C100.299 328.894 92.0176 307.633 83.964 287.032C80.9983 279.382 78.154 272.146 75.7849 264.997C73.2027 257.355 70.5984 249.461 66.211 242.573C62.4261 236.738 57.3497 231.696 52.4569 226.809C46.5471 220.989 40.4462 214.932 36.4292 207.416C28.5786 192.538 32.0436 179.648 35.6494 165.937C37.1255 160.449 38.6253 154.747 39.3508 148.943C40.5494 139.312 40.7294 129.218 39.8833 118.576C40.6478 117.105 41.2966 115.773 41.9914 114.479Z" fill="white"/>
<path d="M171.106 95.1028C179.23 110.679 182.648 127.39 181.48 146.119C180.8 156.81 179.414 167.222 177.999 177.297C175.475 195.591 173.076 212.896 174.96 231.995C176.51 247.764 184.303 259.075 192.532 270.985C195.013 274.553 197.547 278.243 199.973 282.156C211.929 301.182 217.361 323.415 220.74 340.64C221.569 344.778 222.361 348.961 223.198 353.183C224.751 361.212 226.318 369.41 228.048 377.509C227.249 377.621 226.451 377.733 225.653 377.846C223.924 369.747 222.364 361.633 220.811 353.604C220.019 349.421 219.228 345.238 218.398 341.1C215.035 324.044 209.717 302.141 197.959 283.438C195.541 279.61 193.006 275.919 190.571 272.39C182.144 260.157 174.206 248.646 172.604 232.287C170.737 212.888 173.082 195.46 175.676 176.99C177.052 166.961 178.491 156.672 179.133 146.027C180.254 127.728 176.957 111.431 169.039 96.2618C160.503 79.8708 148.432 72.1666 133.169 62.4878L129.793 60.3592C122.499 55.7242 115.466 50.6836 108.696 45.2373C109.419 44.7488 110.149 44.3447 110.879 43.9406C117.366 49.0715 124.078 53.8426 131.02 58.3383L134.395 60.4669C149.972 70.3309 162.265 78.1432 171.106 95.1028Z" fill="white"/>
<path d="M38.9271 264.181C42.2131 270.145 42.3934 278.039 42.3057 285.786C41.4517 284.288 40.6362 282.743 39.905 281.191C39.8175 275.33 39.2383 269.682 36.8598 265.34C35.3426 262.581 32.9102 260.54 30.3089 258.514C29.8532 257.193 29.39 255.788 28.9728 254.421C29.4776 254.844 30.0669 255.261 30.5717 255.684C33.7163 258.088 36.9526 260.569 38.9271 264.181Z" fill="white"/>
<path d="M210.872 71.8489C224.208 84.2903 230.385 103.864 226.589 121.717C225.451 127.175 223.484 132.407 221.503 137.471C220.946 138.881 220.435 140.329 219.878 141.738C208.001 174.161 205.541 209.715 212.717 244.596C215.887 259.926 222.549 274.822 228.951 289.188C232.917 298.069 236.99 307.196 240.219 316.397C245.31 330.836 246.615 346.243 247.831 361.106C248.17 364.989 248.479 369.001 248.864 372.923C248.074 373.119 247.329 373.355 246.538 373.551C246.092 369.423 245.737 365.371 245.383 361.32C244.136 346.588 242.892 331.387 237.908 317.195C234.732 308.117 230.659 298.99 226.739 290.147C220.283 275.658 213.568 260.639 210.338 245.102C203.04 209.806 205.547 173.823 217.641 140.956C218.152 139.508 218.709 138.098 219.266 136.689C221.17 131.717 223.098 126.53 224.213 121.287C227.784 104.262 221.894 85.5558 209.155 73.615C202.212 67.1632 193.659 62.7234 185.335 58.4761C182.394 56.9473 179.324 55.3874 176.376 53.7742C170.297 50.3937 164.833 46.2789 159.424 42.287C156.057 39.7749 152.599 37.1858 149.078 34.8572C146.552 33.2071 144.195 31.5421 141.838 29.8772C142.79 29.5813 143.742 29.2854 144.649 28.9509C146.508 30.2766 148.406 31.5565 150.389 32.8289C154.001 35.2345 157.46 37.8236 160.826 40.3357C166.144 44.2506 171.607 48.3654 177.465 51.6378C180.374 53.2969 183.399 54.8183 186.378 56.3012C194.924 60.6566 203.653 65.1661 210.872 71.8489Z" fill="white"/>
<path d="M252.769 101.609C253.423 114.437 249.702 128.285 242.055 141.499C240.728 143.827 239.463 145.894 238.236 147.915C232.474 157.392 228.316 164.304 227.521 177.089C226.662 190.602 226.722 204.418 227.742 218.022C229.875 247.263 237.143 280.265 248.277 310.802C249.911 315.379 251.805 320.019 253.6 324.497C257.457 334.068 261.473 344.008 263.778 354.31C264.745 358.563 265.467 362.923 265.974 367.258C265.236 367.578 264.453 367.859 263.67 368.14C263.148 363.636 262.458 359.146 261.483 354.809C259.154 344.721 255.23 334.858 251.426 325.41C249.631 320.932 247.737 316.292 246.057 311.676C234.901 280.886 227.534 247.723 225.379 218.228C224.39 204.494 224.322 190.594 225.174 176.997C226.002 163.614 230.275 156.563 236.223 146.772C237.411 144.797 238.714 142.685 240.003 140.403C247.426 127.549 251.023 114.221 250.367 101.861C249.633 87.6369 243.102 74.7277 232.834 67.206C226.835 62.7979 219.594 60.2419 212.569 57.7097C211.251 57.2296 209.933 56.7496 208.615 56.2695C189.109 49.1308 170.611 38.927 153.901 26.313C154.899 26.0556 155.851 25.7597 156.895 25.5408C173.04 37.5238 190.811 47.1958 209.482 54.0249C210.8 54.5049 212.118 54.9849 213.435 55.465C220.591 58.0284 228.054 60.6925 234.321 65.2473C245.087 73.1081 252.06 86.7016 252.769 101.609Z" fill="white"/>
<path d="M263.321 68.6211C269.012 77.7764 269.604 88.9089 270.13 98.8139C270.947 113.499 270.984 127.529 263.077 138.257C260.988 141.119 258.434 143.511 255.917 145.857C253.639 148.013 251.284 150.26 249.335 152.769C239.38 165.845 241.786 180.221 244.396 195.472C244.803 197.69 245.163 199.87 245.486 202.096C246.116 206.378 246.914 210.646 247.628 214.921C249.773 227.278 252 240.096 251.904 252.607L251.924 253.328C251.804 266.054 251.683 279.248 253.941 291.935C255.763 302.067 260.129 310.658 264.709 319.74C265.836 321.938 266.918 324.097 268.008 326.341C273.447 337.475 277.158 349.27 280.01 360.97C279.28 361.374 278.543 361.694 277.767 362.059C274.953 350.313 271.242 338.518 265.849 327.423C264.805 325.218 263.677 323.02 262.595 320.861C257.917 311.617 253.451 302.865 251.6 292.395C249.281 279.5 249.395 266.222 249.546 253.366L249.525 252.645C249.644 240.388 247.424 227.654 245.287 215.381C244.527 211.067 243.767 206.754 243.137 202.471C242.776 200.291 242.454 198.066 242.047 195.847C239.498 180.804 236.858 165.215 247.507 151.313C249.526 148.628 252.003 146.327 254.358 144.08C256.752 141.787 259.268 139.44 261.203 136.762C268.655 126.67 268.57 113.069 267.836 98.8444C267.339 89.2771 266.732 78.4438 261.384 69.8112C254.251 58.273 240.537 53.179 227.26 48.2169L224.533 47.1797C206.591 40.4144 189.359 32.0561 173.054 22.1283C174.313 21.9332 175.571 21.7379 176.792 21.5886C192.225 30.7847 208.514 38.5877 225.4 44.9351L228.081 45.9337C241.595 51.1728 255.699 56.3601 263.321 68.6211Z" fill="white"/>
<path d="M106.62 98.3206C116.458 110.643 124.833 122.285 126.99 140.127C128.608 153.764 128.821 167.864 128.997 181.541C129.236 199.339 129.48 217.688 133.004 235.113C137.04 255.002 146.65 273.468 156.002 291.404C159.111 297.298 162.328 303.438 165.245 309.561C175.673 331.06 182.262 353.873 188.7 375.933C189.01 377.054 189.367 378.213 189.685 379.419C188.872 379.362 187.975 379.313 187.162 379.257C186.873 378.389 186.669 377.514 186.381 376.646C179.996 354.709 173.461 332.019 163.086 310.643C160.13 304.566 156.96 298.464 153.85 292.57C144.445 274.511 134.736 255.884 130.585 235.665C127.047 218.071 126.788 199.553 126.542 181.671C126.373 168.078 126.16 153.978 124.472 140.517C122.368 123.266 114.229 111.901 104.635 99.9401C99.0512 92.9867 87.8798 82.4396 81.5774 83.799C80.5334 84.0179 79.6878 84.5597 78.9175 85.4776C78.1088 86.4414 77.4673 87.8583 76.9472 89.6899C76.1543 92.7786 76.7176 96.3014 77.1523 99.3252L84.2112 144.04C85.2772 150.878 85.2075 157.859 85.2001 164.578C85.1156 171.39 85.0918 178.409 86.1963 185.201C88.608 200.129 93.2797 213.669 100.259 225.391C112.043 245.367 128.317 275.838 133.648 309.562C135.758 322.985 136.118 336.817 136.518 350.135C136.662 355.183 136.76 360.192 136.896 365.156C136.946 366.215 136.951 367.235 136.955 368.255C136.12 367.946 135.331 367.674 134.534 367.319C134.513 366.598 134.493 365.876 134.472 365.155C134.336 360.192 134.238 355.182 134.14 350.173C133.786 336.893 133.349 323.153 131.292 309.853C126.036 276.505 109.914 246.319 98.1455 226.511C91.0983 214.497 86.2358 200.719 83.7945 185.454C82.6678 178.408 82.7686 171.297 82.8072 164.447C82.8605 157.766 82.8991 150.916 81.8937 144.285L74.8348 99.5705C74.2936 96.3009 73.7081 92.5248 74.6255 88.9149C75.7756 84.5617 77.9321 81.9916 81.0641 81.3349C91.1663 79.1753 106.475 98.1207 106.62 98.3206Z" fill="white"/>
<path d="M62.4908 84.3632C68.2961 107.457 71.5217 131.202 71.993 155.06C72.0573 158.711 72.0446 162.455 71.9623 166.374C71.8097 179.698 71.6096 193.451 76.1647 205.173C78.9632 212.37 83.9414 219.206 88.8589 225.835C92.3406 230.634 96.0058 235.586 98.8344 240.697C105.673 253.239 111.482 266.169 116.017 279.125C122.703 298.187 125.827 320.282 125.22 343.001C125.029 349.567 124.761 356.224 124.486 362.797C123.689 362.442 122.931 362.04 122.135 361.685C122.401 355.495 122.614 349.183 122.835 342.955C123.509 320.527 120.369 298.731 113.79 279.915C109.308 267.082 103.598 254.313 96.767 241.856C94.0376 236.906 90.4642 232.031 86.9825 227.232C82.0117 220.481 76.8957 213.529 74.0292 206.04C69.3069 193.865 69.4848 179.859 69.6612 166.32C69.705 162.447 69.7636 158.742 69.6993 155.09C69.21 131.999 66.1812 109.045 60.6498 86.6505C61.1815 85.9236 61.8362 85.1434 62.4908 84.3632Z" fill="white"/>
<path d="M204.077 379.606C201.59 364.302 197.697 345.08 189.765 326.851C183.919 313.499 176.674 301.162 169.634 289.233C154.761 264.084 140.774 240.302 140.665 208.928C140.632 200.766 141.128 192.345 141.657 183.326C143.481 152.165 145.424 119.931 125.124 95.9365C118.675 88.3358 111.049 81.8587 103.699 75.6126C98.7349 71.3691 93.5488 67.0175 88.847 62.3683C88.243 61.7832 87.6316 61.1138 86.9669 60.3215C86.3745 60.8411 85.7362 61.3221 85.1438 61.8417C85.8544 62.6726 86.519 63.465 87.1689 64.0885C91.9625 68.8147 97.1101 73.2123 102.159 77.4484C109.463 83.6559 117.043 90.0945 123.308 97.5412C143.035 120.82 141.133 152.541 139.31 183.233C138.781 192.253 138.246 200.719 138.326 208.92C138.447 240.931 152.626 264.951 167.613 290.431C174.645 302.275 181.845 314.573 187.637 327.802C195.401 345.579 199.265 364.463 201.699 379.644L204.077 379.606Z" fill="white"/>
<path d="M52.9943 96.8036C55.9262 109.9 57.9666 123.5 58.9851 137.572C59.6539 146.188 59.1885 154.479 58.778 162.425C57.8129 180.072 56.8896 196.738 68.16 214.251C71.4565 219.363 75.2447 224.262 78.8952 229.046C82.9202 234.222 87.0443 239.56 90.5613 245.248C111.527 278.795 115.429 318.045 113.424 357.344C112.666 356.942 111.862 356.502 111.096 356.016C112.915 317.499 108.964 279.147 88.5398 246.445C85.0761 240.88 80.9978 235.581 76.9802 230.489C73.2838 225.667 69.4498 220.729 66.0615 215.54C54.3944 197.381 55.2882 180.378 56.3007 162.301C56.7571 154.394 57.1914 146.234 56.5373 137.786C55.5541 124.604 53.7565 111.833 51.0599 99.4818C51.7457 98.5713 52.3471 97.6682 52.9943 96.8036Z" fill="white"/>
<path d="M212.246 379.188C211.705 375.919 211.255 372.726 210.76 369.495C208.09 351.613 205.284 333.147 198.761 315.942C196.594 310.135 193.787 303.322 189.673 297.133C187.017 293.027 183.747 289.189 180.576 285.511C156.6 257.416 147.169 222.519 152.454 181.828C153.068 177.181 153.836 172.351 154.626 167.774C156.999 153.576 159.373 138.91 156.943 124.749C152.068 96.7255 130.797 80.5981 108.288 63.431C104.095 60.2257 99.8563 56.9818 95.6946 53.6462C96.4173 53.1577 97.0556 52.6766 97.7399 52.234C101.672 55.3771 105.727 58.4669 109.736 61.5182C131.649 78.1847 154.296 95.4674 159.33 124.327C161.881 138.903 159.399 153.791 157.041 168.159C156.251 172.735 155.476 177.481 154.862 182.127C149.64 222.091 158.936 256.403 182.438 283.945C185.616 287.707 188.886 291.546 191.68 295.766C195.938 302.155 198.799 309.092 201.019 315.021C207.649 332.472 210.47 351.107 213.109 369.119C213.611 372.435 214.068 375.712 214.655 379.02L212.246 379.188Z" fill="white"/>
<path d="M271.271 50.5756C275.797 55.1552 278.026 62.6572 280.006 69.2456C280.545 71.0271 281.037 72.7699 281.6 74.3367C284.288 82.2238 287.187 91.5386 288.258 101.353C289.859 115.757 287.067 129.057 280.338 138.661C277.316 143.007 273.66 146.9 270.118 150.654C260.395 161.03 251.995 170.015 257.842 185.323C270.159 217.713 275.516 253.178 273.312 287.774L273.205 289.953C272.802 295.559 272.453 301.288 273.524 306.722C274.58 311.988 277.063 317.044 279.44 321.854L280.476 323.975C285.153 333.687 289.185 343.795 292.387 354.146C291.657 354.551 290.972 354.993 290.242 355.397C287.033 344.962 283.033 334.723 278.31 324.972L277.274 322.852C274.798 317.88 272.261 312.701 271.175 307.098C269.99 301.333 270.409 295.428 270.759 289.699L270.904 287.475C273.053 253.224 267.734 218.18 255.569 186.075C249.213 169.323 258.551 159.406 268.352 148.937C271.816 145.275 275.435 141.429 278.341 137.219C284.724 128.028 287.359 115.38 285.849 101.522C284.8 91.96 281.955 82.7683 279.281 75.05C278.718 73.4832 278.18 71.7017 277.68 69.8743C275.768 63.5777 273.606 56.3674 269.501 52.2189C258.447 41.0662 240.497 34.2165 226.025 28.7211L224.616 28.164C220.525 26.6083 216.219 25.0288 211.699 23.4256C208.757 22.3647 205.769 21.2652 202.735 20.1273C205.289 20.159 207.844 20.1907 210.413 20.3912C211.117 20.6698 211.822 20.9483 212.566 21.1809C217.132 22.8227 221.438 24.4021 225.574 25.9964L226.984 26.5534C241.593 32.1644 259.849 39.1149 271.271 50.5756Z" fill="white"/>
<path d="M288.76 43.4316C290.501 45.8308 292.088 48.4137 293.528 51.2645C299.624 63.106 302.67 76.5327 305.047 88.1468C307.477 99.8839 309.721 112.403 308.076 124.709C306.305 138.004 299.97 148.722 289.783 155.737L289.498 155.889C279.711 162.614 272.691 167.439 271.627 180.077C270.827 189.885 273.917 199.438 277.366 209.215L279.281 214.576C286.516 234.567 293.94 255.266 291.85 276.584C291.423 280.448 290.781 284.289 290.047 288.053C289.039 293.542 288.007 299.246 288.034 304.899C288.122 319.521 295.057 333.16 301.785 346.392C301.991 346.799 302.242 347.245 302.41 347.698C301.771 348.179 301.087 348.622 300.403 349.064C300.144 348.534 299.885 348.004 299.626 347.474C292.752 334.042 285.666 320.118 285.61 304.899C285.568 299.077 286.631 293.243 287.632 287.669C288.289 283.997 289.015 280.149 289.366 276.376C291.423 255.656 284.021 235.211 276.931 215.419L275.016 210.058C271.414 199.997 268.256 190.152 269.189 179.907C270.325 166.157 278.152 160.837 288.055 153.975L288.294 153.784C297.92 147.158 303.922 137.022 305.584 124.417C307.174 112.455 304.953 100.19 302.583 88.6601C300.175 77.1763 297.151 64.0027 291.246 52.3996C288.937 47.8813 286.257 43.9907 283.323 40.5902C283.415 40.6672 283.545 40.6984 283.637 40.7754L288.76 43.4316Z" fill="white"/>
<path d="M308.844 56.6862C318.702 78.9576 323.375 98.8334 323.075 117.273C322.711 136.442 317.193 150.66 306.174 160.81C304.558 162.269 302.812 163.698 301.104 165.08C296.297 168.946 291.812 172.612 289.6 177.952C287.218 183.773 288.308 190.397 289.673 197.252C293.098 214.047 297.214 230.953 301.807 247.476L302.102 248.428C304.195 255.815 306.301 263.37 306.006 271.178C305.889 274.208 305.419 277.098 304.949 279.988C304.588 282.189 304.235 284.473 304.051 286.743C302.552 303.63 310.752 319.582 318.946 334.982C318.353 335.502 317.722 336.068 317.084 336.549C308.592 320.664 300.057 304.273 301.651 286.528C301.874 284.212 302.219 281.843 302.618 279.597C303.095 276.791 303.566 273.901 303.659 271.086C303.945 263.661 301.853 256.275 299.822 249.095L299.565 248.097C294.842 231.543 290.765 214.592 287.332 197.712C285.853 190.527 284.772 183.52 287.356 177.085C289.776 171.217 294.738 167.168 299.584 163.257C301.253 161.921 302.999 160.492 304.576 159.078C315.088 149.441 320.358 135.797 320.697 117.311C321.022 98.1887 315.846 77.4214 304.941 53.8807L305.033 53.9577L308.844 56.6862Z" fill="white"/>
<path d="M321.742 67.5076L325.826 71.4028C331.24 85.1751 336.017 99.4286 337.324 114.368C339.238 135.761 333.052 154.971 320.454 167.002C319.276 168.126 318.053 169.211 316.784 170.258C313.737 172.863 310.852 175.369 308.885 178.646C303.5 187.58 306.763 195.714 310.194 204.302C311.335 207.136 312.529 210.094 313.432 213.119C317.899 228.207 319.894 243.725 319.343 259.295C319.218 262.24 319.047 265.147 318.837 268.099C318.448 274.342 317.996 280.846 318.504 287.137C319.588 300.013 324.525 312.211 330.146 323.967C329.607 324.609 328.938 325.221 328.353 325.825C322.518 313.577 317.199 300.902 316.095 287.306C315.572 280.845 316.016 274.257 316.398 267.93C316.569 265.023 316.74 262.117 316.911 259.21C317.485 243.893 315.512 228.629 311.067 213.794C310.217 210.891 309.031 208.018 307.89 205.184C304.36 196.435 300.67 187.317 306.695 177.434C308.847 173.844 312.009 171.101 315.056 168.495C316.241 167.456 317.51 166.409 318.649 165.332C330.778 153.767 336.647 135.307 334.799 114.674C333.528 98.2004 327.782 82.586 321.742 67.5076Z" fill="white"/>
<path d="M341.216 88.3849L345.157 93.5685C347.065 100.801 348.636 108.063 349.493 115.43C352.074 137.147 347.049 157.489 335.612 171.12C334.425 172.627 333.101 174.018 331.823 175.449C326.202 181.681 320.427 188.098 321.521 195.741C322.016 198.973 323.77 202.009 325.517 204.96L326.31 206.252C336.834 224.467 340.955 246.773 337.54 267.526C337.148 269.857 336.68 272.279 336.158 274.579C334.996 280.251 333.81 286.139 334.059 291.9C334.364 299.273 336.979 306.316 340.147 312.886C339.608 313.528 339.031 314.217 338.453 314.905C334.941 307.813 331.975 300.163 331.642 291.984C331.364 285.885 332.619 279.821 333.813 274.019C334.289 271.681 334.765 269.343 335.156 267.012C338.492 246.818 334.547 225.05 324.236 207.326L323.488 206.073C321.642 202.96 319.743 199.724 319.204 195.987C317.929 187.253 324.135 180.416 330.103 173.77C331.381 172.34 332.621 170.956 333.814 169.533C344.828 156.407 349.659 136.763 347.13 115.637C346.033 106.505 343.962 97.4152 341.216 88.3849Z" fill="white"/>
<path d="M356.008 110.182L359.408 116.476C359.94 120.129 360.388 123.79 360.79 127.412C362.151 140.051 357.471 156.067 347.005 174.971C346.38 176.089 345.755 177.206 345.052 178.416C342.275 183.124 339.127 188.46 338.581 193.398C338.035 198.337 340.116 204.618 341.961 210.155C342.599 212.098 343.229 213.957 343.676 215.661L344.29 217.819C348.428 232.553 352.695 247.787 350.272 263.351C349.888 265.766 349.335 268.196 348.859 270.534C348.065 274.09 347.246 277.861 347.012 281.497C346.692 287.563 347.968 293.405 350.159 298.997C349.634 299.808 349.11 300.62 348.54 301.392C345.938 294.986 344.296 288.368 344.657 281.32C344.87 277.431 345.727 273.614 346.552 269.927C347.074 267.628 347.588 265.244 347.895 262.921C350.194 247.878 346.034 232.89 341.963 218.448L341.349 216.29C340.864 214.632 340.279 212.812 339.603 210.915C337.697 205.17 335.51 198.643 336.135 193.145C336.721 187.693 339.977 182.135 342.909 177.243C343.572 176.079 344.282 174.954 344.868 173.882C355.118 155.422 359.673 139.927 358.357 127.795C357.847 121.971 357.039 116.131 356.008 110.182Z" fill="white"/>
<path d="M362.567 277.031C361.972 271.682 362.074 266.528 362.245 261.197C362.327 257.278 362.441 253.228 362.248 249.077C361.508 234.301 359.04 220.185 354.873 207.069C354.63 206.24 354.296 205.334 354.007 204.466C352.002 198.56 349.8 191.864 352.153 185.704C353.577 182.05 355.944 178.484 358.234 175.009C359.807 172.575 361.311 170.317 362.515 168.043C366.885 159.666 369.301 150.822 370.322 141.589C370.899 143.325 371.476 145.061 372.015 146.842C370.731 154.524 368.366 162.003 364.652 169.132C363.416 171.536 361.797 173.932 360.263 176.32C358.05 179.703 355.759 183.178 354.444 186.61C352.401 191.934 354.481 198.216 356.365 203.707C356.699 204.613 356.988 205.481 357.276 206.349C361.542 219.626 364.033 233.995 364.787 248.94C364.988 253.175 364.882 257.309 364.761 261.275C364.671 265.11 364.567 268.776 364.769 272.543L362.567 277.031Z" fill="white"/>
<path d="M376.862 232.872C375.49 225.933 373.741 219.069 371.578 212.327L370.811 209.885C368.837 203.849 366.849 197.644 367.001 191.124C367.246 182.258 370.664 174.176 373.981 166.402C374.577 164.946 375.172 163.491 375.807 161.989C376.139 163.364 376.388 164.745 376.682 166.165C376.543 166.518 376.365 166.916 376.226 167.268C372.978 174.867 369.668 182.726 369.425 191.125C369.274 197.177 371.21 203.259 373.123 209.087L373.889 211.529C375.468 216.452 376.794 221.396 377.958 226.44L376.862 232.872Z" fill="white"/>
<path d="M101.885 124.846C99.9013 124.041 97.8682 124.134 96.3309 125.034C93.3409 126.826 92.9979 130.684 92.9884 133.491C93.011 144.929 94.3529 156.378 97.0231 167.456C99.035 175.87 103.666 181.164 108.469 180.658C110.112 180.472 111.487 179.671 112.604 178.34C114.607 175.954 115.786 171.938 115.919 166.654C116.206 154.381 113.348 142.129 107.671 131.186C106.703 129.357 105.498 127.251 103.539 125.764C103.042 125.425 102.46 125.093 101.885 124.846ZM105.557 132.307C111.075 142.88 113.812 154.718 113.534 166.607C113.358 173.342 111.255 177.991 108.224 178.341C105.277 178.684 101.286 174.866 99.4028 166.95C96.7473 156.041 95.3817 144.806 95.3739 133.538C95.3802 131.666 95.5496 129.227 96.7435 127.804C96.9745 127.529 97.2514 127.292 97.5743 127.094C98.5043 126.545 99.7393 126.564 101.057 127.044C101.455 127.222 101.815 127.446 102.221 127.708C103.682 128.856 104.734 130.677 105.557 132.307Z" fill="white"/>
<path d="M164.083 345.342L164.34 346.34C167.28 357.097 170.313 367.463 173.37 377.615C172.511 377.52 171.645 377.34 170.779 377.161C167.797 367.386 164.917 357.304 162.052 346.923L161.749 345.887C157.129 328.558 153.506 324.58 151.267 324.265C149.634 324.068 147.993 326.21 147.005 328.04C145.199 331.217 145.539 335.1 146.099 339.559L150.436 372.604C149.608 372.379 148.78 372.154 147.907 371.89L143.704 339.896C143.211 336.197 142.545 331.024 144.907 326.905C146.975 323.322 149.251 321.635 151.613 321.896C157.294 322.675 161.25 334.831 164.083 345.342Z" fill="white"/>
</g>
</g>
<defs>
<clipPath id="clip0">
<rect width="400" height="400" fill="white"/>
</clipPath>
</defs>
</svg>
