<svg width="351" height="351" viewBox="0 0 351 351" fill="none" xmlns="http://www.w3.org/2000/svg">
<g clip-path="url(#clip0)">
<g opacity="0.22">
<path d="M0.101975 165.262C0.0245483 174.826 0.906384 184.43 5.08462 192.292C8.86803 199.441 14.3489 205.568 19.7256 211.455C25.0198 217.35 30.4934 223.394 34.4041 230.573C39.3648 239.779 41.4214 249.988 43.4491 259.866C44.997 267.584 46.5737 275.632 49.6293 283.01C50.5736 285.255 51.5178 287.499 52.4694 289.826C54.8786 295.515 57.2574 301.332 59.3511 307.216C58.1331 306.117 56.915 305.019 55.697 303.921C54.063 299.493 52.1817 295.086 50.3524 290.8C49.4008 288.474 48.4117 286.192 47.4674 283.947C44.3525 276.366 42.731 268.281 41.1687 260.398C39.2379 250.677 37.1958 240.634 32.3913 231.788C28.6295 224.887 23.2456 218.918 18.0034 213.143C12.5746 207.136 6.95928 200.896 3.02691 193.469C1.83519 191.247 0.914076 188.793 0.157923 186.324C-0.297665 179.217 -0.326452 172.239 0.101975 165.262Z" fill="white"/>
<path d="M157.949 58.291C169.617 67.6998 176.339 83.7329 175.957 101.218C175.778 109.628 173.929 117.934 172.178 125.94C171.668 128.187 171.203 130.472 170.738 132.756C165.815 156.747 164.84 181.224 167.755 205.526C169.067 216.714 171.814 222 175.612 229.313C177.161 232.294 178.918 235.756 180.83 240.035C182.846 244.554 185.034 249.141 187.125 253.57C190.579 260.747 194.181 268.203 197.049 275.805C204.739 295.784 208.368 317.323 211.813 338.172C212.275 341.082 212.782 344.029 213.29 346.977C212.517 347.169 211.744 347.361 210.964 347.471C210.45 344.441 209.943 341.494 209.436 338.546C206.005 317.862 202.428 296.443 194.842 276.705C191.944 269.229 188.387 261.812 184.933 254.635C182.842 250.205 180.571 245.625 178.593 241.061C176.726 236.82 174.976 233.441 173.427 230.46C169.525 222.907 166.763 217.456 165.333 205.863C162.396 181.313 163.432 156.582 168.333 132.343C168.798 130.059 169.308 127.812 169.811 125.483C171.569 117.558 173.344 109.342 173.544 101.18C173.945 84.3993 167.536 69.087 156.406 60.1297C154.664 58.7446 152.772 57.5389 150.917 56.2884L149.377 55.3012C138.002 47.8197 127.682 38.6253 117.803 29.7247C112.662 25.1051 107.341 20.335 101.885 15.9092C102.643 15.552 103.439 15.1499 104.287 14.868C109.481 19.1505 114.488 23.6572 119.398 28.0062C129.269 36.8243 139.5 45.9434 150.747 53.3945L152.288 54.3817C154.18 55.5874 156.117 56.8307 157.949 58.291Z" fill="white"/>
<path d="M20.8181 91.9372C22.022 103.799 21.9761 115.147 20.5832 125.823C19.8888 131.66 18.3856 137.276 16.9129 142.765C13.4736 155.698 10.1791 167.912 17.4856 181.608C21.217 188.637 27.0437 194.443 32.6838 200.016C37.5992 204.905 42.6491 209.906 46.4516 215.848C50.8803 222.774 53.522 230.646 56.0596 238.277C58.3672 245.181 61.1016 252.213 63.9995 259.688C72.1435 280.583 80.5102 302.123 80.2291 323.132C79.4363 322.62 78.6435 322.107 77.8884 321.55C77.7917 301.447 69.6997 280.672 61.8304 260.543C58.9325 253.068 56.1533 245.998 53.8384 239.012C51.3153 231.545 48.7706 223.831 44.4836 217.101C40.7852 211.399 35.825 206.473 31.0441 201.697C25.2695 196.011 19.3082 190.092 15.3831 182.748C7.71215 168.211 11.0978 155.615 14.6211 142.218C16.0635 136.856 17.529 131.284 18.2378 125.613C19.4091 116.203 19.5849 106.339 18.7582 95.9403C19.5052 94.5037 20.1392 93.2017 20.8181 91.9372Z" fill="white"/>
<path d="M146.978 73.0046C154.916 88.2247 158.256 104.554 157.115 122.853C156.45 133.3 155.096 143.474 153.714 153.318C151.247 171.194 148.903 188.103 150.744 206.765C152.258 222.173 159.873 233.225 167.914 244.863C170.338 248.349 172.814 251.955 175.185 255.778C186.867 274.369 192.175 296.094 195.476 312.924C196.287 316.967 197.06 321.055 197.878 325.18C199.395 333.025 200.927 341.036 202.617 348.949C201.837 349.059 201.057 349.169 200.277 349.278C198.588 341.365 197.063 333.437 195.545 325.592C194.772 321.504 193.999 317.417 193.188 313.374C189.902 296.708 184.705 275.306 173.217 257.031C170.854 253.29 168.377 249.684 165.998 246.235C157.764 234.282 150.007 223.035 148.442 207.05C146.617 188.095 148.909 171.066 151.443 153.018C152.788 143.219 154.194 133.165 154.822 122.763C155.917 104.883 152.695 88.9592 144.958 74.137C136.617 58.1211 124.823 50.5932 109.909 41.1358L106.611 39.0559C99.4828 34.5269 92.6112 29.6017 85.9958 24.28C86.702 23.8026 87.4154 23.4078 88.1288 23.013C94.4679 28.0264 101.026 32.6884 107.809 37.0812L111.107 39.1611C126.328 48.7994 138.34 56.433 146.978 73.0046Z" fill="white"/>
<path d="M17.8256 238.215C21.0363 244.042 21.2125 251.755 21.1269 259.326C20.2924 257.861 19.4955 256.352 18.7811 254.835C18.6956 249.109 18.1297 243.59 15.8055 239.347C14.3231 236.651 11.9463 234.657 9.40457 232.677C8.95923 231.386 8.50668 230.013 8.09897 228.678C8.59226 229.092 9.16802 229.498 9.66131 229.912C12.7339 232.261 15.8963 234.685 17.8256 238.215Z" fill="white"/>
<path d="M185.836 50.2832C198.867 62.4399 204.903 81.5661 201.194 99.0103C200.081 104.343 198.16 109.456 196.225 114.404C195.68 115.781 195.181 117.196 194.636 118.574C183.031 150.255 180.627 184.995 187.639 219.078C190.737 234.057 197.246 248.613 203.502 262.65C207.377 271.328 211.357 280.246 214.512 289.236C219.486 303.344 220.762 318.4 221.949 332.922C222.281 336.716 222.583 340.637 222.959 344.469C222.187 344.661 221.459 344.891 220.686 345.083C220.25 341.049 219.904 337.09 219.558 333.131C218.34 318.736 217.123 303.884 212.253 290.016C209.15 281.146 205.171 272.227 201.34 263.587C195.032 249.43 188.471 234.754 185.314 219.572C178.183 185.084 180.634 149.924 192.45 117.809C192.95 116.394 193.494 115.017 194.039 113.64C195.899 108.781 197.782 103.713 198.872 98.5902C202.361 81.9548 196.607 63.6764 184.159 52.0088C177.374 45.7047 169.017 41.3664 160.883 37.2164C158.01 35.7225 155.01 34.1983 152.129 32.622C146.189 29.3189 140.851 25.2982 135.565 21.3977C132.275 18.943 128.896 16.4131 125.456 14.1378C122.988 12.5254 120.685 10.8986 118.382 9.27176C119.312 8.9826 120.243 8.69345 121.128 8.36666C122.945 9.66204 124.8 10.9126 126.737 12.1559C130.267 14.5064 133.646 17.0363 136.936 19.491C142.132 23.3163 147.47 27.337 153.193 30.5344C156.036 32.1556 158.992 33.6422 161.902 35.0912C170.253 39.3469 178.783 43.7532 185.836 50.2832Z" fill="white"/>
<path d="M226.775 79.3617C227.415 91.8962 223.779 105.428 216.307 118.34C215.01 120.614 213.774 122.634 212.575 124.608C206.945 133.868 202.882 140.623 202.105 153.115C201.266 166.319 201.325 179.819 202.322 193.111C204.406 221.683 211.507 253.93 222.386 283.769C223.983 288.241 225.834 292.775 227.588 297.151C231.356 306.503 235.281 316.215 237.533 326.282C238.478 330.437 239.183 334.697 239.679 338.934C238.958 339.246 238.192 339.521 237.427 339.796C236.917 335.394 236.243 331.007 235.29 326.769C233.015 316.912 229.18 307.275 225.464 298.043C223.71 293.667 221.859 289.134 220.217 284.623C209.316 254.537 202.118 222.133 200.012 193.313C199.046 179.893 198.98 166.311 199.812 153.025C200.621 139.948 204.797 133.059 210.608 123.492C211.769 121.562 213.042 119.498 214.302 117.269C221.555 104.708 225.069 91.6859 224.428 79.6087C223.711 65.7098 217.33 53.0959 207.296 45.7463C201.435 41.439 194.36 38.9415 187.495 36.4672C186.207 35.9981 184.92 35.5291 183.632 35.06C164.573 28.0846 146.498 18.1143 130.169 5.7889C131.145 5.53737 132.075 5.24823 133.095 5.03432C148.871 16.7432 166.236 26.1939 184.479 32.8667C185.767 33.3358 187.054 33.8048 188.342 34.2739C195.334 36.7786 202.626 39.3818 208.75 43.8324C219.269 51.5134 226.083 64.7958 226.775 79.3617Z" fill="white"/>
<path d="M237.086 47.129C242.647 56.0749 243.225 66.9527 243.739 76.631C244.537 90.9799 244.573 104.689 236.847 115.171C234.807 117.968 232.31 120.305 229.852 122.598C227.626 124.704 225.325 126.9 223.42 129.352C213.693 142.129 216.044 156.176 218.594 171.078C218.991 173.245 219.344 175.375 219.659 177.55C220.274 181.734 221.055 185.904 221.752 190.082C223.848 202.156 226.024 214.681 225.93 226.906L225.95 227.61C225.833 240.045 225.714 252.937 227.921 265.334C229.701 275.234 233.967 283.628 238.442 292.503C239.544 294.65 240.601 296.76 241.665 298.952C246.98 309.831 250.606 321.357 253.393 332.789C252.68 333.184 251.959 333.496 251.201 333.853C248.452 322.376 244.826 310.851 239.556 300.01C238.536 297.855 237.434 295.708 236.377 293.598C231.805 284.565 227.442 276.013 225.633 265.783C223.367 253.183 223.479 240.209 223.626 227.647L223.606 226.943C223.722 214.966 221.553 202.523 219.465 190.531C218.722 186.316 217.979 182.101 217.364 177.917C217.011 175.787 216.696 173.612 216.299 171.445C213.808 156.745 211.229 141.513 221.634 127.929C223.606 125.305 226.027 123.057 228.328 120.862C230.667 118.621 233.126 116.328 235.016 113.711C242.298 103.849 242.215 90.5598 241.498 76.6609C241.012 67.3125 240.419 56.727 235.193 48.2919C228.223 37.0176 214.823 32.0402 201.85 27.1916L199.185 26.1781C181.654 19.5677 164.817 11.4006 148.884 1.69996C150.114 1.50926 151.344 1.31846 152.536 1.1726C167.617 10.1583 183.533 17.7827 200.032 23.985L202.652 24.9607C215.857 30.0799 229.639 35.1486 237.086 47.129Z" fill="white"/>
<path d="M83.9682 76.1488C93.5814 88.1891 101.765 99.5649 103.872 116.999C105.454 130.323 105.662 144.101 105.834 157.466C106.067 174.856 106.306 192.786 109.749 209.812C113.693 229.246 123.083 247.289 132.22 264.814C135.259 270.574 138.402 276.573 141.252 282.557C151.442 303.563 157.88 325.854 164.17 347.41C164.474 348.505 164.822 349.638 165.133 350.816C164.339 350.761 163.462 350.713 162.668 350.657C162.386 349.81 162.186 348.954 161.904 348.106C155.666 326.671 149.28 304.5 139.142 283.614C136.254 277.675 133.156 271.713 130.118 265.954C120.928 248.309 111.441 230.108 107.386 210.351C103.929 193.16 103.675 175.065 103.435 157.592C103.27 144.31 103.062 130.533 101.413 117.38C99.356 100.524 91.4036 89.4184 82.029 77.7312C76.5729 70.9369 65.6572 60.6311 59.4989 61.9594C58.4788 62.1733 57.6525 62.7027 56.9 63.5996C56.1097 64.5413 55.4829 65.9258 54.9747 67.7155C54.1999 70.7335 54.7504 74.1758 55.1751 77.1304L62.0724 120.822C63.1141 127.504 63.046 134.325 63.0387 140.89C62.9562 147.546 62.9329 154.404 64.0122 161.041C66.3687 175.628 70.9335 188.858 77.753 200.311C89.2671 219.831 105.169 249.604 110.379 282.557C112.44 295.673 112.792 309.189 113.182 322.202C113.323 327.134 113.419 332.029 113.552 336.879C113.601 337.914 113.605 338.911 113.609 339.907C112.793 339.605 112.022 339.34 111.244 338.993C111.224 338.288 111.204 337.583 111.184 336.879C111.05 332.029 110.954 327.134 110.859 322.239C110.513 309.263 110.086 295.838 108.077 282.841C102.94 250.256 87.1877 220.761 75.688 201.406C68.8021 189.668 64.0507 176.205 61.6653 161.288C60.5644 154.404 60.6629 147.456 60.7006 140.763C60.7527 134.234 60.7904 127.541 59.8081 121.062L52.9106 77.3701C52.3818 74.1753 51.8097 70.4856 52.7061 66.9583C53.8299 62.7047 55.9371 60.1934 58.9974 59.5517C68.8685 57.4415 83.8264 75.9535 83.9682 76.1488Z" fill="white"/>
<path d="M40.8503 62.5109C46.5227 85.0763 49.6745 108.278 50.1351 131.59C50.1979 135.158 50.1855 138.816 50.1051 142.646C49.956 155.665 49.7605 169.103 54.2113 180.556C56.9458 187.589 61.8101 194.269 66.6151 200.746C70.0171 205.435 73.5985 210.274 76.3624 215.268C83.0442 227.523 88.7203 240.157 93.152 252.817C99.6848 271.442 102.737 293.032 102.145 315.231C101.958 321.647 101.696 328.152 101.427 334.575C100.649 334.227 99.9078 333.835 99.1295 333.487C99.3898 327.439 99.5982 321.271 99.8137 315.186C100.473 293.272 97.4044 271.974 90.9758 253.589C86.596 241.049 81.0168 228.573 74.3422 216.4C71.6753 211.564 68.1837 206.8 64.7817 202.111C59.9246 195.514 54.9257 188.721 52.1247 181.404C47.5105 169.508 47.6843 155.822 47.8566 142.593C47.8995 138.808 47.9567 135.188 47.8939 131.62C47.4158 109.057 44.4563 86.6283 39.0514 64.7459C39.571 64.0356 40.2106 63.2733 40.8503 62.5109Z" fill="white"/>
<path d="M179.196 350.998C176.765 336.044 172.961 317.263 165.212 299.45C159.499 286.404 152.42 274.35 145.541 262.693C131.008 238.119 117.341 214.882 117.235 184.225C117.202 176.25 117.687 168.022 118.204 159.209C119.986 128.761 121.885 97.2646 102.049 73.8192C95.7481 66.3923 88.2967 60.0634 81.1143 53.9603C76.2639 49.8139 71.1964 45.5618 66.6022 41.0189C66.012 40.4473 65.4146 39.7932 64.7651 39.019C64.1862 39.5267 63.5625 39.9967 62.9837 40.5044C63.678 41.3163 64.3274 42.0906 64.9625 42.6999C69.6464 47.3179 74.6762 51.6149 79.6091 55.7541C86.7467 61.8196 94.1533 68.1109 100.275 75.3872C119.551 98.1337 117.692 129.128 115.911 159.119C115.394 167.932 114.871 176.205 114.949 184.218C115.068 215.496 128.922 238.966 143.566 263.863C150.437 275.437 157.472 287.454 163.132 300.38C170.719 317.75 174.494 336.202 176.872 351.035L179.196 350.998Z" fill="white"/>
<path d="M31.5687 74.6669C34.4335 87.4638 36.4271 100.752 37.4223 114.502C38.0758 122.922 37.6211 131.023 37.22 138.787C36.277 156.03 35.3747 172.315 46.3874 189.427C49.6084 194.422 53.3099 199.209 56.8769 203.883C60.8098 208.941 64.8396 214.157 68.2761 219.715C88.7622 252.494 92.5747 290.846 90.6155 329.246C89.8748 328.854 89.0892 328.424 88.3413 327.949C90.118 290.313 86.2576 252.838 66.3009 220.885C62.9164 215.447 58.9314 210.269 55.0057 205.294C51.394 200.582 47.6477 195.757 44.3369 190.687C32.9366 172.944 33.81 156.329 34.7994 138.666C35.2453 130.94 35.6697 122.966 35.0306 114.712C34.0699 101.831 32.3133 89.3529 29.6784 77.2839C30.3485 76.3942 30.9362 75.5118 31.5687 74.6669Z" fill="white"/>
<path d="M187.18 350.591C186.651 347.396 186.212 344.276 185.728 341.119C183.119 323.646 180.377 305.603 174.003 288.792C171.886 283.118 169.143 276.46 165.123 270.413C162.528 266.401 159.333 262.65 156.235 259.057C132.807 231.604 123.591 197.506 128.756 157.746C129.356 153.206 130.106 148.486 130.878 144.014C133.197 130.14 135.516 115.81 133.142 101.973C128.378 74.5907 107.594 58.8322 85.5999 42.0578C81.503 38.9259 77.3613 35.7562 73.2949 32.4969C74.0011 32.0196 74.6248 31.5495 75.2934 31.1171C79.1356 34.1882 83.0979 37.2073 87.0154 40.1888C108.427 56.474 130.556 73.3613 135.475 101.561C137.967 115.803 135.542 130.351 133.238 144.389C132.466 148.861 131.708 153.499 131.108 158.039C126.006 197.087 135.089 230.615 158.054 257.527C161.159 261.202 164.355 264.953 167.084 269.078C171.245 275.32 174.04 282.098 176.209 287.892C182.688 304.944 185.444 323.152 188.023 340.752C188.514 343.992 188.96 347.194 189.534 350.426L187.18 350.591Z" fill="white"/>
<path d="M244.853 29.4964C249.275 33.9712 251.453 41.3016 253.388 47.7392C253.914 49.4799 254.396 51.1829 254.945 52.7138C257.572 60.4205 260.405 69.5221 261.451 79.1123C263.015 93.1864 260.288 106.182 253.712 115.566C250.76 119.813 247.187 123.617 243.726 127.285C234.225 137.424 226.018 146.203 231.731 161.161C243.766 192.81 249 227.464 246.847 261.268L246.742 263.397C246.349 268.874 246.008 274.472 247.054 279.783C248.086 284.928 250.513 289.868 252.835 294.568L253.848 296.64C258.418 306.13 262.357 316.007 265.485 326.122C264.772 326.517 264.103 326.949 263.39 327.344C260.254 317.147 256.345 307.142 251.731 297.615L250.718 295.543C248.299 290.685 245.82 285.625 244.759 280.15C243.601 274.517 244.011 268.747 244.352 263.149L244.494 260.976C246.594 227.508 241.396 193.267 229.51 161.895C223.299 145.527 232.424 135.836 242.001 125.608C245.386 122.029 248.921 118.271 251.761 114.158C257.998 105.177 260.573 92.8184 259.097 79.2767C258.072 69.934 255.292 60.9525 252.679 53.4108C252.13 51.8798 251.603 50.1391 251.115 48.3535C249.247 42.2009 247.134 35.1557 243.123 31.102C232.322 20.2046 214.783 13.5115 200.642 8.14183L199.265 7.59751C195.268 6.07737 191.06 4.53406 186.643 2.96752C183.769 1.93089 180.849 0.856597 177.885 -0.255286C180.381 -0.22433 182.876 -0.193328 185.387 0.00257516C186.075 0.274746 186.764 0.546892 187.49 0.774219C191.952 2.37838 196.159 3.9217 200.202 5.47947L201.579 6.02379C215.854 11.5064 233.692 18.2979 244.853 29.4964Z" fill="white"/>
<path d="M261.941 22.5161C263.642 24.8604 265.192 27.3842 266.6 30.1697C272.557 41.7404 275.533 54.8598 277.855 66.2082C280.23 77.6768 282.422 89.9092 280.815 101.934C279.084 114.925 272.895 125.398 262.94 132.252L262.663 132.401C253.099 138.972 246.239 143.686 245.2 156.035C244.418 165.619 247.437 174.953 250.808 184.506L252.679 189.744C259.748 209.279 267.003 229.504 264.961 250.334C264.543 254.11 263.916 257.863 263.199 261.541C262.214 266.904 261.205 272.478 261.231 278.002C261.318 292.288 268.094 305.616 274.668 318.545C274.869 318.943 275.115 319.379 275.278 319.821C274.655 320.291 273.986 320.724 273.318 321.156C273.064 320.638 272.811 320.12 272.558 319.602C265.842 306.477 258.917 292.872 258.863 278.001C258.822 272.312 259.861 266.612 260.839 261.166C261.481 257.578 262.191 253.817 262.533 250.131C264.543 229.885 257.31 209.908 250.383 190.569L248.511 185.331C244.992 175.5 241.907 165.88 242.818 155.869C243.927 142.434 251.575 137.235 261.252 130.53L261.485 130.343C270.891 123.869 276.756 113.965 278.38 101.648C279.934 89.9607 277.763 77.9757 275.448 66.7098C273.095 55.4887 270.14 42.6166 264.37 31.2789C262.114 26.864 259.496 23.0624 256.629 19.7397C256.718 19.815 256.846 19.8454 256.935 19.9207L261.941 22.5161Z" fill="white"/>
<path d="M281.566 35.4673C291.198 57.2291 295.765 76.6502 295.471 94.6681C295.115 113.398 289.724 127.291 278.957 137.208C277.378 138.635 275.672 140.03 274.003 141.381C269.306 145.158 264.924 148.741 262.762 153.958C260.434 159.647 261.499 166.119 262.833 172.817C266.181 189.228 270.202 205.747 274.689 221.892L274.979 222.822C277.023 230.04 279.081 237.422 278.793 245.052C278.678 248.012 278.219 250.836 277.76 253.66C277.408 255.81 277.063 258.043 276.883 260.261C275.418 276.761 283.43 292.348 291.436 307.396C290.857 307.904 290.241 308.457 289.617 308.927C281.32 293.405 272.98 277.389 274.537 260.05C274.755 257.788 275.093 255.473 275.482 253.278C275.949 250.536 276.408 247.712 276.5 244.961C276.779 237.707 274.735 230.489 272.75 223.474L272.499 222.499C267.884 206.323 263.9 189.76 260.546 173.266C259.1 166.246 258.044 159.399 260.569 153.111C262.935 147.378 267.783 143.422 272.518 139.6C274.149 138.294 275.855 136.898 277.396 135.517C287.667 126.1 292.816 112.768 293.147 94.7051C293.466 76.0202 288.408 55.728 277.752 32.7259L277.842 32.8012L281.566 35.4673Z" fill="white"/>
<path d="M294.168 46.041L298.158 49.8471C303.449 63.3043 308.116 77.2317 309.393 91.8295C311.264 112.733 305.219 131.503 292.909 143.259C291.758 144.357 290.563 145.418 289.323 146.44C286.346 148.986 283.527 151.435 281.605 154.637C276.343 163.366 279.532 171.314 282.884 179.705C283.999 182.475 285.166 185.365 286.048 188.321C290.412 203.064 292.362 218.227 291.823 233.44C291.701 236.318 291.534 239.158 291.329 242.043C290.949 248.143 290.508 254.498 291.004 260.646C292.063 273.227 296.887 285.146 302.38 296.632C301.853 297.26 301.199 297.858 300.627 298.448C294.926 286.481 289.729 274.096 288.65 260.81C288.139 254.497 288.573 248.06 288.947 241.878C289.114 239.038 289.281 236.198 289.448 233.357C290.008 218.391 288.08 203.476 283.737 188.98C282.907 186.144 281.747 183.337 280.632 180.567C277.183 172.018 273.578 163.109 279.465 153.453C281.568 149.944 284.658 147.264 287.635 144.718C288.792 143.703 290.033 142.68 291.146 141.627C302.997 130.327 308.732 112.29 306.926 92.1284C305.684 76.0316 300.07 60.7745 294.168 46.041Z" fill="white"/>
<path d="M313.197 66.4406L317.047 71.5057C318.912 78.5727 320.447 85.6685 321.284 92.867C323.806 114.087 318.896 133.964 307.721 147.282C306.561 148.755 305.267 150.115 304.018 151.512C298.526 157.602 292.883 163.872 293.952 171.341C294.436 174.498 296.15 177.465 297.857 180.349L298.632 181.611C308.915 199.41 312.941 221.205 309.605 241.484C309.222 243.761 308.764 246.128 308.254 248.375C307.119 253.917 305.96 259.67 306.203 265.3C306.501 272.504 309.056 279.386 312.152 285.805C311.626 286.433 311.061 287.105 310.497 287.778C307.065 280.848 304.167 273.373 303.842 265.382C303.57 259.422 304.797 253.497 305.963 247.827C306.428 245.543 306.893 243.258 307.275 240.981C310.535 221.249 306.68 199.979 296.605 182.66L295.874 181.436C294.071 178.394 292.215 175.233 291.688 171.581C290.443 163.047 296.507 156.366 302.338 149.873C303.587 148.475 304.798 147.123 305.964 145.732C316.726 132.907 321.446 113.712 318.975 93.0689C317.904 84.1458 315.88 75.2643 313.197 66.4406Z" fill="white"/>
<path d="M327.65 87.739L330.972 93.8891C331.492 97.4587 331.93 101.035 332.323 104.575C333.653 116.924 329.08 132.574 318.853 151.045C318.242 152.138 317.632 153.23 316.946 154.412C314.232 159.012 311.156 164.226 310.622 169.051C310.089 173.877 312.122 180.015 313.925 185.425C314.548 187.323 315.164 189.139 315.6 190.805L316.2 192.913C320.244 207.311 324.413 222.195 322.046 237.403C321.67 239.763 321.13 242.137 320.665 244.422C319.889 247.897 319.089 251.582 318.86 255.134C318.547 261.062 319.795 266.77 321.935 272.234C321.423 273.027 320.91 273.819 320.353 274.575C317.811 268.315 316.206 261.848 316.559 254.961C316.767 251.162 317.604 247.432 318.411 243.829C318.921 241.582 319.423 239.253 319.723 236.983C321.97 222.285 317.904 207.64 313.927 193.527L313.327 191.419C312.853 189.799 312.282 188.02 311.621 186.167C309.759 180.554 307.622 174.176 308.232 168.803C308.805 163.476 311.986 158.045 314.851 153.265C315.499 152.128 316.192 151.029 316.766 149.981C326.781 131.944 331.232 116.803 329.946 104.949C329.448 99.258 328.658 93.5514 327.65 87.739Z" fill="white"/>
<path d="M334.06 250.771C333.478 245.544 333.577 240.508 333.745 235.299C333.825 231.469 333.936 227.512 333.747 223.456C333.024 209.018 330.613 195.226 326.541 182.41C326.304 181.599 325.977 180.714 325.695 179.866C323.736 174.095 321.585 167.552 323.884 161.534C325.275 157.963 327.588 154.478 329.826 151.083C331.363 148.704 332.832 146.498 334.009 144.276C338.279 136.09 340.639 127.449 341.637 118.428C342.201 120.124 342.765 121.82 343.291 123.56C342.036 131.066 339.725 138.374 336.096 145.34C334.889 147.689 333.307 150.03 331.808 152.363C329.645 155.669 327.407 159.064 326.122 162.418C324.125 167.621 326.158 173.759 327.999 179.124C328.326 180.01 328.608 180.858 328.89 181.706C333.058 194.679 335.491 208.719 336.229 223.322C336.425 227.461 336.321 231.5 336.203 235.375C336.115 239.122 336.013 242.705 336.211 246.386L334.06 250.771Z" fill="white"/>
<path d="M348.03 207.622C346.689 200.842 344.98 194.135 342.866 187.547L342.117 185.161C340.189 179.263 338.245 173.2 338.394 166.83C338.634 158.166 341.974 150.269 345.215 142.673C345.797 141.251 346.379 139.828 346.998 138.361C347.324 139.704 347.566 141.054 347.854 142.442C347.718 142.786 347.544 143.175 347.408 143.52C344.235 150.944 341.001 158.624 340.763 166.83C340.616 172.744 342.507 178.686 344.376 184.382L345.125 186.768C346.668 191.578 347.963 196.409 349.101 201.337L348.03 207.622Z" fill="white"/>
<path d="M79.3401 102.067C77.4015 101.281 75.4149 101.372 73.9128 102.251C70.9912 104.003 70.6561 107.772 70.6468 110.515C70.6688 121.691 71.98 132.878 74.5892 143.703C76.555 151.925 81.0797 157.097 85.7735 156.603C87.3781 156.421 88.7225 155.639 89.8137 154.338C91.7704 152.006 92.9231 148.083 93.053 142.919C93.3336 130.927 90.5409 118.955 84.9931 108.263C84.0473 106.475 82.87 104.418 80.9561 102.965C80.47 102.633 79.9014 102.309 79.3401 102.067ZM82.9282 109.357C88.3198 119.689 90.9939 131.256 90.7221 142.873C90.5499 149.454 88.4957 153.996 85.5338 154.339C82.6544 154.674 78.7545 150.943 76.9144 143.209C74.3197 132.549 72.9853 121.571 72.9777 110.56C72.9839 108.732 73.1494 106.349 74.3159 104.958C74.5417 104.689 74.8123 104.458 75.1277 104.264C76.0365 103.727 77.2432 103.747 78.5308 104.216C78.92 104.389 79.2715 104.608 79.6679 104.864C81.0957 105.986 82.1241 107.766 82.9282 109.357Z" fill="white"/>
<path d="M140.116 317.519L140.367 318.494C143.24 329.005 146.204 339.134 149.191 349.053C148.351 348.96 147.505 348.785 146.659 348.609C143.745 339.058 140.931 329.207 138.132 319.064L137.835 318.051C133.321 301.118 129.781 297.231 127.593 296.924C125.997 296.731 124.394 298.824 123.428 300.612C121.664 303.717 121.996 307.511 122.543 311.868L126.781 344.157C125.972 343.937 125.163 343.717 124.31 343.459L120.204 312.197C119.721 308.582 119.071 303.528 121.378 299.504C123.399 296.003 125.623 294.354 127.931 294.609C133.482 295.37 137.347 307.248 140.116 317.519Z" fill="white"/>
</g>
</g>
<defs>
<clipPath id="clip0">
<rect width="351" height="351" fill="white"/>
</clipPath>
</defs>
</svg>
