<svg width="222" height="222" viewBox="0 0 222 222" fill="none" xmlns="http://www.w3.org/2000/svg">
<g clip-path="url(#clip0)">
<g opacity="0.22">
<path d="M0.565166 104.943C0.516237 110.987 1.07351 117.057 3.71392 122.025C6.10482 126.542 9.5684 130.415 12.9662 134.135C16.3118 137.86 19.7709 141.68 22.2422 146.217C25.3771 152.034 26.6768 158.485 27.9582 164.728C28.9363 169.605 29.9327 174.691 31.8637 179.354C32.4604 180.772 33.0571 182.19 33.6584 183.661C35.1809 187.256 36.6842 190.932 38.0073 194.65C37.2376 193.956 36.4679 193.262 35.6981 192.568C34.6656 189.77 33.4766 186.985 32.3206 184.277C31.7193 182.806 31.0942 181.364 30.4975 179.946C28.529 175.155 27.5043 170.046 26.5171 165.064C25.2969 158.921 24.0064 152.574 20.9702 146.984C18.593 142.623 15.1906 138.851 11.8779 135.202C8.44719 131.405 4.8986 127.462 2.41356 122.769C1.66046 121.364 1.07837 119.814 0.600522 118.254C0.312616 113.762 0.294425 109.352 0.565166 104.943Z" fill="white"/>
<path d="M100.312 37.3438C107.686 43.2896 111.934 53.4216 111.693 64.4715C111.58 69.7856 110.411 75.0346 109.304 80.0943C108.982 81.5142 108.688 82.9579 108.394 84.4016C105.283 99.5626 104.667 115.031 106.51 130.388C107.338 137.458 109.075 140.799 111.475 145.42C112.454 147.304 113.564 149.492 114.772 152.196C116.046 155.051 117.429 157.95 118.75 160.749C120.933 165.285 123.209 169.996 125.021 174.801C129.881 187.426 132.175 201.038 134.351 214.213C134.644 216.052 134.964 217.914 135.285 219.777C134.796 219.898 134.308 220.02 133.815 220.089C133.49 218.175 133.17 216.312 132.849 214.449C130.681 201.378 128.421 187.843 123.627 175.369C121.796 170.645 119.547 165.958 117.365 161.422C116.043 158.623 114.609 155.729 113.358 152.844C112.179 150.164 111.073 148.029 110.094 146.145C107.628 141.372 105.882 137.927 104.979 130.601C103.123 115.087 103.777 99.458 106.875 84.1407C107.169 82.697 107.491 81.2771 107.809 79.8051C108.92 74.7974 110.041 69.6051 110.167 64.4473C110.421 53.8427 106.371 44.1662 99.3374 38.5057C98.2367 37.6304 97.0409 36.8685 95.8689 36.0782L94.8953 35.4544C87.7069 30.7265 81.1852 24.9161 74.9424 19.2914C71.6935 16.3721 68.3312 13.3577 64.8829 10.5608C65.3621 10.3351 65.865 10.081 66.4009 9.90284C69.6837 12.6091 72.8476 15.4571 75.9503 18.2054C82.1885 23.778 88.6535 29.5408 95.7615 34.2495L96.7351 34.8733C97.9309 35.6352 99.155 36.4209 100.312 37.3438Z" fill="white"/>
<path d="M13.6571 58.6066C14.4179 66.1026 14.3889 73.2738 13.5086 80.0206C13.0698 83.709 12.1199 87.2583 11.1892 90.7271C9.0158 98.8999 6.93387 106.618 11.5512 115.274C13.9092 119.715 17.5914 123.384 21.1556 126.906C24.2618 129.996 27.4531 133.157 29.856 136.911C32.6548 141.288 34.3242 146.263 35.9277 151.085C37.386 155.448 39.114 159.892 40.9453 164.616C46.0919 177.82 51.3792 191.432 51.2015 204.709C50.7005 204.385 50.1996 204.061 49.7224 203.709C49.6613 191.005 44.5476 177.877 39.5746 165.156C37.7433 160.432 35.987 155.964 34.5241 151.549C32.9297 146.831 31.3215 141.956 28.6124 137.703C26.2752 134.1 23.1406 130.987 20.1194 127.969C16.4701 124.375 12.703 120.635 10.2225 115.994C5.37488 106.807 7.51444 98.8475 9.74099 90.3811C10.6525 86.9928 11.5786 83.4718 12.0265 79.8877C12.7667 73.9409 12.8778 67.7079 12.3554 61.1363C12.8274 60.2285 13.2281 59.4057 13.6571 58.6066Z" fill="white"/>
<path d="M93.383 46.6424C98.3997 56.2607 100.51 66.5795 99.7891 78.1441C99.3688 84.7456 98.5133 91.175 97.6396 97.3961C96.0808 108.692 94.5998 119.378 95.7629 131.172C96.7198 140.909 101.532 147.893 106.613 155.247C108.145 157.45 109.71 159.729 111.208 162.145C118.591 173.893 121.945 187.622 124.031 198.258C124.543 200.813 125.032 203.396 125.549 206.003C126.508 210.961 127.476 216.023 128.544 221.024C128.051 221.093 127.558 221.163 127.065 221.232C125.997 216.231 125.034 211.221 124.075 206.263C123.586 203.68 123.098 201.097 122.585 198.542C120.509 188.01 117.225 174.486 109.965 162.937C108.471 160.573 106.906 158.294 105.403 156.115C100.199 148.561 95.297 141.453 94.3082 131.351C93.1552 119.373 94.6032 108.612 96.205 97.2065C97.0549 91.0138 97.9433 84.6602 98.3398 78.087C99.0318 66.7877 96.9961 56.7248 92.1064 47.358C86.8357 37.2368 79.3821 32.4796 69.9575 26.5031L67.8731 25.1887C63.3687 22.3266 59.0263 19.2141 54.8457 15.8511C55.292 15.5495 55.7428 15.3 56.1937 15.0505C60.1996 18.2187 64.3437 21.1648 68.6304 23.9408L70.7148 25.2552C80.3333 31.346 87.924 36.17 93.383 46.6424Z" fill="white"/>
<path d="M11.7623 151.045C13.7913 154.728 13.9026 159.602 13.8485 164.386C13.3212 163.461 12.8176 162.507 12.3661 161.549C12.3121 157.93 11.9544 154.442 10.4857 151.761C9.54889 150.057 8.04689 148.797 6.44067 147.546C6.15924 146.73 5.87325 145.863 5.6156 145.019C5.92733 145.28 6.29118 145.537 6.60291 145.799C8.54465 147.283 10.5431 148.815 11.7623 151.045Z" fill="white"/>
<path d="M117.938 32.2834C126.172 39.9658 129.987 52.0525 127.643 63.0762C126.94 66.4464 125.726 69.6774 124.502 72.8042C124.158 73.6746 123.843 74.5687 123.499 75.4391C116.165 95.4598 114.646 117.414 119.077 138.952C121.034 148.418 125.148 157.617 129.101 166.488C131.55 171.971 134.065 177.607 136.059 183.288C139.203 192.204 140.009 201.718 140.759 210.896C140.969 213.293 141.159 215.771 141.397 218.192C140.909 218.314 140.449 218.459 139.961 218.58C139.685 216.031 139.466 213.529 139.248 211.028C138.478 201.931 137.709 192.545 134.632 183.781C132.671 178.176 130.156 172.54 127.735 167.08C123.749 158.133 119.602 148.859 117.608 139.265C113.101 117.47 114.65 95.251 122.117 74.956C122.433 74.0618 122.777 73.1915 123.121 72.3211C124.297 69.251 125.487 66.0483 126.175 62.8107C128.38 52.2981 124.744 40.7472 116.878 33.3739C112.59 29.39 107.309 26.6485 102.169 24.0259C100.353 23.0819 98.457 22.1187 96.6367 21.1225C92.8829 19.0351 89.5095 16.4943 86.1691 14.0294C84.0902 12.4781 81.9546 10.8794 79.7806 9.44155C78.221 8.42261 76.7656 7.39452 75.3102 6.36646C75.8982 6.18373 76.4861 6.001 77.0457 5.79449C78.194 6.61309 79.366 7.40337 80.5901 8.18908C82.8208 9.67449 84.9564 11.2732 87.0352 12.8244C90.319 15.2418 93.6924 17.7827 97.309 19.8033C99.1055 20.8278 100.973 21.7672 102.813 22.6829C108.09 25.3723 113.48 28.1568 117.938 32.2834Z" fill="white"/>
<path d="M143.81 50.6592C144.214 58.5803 141.916 67.1317 137.194 75.2911C136.375 76.7283 135.593 78.0046 134.836 79.2525C131.278 85.1044 128.71 89.3729 128.219 97.2673C127.689 105.612 127.726 114.142 128.356 122.543C129.673 140.599 134.161 160.977 141.036 179.833C142.045 182.66 143.215 185.525 144.323 188.29C146.704 194.2 149.185 200.337 150.608 206.699C151.205 209.325 151.651 212.017 151.964 214.694C151.508 214.892 151.025 215.065 150.541 215.239C150.219 212.457 149.792 209.685 149.19 207.007C147.753 200.778 145.329 194.688 142.981 188.854C141.872 186.088 140.702 183.223 139.665 180.373C132.776 161.36 128.228 140.883 126.897 122.67C126.286 114.19 126.244 105.607 126.77 97.2103C127.281 88.9465 129.92 84.593 133.593 78.5472C134.326 77.3277 135.131 76.0231 135.927 74.6143C140.511 66.6769 142.732 58.4474 142.326 50.8153C141.873 42.0319 137.841 34.0606 131.5 29.4161C127.796 26.6942 123.325 25.1159 118.987 23.5523C118.173 23.2558 117.359 22.9594 116.546 22.663C104.501 18.2549 93.0786 11.9542 82.7601 4.16529C83.3764 4.00633 83.9644 3.82361 84.609 3.68843C94.5783 11.0878 105.552 17.0601 117.081 21.2769C117.894 21.5734 118.708 21.8698 119.522 22.1662C123.941 23.749 128.549 25.3941 132.418 28.2066C139.066 33.0606 143.372 41.4544 143.81 50.6592Z" fill="white"/>
<path d="M150.325 30.2899C153.84 35.9432 154.205 42.8173 154.53 48.9335C155.034 58.0012 155.057 66.6646 150.175 73.2889C148.885 75.056 147.307 76.5332 145.754 77.9821C144.347 79.3131 142.893 80.7008 141.689 82.2503C135.542 90.3244 137.028 99.2012 138.639 108.618C138.89 109.988 139.113 111.334 139.312 112.709C139.701 115.353 140.194 117.988 140.635 120.628C141.959 128.259 143.335 136.173 143.275 143.899L143.288 144.344C143.214 152.202 143.139 160.349 144.533 168.183C145.658 174.439 148.354 179.744 151.182 185.353C151.879 186.71 152.547 188.043 153.219 189.428C156.578 196.303 158.869 203.586 160.631 210.811C160.18 211.061 159.724 211.258 159.245 211.484C157.508 204.231 155.216 196.947 151.886 190.096C151.242 188.735 150.545 187.378 149.877 186.044C146.988 180.336 144.231 174.932 143.088 168.467C141.656 160.505 141.726 152.306 141.819 144.367L141.807 143.922C141.88 136.353 140.509 128.49 139.19 120.912C138.72 118.248 138.251 115.585 137.862 112.94C137.639 111.594 137.44 110.22 137.189 108.85C135.615 99.5612 133.985 89.9354 140.56 81.3512C141.807 79.6929 143.337 78.2724 144.791 76.8847C146.269 75.4687 147.823 74.0199 149.017 72.3661C153.619 66.134 153.567 57.7357 153.113 48.9524C152.807 43.0447 152.431 36.3552 149.129 31.0247C144.724 23.9001 136.257 20.7546 128.058 17.6906L126.374 17.0501C115.295 12.8726 104.655 7.71151 94.5867 1.58125C95.364 1.46073 96.1412 1.34016 96.8947 1.24798C106.425 6.92644 116.483 11.7447 126.909 15.6641L128.565 16.2807C136.91 19.5158 145.619 22.7189 150.325 30.2899Z" fill="white"/>
<path d="M53.5631 48.6292C59.6381 56.238 64.8098 63.4268 66.1413 74.4441C67.1406 82.8646 67.2722 91.571 67.3809 100.017C67.5283 111.006 67.6793 122.337 69.8548 133.097C72.3473 145.378 78.2815 156.78 84.0558 167.855C85.976 171.495 87.962 175.286 89.7634 179.067C96.2028 192.342 100.271 206.429 104.246 220.051C104.438 220.743 104.658 221.459 104.855 222.203C104.353 222.169 103.799 222.138 103.297 222.103C103.119 221.568 102.993 221.027 102.814 220.491C98.8721 206.945 94.8367 192.935 88.4301 179.735C86.605 175.983 84.6473 172.215 82.7271 168.575C76.9199 157.425 70.9244 145.923 68.3616 133.437C66.177 122.574 66.0168 111.139 65.8648 100.097C65.7607 91.7033 65.6292 82.9968 64.5869 74.6852C63.2873 64.0327 58.2618 57.0148 52.3376 49.6292C48.8897 45.3356 41.9915 38.8229 38.0999 39.6623C37.4552 39.7975 36.933 40.132 36.4575 40.6988C35.9581 41.2939 35.562 42.1689 35.2408 43.2998C34.7512 45.2071 35.099 47.3824 35.3674 49.2495L39.7262 76.8602C40.3845 81.0828 40.3414 85.393 40.3368 89.5423C40.2847 93.7483 40.2699 98.0823 40.952 102.277C42.4412 111.495 45.3259 119.855 49.6354 127.093C56.9117 139.428 66.9606 158.243 70.253 179.068C71.5559 187.356 71.778 195.897 72.0248 204.121C72.1137 207.238 72.1742 210.331 72.2585 213.396C72.2895 214.05 72.2921 214.68 72.2947 215.31C71.779 215.119 71.2917 214.951 70.7998 214.732C70.7871 214.287 70.7745 213.841 70.7618 213.396C70.6774 210.331 70.6169 207.238 70.5563 204.145C70.3378 195.945 70.0682 187.46 68.7982 179.247C65.5524 158.655 55.5976 140.016 48.3304 127.785C43.9789 120.367 40.9763 111.859 39.4689 102.433C38.7732 98.082 38.8354 93.6913 38.8592 89.4615C38.8922 85.336 38.916 81.1062 38.2952 77.0116L33.9364 49.401C33.6022 47.382 33.2407 45.0504 33.8072 42.8213C34.5173 40.1333 35.849 38.5463 37.7829 38.1408C44.0209 36.8072 53.4735 48.5058 53.5631 48.6292Z" fill="white"/>
<path d="M26.3143 40.0106C29.8989 54.2707 31.8907 68.9327 32.1817 83.6647C32.2214 85.9195 32.2136 88.231 32.1627 90.6513C32.0685 98.8786 31.945 107.371 34.7577 114.609C36.4857 119.053 39.5597 123.274 42.5962 127.367C44.7461 130.33 47.0093 133.389 48.7559 136.544C52.9784 144.289 56.5654 152.273 59.366 160.273C63.4944 172.044 65.4233 185.687 65.0488 199.716C64.9309 203.77 64.7653 207.881 64.5952 211.94C64.1034 211.72 63.6353 211.472 63.1434 211.253C63.308 207.431 63.4396 203.533 63.5758 199.687C63.9923 185.839 62.0533 172.38 57.9907 160.761C55.223 152.837 51.6972 144.952 47.4793 137.26C45.7939 134.204 43.5874 131.193 41.4375 128.23C38.3681 124.061 35.2091 119.768 33.439 115.144C30.5231 107.627 30.633 98.9779 30.7418 90.618C30.7689 88.2261 30.8051 85.9384 30.7654 83.6836C30.4633 69.4252 28.593 55.2515 25.1774 41.423C25.5058 40.9741 25.91 40.4924 26.3143 40.0106Z" fill="white"/>
<path d="M113.741 222.319C112.206 212.868 109.802 201 104.904 189.743C101.295 181.498 96.8206 173.881 92.4736 166.515C83.2898 150.985 74.6526 136.301 74.5857 116.927C74.5649 111.887 74.8715 106.688 75.1983 101.118C76.3246 81.8771 77.5242 61.9729 64.9891 47.1567C61.0073 42.4634 56.2984 38.4639 51.7596 34.607C48.6943 31.9867 45.492 29.2996 42.5887 26.4288C42.2157 26.0676 41.8382 25.6542 41.4277 25.1649C41.0619 25.4858 40.6678 25.7828 40.302 26.1037C40.7408 26.6167 41.1512 27.106 41.5525 27.491C44.5125 30.4094 47.691 33.1248 50.8084 35.7406C55.3189 39.5736 59.9994 43.5494 63.8679 48.1476C76.0492 62.5221 74.8744 82.109 73.749 101.061C73.4223 106.631 73.0919 111.859 73.1411 116.922C73.2161 136.689 81.9712 151.521 91.2254 167.254C95.5678 174.568 100.013 182.162 103.59 190.331C108.384 201.307 110.77 212.968 112.273 222.342L113.741 222.319Z" fill="white"/>
<path d="M20.4478 47.6924C22.2581 55.7793 23.518 64.177 24.1469 72.8662C24.5599 78.1869 24.2726 83.3062 24.0191 88.2126C23.4232 99.1096 22.853 109.401 29.8124 120.214C31.8479 123.371 34.187 126.396 36.4411 129.35C38.9265 132.546 41.4731 135.842 43.6448 139.355C56.5909 160.07 59.0002 184.306 57.7621 208.572C57.294 208.324 56.7975 208.053 56.3249 207.753C57.4477 183.969 55.0081 160.287 42.3966 140.094C40.2578 136.658 37.7395 133.385 35.2587 130.241C32.9762 127.264 30.6088 124.215 28.5166 121.01C21.3122 109.798 21.8642 99.2985 22.4894 88.1363C22.7712 83.2538 23.0394 78.2149 22.6355 72.9984C22.0284 64.8588 20.9183 56.9732 19.2532 49.3462C19.6767 48.784 20.0481 48.2263 20.4478 47.6924Z" fill="white"/>
<path d="M118.785 222.061C118.451 220.042 118.174 218.07 117.868 216.075C116.219 205.033 114.486 193.631 110.458 183.007C109.12 179.422 107.387 175.214 104.847 171.393C103.207 168.858 101.188 166.487 99.2296 164.217C84.4248 146.868 78.6008 125.32 81.8644 100.194C82.2436 97.3244 82.7179 94.3419 83.2059 91.5158C84.6708 82.7484 86.1368 73.6921 84.6365 64.9479C81.6259 47.6441 68.4917 37.6856 54.5924 27.0851C52.0034 25.1059 49.3861 23.1029 46.8163 21.0432C47.2626 20.7416 47.6568 20.4445 48.0792 20.1712C50.5073 22.112 53.0113 24.0199 55.4869 25.904C69.0178 36.1954 83.0021 46.8672 86.1105 64.6876C87.6857 73.6879 86.153 82.8813 84.6971 91.7529C84.2091 94.5791 83.7303 97.5094 83.3511 100.379C80.1269 125.055 85.8669 146.243 100.379 163.249C102.342 165.572 104.361 167.943 106.086 170.549C108.715 174.494 110.482 178.777 111.853 182.439C115.946 193.214 117.688 204.721 119.318 215.843C119.628 217.891 119.91 219.914 120.273 221.957L118.785 222.061Z" fill="white"/>
<path d="M155.235 19.1473C158.029 21.9751 159.406 26.6075 160.628 30.6758C160.961 31.7758 161.265 32.852 161.613 33.8195C163.273 38.6896 165.063 44.4413 165.724 50.5018C166.712 59.3959 164.989 67.6082 160.834 73.5386C158.968 76.2227 156.71 78.626 154.523 80.9443C148.519 87.3516 143.332 92.8996 146.943 102.352C154.548 122.352 157.856 144.252 156.495 165.614L156.429 166.959C156.18 170.421 155.965 173.958 156.626 177.314C157.278 180.566 158.811 183.688 160.279 186.658L160.919 187.967C163.807 193.964 166.296 200.206 168.273 206.598C167.822 206.848 167.4 207.121 166.949 207.37C164.967 200.926 162.497 194.604 159.581 188.583L158.941 187.274C157.412 184.204 155.846 181.006 155.176 177.546C154.444 173.986 154.703 170.34 154.918 166.803L155.008 165.429C156.335 144.28 153.05 122.641 145.539 102.816C141.614 92.4721 147.381 86.3483 153.432 79.8843C155.571 77.6227 157.806 75.2477 159.6 72.6486C163.541 66.9733 165.169 59.1633 164.236 50.6057C163.589 44.7016 161.832 39.0258 160.181 34.2599C159.833 33.2924 159.501 32.1923 159.192 31.064C158.012 27.1759 156.677 22.7237 154.142 20.162C147.316 13.2754 136.232 9.0458 127.296 5.65243L126.426 5.30845C123.9 4.34781 121.241 3.37252 118.45 2.38256C116.633 1.72747 114.788 1.04857 112.915 0.345923C114.492 0.365486 116.069 0.385077 117.656 0.508877C118.091 0.680874 118.526 0.852855 118.985 0.996513C121.804 2.01026 124.463 2.98555 127.018 3.96997L127.888 4.31395C136.909 7.77865 148.182 12.0705 155.235 19.1473Z" fill="white"/>
<path d="M166.03 14.7361C167.105 16.2176 168.085 17.8125 168.974 19.5728C172.739 26.8848 174.619 35.1756 176.087 42.3471C177.588 49.5946 178.973 57.3248 177.957 64.9237C176.864 73.1334 172.952 79.7515 166.662 84.0831L166.486 84.1773C160.442 88.3298 156.108 91.3087 155.451 99.1125C154.957 105.169 156.865 111.068 158.995 117.105L160.177 120.415C164.644 132.76 169.229 145.541 167.938 158.704C167.675 161.091 167.278 163.462 166.825 165.787C166.202 169.176 165.565 172.698 165.582 176.189C165.636 185.217 169.918 193.639 174.073 201.81C174.2 202.061 174.355 202.337 174.459 202.616C174.064 202.914 173.642 203.187 173.219 203.46C173.06 203.133 172.9 202.805 172.74 202.478C168.495 194.184 164.119 185.586 164.085 176.189C164.059 172.593 164.716 168.991 165.334 165.549C165.739 163.282 166.188 160.906 166.404 158.576C167.674 145.782 163.104 133.157 158.726 120.936L157.543 117.626C155.319 111.413 153.37 105.334 153.945 99.0079C154.647 90.5174 159.48 87.2324 165.595 82.9949L165.742 82.8769C171.686 78.7857 175.393 72.5269 176.419 64.7433C177.4 57.3574 176.029 49.7835 174.566 42.6641C173.079 35.573 171.212 27.4385 167.565 20.2738C166.139 17.4838 164.485 15.0814 162.673 12.9816C162.73 13.0292 162.81 13.0484 162.867 13.096L166.03 14.7361Z" fill="white"/>
<path d="M178.433 22.9204C184.521 36.6727 187.406 48.9457 187.221 60.3321C186.996 72.1683 183.589 80.948 176.785 87.2152C175.787 88.1165 174.709 88.9986 173.654 89.8523C170.686 92.239 167.917 94.5032 166.551 97.8001C165.08 101.395 165.753 105.485 166.596 109.718C168.711 120.089 171.252 130.527 174.088 140.73L174.271 141.318C175.563 145.879 176.864 150.545 176.681 155.366C176.609 157.237 176.319 159.022 176.028 160.806C175.806 162.165 175.588 163.576 175.474 164.977C174.548 175.404 179.612 185.255 184.671 194.764C184.305 195.085 183.916 195.434 183.522 195.732C178.278 185.923 173.008 175.802 173.992 164.844C174.13 163.414 174.343 161.952 174.589 160.565C174.884 158.832 175.174 157.047 175.232 155.309C175.409 150.725 174.117 146.163 172.863 141.73L172.704 141.114C169.787 130.892 167.27 120.425 165.15 110.002C164.237 105.565 163.569 101.238 165.165 97.2649C166.66 93.6417 169.723 91.1416 172.716 88.7266C173.746 87.9012 174.824 87.0191 175.798 86.1461C182.289 80.1952 185.543 71.7701 185.753 60.3555C185.954 48.5476 182.757 35.7241 176.024 21.1881L176.08 21.2356L178.433 22.9204Z" fill="white"/>
<path d="M186.398 29.6026L188.92 32.0078C192.263 40.512 195.213 49.3133 196.02 58.5384C197.202 71.7482 193.382 83.6101 185.603 91.0392C184.876 91.733 184.12 92.4031 183.336 93.0494C181.455 94.6582 179.674 96.2058 178.459 98.2289C175.134 103.745 177.149 108.768 179.267 114.071C179.972 115.821 180.709 117.647 181.267 119.516C184.025 128.833 185.257 138.414 184.917 148.029C184.839 149.847 184.734 151.642 184.604 153.465C184.364 157.32 184.085 161.336 184.399 165.221C185.068 173.171 188.117 180.704 191.588 187.962C191.255 188.359 190.841 188.737 190.48 189.11C186.878 181.547 183.593 173.72 182.911 165.325C182.588 161.335 182.863 157.268 183.099 153.361C183.204 151.566 183.31 149.771 183.415 147.976C183.769 138.518 182.551 129.093 179.806 119.932C179.282 118.14 178.549 116.366 177.844 114.616C175.665 109.213 173.387 103.583 177.107 97.4807C178.436 95.2637 180.388 93.5698 182.27 91.961C183.001 91.3193 183.785 90.6731 184.488 90.0076C191.977 82.8664 195.602 71.468 194.461 58.7272C193.676 48.5549 190.128 38.9133 186.398 29.6026Z" fill="white"/>
<path d="M198.423 42.4941L200.856 45.6949C202.034 50.1608 203.004 54.645 203.534 59.194C205.127 72.6042 202.025 85.1648 194.962 93.5816C194.229 94.5122 193.412 95.3716 192.623 96.2546C189.152 100.103 185.586 104.065 186.261 108.785C186.567 110.78 187.65 112.655 188.729 114.478L189.219 115.275C195.717 126.523 198.261 140.296 196.153 153.111C195.911 154.551 195.622 156.046 195.299 157.466C194.582 160.969 193.849 164.604 194.003 168.162C194.191 172.715 195.806 177.064 197.763 181.12C197.43 181.517 197.073 181.942 196.716 182.367C194.548 177.988 192.716 173.264 192.511 168.214C192.339 164.448 193.114 160.703 193.851 157.12C194.145 155.677 194.439 154.233 194.681 152.794C196.741 140.324 194.304 126.883 187.938 115.939L187.476 115.165C186.336 113.243 185.163 111.245 184.83 108.937C184.043 103.544 187.875 99.3221 191.56 95.2184C192.35 94.3353 193.115 93.4806 193.852 92.6021C200.653 84.4971 203.636 72.367 202.074 59.3217C201.397 53.6827 200.118 48.0702 198.423 42.4941Z" fill="white"/>
<path d="M207.555 55.9534L209.654 59.8399C209.983 62.0956 210.26 64.356 210.508 66.5925C211.348 74.3967 208.458 84.2865 201.996 95.9594C201.61 96.6496 201.224 97.3399 200.79 98.0868C199.075 100.994 197.131 104.289 196.794 107.338C196.457 110.387 197.742 114.266 198.881 117.685C199.275 118.885 199.664 120.033 199.94 121.085L200.319 122.418C202.875 131.516 205.509 140.922 204.013 150.533C203.776 152.024 203.435 153.524 203.141 154.968C202.65 157.164 202.145 159.493 202 161.738C201.803 165.484 202.591 169.091 203.943 172.544C203.619 173.045 203.296 173.546 202.943 174.023C201.337 170.067 200.323 165.981 200.546 161.628C200.677 159.227 201.206 156.87 201.716 154.594C202.038 153.174 202.356 151.702 202.546 150.267C203.965 140.979 201.396 131.724 198.883 122.806L198.504 121.474C198.204 120.449 197.843 119.326 197.425 118.154C196.249 114.607 194.898 110.576 195.284 107.182C195.646 103.815 197.656 100.383 199.466 97.3623C199.876 96.6438 200.314 95.949 200.677 95.2871C207.006 83.8884 209.818 74.3204 209.005 66.829C208.691 63.2327 208.192 59.6264 207.555 55.9534Z" fill="white"/>
<path d="M211.606 158.98C211.238 155.677 211.301 152.495 211.407 149.203C211.458 146.783 211.528 144.282 211.409 141.719C210.952 132.595 209.428 123.879 206.855 115.78C206.705 115.268 206.498 114.708 206.32 114.172C205.082 110.526 203.722 106.391 205.175 102.587C206.055 100.331 207.516 98.1285 208.93 95.9828C209.902 94.4799 210.83 93.0857 211.574 91.6814C214.272 86.5087 215.764 81.0476 216.394 75.3468C216.751 76.4185 217.107 77.4903 217.439 78.5903C216.647 83.3337 215.186 87.9518 212.893 92.3538C212.13 93.8385 211.13 95.3177 210.183 96.7923C208.816 98.8813 207.402 101.027 206.59 103.146C205.328 106.434 206.613 110.313 207.776 113.704C207.982 114.263 208.161 114.799 208.339 115.335C210.973 123.534 212.511 132.406 212.977 141.634C213.101 144.249 213.035 146.802 212.96 149.251C212.905 151.619 212.84 153.883 212.965 156.209L211.606 158.98Z" fill="white"/>
<path d="M220.435 131.712C219.587 127.428 218.507 123.189 217.171 119.026L216.698 117.518C215.479 113.791 214.251 109.96 214.345 105.934C214.497 100.459 216.607 95.4687 218.656 90.6679C219.023 89.7692 219.391 88.8705 219.783 87.9434C219.988 88.792 220.142 89.6451 220.323 90.522C220.237 90.7396 220.128 90.9855 220.042 91.2031C218.036 95.8951 215.992 100.748 215.842 105.934C215.749 109.671 216.944 113.427 218.126 117.026L218.599 118.534C219.574 121.573 220.392 124.626 221.111 127.741L220.435 131.712Z" fill="white"/>
<path d="M50.6386 65.0078C49.4134 64.5111 48.158 64.5684 47.2088 65.1241C45.3625 66.2309 45.1507 68.6128 45.1449 70.3464C45.1588 77.4088 45.9874 84.4787 47.6362 91.3193C48.8786 96.5149 51.7379 99.7835 54.7041 99.4714C55.7181 99.3565 56.5677 98.862 57.2573 98.0402C58.4938 96.5665 59.2222 94.087 59.3044 90.8237C59.4816 83.2456 57.7169 75.6799 54.211 68.923C53.6132 67.7936 52.8693 66.4932 51.6598 65.5749C51.3526 65.3655 50.9933 65.1606 50.6386 65.0078ZM52.906 69.6148C56.3132 76.1441 58.0031 83.4537 57.8313 90.795C57.7225 94.9534 56.4244 97.8242 54.5526 98.0405C52.733 98.2522 50.2685 95.8944 49.1056 91.007C47.4659 84.2706 46.6227 77.3332 46.6179 70.3751C46.6218 69.2193 46.7264 67.7134 47.4635 66.8349C47.6062 66.6648 47.7772 66.5186 47.9766 66.3961C48.5509 66.057 49.3134 66.0691 50.1271 66.3655C50.3731 66.4753 50.5952 66.6134 50.8457 66.7753C51.748 67.4841 52.3979 68.6089 52.906 69.6148Z" fill="white"/>
<path d="M89.0431 201.162L89.202 201.778C91.0173 208.42 92.8903 214.821 94.7779 221.089C94.2476 221.031 93.7127 220.92 93.1778 220.809C91.3368 214.773 89.558 208.548 87.7893 202.138L87.602 201.498C84.7489 190.797 82.5121 188.341 81.1296 188.147C80.1211 188.025 79.1077 189.348 78.4976 190.478C77.3826 192.44 77.5923 194.837 77.9382 197.59L80.6162 217.996C80.1052 217.856 79.5941 217.717 79.0546 217.554L76.4597 197.798C76.1548 195.514 75.7441 192.32 77.2021 189.777C78.4791 187.565 79.8846 186.523 81.343 186.684C84.8512 187.165 87.2936 194.671 89.0431 201.162Z" fill="white"/>
</g>
</g>
<defs>
<clipPath id="clip0">
<rect width="222" height="222" fill="white"/>
</clipPath>
</defs>
</svg>
