<svg width="265" height="265" viewBox="0 0 265 265" fill="none" xmlns="http://www.w3.org/2000/svg">
<g clip-path="url(#clip0)">
<g opacity="0.22">
<path d="M0.388065 125.058C0.329659 132.272 0.994867 139.518 4.1467 145.448C7.00069 150.841 11.1351 155.463 15.191 159.904C19.1847 164.35 23.3137 168.91 26.2637 174.325C30.0058 181.27 31.5572 188.97 33.0868 196.422C34.2544 202.244 35.4438 208.315 37.7487 213.881C38.461 215.574 39.1733 217.267 39.8911 219.022C41.7085 223.314 43.5029 227.702 45.0823 232.14C44.1635 231.312 43.2447 230.483 42.3259 229.654C41.0933 226.314 39.6741 222.99 38.2942 219.757C37.5764 218.002 36.8302 216.281 36.1179 214.588C33.7682 208.869 32.545 202.77 31.3665 196.823C29.91 189.491 28.3696 181.915 24.7453 175.242C21.9077 170.036 17.8463 165.533 13.8919 161.177C9.79675 156.646 5.56084 151.938 2.59448 146.336C1.69551 144.66 1.00067 142.808 0.430269 140.946C0.0865991 135.585 0.0648841 130.321 0.388065 125.058Z" fill="white"/>
<path d="M119.462 44.365C128.264 51.4626 133.334 63.557 133.046 76.7471C132.912 83.0905 131.516 89.3562 130.195 95.3959C129.811 97.0909 129.46 98.8142 129.109 100.537C125.395 118.635 124.66 137.099 126.859 155.431C127.848 163.871 129.921 167.858 132.786 173.375C133.955 175.624 135.28 178.235 136.722 181.462C138.243 184.871 139.894 188.332 141.471 191.673C144.076 197.087 146.794 202.711 148.957 208.446C154.758 223.517 157.496 239.765 160.094 255.492C160.443 257.687 160.825 259.91 161.208 262.134C160.625 262.279 160.042 262.424 159.454 262.506C159.066 260.221 158.683 257.997 158.301 255.774C155.713 240.171 153.014 224.014 147.292 209.124C145.106 203.485 142.422 197.89 139.817 192.476C138.24 189.134 136.527 185.68 135.035 182.237C133.626 179.038 132.306 176.489 131.138 174.24C128.194 168.542 126.111 164.43 125.032 155.685C122.816 137.166 123.598 118.51 127.295 100.226C127.646 98.5027 128.031 96.8078 128.41 95.0506C129.736 89.0731 131.075 82.875 131.226 76.7182C131.529 64.0597 126.694 52.5089 118.298 45.752C116.984 44.7072 115.557 43.7977 114.158 42.8544L112.996 42.1097C104.415 36.4661 96.63 29.5303 89.1781 22.8162C85.2999 19.3314 81.2863 15.7332 77.1701 12.3946C77.7421 12.1251 78.3425 11.8218 78.9821 11.6091C82.9007 14.8396 86.6775 18.2392 90.3811 21.5199C97.8276 28.1717 105.545 35.0507 114.029 40.6714L115.192 41.4161C116.619 42.3256 118.08 43.2635 119.462 44.365Z" fill="white"/>
<path d="M16.0179 69.7459C16.9262 78.6938 16.8915 87.254 15.8407 95.3075C15.3169 99.7103 14.183 103.947 13.0721 108.088C10.4777 117.844 7.99251 127.057 13.5041 137.389C16.3189 142.691 20.7142 147.07 24.9688 151.275C28.6767 154.962 32.486 158.735 35.3544 163.217C38.6952 168.442 40.688 174.38 42.6022 180.137C44.3429 185.344 46.4056 190.649 48.5916 196.288C54.735 212.05 61.0464 228.299 60.8343 244.146C60.2363 243.76 59.6383 243.373 59.0686 242.953C58.9957 227.788 52.8915 212.117 46.9554 196.933C44.7694 191.294 42.6729 185.96 40.9267 180.691C39.0234 175.058 37.1038 169.239 33.8699 164.162C31.08 159.861 27.3383 156.145 23.7319 152.543C19.3758 148.253 14.879 143.788 11.9181 138.249C6.13156 127.283 8.68552 117.781 11.3433 107.675C12.4313 103.63 13.5369 99.4272 14.0716 95.1488C14.9551 88.0503 15.0877 80.61 14.4641 72.7656C15.0275 71.6819 15.5058 70.6997 16.0179 69.7459Z" fill="white"/>
<path d="M111.187 55.4644C117.175 66.9456 119.695 79.2631 118.834 93.0675C118.332 100.948 117.311 108.622 116.268 116.048C114.407 129.533 112.639 142.288 114.028 156.366C115.17 167.989 120.914 176.326 126.98 185.105C128.808 187.734 130.676 190.455 132.465 193.339C141.277 207.362 145.281 223.75 147.771 236.447C148.383 239.496 148.966 242.58 149.583 245.692C150.728 251.61 151.883 257.652 153.158 263.622C152.569 263.704 151.981 263.787 151.393 263.87C150.118 257.901 148.968 251.92 147.823 246.002C147.24 242.919 146.657 239.835 146.045 236.786C143.566 224.214 139.646 208.069 130.98 194.283C129.197 191.462 127.329 188.741 125.534 186.14C119.323 177.123 113.471 168.639 112.291 156.581C110.915 142.282 112.643 129.436 114.555 115.822C115.57 108.43 116.63 100.846 117.104 92.9995C117.93 79.5116 115.5 67.4996 109.663 56.3186C103.371 44.237 94.474 38.5584 83.224 31.4243L80.7358 29.8553C75.3591 26.4389 70.1755 22.7236 65.1853 18.7092C65.718 18.3491 66.2561 18.0513 66.7943 17.7534C71.5761 21.5353 76.5228 25.052 81.6399 28.3657L84.128 29.9347C95.6094 37.2053 104.67 42.9636 111.187 55.4644Z" fill="white"/>
<path d="M13.7603 180.09C16.1823 184.485 16.3152 190.304 16.2506 196.014C15.6211 194.91 15.02 193.771 14.481 192.627C14.4165 188.307 13.9897 184.144 12.2364 180.944C11.1182 178.91 9.32525 177.406 7.40792 175.912C7.07198 174.939 6.7306 173.903 6.42305 172.895C6.79516 173.207 7.22948 173.514 7.60159 173.826C9.91942 175.598 12.3049 177.427 13.7603 180.09Z" fill="white"/>
<path d="M140.498 38.3243C150.328 47.4948 154.881 61.9225 152.083 75.0814C151.244 79.1043 149.794 82.9612 148.334 86.6936C147.924 87.7326 147.547 88.7999 147.136 89.8389C138.382 113.737 136.568 139.944 141.858 165.654C144.195 176.953 149.105 187.933 153.824 198.522C156.747 205.068 159.75 211.796 162.13 218.577C165.882 229.22 166.844 240.577 167.74 251.532C167.99 254.393 168.217 257.351 168.502 260.242C167.919 260.387 167.37 260.56 166.787 260.705C166.458 257.662 166.197 254.676 165.935 251.689C165.017 240.83 164.099 229.627 160.426 219.165C158.085 212.474 155.083 205.747 152.193 199.229C147.435 188.549 142.485 177.479 140.104 166.027C134.725 140.011 136.573 113.488 145.487 89.2622C145.864 88.1948 146.275 87.1559 146.685 86.1169C148.089 82.4522 149.51 78.6291 150.331 74.7645C152.963 62.2157 148.623 48.4275 139.233 39.6261C134.115 34.8706 127.81 31.5981 121.675 28.4675C119.508 27.3406 117.244 26.1908 115.071 25.0018C110.59 22.51 106.564 19.4771 102.576 16.5347C100.095 14.6831 97.5455 12.7747 94.9504 11.0583C93.0887 9.84202 91.3514 8.6148 89.6141 7.38762C90.316 7.16949 91.0178 6.95138 91.6858 6.70486C93.0565 7.68202 94.4555 8.62537 95.9167 9.56325C98.5794 11.3364 101.129 13.2448 103.61 15.0964C107.53 17.982 111.557 21.015 115.874 23.427C118.018 24.6499 120.248 25.7713 122.444 26.8644C128.743 30.0747 135.177 33.3985 140.498 38.3243Z" fill="white"/>
<path d="M171.38 60.2596C171.862 69.7149 169.119 79.9226 163.483 89.6625C162.505 91.378 161.572 92.9015 160.668 94.3911C156.421 101.376 153.356 106.472 152.77 115.895C152.137 125.856 152.181 136.039 152.933 146.066C154.505 167.619 159.862 191.944 168.069 214.453C169.273 217.827 170.669 221.247 171.993 224.548C174.835 231.602 177.796 238.929 179.494 246.522C180.208 249.657 180.739 252.87 181.113 256.066C180.57 256.302 179.992 256.509 179.415 256.716C179.03 253.396 178.521 250.087 177.803 246.89C176.086 239.454 173.194 232.185 170.39 225.221C169.067 221.92 167.671 218.5 166.433 215.098C158.209 192.402 152.78 167.958 151.191 146.218C150.462 136.095 150.412 125.85 151.04 115.827C151.65 105.963 154.8 100.766 159.184 93.5492C160.06 92.0934 161.02 90.5362 161.97 88.8545C167.442 79.3798 170.093 69.5563 169.609 60.4459C169.068 49.9613 164.255 40.4461 156.686 34.902C152.264 31.6528 146.927 29.7688 141.749 27.9023C140.778 27.5485 139.806 27.1947 138.835 26.8408C124.457 21.579 110.823 14.0579 98.5056 4.76034C99.2412 4.5706 99.9431 4.35249 100.713 4.19113C112.613 13.0237 125.712 20.1527 139.474 25.1863C140.445 25.5402 141.416 25.894 142.388 26.2478C147.662 28.1373 153.163 30.101 157.782 33.4582C165.718 39.2523 170.857 49.2719 171.38 60.2596Z" fill="white"/>
<path d="M179.157 35.9451C183.352 42.6934 183.788 50.899 184.176 58.1998C184.778 69.0238 184.805 79.3653 178.977 87.2725C177.438 89.382 175.555 91.1453 173.7 92.8748C172.021 94.4636 170.285 96.12 168.848 97.9697C161.511 107.608 163.284 118.204 165.208 129.445C165.508 131.08 165.774 132.687 166.011 134.327C166.475 137.484 167.064 140.63 167.59 143.781C169.171 152.889 170.812 162.337 170.742 171.559L170.757 172.09C170.668 181.47 170.579 191.195 172.243 200.547C173.586 208.015 176.805 214.347 180.18 221.042C181.011 222.662 181.809 224.253 182.612 225.907C186.621 234.113 189.356 242.807 191.459 251.431C190.92 251.729 190.377 251.965 189.805 252.234C187.731 243.576 184.996 234.882 181.02 226.704C180.251 225.079 179.42 223.459 178.622 221.867C175.174 215.054 171.882 208.603 170.518 200.886C168.808 191.381 168.893 181.594 169.004 172.118L168.989 171.587C169.076 162.552 167.44 153.166 165.865 144.12C165.304 140.94 164.744 137.761 164.28 134.604C164.014 132.997 163.776 131.357 163.477 129.722C161.598 118.633 159.652 107.143 167.501 96.8964C168.989 94.9169 170.815 93.2213 172.551 91.5648C174.315 89.8746 176.17 88.1451 177.596 86.171C183.089 78.7319 183.026 68.7069 182.485 58.2223C182.119 51.1704 181.671 43.1853 177.729 36.8223C172.472 28.3177 162.363 24.563 152.577 20.9055L150.567 20.1409C137.342 15.1544 124.641 8.99358 112.623 1.67595C113.55 1.5321 114.478 1.38817 115.378 1.27814C126.753 8.05645 138.76 13.8079 151.206 18.4865L153.182 19.2226C163.143 23.0842 173.539 26.9077 179.157 35.9451Z" fill="white"/>
<path d="M63.655 57.8361C70.9067 66.9186 77.0802 75.4998 78.6696 88.651C79.8624 98.7025 80.0194 109.095 80.1492 119.177C80.3251 132.295 80.5054 145.82 83.1023 158.664C86.0775 173.324 93.1611 186.935 100.054 200.155C102.346 204.499 104.717 209.025 106.867 213.539C114.554 229.385 119.41 246.2 124.155 262.46C124.384 263.286 124.647 264.141 124.881 265.03C124.282 264.988 123.621 264.952 123.022 264.91C122.809 264.271 122.658 263.625 122.446 262.986C117.74 246.816 112.923 230.092 105.275 214.336C103.097 209.856 100.76 205.359 98.4678 201.015C91.5358 187.704 84.3791 173.974 81.3199 159.071C78.7121 146.103 78.5209 132.453 78.3395 119.273C78.2152 109.253 78.0582 98.8603 76.8141 88.9388C75.2627 76.223 69.2639 67.8459 62.1922 59.0298C58.0765 53.9045 49.8422 46.1304 45.1968 47.1324C44.4273 47.2937 43.804 47.6931 43.2362 48.3696C42.6402 49.08 42.1673 50.1244 41.7839 51.4745C41.1995 53.7511 41.6147 56.3477 41.9351 58.5765L47.1381 91.5351C47.9239 96.5756 47.8725 101.721 47.867 106.674C47.8047 111.694 47.7872 116.868 48.6013 121.874C50.379 132.878 53.8224 142.858 58.9666 151.497C67.6522 166.222 79.6475 188.681 83.5776 213.539C85.1328 223.433 85.3979 233.628 85.6925 243.445C85.7987 247.166 85.8709 250.858 85.9716 254.517C86.0085 255.297 86.0116 256.049 86.0147 256.801C85.3992 256.573 84.8175 256.373 84.2304 256.111C84.2152 255.579 84.2001 255.048 84.1849 254.516C84.0842 250.858 84.0119 247.165 83.9396 243.473C83.6789 233.685 83.357 223.557 81.8411 213.753C77.9666 189.173 66.0836 166.923 57.4089 152.323C52.2145 143.468 48.6304 133.313 46.831 122.061C46.0005 116.867 46.0748 111.626 46.1032 106.577C46.1426 101.653 46.171 96.6035 45.43 91.7158L40.2269 58.7573C39.828 56.3473 39.3964 53.564 40.0727 50.9032C40.9203 47.6946 42.5099 45.8002 44.8184 45.3161C52.2647 43.7243 63.5481 57.6887 63.655 57.8361Z" fill="white"/>
<path d="M31.1285 47.5482C35.4074 64.5703 37.785 82.0722 38.1324 99.6576C38.1798 102.349 38.1704 105.108 38.1097 107.997C37.9972 117.818 37.8498 127.956 41.2073 136.595C43.27 141.9 46.9393 146.939 50.564 151.825C53.1303 155.362 55.8319 159.012 57.9168 162.779C62.9571 172.024 67.2389 181.554 70.582 191.104C75.5099 205.155 77.8124 221.441 77.3655 238.186C77.2247 243.026 77.0271 247.933 76.824 252.778C76.2369 252.516 75.6781 252.22 75.091 251.958C75.2874 247.396 75.4446 242.743 75.6072 238.152C76.1043 221.621 73.7897 205.556 68.9403 191.687C65.6365 182.228 61.4278 172.816 56.3929 163.634C54.3811 159.986 51.7472 156.392 49.1809 152.855C45.517 147.878 41.7461 142.754 39.6332 137.234C36.1525 128.261 36.2836 117.937 36.4136 107.958C36.4459 105.102 36.4891 102.372 36.4417 99.6802C36.0811 82.6601 33.8486 65.741 29.7714 49.2341C30.1634 48.6983 30.6459 48.1233 31.1285 47.5482Z" fill="white"/>
<path d="M135.488 265.167C133.655 253.887 130.786 239.719 124.94 226.282C120.631 216.441 115.29 207.348 110.101 198.555C99.1387 180.017 88.8285 162.489 88.7487 139.363C88.7239 133.347 89.0898 127.14 89.4799 120.492C90.8243 97.524 92.2563 73.7646 77.2933 56.0787C72.5403 50.4763 66.9193 45.7021 61.5013 41.0982C57.8424 37.9704 54.0198 34.7628 50.5542 31.336C50.109 30.9048 49.6583 30.4113 49.1684 29.8273C48.7317 30.2103 48.2613 30.5649 47.8246 30.9479C48.3483 31.5603 48.8382 32.1444 49.3173 32.604C52.8506 36.0876 56.6448 39.329 60.3659 42.4513C65.7501 47.0268 71.3372 51.7726 75.955 57.2615C90.4956 74.4202 89.0932 97.8008 87.7499 120.424C87.3599 127.072 86.9656 133.313 87.0242 139.357C87.1138 162.952 97.5647 180.657 108.611 199.438C113.795 208.168 119.101 217.233 123.371 226.984C129.094 240.087 131.942 254.005 133.736 265.195L135.488 265.167Z" fill="white"/>
<path d="M24.1252 56.718C26.2863 66.3713 27.7902 76.3954 28.5409 86.7676C29.0339 93.1189 28.6909 99.2298 28.3883 105.086C27.677 118.094 26.9963 130.378 35.3036 143.287C37.7334 147.055 40.5256 150.666 43.2163 154.192C46.1831 158.007 49.223 161.941 51.8153 166.134C67.2689 190.861 70.1448 219.792 68.6669 248.758C68.1081 248.463 67.5156 248.138 66.9514 247.78C68.2916 219.39 65.3795 191.121 50.3253 167.017C47.7722 162.915 44.7662 159.009 41.8049 155.256C39.0803 151.701 36.2543 148.062 33.7569 144.237C25.1572 130.853 25.816 118.32 26.5623 104.995C26.8987 99.1672 27.2188 93.1523 26.7367 86.9255C26.012 77.2093 24.687 67.7963 22.6993 58.6921C23.2048 58.021 23.6481 57.3553 24.1252 56.718Z" fill="white"/>
<path d="M141.51 264.86C141.111 262.45 140.78 260.097 140.415 257.715C138.447 244.534 136.378 230.923 131.57 218.242C129.973 213.962 127.904 208.94 124.872 204.378C122.914 201.352 120.504 198.522 118.167 195.812C100.494 175.103 93.5423 149.381 97.438 119.388C97.8906 115.963 98.4568 112.403 99.0393 109.03C100.788 98.5642 102.538 87.7538 100.747 77.3159C97.1533 56.6605 81.4752 44.7732 64.8837 32.1196C61.7933 29.757 58.669 27.366 55.6015 24.9073C56.1342 24.5473 56.6047 24.1927 57.1091 23.8664C60.0074 26.1832 62.9964 28.4606 65.9515 30.7097C82.1032 42.9943 98.7961 55.7332 102.507 77.0052C104.387 87.7488 102.557 98.7228 100.819 109.313C100.237 112.686 99.6653 116.184 99.2126 119.609C95.364 149.065 102.216 174.357 119.539 194.657C121.882 197.43 124.292 200.26 126.351 203.371C129.49 208.08 131.598 213.193 133.235 217.563C138.121 230.426 140.201 244.161 142.146 257.438C142.516 259.882 142.853 262.297 143.286 264.736L141.51 264.86Z" fill="white"/>
<path d="M185.016 22.6439C188.352 26.0194 189.995 31.5491 191.454 36.4053C191.851 37.7184 192.215 39.003 192.629 40.1579C194.611 45.9714 196.747 52.8371 197.537 60.0714C198.717 70.6882 196.659 80.4911 191.699 87.5701C189.472 90.7741 186.776 93.6429 184.166 96.4103C176.999 104.059 170.808 110.681 175.118 121.964C184.196 145.839 188.145 171.98 186.52 197.48L186.441 199.085C186.145 203.217 185.887 207.44 186.676 211.446C187.455 215.327 189.285 219.054 191.037 222.599L191.801 224.163C195.248 231.321 198.22 238.772 200.58 246.402C200.042 246.7 199.538 247.026 198.999 247.324C196.634 239.632 193.685 232.085 190.204 224.898L189.44 223.335C187.615 219.67 185.746 215.853 184.945 211.723C184.072 207.474 184.381 203.121 184.638 198.898L184.746 197.259C186.33 172.013 182.409 146.183 173.442 122.518C168.757 110.171 175.641 102.861 182.864 95.1449C185.418 92.4453 188.085 89.6103 190.227 86.5078C194.932 79.7332 196.874 70.4105 195.761 60.1954C194.988 53.1478 192.891 46.3727 190.92 40.6836C190.505 39.5288 190.108 38.2156 189.74 36.8687C188.331 32.2275 186.737 26.913 183.711 23.8551C175.563 15.6347 162.333 10.5858 151.666 6.53523L150.627 6.12463C147.612 4.97792 144.438 3.81372 141.106 2.63202C138.938 1.85004 136.735 1.03965 134.499 0.200909C136.382 0.224261 138.264 0.247647 140.158 0.395426C140.678 0.600737 141.197 0.806028 141.745 0.977511C145.111 2.1876 148.284 3.3518 151.334 4.52689L152.373 4.9375C163.141 9.07327 176.597 14.1964 185.016 22.6439Z" fill="white"/>
<path d="M197.907 17.3784C199.19 19.1469 200.36 21.0507 201.421 23.1519C205.915 31.8802 208.16 41.7768 209.912 50.3374C211.703 58.9886 213.357 68.2161 212.145 77.2868C210.839 87.0866 206.17 94.9865 198.661 100.157L198.451 100.27C191.237 105.226 186.063 108.782 185.279 118.098C184.689 125.327 186.966 132.369 189.509 139.575L190.92 143.526C196.253 158.262 201.725 173.518 200.185 189.232C199.87 192.08 199.397 194.911 198.856 197.686C198.113 201.731 197.352 205.936 197.372 210.103C197.437 220.88 202.548 230.933 207.508 240.686C207.659 240.986 207.845 241.315 207.968 241.649C207.498 242.004 206.993 242.33 206.489 242.656C206.298 242.265 206.107 241.875 205.916 241.484C200.85 231.583 195.626 221.32 195.585 210.102C195.555 205.811 196.338 201.511 197.076 197.403C197.56 194.696 198.095 191.859 198.354 189.078C199.87 173.806 194.414 158.736 189.188 144.148L187.777 140.197C185.122 132.781 182.794 125.524 183.481 117.973C184.319 107.838 190.088 103.916 197.388 98.8581L197.563 98.7174C204.659 93.8337 209.083 86.3626 210.308 77.0714C211.48 68.255 209.842 59.2141 208.096 50.7157C206.321 42.2512 204.092 32.5411 199.739 23.9887C198.037 20.6583 196.063 17.7906 193.9 15.2841C193.968 15.3409 194.064 15.3639 194.131 15.4206L197.907 17.3784Z" fill="white"/>
<path d="M212.711 27.1482C219.977 43.5641 223.421 58.2143 223.2 71.806C222.932 85.9347 218.865 96.415 210.743 103.896C209.552 104.972 208.265 106.025 207.006 107.044C203.462 109.893 200.157 112.596 198.526 116.531C196.77 120.822 197.574 125.704 198.58 130.757C201.105 143.137 204.138 155.597 207.524 167.777L207.742 168.478C209.284 173.923 210.837 179.492 210.619 185.247C210.533 187.48 210.186 189.611 209.84 191.741C209.574 193.363 209.314 195.047 209.178 196.72C208.073 209.167 214.117 220.925 220.156 232.276C219.72 232.659 219.255 233.076 218.784 233.431C212.525 221.722 206.234 209.641 207.409 196.561C207.573 194.854 207.828 193.108 208.122 191.452C208.474 189.384 208.82 187.254 208.889 185.179C209.1 179.706 207.558 174.262 206.061 168.97L205.871 168.235C202.39 156.033 199.385 143.538 196.854 131.096C195.764 125.8 194.967 120.635 196.872 115.892C198.656 111.567 202.313 108.583 205.885 105.7C207.116 104.715 208.403 103.662 209.565 102.62C217.313 95.5163 221.197 85.4595 221.447 71.8339C221.687 57.739 217.872 42.4317 209.834 25.0803L209.902 25.137L212.711 27.1482Z" fill="white"/>
<path d="M222.218 35.1244L225.228 37.9956C229.219 48.1469 232.74 58.653 233.703 69.6648C235.114 85.4332 230.554 99.5926 221.268 108.461C220.4 109.289 219.498 110.089 218.563 110.86C216.317 112.781 214.191 114.628 212.741 117.043C208.772 123.628 211.177 129.624 213.706 135.954C214.547 138.043 215.427 140.223 216.092 142.453C219.385 153.574 220.856 165.012 220.449 176.488C220.357 178.659 220.231 180.801 220.077 182.978C219.79 187.579 219.457 192.373 219.831 197.011C220.63 206.501 224.269 215.492 228.412 224.157C228.015 224.63 227.522 225.081 227.09 225.526C222.79 216.499 218.869 207.156 218.055 197.134C217.67 192.372 217.997 187.517 218.279 182.853C218.405 180.711 218.531 178.568 218.657 176.426C219.08 165.136 217.625 153.885 214.349 142.95C213.723 140.811 212.848 138.693 212.007 136.604C209.406 130.155 206.686 123.434 211.127 116.15C212.713 113.503 215.044 111.481 217.29 109.561C218.163 108.795 219.098 108.024 219.938 107.229C228.878 98.7049 233.204 85.0988 231.842 69.8902C230.905 57.7477 226.67 46.2386 222.218 35.1244Z" fill="white"/>
<path d="M236.571 50.5127L239.476 54.3335C240.882 59.6644 242.04 65.0172 242.672 70.4473C244.574 86.4549 240.871 101.448 232.44 111.495C231.566 112.606 230.59 113.632 229.648 114.686C225.505 119.28 221.248 124.009 222.054 129.644C222.419 132.025 223.712 134.263 225 136.439L225.584 137.391C233.342 150.817 236.379 167.258 233.861 182.555C233.573 184.273 233.228 186.059 232.843 187.754C231.986 191.935 231.112 196.274 231.296 200.521C231.52 205.955 233.448 211.147 235.783 215.989C235.386 216.463 234.96 216.97 234.535 217.477C231.946 212.25 229.76 206.611 229.514 200.583C229.309 196.087 230.235 191.618 231.114 187.341C231.465 185.617 231.816 183.894 232.104 182.176C234.563 167.292 231.655 151.247 224.055 138.183L223.504 137.259C222.144 134.964 220.744 132.579 220.346 129.824C219.407 123.387 223.981 118.348 228.38 113.449C229.322 112.395 230.236 111.375 231.116 110.326C239.234 100.651 242.794 86.1717 240.93 70.5996C240.122 63.8685 238.595 57.1688 236.571 50.5127Z" fill="white"/>
<path d="M247.474 66.5791L249.98 71.2184C250.372 73.9111 250.702 76.6092 250.998 79.2789C252.002 88.5947 248.552 100.4 240.838 114.334C240.377 115.158 239.916 115.982 239.399 116.873C237.351 120.344 235.031 124.277 234.629 127.917C234.226 131.556 235.76 136.187 237.12 140.268C237.59 141.7 238.055 143.07 238.384 144.326L238.836 145.917C241.887 156.777 245.032 168.006 243.246 179.477C242.963 181.257 242.555 183.049 242.205 184.772C241.619 187.393 241.016 190.173 240.843 192.853C240.607 197.324 241.548 201.63 243.162 205.752C242.776 206.35 242.389 206.948 241.969 207.517C240.051 202.795 238.841 197.918 239.107 192.722C239.264 189.856 239.896 187.043 240.504 184.325C240.889 182.63 241.268 180.873 241.494 179.16C243.189 168.073 240.122 157.026 237.122 146.38L236.669 144.79C236.311 143.567 235.881 142.226 235.382 140.828C233.977 136.593 232.365 131.782 232.826 127.73C233.258 123.711 235.658 119.614 237.818 116.009C238.308 115.151 238.831 114.321 239.263 113.531C246.818 99.9249 250.176 88.5036 249.205 79.5612C248.83 75.2684 248.234 70.9636 247.474 66.5791Z" fill="white"/>
<path d="M252.309 189.561C251.871 185.619 251.946 181.819 252.072 177.89C252.133 175.001 252.216 172.016 252.074 168.957C251.529 158.065 249.709 147.661 246.638 137.993C246.459 137.382 246.213 136.714 246 136.074C244.522 131.721 242.899 126.786 244.633 122.246C245.683 119.552 247.428 116.923 249.116 114.362C250.275 112.568 251.383 110.904 252.271 109.227C255.492 103.053 257.273 96.5339 258.025 89.7289C258.451 91.0081 258.876 92.2875 259.273 93.6006C258.327 99.2628 256.583 104.775 253.846 110.03C252.935 111.802 251.742 113.568 250.611 115.328C248.98 117.822 247.292 120.383 246.322 122.913C244.816 126.837 246.349 131.468 247.738 135.515C247.984 136.183 248.197 136.823 248.41 137.462C251.554 147.249 253.39 157.84 253.946 168.856C254.094 171.977 254.015 175.025 253.926 177.947C253.86 180.774 253.783 183.477 253.932 186.253L252.309 189.561Z" fill="white"/>
<path d="M262.845 157.012C261.834 151.898 260.545 146.838 258.95 141.869L258.385 140.069C256.93 135.62 255.464 131.046 255.577 126.241C255.757 119.705 258.277 113.748 260.722 108.018C261.161 106.945 261.6 105.872 262.067 104.766C262.312 105.779 262.495 106.797 262.712 107.844C262.61 108.103 262.479 108.397 262.376 108.657C259.982 114.257 257.543 120.05 257.363 126.241C257.252 130.702 258.679 135.185 260.089 139.481L260.654 141.281C261.818 144.909 262.795 148.554 263.653 152.271L262.845 157.012Z" fill="white"/>
<path d="M60.1624 77.3874C58.7 76.7944 57.2014 76.8628 56.0684 77.5261C53.8644 78.8474 53.6116 81.6905 53.6046 83.7599C53.6212 92.1903 54.6103 100.63 56.5785 108.795C58.0615 114.997 61.4746 118.899 65.0154 118.526C66.2258 118.389 67.2399 117.799 68.0631 116.818C69.5391 115.059 70.4086 112.099 70.5066 108.203C70.7183 99.1576 68.6117 90.1265 64.4267 82.0608C63.7132 80.7127 62.8251 79.1605 61.3814 78.0643C61.0147 77.8143 60.5858 77.5697 60.1624 77.3874ZM62.869 82.8867C66.9361 90.6806 68.9533 99.406 68.7483 108.169C68.6184 113.133 67.0688 116.56 64.8346 116.818C62.6625 117.071 59.7206 114.256 58.3326 108.422C56.3753 100.381 55.3687 92.1001 55.3629 83.7941C55.3676 82.4146 55.4925 80.617 56.3724 79.5683C56.5427 79.3653 56.7468 79.1908 56.9848 79.0446C57.6703 78.6398 58.5806 78.6542 59.5519 79.008C59.8455 79.1391 60.1107 79.3039 60.4097 79.4972C61.4867 80.3433 62.2624 81.686 62.869 82.8867Z" fill="white"/>
<path d="M106.008 239.912L106.198 240.648C108.365 248.577 110.6 256.217 112.853 263.7C112.22 263.63 111.582 263.497 110.944 263.365C108.746 256.16 106.623 248.729 104.511 241.077L104.288 240.313C100.882 227.541 98.2119 224.608 96.5617 224.377C95.3579 224.231 94.1482 225.81 93.4199 227.159C92.0889 229.501 92.3392 232.363 92.7521 235.649L95.9489 260.007C95.3388 259.841 94.7287 259.675 94.0848 259.48L90.9872 235.898C90.6233 233.171 90.133 229.359 91.8735 226.323C93.3978 223.682 95.0756 222.438 96.8164 222.63C101.004 223.204 103.92 232.165 106.008 239.912Z" fill="white"/>
</g>
</g>
<defs>
<clipPath id="clip0">
<rect width="265" height="265" fill="white"/>
</clipPath>
</defs>
</svg>
