<svg width="155" height="155" viewBox="0 0 155 155" fill="none" xmlns="http://www.w3.org/2000/svg">
<path d="M54.9818 112.181C97.1408 141.705 154.944 131.893 154.944 131.893C154.944 131.893 144.394 74.2197 102.236 44.7002C60.0781 15.1807 2.27956 24.992 2.27956 24.992C2.27956 24.992 12.8244 82.6659 54.9818 112.181Z" fill="#097E78"/>
<path d="M1.8299 26.1558L139.237 122.373C139.912 122.85 140.845 122.685 141.321 122.006C141.793 121.327 141.629 120.398 140.954 119.921L3.54589 23.6993C2.86681 23.2277 1.93841 23.3915 1.46154 24.0668C0.985483 24.7467 1.15001 25.6798 1.8299 26.1558Z" fill="#055F5B"/>
<path d="M16.3222 65.0767L49.7535 59.1818C50.5682 59.0382 51.1117 58.262 50.9681 57.4474C50.8244 56.6328 50.0482 56.0892 49.2336 56.2328L15.8022 62.1277C14.9876 62.2713 14.444 63.0477 14.5877 63.8623C14.7313 64.6769 15.5076 65.2203 16.3222 65.0767Z" fill="#055F5B"/>
<path d="M38.331 97.9474L91.691 88.5386C92.5056 88.3949 93.0491 87.6186 92.9055 86.804C92.7619 85.9893 91.9902 85.4451 91.171 85.5896L37.811 94.9984C36.9963 95.142 36.4528 95.9182 36.5964 96.7328C36.7401 97.5474 37.5163 98.091 38.331 97.9474Z" fill="#055F5B"/>
<path d="M81.8222 127.039L133.626 117.905C134.44 117.761 134.984 116.985 134.84 116.171C134.697 115.356 133.92 114.812 133.106 114.956L81.3022 124.09C80.4876 124.234 79.944 125.01 80.0877 125.825C80.2313 126.64 81.0075 127.183 81.8222 127.039Z" fill="#055F5B"/>
<path d="M49.7558 59.1818C50.5704 59.0381 51.1139 58.262 50.9703 57.4474L45.1097 24.1837C44.9661 23.369 44.1898 22.8254 43.3752 22.969C42.5605 23.1127 42.017 23.889 42.1607 24.7037L48.0213 57.9674C48.1695 58.7812 48.9411 59.3254 49.7558 59.1818Z" fill="#055F5B"/>
<path d="M79.2635 33.5005L89.9618 87.3604C90.1236 88.1718 90.9111 88.6993 91.7225 88.5374C92.5339 88.3756 93.0614 87.5881 92.8995 86.7767L82.2013 32.9167C82.0395 32.1053 81.252 31.5779 80.4406 31.7397C79.6292 31.9016 79.1017 32.6891 79.2635 33.5005Z" fill="#055F5B"/>
<path d="M131.892 116.695C132.036 117.51 132.812 118.053 133.627 117.91C134.441 117.766 134.985 116.99 134.841 116.175L125.904 65.4911C125.761 64.6764 124.985 64.133 124.17 64.2767C123.355 64.4203 122.812 65.1964 122.955 66.0111L131.892 116.695Z" fill="#055F5B"/>
</svg>
