<svg width="278" height="277" viewBox="0 0 278 277" fill="none" xmlns="http://www.w3.org/2000/svg">
<path d="M195.317 88.4205C135.161 60.3655 57.1947 100.235 57.1947 100.235C57.1947 100.235 76.7676 185.583 136.928 213.636C197.086 241.684 275.045 201.824 275.045 201.824C275.045 201.824 255.474 116.481 195.317 88.4205Z" fill="#1C807B"/>
<path d="M1.33411 74.1813C0.924082 75.0606 1.30099 76.0962 2.1803 76.5062L274.31 203.402C275.19 203.812 276.225 203.436 276.635 202.556C277.047 201.682 276.668 200.641 275.789 200.231L3.65718 73.33C2.78156 72.9301 1.74091 73.3089 1.33411 74.1813Z" fill="#055F5B"/>
<path d="M219.581 174.591C218.673 174.921 218.209 175.924 218.54 176.832C218.871 177.741 219.875 178.209 220.778 177.88L261.179 163.175C262.088 162.845 262.556 161.841 262.225 160.932C261.895 160.023 260.891 159.555 259.982 159.886L219.581 174.591Z" fill="#055F5B"/>
<path d="M173.254 152.988C172.346 153.319 171.877 154.323 172.208 155.232C172.539 156.14 173.543 156.608 174.451 156.278L242.914 131.36C243.822 131.029 244.29 130.025 243.959 129.116C243.629 128.208 242.625 127.739 241.716 128.07L173.254 152.988Z" fill="#055F5B"/>
<path d="M126.938 131.394C126.029 131.725 125.561 132.729 125.892 133.638C126.222 134.546 127.226 135.014 128.135 134.684L216.171 102.641C217.079 102.311 217.548 101.307 217.217 100.398C216.886 99.4893 215.882 99.0212 214.973 99.3519L126.938 131.394Z" fill="#055F5B"/>
<path d="M80.6214 109.788C79.7127 110.119 79.2445 111.123 79.5752 112.031C79.9059 112.94 80.91 113.408 81.8186 113.077L168.073 81.6836C168.981 81.3529 169.449 80.3488 169.119 79.4402C168.788 78.5316 167.784 78.0635 166.875 78.3942L80.6214 109.788Z" fill="#055F5B"/>
<path d="M218.539 176.827L233.244 217.228C233.575 218.137 234.579 218.605 235.483 218.276C236.386 217.947 236.859 216.942 236.528 216.033L221.824 175.632C221.493 174.723 220.489 174.255 219.581 174.586C218.672 174.916 218.209 175.919 218.539 176.827Z" fill="#055F5B"/>
<path d="M172.216 155.23L197.134 223.692C197.465 224.6 198.468 225.069 199.377 224.738C200.286 224.407 200.754 223.403 200.423 222.495L175.505 154.033C175.174 153.124 174.17 152.656 173.262 152.987C172.353 153.317 171.885 154.321 172.216 155.23Z" fill="#055F5B"/>
<path d="M126.902 131.407C126.001 131.758 125.553 132.772 125.904 133.673L160.288 222.156C160.639 223.057 161.653 223.504 162.554 223.153C163.455 222.802 163.903 221.789 163.552 220.888L129.168 132.405C128.817 131.504 127.803 131.056 126.902 131.407Z" fill="#055F5B"/>
<path d="M79.5752 112.031L110.969 198.285C111.3 199.194 112.304 199.662 113.212 199.331C114.121 199.001 114.589 197.997 114.258 197.088L82.8645 110.834C82.5338 109.926 81.53 109.457 80.6214 109.788C79.7127 110.119 79.2445 111.123 79.5752 112.031Z" fill="#055F5B"/>
</svg>
