<svg width="313" height="313" viewBox="0 0 313 313" fill="none" xmlns="http://www.w3.org/2000/svg">
<g clip-path="url(#clip0)">
<g opacity="0.42">
<path d="M0.267694 147.71C0.198679 156.235 0.984709 164.796 4.70901 171.804C8.08138 178.176 12.9668 183.637 17.7593 188.885C22.4784 194.139 27.3573 199.527 30.8432 205.926C35.2649 214.132 37.0981 223.231 38.9055 232.036C40.2852 238.916 41.6906 246.089 44.4142 252.666C45.2559 254.666 46.0976 256.667 46.9457 258.741C49.0932 263.812 51.2136 268.997 53.0798 274.242C51.9941 273.263 50.9084 272.284 49.8227 271.304C48.3663 267.358 46.6893 263.43 45.0587 259.61C44.2106 257.536 43.3289 255.502 42.4872 253.501C39.7107 246.744 38.2654 239.537 36.8728 232.51C35.1518 223.846 33.3315 214.894 29.049 207.009C25.6959 200.857 20.8969 195.536 16.2243 190.389C11.3853 185.035 6.38 179.473 2.87486 172.853C1.81261 170.872 0.991566 168.684 0.317563 166.484C-0.0885285 160.149 -0.114188 153.929 0.267694 147.71Z" fill="#EACDC1"/>
<path d="M140.967 52.3608C151.368 60.7475 157.359 75.0386 157.019 90.6244C156.86 98.1201 155.211 105.524 153.65 112.661C153.196 114.663 152.781 116.7 152.367 118.736C147.978 140.121 147.109 161.938 149.708 183.6C150.877 193.572 153.326 198.284 156.712 204.803C158.092 207.46 159.659 210.545 161.363 214.359C163.16 218.387 165.11 222.476 166.974 226.424C170.052 232.822 173.263 239.467 175.819 246.244C182.674 264.052 185.909 283.251 188.979 301.835C189.391 304.429 189.844 307.056 190.296 309.683C189.607 309.854 188.918 310.026 188.223 310.123C187.764 307.423 187.312 304.796 186.86 302.168C183.803 283.732 180.614 264.64 173.852 247.045C171.269 240.382 168.098 233.771 165.02 227.373C163.156 223.425 161.132 219.343 159.369 215.275C157.704 211.494 156.145 208.482 154.764 205.825C151.286 199.092 148.824 194.233 147.549 183.9C144.931 162.017 145.854 139.973 150.224 118.368C150.638 116.332 151.093 114.329 151.541 112.252C153.108 105.189 154.689 97.8655 154.868 90.5904C155.226 75.6327 149.513 61.9839 139.592 53.9998C138.039 52.7652 136.353 51.6905 134.7 50.5758L133.326 49.6959C123.187 43.0272 113.988 34.8317 105.183 26.8981C100.6 22.7803 95.8578 18.5285 90.994 14.5835C91.6698 14.2651 92.3792 13.9068 93.1351 13.6554C97.7654 17.4727 102.228 21.4897 106.604 25.3662C115.404 33.2263 124.522 41.3547 134.548 47.9964L135.921 48.8763C137.608 49.951 139.335 51.0592 140.967 52.3608Z" fill="#EACDC1"/>
<path d="M18.7351 82.3516C19.8083 92.9247 19.7673 103.04 18.5258 112.556C17.9068 117.758 16.567 122.765 15.2543 127.657C12.1886 139.185 9.25205 150.072 15.7648 162.281C19.0907 168.545 24.2844 173.721 29.3118 178.688C33.6931 183.046 38.1944 187.504 41.5838 192.801C45.5314 198.974 47.8861 205.99 50.1479 212.793C52.2048 218.946 54.6422 225.215 57.2252 231.878C64.4844 250.502 71.9422 269.702 71.6916 288.429C70.9849 287.972 70.2783 287.515 69.6052 287.019C69.519 269.1 62.3062 250.582 55.2918 232.64C52.7088 225.976 50.2314 219.674 48.1681 213.447C45.9191 206.792 43.6508 199.916 39.8296 193.917C36.533 188.835 32.1117 184.444 27.8502 180.187C22.703 175.118 17.3894 169.842 13.8906 163.296C7.0531 150.339 10.0709 139.111 13.2115 127.17C14.4971 122.39 15.8034 117.424 16.4352 112.369C17.4792 103.981 17.636 95.1889 16.8991 85.9197C17.5649 84.6392 18.13 83.4786 18.7351 82.3516Z" fill="#EACDC1"/>
<path d="M131.188 65.476C138.264 79.0426 141.241 93.5974 140.224 109.909C139.631 119.221 138.425 128.289 137.192 137.064C134.993 152.998 132.905 168.07 134.545 184.705C135.895 198.439 142.683 208.29 149.85 218.663C152.011 221.77 154.218 224.985 156.331 228.393C166.744 244.964 171.475 264.328 174.417 279.33C175.14 282.934 175.829 286.577 176.558 290.254C177.911 297.247 179.276 304.387 180.782 311.441C180.087 311.539 179.392 311.637 178.697 311.735C177.191 304.681 175.832 297.615 174.479 290.622C173.79 286.978 173.101 283.335 172.378 279.731C169.449 264.876 164.817 245.799 154.577 229.509C152.47 226.175 150.263 222.96 148.142 219.886C140.802 209.232 133.888 199.207 132.493 184.958C130.867 168.063 132.909 152.884 135.169 136.797C136.367 128.062 137.621 119.1 138.18 109.829C139.156 93.8909 136.284 79.6973 129.388 66.4854C121.953 52.2094 111.44 45.4994 98.1465 37.0695L95.2065 35.2155C88.8531 31.1786 82.7281 26.7885 76.8314 22.0449C77.4609 21.6195 78.0968 21.2675 78.7327 20.9156C84.3831 25.3844 90.2283 29.5398 96.2747 33.4554L99.2147 35.3094C112.782 43.9005 123.488 50.7047 131.188 65.476Z" fill="#EACDC1"/>
<path d="M16.0681 212.737C18.93 217.931 19.0871 224.807 19.0108 231.554C18.2669 230.249 17.5566 228.904 16.9198 227.552C16.8436 222.447 16.3392 217.528 14.2675 213.747C12.9461 211.344 10.8276 209.566 8.56199 207.801C8.16503 206.651 7.76165 205.427 7.39823 204.236C7.83793 204.605 8.35114 204.968 8.79084 205.337C11.5297 207.43 14.3484 209.591 16.0681 212.737Z" fill="#EACDC1"/>
<path d="M165.825 45.223C177.44 56.0591 182.82 73.1074 179.514 88.6564C178.522 93.4099 176.81 97.9673 175.085 102.378C174.599 103.605 174.154 104.867 173.669 106.094C163.324 134.333 161.182 165.3 167.432 195.68C170.193 209.031 175.995 222.005 181.571 234.518C185.026 242.253 188.573 250.202 191.385 258.216C195.819 270.791 196.956 284.211 198.015 297.155C198.31 300.537 198.579 304.032 198.915 307.447C198.226 307.619 197.578 307.824 196.889 307.995C196.5 304.399 196.191 300.871 195.883 297.342C194.797 284.511 193.713 271.272 189.372 258.91C186.606 251.004 183.059 243.055 179.644 235.353C174.022 222.734 168.173 209.652 165.36 196.12C159.003 165.379 161.188 134.039 171.721 105.413C172.166 104.152 172.651 102.924 173.136 101.696C174.794 97.3658 176.473 92.8484 177.444 88.2819C180.554 73.4538 175.425 57.1612 164.33 46.7612C158.282 41.142 150.833 37.2751 143.583 33.5759C141.022 32.2443 138.348 30.8857 135.78 29.4806C130.485 26.5364 125.727 22.9525 121.015 19.4757C118.083 17.2878 115.071 15.0327 112.005 13.0046C109.805 11.5674 107.752 10.1173 105.699 8.66723C106.528 8.40948 107.358 8.15175 108.147 7.86046C109.767 9.0151 111.42 10.1298 113.146 11.238C116.293 13.3332 119.305 15.5882 122.237 17.7762C126.869 21.1859 131.627 24.7698 136.728 27.6199C139.262 29.0649 141.897 30.39 144.491 31.6816C151.935 35.4749 159.538 39.4025 165.825 45.223Z" fill="#EACDC1"/>
<path d="M202.316 71.1423C202.886 82.315 199.645 94.3767 192.985 105.886C191.829 107.913 190.727 109.713 189.659 111.473C184.64 119.727 181.018 125.748 180.326 136.883C179.578 148.653 179.63 160.685 180.519 172.534C182.376 198.002 188.706 226.745 198.404 253.342C199.827 257.329 201.476 261.37 203.04 265.27C206.399 273.606 209.897 282.263 211.904 291.236C212.747 294.94 213.376 298.737 213.817 302.514C213.175 302.792 212.492 303.037 211.81 303.282C211.356 299.359 210.754 295.448 209.905 291.67C207.877 282.885 204.459 274.294 201.146 266.065C199.583 262.165 197.933 258.124 196.47 254.104C186.753 227.286 180.337 198.402 178.46 172.714C177.599 160.752 177.54 148.646 178.282 136.803C179.003 125.147 182.725 119.006 187.905 110.478C188.94 108.758 190.075 106.918 191.197 104.931C197.663 93.7353 200.795 82.1276 200.224 71.3624C199.584 58.9736 193.897 47.73 184.953 41.179C179.728 37.3397 173.422 35.1134 167.303 32.908C166.155 32.4898 165.008 32.0718 163.86 31.6537C146.871 25.4361 130.76 16.549 116.205 5.56265C117.075 5.33845 117.904 5.08072 118.813 4.89005C132.875 15.3268 148.353 23.7508 164.615 29.6986C165.762 30.1168 166.91 30.5348 168.058 30.953C174.291 33.1855 180.79 35.5059 186.248 39.473C195.625 46.3195 201.698 58.1589 202.316 71.1423Z" fill="#EACDC1"/>
<path d="M211.506 42.4116C216.463 50.3856 216.978 60.0816 217.436 68.7084C218.148 81.4984 218.18 93.7182 211.294 103.062C209.475 105.554 207.249 107.638 205.058 109.681C203.074 111.559 201.023 113.516 199.325 115.702C190.654 127.09 192.75 139.611 195.023 152.894C195.377 154.826 195.692 156.725 195.972 158.663C196.521 162.393 197.216 166.11 197.838 169.833C199.706 180.596 201.646 191.76 201.562 202.657L201.58 203.285C201.476 214.369 201.37 225.86 203.336 236.91C204.923 245.735 208.726 253.217 212.715 261.127C213.697 263.042 214.639 264.922 215.588 266.876C220.326 276.573 223.558 286.846 226.042 297.037C225.406 297.389 224.764 297.667 224.088 297.985C221.637 287.755 218.405 277.482 213.708 267.819C212.799 265.898 211.816 263.984 210.874 262.103C206.799 254.052 202.91 246.429 201.297 237.311C199.278 226.08 199.377 214.515 199.509 203.318L199.491 202.69C199.594 192.014 197.661 180.923 195.799 170.234C195.137 166.477 194.475 162.72 193.927 158.99C193.612 157.092 193.332 155.153 192.978 153.221C190.757 140.119 188.458 126.542 197.732 114.434C199.491 112.095 201.649 110.091 203.7 108.134C205.785 106.136 207.976 104.093 209.661 101.76C216.152 92.9698 216.078 81.1239 215.439 68.735C215.006 60.4023 214.477 50.9668 209.819 43.4481C203.606 33.3988 191.662 28.9621 180.098 24.6403L177.723 23.7369C162.096 17.8446 147.088 10.5648 132.887 1.91809C133.983 1.7481 135.079 1.57803 136.142 1.44802C149.584 9.45748 163.772 16.2536 178.478 21.782L180.813 22.6517C192.583 27.2148 204.868 31.7327 211.506 42.4116Z" fill="#EACDC1"/>
<path d="M75.0245 68.2785C83.5933 79.0107 90.8881 89.1506 92.7662 104.69C94.1756 116.568 94.3612 128.848 94.5145 140.761C94.7224 156.262 94.9354 172.244 98.004 187.42C101.52 204.743 109.89 220.826 118.035 236.447C120.743 241.58 123.544 246.928 126.085 252.262C135.168 270.986 140.906 290.855 146.513 310.069C146.784 311.045 147.095 312.055 147.372 313.105C146.664 313.056 145.882 313.013 145.174 312.964C144.923 312.208 144.745 311.446 144.494 310.69C138.933 291.583 133.241 271.821 124.204 253.204C121.63 247.91 118.869 242.596 116.16 237.463C107.969 221.734 99.5127 205.511 95.8979 187.901C92.8164 172.577 92.5905 156.448 92.3761 140.874C92.2292 129.034 92.0438 116.754 90.5736 105.03C88.7406 90.0052 81.6521 80.1065 73.296 69.689C68.4327 63.6328 58.7028 54.4467 53.2137 55.6307C52.3044 55.8214 51.5679 56.2932 50.897 57.0927C50.1927 57.9321 49.634 59.1662 49.1809 60.7615C48.4903 63.4516 48.981 66.5199 49.3596 69.1535L55.5076 108.098C56.4361 114.054 56.3754 120.134 56.3689 125.986C56.2953 131.919 56.2745 138.032 57.2366 143.948C59.3371 156.95 63.406 168.743 69.4845 178.952C79.7477 196.351 93.9218 222.889 98.5657 252.262C100.403 263.953 100.717 276 101.065 287.6C101.19 291.996 101.276 296.359 101.394 300.682C101.438 301.605 101.442 302.493 101.445 303.382C100.718 303.112 100.031 302.876 99.337 302.566C99.3191 301.938 99.3012 301.31 99.2833 300.682C99.1643 296.359 99.0789 291.996 98.9935 287.633C98.6853 276.067 98.305 264.1 96.5137 252.515C91.9355 223.471 77.8942 197.18 67.6439 179.928C61.5061 169.464 57.2709 157.464 55.1447 144.168C54.1634 138.032 54.2512 131.839 54.2848 125.873C54.3312 120.053 54.3649 114.087 53.4892 108.312L47.3411 69.3671C46.8698 66.5194 46.3598 63.2306 47.1588 60.0865C48.1605 56.295 50.0388 54.0566 52.7666 53.4846C61.5653 51.6036 74.8982 68.1044 75.0245 68.2785Z" fill="#EACDC1"/>
<path d="M36.5894 56.1221C41.6455 76.2359 44.4549 96.9167 44.8654 117.696C44.9214 120.877 44.9103 124.137 44.8386 127.551C44.7057 139.155 44.5315 151.134 48.4988 161.343C50.9361 167.611 55.272 173.565 59.555 179.339C62.5874 183.518 65.7797 187.832 68.2433 192.283C74.1991 203.207 79.2585 214.468 83.2089 225.752C89.0319 242.355 91.7526 261.599 91.2245 281.386C91.0581 287.105 90.8246 292.903 90.5847 298.628C89.8909 298.318 89.2306 297.969 88.5369 297.659C88.769 292.268 88.9547 286.77 89.1468 281.346C89.7342 261.812 86.9992 242.829 81.269 226.441C77.3651 215.263 72.392 204.143 66.4426 193.292C64.0654 188.982 60.9531 184.735 57.9207 180.556C53.5913 174.675 49.1355 168.621 46.6389 162.098C42.5259 151.495 42.6809 139.295 42.8345 127.504C42.8726 124.13 42.9237 120.903 42.8677 117.723C42.4415 97.6114 39.8035 77.6193 34.9858 58.1143C35.449 57.4811 36.0192 56.8016 36.5894 56.1221Z" fill="#EACDC1"/>
<path d="M159.905 313.268C157.739 299.938 154.348 283.197 147.44 267.32C142.349 255.691 136.038 244.946 129.907 234.556C116.953 212.652 104.77 191.939 104.676 164.613C104.647 157.505 105.079 150.17 105.54 142.315C107.129 115.175 108.821 87.1003 91.1399 66.202C85.5235 59.582 78.8816 53.9407 72.4796 48.5006C68.1561 44.8047 63.6392 41.0145 59.5441 36.9653C59.018 36.4557 58.4855 35.8727 57.9066 35.1825C57.3906 35.6351 56.8347 36.0541 56.3187 36.5067C56.9376 37.2303 57.5165 37.9205 58.0825 38.4635C62.2576 42.5799 66.7409 46.41 71.1379 50.0995C77.5 55.506 84.1019 61.1138 89.5584 67.5996C106.74 87.8749 105.083 115.502 103.496 142.234C103.035 150.09 102.569 157.464 102.638 164.606C102.744 192.487 115.093 213.407 128.146 235.599C134.271 245.916 140.542 256.627 145.587 268.149C152.349 283.632 155.714 300.078 157.834 313.301L159.905 313.268Z" fill="#EACDC1"/>
<path d="M28.315 66.9576C30.8686 78.3641 32.6457 90.209 33.5327 102.465C34.1153 109.97 33.7099 117.191 33.3524 124.111C32.5119 139.482 31.7076 153.997 41.5238 169.25C44.3949 173.702 47.6943 177.969 50.8737 182.136C54.3793 186.644 57.9713 191.293 61.0345 196.247C79.2949 225.465 82.6932 259.651 80.9469 293.879C80.2866 293.529 79.5864 293.146 78.9197 292.723C80.5034 259.176 77.0624 225.772 59.2738 197.29C56.2571 192.443 52.7051 187.827 49.2059 183.393C45.9865 179.193 42.6472 174.892 39.6961 170.372C29.5344 154.557 30.3129 139.748 31.1948 124.004C31.5923 117.117 31.9705 110.009 31.4008 102.652C30.5445 91.1707 28.9788 80.048 26.6302 69.2902C27.2275 68.4972 27.7513 67.7106 28.315 66.9576Z" fill="#EACDC1"/>
<path d="M167.022 312.904C166.55 310.057 166.159 307.276 165.727 304.462C163.402 288.887 160.958 272.804 155.276 257.819C153.389 252.762 150.944 246.827 147.361 241.437C145.048 237.861 142.2 234.518 139.438 231.315C118.556 206.845 110.341 176.451 114.945 141.011C115.479 136.964 116.148 132.757 116.837 128.771C118.903 116.404 120.971 103.63 118.855 91.2966C114.608 66.8896 96.0825 52.8432 76.4775 37.8912C72.8258 35.0995 69.134 32.2742 65.5094 29.369C66.1389 28.9436 66.6948 28.5246 67.2907 28.1391C70.7155 30.8766 74.2474 33.5677 77.7392 36.2252C96.8246 50.7412 116.549 65.7938 120.934 90.9295C123.156 103.624 120.994 116.592 118.94 129.105C118.252 133.091 117.576 137.225 117.042 141.272C112.494 176.078 120.59 205.963 141.06 229.951C143.828 233.227 146.676 236.571 149.109 240.247C152.818 245.812 155.31 251.853 157.243 257.017C163.017 272.216 165.474 288.446 167.773 304.135C168.211 307.022 168.609 309.877 169.12 312.758L167.022 312.904Z" fill="#EACDC1"/>
<path d="M218.428 26.6945C222.37 30.6831 224.312 37.2171 226.036 42.9553C226.505 44.5069 226.934 46.0249 227.424 47.3895C229.766 54.2589 232.29 62.3717 233.224 70.92C234.617 83.4651 232.186 95.0485 226.325 103.413C223.694 107.199 220.508 110.589 217.424 113.859C208.955 122.897 201.64 130.722 206.732 144.055C217.46 172.265 222.125 203.154 220.206 233.286L220.112 235.183C219.762 240.066 219.458 245.056 220.39 249.789C221.31 254.375 223.473 258.779 225.543 262.968L226.446 264.815C230.519 273.274 234.03 282.078 236.819 291.094C236.183 291.446 235.587 291.831 234.951 292.183C232.156 283.094 228.672 274.176 224.559 265.684L223.656 263.837C221.5 259.507 219.29 254.996 218.345 250.116C217.313 245.095 217.678 239.952 217.982 234.962L218.109 233.025C219.98 203.194 215.347 172.672 204.752 144.709C199.216 130.119 207.35 121.481 215.886 112.364C218.903 109.174 222.055 105.824 224.586 102.158C230.145 94.153 232.44 83.137 231.125 71.0665C230.211 62.7388 227.733 54.7331 225.404 48.0107C224.914 46.6461 224.445 45.0945 224.01 43.5029C222.345 38.0188 220.462 31.7389 216.887 28.1257C207.259 18.4121 191.625 12.4463 179.021 7.65994L177.793 7.17476C174.23 5.81977 170.48 4.44412 166.543 3.04778C163.98 2.12377 161.378 1.16619 158.736 0.175106C160.961 0.202698 163.185 0.230332 165.423 0.404952C166.037 0.647554 166.65 0.890133 167.298 1.09276C171.275 2.52265 175.025 3.89829 178.628 5.28682L179.856 5.772C192.58 10.659 208.48 16.7126 218.428 26.6945Z" fill="#EACDC1"/>
<path d="M233.662 20.4725C235.178 22.5622 236.56 24.8118 237.814 27.2947C243.124 37.6083 245.777 49.3024 247.847 59.4179C249.964 69.6404 251.918 80.5439 250.485 91.2622C248.943 102.842 243.426 112.177 234.552 118.287L234.305 118.419C225.78 124.276 219.666 128.478 218.74 139.485C218.043 148.028 220.734 156.348 223.738 164.864L225.406 169.533C231.707 186.945 238.173 204.972 236.353 223.54C235.981 226.906 235.422 230.251 234.783 233.529C233.905 238.31 233.006 243.278 233.029 248.202C233.106 260.936 239.146 272.815 245.006 284.34C245.185 284.695 245.404 285.083 245.55 285.478C244.994 285.897 244.398 286.282 243.802 286.668C243.577 286.206 243.351 285.744 243.125 285.282C237.139 273.584 230.967 261.457 230.918 248.201C230.882 243.13 231.808 238.049 232.679 233.195C233.251 229.996 233.884 226.645 234.189 223.359C235.981 205.312 229.534 187.506 223.359 170.267L221.691 165.598C218.554 156.836 215.804 148.261 216.616 139.338C217.605 127.362 224.422 122.729 233.048 116.751L233.255 116.585C241.64 110.814 246.868 101.986 248.315 91.0076C249.699 80.5898 247.765 69.9069 245.701 59.8649C243.604 49.8629 240.97 38.3893 235.827 28.2834C233.816 24.3481 231.482 20.9595 228.927 17.9978C229.007 18.0649 229.12 18.0921 229.2 18.1592L233.662 20.4725Z" fill="#EACDC1"/>
<path d="M251.154 32.0167C259.74 51.4143 263.81 68.7254 263.549 84.7858C263.231 101.481 258.426 113.865 248.828 122.704C247.421 123.976 245.9 125.22 244.413 126.424C240.226 129.791 236.32 132.984 234.393 137.634C232.318 142.705 233.268 148.474 234.457 154.444C237.44 169.072 241.025 183.796 245.025 198.188L245.282 199.017C247.105 205.45 248.94 212.031 248.683 218.831C248.58 221.47 248.171 223.987 247.761 226.505C247.448 228.421 247.14 230.411 246.98 232.388C245.674 247.095 252.816 260.989 259.952 274.403C259.436 274.855 258.887 275.348 258.331 275.767C250.935 261.932 243.501 247.656 244.889 232.201C245.083 230.183 245.384 228.12 245.731 226.164C246.147 223.72 246.557 221.202 246.639 218.751C246.888 212.284 245.065 205.851 243.296 199.598L243.072 198.729C238.959 184.311 235.408 169.547 232.418 154.845C231.129 148.587 230.188 142.484 232.438 136.88C234.547 131.769 238.868 128.243 243.089 124.836C244.543 123.672 246.063 122.428 247.437 121.196C256.592 112.803 261.182 100.919 261.477 84.8188C261.761 68.1638 257.253 50.0763 247.755 29.5732L247.835 29.6403L251.154 32.0167Z" fill="#EACDC1"/>
<path d="M262.386 41.4417L265.942 44.8344C270.658 56.8296 274.819 69.2438 275.957 82.2557C277.624 100.888 272.236 117.619 261.264 128.098C260.238 129.077 259.173 130.022 258.067 130.933C255.414 133.203 252.901 135.386 251.187 138.239C246.498 146.02 249.34 153.105 252.328 160.585C253.321 163.053 254.362 165.629 255.148 168.264C259.038 181.406 260.776 194.921 260.296 208.482C260.187 211.047 260.038 213.578 259.856 216.15C259.517 221.587 259.123 227.251 259.566 232.731C260.51 243.945 264.81 254.57 269.706 264.808C269.236 265.368 268.653 265.9 268.143 266.426C263.062 255.76 258.429 244.72 257.467 232.878C257.012 227.251 257.399 221.513 257.732 216.002C257.881 213.471 258.029 210.939 258.178 208.408C258.678 195.067 256.959 181.773 253.088 168.852C252.348 166.324 251.314 163.822 250.321 161.353C247.247 153.733 244.033 145.791 249.28 137.184C251.155 134.057 253.909 131.668 256.562 129.398C257.594 128.493 258.7 127.582 259.692 126.643C270.255 116.57 275.367 100.493 273.758 82.5221C272.651 68.1741 267.646 54.5746 262.386 41.4417Z" fill="#EACDC1"/>
<path d="M279.348 59.625L282.78 64.1397C284.442 70.4389 285.81 76.7639 286.557 83.1803C288.804 102.095 284.428 119.812 274.466 131.684C273.433 132.997 272.28 134.209 271.167 135.454C266.271 140.883 261.241 146.471 262.194 153.129C262.625 155.943 264.153 158.587 265.674 161.158L266.365 162.283C275.531 178.148 279.12 197.575 276.146 215.651C275.805 217.681 275.397 219.79 274.942 221.793C273.93 226.734 272.897 231.861 273.114 236.88C273.379 243.301 275.657 249.435 278.417 255.157C277.947 255.717 277.444 256.316 276.941 256.916C273.882 250.739 271.299 244.076 271.009 236.953C270.767 231.64 271.86 226.359 272.9 221.305C273.314 219.269 273.728 217.233 274.069 215.203C276.975 197.615 273.539 178.655 264.558 163.218L263.907 162.127C262.3 159.416 260.646 156.598 260.176 153.342C259.066 145.735 264.471 139.781 269.668 133.993C270.782 132.747 271.861 131.541 272.901 130.302C282.494 118.87 286.701 101.761 284.498 83.3603C283.543 75.4066 281.739 67.49 279.348 59.625Z" fill="#EACDC1"/>
<path d="M292.231 78.6096L295.192 84.0915C295.656 87.2732 296.046 90.4614 296.396 93.6161C297.581 104.624 293.505 118.573 284.39 135.038C283.845 136.012 283.301 136.985 282.689 138.039C280.27 142.139 277.529 146.787 277.053 151.088C276.577 155.389 278.389 160.86 279.997 165.683C280.552 167.375 281.101 168.994 281.49 170.478L282.025 172.357C285.629 185.19 289.346 198.458 287.235 212.014C286.901 214.117 286.419 216.233 286.005 218.27C285.313 221.367 284.6 224.652 284.396 227.818C284.117 233.102 285.229 238.19 287.137 243.06C286.68 243.767 286.223 244.474 285.727 245.147C283.461 239.567 282.03 233.803 282.345 227.664C282.53 224.278 283.276 220.953 283.996 217.742C284.45 215.739 284.898 213.663 285.165 211.639C287.167 198.538 283.544 185.484 279.999 172.905L279.464 171.026C279.041 169.581 278.532 167.996 277.943 166.344C276.283 161.341 274.378 155.655 274.922 150.867C275.433 146.118 278.269 141.277 280.822 137.017C281.4 136.003 282.018 135.023 282.529 134.09C291.456 118.012 295.424 104.516 294.277 93.9496C293.833 88.8771 293.129 83.7904 292.231 78.6096Z" fill="#EACDC1"/>
<path d="M297.945 223.929C297.426 219.271 297.515 214.781 297.664 210.138C297.736 206.725 297.835 203.197 297.667 199.582C297.022 186.712 294.872 174.419 291.243 162.995C291.032 162.273 290.741 161.483 290.489 160.728C288.743 155.584 286.825 149.752 288.874 144.387C290.115 141.204 292.176 138.098 294.171 135.071C295.541 132.951 296.85 130.985 297.899 129.004C301.706 121.708 303.81 114.005 304.699 105.964C305.201 107.476 305.704 108.988 306.173 110.539C305.055 117.23 302.995 123.743 299.76 129.953C298.684 132.047 297.274 134.133 295.937 136.213C294.01 139.16 292.015 142.186 290.869 145.175C289.09 149.813 290.902 155.284 292.543 160.066C292.834 160.856 293.085 161.612 293.337 162.367C297.052 173.932 299.221 186.446 299.878 199.463C300.053 203.151 299.961 206.752 299.855 210.206C299.777 213.546 299.686 216.74 299.862 220.021L297.945 223.929Z" fill="#EACDC1"/>
<path d="M310.395 185.468C309.2 179.424 307.677 173.446 305.793 167.574L305.125 165.447C303.406 160.19 301.674 154.786 301.807 149.107C302.02 141.385 304.997 134.346 307.886 127.575C308.405 126.307 308.923 125.04 309.476 123.732C309.766 124.929 309.982 126.132 310.238 127.369C310.117 127.676 309.962 128.023 309.841 128.33C307.012 134.948 304.13 141.793 303.918 149.108C303.786 154.379 305.472 159.676 307.138 164.753L307.806 166.879C309.181 171.167 310.336 175.473 311.35 179.866L310.395 185.468Z" fill="#EACDC1"/>
<path d="M70.8974 91.381C69.1694 90.6803 67.3986 90.7612 66.0598 91.545C63.4555 93.1062 63.1568 96.4658 63.1485 98.911C63.1682 108.873 64.3369 118.845 66.6626 128.493C68.4149 135.822 72.448 140.432 76.6319 139.992C78.0622 139.83 79.2605 139.132 80.2331 137.973C81.9773 135.895 83.0047 132.397 83.1205 127.794C83.3706 117.105 80.8813 106.434 75.9363 96.9033C75.0932 95.3103 74.0438 93.4762 72.3378 92.1809C71.9046 91.8855 71.3978 91.5965 70.8974 91.381ZM74.0956 97.8792C78.9015 107.089 81.2851 117.399 81.0428 127.754C80.8893 133.619 79.0583 137.668 76.4182 137.974C73.8517 138.272 70.3754 134.947 68.7352 128.053C66.4224 118.551 65.233 108.766 65.2262 98.9515C65.2317 97.3213 65.3793 95.1972 66.4191 93.9581C66.6203 93.7182 66.8615 93.512 67.1427 93.3392C67.9527 92.8609 69.0283 92.8779 70.1761 93.296C70.5229 93.4509 70.8363 93.6457 71.1896 93.874C72.4623 94.8738 73.3789 96.4604 74.0956 97.8792Z" fill="#EACDC1"/>
<path d="M125.071 283.425L125.295 284.295C127.855 293.664 130.497 302.692 133.16 311.533C132.412 311.451 131.657 311.294 130.903 311.138C128.306 302.624 125.797 293.844 123.302 284.802L123.038 283.899C119.014 268.807 115.859 265.342 113.909 265.068C112.486 264.896 111.057 266.762 110.196 268.356C108.623 271.123 108.919 274.505 109.407 278.388L113.185 307.17C112.464 306.973 111.743 306.777 110.982 306.548L107.322 278.682C106.892 275.46 106.312 270.955 108.369 267.367C110.17 264.247 112.153 262.777 114.21 263.005C119.158 263.683 122.603 274.271 125.071 283.425Z" fill="#EACDC1"/>
</g>
</g>
<defs>
<clipPath id="clip0">
<rect width="313" height="313" fill="white"/>
</clipPath>
</defs>
</svg>
