<svg width="259" height="259" viewBox="0 0 259 259" fill="none" xmlns="http://www.w3.org/2000/svg">
<g clip-path="url(#clip0)">
<g opacity="0.17">
<path d="M0.180949 121.565C0.120374 128.619 0.767181 135.703 3.84552 141.5C6.63295 146.771 10.6725 151.288 14.6354 155.628C18.5374 159.974 22.5716 164.43 25.453 169.724C29.1078 176.512 30.6207 184.041 32.1125 191.326C33.2511 197.018 34.4109 202.953 36.6615 208.394C37.357 210.049 38.0526 211.704 38.7534 213.42C40.528 217.616 42.2801 221.905 43.822 226.244C42.9241 225.434 42.0263 224.624 41.1285 223.815C39.9251 220.549 38.5394 217.3 37.1919 214.14C36.4911 212.424 35.7624 210.741 35.0669 209.086C32.7726 203.496 31.5798 197.533 30.4306 191.719C29.0103 184.55 27.508 177.143 23.9681 170.621C21.1966 165.532 17.2284 161.131 13.3648 156.874C9.36355 152.445 5.22484 147.845 2.32766 142.369C1.44964 140.73 0.771267 138.92 0.214548 137.1C-0.118836 131.858 -0.137527 126.711 0.180949 121.565Z" fill="white"/>
<path d="M116.622 42.6092C125.223 49.5446 130.174 61.3676 129.886 74.2645C129.752 80.4669 128.385 86.5939 127.091 92.5C126.714 94.1574 126.37 95.8425 126.026 97.5277C122.387 115.224 121.659 133.278 123.8 151.202C124.763 159.453 126.788 163.351 129.586 168.743C130.727 170.941 132.021 173.494 133.43 176.649C134.915 179.981 136.526 183.364 138.067 186.63C140.611 191.923 143.265 197.42 145.377 203.026C151.04 217.759 153.709 233.645 156.242 249.021C156.582 251.167 156.955 253.34 157.328 255.514C156.758 255.656 156.188 255.798 155.613 255.88C155.234 253.645 154.861 251.471 154.489 249.298C151.967 234.043 149.336 218.246 143.749 203.691C141.615 198.178 138.994 192.709 136.45 187.416C134.909 184.15 133.237 180.773 131.779 177.407C130.404 174.28 129.115 171.788 127.974 169.59C125.099 164.02 123.064 160.001 122.014 151.451C119.857 133.345 120.63 115.103 124.253 97.224C124.597 95.5388 124.974 93.8814 125.345 92.1632C126.645 86.3179 127.956 80.2571 128.107 74.2372C128.409 61.86 123.688 50.5685 115.484 43.9659C114.2 42.945 112.805 42.0564 111.438 41.1347L110.302 40.4072C101.916 34.8932 94.3091 28.1154 87.0274 21.5542C83.2377 18.1488 79.3159 14.6325 75.2936 11.3702C75.8528 11.1064 76.4399 10.8096 77.0653 10.6013C80.8946 13.7581 84.5851 17.0802 88.2041 20.2861C95.4805 26.7865 103.021 33.5088 111.313 39.0004L112.449 39.7279C113.844 40.6165 115.272 41.5328 116.622 42.6092Z" fill="white"/>
<path d="M15.4873 67.4755C16.3709 76.2239 16.3329 84.5938 15.3018 92.4687C14.7876 96.7738 13.6771 100.917 12.589 104.966C10.0481 114.506 7.61415 123.516 12.9973 133.615C15.7464 138.798 20.0411 143.078 24.1983 147.187C27.8213 150.791 31.5435 154.478 34.3454 158.859C37.6089 163.965 39.5541 169.77 41.4226 175.398C43.1218 180.489 45.1357 185.675 47.27 191.188C53.2681 206.596 59.4303 222.48 59.2153 237.976C58.6308 237.598 58.0464 237.22 57.4897 236.81C57.4258 221.982 51.466 206.663 45.6701 191.819C43.5359 186.306 41.4889 181.093 39.7844 175.941C37.9264 170.435 36.0527 164.746 32.8937 159.783C30.1685 155.579 26.5124 151.948 22.9885 148.427C18.7322 144.235 14.3382 139.872 11.4464 134.457C5.7948 123.737 8.29611 114.446 10.8992 104.563C11.9648 100.608 13.0476 96.4979 13.5723 92.3144C14.4395 85.3733 14.5727 78.0984 13.9669 70.4288C14.5182 69.3689 14.9863 68.4083 15.4873 67.4755Z" fill="white"/>
<path d="M108.526 53.4655C114.375 64.6885 116.832 76.7309 115.983 90.2287C115.489 97.9338 114.487 105.438 113.464 112.7C111.638 125.885 109.904 138.358 111.255 152.122C112.366 163.486 117.977 171.634 123.903 180.215C125.689 182.785 127.514 185.444 129.261 188.263C137.869 201.971 141.775 217.992 144.203 230.405C144.8 233.386 145.368 236.401 145.97 239.443C147.086 245.229 148.213 251.137 149.456 256.973C148.881 257.054 148.306 257.135 147.73 257.217C146.487 251.381 145.366 245.534 144.25 239.748C143.681 236.733 143.112 233.719 142.516 230.737C140.099 218.446 136.274 202.663 127.809 189.188C126.067 186.429 124.243 183.771 122.489 181.228C116.421 172.415 110.705 164.122 109.557 152.332C108.218 138.353 109.914 125.792 111.79 112.479C112.785 105.251 113.826 97.835 114.292 90.163C115.106 76.9746 112.736 65.231 107.036 54.3015C100.891 42.4916 92.1959 36.9436 81.2014 29.9736L78.7698 28.4407C73.5152 25.1029 68.4496 21.4727 63.5731 17.55C64.0941 17.1976 64.6203 16.9062 65.1465 16.6147C69.8194 20.3101 74.6535 23.7462 79.6543 26.9838L82.0859 28.5167C93.3065 35.62 102.162 41.2459 108.526 53.4655Z" fill="white"/>
<path d="M13.227 175.367C15.5927 179.664 15.72 185.353 15.6542 190.936C15.0393 189.856 14.4522 188.743 13.9259 187.625C13.8648 183.401 13.4494 179.331 11.737 176.203C10.6447 174.215 8.89269 172.745 7.01905 171.286C6.69109 170.334 6.35785 169.321 6.05765 168.336C6.42127 168.641 6.84571 168.941 7.20933 169.246C9.47435 170.978 11.8055 172.765 13.227 175.367Z" fill="white"/>
<path d="M137.194 36.6928C146.799 45.6545 151.244 59.7592 148.502 72.6268C147.679 76.5606 146.261 80.3324 144.832 83.9825C144.43 84.9986 144.061 86.0423 143.659 87.0584C135.089 110.43 133.304 136.054 138.463 161.19C140.741 172.237 145.536 182.97 150.144 193.321C152.999 199.72 155.931 206.297 158.254 212.926C161.917 223.33 162.852 234.434 163.723 245.145C163.966 247.943 164.187 250.835 164.463 253.661C163.893 253.803 163.357 253.973 162.787 254.115C162.467 251.14 162.213 248.22 161.959 245.3C161.066 234.683 160.174 223.729 156.588 213.502C154.303 206.961 151.371 200.385 148.55 194.013C143.903 183.573 139.07 172.751 136.748 161.555C131.501 136.121 133.321 110.187 142.047 86.4953C142.416 85.4515 142.818 84.4355 143.22 83.4194C144.593 79.8355 145.984 76.0968 146.789 72.3178C149.369 60.0467 145.132 46.5673 135.957 37.9662C130.956 33.3189 124.794 30.1222 118.798 27.0642C116.679 25.9635 114.467 24.8403 112.344 23.6788C107.965 21.2446 104.029 18.2811 100.133 15.4061C97.7078 13.5968 95.2166 11.7321 92.6805 10.0551C90.8611 8.86678 89.1634 7.6677 87.4656 6.46864C88.1518 6.25503 88.838 6.04143 89.4912 5.80007C90.8306 6.75484 92.1978 7.67653 93.6259 8.59285C96.2281 10.3253 98.7192 12.19 101.144 13.9993C104.975 16.8188 108.91 19.7824 113.129 22.1387C115.225 23.3333 117.404 24.4287 119.55 25.4964C125.706 28.6322 131.995 31.8791 137.194 36.6928Z" fill="white"/>
<path d="M167.373 58.1254C167.841 67.3702 165.154 77.3521 159.639 86.8781C158.682 88.5559 157.77 90.046 156.885 91.5029C152.73 98.335 149.731 103.318 149.154 112.533C148.53 122.272 148.569 132.228 149.299 142.032C150.826 163.105 156.05 186.887 164.063 208.891C165.238 212.189 166.601 215.532 167.893 218.759C170.669 225.656 173.56 232.818 175.217 240.242C175.912 243.306 176.431 246.448 176.794 249.572C176.263 249.803 175.698 250.006 175.134 250.209C174.759 246.963 174.263 243.727 173.563 240.602C171.888 233.332 169.064 226.226 166.327 219.418C165.035 216.191 163.671 212.848 162.463 209.522C154.435 187.336 149.138 163.438 147.596 142.182C146.888 132.284 146.844 122.267 147.463 112.467C148.064 102.821 151.146 97.7388 155.435 90.6805C156.292 89.2566 157.232 87.7336 158.161 86.0888C163.515 76.8222 166.111 67.2159 165.643 58.3084C165.119 48.0572 160.418 38.7559 153.021 33.3388C148.7 30.164 143.484 28.3245 138.422 26.502C137.473 26.1565 136.524 25.8111 135.574 25.4655C121.521 20.3276 108.196 12.9804 96.1593 3.89557C96.8785 3.70969 97.5648 3.49609 98.3171 3.33795C109.946 11.9683 122.748 18.9325 136.2 23.8475C137.149 24.193 138.098 24.5385 139.048 24.884C144.203 26.7289 149.579 28.6462 154.093 31.9266C161.848 37.588 166.868 47.3823 167.373 58.1254Z" fill="white"/>
<path d="M174.988 34.3478C179.086 40.944 179.508 48.9669 179.883 56.1051C180.467 66.6881 180.488 76.7995 174.787 84.5338C173.281 86.597 171.44 88.322 169.625 90.014C167.983 91.5682 166.286 93.1887 164.88 94.9979C157.702 104.425 159.431 114.785 161.306 125.775C161.598 127.374 161.857 128.944 162.089 130.548C162.541 133.634 163.115 136.71 163.628 139.791C165.169 148.696 166.769 157.933 166.695 166.949L166.71 167.469C166.619 176.64 166.527 186.149 168.15 195.292C169.459 202.593 172.602 208.783 175.898 215.327C176.71 216.911 177.489 218.466 178.273 220.083C182.189 228.105 184.859 236.604 186.91 245.035C186.383 245.327 185.852 245.558 185.293 245.821C183.269 237.357 180.599 228.858 176.717 220.863C175.966 219.275 175.154 217.691 174.375 216.135C171.007 209.475 167.793 203.169 166.462 195.624C164.796 186.332 164.883 176.762 164.996 167.497L164.982 166.978C165.071 158.143 163.477 148.967 161.941 140.123C161.395 137.014 160.849 133.906 160.396 130.82C160.137 129.249 159.906 127.645 159.614 126.046C157.782 115.206 155.885 103.972 163.563 93.9492C165.019 92.0129 166.805 90.3541 168.503 88.7337C170.228 87.0802 172.042 85.3883 173.437 83.4574C178.81 76.181 178.755 66.3791 178.231 56.1279C177.876 49.233 177.442 41.4257 173.592 35.2062C168.456 26.8932 158.576 23.2269 149.011 19.6555L147.046 18.9089C134.12 14.0396 121.706 8.02197 109.961 0.872889C110.868 0.731782 111.775 0.590611 112.654 0.482594C123.772 7.10466 135.507 12.7224 147.671 17.291L149.603 18.0097C159.339 21.7807 169.5 25.5141 174.988 34.3478Z" fill="white"/>
<path d="M62.0623 55.8077C69.1471 64.6847 75.1781 73.0722 76.7255 85.9301C77.8868 95.7574 78.0353 105.919 78.1573 115.776C78.323 128.603 78.4927 141.827 81.0252 154.384C83.9266 168.716 90.845 182.021 97.5769 194.944C99.8156 199.19 102.131 203.614 104.231 208.027C111.738 223.517 116.477 239.955 121.108 255.852C121.331 256.659 121.588 257.495 121.817 258.364C121.231 258.323 120.584 258.288 119.999 258.248C119.791 257.622 119.644 256.992 119.437 256.366C114.844 240.559 110.143 224.209 102.675 208.807C100.547 204.428 98.2646 200.032 96.0259 195.785C89.2557 182.774 82.266 169.353 79.2825 154.782C76.7394 142.104 76.5591 128.758 76.3881 115.871C76.2714 106.074 76.123 95.9126 74.9115 86.2123C73.4011 73.7801 67.5407 65.5922 60.6318 56.9756C56.6107 51.9663 48.5647 44.369 44.0229 45.351C43.2706 45.5091 42.661 45.8999 42.1057 46.5617C41.5227 47.2565 41.0599 48.2779 40.6844 49.5981C40.112 51.8244 40.5167 54.3631 40.8288 56.5422L45.8993 88.7652C46.6651 93.6932 46.6124 98.7238 46.6046 103.567C46.5413 108.476 46.5216 113.534 47.3151 118.429C49.0476 129.187 52.4091 138.943 57.4338 147.388C65.9177 161.781 77.6334 183.735 81.4634 208.038C82.979 217.711 83.2332 227.68 83.5165 237.278C83.6185 240.916 83.6873 244.526 83.784 248.103C83.8197 248.866 83.8224 249.601 83.825 250.337C83.2234 250.114 82.6548 249.919 82.081 249.663C82.0664 249.143 82.0519 248.623 82.0373 248.104C81.9407 244.526 81.8718 240.916 81.8029 237.306C81.5527 227.736 81.2429 217.834 79.7657 208.249C75.9899 184.217 64.384 162.468 55.9106 148.197C50.837 139.541 47.338 129.613 45.5844 118.612C44.775 113.535 44.8502 108.41 44.8804 103.473C44.9212 98.6581 44.9515 93.7214 44.2294 88.9428L39.1588 56.7198C38.77 54.3636 38.3495 51.6424 39.0118 49.0404C39.8421 45.9027 41.3969 44.0497 43.6539 43.5753C50.934 42.0153 61.9579 55.6637 62.0623 55.8077Z" fill="white"/>
<path d="M30.2687 45.7645C34.4435 62.406 36.7593 79.5174 37.0905 96.7116C37.1355 99.3433 37.125 102.041 37.0643 104.866C36.9496 114.468 36.8006 124.38 40.0787 132.826C42.0926 138.012 45.6773 142.937 49.2184 147.713C51.7254 151.17 54.3647 154.738 56.4011 158.42C61.324 167.457 65.5052 176.773 68.7688 186.109C73.5795 199.844 75.8226 215.767 75.3776 232.141C75.2376 236.872 75.042 241.671 74.8412 246.408C74.2674 246.152 73.7213 245.863 73.1474 245.607C73.3416 241.146 73.4975 236.597 73.6587 232.108C74.1526 215.944 71.8977 200.237 67.1636 186.679C63.9384 177.432 59.8286 168.232 54.9109 159.256C52.946 155.69 50.3729 152.178 47.8658 148.721C44.2864 143.856 40.6025 138.848 38.5396 133.452C35.1412 124.68 35.2744 114.585 35.4062 104.828C35.4392 102.036 35.4828 99.3661 35.4377 96.7345C35.0933 80.0931 32.919 63.5514 28.9412 47.4136C29.3247 46.8895 29.7966 46.327 30.2687 45.7645Z" fill="white"/>
<path d="M132.187 258.493C130.4 247.464 127.602 233.613 121.893 220.478C117.686 210.857 112.469 201.969 107.401 193.374C96.6928 175.254 86.6221 158.12 86.5552 135.509C86.5339 129.627 86.8946 123.558 87.2791 117.058C88.6046 94.5998 90.0159 71.3681 75.3968 54.0827C70.7529 48.6072 65.2602 43.9419 59.9659 39.4431C56.3905 36.3865 52.6551 33.2522 49.2688 29.9032C48.8338 29.4818 48.3934 28.9996 47.9148 28.4288C47.4877 28.8035 47.0276 29.1504 46.6005 29.5251C47.1123 30.1236 47.5909 30.6944 48.059 31.1436C51.5114 34.548 55.2191 37.7155 58.8553 40.7666C64.1166 45.2378 69.5762 49.8753 74.0878 55.2399C88.2944 72.0099 86.9121 94.8713 85.588 116.992C85.2035 123.492 84.815 129.594 84.8694 135.504C84.9456 158.574 95.1537 175.88 105.944 194.238C111.007 202.772 116.19 211.632 120.36 221.164C125.948 233.973 128.725 247.581 130.473 258.521L132.187 258.493Z" fill="white"/>
<path d="M23.4202 54.734C25.5281 64.1715 26.9935 73.972 27.7224 84.1132C28.2013 90.3229 27.863 96.2981 27.5644 102.025C26.8627 114.743 26.1914 126.755 34.3063 139.372C36.6799 143.055 39.4078 146.584 42.0365 150.031C44.9349 153.76 47.9047 157.605 50.4369 161.703C65.5323 185.873 68.3298 214.159 66.8711 242.482C66.325 242.193 65.7458 241.876 65.1944 241.526C66.5183 213.767 63.6852 186.127 48.9799 162.567C46.486 158.557 43.5492 154.74 40.6561 151.072C37.9943 147.598 35.2334 144.04 32.7938 140.302C24.3932 127.219 25.0433 114.965 25.7794 101.937C26.111 96.2378 26.4268 90.3565 25.9586 84.2684C25.2548 74.7686 23.964 65.5657 22.0253 56.6649C22.5198 56.0085 22.9534 55.3574 23.4202 54.734Z" fill="white"/>
<path d="M138.072 258.189C137.684 255.833 137.361 253.533 137.005 251.204C135.087 238.317 133.072 225.01 128.378 212.613C126.819 208.429 124.798 203.52 121.836 199.061C119.924 196.103 117.569 193.338 115.285 190.688C98.0191 170.449 91.2353 145.303 95.0581 115.975C95.5023 112.626 96.0575 109.144 96.6286 105.846C98.3431 95.612 100.059 85.0412 98.3133 74.8363C94.81 54.6421 79.489 43.0267 63.2755 30.6625C60.2555 28.3539 57.2024 26.0176 54.2048 23.6151C54.7258 23.2628 55.1859 22.9159 55.6791 22.5967C58.5113 24.8605 61.4322 27.0858 64.32 29.2834C80.1038 41.2871 96.4165 53.7346 100.034 74.5317C101.866 85.0354 100.073 95.7663 98.3686 106.122C97.7975 109.42 97.237 112.841 96.7929 116.19C93.0163 144.993 99.7023 169.718 116.627 189.559C118.916 192.269 121.271 195.034 123.283 198.075C126.349 202.678 128.408 207.676 130.005 211.949C134.776 224.523 136.802 237.952 138.698 250.933C139.059 253.322 139.387 255.683 139.808 258.067L138.072 258.189Z" fill="white"/>
<path d="M180.72 21.3398C183.979 24.6386 185.583 30.0445 187.007 34.7919C187.395 36.0756 187.749 37.3316 188.154 38.4605C190.088 44.1438 192.174 50.8558 192.942 57.9288C194.09 68.3089 192.074 77.8947 187.222 84.8187C185.043 87.9525 182.407 90.7589 179.853 93.4659C172.843 100.948 166.788 107.426 170.995 118.456C179.859 141.795 183.706 167.353 182.106 192.286L182.028 193.856C181.736 197.897 181.482 202.026 182.252 205.942C183.011 209.737 184.799 213.379 186.51 216.845L187.256 218.373C190.622 225.371 193.524 232.655 195.827 240.113C195.301 240.405 194.808 240.724 194.281 241.016C191.973 233.496 189.094 226.118 185.694 219.093L184.948 217.565C183.166 213.983 181.34 210.251 180.56 206.213C179.708 202.059 180.012 197.803 180.266 193.674L180.371 192.071C181.932 167.386 178.111 142.133 169.357 118.999C164.783 106.928 171.516 99.7772 178.581 92.2293C181.079 89.5885 183.688 86.8153 185.783 83.7808C190.386 77.1546 192.289 68.0383 191.206 58.0509C190.454 51.1604 188.407 44.537 186.482 38.9754C186.078 37.8464 185.69 36.5627 185.331 35.2459C183.955 30.7086 182.4 25.513 179.444 22.5247C171.482 14.491 158.551 9.56079 148.125 5.6054L147.109 5.20443C144.162 4.08468 141.06 2.94791 137.804 1.79408C135.684 1.03055 133.531 0.239244 131.346 -0.579767C133.186 -0.557842 135.027 -0.535884 136.878 -0.392305C137.386 -0.19181 137.893 0.0086652 138.429 0.17607C141.719 1.35763 144.821 2.4944 147.801 3.64189L148.816 4.04286C159.341 8.08146 172.494 13.0842 180.72 21.3398Z" fill="white"/>
<path d="M193.323 16.185C194.577 17.9135 195.719 19.7744 196.756 21.8284C201.145 30.3604 203.335 40.0358 205.043 48.4051C206.79 56.8631 208.402 65.8845 207.213 74.7541C205.932 84.3366 201.364 92.0631 194.02 97.1224L193.815 97.2323C186.76 102.082 181.7 105.562 180.929 114.67C180.349 121.739 182.572 128.623 185.054 135.668L186.432 139.531C191.638 153.936 196.98 168.85 195.467 184.215C195.158 187 194.694 189.769 194.164 192.482C193.435 196.438 192.69 200.549 192.707 204.623C192.765 215.16 197.757 224.988 202.601 234.522C202.749 234.815 202.93 235.136 203.05 235.463C202.59 235.81 202.097 236.129 201.604 236.448C201.418 236.066 201.231 235.684 201.045 235.302C196.097 225.624 190.995 215.592 190.96 204.624C190.932 200.428 191.7 196.223 192.424 192.206C192.898 189.559 193.423 186.785 193.677 184.066C195.166 169.133 189.84 154.401 184.738 140.139L183.36 136.277C180.769 129.027 178.497 121.933 179.172 114.549C179.996 104.639 185.637 100.802 192.776 95.8528L192.948 95.7151C199.887 90.9366 204.215 83.6295 205.417 74.5444C206.567 65.9235 204.971 57.0845 203.267 48.7759C201.536 40.5005 199.362 31.0075 195.111 22.6473C193.449 19.3918 191.52 16.5889 189.407 14.1392C189.473 14.1947 189.567 14.2171 189.633 14.2726L193.323 16.185Z" fill="white"/>
<path d="M207.792 25.7303C214.888 41.7776 218.248 56.1003 218.025 69.3898C217.756 83.2044 213.775 93.4536 205.831 100.772C204.667 101.825 203.408 102.855 202.177 103.852C198.711 106.639 195.479 109.283 193.883 113.132C192.164 117.329 192.947 122.102 193.928 127.042C196.391 139.145 199.35 151.327 202.654 163.233L202.867 163.92C204.371 169.242 205.887 174.687 205.672 180.314C205.586 182.497 205.246 184.581 204.906 186.664C204.646 188.25 204.391 189.896 204.257 191.532C203.171 203.703 209.074 215.197 214.972 226.293C214.545 226.667 214.091 227.075 213.63 227.422C207.517 215.977 201.373 204.167 202.528 191.378C202.689 189.709 202.939 188.001 203.227 186.382C203.572 184.36 203.912 182.277 203.98 180.248C204.189 174.897 202.684 169.575 201.223 164.401L201.038 163.682C197.641 151.753 194.709 139.538 192.241 127.374C191.178 122.196 190.402 117.147 192.266 112.508C194.012 108.279 197.589 105.359 201.082 102.539C202.285 101.575 203.544 100.544 204.681 99.525C212.258 92.5757 216.061 82.7406 216.312 69.418C216.553 55.6364 212.831 40.6714 204.981 23.7097L205.047 23.7652L207.792 25.7303Z" fill="white"/>
<path d="M217.082 33.5245L220.023 36.3304C223.92 46.254 227.356 56.5247 228.293 67.2911C229.665 82.7082 225.2 96.5549 216.118 105.23C215.269 106.04 214.387 106.823 213.472 107.578C211.276 109.456 209.196 111.264 207.778 113.626C203.894 120.066 206.243 125.927 208.712 132.115C209.533 134.158 210.392 136.289 211.042 138.469C214.255 149.341 215.687 160.524 215.285 171.745C215.193 173.868 215.069 175.963 214.917 178.091C214.634 182.59 214.307 187.277 214.67 191.811C215.447 201.09 219 209.88 223.046 218.35C222.658 218.813 222.175 219.254 221.753 219.689C217.554 210.865 213.725 201.732 212.934 191.933C212.56 187.277 212.883 182.53 213.16 177.969C213.284 175.875 213.408 173.78 213.533 171.685C213.951 160.646 212.535 149.646 209.337 138.956C208.726 136.864 207.872 134.794 207.051 132.752C204.511 126.448 201.856 119.878 206.2 112.753C207.752 110.165 210.032 108.187 212.228 106.308C213.082 105.559 213.997 104.804 214.818 104.027C223.562 95.6877 227.798 82.3821 226.474 67.5125C225.563 55.6404 221.428 44.3893 217.082 33.5245Z" fill="white"/>
<path d="M231.105 48.5637L233.943 52.2981C235.315 57.5098 236.445 62.743 237.06 68.052C238.912 83.7027 235.284 98.3644 227.038 108.192C226.182 109.279 225.227 110.282 224.306 111.313C220.253 115.807 216.09 120.433 216.876 125.942C217.231 128.27 218.494 130.458 219.752 132.584L220.323 133.515C227.9 146.639 230.861 162.713 228.393 177.671C228.11 179.351 227.771 181.097 227.394 182.754C226.555 186.843 225.698 191.086 225.876 195.238C226.093 200.552 227.974 205.627 230.255 210.36C229.867 210.823 229.45 211.32 229.034 211.816C226.505 206.706 224.371 201.194 224.134 195.3C223.936 190.904 224.843 186.534 225.705 182.351C226.048 180.666 226.392 178.981 226.675 177.301C229.086 162.746 226.251 147.06 218.827 134.29L218.289 133.387C216.96 131.144 215.593 128.813 215.206 126.119C214.29 119.825 218.765 114.896 223.067 110.104C223.989 109.073 224.882 108.075 225.743 107.049C233.684 97.5858 237.172 83.4267 235.357 68.2018C234.57 61.6207 233.081 55.0708 231.105 48.5637Z" fill="white"/>
<path d="M241.756 64.2675L244.204 68.8024C244.586 71.435 244.908 74.073 245.196 76.6832C246.172 85.7912 242.794 97.3357 235.246 110.963C234.795 111.769 234.344 112.575 233.838 113.447C231.835 116.841 229.565 120.688 229.17 124.247C228.774 127.806 230.271 132.333 231.599 136.323C232.058 137.723 232.511 139.062 232.833 140.29L233.274 141.845C236.251 152.462 239.32 163.439 237.569 174.657C237.291 176.398 236.892 178.149 236.548 179.834C235.974 182.398 235.384 185.116 235.213 187.736C234.981 192.108 235.898 196.318 237.475 200.347C237.096 200.932 236.718 201.517 236.307 202.074C234.435 197.458 233.254 192.689 233.517 187.609C233.671 184.807 234.29 182.055 234.886 179.398C235.263 177.741 235.634 176.022 235.857 174.348C237.518 163.506 234.526 152.706 231.598 142.299L231.156 140.744C230.807 139.549 230.387 138.237 229.9 136.87C228.529 132.731 226.955 128.028 227.407 124.065C227.831 120.136 230.18 116.129 232.294 112.602C232.772 111.763 233.284 110.952 233.707 110.179C241.099 96.872 244.387 85.7031 243.443 76.96C243.078 72.7629 242.497 68.5541 241.756 64.2675Z" fill="white"/>
<path d="M246.427 184.512C245.999 180.657 246.075 176.943 246.2 173.101C246.261 170.276 246.344 167.357 246.206 164.366C245.678 153.717 243.905 143.545 240.907 134.094C240.733 133.496 240.492 132.843 240.284 132.218C238.842 127.962 237.257 123.137 238.955 118.697C239.982 116.063 241.689 113.492 243.341 110.987C244.475 109.232 245.559 107.604 246.428 105.965C249.58 99.926 251.324 93.5513 252.062 86.8973C252.478 88.1479 252.893 89.3986 253.28 90.6823C252.352 96.2191 250.645 101.61 247.967 106.749C247.076 108.482 245.908 110.209 244.802 111.931C243.206 114.37 241.554 116.875 240.605 119.349C239.131 123.187 240.628 127.713 241.983 131.67C242.224 132.323 242.432 132.948 242.639 133.574C245.708 143.141 247.498 153.495 248.036 164.266C248.179 167.318 248.101 170.298 248.013 173.156C247.947 175.92 247.87 178.562 248.014 181.277L246.427 184.512Z" fill="white"/>
<path d="M256.742 152.682C255.755 147.682 254.498 142.736 252.941 137.877L252.39 136.117C250.97 131.768 249.539 127.297 249.651 122.598C249.831 116.208 252.297 110.383 254.69 104.778C255.119 103.729 255.549 102.68 256.006 101.598C256.246 102.588 256.424 103.584 256.636 104.607C256.535 104.861 256.407 105.148 256.307 105.402C253.964 110.88 251.576 116.545 251.398 122.598C251.287 126.959 252.679 131.342 254.056 135.542L254.607 137.301C255.743 140.848 256.697 144.411 257.534 148.046L256.742 152.682Z" fill="white"/>
<path d="M58.6388 74.9257C57.2095 74.3466 55.7445 74.4142 54.6365 75.0633C52.4813 76.3563 52.2328 79.1363 52.225 81.1597C52.2371 89.4025 53.2 97.6536 55.1202 105.637C56.5669 111.7 59.9017 115.513 63.3632 115.147C64.5466 115.012 65.5383 114.435 66.3435 113.475C67.7873 111.755 68.6387 108.86 68.7364 105.051C68.9477 96.2066 66.8926 87.3774 62.8053 79.4931C62.1085 78.1754 61.2411 76.6581 59.8302 75.587C59.4719 75.3427 59.0527 75.1038 58.6388 74.9257ZM61.2822 80.3014C65.2544 87.92 67.2222 96.4504 67.0175 105.019C66.8881 109.872 65.3716 113.224 63.1873 113.477C61.0638 113.725 58.1892 110.975 56.8351 105.271C54.9255 97.4099 53.9455 89.3135 53.9438 81.1923C53.9491 79.8434 54.072 78.0857 54.9327 77.0599C55.0993 76.8614 55.299 76.6906 55.5317 76.5476C56.202 76.1515 57.0919 76.1651 58.0413 76.5106C58.3282 76.6386 58.5874 76.7996 58.8796 76.9885C59.9321 77.8152 60.6898 79.1277 61.2822 80.3014Z" fill="white"/>
<path d="M103.38 233.814L103.565 234.533C105.679 242.284 107.861 249.754 110.06 257.069C109.441 257.001 108.817 256.872 108.193 256.743C106.048 249.699 103.976 242.434 101.916 234.954L101.698 234.207C98.3745 221.72 95.7656 218.854 94.1525 218.628C92.9757 218.486 91.7924 220.031 91.0798 221.35C89.7775 223.641 90.0208 226.439 90.4229 229.652L93.5363 253.466C92.9399 253.304 92.3436 253.142 91.7142 252.952L88.6974 229.896C88.343 227.23 87.8655 223.502 89.5684 220.533C91.0598 217.95 92.7006 216.733 94.4024 216.921C98.496 217.48 101.342 226.239 103.38 233.814Z" fill="white"/>
</g>
</g>
<defs>
<clipPath id="clip0">
<rect width="259" height="259" fill="white"/>
</clipPath>
</defs>
</svg>
