<svg width="293" height="293" viewBox="0 0 293 293" fill="none" xmlns="http://www.w3.org/2000/svg">
<g clip-path="url(#clip0)">
<g opacity="0.17">
<path d="M0.233336 138.486C0.168654 146.476 0.905336 154.499 4.39582 161.067C7.55646 167.039 12.1351 172.158 16.6268 177.076C21.0496 182 25.6222 187.05 28.8892 193.047C33.0334 200.738 34.7514 209.266 36.4454 217.518C37.7384 223.966 39.0556 230.689 41.6082 236.853C42.3971 238.728 43.1859 240.602 43.9808 242.546C45.9935 247.299 47.9807 252.159 49.7298 257.074C48.7123 256.156 47.6947 255.239 46.6772 254.321C45.3122 250.622 43.7405 246.941 42.2123 243.361C41.4174 241.417 40.591 239.51 39.8022 237.636C37.2001 231.302 35.8454 224.548 34.5403 217.962C32.9273 209.842 31.2213 201.452 27.2077 194.062C24.0651 188.297 19.5674 183.31 15.1881 178.486C10.6529 173.468 5.9619 168.255 2.67682 162.051C1.68126 160.194 0.911762 158.144 0.280074 156.082C-0.100521 150.144 -0.12457 144.315 0.233336 138.486Z" fill="white"/>
<path d="M132.097 49.1233C141.845 56.9834 147.46 70.3773 147.141 84.9846C146.992 92.0096 145.447 98.9485 143.984 105.637C143.558 107.514 143.17 109.423 142.781 111.331C138.668 131.373 137.854 151.821 140.29 172.123C141.385 181.469 143.681 185.885 146.853 191.995C148.147 194.485 149.615 197.377 151.212 200.951C152.896 204.726 154.724 208.558 156.471 212.259C159.356 218.255 162.366 224.483 164.761 230.834C171.185 247.524 174.218 265.518 177.095 282.935C177.481 285.366 177.905 287.828 178.329 290.29C177.683 290.451 177.038 290.611 176.386 290.703C175.957 288.172 175.533 285.71 175.109 283.247C172.244 265.968 169.255 248.075 162.918 231.585C160.497 225.34 157.525 219.144 154.64 213.148C152.893 209.448 150.996 205.622 149.343 201.809C147.784 198.266 146.322 195.443 145.028 192.953C141.768 186.643 139.461 182.089 138.266 172.404C135.812 151.895 136.678 131.235 140.773 110.986C141.161 109.078 141.587 107.201 142.007 105.255C143.476 98.635 144.958 91.771 145.125 84.9526C145.461 70.934 140.107 58.1422 130.808 50.6593C129.353 49.5022 127.773 48.495 126.223 47.4503L124.936 46.6256C115.434 40.3756 106.812 32.6946 98.5597 25.2591C94.2648 21.3999 89.82 17.415 85.2615 13.7177C85.895 13.4193 86.5598 13.0834 87.2682 12.8479C91.6079 16.4255 95.7904 20.1903 99.892 23.8234C108.139 31.19 116.685 38.8081 126.081 45.0328L127.368 45.8575C128.949 46.8647 130.567 47.9033 132.097 49.1233Z" fill="white"/>
<path d="M17.5401 77.231C18.5459 87.1403 18.5075 96.6202 17.3439 105.539C16.7638 110.415 15.508 115.107 14.2777 119.692C11.4046 130.497 8.65237 140.7 14.7562 152.142C17.8733 158.013 22.741 162.864 27.4527 167.52C31.559 171.604 35.7776 175.782 38.9542 180.746C42.654 186.531 44.8608 193.107 46.9807 199.483C48.9085 205.25 51.1928 211.125 53.6136 217.37C60.4171 234.825 67.4067 252.82 67.1718 270.37C66.5095 269.942 65.8472 269.514 65.2164 269.048C65.1356 252.255 58.3756 234.899 51.8016 218.083C49.3808 211.839 47.059 205.932 45.1251 200.096C43.0174 193.859 40.8915 187.415 37.3102 181.792C34.2206 177.029 30.0768 172.914 26.0829 168.924C21.2588 164.174 16.2788 159.229 12.9997 153.094C6.59147 140.95 9.41985 130.427 12.3632 119.235C13.5681 114.756 14.7924 110.101 15.3846 105.363C16.363 97.5021 16.5099 89.2623 15.8193 80.5751C16.4433 79.375 16.973 78.2873 17.5401 77.231Z" fill="white"/>
<path d="M122.931 61.415C129.563 74.1298 132.353 87.7708 131.4 103.058C130.844 111.785 129.713 120.285 128.558 128.509C126.497 143.442 124.54 157.568 126.077 173.158C127.342 186.03 133.704 195.262 140.421 204.984C142.446 207.897 144.515 210.909 146.495 214.103C156.255 229.634 160.689 247.783 163.446 261.843C164.124 265.22 164.769 268.635 165.453 272.081C166.72 278.635 168 285.327 169.412 291.938C168.76 292.03 168.109 292.121 167.457 292.213C166.046 285.602 164.772 278.979 163.504 272.425C162.858 269.011 162.213 265.596 161.535 262.219C158.79 248.296 154.449 230.417 144.851 215.15C142.877 212.025 140.808 209.012 138.821 206.131C131.942 196.146 125.461 186.75 124.154 173.396C122.63 157.561 124.544 143.335 126.662 128.258C127.785 120.072 128.96 111.672 129.484 102.983C130.399 88.046 127.707 74.7434 121.244 62.361C114.276 48.9813 104.423 42.6925 91.9639 34.7919L89.2084 33.0543C83.254 29.2709 77.5135 25.1563 71.987 20.7106C72.577 20.3119 73.1729 19.982 73.7689 19.6522C79.0646 23.8404 84.5428 27.7349 90.2096 31.4047L92.9651 33.1423C105.68 41.1941 115.715 47.5711 122.931 61.415Z" fill="white"/>
<path d="M15.0386 199.431C17.7209 204.299 17.8681 210.743 17.7965 217.067C17.0994 215.843 16.4337 214.582 15.8368 213.315C15.7654 208.531 15.2927 203.921 13.3511 200.377C12.1126 198.125 10.1271 196.459 8.00374 194.805C7.6317 193.726 7.25365 192.579 6.91304 191.463C7.32514 191.809 7.80612 192.149 8.21822 192.495C10.7851 194.457 13.4269 196.482 15.0386 199.431Z" fill="white"/>
<path d="M155.394 42.4334C166.28 52.5891 171.323 68.5671 168.224 83.1399C167.295 87.595 165.69 91.8663 164.073 95.9998C163.618 97.1504 163.201 98.3324 162.746 99.483C153.051 125.949 151.043 154.971 156.901 183.444C159.488 195.957 164.926 208.117 170.152 219.844C173.39 227.093 176.715 234.543 179.35 242.054C183.506 253.84 184.571 266.417 185.563 278.549C185.841 281.718 186.092 284.994 186.407 288.195C185.762 288.355 185.154 288.547 184.508 288.708C184.144 285.338 183.855 282.031 183.565 278.724C182.548 266.698 181.532 254.29 177.463 242.705C174.871 235.295 171.546 227.845 168.346 220.627C163.077 208.799 157.595 196.539 154.958 183.857C149.001 155.046 151.048 125.673 160.92 98.8443C161.337 97.6623 161.792 96.5117 162.247 95.3611C163.801 91.3026 165.374 87.0688 166.284 82.7889C169.199 68.8918 164.392 53.6221 153.993 43.8751C148.326 38.6086 141.344 34.9844 134.549 31.5175C132.149 30.2695 129.642 28.9962 127.236 27.6794C122.274 24.9199 117.814 21.5611 113.398 18.3026C110.65 16.252 107.827 14.1385 104.953 12.2378C102.891 10.8908 100.967 9.53172 99.0434 8.17268C99.8207 7.93111 100.598 7.68956 101.338 7.41656C102.856 8.49871 104.405 9.54342 106.023 10.5821C108.972 12.5457 111.795 14.6592 114.543 16.7098C118.884 19.9054 123.344 23.2643 128.125 25.9354C130.5 27.2897 132.969 28.5316 135.4 29.7421C142.376 33.2973 149.502 36.9783 155.394 42.4334Z" fill="white"/>
<path d="M189.594 66.7256C190.129 77.1969 187.091 88.5013 180.849 99.2877C179.766 101.188 178.733 102.875 177.732 104.524C173.028 112.26 169.634 117.903 168.985 128.339C168.284 139.37 168.333 150.647 169.166 161.752C170.907 185.621 176.839 212.559 185.928 237.486C187.262 241.223 188.808 245.01 190.273 248.666C193.421 256.478 196.7 264.592 198.581 273.001C199.371 276.473 199.96 280.032 200.374 283.571C199.772 283.832 199.132 284.061 198.493 284.291C198.067 280.614 197.503 276.949 196.708 273.408C194.807 265.174 191.603 257.123 188.499 249.411C187.033 245.756 185.487 241.968 184.116 238.2C175.009 213.067 168.996 185.996 167.237 161.92C166.429 150.709 166.374 139.363 167.069 128.264C167.745 117.339 171.233 111.584 176.088 103.592C177.058 101.98 178.122 100.255 179.174 98.3929C185.233 87.9002 188.169 77.0212 187.634 66.9319C187.035 55.3209 181.704 44.7832 173.322 38.6435C168.425 35.0452 162.515 32.9587 156.78 30.8917C155.704 30.4999 154.629 30.1081 153.553 29.7162C137.631 23.8889 122.531 15.5598 108.89 5.26323C109.705 5.0531 110.482 4.81155 111.334 4.63285C124.513 14.4144 139.02 22.3094 154.26 27.8839C155.336 28.2758 156.412 28.6676 157.487 29.0595C163.329 31.1519 169.42 33.3266 174.536 37.0446C183.324 43.4612 189.016 54.5573 189.594 66.7256Z" fill="white"/>
<path d="M198.208 39.7986C202.854 47.272 203.336 56.3592 203.766 64.4445C204.433 76.4315 204.463 87.8841 198.009 96.641C196.304 98.977 194.219 100.93 192.165 102.845C190.305 104.605 188.383 106.439 186.792 108.487C178.665 119.161 180.629 130.896 182.76 143.345C183.092 145.155 183.386 146.935 183.649 148.752C184.164 152.247 184.815 155.731 185.398 159.221C187.149 169.308 188.967 179.771 188.888 189.983L188.905 190.572C188.807 200.96 188.708 211.729 190.551 222.086C192.039 230.356 195.603 237.369 199.341 244.783C200.261 246.577 201.145 248.339 202.034 250.171C206.474 259.259 209.503 268.887 211.831 278.438C211.235 278.768 210.633 279.029 210 279.327C207.703 269.739 204.674 260.111 200.271 251.054C199.42 249.254 198.499 247.46 197.616 245.698C193.797 238.152 190.152 231.008 188.64 222.462C186.747 211.936 186.841 201.097 186.964 190.603L186.947 190.014C187.044 180.009 185.232 169.614 183.487 159.596C182.867 156.075 182.246 152.554 181.732 149.058C181.438 147.279 181.175 145.462 180.843 143.651C178.762 131.371 176.607 118.647 185.299 107.299C186.947 105.107 188.97 103.229 190.892 101.394C192.846 99.5226 194.9 97.6073 196.479 95.4211C202.562 87.1826 202.493 76.0805 201.894 64.4694C201.488 56.6598 200.992 47.8167 196.627 40.7701C190.804 31.3516 179.61 27.1935 168.772 23.143L166.546 22.2964C151.9 16.774 137.834 9.95127 124.525 1.8474C125.552 1.68808 126.58 1.52869 127.576 1.40684C140.174 8.91344 153.47 15.2829 167.254 20.4642L169.442 21.2793C180.473 25.5559 191.987 29.7902 198.208 39.7986Z" fill="white"/>
<path d="M70.2952 64.0416C78.326 74.1 85.1628 83.6032 86.923 98.1675C88.244 109.299 88.4178 120.808 88.5615 131.973C88.7564 146.501 88.9561 161.479 91.832 175.703C95.1268 191.938 102.972 207.011 110.605 221.652C113.143 226.463 115.769 231.475 118.15 236.474C126.663 254.023 132.041 272.644 137.296 290.652C137.549 291.567 137.84 292.513 138.1 293.497C137.437 293.451 136.704 293.411 136.041 293.365C135.805 292.657 135.638 291.942 135.403 291.234C130.191 273.327 124.857 254.805 116.387 237.357C113.975 232.396 111.387 227.415 108.848 222.604C101.172 207.863 93.2459 192.658 89.8581 176.153C86.9701 161.792 86.7584 146.676 86.5574 132.079C86.4198 120.983 86.2459 109.474 84.8681 98.4861C83.1501 84.4042 76.5067 75.1269 68.6752 65.3635C64.1172 59.6876 54.9982 51.0782 49.8537 52.1878C49.0015 52.3665 48.3112 52.8088 47.6825 53.558C47.0224 54.3447 46.4987 55.5014 46.0741 56.9964C45.4269 59.5177 45.8867 62.3933 46.2415 64.8616L52.0036 101.361C52.8738 106.943 52.8169 112.641 52.8108 118.126C52.7418 123.687 52.7224 129.416 53.624 134.961C55.5927 147.146 59.4061 158.198 65.103 167.767C74.7219 184.073 88.006 208.946 92.3584 236.474C94.0807 247.431 94.3743 258.722 94.7005 269.593C94.8181 273.714 94.8981 277.803 95.0096 281.855C95.0505 282.719 95.0539 283.552 95.0573 284.384C94.3757 284.132 93.7315 283.91 93.0813 283.62C93.0645 283.031 93.0477 282.443 93.0309 281.854C92.9194 277.802 92.8394 273.713 92.7593 269.624C92.4705 258.784 92.1141 247.569 90.4352 236.712C86.1445 209.49 72.9848 184.85 63.3779 168.681C57.6255 158.875 53.6562 147.628 51.6635 135.167C50.7438 129.415 50.826 123.611 50.8575 118.02C50.9011 112.566 50.9326 106.974 50.1119 101.562L44.3498 65.0618C43.9081 62.3929 43.4301 59.3105 44.179 56.3639C45.1178 52.8104 46.8781 50.7125 49.4347 50.1764C57.681 48.4136 70.1768 63.8784 70.2952 64.0416Z" fill="white"/>
<path d="M34.2746 52.6485C39.0133 71.4995 41.6463 90.8819 42.0311 110.357C42.0836 113.338 42.0732 116.393 42.006 119.593C41.8814 130.469 41.7181 141.695 45.4364 151.263C47.7207 157.138 51.7843 162.718 55.7984 168.129C58.6405 172.046 61.6323 176.089 63.9412 180.261C69.5232 190.499 74.265 201.053 77.9673 211.629C83.4247 227.189 85.9746 245.225 85.4796 263.77C85.3237 269.129 85.1048 274.564 84.88 279.929C84.2298 279.639 83.611 279.311 82.9608 279.021C83.1783 273.969 83.3523 268.816 83.5324 263.732C84.0829 245.425 81.5196 227.633 76.1492 212.274C72.4904 201.798 67.8295 191.376 62.2536 181.207C60.0257 177.167 57.1088 173.187 54.2668 169.27C50.2092 163.759 46.0331 158.084 43.6932 151.971C39.8385 142.033 39.9837 130.6 40.1277 119.549C40.1634 116.387 40.2113 113.362 40.1588 110.382C39.7594 91.5329 37.287 72.796 32.7718 54.5155C33.2059 53.9222 33.7402 53.2853 34.2746 52.6485Z" fill="white"/>
<path d="M149.846 293.65C147.816 281.157 144.638 265.467 138.164 250.586C133.392 239.688 127.478 229.618 121.731 219.88C109.591 199.351 98.1729 179.939 98.0845 154.328C98.057 147.666 98.4623 140.792 98.8943 133.43C100.383 107.994 101.969 81.6815 85.3983 62.0953C80.1346 55.891 73.9097 50.6038 67.9096 45.5053C63.8575 42.0414 59.6242 38.4892 55.7862 34.6941C55.2931 34.2166 54.794 33.6701 54.2515 33.0234C53.7679 33.4475 53.2469 33.8402 52.7633 34.2643C53.3433 34.9426 53.8859 35.5894 54.4164 36.0984C58.3293 39.9563 62.5312 43.5459 66.6521 47.0038C72.6148 52.0709 78.8022 57.3266 83.9161 63.4052C100.019 82.4075 98.4661 108.3 96.9785 133.354C96.5465 140.717 96.1098 147.628 96.1747 154.322C96.2739 180.452 107.848 200.059 120.081 220.857C125.822 230.526 131.699 240.565 136.427 251.363C142.765 265.874 145.918 281.288 147.905 293.681L149.846 293.65Z" fill="white"/>
<path d="M26.52 62.8036C28.9132 73.494 30.5787 84.5953 31.4101 96.0819C31.956 103.116 31.5762 109.883 31.2411 116.369C30.4533 130.774 29.6996 144.378 38.8995 158.673C41.5903 162.847 44.6825 166.846 47.6624 170.751C50.9479 174.976 54.3144 179.333 57.1852 183.976C74.2992 211.36 77.4841 243.399 75.8475 275.478C75.2287 275.15 74.5724 274.791 73.9476 274.395C75.4318 242.954 72.2069 211.647 55.5351 184.954C52.7077 180.411 49.3787 176.085 46.0992 171.929C43.0819 167.992 39.9523 163.962 37.1865 159.726C27.6628 144.904 28.3924 131.024 29.2189 116.268C29.5915 109.814 29.9459 103.153 29.412 96.2567C28.6095 85.4965 27.1421 75.0722 24.9409 64.9898C25.5007 64.2466 25.9916 63.5094 26.52 62.8036Z" fill="white"/>
<path d="M156.516 293.309C156.075 290.64 155.708 288.034 155.303 285.397C153.124 270.8 150.833 255.726 145.508 241.682C143.74 236.942 141.448 231.381 138.09 226.329C135.923 222.978 133.253 219.844 130.665 216.842C111.094 193.908 103.395 165.423 107.709 132.207C108.21 128.414 108.837 124.472 109.482 120.736C111.419 109.146 113.357 97.1738 111.374 85.6144C107.394 62.7397 90.031 49.5751 71.6569 35.5619C68.2344 32.9455 64.7744 30.2976 61.3773 27.5748C61.9673 27.176 62.4883 26.7833 63.0468 26.422C66.2566 28.9877 69.5667 31.5098 72.8394 34.0005C90.7265 47.6051 109.213 61.7127 113.322 85.2703C115.404 97.1682 113.378 109.321 111.454 121.049C110.809 124.785 110.176 128.659 109.674 132.452C105.412 165.073 113 193.082 132.184 215.564C134.779 218.634 137.448 221.768 139.728 225.213C143.205 230.428 145.54 236.091 147.352 240.931C152.764 255.176 155.066 270.387 157.22 285.09C157.631 287.796 158.004 290.471 158.483 293.172L156.516 293.309Z" fill="white"/>
<path d="M204.696 25.0682C208.39 28.8064 210.21 34.9302 211.826 40.3082C212.266 41.7623 212.668 43.185 213.127 44.4639C215.322 50.9021 217.688 58.5055 218.562 66.5171C219.869 78.2746 217.59 89.1308 212.097 96.9705C209.631 100.519 206.646 103.696 203.755 106.76C195.818 115.23 188.961 122.565 193.734 135.06C203.788 161.5 208.161 190.449 206.362 218.689L206.274 220.467C205.946 225.044 205.661 229.72 206.535 234.156C207.397 238.455 209.424 242.582 211.364 246.508L212.21 248.239C216.028 256.167 219.318 264.418 221.932 272.868C221.336 273.198 220.778 273.559 220.182 273.889C217.562 265.37 214.297 257.013 210.441 249.053L209.596 247.322C207.574 243.264 205.504 239.037 204.618 234.463C203.651 229.757 203.992 224.937 204.278 220.26L204.396 218.445C206.151 190.486 201.808 161.881 191.879 135.674C186.69 122 194.313 113.904 202.313 105.359C205.141 102.369 208.095 99.2299 210.467 95.794C215.677 88.2915 217.828 77.9671 216.596 66.6545C215.739 58.8496 213.417 51.3465 211.234 45.0462C210.775 43.7672 210.335 42.313 209.927 40.8214C208.367 35.6815 206.602 29.7959 203.251 26.4096C194.228 17.3058 179.576 11.7145 167.763 7.22869L166.612 6.77397C163.273 5.50405 159.758 4.21477 156.068 2.90609C153.666 2.0401 151.228 1.14264 148.751 0.213775C150.836 0.239636 152.921 0.265535 155.018 0.429191C155.593 0.656562 156.169 0.883912 156.776 1.07382C160.503 2.41393 164.018 3.70321 167.394 5.00457L168.545 5.45929C180.47 10.0394 195.373 15.713 204.696 25.0682Z" fill="white"/>
<path d="M218.972 19.2369C220.393 21.1953 221.689 23.3037 222.864 25.6307C227.841 35.2968 230.327 46.2567 232.267 55.7372C234.251 65.3179 236.082 75.5368 234.74 85.5822C233.294 96.4349 228.123 105.184 219.807 110.91L219.575 111.034C211.586 116.524 205.855 120.462 204.987 130.778C204.334 138.784 206.856 146.582 209.672 154.563L211.235 158.939C217.141 175.258 223.201 192.153 221.495 209.555C221.146 212.71 220.622 215.845 220.023 218.917C219.2 223.398 218.358 228.054 218.38 232.669C218.452 244.603 224.112 255.737 229.605 266.538C229.773 266.871 229.978 267.235 230.114 267.604C229.593 267.997 229.035 268.358 228.476 268.72C228.265 268.287 228.053 267.854 227.842 267.421C222.231 256.457 216.447 245.091 216.401 232.668C216.367 227.915 217.235 223.153 218.052 218.604C218.588 215.606 219.181 212.465 219.467 209.385C221.146 192.472 215.104 175.783 209.317 159.627L207.753 155.251C204.813 147.039 202.236 139.003 202.997 130.64C203.924 119.416 210.313 115.073 218.397 109.471L218.592 109.315C226.45 103.907 231.349 95.6331 232.705 85.3436C234.003 75.5799 232.19 65.5677 230.256 56.1561C228.29 46.7821 225.822 36.0288 221.001 26.5574C219.117 22.8691 216.93 19.6933 214.535 16.9175C214.61 16.9804 214.716 17.0059 214.791 17.0687L218.972 19.2369Z" fill="white"/>
<path d="M235.366 30.0564C243.413 48.2361 247.228 64.4604 246.983 79.5125C246.685 95.1593 242.181 106.766 233.187 115.051C231.868 116.242 230.442 117.408 229.049 118.537C225.124 121.692 221.464 124.685 219.658 129.043C217.713 133.795 218.603 139.202 219.717 144.798C222.514 158.507 225.873 172.307 229.622 185.795L229.863 186.572C231.571 192.601 233.291 198.769 233.05 205.142C232.954 207.615 232.57 209.975 232.187 212.334C231.893 214.13 231.604 215.995 231.454 217.848C230.23 231.632 236.923 244.654 243.612 257.225C243.128 257.649 242.613 258.11 242.092 258.503C235.161 245.537 228.193 232.157 229.495 217.672C229.677 215.782 229.959 213.848 230.284 212.014C230.674 209.724 231.058 207.365 231.134 205.067C231.368 199.006 229.66 192.977 228.002 187.117L227.792 186.302C223.937 172.789 220.608 158.952 217.806 145.173C216.599 139.308 215.717 133.588 217.826 128.336C219.802 123.546 223.852 120.241 227.807 117.048C229.17 115.957 230.595 114.791 231.883 113.637C240.463 105.77 244.765 94.633 245.042 79.5434C245.307 63.9341 241.082 46.9821 232.181 27.7663L232.255 27.8292L235.366 30.0564Z" fill="white"/>
<path d="M245.894 38.8896L249.227 42.0692C253.647 53.3113 257.546 64.9462 258.613 77.1412C260.175 94.6039 255.125 110.285 244.842 120.105C243.88 121.023 242.882 121.908 241.846 122.763C239.359 124.89 237.004 126.935 235.398 129.61C231.003 136.902 233.667 143.542 236.467 150.552C237.398 152.866 238.373 155.28 239.11 157.75C242.756 170.066 244.385 182.733 243.935 195.442C243.833 197.846 243.693 200.219 243.522 202.629C243.204 207.725 242.836 213.034 243.25 218.17C244.135 228.68 248.165 238.637 252.754 248.233C252.313 248.757 251.767 249.256 251.289 249.749C246.527 239.752 242.185 229.406 241.284 218.307C240.857 213.033 241.22 207.656 241.531 202.491C241.671 200.118 241.81 197.746 241.95 195.373C242.418 182.87 240.807 170.41 237.179 158.3C236.486 155.931 235.517 153.586 234.586 151.272C231.705 144.131 228.693 136.688 233.611 128.621C235.368 125.69 237.949 123.451 240.436 121.324C241.403 120.476 242.439 119.621 243.368 118.742C253.269 109.302 258.06 94.2335 256.552 77.3908C255.514 63.9436 250.824 51.1979 245.894 38.8896Z" fill="white"/>
<path d="M261.79 55.9314L265.007 60.1627C266.565 66.0664 267.847 71.9943 268.547 78.0078C270.653 95.7354 266.552 112.34 257.215 123.466C256.247 124.697 255.166 125.833 254.123 127C249.534 132.088 244.82 137.325 245.713 143.565C246.118 146.202 247.549 148.68 248.975 151.09L249.623 152.144C258.213 167.013 261.577 185.221 258.789 202.161C258.47 204.064 258.087 206.041 257.661 207.918C256.713 212.549 255.745 217.354 255.948 222.058C256.197 228.076 258.331 233.825 260.918 239.187C260.478 239.712 260.006 240.274 259.535 240.836C256.668 235.047 254.247 228.802 253.975 222.126C253.748 217.147 254.773 212.198 255.747 207.461C256.135 205.552 256.524 203.644 256.843 201.742C259.567 185.258 256.346 167.489 247.929 153.021L247.319 151.998C245.812 149.457 244.262 146.816 243.822 143.765C242.781 136.636 247.847 131.055 252.718 125.63C253.762 124.463 254.774 123.333 255.748 122.171C264.739 111.457 268.682 95.4218 266.617 78.1765C265.722 70.7222 264.032 63.3026 261.79 55.9314Z" fill="white"/>
<path d="M273.864 73.7241L276.639 78.8618C277.074 81.8438 277.439 84.8319 277.768 87.7885C278.878 98.1051 275.058 111.179 266.515 126.61C266.005 127.522 265.495 128.435 264.922 129.422C262.654 133.265 260.085 137.621 259.639 141.652C259.193 145.683 260.892 150.811 262.398 155.331C262.918 156.916 263.433 158.434 263.798 159.825L264.299 161.586C267.677 173.614 271.16 186.048 269.182 198.753C268.869 200.724 268.417 202.708 268.029 204.616C267.38 207.519 266.712 210.598 266.521 213.565C266.26 218.517 267.302 223.286 269.09 227.85C268.662 228.513 268.233 229.175 267.768 229.806C265.644 224.576 264.304 219.174 264.599 213.421C264.772 210.247 265.472 207.131 266.146 204.121C266.572 202.244 266.992 200.298 267.242 198.402C269.118 186.123 265.722 173.889 262.4 162.099L261.899 160.338C261.502 158.984 261.025 157.499 260.473 155.95C258.918 151.261 257.132 145.933 257.642 141.445C258.121 136.994 260.779 132.458 263.171 128.464C263.713 127.515 264.292 126.596 264.771 125.721C273.138 110.653 276.856 98.0043 275.782 88.101C275.366 83.347 274.706 78.5797 273.864 73.7241Z" fill="white"/>
<path d="M279.219 209.92C278.733 205.554 278.816 201.347 278.956 196.995C279.023 193.796 279.116 190.49 278.958 187.102C278.354 175.04 276.34 163.518 272.938 152.811C272.74 152.135 272.467 151.395 272.232 150.686C270.595 145.866 268.798 140.399 270.718 135.372C271.881 132.389 273.813 129.477 275.682 126.641C276.966 124.654 278.194 122.811 279.177 120.955C282.744 114.117 284.716 106.897 285.549 99.3612C286.02 100.778 286.491 102.195 286.931 103.649C285.883 109.92 283.952 116.024 280.921 121.844C279.912 123.806 278.591 125.762 277.338 127.711C275.531 130.473 273.662 133.309 272.588 136.111C270.92 140.457 272.619 145.585 274.156 150.067C274.429 150.807 274.665 151.515 274.9 152.223C278.383 163.061 280.415 174.79 281.031 186.99C281.195 190.447 281.108 193.822 281.01 197.058C280.937 200.189 280.851 203.182 281.016 206.257L279.219 209.92Z" fill="white"/>
<path d="M290.891 173.874C289.771 168.21 288.343 162.607 286.577 157.103L285.952 155.11C284.34 150.183 282.717 145.118 282.841 139.796C283.041 132.558 285.831 125.962 288.539 119.615C289.025 118.427 289.511 117.239 290.029 116.014C290.301 117.135 290.504 118.263 290.744 119.422C290.63 119.71 290.485 120.035 290.371 120.323C287.72 126.525 285.019 132.941 284.82 139.796C284.697 144.736 286.277 149.701 287.839 154.459L288.464 156.452C289.753 160.47 290.835 164.506 291.785 168.623L290.891 173.874Z" fill="white"/>
<path d="M66.4274 85.6938C64.8079 85.0371 63.1483 85.1128 61.8935 85.8474C59.4528 87.3106 59.1728 90.4593 59.1651 92.751C59.1835 102.087 60.2788 111.433 62.4585 120.476C64.1008 127.344 67.8807 131.665 71.8019 131.253C73.1424 131.101 74.2654 130.447 75.177 129.361C76.8117 127.413 77.7746 124.135 77.8831 119.821C78.1175 109.803 75.7845 99.8016 71.1499 90.8693C70.3598 89.3764 69.3763 87.6574 67.7774 86.4435C67.3714 86.1666 66.8964 85.8957 66.4274 85.6938ZM69.4249 91.784C73.929 100.415 76.1629 110.078 75.9359 119.783C75.792 125.28 74.0759 129.075 71.6016 129.361C69.1962 129.641 65.9382 126.524 64.401 120.063C62.2334 111.158 61.1186 101.987 61.1123 92.7889C61.1175 91.2611 61.2557 89.2704 62.2302 88.109C62.4188 87.8842 62.6449 87.6909 62.9084 87.529C63.6676 87.0807 64.6757 87.0967 65.7514 87.4885C66.0765 87.6337 66.3702 87.8162 66.7013 88.0303C67.8941 88.9673 68.7531 90.4542 69.4249 91.784Z" fill="white"/>
<path d="M117.2 265.681L117.41 266.496C119.81 275.276 122.286 283.738 124.781 292.024C124.08 291.947 123.373 291.8 122.666 291.654C120.232 283.675 117.881 275.445 115.542 266.971L115.295 266.125C111.523 251.98 108.566 248.733 106.739 248.476C105.405 248.315 104.066 250.064 103.259 251.557C101.785 254.151 102.063 257.32 102.52 260.96L106.06 287.934C105.384 287.751 104.709 287.567 103.996 287.351L100.565 261.235C100.162 258.216 99.6193 253.993 101.547 250.631C103.235 247.706 105.093 246.329 107.021 246.542C111.658 247.178 114.887 257.101 117.2 265.681Z" fill="white"/>
</g>
</g>
<defs>
<clipPath id="clip0">
<rect width="293" height="293" fill="white"/>
</clipPath>
</defs>
</svg>
