<svg width="306" height="306" viewBox="0 0 306 306" fill="none" xmlns="http://www.w3.org/2000/svg">
<g clip-path="url(#clip0)">
<g opacity="0.22">
<path d="M-0.103388 144.314C-0.170931 152.657 0.598329 161.035 4.24317 167.893C7.54358 174.129 12.3247 179.474 17.015 184.61C21.6334 189.752 26.4083 195.025 29.8197 201.288C34.1471 209.318 35.9412 218.223 37.7101 226.841C39.0603 233.573 40.4357 240.594 43.1012 247.03C43.925 248.988 44.7487 250.946 45.5787 252.976C47.6804 257.939 49.7555 263.013 51.582 268.146C50.5194 267.188 49.4569 266.229 48.3944 265.271C46.969 261.409 45.3278 257.565 43.732 253.826C42.902 251.796 42.0391 249.806 41.2153 247.848C38.4981 241.235 37.0836 234.181 35.7207 227.305C34.0364 218.825 32.255 210.064 28.0638 202.347C24.7823 196.327 20.0857 191.12 15.5127 186.083C10.777 180.842 5.87851 175.399 2.44815 168.92C1.40856 166.981 0.605039 164.841 -0.0545834 162.687C-0.45201 156.487 -0.477122 150.4 -0.103388 144.314Z" fill="white"/>
<path d="M137.595 50.9989C147.773 59.2066 153.637 73.1928 153.304 88.4461C153.148 95.7818 151.535 103.028 150.007 110.012C149.562 111.972 149.157 113.965 148.751 115.958C144.456 136.886 143.606 158.238 146.149 179.438C147.293 189.198 149.69 193.809 153.003 200.189C154.354 202.789 155.887 205.808 157.555 209.541C159.313 213.483 161.222 217.485 163.046 221.349C166.059 227.61 169.202 234.113 171.703 240.745C178.411 258.173 181.577 276.963 184.582 295.15C184.986 297.688 185.428 300.26 185.871 302.831C185.197 302.998 184.522 303.166 183.842 303.262C183.393 300.619 182.951 298.048 182.509 295.477C179.516 277.433 176.395 258.749 169.778 241.53C167.25 235.009 164.147 228.538 161.134 222.277C159.31 218.413 157.329 214.418 155.603 210.437C153.975 206.737 152.448 203.789 151.097 201.189C147.693 194.6 145.284 189.845 144.036 179.732C141.474 158.316 142.378 136.742 146.654 115.598C147.059 113.605 147.504 111.645 147.942 109.613C149.476 102.7 151.024 95.5326 151.199 88.4128C151.549 73.7742 145.958 60.4166 136.249 52.6028C134.729 51.3946 133.079 50.3428 131.461 49.2519L130.117 48.3908C120.194 41.8644 111.191 33.8437 102.574 26.0794C98.089 22.0495 93.4476 17.8884 88.6876 14.0276C89.349 13.716 90.0433 13.3652 90.783 13.1193C95.3146 16.8551 99.6821 20.7864 103.965 24.5802C112.576 32.2726 121.501 40.2276 131.312 46.7275L132.656 47.5887C134.307 48.6404 135.997 49.725 137.595 50.9989Z" fill="white"/>
<path d="M17.9709 80.3499C19.0212 90.6974 18.9811 100.597 17.766 109.91C17.1602 115.001 15.849 119.901 14.5643 124.689C11.564 135.971 8.69013 146.626 15.0639 158.574C18.3189 164.705 23.4018 169.77 28.3219 174.631C32.6097 178.896 37.015 183.259 40.332 188.442C44.1954 194.484 46.4998 201.351 48.7134 208.008C50.7265 214.03 53.1118 220.165 55.6397 226.686C62.7441 244.913 70.0427 263.703 69.7975 282.03C69.1059 281.583 68.4143 281.136 67.7556 280.65C67.6712 263.113 60.6123 244.991 53.7476 227.431C51.2197 220.91 48.7952 214.743 46.7758 208.649C44.5748 202.135 42.355 195.406 38.6152 189.535C35.389 184.561 31.062 180.264 26.8915 176.098C21.854 171.137 16.6538 165.974 13.2297 159.568C6.53809 146.886 9.49155 135.899 12.5651 124.212C13.8233 119.534 15.1017 114.674 15.7201 109.726C16.7418 101.517 16.8952 92.9133 16.174 83.8419C16.8256 82.5887 17.3787 81.4529 17.9709 80.3499Z" fill="white"/>
<path d="M128.025 63.8343C134.95 77.1114 137.863 91.3556 136.868 107.319C136.287 116.432 135.107 125.307 133.9 133.895C131.749 149.489 129.704 164.239 131.31 180.519C132.631 193.96 139.274 203.601 146.288 213.753C148.403 216.794 150.563 219.94 152.631 223.275C162.822 239.492 167.452 258.444 170.331 273.126C171.039 276.652 171.713 280.218 172.427 283.817C173.75 290.661 175.087 297.648 176.561 304.551C175.88 304.647 175.2 304.743 174.52 304.839C173.046 297.936 171.716 291.02 170.392 284.176C169.718 280.61 169.043 277.045 168.336 273.518C165.469 258.98 160.936 240.31 150.914 224.367C148.852 221.104 146.692 217.958 144.617 214.95C137.433 204.523 130.667 194.712 129.302 180.767C127.71 164.232 129.709 149.377 131.92 133.633C133.093 125.085 134.32 116.314 134.867 107.241C135.822 91.6429 133.012 77.7521 126.262 64.8221C118.987 50.8507 108.698 44.2838 95.6879 36.0338L92.8106 34.2194C86.5928 30.2686 80.5984 25.9721 74.8276 21.3298C75.4436 20.9134 76.0659 20.569 76.6883 20.2246C82.2181 24.598 87.9386 28.6648 93.856 32.4968L96.7333 34.3113C110.011 42.7191 120.489 49.3781 128.025 63.8343Z" fill="white"/>
<path d="M15.3601 207.953C18.161 213.037 18.3147 219.766 18.24 226.369C17.512 225.092 16.8169 223.775 16.1937 222.452C16.1191 217.456 15.6254 212.642 13.5979 208.941C12.3048 206.59 10.2314 204.85 8.01415 203.123C7.62566 201.997 7.23089 200.799 6.87522 199.634C7.30554 199.995 7.8078 200.35 8.23811 200.711C10.9185 202.76 13.6771 204.875 15.3601 207.953Z" fill="white"/>
<path d="M161.922 44.0134C173.289 54.6182 178.555 71.3028 175.319 86.52C174.349 91.1722 172.673 95.6323 170.984 99.9486C170.509 101.15 170.074 102.384 169.599 103.586C159.475 131.223 157.378 161.528 163.495 191.26C166.197 204.326 171.875 217.024 177.332 229.27C180.713 236.84 184.185 244.619 186.937 252.462C191.276 264.769 192.389 277.902 193.425 290.571C193.714 293.88 193.977 297.301 194.306 300.643C193.632 300.811 192.997 301.011 192.323 301.179C191.943 297.66 191.641 294.206 191.338 290.753C190.276 278.195 189.215 265.239 184.967 253.141C182.26 245.404 178.788 237.624 175.447 230.087C169.944 217.737 164.22 204.934 161.467 191.691C155.246 161.606 157.384 130.934 167.692 102.919C168.128 101.685 168.602 100.483 169.077 99.2817C170.7 95.0437 172.343 90.6227 173.293 86.1535C176.337 71.6418 171.317 55.6969 160.459 45.5188C154.54 40.0194 147.25 36.235 140.155 32.6147C137.648 31.3116 135.031 29.982 132.518 28.6069C127.336 25.7254 122.68 22.218 118.069 18.8154C115.199 16.6741 112.251 14.4672 109.25 12.4824C107.097 11.0758 105.088 9.65667 103.079 8.23753C103.891 7.98528 104.702 7.73305 105.475 7.44798C107.06 8.57798 108.678 9.66889 110.367 10.7535C113.447 12.804 116.395 15.0109 119.264 17.1522C123.797 20.4891 128.454 23.9965 133.446 26.7858C135.926 28.2 138.504 29.4968 141.044 30.7608C148.328 34.4733 155.769 38.3171 161.922 44.0134Z" fill="white"/>
<path d="M197.634 69.3797C198.192 80.314 195.02 92.1184 188.502 103.382C187.371 105.366 186.293 107.127 185.247 108.85C180.336 116.928 176.791 122.82 176.114 133.718C175.381 145.236 175.433 157.012 176.302 168.608C178.121 193.533 184.315 221.663 193.806 247.692C195.198 251.594 196.813 255.549 198.343 259.366C201.631 267.524 205.054 275.996 207.019 284.778C207.843 288.403 208.458 292.119 208.89 295.815C208.262 296.087 207.594 296.327 206.926 296.566C206.482 292.727 205.893 288.9 205.062 285.203C203.077 276.604 199.732 268.197 196.49 260.144C194.96 256.327 193.345 252.372 191.914 248.438C182.404 222.192 176.125 193.925 174.288 168.784C173.445 157.077 173.387 145.229 174.113 133.639C174.819 122.232 178.461 116.222 183.531 107.877C184.544 106.193 185.655 104.392 186.753 102.447C193.081 91.4907 196.146 80.1306 195.587 69.5951C194.961 57.4706 189.395 46.467 180.642 40.0557C175.529 36.2983 169.357 34.1195 163.369 31.9611C162.246 31.5519 161.122 31.1428 159.999 30.7336C143.373 24.6486 127.605 15.9512 113.361 5.19925C114.212 4.97982 115.024 4.7276 115.914 4.541C129.675 14.7551 144.823 22.9993 160.738 28.8203C161.861 29.2295 162.984 29.6386 164.108 30.0478C170.207 32.2328 176.568 34.5037 181.91 38.3861C191.087 45.0865 197.03 56.6733 197.634 69.3797Z" fill="white"/>
<path d="M206.629 41.2618C211.48 49.0657 211.984 58.5548 212.433 66.9976C213.129 79.5147 213.16 91.4737 206.421 100.618C204.64 103.057 202.463 105.096 200.318 107.096C198.376 108.934 196.369 110.849 194.707 112.988C186.222 124.134 188.273 136.387 190.497 149.387C190.844 151.278 191.152 153.136 191.426 155.033C191.963 158.683 192.644 162.321 193.253 165.965C195.08 176.498 196.979 187.424 196.897 198.088L196.914 198.703C196.812 209.55 196.708 220.796 198.633 231.611C200.186 240.247 203.908 247.569 207.811 255.311C208.773 257.184 209.695 259.025 210.624 260.937C215.26 270.427 218.423 280.481 220.854 290.454C220.232 290.799 219.603 291.071 218.942 291.383C216.544 281.371 213.38 271.317 208.783 261.86C207.894 259.98 206.932 258.107 206.01 256.266C202.022 248.387 198.216 240.927 196.638 232.003C194.661 221.011 194.759 209.693 194.887 198.735L194.87 198.121C194.97 187.672 193.079 176.818 191.257 166.357C190.609 162.68 189.961 159.003 189.424 155.353C189.117 153.495 188.842 151.598 188.495 149.707C186.322 136.884 184.072 123.597 193.149 111.747C194.87 109.458 196.982 107.497 198.989 105.582C201.029 103.627 203.174 101.627 204.823 99.344C211.175 90.7413 211.103 79.1482 210.477 67.0236C210.054 58.8686 209.536 49.6345 204.977 42.2762C198.897 32.4413 187.208 28.0993 175.891 23.8697L173.566 22.9855C158.273 17.219 143.585 10.0945 129.687 1.63227C130.76 1.46591 131.833 1.29947 132.873 1.17223C146.028 9.0108 159.913 15.6619 174.305 21.0723L176.591 21.9235C188.11 26.3892 200.132 30.8108 206.629 41.2618Z" fill="white"/>
<path d="M73.0585 66.577C81.4445 77.0802 88.5835 87.0037 90.4216 102.212C91.801 113.836 91.9825 125.854 92.1326 137.513C92.3361 152.683 92.5446 168.324 95.5477 183.176C98.9883 200.129 107.18 215.869 115.151 231.157C117.802 236.181 120.543 241.415 123.03 246.635C131.919 264.96 137.535 284.405 143.022 303.208C143.287 304.164 143.591 305.152 143.862 306.18C143.169 306.132 142.404 306.09 141.711 306.042C141.465 305.302 141.291 304.556 141.045 303.816C135.603 285.117 130.033 265.777 121.189 247.557C118.67 242.376 115.967 237.176 113.317 232.151C105.3 216.759 97.0242 200.881 93.4865 183.647C90.4708 168.65 90.2497 152.865 90.0399 137.623C89.8961 126.037 89.7146 114.018 88.2758 102.545C86.4819 87.84 79.5447 78.1526 71.3669 67.9574C66.6073 62.0304 57.085 53.0403 51.713 54.199C50.8231 54.3856 50.1023 54.8474 49.4458 55.6298C48.7564 56.4513 48.2096 57.6591 47.7663 59.2203C47.0904 61.853 47.5706 64.8558 47.9411 67.4333L53.9579 105.547C54.8666 111.376 54.8072 117.326 54.8009 123.054C54.7289 128.86 54.7085 134.842 55.6501 140.632C57.7058 153.357 61.6878 164.897 67.6367 174.889C77.6809 191.917 91.5525 217.889 96.0973 246.635C97.8958 258.077 98.2024 269.867 98.5431 281.219C98.6658 285.522 98.7494 289.792 98.8658 294.022C98.9085 294.925 98.9121 295.794 98.9157 296.664C98.2039 296.4 97.5312 296.169 96.8522 295.866C96.8347 295.251 96.8172 294.637 96.7996 294.022C96.6832 289.791 96.5996 285.521 96.516 281.251C96.2144 269.932 95.8422 258.22 94.0892 246.883C89.6086 218.458 75.867 192.728 65.8353 175.844C59.8285 165.604 55.6837 153.86 53.6028 140.847C52.6424 134.842 52.7283 128.781 52.7612 122.942C52.8067 117.247 52.8396 111.408 51.9826 105.756L45.9657 67.6424C45.5044 64.8554 45.0053 61.6367 45.7873 58.5597C46.7676 54.8492 48.6058 52.6585 51.2755 52.0987C59.8864 50.2579 72.9348 66.4066 73.0585 66.577Z" fill="white"/>
<path d="M35.4433 54.68C40.3916 74.3646 43.141 94.6042 43.5428 114.94C43.5976 118.053 43.5868 121.244 43.5166 124.585C43.3865 135.942 43.216 147.665 47.0987 157.656C49.484 163.79 53.7274 169.617 57.919 175.268C60.8867 179.358 64.0109 183.579 66.4219 187.936C72.2507 198.626 77.2022 209.648 81.0682 220.691C86.767 236.939 89.4296 255.773 88.9128 275.138C88.7499 280.734 88.5214 286.409 88.2866 292.012C87.6076 291.709 86.9615 291.366 86.2825 291.063C86.5097 285.788 86.6914 280.407 86.8794 275.098C87.4543 255.982 84.7777 237.403 79.1697 221.365C75.3491 210.426 70.4821 199.542 64.6597 188.924C62.3332 184.705 59.2873 180.549 56.3196 176.459C52.0825 170.704 47.7218 164.778 45.2784 158.395C41.2532 148.018 41.4049 136.079 41.5552 124.539C41.5926 121.237 41.6425 118.079 41.5877 114.966C41.1706 95.284 38.5889 75.7185 33.8741 56.6296C34.3273 56.01 34.8853 55.345 35.4433 54.68Z" fill="white"/>
<path d="M156.128 306.339C154.008 293.294 150.69 276.91 143.929 261.371C138.946 249.991 132.771 239.475 126.77 229.307C114.093 207.87 102.17 187.599 102.077 160.856C102.049 153.899 102.472 146.722 102.923 139.034C104.478 112.473 106.134 84.9971 88.8302 64.5447C83.3337 58.066 76.8335 52.545 70.568 47.221C66.3368 43.6039 61.9162 39.8947 57.9085 35.9318C57.3936 35.4331 56.8725 34.8625 56.3059 34.1871C55.801 34.63 55.2569 35.0401 54.7519 35.483C55.3576 36.1912 55.9242 36.8666 56.4781 37.3981C60.5641 41.4266 64.9518 45.175 69.255 48.7858C75.4813 54.077 81.9424 59.5651 87.2825 65.9126C104.098 85.7552 102.476 112.793 100.922 138.955C100.471 146.643 100.015 153.86 100.083 160.85C100.187 188.135 112.272 208.609 125.047 230.328C131.041 240.424 137.178 250.907 142.115 262.183C148.733 277.335 152.027 293.431 154.101 306.371L156.128 306.339Z" fill="white"/>
<path d="M27.3458 65.2842C29.8449 76.4474 31.5841 88.0396 32.4522 100.034C33.0223 107.379 32.6256 114.446 32.2757 121.218C31.4531 136.261 30.666 150.466 40.2728 165.394C43.0827 169.751 46.3116 173.927 49.4232 178.005C52.854 182.417 56.3694 186.967 59.3672 191.815C77.238 220.41 80.5638 253.866 78.8547 287.364C78.2086 287.021 77.5233 286.646 76.8709 286.232C78.4207 253.401 75.0532 220.71 57.6441 192.836C54.6917 188.092 51.2155 183.575 47.7909 179.235C44.6402 175.125 41.3722 170.916 38.4841 166.493C28.5392 151.015 29.3011 136.522 30.1641 121.113C30.5532 114.373 30.9233 107.418 30.3658 100.217C29.5278 88.9807 27.9955 78.0954 25.6969 67.5671C26.2815 66.791 26.7941 66.0212 27.3458 65.2842Z" fill="white"/>
<path d="M163.092 305.983C162.631 303.196 162.248 300.475 161.826 297.721C159.55 282.478 157.158 266.739 151.597 252.073C149.751 247.124 147.358 241.316 143.851 236.041C141.588 232.542 138.8 229.269 136.097 226.135C115.661 202.187 107.621 172.442 112.126 137.757C112.65 133.797 113.304 129.68 113.978 125.778C116 113.676 118.024 101.174 115.953 89.1039C111.797 65.2176 93.6666 51.4709 74.4799 36.8379C70.9061 34.1058 67.2931 31.3408 63.7458 28.4976C64.3618 28.0812 64.9059 27.6711 65.4891 27.2939C68.8408 29.9729 72.2973 32.6066 75.7147 35.2075C94.3928 49.4137 113.697 64.1452 117.988 88.7446C120.162 101.169 118.046 113.859 116.037 126.106C115.363 130.007 114.702 134.052 114.179 138.013C109.728 172.076 117.651 201.324 137.684 224.8C140.393 228.006 143.181 231.279 145.562 234.876C149.192 240.322 151.63 246.235 153.522 251.289C159.173 266.164 161.578 282.047 163.827 297.401C164.256 300.227 164.645 303.02 165.146 305.84L163.092 305.983Z" fill="white"/>
<path d="M213.402 25.8801C217.26 29.7837 219.16 36.1783 220.848 41.794C221.307 43.3125 221.727 44.7981 222.206 46.1336C224.498 52.8565 226.969 60.7961 227.882 69.162C229.246 81.4395 226.867 92.7757 221.131 100.962C218.555 104.667 215.438 107.985 212.42 111.185C204.131 120.03 196.972 127.688 201.956 140.736C212.454 168.345 217.02 198.575 215.142 228.064L215.051 229.921C214.707 234.699 214.41 239.582 215.322 244.215C216.223 248.703 218.34 253.013 220.366 257.113L221.249 258.92C225.235 267.199 228.672 275.815 231.401 284.638C230.778 284.983 230.195 285.36 229.573 285.704C226.837 276.809 223.428 268.082 219.402 259.771L218.519 257.963C216.408 253.725 214.246 249.311 213.321 244.535C212.311 239.621 212.668 234.588 212.965 229.704L213.09 227.809C214.921 198.614 210.387 168.743 200.018 141.377C194.6 127.098 202.56 118.645 210.914 109.722C213.867 106.6 216.951 103.321 219.428 99.7337C224.869 91.8993 227.116 81.1184 225.828 69.3055C224.934 61.1554 222.509 53.3205 220.229 46.7416C219.75 45.4061 219.291 43.8876 218.865 42.3299C217.235 36.9628 215.393 30.8169 211.893 27.2808C202.471 17.7745 187.171 11.9359 174.836 7.25171L173.634 6.77688C170.147 5.4508 166.477 4.1045 162.624 2.73795C160.116 1.83366 157.569 0.896513 154.983 -0.0734268C157.161 -0.0464229 159.338 -0.0193786 161.528 0.151516C162.128 0.388941 162.729 0.626345 163.363 0.824651C167.255 2.22403 170.925 3.57032 174.451 4.92923L175.653 5.40406C188.106 10.1868 203.667 16.1112 213.402 25.8801Z" fill="white"/>
<path d="M228.311 19.791C229.795 21.8361 231.148 24.0377 232.375 26.4676C237.572 36.5611 240.168 48.0057 242.194 57.9054C244.265 67.9099 246.178 78.5807 244.776 89.0703C243.266 100.403 237.867 109.539 229.183 115.518L228.941 115.648C220.598 121.38 214.614 125.492 213.708 136.265C213.025 144.625 215.659 152.768 218.599 161.101L220.231 165.671C226.398 182.712 232.727 200.354 230.945 218.526C230.581 221.82 230.034 225.094 229.408 228.302C228.549 232.981 227.669 237.842 227.692 242.661C227.768 255.124 233.678 266.75 239.413 278.029C239.589 278.376 239.803 278.756 239.946 279.142C239.402 279.552 238.819 279.929 238.235 280.307C238.015 279.855 237.794 279.403 237.573 278.951C231.714 267.502 225.674 255.633 225.626 242.661C225.591 237.698 226.497 232.725 227.35 227.975C227.91 224.844 228.529 221.564 228.827 218.348C230.581 200.687 224.271 183.26 218.228 166.39L216.596 161.82C213.526 153.245 210.834 144.853 211.629 136.12C212.597 124.4 219.269 119.865 227.71 114.016L227.914 113.853C236.119 108.205 241.235 99.5657 242.651 88.8212C244.007 78.6257 242.113 68.1707 240.094 58.3429C238.041 48.5543 235.464 37.3255 230.43 27.4352C228.462 23.5839 226.178 20.2676 223.677 17.3691C223.755 17.4347 223.866 17.4613 223.945 17.527L228.311 19.791Z" fill="white"/>
<path d="M245.43 31.0888C253.833 50.0726 257.817 67.0143 257.561 82.7321C257.25 99.0708 252.547 111.19 243.155 119.842C241.777 121.086 240.289 122.303 238.833 123.482C234.736 126.777 230.913 129.902 229.028 134.453C226.997 139.415 227.926 145.061 229.09 150.904C232.009 165.22 235.517 179.63 239.432 193.714L239.684 194.526C241.468 200.822 243.263 207.262 243.012 213.918C242.912 216.5 242.511 218.964 242.11 221.427C241.803 223.303 241.502 225.25 241.345 227.185C240.067 241.579 247.057 255.176 254.041 268.303C253.536 268.746 252.998 269.228 252.454 269.638C245.216 256.099 237.94 242.127 239.299 227.002C239.489 225.028 239.784 223.008 240.124 221.094C240.531 218.702 240.931 216.238 241.011 213.839C241.255 207.51 239.472 201.214 237.74 195.095L237.521 194.244C233.495 180.133 230.02 165.684 227.094 151.296C225.833 145.172 224.912 139.199 227.114 133.714C229.178 128.713 233.407 125.262 237.537 121.928C238.96 120.789 240.449 119.571 241.793 118.366C250.753 110.151 255.245 98.5213 255.534 82.7644C255.811 66.4648 251.399 48.7631 242.104 28.6975L242.182 28.7631L245.43 31.0888Z" fill="white"/>
<path d="M256.423 40.3128L259.903 43.633C264.519 55.3723 268.59 67.5216 269.704 80.2559C271.336 98.4909 266.063 114.865 255.324 125.12C254.321 126.078 253.278 127.003 252.196 127.895C249.599 130.116 247.14 132.252 245.463 135.045C240.873 142.66 243.655 149.594 246.579 156.914C247.552 159.33 248.57 161.85 249.339 164.429C253.146 177.29 254.847 190.517 254.377 203.789C254.271 206.299 254.125 208.777 253.946 211.293C253.614 216.615 253.23 222.158 253.662 227.521C254.586 238.496 258.795 248.893 263.586 258.914C263.127 259.461 262.556 259.982 262.057 260.497C257.084 250.058 252.55 239.254 251.609 227.665C251.163 222.158 251.542 216.542 251.868 211.149C252.013 208.671 252.159 206.194 252.305 203.716C252.794 190.66 251.112 177.65 247.323 165.004C246.599 162.53 245.587 160.081 244.615 157.665C241.606 150.208 238.461 142.436 243.597 134.012C245.431 130.952 248.127 128.614 250.723 126.393C251.733 125.507 252.815 124.615 253.786 123.696C264.124 113.838 269.127 98.1041 267.552 80.5167C266.469 66.4748 261.571 53.1654 256.423 40.3128Z" fill="white"/>
<path d="M273.023 58.1081L276.382 62.5265C278.008 68.6913 279.347 74.8813 280.078 81.1608C282.278 99.6723 277.995 117.011 268.246 128.63C267.234 129.914 266.106 131.1 265.016 132.319C260.225 137.632 255.303 143.101 256.235 149.617C256.657 152.371 258.152 154.959 259.641 157.475L260.317 158.575C269.288 174.102 272.8 193.115 269.889 210.805C269.555 212.791 269.156 214.856 268.711 216.816C267.721 221.651 266.71 226.67 266.922 231.581C267.182 237.865 269.411 243.869 272.112 249.468C271.652 250.016 271.16 250.603 270.667 251.189C267.674 245.144 265.146 238.623 264.862 231.652C264.625 226.453 265.695 221.285 266.712 216.339C267.118 214.346 267.523 212.353 267.857 210.366C270.701 193.154 267.338 174.599 258.549 159.491L257.912 158.423C256.338 155.77 254.72 153.012 254.26 149.826C253.173 142.381 258.463 136.554 263.55 130.889C264.639 129.67 265.696 128.49 266.714 127.277C276.102 116.089 280.219 99.3449 278.064 81.337C277.129 73.553 275.364 65.8053 273.023 58.1081Z" fill="white"/>
<path d="M285.631 76.6877L288.529 82.0526C288.983 85.1665 289.365 88.2867 289.707 91.374C290.867 102.147 286.878 115.799 277.957 131.912C277.424 132.865 276.892 133.818 276.293 134.849C273.926 138.862 271.242 143.41 270.777 147.62C270.311 151.829 272.085 157.183 273.658 161.903C274.201 163.559 274.739 165.143 275.119 166.596L275.643 168.435C279.17 180.995 282.807 193.979 280.742 207.246C280.415 209.304 279.943 211.375 279.538 213.368C278.86 216.4 278.163 219.614 277.963 222.713C277.69 227.884 278.779 232.863 280.645 237.63C280.198 238.321 279.751 239.013 279.265 239.672C277.048 234.211 275.648 228.57 275.956 222.562C276.137 219.248 276.868 215.994 277.571 212.851C278.016 210.891 278.455 208.859 278.716 206.879C280.676 194.057 277.129 181.282 273.66 168.971L273.136 167.132C272.723 165.718 272.225 164.167 271.648 162.55C270.024 157.654 268.159 152.09 268.692 147.403C269.191 142.756 271.967 138.019 274.466 133.849C275.031 132.857 275.636 131.898 276.136 130.984C284.873 115.249 288.756 102.042 287.633 91.7004C287.199 86.7362 286.51 81.758 285.631 76.6877Z" fill="white"/>
<path d="M291.223 218.907C290.715 214.348 290.802 209.954 290.948 205.41C291.019 202.069 291.115 198.617 290.951 195.079C290.32 182.484 288.216 170.452 284.665 159.273C284.458 158.566 284.173 157.793 283.927 157.054C282.218 152.02 280.341 146.312 282.346 141.062C283.56 137.947 285.578 134.907 287.53 131.945C288.871 129.87 290.152 127.946 291.179 126.007C294.904 118.867 296.963 111.328 297.833 103.459C298.325 104.938 298.817 106.417 299.276 107.936C298.181 114.484 296.165 120.859 293 126.935C291.947 128.985 290.567 131.027 289.259 133.062C287.372 135.946 285.42 138.908 284.299 141.833C282.557 146.372 284.331 151.726 285.936 156.407C286.221 157.179 286.467 157.919 286.713 158.658C290.35 169.976 292.472 182.223 293.116 194.962C293.286 198.572 293.196 202.096 293.093 205.476C293.016 208.745 292.927 211.871 293.1 215.082L291.223 218.907Z" fill="white"/>
<path d="M303.408 181.266C302.238 175.352 300.747 169.501 298.903 163.754L298.25 161.673C296.567 156.528 294.872 151.239 295.002 145.681C295.211 138.124 298.124 131.235 300.952 124.608C301.459 123.368 301.967 122.127 302.508 120.847C302.791 122.019 303.003 123.196 303.254 124.407C303.135 124.707 302.984 125.047 302.865 125.347C300.097 131.824 297.276 138.523 297.068 145.682C296.94 150.84 298.589 156.024 300.22 160.993L300.874 163.074C302.219 167.27 303.349 171.485 304.342 175.784L303.408 181.266Z" fill="white"/>
<path d="M69.0193 89.1866C67.3282 88.5009 65.5952 88.58 64.2849 89.3471C61.7362 90.875 61.4439 94.1629 61.4358 96.556C61.455 106.305 62.5988 116.064 64.8749 125.507C66.5898 132.679 70.5369 137.191 74.6314 136.76C76.0312 136.602 77.2039 135.919 78.1559 134.785C79.8628 132.75 80.8683 129.328 80.9816 124.823C81.2264 114.362 78.7902 103.918 73.9507 94.5911C73.1256 93.0321 72.0986 91.2371 70.429 89.9695C70.005 89.6803 69.509 89.3975 69.0193 89.1866ZM72.1493 95.5462C76.8526 104.559 79.1854 114.649 78.9483 124.783C78.798 130.524 77.0061 134.487 74.4224 134.785C71.9106 135.077 68.5085 131.823 66.9033 125.076C64.6398 115.777 63.4758 106.201 63.4691 96.5956C63.4746 95.0002 63.6189 92.9214 64.6365 91.7087C64.8335 91.474 65.0695 91.2721 65.3447 91.103C66.1375 90.6349 67.1901 90.6516 68.3134 91.0608C68.6529 91.2123 68.9595 91.403 69.3053 91.6264C70.5508 92.6049 71.4479 94.1576 72.1493 95.5462Z" fill="white"/>
<path d="M122.037 277.134L122.257 277.984C124.763 287.153 127.348 295.989 129.954 304.642C129.222 304.561 128.483 304.408 127.745 304.255C125.204 295.923 122.748 287.329 120.307 278.481L120.048 277.598C116.11 262.827 113.022 259.436 111.114 259.168C109.722 259 108.323 260.826 107.48 262.385C105.941 265.094 106.231 268.403 106.708 272.204L110.405 300.371C109.7 300.179 108.994 299.987 108.249 299.762L104.667 272.491C104.246 269.338 103.679 264.929 105.692 261.418C107.455 258.364 109.395 256.926 111.408 257.148C116.251 257.812 119.622 268.174 122.037 277.134Z" fill="white"/>
</g>
</g>
<defs>
<clipPath id="clip0">
<rect width="306" height="306" fill="white"/>
</clipPath>
</defs>
</svg>
