<svg width="415" height="415" viewBox="0 0 415 415" fill="none" xmlns="http://www.w3.org/2000/svg">
<g clip-path="url(#clip0)">
<g opacity="0.2">
<path d="M0.232941 195.482C0.141412 206.788 1.18385 218.141 6.12303 227.435C10.5955 235.885 17.0745 243.129 23.4304 250.088C29.6888 257.056 36.1593 264.202 40.7822 272.688C46.6463 283.571 49.0775 295.638 51.4745 307.315C53.3042 316.439 55.1681 325.953 58.7801 334.675C59.8964 337.328 61.0126 339.981 62.1375 342.731C64.9854 349.457 67.7975 356.334 70.2725 363.289C68.8327 361.99 67.3928 360.692 65.9529 359.393C64.0214 354.159 61.7974 348.95 59.6349 343.884C58.5101 341.133 57.3408 338.435 56.2245 335.782C52.5424 326.821 50.6255 317.263 48.7787 307.944C46.4963 296.453 44.0823 284.581 38.4027 274.124C33.9559 265.966 27.5914 258.909 21.3946 252.083C14.9771 244.982 8.3391 237.605 3.69057 228.827C2.28181 226.199 1.19294 223.298 0.299076 220.38C-0.239483 211.979 -0.273511 203.729 0.232941 195.482Z" fill="#EACDC1"/>
<path d="M186.825 69.0295C200.619 80.1519 208.564 99.1049 208.113 119.775C207.902 129.716 205.716 139.534 203.646 148.999C203.043 151.655 202.493 154.356 201.944 157.056C196.124 185.417 194.971 214.351 198.418 243.079C199.968 256.304 203.216 262.553 207.705 271.199C209.536 274.722 211.614 278.814 213.874 283.872C216.257 289.214 218.843 294.637 221.315 299.873C225.398 308.357 229.656 317.17 233.046 326.157C242.136 349.775 246.427 375.237 250.499 399.883C251.045 403.322 251.645 406.806 252.245 410.291C251.331 410.518 250.418 410.745 249.496 410.875C248.888 407.293 248.288 403.809 247.689 400.325C243.634 375.874 239.405 350.554 230.437 327.221C227.012 318.384 222.806 309.616 218.724 301.131C216.252 295.895 213.568 290.481 211.229 285.086C209.022 280.072 206.953 276.078 205.122 272.554C200.51 263.625 197.245 257.181 195.554 243.477C192.082 214.456 193.307 185.221 199.101 156.568C199.651 153.868 200.253 151.212 200.848 148.458C202.926 139.091 205.024 129.378 205.26 119.73C205.735 99.8926 198.159 81.7916 185.001 71.203C182.942 69.5657 180.706 68.1405 178.513 66.6622L176.692 65.4952C163.245 56.6512 151.046 45.7823 139.368 35.2607C133.291 29.7998 127.001 24.161 120.551 18.9292C121.447 18.5069 122.388 18.0316 123.39 17.6983C129.531 22.7608 135.449 28.0882 141.253 33.2292C152.923 43.6533 165.016 54.4332 178.312 63.2413L180.133 64.4083C182.37 65.8335 184.66 67.3032 186.825 69.0295Z" fill="#EACDC1"/>
<path d="M24.72 108.803C26.1433 122.826 26.0889 136.24 24.4423 148.861C23.6215 155.76 21.8446 162.399 20.1036 168.888C16.038 184.176 12.1435 198.615 20.7807 214.805C25.1916 223.114 32.0795 229.977 38.7468 236.566C44.5573 242.345 50.5269 248.257 55.0219 255.281C60.2572 263.468 63.38 272.773 66.3797 281.795C69.1076 289.955 72.34 298.269 75.7656 307.105C85.3928 331.806 95.2833 357.269 94.9509 382.103C94.0138 381.498 93.0766 380.892 92.184 380.233C92.0697 356.469 82.504 331.911 73.2015 308.116C69.7759 299.279 66.4905 290.921 63.754 282.663C60.7714 273.837 57.7632 264.718 52.6955 256.762C48.3236 250.022 42.46 244.198 36.8084 238.553C29.9821 231.831 22.9352 224.834 18.2952 216.153C9.22725 198.968 13.2295 184.078 17.3945 168.241C19.0995 161.903 20.832 155.316 21.6699 148.612C23.0544 137.488 23.2623 125.828 22.285 113.536C23.168 111.837 23.9175 110.298 24.72 108.803Z" fill="#EACDC1"/>
<path d="M173.856 86.423C183.24 104.415 187.188 123.718 185.839 145.35C185.053 157.699 183.453 169.726 181.818 181.363C178.902 202.494 176.132 222.483 178.308 244.544C180.098 262.758 189.1 275.823 198.605 289.58C201.471 293.701 204.398 297.964 207.2 302.483C221.01 324.46 227.284 350.141 231.186 370.037C232.145 374.816 233.059 379.648 234.026 384.525C235.82 393.799 237.63 403.268 239.628 412.622C238.706 412.752 237.784 412.882 236.862 413.012C234.865 403.657 233.062 394.286 231.269 385.011C230.355 380.179 229.441 375.347 228.482 370.568C224.597 350.867 218.454 325.567 204.874 303.964C202.08 299.542 199.153 295.279 196.34 291.203C186.606 277.072 177.436 263.777 175.586 244.88C173.43 222.474 176.138 202.343 179.135 181.009C180.725 169.425 182.386 157.539 183.128 145.244C184.423 124.107 180.614 105.283 171.468 87.7617C161.608 68.8289 147.666 59.93 130.036 48.7503L126.137 46.2915C117.711 40.9378 109.588 35.1155 101.768 28.8246C102.603 28.2604 103.446 27.7936 104.289 27.3269C111.783 33.2534 119.535 38.7643 127.553 43.9572L131.453 46.416C149.445 57.8096 163.644 66.8333 173.856 86.423Z" fill="#EACDC1"/>
<path d="M21.1854 281.721C24.9809 288.61 25.1892 297.728 25.0879 306.676C24.1014 304.945 23.1594 303.161 22.3149 301.368C22.2138 294.599 21.5449 288.075 18.7974 283.06C17.045 279.873 14.2354 277.515 11.2307 275.175C10.7043 273.649 10.1693 272.026 9.68736 270.447C10.2705 270.936 10.9511 271.417 11.5342 271.906C15.1665 274.683 18.9047 277.549 21.1854 281.721Z" fill="#EACDC1"/>
<path d="M219.791 59.5634C235.195 73.9342 242.331 96.5437 237.946 117.165C236.631 123.469 234.36 129.513 232.071 135.362C231.428 136.99 230.837 138.663 230.194 140.291C216.475 177.742 213.633 218.809 221.923 259.099C225.584 276.806 233.279 294.013 240.674 310.607C245.255 320.865 249.96 331.407 253.69 342.035C259.569 358.712 261.077 376.509 262.481 393.677C262.873 398.161 263.23 402.797 263.675 407.326C262.762 407.553 261.902 407.825 260.988 408.052C260.473 403.283 260.063 398.604 259.654 393.924C258.214 376.907 256.776 359.35 251.019 342.956C247.351 332.47 242.647 321.928 238.118 311.714C230.661 294.978 222.905 277.63 219.174 259.684C210.744 218.915 213.641 177.351 227.61 139.387C228.2 137.715 228.844 136.086 229.487 134.458C231.686 128.715 233.913 122.724 235.201 116.668C239.325 97.0031 232.523 75.3959 217.808 61.6034C209.788 54.1511 199.909 49.0228 190.294 44.1169C186.897 42.351 183.351 40.5492 179.946 38.6858C172.924 34.7811 166.613 30.0282 160.365 25.4173C156.476 22.5156 152.481 19.525 148.414 16.8353C145.497 14.9293 142.774 13.0061 140.052 11.083C141.152 10.7412 142.252 10.3994 143.299 10.0131C145.446 11.5444 147.639 13.0227 149.929 14.4924C154.101 17.271 158.096 20.2617 161.985 23.1634C168.128 27.6853 174.438 32.4383 181.203 36.2181C184.564 38.1345 188.058 39.8918 191.499 41.6047C201.37 46.6355 211.453 51.8442 219.791 59.5634Z" fill="#EACDC1"/>
<path d="M268.188 93.9377C268.944 108.755 264.646 124.751 255.813 140.014C254.28 142.703 252.819 145.09 251.402 147.425C244.746 158.371 239.944 166.356 239.025 181.123C238.033 196.732 238.103 212.69 239.281 228.403C241.745 262.179 250.139 300.299 263 335.571C264.887 340.859 267.075 346.218 269.149 351.39C273.604 362.446 278.243 373.927 280.905 385.827C282.022 390.739 282.856 395.775 283.441 400.783C282.59 401.152 281.685 401.477 280.78 401.802C280.177 396.599 279.38 391.412 278.254 386.402C275.564 374.751 271.031 363.358 266.638 352.445C264.564 347.273 262.376 341.913 260.436 336.582C247.55 301.016 239.041 262.71 236.551 228.642C235.409 212.778 235.331 196.723 236.314 181.016C237.27 165.558 242.207 157.414 249.077 146.105C250.449 143.824 251.954 141.384 253.443 138.748C262.017 123.901 266.172 108.506 265.414 94.2296C264.566 77.7995 257.023 62.8883 245.162 54.2003C238.233 49.1086 229.87 46.1561 221.754 43.2312C220.232 42.6767 218.71 42.1223 217.188 41.5678C194.657 33.322 173.29 21.5359 153.989 6.96583C155.142 6.66849 156.241 6.32669 157.447 6.07383C176.096 19.9151 196.623 31.0869 218.189 38.975C219.711 39.5296 221.234 40.084 222.756 40.6385C231.021 43.5994 239.641 46.6767 246.88 51.9378C259.316 61.0176 267.37 76.7191 268.188 93.9377Z" fill="#EACDC1"/>
<path d="M280.377 55.8348C286.951 66.4099 287.634 79.2688 288.242 90.7097C289.186 107.672 289.228 123.878 280.095 136.269C277.683 139.575 274.732 142.338 271.825 145.048C269.194 147.538 266.474 150.134 264.222 153.032C252.723 168.136 255.502 184.741 258.517 202.357C258.987 204.919 259.404 207.437 259.776 210.008C260.504 214.954 261.426 219.884 262.251 224.822C264.728 239.096 267.3 253.901 267.189 268.352L267.213 269.185C267.074 283.884 266.934 299.124 269.543 313.779C271.647 325.482 276.69 335.405 281.98 345.896C283.283 348.435 284.532 350.929 285.791 353.52C292.073 366.38 296.36 380.005 299.654 393.519C298.811 393.986 297.959 394.355 297.063 394.777C293.813 381.21 289.526 367.586 283.297 354.77C282.091 352.223 280.789 349.684 279.539 347.19C274.135 336.513 268.977 326.403 266.838 314.31C264.16 299.416 264.292 284.079 264.466 269.229L264.442 268.396C264.579 254.238 262.015 239.53 259.547 225.353C258.669 220.371 257.791 215.388 257.063 210.442C256.647 207.924 256.274 205.353 255.804 202.791C252.86 185.414 249.811 167.408 262.111 151.351C264.442 148.248 267.305 145.591 270.025 142.996C272.789 140.347 275.696 137.636 277.93 134.543C286.538 122.885 286.441 107.175 285.593 90.745C285.019 79.6941 284.317 67.1808 278.139 57.2095C269.9 43.882 254.06 37.9981 238.724 32.2665L235.574 31.0684C214.849 23.254 194.946 13.5996 176.112 2.13226C177.566 1.90682 179.02 1.68128 180.429 1.50885C198.256 12.131 217.072 21.144 236.575 28.4758L239.672 29.6292C255.282 35.6807 271.574 41.6725 280.377 55.8348Z" fill="#EACDC1"/>
<path d="M99.3742 90.1397C110.738 104.373 120.413 117.82 122.903 138.429C124.773 154.181 125.019 170.467 125.222 186.266C125.498 206.823 125.78 228.018 129.85 248.145C134.512 271.119 145.613 292.448 156.414 313.165C160.006 319.973 163.721 327.065 167.091 334.138C179.136 358.971 186.747 385.321 194.183 410.802C194.542 412.097 194.954 413.437 195.321 414.829C194.382 414.764 193.346 414.707 192.407 414.642C192.073 413.639 191.837 412.629 191.504 411.626C184.13 386.287 176.581 360.079 164.597 335.388C161.183 328.368 157.521 321.32 153.929 314.512C143.066 293.653 131.851 272.137 127.057 248.783C122.97 228.461 122.67 207.07 122.386 186.416C122.191 170.714 121.945 154.428 119.996 138.88C117.564 118.954 108.164 105.826 97.0819 92.0103C90.6322 83.9786 77.7284 71.7959 70.4486 73.3661C69.2428 73.619 68.266 74.2447 67.3763 75.305C66.4422 76.4182 65.7012 78.0549 65.1004 80.1705C64.1845 83.7382 64.8353 87.8073 65.3373 91.3L73.4908 142.949C74.7222 150.848 74.6417 158.91 74.6331 166.672C74.5355 174.54 74.508 182.647 75.7839 190.493C78.5696 207.736 83.9657 223.375 92.0271 236.915C105.638 259.989 124.436 295.185 130.595 334.139C133.032 349.644 133.447 365.621 133.909 381.004C134.075 386.835 134.188 392.621 134.346 398.354C134.404 399.577 134.409 400.756 134.414 401.934C133.449 401.576 132.538 401.263 131.617 400.852C131.594 400.019 131.57 399.186 131.546 398.354C131.388 392.62 131.275 386.834 131.162 381.048C130.753 365.709 130.249 349.838 127.873 334.475C121.802 295.956 103.18 261.089 89.586 238.209C81.4461 224.333 75.8294 208.418 73.0096 190.785C71.7081 182.646 71.8246 174.433 71.8691 166.521C71.9308 158.804 71.9754 150.891 70.8141 143.232L62.6605 91.5834C62.0353 87.8067 61.359 83.445 62.4187 79.2754C63.7471 74.2471 66.2381 71.2785 69.8558 70.5199C81.5246 68.0254 99.2067 89.9087 99.3742 90.1397Z" fill="#EACDC1"/>
<path d="M48.4019 74.0179C55.1074 100.693 58.8332 128.12 59.3776 155.678C59.4519 159.895 59.4372 164.219 59.3421 168.747C59.1659 184.137 58.9348 200.023 64.1962 213.562C67.4287 221.875 73.1789 229.771 78.859 237.428C82.8806 242.971 87.1142 248.691 90.3814 254.595C98.2801 269.082 104.99 284.017 110.229 298.982C117.951 321 121.56 346.521 120.859 372.764C120.638 380.348 120.329 388.037 120.011 395.63C119.091 395.219 118.215 394.755 117.295 394.345C117.603 387.195 117.849 379.904 118.104 372.71C118.883 346.805 115.256 321.629 107.656 299.895C102.479 285.071 95.8835 270.323 87.9934 255.933C84.8407 250.217 80.7132 244.585 76.6916 239.042C70.9499 231.243 65.0406 223.214 61.7296 214.563C56.275 200.501 56.4805 184.323 56.6842 168.685C56.7348 164.21 56.8025 159.931 56.7282 155.713C56.1631 129.041 52.6646 102.528 46.2754 76.6599C46.8896 75.8203 47.6457 74.9191 48.4019 74.0179Z" fill="#EACDC1"/>
<path d="M211.942 415.045C209.069 397.367 204.573 375.166 195.412 354.109C188.659 338.686 180.29 324.437 172.159 310.658C154.979 281.608 138.822 254.139 138.697 217.899C138.658 208.472 139.232 198.745 139.843 188.327C141.95 152.334 144.194 115.101 120.746 87.3858C113.297 78.6064 104.489 71.1248 95.9985 63.9102C90.2647 59.0086 84.2743 53.9821 78.8434 48.612C78.1457 47.9362 77.4395 47.163 76.6717 46.2477C75.9874 46.8479 75.2502 47.4036 74.5659 48.0038C75.3867 48.9635 76.1544 49.8787 76.9051 50.599C82.4421 56.0581 88.3879 61.1376 94.2192 66.0306C102.657 73.2008 111.412 80.6379 118.648 89.2393C141.435 116.128 139.237 152.768 137.132 188.22C136.521 198.638 135.903 208.418 135.995 217.89C136.135 254.865 152.513 282.61 169.824 312.041C177.947 325.722 186.263 339.927 192.953 355.208C201.921 375.741 206.384 397.553 209.195 415.089L211.942 415.045Z" fill="#EACDC1"/>
<path d="M37.4281 88.3877C40.8146 103.515 43.1714 119.224 44.3478 135.478C45.1204 145.431 44.5828 155.007 44.1087 164.185C42.9939 184.569 41.9274 203.819 54.9456 224.048C58.7533 229.953 63.1289 235.612 67.3455 241.137C71.9946 247.116 76.7583 253.281 80.8207 259.852C105.038 298.601 109.545 343.938 107.229 389.331C106.353 388.867 105.424 388.359 104.54 387.798C106.64 343.308 102.077 299.008 78.4857 261.235C74.4849 254.807 69.7742 248.686 65.1335 242.804C60.864 237.234 56.4354 231.531 52.5217 225.537C39.0452 204.563 40.0777 184.923 41.2472 164.042C41.7744 154.909 42.276 145.483 41.5205 135.725C40.3849 120.499 38.3084 105.748 35.1936 91.4813C35.9858 90.4296 36.6804 89.3864 37.4281 88.3877Z" fill="#EACDC1"/>
<path d="M221.38 414.563C220.755 410.786 220.236 407.099 219.664 403.366C216.58 382.711 213.338 361.382 205.804 341.509C203.301 334.802 200.058 326.932 195.307 319.783C192.239 315.041 188.462 310.607 184.799 306.359C157.106 273.907 146.211 233.599 152.316 186.597C153.025 181.23 153.912 175.651 154.825 170.364C157.566 153.964 160.308 137.023 157.502 120.666C151.87 88.2976 127.301 69.6693 101.301 49.8399C96.4578 46.1376 91.5618 42.3907 86.7548 38.5378C87.5896 37.9736 88.3269 37.4179 89.1172 36.9066C93.6592 40.5371 98.3431 44.106 102.974 47.6305C128.285 66.8816 154.444 86.8444 160.259 120.179C163.205 137.015 160.338 154.213 157.615 170.808C156.702 176.095 155.806 181.576 155.097 186.943C149.066 233.103 159.803 272.737 186.95 304.55C190.621 308.895 194.398 313.329 197.625 318.205C202.544 325.584 205.848 333.597 208.412 340.445C216.07 360.602 219.329 382.127 222.377 402.933C222.957 406.762 223.485 410.547 224.163 414.369L221.38 414.563Z" fill="#EACDC1"/>
<path d="M289.555 34.9907C294.783 40.2804 297.358 48.9458 299.645 56.5559C300.267 58.6136 300.836 60.6268 301.486 62.4365C304.591 71.5467 307.94 82.3059 309.177 93.6426C311.026 110.28 307.801 125.642 300.029 136.735C296.538 141.756 292.314 146.252 288.224 150.589C276.992 162.574 267.29 172.952 274.044 190.634C288.271 228.047 294.458 269.012 291.913 308.973L291.789 311.489C291.324 317.964 290.921 324.582 292.157 330.859C293.377 336.941 296.246 342.781 298.992 348.337L300.188 350.787C305.591 362.005 310.247 373.681 313.945 385.637C313.102 386.104 312.312 386.615 311.468 387.082C307.761 375.028 303.141 363.202 297.686 351.939L296.489 349.49C293.629 343.747 290.699 337.765 289.445 331.293C288.076 324.634 288.56 317.813 288.963 311.196L289.132 308.627C291.614 269.064 285.469 228.587 271.418 191.502C264.077 172.153 274.863 160.697 286.184 148.606C290.185 144.375 294.365 139.933 297.722 135.071C305.094 124.454 308.139 109.845 306.394 93.837C305.182 82.7928 301.896 72.1756 298.807 63.2604C298.158 61.4506 297.535 59.3928 296.958 57.2821C294.75 50.009 292.253 41.6807 287.511 36.8888C274.742 24.0066 254.009 16.0947 237.293 9.74706L235.665 9.10361C230.94 7.30662 225.966 5.48223 220.745 3.6304C217.347 2.40499 213.895 1.13504 210.391 -0.179342C213.342 -0.142748 216.292 -0.1061 219.259 0.125481C220.074 0.44722 220.888 0.768929 221.746 1.03766C227.021 2.93397 231.994 4.75836 236.772 6.59983L238.401 7.24328C255.275 13.7244 276.363 21.7527 289.555 34.9907Z" fill="#EACDC1"/>
<path d="M309.757 26.7393C311.768 29.5105 313.601 32.494 315.264 35.7868C322.306 49.4647 325.824 64.9735 328.57 78.3887C331.377 91.9458 333.968 106.406 332.068 120.621C330.022 135.978 322.706 148.358 310.938 156.46L310.61 156.636C299.304 164.404 291.196 169.977 289.968 184.574C289.043 195.904 292.612 206.938 296.596 218.231L298.808 224.423C307.165 247.515 315.74 271.423 313.326 296.047C312.833 300.511 312.091 304.948 311.244 309.295C310.079 315.636 308.887 322.224 308.918 328.754C309.02 345.642 317.03 361.397 324.802 376.681C325.039 377.151 325.33 377.666 325.523 378.19C324.786 378.745 323.996 379.257 323.205 379.768C322.906 379.155 322.607 378.543 322.308 377.931C314.368 362.416 306.183 346.333 306.118 328.753C306.07 322.028 307.298 315.289 308.454 308.852C309.213 304.61 310.052 300.165 310.457 295.807C312.833 271.874 304.283 248.259 296.093 225.398L293.882 219.205C289.721 207.584 286.074 196.213 287.151 184.379C288.463 168.496 297.503 162.351 308.943 154.425L309.218 154.204C320.337 146.551 327.271 134.843 329.19 120.283C331.026 106.467 328.46 92.2992 325.723 78.9815C322.942 65.7169 319.449 50.5005 312.628 37.098C309.961 31.879 306.866 27.3851 303.477 23.4573C303.583 23.5462 303.734 23.5823 303.84 23.6712L309.757 26.7393Z" fill="#EACDC1"/>
<path d="M332.956 42.0492C344.343 67.7743 349.741 90.7323 349.394 112.032C348.974 134.173 342.6 150.596 329.872 162.319C328.006 164.005 325.989 165.655 324.017 167.252C318.464 171.717 313.284 175.953 310.729 182.12C307.977 188.844 309.236 196.495 310.813 204.413C314.769 223.813 319.523 243.34 324.828 262.425L325.17 263.525C327.586 272.057 330.02 280.784 329.679 289.803C329.543 293.302 329 296.641 328.457 299.98C328.041 302.521 327.633 305.16 327.421 307.782C325.689 327.287 335.16 345.713 344.625 363.502C343.94 364.102 343.212 364.755 342.474 365.311C332.666 346.963 322.807 328.03 324.648 307.533C324.905 304.858 325.304 302.122 325.765 299.527C326.317 296.286 326.86 292.948 326.968 289.696C327.298 281.121 324.882 272.589 322.535 264.296L322.238 263.143C316.783 244.022 312.074 224.442 308.108 204.944C306.4 196.645 305.151 188.551 308.136 181.118C310.932 174.341 316.663 169.664 322.261 165.147C324.188 163.603 326.205 161.953 328.027 160.32C340.168 149.188 346.256 133.428 346.647 112.075C347.024 89.9876 341.044 65.9998 328.449 38.8086L328.555 38.8976L332.956 42.0492Z" fill="#EACDC1"/>
<path d="M347.852 54.5487L352.569 59.048C358.823 74.956 364.341 91.4198 365.85 108.676C368.061 133.387 360.915 155.576 346.364 169.473C345.004 170.77 343.591 172.024 342.124 173.233C338.606 176.242 335.273 179.137 333.001 182.922C326.781 193.241 330.55 202.637 334.513 212.556C335.831 215.83 337.21 219.246 338.253 222.741C343.412 240.169 345.717 258.093 345.08 276.077C344.936 279.479 344.739 282.837 344.497 286.247C344.047 293.458 343.525 300.97 344.112 308.237C345.364 323.11 351.067 337.199 357.559 350.778C356.937 351.52 356.163 352.226 355.488 352.924C348.749 338.777 342.605 324.137 341.329 308.432C340.725 300.969 341.238 293.36 341.68 286.051C341.877 282.694 342.075 279.337 342.272 275.979C342.935 258.287 340.655 240.656 335.521 223.52C334.54 220.167 333.169 216.849 331.851 213.575C327.774 203.469 323.513 192.937 330.471 181.522C332.958 177.375 336.61 174.206 340.129 171.197C341.498 169.997 342.964 168.788 344.279 167.543C358.289 154.184 365.068 132.863 362.934 109.03C361.466 90.0012 354.828 71.9654 347.852 54.5487Z" fill="#EACDC1"/>
<path d="M370.346 78.6634L374.898 84.6509C377.102 93.0049 378.917 101.393 379.907 109.902C382.888 134.988 377.084 158.484 363.873 174.228C362.502 175.969 360.973 177.576 359.497 179.228C353.004 186.428 346.333 193.839 347.597 202.668C348.169 206.4 350.195 209.907 352.213 213.316L353.129 214.808C365.285 235.849 370.044 261.613 366.1 285.585C365.648 288.277 365.107 291.075 364.504 293.731C363.162 300.283 361.792 307.084 362.079 313.739C362.431 322.255 365.452 330.39 369.112 337.978C368.489 338.72 367.822 339.516 367.155 340.311C363.098 332.119 359.672 323.282 359.288 313.836C358.966 306.791 360.417 299.787 361.795 293.084C362.345 290.384 362.894 287.683 363.346 284.991C367.2 261.666 362.643 236.522 350.733 216.049L349.869 214.602C347.737 211.006 345.544 207.269 344.92 202.951C343.448 192.863 350.617 184.966 357.509 177.29C358.986 175.638 360.418 174.039 361.797 172.396C374.519 157.235 380.098 134.544 377.177 110.141C375.911 99.593 373.518 89.0941 370.346 78.6634Z" fill="#EACDC1"/>
<path d="M387.435 103.841L391.362 111.111C391.977 115.331 392.494 119.559 392.958 123.743C394.53 138.341 389.124 156.841 377.036 178.676C376.313 179.968 375.591 181.259 374.78 182.656C371.572 188.094 367.936 194.258 367.305 199.962C366.675 205.666 369.078 212.922 371.209 219.317C371.946 221.562 372.674 223.708 373.19 225.677L373.899 228.169C378.679 245.189 383.608 262.784 380.809 280.762C380.366 283.551 379.727 286.358 379.177 289.058C378.26 293.167 377.315 297.523 377.043 301.722C376.674 308.729 378.148 315.477 380.678 321.936C380.073 322.873 379.467 323.81 378.808 324.703C375.803 317.303 373.906 309.659 374.324 301.518C374.569 297.026 375.559 292.617 376.513 288.358C377.115 285.702 377.71 282.949 378.064 280.265C380.719 262.89 375.914 245.578 371.212 228.895L370.503 226.403C369.942 224.488 369.267 222.385 368.486 220.194C366.285 213.559 363.758 206.019 364.48 199.669C365.157 193.371 368.918 186.951 372.304 181.301C373.071 179.957 373.89 178.657 374.568 177.419C386.407 156.096 391.669 138.198 390.148 124.185C389.559 117.458 388.625 110.712 387.435 103.841Z" fill="#EACDC1"/>
<path d="M395.008 296.564C394.321 290.386 394.438 284.432 394.636 278.275C394.731 273.747 394.862 269.069 394.64 264.275C393.785 247.207 390.934 230.903 386.121 215.753C385.841 214.795 385.454 213.748 385.121 212.746C382.805 205.924 380.262 198.189 382.979 191.075C384.624 186.854 387.358 182.734 390.003 178.72C391.821 175.909 393.557 173.301 394.948 170.674C399.996 160.998 402.786 150.783 403.966 140.119C404.632 142.123 405.299 144.128 405.921 146.186C404.438 155.059 401.706 163.697 397.416 171.932C395.989 174.709 394.119 177.476 392.346 180.235C389.79 184.142 387.145 188.156 385.625 192.12C383.265 198.27 385.668 205.526 387.844 211.869C388.23 212.916 388.564 213.918 388.897 214.921C393.825 230.257 396.701 246.854 397.573 264.117C397.804 269.008 397.682 273.784 397.542 278.364C397.439 282.794 397.318 287.029 397.551 291.38L395.008 296.564Z" fill="#EACDC1"/>
<path d="M411.523 245.557C409.938 237.542 407.918 229.614 405.419 221.826L404.534 219.005C402.254 212.033 399.957 204.866 400.133 197.335C400.416 187.093 404.364 177.759 408.195 168.779C408.883 167.098 409.571 165.416 410.304 163.682C410.688 165.269 410.975 166.865 411.315 168.506C411.154 168.913 410.949 169.373 410.788 169.78C407.037 178.557 403.214 187.635 402.933 197.336C402.758 204.326 404.994 211.351 407.204 218.084L408.089 220.904C409.913 226.59 411.444 232.301 412.789 238.127L411.523 245.557Z" fill="#EACDC1"/>
<path d="M93.8996 120.778C91.6079 119.849 89.2595 119.956 87.4839 120.996C84.0302 123.066 83.6341 127.522 83.6231 130.765C83.6491 143.976 85.1991 157.201 88.2834 169.997C90.6073 179.716 95.956 185.83 101.505 185.246C103.402 185.031 104.991 184.106 106.281 182.569C108.594 179.812 109.956 175.174 110.11 169.07C110.442 154.894 107.14 140.741 100.582 128.102C99.4641 125.989 98.0724 123.557 95.8099 121.839C95.2353 121.447 94.5632 121.064 93.8996 120.778ZM98.1411 129.396C104.515 141.61 107.676 155.283 107.354 169.016C107.151 176.795 104.723 182.165 101.221 182.569C97.8176 182.965 93.2074 178.555 91.0321 169.412C87.9649 156.811 86.3875 143.834 86.3785 130.818C86.3858 128.656 86.5815 125.839 87.9604 124.196C88.2273 123.878 88.5472 123.604 88.9201 123.375C89.9944 122.741 91.4208 122.763 92.943 123.318C93.403 123.523 93.8186 123.782 94.2871 124.084C95.975 125.41 97.1906 127.515 98.1411 129.396Z" fill="#EACDC1"/>
<path d="M165.745 375.468L166.042 376.621C169.438 389.046 172.941 401.019 176.472 412.745C175.48 412.635 174.48 412.428 173.479 412.221C170.036 400.93 166.708 389.285 163.4 377.294L163.049 376.097C157.712 356.08 153.528 351.485 150.942 351.122C149.055 350.894 147.16 353.369 146.018 355.483C143.933 359.153 144.325 363.637 144.972 368.787L149.982 406.958C149.026 406.697 148.069 406.437 147.06 406.133L142.206 369.177C141.636 364.904 140.868 358.93 143.595 354.172C145.984 350.033 148.613 348.084 151.341 348.386C157.904 349.285 162.472 363.327 165.745 375.468Z" fill="#EACDC1"/>
</g>
</g>
<defs>
<clipPath id="clip0">
<rect width="415" height="415" fill="white"/>
</clipPath>
</defs>
</svg>
