<svg width="281" height="281" viewBox="0 0 281 281" fill="none" xmlns="http://www.w3.org/2000/svg">
<g clip-path="url(#clip0)">
<g opacity="0.2">
<path d="M0.582186 132.652C0.520349 140.29 1.22463 147.961 4.5616 154.24C7.58323 159.949 11.9605 164.843 16.2547 169.545C20.4829 174.252 24.8544 179.08 27.9778 184.813C31.9396 192.166 33.5822 200.319 35.2016 208.208C36.4378 214.372 37.697 220.8 40.1374 226.692C40.8915 228.485 41.6457 230.277 42.4056 232.136C44.3297 236.68 46.2296 241.325 47.9018 246.024C46.929 245.147 45.9562 244.27 44.9834 243.392C43.6784 239.856 42.1759 236.337 40.7149 232.914C39.955 231.056 39.1649 229.233 38.4108 227.441C35.9231 221.386 34.628 214.929 33.3803 208.633C31.8383 200.87 30.2073 192.848 26.3702 185.784C23.3658 180.272 19.0659 175.504 14.8792 170.893C10.5435 166.095 6.05881 161.111 2.9182 155.18C1.96643 153.405 1.23077 151.445 0.626869 149.474C0.263012 143.797 0.240021 138.224 0.582186 132.652Z" fill="#EACDC1"/>
<path d="M126.648 47.2194C135.967 54.7338 141.335 67.5387 141.03 81.5035C140.888 88.2196 139.411 94.8533 138.012 101.248C137.605 103.042 137.234 104.867 136.862 106.691C132.93 125.852 132.151 145.4 134.48 164.81C135.527 173.745 137.722 177.966 140.755 183.807C141.992 186.188 143.395 188.952 144.922 192.37C146.532 195.979 148.28 199.642 149.95 203.18C152.708 208.912 155.585 214.866 157.875 220.938C164.017 236.894 166.916 254.097 169.667 270.748C170.036 273.072 170.441 275.426 170.846 277.779C170.229 277.933 169.612 278.087 168.989 278.174C168.578 275.754 168.173 273.4 167.768 271.047C165.029 254.527 162.171 237.421 156.113 221.656C153.799 215.686 150.957 209.762 148.199 204.03C146.529 200.493 144.716 196.835 143.136 193.19C141.645 189.802 140.247 187.104 139.01 184.723C135.894 178.691 133.687 174.337 132.546 165.078C130.2 145.472 131.027 125.72 134.942 106.362C135.313 104.537 135.72 102.743 136.122 100.882C137.526 94.5535 138.943 87.9914 139.103 81.473C139.424 68.0709 134.305 55.8416 125.416 48.6879C124.025 47.5817 122.514 46.6188 121.032 45.62L119.802 44.8316C110.717 38.8564 102.475 31.5133 94.5854 24.4048C90.4794 20.7153 86.23 16.9057 81.8721 13.371C82.4777 13.0857 83.1133 12.7646 83.7905 12.5394C87.9393 15.9597 91.9379 19.5589 95.8591 23.0323C103.743 30.0749 111.913 37.358 120.897 43.3088L122.127 44.0972C123.638 45.0602 125.185 46.0531 126.648 47.2194Z" fill="#EACDC1"/>
<path d="M17.1294 74.0917C18.0909 83.5652 18.0542 92.6282 16.9418 101.155C16.3872 105.816 15.1867 110.302 14.0105 114.686C11.2637 125.015 8.63252 134.769 14.4679 145.708C17.448 151.321 22.1015 155.958 26.606 160.409C30.5317 164.314 34.5648 168.308 37.6017 173.054C41.1387 178.585 43.2485 184.872 45.2751 190.967C47.1181 196.48 49.302 202.097 51.6164 208.067C58.1207 224.755 64.8028 241.958 64.5782 258.736C63.9451 258.327 63.3119 257.918 62.7088 257.473C62.6316 241.418 56.1689 224.826 49.884 208.749C47.5697 202.779 45.35 197.133 43.5012 191.553C41.4861 185.59 39.4538 179.429 36.0299 174.054C33.0762 169.501 29.1147 165.566 25.2965 161.752C20.6845 157.211 15.9235 152.483 12.7887 146.618C6.66227 135.008 9.36625 124.948 12.1802 114.249C13.3321 109.966 14.5025 105.516 15.0687 100.987C16.0041 93.4713 16.1445 85.5939 15.4843 77.2888C16.0808 76.1414 16.5872 75.1015 17.1294 74.0917Z" fill="#EACDC1"/>
<path d="M117.888 58.9709C124.228 71.1266 126.895 84.1676 125.984 98.7829C125.452 107.126 124.371 115.252 123.267 123.114C121.297 137.39 119.425 150.895 120.895 165.799C122.105 178.105 128.187 186.932 134.608 196.226C136.544 199.01 138.522 201.89 140.415 204.944C149.745 219.791 153.985 237.142 156.621 250.584C157.268 253.813 157.886 257.077 158.539 260.372C159.751 266.638 160.974 273.035 162.324 279.355C161.701 279.443 161.078 279.531 160.455 279.618C159.106 273.298 157.888 266.967 156.676 260.701C156.059 257.436 155.441 254.172 154.794 250.943C152.169 237.633 148.019 220.54 138.843 205.944C136.956 202.957 134.978 200.077 133.078 197.322C126.502 187.776 120.306 178.794 119.057 166.027C117.6 150.889 119.43 137.288 121.454 122.874C122.528 115.048 123.651 107.018 124.152 98.7109C125.027 84.4307 122.454 71.7132 116.274 59.8754C109.613 47.0841 100.193 41.0719 88.2822 33.5188L85.648 31.8576C79.9553 28.2406 74.4673 24.307 69.1839 20.0568C69.7479 19.6756 70.3177 19.3602 70.8875 19.0449C75.9502 23.0489 81.1875 26.7722 86.6051 30.2805L89.2393 31.9417C101.395 39.6393 110.988 45.7359 117.888 58.9709Z" fill="#EACDC1"/>
<path d="M14.7406 190.917C17.3048 195.571 17.4456 201.731 17.3772 207.777C16.7107 206.607 16.0743 205.402 15.5037 204.191C15.4354 199.617 14.9834 195.21 13.1272 191.821C11.9433 189.668 10.045 188.075 8.01509 186.494C7.65941 185.463 7.29798 184.366 6.97236 183.3C7.36633 183.63 7.82616 183.955 8.22013 184.286C10.6741 186.162 13.1997 188.098 14.7406 190.917Z" fill="#EACDC1"/>
<path d="M148.921 40.8239C159.328 50.533 164.149 65.8082 161.187 79.7401C160.298 83.9993 158.764 88.0827 157.218 92.0343C156.783 93.1343 156.384 94.2644 155.949 95.3644C146.681 120.667 144.761 148.412 150.361 175.633C152.835 187.596 158.033 199.221 163.03 210.432C166.125 217.362 169.304 224.485 171.823 231.665C175.796 242.932 176.815 254.956 177.763 266.555C178.028 269.585 178.269 272.716 178.57 275.776C177.953 275.93 177.371 276.113 176.754 276.267C176.406 273.045 176.13 269.884 175.853 266.722C174.88 255.225 173.909 243.363 170.019 232.287C167.541 225.203 164.363 218.081 161.303 211.18C156.265 199.873 151.025 188.152 148.504 176.027C142.809 148.483 144.766 120.403 154.204 94.7538C154.603 93.6237 155.037 92.5238 155.472 91.4238C156.958 87.5438 158.462 83.4962 159.332 79.4046C162.119 66.1186 157.523 51.5205 147.582 42.2021C142.163 37.1673 135.488 33.7025 128.993 30.3881C126.698 29.195 124.301 27.9777 122.001 26.7187C117.257 24.0807 112.994 20.8696 108.772 17.7544C106.145 15.7939 103.446 13.7734 100.698 11.9563C98.7271 10.6685 96.8878 9.36924 95.0485 8.06997C95.7915 7.83903 96.5346 7.6081 97.2419 7.34711C98.693 8.38166 100.174 9.38042 101.721 10.3734C104.54 12.2507 107.239 14.2712 109.867 16.2316C114.017 19.2867 118.28 22.4978 122.851 25.0515C125.121 26.3463 127.482 27.5335 129.806 28.6908C136.475 32.0896 143.288 35.6087 148.921 40.8239Z" fill="#EACDC1"/>
<path d="M181.617 64.0478C182.128 74.0586 179.224 84.8658 173.256 95.1778C172.22 96.9941 171.233 98.6071 170.276 100.184C165.779 107.58 162.534 112.974 161.914 122.951C161.244 133.497 161.291 144.278 162.087 154.895C163.751 177.714 169.423 203.468 178.112 227.298C179.387 230.871 180.865 234.491 182.266 237.986C185.275 245.455 188.41 253.212 190.208 261.252C190.963 264.57 191.527 267.973 191.922 271.356C191.347 271.606 190.735 271.825 190.124 272.044C189.717 268.529 189.178 265.025 188.417 261.641C186.6 253.768 183.537 246.072 180.569 238.699C179.168 235.204 177.69 231.583 176.379 227.981C167.673 203.953 161.924 178.073 160.243 155.056C159.471 144.338 159.418 133.491 160.082 122.879C160.728 112.436 164.063 106.934 168.705 99.2929C169.632 97.7516 170.649 96.1028 171.655 94.3224C177.448 84.2911 180.255 73.8906 179.743 64.2451C179.17 53.1447 174.074 43.0705 166.06 37.2007C161.378 33.7607 155.728 31.766 150.246 29.7899C149.217 29.4153 148.189 29.0407 147.16 28.6661C131.938 23.0951 117.503 15.1323 104.462 5.28859C105.241 5.0877 105.984 4.85677 106.799 4.68594C119.398 14.0373 133.266 21.5851 147.837 26.9144C148.865 27.289 149.894 27.6636 150.922 28.0383C156.506 30.0386 162.33 32.1177 167.221 35.6722C175.622 41.8066 181.064 52.4147 181.617 64.0478Z" fill="#EACDC1"/>
<path d="M189.853 38.3051C194.295 45.4498 194.756 54.1374 195.167 61.867C195.804 73.3268 195.833 84.2757 189.663 92.6475C188.033 94.8808 186.039 96.7477 184.076 98.5788C182.298 100.261 180.46 102.015 178.939 103.973C171.17 114.177 173.048 125.396 175.085 137.297C175.402 139.028 175.683 140.729 175.935 142.466C176.426 145.808 177.05 149.139 177.607 152.475C179.28 162.118 181.018 172.121 180.943 181.885L180.959 182.447C180.866 192.378 180.771 202.674 182.533 212.575C183.955 220.482 187.363 227.186 190.936 234.274C191.816 235.989 192.661 237.674 193.511 239.425C197.755 248.113 200.651 257.318 202.877 266.449C202.308 266.764 201.732 267.014 201.126 267.299C198.931 258.132 196.035 248.928 191.826 240.269C191.011 238.549 190.131 236.833 189.287 235.148C185.636 227.935 182.151 221.105 180.706 212.934C178.897 202.871 178.986 192.509 179.104 182.477L179.088 181.914C179.18 172.349 177.448 162.411 175.78 152.834C175.187 149.468 174.594 146.101 174.102 142.759C173.821 141.058 173.569 139.321 173.252 137.59C171.262 125.851 169.202 113.685 177.512 102.837C179.088 100.741 181.021 98.9456 182.859 97.1919C184.727 95.4024 186.69 93.5713 188.2 91.4812C194.016 83.6051 193.95 72.9913 193.377 61.8909C192.989 54.4247 192.515 45.9706 188.342 39.2339C182.775 30.2296 172.073 26.2544 161.712 22.382L159.584 21.5726C145.582 16.2931 132.135 9.77046 119.411 2.023C120.393 1.8707 121.375 1.71832 122.327 1.60182C134.371 8.77828 147.083 14.8676 160.26 19.821L162.353 20.6003C172.899 24.6888 183.905 28.7369 189.853 38.3051Z" fill="#EACDC1"/>
<path d="M67.5646 61.4822C75.2422 71.0982 81.7783 80.1835 83.4611 94.1072C84.724 104.749 84.8902 115.752 85.0276 126.426C85.2139 140.315 85.4048 154.635 88.1542 168.233C91.3041 183.754 98.8039 198.164 106.102 212.161C108.528 216.76 111.038 221.552 113.315 226.331C121.453 243.108 126.595 260.91 131.618 278.126C131.861 279.001 132.139 279.905 132.387 280.846C131.753 280.802 131.053 280.764 130.418 280.72C130.193 280.043 130.034 279.36 129.809 278.682C124.826 261.563 119.726 243.856 111.63 227.175C109.323 222.432 106.849 217.671 104.422 213.071C97.0831 198.978 89.506 184.442 86.2671 168.663C83.5061 154.933 83.3037 140.482 83.1116 126.527C82.98 115.919 82.8138 104.916 81.4966 94.4119C79.8542 80.9492 73.5029 72.08 66.0159 62.746C61.6584 57.3197 52.9404 49.089 48.0221 50.1498C47.2074 50.3206 46.5475 50.7434 45.9464 51.4597C45.3153 52.2118 44.8147 53.3176 44.4088 54.7469C43.79 57.1573 44.2297 59.9064 44.5689 62.2662L50.0775 97.1607C50.9094 102.497 50.855 107.945 50.8492 113.188C50.7833 118.504 50.7647 123.981 51.6267 129.282C53.5087 140.932 57.1544 151.498 62.6008 160.645C71.7966 176.235 84.4965 200.013 88.6574 226.331C90.304 236.806 90.5847 247.6 90.8966 257.994C91.0089 261.933 91.0855 265.842 91.192 269.716C91.2311 270.542 91.2344 271.338 91.2377 272.134C90.586 271.893 89.9701 271.681 89.3485 271.404C89.3325 270.841 89.3164 270.278 89.3004 269.715C89.1938 265.842 89.1173 261.933 89.0407 258.023C88.7646 247.66 88.4239 236.938 86.8189 226.558C82.7168 200.534 70.1359 176.977 60.9516 161.52C55.4521 152.145 51.6574 141.392 49.7523 129.479C48.8731 123.981 48.9517 118.432 48.9818 113.086C49.0235 107.872 49.0536 102.527 48.269 97.3521L42.7603 62.4576C42.338 59.906 41.8811 56.9592 42.597 54.1422C43.4945 50.745 45.1774 48.7394 47.6216 48.2269C55.5052 46.5416 67.4514 61.3262 67.5646 61.4822Z" fill="#EACDC1"/>
<path d="M33.1261 50.5898C37.6564 68.6118 40.1736 87.1417 40.5414 105.76C40.5916 108.61 40.5817 111.531 40.5174 114.59C40.3984 124.987 40.2422 135.72 43.7969 144.867C45.9808 150.484 49.8657 155.819 53.7033 160.992C56.4203 164.737 59.2806 168.601 61.488 172.59C66.8244 182.377 71.3576 192.468 74.8971 202.578C80.1145 217.454 82.5523 234.697 82.0791 252.426C81.93 257.55 81.7208 262.745 81.5058 267.875C80.8842 267.597 80.2926 267.284 79.671 267.006C79.8789 262.176 80.0453 257.25 80.2175 252.39C80.7438 234.888 78.2932 217.879 73.159 203.195C69.6611 193.18 65.2052 183.216 59.8746 173.494C57.7446 169.632 54.956 165.827 52.239 162.082C48.3598 156.813 44.3674 151.388 42.1305 145.544C38.4452 136.043 38.5841 125.113 38.7217 114.548C38.7559 111.525 38.8017 108.634 38.7515 105.784C38.3696 87.7642 36.006 69.8513 31.6894 52.3748C32.1043 51.8075 32.6152 51.1987 33.1261 50.5898Z" fill="#EACDC1"/>
<path d="M143.617 280.992C141.676 269.049 138.638 254.049 132.449 239.823C127.887 229.403 122.232 219.776 116.739 210.467C105.132 190.84 94.2164 172.282 94.1318 147.798C94.1056 141.429 94.493 134.857 94.906 127.819C96.3294 103.501 97.8455 78.3464 82.0036 59.6216C76.9714 53.6901 71.0202 48.6355 65.284 43.7612C61.4102 40.4497 57.363 37.0537 53.6938 33.4256C53.2224 32.969 52.7453 32.4466 52.2266 31.8283C51.7643 32.2338 51.2662 32.6092 50.8039 33.0147C51.3584 33.663 51.8771 34.2814 52.3843 34.768C56.1251 38.4563 60.1422 41.888 64.0819 45.1938C69.7823 50.0381 75.6976 55.0626 80.5866 60.8739C95.9814 79.0405 94.4966 103.795 93.0744 127.747C92.6614 134.785 92.244 141.392 92.3061 147.792C92.4009 172.773 103.466 191.517 115.161 211.401C120.649 220.645 126.267 230.242 130.788 240.565C136.847 254.438 139.862 269.174 141.761 281.022L143.617 280.992Z" fill="#EACDC1"/>
<path d="M25.7156 60.2982C28.0035 70.5185 29.5958 81.1315 30.3906 92.1129C30.9125 98.8372 30.5494 105.307 30.229 111.508C29.4759 125.28 28.7553 138.285 37.5506 151.952C40.1231 155.941 43.0793 159.764 45.9281 163.498C49.0691 167.537 52.2875 171.702 55.0321 176.142C71.3935 202.321 74.4383 232.951 72.8736 263.619C72.282 263.306 71.6546 262.962 71.0573 262.583C72.4762 232.525 69.3931 202.595 53.4546 177.076C50.7516 172.733 47.569 168.597 44.4337 164.624C41.5491 160.861 38.5571 157.007 35.913 152.958C26.8081 138.787 27.5056 125.518 28.2958 111.411C28.652 105.241 28.9908 98.8726 28.4804 92.2801C27.7132 81.9931 26.3103 72.0273 24.2059 62.3883C24.7411 61.6777 25.2104 60.973 25.7156 60.2982Z" fill="#EACDC1"/>
<path d="M149.996 280.666C149.573 278.115 149.222 275.623 148.836 273.102C146.752 259.147 144.562 244.736 139.472 231.31C137.781 226.779 135.59 221.461 132.38 216.632C130.308 213.428 127.756 210.432 125.281 207.562C106.571 185.637 99.2102 158.405 103.335 126.65C103.814 123.024 104.413 119.254 105.03 115.683C106.882 104.602 108.734 93.1571 106.838 82.106C103.033 60.2374 86.4343 47.6519 68.8683 34.2549C65.5963 31.7535 62.2885 29.2221 59.0408 26.6191C59.6048 26.2379 60.103 25.8624 60.6369 25.517C63.7055 27.9698 66.87 30.381 69.9987 32.7622C87.0992 45.7685 104.773 59.2556 108.701 81.7771C110.692 93.1518 108.755 104.77 106.915 115.982C106.298 119.554 105.693 123.257 105.214 126.884C101.139 158.07 108.393 184.847 126.734 206.34C129.214 209.276 131.766 212.271 133.946 215.565C137.269 220.551 139.502 225.964 141.234 230.592C146.408 244.21 148.609 258.752 150.669 272.809C151.061 275.396 151.417 277.953 151.876 280.535L149.996 280.666Z" fill="#EACDC1"/>
<path d="M196.054 24.2226C199.585 27.7964 201.326 33.6509 202.87 38.7923C203.291 40.1825 203.675 41.5427 204.114 42.7653C206.212 48.9203 208.474 56.1893 209.31 63.8486C210.559 75.089 208.381 85.4677 203.13 92.9626C200.772 96.3548 197.918 99.3921 195.154 102.322C187.566 110.42 181.011 117.431 185.574 129.377C195.186 154.654 199.366 182.33 197.647 209.328L197.563 211.028C197.249 215.403 196.976 219.874 197.812 224.115C198.636 228.224 200.574 232.17 202.429 235.923L203.238 237.578C206.887 245.157 210.033 253.046 212.532 261.124C211.962 261.439 211.428 261.785 210.859 262.1C208.354 253.956 205.232 245.966 201.547 238.357L200.738 236.702C198.806 232.822 196.826 228.781 195.979 224.408C195.054 219.909 195.381 215.301 195.654 210.83L195.768 209.094C197.445 182.366 193.293 155.018 183.8 129.964C178.84 116.891 186.128 109.152 193.776 100.982C196.479 98.1241 199.303 95.1226 201.571 91.8379C206.552 84.6653 208.609 74.795 207.43 63.9799C206.612 56.5183 204.391 49.3452 202.304 43.3219C201.866 42.0993 201.445 40.709 201.055 39.2829C199.563 34.3692 197.876 28.7424 194.673 25.505C186.046 16.8017 172.038 11.4563 160.745 7.16771L159.645 6.73299C156.452 5.51892 153.092 4.28635 149.565 3.03523C147.269 2.20732 144.937 1.34933 142.57 0.461318C144.563 0.48604 146.556 0.5108 148.561 0.667259C149.111 0.88463 149.661 1.10198 150.241 1.28354C153.805 2.56471 157.165 3.79729 160.393 5.04141L161.493 5.47613C172.894 9.85484 187.141 15.2789 196.054 24.2226Z" fill="#EACDC1"/>
<path d="M209.705 18.6476C211.063 20.5199 212.301 22.5356 213.425 24.7603C218.183 34.0012 220.56 44.4791 222.415 53.5426C224.311 62.702 226.062 72.4715 224.778 82.075C223.396 92.4504 218.453 100.814 210.503 106.289L210.281 106.408C202.642 111.656 197.164 115.42 196.335 125.283C195.71 132.937 198.121 140.392 200.813 148.022L202.307 152.205C207.953 167.807 213.747 183.959 212.116 200.595C211.783 203.611 211.282 206.609 210.709 209.546C209.922 213.829 209.117 218.281 209.138 222.692C209.207 234.102 214.618 244.746 219.869 255.072C220.03 255.39 220.226 255.738 220.356 256.092C219.858 256.467 219.324 256.813 218.79 257.158C218.588 256.744 218.386 256.331 218.184 255.917C212.82 245.435 207.29 234.569 207.246 222.692C207.214 218.148 208.043 213.596 208.824 209.246C209.337 206.381 209.904 203.377 210.177 200.433C211.782 184.264 206.006 168.309 200.473 152.864L198.979 148.68C196.168 140.829 193.704 133.146 194.431 125.151C195.318 114.42 201.426 110.269 209.154 104.913L209.34 104.764C216.853 99.5938 221.537 91.6839 222.833 81.8469C224.074 72.5126 222.341 62.9407 220.492 53.9431C218.612 44.9814 216.253 34.701 211.644 25.6461C209.842 22.1201 207.752 19.084 205.462 16.4303C205.533 16.4904 205.635 16.5147 205.707 16.5748L209.705 18.6476Z" fill="#EACDC1"/>
<path d="M225.378 28.9915C233.071 46.3717 236.718 61.8824 236.484 76.2725C236.199 91.2311 231.894 102.327 223.294 110.248C222.033 111.387 220.671 112.501 219.338 113.58C215.587 116.597 212.087 119.458 210.361 123.625C208.502 128.168 209.352 133.337 210.417 138.686C213.091 151.793 216.302 164.986 219.886 177.88L220.117 178.623C221.75 184.388 223.394 190.284 223.164 196.377C223.072 198.741 222.705 200.997 222.338 203.252C222.057 204.969 221.782 206.752 221.638 208.524C220.468 221.702 226.867 234.151 233.261 246.169C232.799 246.574 232.307 247.016 231.808 247.391C225.182 234.995 218.521 222.204 219.765 208.356C219.939 206.549 220.208 204.7 220.52 202.947C220.892 200.757 221.259 198.502 221.332 196.305C221.555 190.511 219.923 184.747 218.338 179.144L218.137 178.365C214.451 165.446 211.269 152.218 208.59 139.045C207.436 133.438 206.593 127.97 208.609 122.948C210.498 118.369 214.37 115.21 218.152 112.158C219.454 111.114 220.817 110 222.048 108.896C230.251 101.376 234.363 90.728 234.628 76.3021C234.882 61.3792 230.842 45.1728 222.333 26.8021L222.404 26.8622L225.378 28.9915Z" fill="#EACDC1"/>
<path d="M235.443 37.4363L238.629 40.476C242.855 51.2237 246.582 62.3468 247.602 74.0055C249.096 90.7002 244.268 105.691 234.437 115.08C233.518 115.957 232.563 116.804 231.573 117.621C229.196 119.654 226.944 121.61 225.409 124.167C221.207 131.138 223.753 137.486 226.431 144.188C227.321 146.4 228.253 148.708 228.957 151.069C232.443 162.844 234 174.953 233.57 187.104C233.472 189.402 233.339 191.67 233.176 193.974C232.872 198.846 232.519 203.921 232.916 208.831C233.762 218.879 237.614 228.398 242.001 237.572C241.58 238.074 241.058 238.551 240.601 239.022C236.048 229.465 231.898 219.573 231.036 208.963C230.628 203.921 230.974 198.78 231.272 193.842C231.406 191.574 231.539 189.306 231.673 187.037C232.12 175.084 230.58 163.173 227.112 151.595C226.449 149.33 225.523 147.088 224.632 144.876C221.878 138.049 218.999 130.933 223.7 123.221C225.38 120.419 227.847 118.278 230.225 116.245C231.149 115.434 232.14 114.617 233.029 113.776C242.494 104.751 247.074 90.3461 245.632 74.2442C244.64 61.3884 240.156 49.2032 235.443 37.4363Z" fill="#EACDC1"/>
<path d="M250.637 53.7285L253.712 57.7737C255.202 63.4178 256.428 69.0849 257.097 74.834C259.11 91.7819 255.189 107.656 246.264 118.293C245.338 119.469 244.305 120.555 243.307 121.671C238.921 126.535 234.414 131.542 235.268 137.508C235.654 140.029 237.023 142.398 238.386 144.702L239.005 145.709C247.218 159.925 250.433 177.332 247.768 193.527C247.463 195.346 247.097 197.236 246.69 199.031C245.783 203.458 244.858 208.052 245.052 212.548C245.29 218.302 247.33 223.798 249.803 228.925C249.383 229.426 248.932 229.963 248.481 230.501C245.74 224.966 243.426 218.996 243.166 212.614C242.949 207.854 243.929 203.122 244.86 198.594C245.231 196.769 245.603 194.945 245.908 193.126C248.512 177.367 245.433 160.38 237.386 146.548L236.803 145.57C235.362 143.141 233.88 140.616 233.459 137.699C232.465 130.883 237.308 125.548 241.965 120.362C242.962 119.246 243.93 118.166 244.861 117.055C253.456 106.812 257.226 91.4821 255.252 74.9953C254.397 67.8688 252.78 60.7756 250.637 53.7285Z" fill="#EACDC1"/>
<path d="M262.18 70.7386L264.833 75.6504C265.248 78.5013 265.598 81.3579 265.912 84.1845C266.974 94.0474 263.322 106.546 255.154 121.298C254.666 122.171 254.178 123.043 253.631 123.987C251.463 127.661 249.006 131.825 248.58 135.679C248.154 139.533 249.778 144.435 251.218 148.756C251.715 150.272 252.207 151.723 252.556 153.053L253.035 154.736C256.265 166.235 259.595 178.123 257.704 190.269C257.404 192.153 256.972 194.049 256.601 195.874C255.981 198.649 255.343 201.592 255.159 204.429C254.91 209.164 255.906 213.722 257.615 218.086C257.206 218.719 256.797 219.353 256.352 219.956C254.321 214.956 253.04 209.792 253.322 204.291C253.488 201.257 254.157 198.278 254.801 195.401C255.208 193.606 255.61 191.746 255.849 189.933C257.643 178.194 254.396 166.498 251.22 155.227L250.741 153.543C250.362 152.249 249.906 150.829 249.378 149.348C247.891 144.866 246.184 139.772 246.671 135.481C247.129 131.226 249.67 126.889 251.957 123.072C252.475 122.163 253.029 121.285 253.487 120.449C261.485 106.043 265.04 93.951 264.013 84.4833C263.615 79.9384 262.984 75.3807 262.18 70.7386Z" fill="#EACDC1"/>
<path d="M267.299 200.945C266.834 196.771 266.913 192.748 267.047 188.588C267.112 185.529 267.2 182.369 267.049 179.13C266.472 167.598 264.546 156.583 261.294 146.348C261.105 145.701 260.844 144.993 260.619 144.316C259.054 139.707 257.336 134.482 259.172 129.675C260.283 126.823 262.13 124.04 263.917 121.328C265.145 119.429 266.318 117.667 267.258 115.892C270.669 109.355 272.554 102.453 273.35 95.2482C273.801 96.6026 274.251 97.9571 274.671 99.3473C273.669 105.342 271.824 111.178 268.925 116.742C267.961 118.618 266.698 120.488 265.5 122.351C263.773 124.991 261.986 127.703 260.959 130.381C259.365 134.536 260.988 139.439 262.458 143.724C262.719 144.431 262.945 145.108 263.17 145.785C266.499 156.147 268.442 167.36 269.031 179.023C269.188 182.328 269.105 185.554 269.011 188.649C268.941 191.642 268.859 194.503 269.017 197.442L267.299 200.945Z" fill="#EACDC1"/>
<path d="M278.459 166.484C277.388 161.069 276.024 155.712 274.335 150.451L273.737 148.545C272.197 143.835 270.645 138.992 270.764 133.905C270.955 126.985 273.622 120.679 276.211 114.611C276.676 113.476 277.141 112.34 277.635 111.168C277.895 112.241 278.089 113.319 278.319 114.427C278.21 114.702 278.071 115.013 277.963 115.288C275.428 121.218 272.845 127.351 272.656 133.905C272.538 138.628 274.048 143.374 275.541 147.922L276.139 149.828C277.371 153.67 278.406 157.528 279.314 161.464L278.459 166.484Z" fill="#EACDC1"/>
<path d="M63.8677 82.1817C62.3194 81.5538 60.7328 81.6263 59.5332 82.3286C57.1998 83.7274 56.9322 86.7376 56.9247 88.9285C56.9424 97.8541 57.9896 106.789 60.0734 115.434C61.6434 122.001 65.2571 126.131 69.0058 125.737C70.2873 125.592 71.361 124.967 72.2325 123.928C73.7953 122.066 74.7158 118.932 74.8196 114.808C75.0436 105.231 72.8133 95.669 68.3825 87.1296C67.6271 85.7023 66.6869 84.0589 65.1583 82.8984C64.7701 82.6337 64.316 82.3747 63.8677 82.1817ZM66.7333 88.004C71.0394 96.2557 73.1751 105.494 72.958 114.772C72.8204 120.027 71.1798 123.655 68.8144 123.928C66.5147 124.196 63.4 121.216 61.9304 115.04C59.8581 106.526 58.7924 97.7586 58.7863 88.9648C58.7913 87.5042 58.9235 85.601 59.8551 84.4907C60.0354 84.2758 60.2515 84.091 60.5035 83.9362C61.2293 83.5076 62.193 83.5229 63.2214 83.8975C63.5322 84.0362 63.813 84.2108 64.1295 84.4154C65.2699 85.3112 66.0911 86.7328 66.7333 88.004Z" fill="#EACDC1"/>
<path d="M112.405 254.253L112.606 255.032C114.9 263.427 117.267 271.516 119.653 279.438C118.983 279.364 118.307 279.224 117.631 279.084C115.304 271.456 113.056 263.588 110.821 255.487L110.584 254.678C106.978 241.155 104.151 238.051 102.404 237.805C101.13 237.651 99.8489 239.323 99.0778 240.751C97.6686 243.231 97.9337 246.26 98.3708 249.74L101.755 275.528C101.109 275.352 100.463 275.177 99.7818 274.971L96.5022 250.003C96.1169 247.116 95.5979 243.08 97.4406 239.865C99.0544 237.069 100.831 235.752 102.674 235.956C107.108 236.564 110.194 246.051 112.405 254.253Z" fill="#EACDC1"/>
</g>
</g>
<defs>
<clipPath id="clip0">
<rect width="281" height="281" fill="white"/>
</clipPath>
</defs>
</svg>
