<svg width="235" height="235" viewBox="0 0 235 235" fill="none" xmlns="http://www.w3.org/2000/svg">
<g clip-path="url(#clip0)">
<g opacity="0.22">
<path d="M0.243339 110.68C0.191532 117.079 0.781575 123.505 3.57727 128.766C6.10878 133.549 9.77605 137.649 13.3736 141.588C16.9161 145.532 20.5785 149.577 23.1952 154.38C26.5144 160.54 27.8905 167.37 29.2473 173.98C30.283 179.144 31.338 184.529 33.3825 189.466C34.0143 190.968 34.6461 192.469 35.2828 194.026C36.8948 197.833 38.4865 201.725 39.8874 205.662C39.0724 204.927 38.2574 204.192 37.4424 203.457C36.3491 200.495 35.0903 197.546 33.8663 194.678C33.2296 193.122 32.5678 191.595 31.9359 190.093C29.8518 185.021 28.7668 179.61 27.7214 174.336C26.4295 167.832 25.0631 161.112 21.8484 155.193C19.3313 150.575 15.7289 146.581 12.2213 142.717C8.5889 138.698 4.83162 134.522 2.20044 129.553C1.40305 128.066 0.786722 126.424 0.280774 124.772C-0.0240639 120.017 -0.0433252 115.348 0.243339 110.68Z" fill="white"/>
<path d="M105.862 39.1044C113.669 45.3999 118.166 56.1278 117.911 67.8275C117.792 73.4542 116.554 79.0118 115.383 84.3691C115.041 85.8725 114.73 87.4011 114.419 88.9297C111.125 104.982 110.472 121.36 112.423 137.621C113.301 145.107 115.139 148.644 117.681 153.537C118.717 155.532 119.893 157.848 121.172 160.711C122.521 163.734 123.985 166.804 125.384 169.767C127.695 174.57 130.105 179.558 132.024 184.645C137.169 198.013 139.598 212.425 141.903 226.375C142.212 228.322 142.551 230.294 142.891 232.266C142.374 232.395 141.857 232.524 141.335 232.597C140.991 230.57 140.651 228.598 140.312 226.626C138.017 212.786 135.623 198.454 130.547 185.247C128.608 180.245 126.228 175.282 123.917 170.48C122.518 167.516 120.999 164.451 119.675 161.398C118.426 158.56 117.255 156.299 116.218 154.304C113.608 149.25 111.759 145.603 110.803 137.846C108.837 121.42 109.53 104.872 112.81 88.6534C113.121 87.1248 113.462 85.6214 113.799 84.0628C114.975 78.7607 116.162 73.263 116.296 67.8019C116.565 56.5737 112.277 46.3281 104.829 40.3347C103.664 39.4079 102.398 38.6012 101.157 37.7645L100.126 37.1039C92.5149 32.098 85.6098 25.9459 78.9998 19.9905C75.5598 16.8994 71.9998 13.7077 68.3487 10.7464C68.8561 10.5074 69.3886 10.2384 69.956 10.0497C73.4318 12.9152 76.7818 15.9306 80.067 18.8406C86.6721 24.7408 93.5172 30.8425 101.043 35.8282L102.074 36.4887C103.34 37.2954 104.636 38.1273 105.862 39.1044Z" fill="white"/>
<path d="M14.1066 61.6175C14.9122 69.5544 14.8815 77.1473 13.9495 84.2909C13.4848 88.1961 12.4791 91.9541 11.4937 95.627C9.1924 104.28 6.98804 112.453 11.8769 121.617C14.3736 126.32 18.2723 130.205 22.0461 133.934C25.3351 137.205 28.714 140.552 31.2582 144.527C34.2216 149.161 35.9891 154.428 37.687 159.535C39.2311 164.154 41.0607 168.859 42.9997 173.861C48.4489 187.842 54.0472 202.255 53.8591 216.312C53.3286 215.969 52.7982 215.626 52.2929 215.253C52.2282 201.802 46.8138 187.902 41.5483 174.433C39.6094 169.431 37.7497 164.701 36.2008 160.026C34.5126 155.03 32.8099 149.869 29.9414 145.365C27.4668 141.55 24.1479 138.254 20.949 135.059C17.0851 131.254 13.0964 127.294 10.4701 122.38C5.33737 112.653 7.60275 104.225 9.96024 95.2607C10.9253 91.673 11.9059 87.945 12.3802 84.1501C13.1639 77.8536 13.2815 71.254 12.7284 64.296C13.2282 63.3348 13.6524 62.4636 14.1066 61.6175Z" fill="white"/>
<path d="M98.5207 48.9496C103.832 59.1335 106.067 70.0593 105.303 82.3039C104.858 89.2936 103.953 96.1012 103.028 102.688C101.377 114.649 99.809 125.963 101.041 138.45C102.054 148.76 107.149 156.154 112.529 163.941C114.151 166.274 115.808 168.687 117.394 171.245C125.211 183.684 128.763 198.22 130.971 209.482C131.514 212.187 132.031 214.922 132.578 217.682C133.594 222.932 134.619 228.291 135.749 233.586C135.227 233.66 134.705 233.733 134.184 233.807C133.053 228.512 132.033 223.207 131.018 217.958C130.5 215.223 129.983 212.488 129.44 209.783C127.242 198.631 123.764 184.311 116.077 172.083C114.496 169.58 112.839 167.167 111.247 164.86C105.737 156.862 100.547 149.336 99.5002 138.64C98.2794 125.958 99.8126 114.563 101.509 102.487C102.409 95.9305 103.349 89.2032 103.769 82.2435C104.502 70.2796 102.346 59.625 97.169 49.7073C91.5883 38.9909 83.6964 33.9539 73.7175 27.6259L71.5105 26.2342C66.7413 23.2039 62.1434 19.9083 57.717 16.3475C58.1895 16.0282 58.6669 15.764 59.1442 15.4998C63.3858 18.8543 67.7735 21.9736 72.3124 24.9129L74.5193 26.3047C84.7035 32.7537 92.7406 37.8614 98.5207 48.9496Z" fill="white"/>
<path d="M12.1047 159.493C14.253 163.392 14.3709 168.553 14.3136 173.619C13.7552 172.639 13.222 171.629 12.744 170.614C12.6868 166.782 12.3082 163.09 10.753 160.251C9.76112 158.447 8.17079 157.113 6.47011 155.788C6.17213 154.924 5.86933 154.005 5.59652 153.112C5.92659 153.389 6.31183 153.661 6.6419 153.938C8.69783 155.51 10.8138 157.132 12.1047 159.493Z" fill="white"/>
<path d="M124.521 33.7464C133.24 41.8806 137.279 54.6781 134.797 66.3502C134.052 69.9185 132.767 73.3396 131.472 76.6502C131.107 77.5718 130.773 78.5185 130.409 79.4401C122.644 100.638 121.035 123.883 125.727 146.689C127.8 156.711 132.155 166.45 136.341 175.843C138.934 181.649 141.597 187.617 143.708 193.632C147.036 203.072 147.89 213.145 148.684 222.863C148.906 225.401 149.108 228.025 149.36 230.588C148.843 230.717 148.356 230.871 147.839 230.999C147.548 228.3 147.316 225.651 147.084 223.003C146.269 213.371 145.455 203.433 142.197 194.153C140.121 188.218 137.458 182.251 134.894 176.47C130.674 166.997 126.284 157.177 124.172 147.019C119.4 123.943 121.04 100.417 128.946 78.9286C129.281 77.9818 129.645 77.0603 130.009 76.1387C131.254 72.8881 132.514 69.497 133.243 66.0691C135.578 54.9382 131.727 42.708 123.398 34.9011C118.859 30.6829 113.267 27.7802 107.825 25.0033C105.902 24.0038 103.895 22.9839 101.967 21.9292C97.9926 19.719 94.4209 17.0288 90.884 14.4189C88.6828 12.7764 86.4217 11.0837 84.1198 9.56127C82.4685 8.4824 80.9275 7.39386 79.3865 6.30534C80.009 6.11186 80.6316 5.91839 81.2241 5.69973C82.4399 6.56647 83.6808 7.40323 84.9769 8.23514C87.3388 9.80791 89.5999 11.5007 91.8011 13.1431C95.278 15.7026 98.8497 18.3929 102.679 20.5324C104.581 21.6171 106.559 22.6118 108.507 23.5813C114.094 26.4289 119.801 29.3772 124.521 33.7464Z" fill="white"/>
<path d="M151.914 53.2031C152.342 61.59 149.909 70.6443 144.909 79.2836C144.042 80.8053 143.215 82.1566 142.413 83.4779C138.645 89.674 135.927 94.1935 135.407 102.552C134.845 111.387 134.885 120.42 135.552 129.314C136.946 148.432 141.698 170.008 148.977 189.974C150.045 192.966 151.284 196 152.458 198.928C154.979 205.185 157.605 211.684 159.112 218.419C159.744 221.2 160.216 224.05 160.548 226.885C160.065 227.094 159.553 227.278 159.041 227.462C158.7 224.516 158.249 221.581 157.611 218.745C156.089 212.15 153.523 205.702 151.036 199.525C149.863 196.597 148.624 193.563 147.526 190.545C140.232 170.415 135.416 148.732 134.007 129.449C133.36 120.47 133.316 111.382 133.872 102.492C134.414 93.742 137.208 89.1325 141.096 82.7312C141.873 81.4399 142.725 80.0586 143.568 78.5669C148.421 70.1628 150.773 61.4493 150.344 53.3683C149.864 44.0684 145.594 35.6284 138.88 30.7107C134.958 27.8287 130.225 26.1576 125.631 24.502C124.77 24.1881 123.908 23.8743 123.047 23.5604C110.294 18.8931 98.1995 12.2219 87.2742 3.97488C87.9267 3.80658 88.5493 3.61311 89.2318 3.46999C99.7874 11.3045 111.406 17.628 123.613 22.0929C124.475 22.4067 125.336 22.7206 126.198 23.0344C130.877 24.7103 135.755 26.4522 139.853 29.4301C146.892 34.5695 151.451 43.4569 151.914 53.2031Z" fill="white"/>
<path d="M158.813 31.636C162.534 37.6218 162.92 44.9002 163.264 51.376C163.798 60.977 163.822 70.1499 158.653 77.1638C157.288 79.0348 155.617 80.5989 153.972 82.133C152.483 83.5422 150.943 85.0115 149.669 86.6522C143.16 95.2011 144.733 104.6 146.439 114.571C146.705 116.021 146.941 117.446 147.152 118.902C147.564 121.702 148.086 124.492 148.553 127.287C149.955 135.366 151.411 143.746 151.348 151.926L151.361 152.398C151.283 160.718 151.204 169.344 152.68 177.639C153.871 184.263 156.726 189.88 159.72 195.818C160.457 197.255 161.165 198.666 161.877 200.133C165.433 207.412 167.859 215.124 169.724 222.773C169.247 223.038 168.765 223.247 168.257 223.486C166.418 215.806 163.991 208.095 160.465 200.841C159.783 199.399 159.046 197.962 158.338 196.55C155.279 190.507 152.36 184.784 151.149 177.939C149.633 169.509 149.708 160.828 149.807 152.422L149.793 151.951C149.87 143.937 148.419 135.612 147.022 127.588C146.525 124.767 146.028 121.947 145.616 119.147C145.381 117.722 145.17 116.267 144.904 114.817C143.237 104.981 141.511 94.7893 148.473 85.7002C149.793 83.9443 151.413 82.4403 152.953 80.9711C154.518 79.4718 156.163 77.9377 157.428 76.1867C162.3 69.5881 162.245 60.6959 161.765 51.396C161.44 45.1409 161.043 38.0581 157.546 32.4141C152.882 24.8704 143.916 21.54 135.236 18.2957L133.453 17.6176C121.722 13.1945 110.457 7.72982 99.7961 1.23904C100.619 1.11143 101.442 0.983772 102.24 0.886174C112.33 6.89857 122.98 12.0002 134.02 16.1501L135.773 16.803C144.608 20.2283 153.83 23.6198 158.813 31.636Z" fill="white"/>
<path d="M56.3606 51.0533C62.7929 59.1095 68.2688 66.7212 69.6786 78.3864C70.7366 87.302 70.8759 96.5205 70.991 105.463C71.1471 117.099 71.307 129.096 73.6104 140.488C76.2495 153.492 82.5327 165.565 88.6466 177.291C90.6798 181.145 92.7826 185.159 94.6898 189.162C101.508 203.218 105.816 218.133 110.025 232.556C110.228 233.289 110.461 234.047 110.669 234.835C110.137 234.798 109.551 234.766 109.019 234.729C108.831 234.162 108.697 233.59 108.508 233.022C104.334 218.68 100.061 203.845 93.2781 189.87C91.3457 185.896 89.2729 181.907 87.2398 178.054C81.091 166.247 74.743 154.068 72.0294 140.849C69.7163 129.346 69.5468 117.239 69.3858 105.548C69.2756 96.6605 69.1363 87.442 68.0327 78.6416C66.6567 67.3626 61.3357 59.9321 55.0631 52.1121C51.4124 47.5659 44.1085 40.6703 39.988 41.559C39.3055 41.7022 38.7526 42.0564 38.249 42.6565C37.7203 43.2866 37.3009 44.213 36.9608 45.4105C36.4424 47.4299 36.8107 49.7331 37.0949 51.7101L41.71 80.9445C42.407 85.4155 42.3614 89.9791 42.3565 94.3725C42.3013 98.8258 42.2857 103.415 43.0079 107.856C44.5846 117.616 47.639 126.468 52.2019 134.132C59.9061 147.192 70.5461 167.114 74.032 189.163C75.4115 197.939 75.6467 206.982 75.908 215.689C76.0021 218.99 76.0662 222.265 76.1555 225.51C76.1883 226.202 76.191 226.869 76.1938 227.536C75.6478 227.334 75.1318 227.157 74.611 226.924C74.5976 226.453 74.5842 225.981 74.5707 225.51C74.4814 222.265 74.4173 218.989 74.3532 215.714C74.1219 207.032 73.8364 198.049 72.4917 189.353C69.055 167.55 58.5148 147.814 50.8202 134.864C46.2128 127.01 43.0337 118.002 41.4376 108.021C40.7009 103.414 40.7668 98.7655 40.7921 94.2869C40.8269 89.9188 40.8522 85.4402 40.1948 81.1049L35.5797 51.8704C35.2259 49.7328 34.8431 47.264 35.4429 44.9038C36.1948 42.0577 37.6048 40.3774 39.6524 39.948C46.2573 38.5361 56.2658 50.9226 56.3606 51.0533Z" fill="white"/>
<path d="M27.509 41.9282C31.3045 57.0269 33.4134 72.5511 33.7216 88.1496C33.7636 90.537 33.7553 92.9844 33.7015 95.547C33.6017 104.258 33.4709 113.25 36.449 120.913C38.2786 125.619 41.5334 130.088 44.7485 134.422C47.0248 137.56 49.4211 140.798 51.2704 144.139C55.7413 152.339 59.5392 160.793 62.5046 169.263C66.8757 181.726 68.918 196.172 68.5216 211.026C68.3967 215.318 68.2214 219.671 68.0413 223.968C67.5205 223.736 67.0249 223.473 66.5041 223.241C66.6783 219.194 66.8177 215.067 66.9619 210.995C67.4029 196.332 65.3498 182.082 61.0484 169.78C58.1179 161.39 54.3848 153.042 49.9188 144.897C48.1343 141.661 45.798 138.473 43.5217 135.336C40.2718 130.922 36.927 126.377 35.0528 121.48C31.9654 113.521 32.0817 104.363 32.197 95.5118C32.2257 92.9792 32.264 90.5569 32.2219 88.1696C31.902 73.0726 29.9218 58.0653 26.3053 43.4236C26.653 42.9483 27.081 42.4383 27.509 41.9282Z" fill="white"/>
<path d="M120.077 234.957C118.451 224.952 115.906 212.385 110.72 200.466C106.898 191.737 102.161 183.671 97.5587 175.872C87.8348 159.429 78.6896 143.881 78.6188 123.368C78.5968 118.032 78.9214 112.526 79.2674 106.63C80.4599 86.2568 81.7301 65.182 68.4578 49.4945C64.2418 44.5251 59.256 40.2904 54.4502 36.2067C51.2048 33.4323 47.8141 30.5872 44.74 27.5476C44.3451 27.1651 43.9454 26.7274 43.5108 26.2094C43.1235 26.5491 42.7062 26.8636 42.3189 27.2033C42.7834 27.7465 43.218 28.2646 43.6429 28.6723C46.777 31.7623 50.1425 34.6374 53.4431 37.407C58.2189 41.4654 63.1747 45.675 67.2707 50.5436C80.1684 65.7635 78.9244 86.5023 77.7329 106.569C77.3869 112.466 77.0372 118.002 77.0892 123.363C77.1686 144.292 86.4386 159.996 96.237 176.655C100.835 184.399 105.542 192.439 109.329 201.088C114.405 212.711 116.931 225.057 118.522 234.982L120.077 234.957Z" fill="white"/>
<path d="M21.2979 50.0618C23.2148 58.6243 24.5488 67.5158 25.2147 76.716C25.6519 82.3496 25.3477 87.77 25.0793 92.9649C24.4483 104.503 23.8446 115.399 31.2133 126.849C33.3685 130.191 35.8452 133.394 38.2319 136.522C40.8634 139.906 43.5598 143.396 45.8592 147.115C59.5666 169.048 62.1176 194.709 60.8067 220.403C60.311 220.14 59.7854 219.853 59.285 219.535C60.4738 194.353 57.8908 169.278 44.5375 147.898C42.273 144.259 39.6066 140.794 36.9799 137.465C34.5632 134.313 32.0565 131.084 29.8413 127.692C22.2132 115.82 22.7976 104.703 23.4596 92.8842C23.758 87.7145 24.0419 82.3793 23.6143 76.856C22.9715 68.2377 21.7962 59.8883 20.0332 51.8129C20.4815 51.2176 20.8747 50.6271 21.2979 50.0618Z" fill="white"/>
<path d="M125.419 234.685C125.065 232.547 124.771 230.46 124.448 228.347C122.702 216.656 120.867 204.583 116.602 193.334C115.186 189.538 113.35 185.083 110.661 181.037C108.925 178.353 106.787 175.843 104.713 173.439C89.0379 155.07 82.8714 132.255 86.3269 105.651C86.7284 102.613 87.2306 99.4549 87.7473 96.4625C89.2984 87.1796 90.8506 77.5907 89.2621 68.3322C86.0744 50.0108 72.1678 39.4667 57.4511 28.2428C54.7099 26.1472 51.9386 24.0263 49.2177 21.8455C49.6903 21.5261 50.1076 21.2116 50.5549 20.9222C53.1258 22.9772 55.777 24.9973 58.3982 26.9922C72.7249 37.8888 87.5316 49.1882 90.8228 68.0567C92.4906 77.5862 90.8677 87.3203 89.3263 96.7136C88.8096 99.706 88.3025 102.809 87.901 105.847C84.4873 131.974 90.5648 154.408 105.931 172.415C108.009 174.874 110.147 177.384 111.973 180.144C114.757 184.321 116.627 188.856 118.079 192.733C122.413 204.142 124.258 216.325 125.983 228.102C126.312 230.269 126.61 232.412 126.994 234.575L125.419 234.685Z" fill="white"/>
<path d="M164.008 19.8377C166.967 22.8318 168.425 27.7367 169.719 32.0441C170.071 33.2089 170.393 34.3484 170.761 35.3727C172.519 40.5293 174.414 46.6193 175.114 53.0362C176.161 62.4533 174.336 71.1485 169.936 77.4277C167.961 80.2697 165.57 82.8143 163.254 85.2689C156.897 92.053 151.406 97.9273 155.228 107.936C163.281 129.112 166.783 152.299 165.342 174.918L165.272 176.342C165.009 180.008 164.781 183.753 165.481 187.306C166.171 190.749 167.795 194.055 169.349 197.2L170.027 198.586C173.084 204.936 175.72 211.545 177.813 218.312C177.336 218.576 176.889 218.866 176.411 219.13C174.313 212.307 171.698 205.613 168.61 199.238L167.933 197.852C166.314 194.601 164.655 191.215 163.945 187.552C163.171 183.783 163.445 179.922 163.673 176.176L163.768 174.722C165.173 152.329 161.695 129.418 153.742 108.427C149.587 97.4747 155.692 90.9907 162.1 84.1466C164.365 81.752 166.73 79.2374 168.63 76.4854C172.803 70.4763 174.527 62.207 173.539 53.1462C172.853 46.8949 170.993 40.8853 169.245 35.8391C168.877 34.8147 168.525 33.6499 168.198 32.4552C166.948 28.3385 165.535 23.6244 162.851 20.9121C155.624 13.6205 143.888 9.14215 134.427 5.54922L133.505 5.18501C130.83 4.16788 128.015 3.13523 125.06 2.08705C123.136 1.39343 121.183 0.674609 119.199 -0.069361C120.869 -0.0486483 122.539 -0.0279046 124.219 0.103176C124.68 0.285288 125.14 0.467383 125.626 0.619489C128.612 1.69285 131.427 2.7255 134.132 3.76781L135.053 4.13202C144.605 7.80048 156.541 12.3447 164.008 19.8377Z" fill="white"/>
<path d="M175.443 15.1671C176.581 16.7357 177.619 18.4244 178.56 20.2882C182.546 28.0302 184.538 36.8086 186.092 44.4019C187.681 52.0756 189.147 60.2604 188.072 68.3062C186.914 76.9987 182.773 84.006 176.112 88.5924L175.926 88.6921C169.527 93.0888 164.937 96.2428 164.242 104.506C163.719 110.918 165.739 117.164 167.994 123.556L169.246 127.061C173.976 140.132 178.83 153.664 177.464 167.602C177.184 170.129 176.765 172.64 176.285 175.101C175.626 178.689 174.951 182.418 174.968 186.115C175.026 195.674 179.56 204.591 183.959 213.243C184.094 213.509 184.258 213.8 184.367 214.097C183.95 214.411 183.503 214.7 183.055 214.99C182.886 214.643 182.717 214.297 182.547 213.95C178.053 205.168 173.42 196.065 173.384 186.114C173.356 182.308 174.051 178.493 174.706 174.85C175.135 172.449 175.61 169.933 175.839 167.466C177.184 153.919 172.345 140.552 167.709 127.613L166.457 124.108C164.103 117.53 162.038 111.093 162.648 104.395C163.39 95.405 168.508 91.9268 174.982 87.4401L175.138 87.3152C181.432 82.9834 185.356 76.3565 186.443 68.1151C187.482 60.2949 186.03 52.2756 184.481 44.7375C182.906 37.2294 180.929 28.6165 177.068 21.0304C175.559 18.0763 173.807 15.5327 171.889 13.3094C171.949 13.3598 172.034 13.3802 172.094 13.4305L175.443 15.1671Z" fill="white"/>
<path d="M188.574 23.833C195.02 38.3941 198.075 51.3888 197.879 63.4448C197.641 75.9771 194.033 85.2731 186.829 91.9089C185.772 92.8632 184.631 93.7972 183.514 94.7011C180.371 97.2282 177.439 99.6256 175.993 103.116C174.435 106.923 175.148 111.253 176.04 115.735C178.28 126.716 180.971 137.768 183.973 148.571L184.167 149.194C185.535 154.023 186.912 158.963 186.719 164.068C186.642 166.048 186.335 167.938 186.028 169.828C185.792 171.266 185.561 172.76 185.441 174.244C184.461 185.284 189.822 195.714 195.179 205.783C194.792 206.123 194.379 206.492 193.962 206.807C188.41 196.422 182.829 185.705 183.872 174.104C184.017 172.589 184.243 171.04 184.504 169.572C184.816 167.737 185.123 165.848 185.185 164.007C185.372 159.153 184.004 154.324 182.676 149.63L182.508 148.978C179.42 138.154 176.754 127.072 174.51 116.035C173.543 111.338 172.836 106.757 174.525 102.55C176.108 98.7133 179.352 96.0662 182.52 93.5092C183.612 92.6352 184.753 91.7012 185.784 90.7769C192.657 84.476 196.102 75.5555 196.324 63.4696C196.537 50.9673 193.152 37.3896 186.023 21.9988L186.083 22.0491L188.574 23.833Z" fill="white"/>
<path d="M197.006 30.9079L199.676 33.4547C203.216 42.459 206.339 51.7779 207.193 61.5455C208.445 75.5322 204.4 88.0916 196.164 95.9576C195.394 96.6923 194.594 97.4017 193.764 98.086C191.772 99.7895 189.886 101.428 188.6 103.57C185.079 109.411 187.213 114.729 189.456 120.344C190.202 122.197 190.982 124.131 191.573 126.109C194.493 135.974 195.798 146.119 195.437 156.298C195.355 158.224 195.244 160.124 195.107 162.055C194.852 166.136 194.557 170.388 194.889 174.502C195.598 182.92 198.825 190.895 202.501 198.581C202.148 199.001 201.71 199.401 201.328 199.796C197.513 191.788 194.036 183.501 193.314 174.612C192.972 170.388 193.262 166.081 193.512 161.944C193.624 160.044 193.736 158.143 193.848 156.243C194.223 146.229 192.932 136.249 190.026 126.55C189.471 124.652 188.695 122.774 187.949 120.921C185.641 115.201 183.229 109.239 187.168 102.778C188.575 100.431 190.643 98.6371 192.635 96.9337C193.409 96.2542 194.239 95.57 194.984 94.8653C202.913 87.3042 206.751 75.2355 205.543 61.7454C204.712 50.9749 200.955 40.7663 197.006 30.9079Z" fill="white"/>
<path d="M209.738 44.5575L212.315 47.9466C213.562 52.6751 214.589 57.423 215.15 62.2396C216.837 76.4384 213.552 89.7377 206.074 98.6494C205.298 99.6348 204.433 100.545 203.597 101.48C199.922 105.555 196.146 109.75 196.862 114.747C197.185 116.86 198.332 118.845 199.474 120.774L199.993 121.619C206.873 133.528 209.567 148.112 207.335 161.68C207.079 163.204 206.772 164.788 206.431 166.291C205.671 170 204.896 173.849 205.059 177.616C205.258 182.436 206.968 187.041 209.04 191.336C208.687 191.756 208.309 192.206 207.932 192.656C205.635 188.019 203.696 183.018 203.479 177.671C203.297 173.683 204.118 169.719 204.898 165.925C205.209 164.396 205.52 162.868 205.776 161.344C207.957 148.141 205.378 133.909 198.636 122.321L198.148 121.502C196.941 119.467 195.699 117.351 195.346 114.908C194.513 109.197 198.571 104.728 202.472 100.383C203.308 99.4475 204.118 98.5425 204.899 97.6124C212.1 89.0306 215.258 76.1873 213.605 62.3747C212.888 56.4041 211.534 50.4615 209.738 44.5575Z" fill="white"/>
<path d="M219.409 58.8084L221.632 62.9235C221.98 65.3119 222.273 67.7051 222.536 70.0732C223.426 78.3363 220.366 88.8077 213.523 101.167C213.115 101.898 212.706 102.629 212.247 103.42C210.431 106.498 208.373 109.987 208.016 113.215C207.659 116.444 209.019 120.551 210.225 124.171C210.642 125.441 211.054 126.656 211.347 127.771L211.748 129.181C214.454 138.815 217.243 148.774 215.659 158.95C215.408 160.529 215.047 162.117 214.735 163.646C214.216 165.971 213.681 168.437 213.528 170.814C213.319 174.78 214.153 178.6 215.585 182.255C215.242 182.786 214.899 183.316 214.527 183.822C212.826 179.633 211.752 175.306 211.988 170.698C212.127 168.156 212.687 165.66 213.227 163.25C213.568 161.746 213.905 160.188 214.105 158.669C215.608 148.834 212.888 139.035 210.227 129.592L209.826 128.182C209.508 127.097 209.126 125.907 208.684 124.667C207.438 120.912 206.008 116.644 206.416 113.049C206.8 109.485 208.928 105.851 210.845 102.653C211.279 101.892 211.743 101.156 212.126 100.455C218.828 88.3863 221.806 78.2556 220.945 70.3236C220.612 66.5159 220.083 62.6975 219.409 58.8084Z" fill="white"/>
<path d="M223.698 167.894C223.309 164.397 223.376 161.027 223.488 157.542C223.542 154.979 223.616 152.332 223.49 149.618C223.006 139.957 221.392 130.729 218.668 122.153C218.509 121.611 218.291 121.019 218.102 120.451C216.791 116.59 215.351 112.212 216.89 108.185C217.821 105.796 219.368 103.464 220.865 101.192C221.894 99.6007 222.877 98.1245 223.664 96.6377C226.522 91.1607 228.101 85.3785 228.768 79.3424C229.146 80.4771 229.523 81.6119 229.875 82.7766C229.036 87.799 227.489 92.6886 225.061 97.3496C224.253 98.9216 223.195 100.488 222.192 102.049C220.745 104.261 219.247 106.533 218.387 108.777C217.051 112.258 218.412 116.365 219.643 119.955C219.862 120.547 220.051 121.115 220.239 121.682C223.028 130.363 224.657 139.757 225.15 149.528C225.281 152.297 225.212 155 225.133 157.593C225.074 160.1 225.006 162.497 225.138 164.96L223.698 167.894Z" fill="white"/>
<path d="M233.045 139.023C232.148 134.487 231.004 129.999 229.59 125.591L229.089 123.994C227.798 120.048 226.498 115.991 226.598 111.729C226.758 105.932 228.992 100.648 231.161 95.5651C231.551 94.6135 231.94 93.6619 232.355 92.6803C232.572 93.5788 232.735 94.4821 232.927 95.4106C232.836 95.641 232.72 95.9013 232.629 96.1317C230.506 101.1 228.342 106.238 228.182 111.729C228.084 115.686 229.349 119.662 230.6 123.473L231.101 125.069C232.133 128.288 233 131.521 233.761 134.818L233.045 139.023Z" fill="white"/>
<path d="M53.2622 68.3955C51.965 67.8695 50.6358 67.9302 49.6308 68.5186C47.6759 69.6905 47.4516 72.2124 47.4454 74.048C47.4602 81.5258 48.3375 89.0114 50.0833 96.2544C51.3987 101.756 54.4262 105.216 57.5668 104.886C58.6405 104.764 59.54 104.241 60.2702 103.37C61.5794 101.81 62.3507 99.1847 62.4376 95.7295C62.6253 87.7058 60.7568 79.6952 57.0447 72.5409C56.4118 71.3451 55.6241 69.9682 54.3435 68.996C54.0182 68.7742 53.6378 68.5573 53.2622 68.3955ZM55.663 73.2734C59.2706 80.1866 61.0598 87.9262 60.878 95.6992C60.7627 100.102 59.3883 103.142 57.4065 103.371C55.4799 103.595 52.8704 101.099 51.6391 95.9236C49.903 88.7911 49.0101 81.4458 49.0051 74.0784C49.0092 72.8547 49.1199 71.2602 49.9005 70.33C50.0515 70.1499 50.2326 69.9951 50.4437 69.8654C51.0517 69.5064 51.8592 69.5192 52.7207 69.833C52.9811 69.9493 53.2163 70.0955 53.4816 70.2669C54.4369 71.0174 55.125 72.2084 55.663 73.2734Z" fill="white"/>
<path d="M93.9285 212.556L94.0968 213.209C96.0189 220.241 98.002 227.019 100.001 233.656C99.4391 233.594 98.8728 233.476 98.3064 233.359C96.3571 226.968 94.4737 220.377 92.601 213.59L92.4027 212.912C89.3819 201.582 87.0134 198.981 85.5497 198.776C84.4819 198.647 83.4089 200.047 82.7629 201.244C81.5823 203.321 81.8043 205.86 82.1706 208.775L85.0061 230.38C84.465 230.233 83.9238 230.085 83.3527 229.913L80.6051 208.995C80.2823 206.577 79.8474 203.195 81.3912 200.502C82.7433 198.159 84.2315 197.056 85.7756 197.227C89.4902 197.736 92.0761 205.684 93.9285 212.556Z" fill="white"/>
</g>
</g>
<defs>
<clipPath id="clip0">
<rect width="235" height="235" fill="white"/>
</clipPath>
</defs>
</svg>
