<svg width="215" height="215" viewBox="0 0 215 215" fill="none" xmlns="http://www.w3.org/2000/svg">
<path d="M44.029 94.2246C76.6248 47.6729 151.493 43.859 151.493 43.859C151.493 43.859 173.516 115.517 140.915 162.065C108.318 208.612 33.4542 212.425 33.4542 212.425C33.4542 212.425 11.4377 140.775 44.029 94.2246Z" fill="#097E78"/>
<path d="M179.672 0.997936L32.2274 211.571C31.7547 212.246 31.9194 213.179 32.5952 213.657C33.2703 214.129 34.2039 213.965 34.6811 213.289L182.125 2.7115C182.598 2.03645 182.433 1.10279 181.757 0.625563C181.078 0.153691 180.148 0.317529 179.672 0.997936Z" fill="#055F5B"/>
<path d="M26.6757 174.888C25.8604 175.031 25.3165 175.808 25.4602 176.623C25.604 177.439 26.3808 177.983 27.196 177.839L63.445 171.447C64.2603 171.303 64.8042 170.527 64.6605 169.711C64.5167 168.896 63.7399 168.352 62.9246 168.496L26.6757 174.888Z" fill="#055F5B"/>
<path d="M26.6009 143.484C25.7857 143.628 25.2418 144.405 25.3855 145.22C25.5293 146.035 26.3061 146.579 27.1213 146.436L88.5474 135.604C89.3627 135.461 89.9066 134.684 89.7628 133.869C89.6191 133.053 88.8423 132.509 88.027 132.653L26.6009 143.484Z" fill="#055F5B"/>
<path d="M34.1401 110.743C33.3249 110.887 32.7809 111.663 32.9247 112.479C33.0684 113.294 33.8453 113.838 34.6605 113.694L113.644 99.7672C114.459 99.6235 115.003 98.8466 114.859 98.0314C114.716 97.2161 113.939 96.6722 113.124 96.8159L34.1401 110.743Z" fill="#055F5B"/>
<path d="M60.8314 74.6149C60.0162 74.7587 59.4722 75.5355 59.616 76.3508C59.7597 77.166 60.5366 77.71 61.3518 77.5662L138.741 63.9204C139.557 63.7766 140.1 62.9998 139.957 62.1845C139.813 61.3693 139.036 60.8253 138.221 60.9691L60.8314 74.6149Z" fill="#055F5B"/>
<path d="M61.7092 170.231L68.1008 206.48C68.2446 207.296 69.0206 207.835 69.8359 207.691C70.6511 207.548 71.1951 206.771 71.0521 205.96L64.6605 169.711C64.5167 168.896 63.7399 168.352 62.9246 168.496C62.1094 168.639 61.5654 169.416 61.7092 170.231Z" fill="#055F5B"/>
<path d="M86.8104 134.388L97.6414 195.814C97.7852 196.63 98.562 197.174 99.3773 197.03C100.193 196.886 100.736 196.109 100.593 195.294L89.7617 133.868C89.6179 133.053 88.8411 132.509 88.0258 132.653C87.2106 132.796 86.6666 133.573 86.8104 134.388Z" fill="#055F5B"/>
<path d="M111.902 98.5193L124.285 178.841C124.411 179.66 125.177 180.22 125.995 180.094C126.814 179.969 127.374 179.203 127.248 178.384L114.865 98.0627C114.739 97.2443 113.974 96.6842 113.155 96.8098C112.337 96.9353 111.777 97.7009 111.902 98.5193Z" fill="#055F5B"/>
<path d="M137.005 62.7043L150.651 140.094C150.795 140.909 151.572 141.453 152.387 141.309C153.202 141.165 153.746 140.389 153.603 139.573L139.957 62.1839C139.813 61.3686 139.036 60.8247 138.221 60.9684C137.406 61.1122 136.862 61.889 137.005 62.7043Z" fill="#055F5B"/>
</svg>
