<svg width="351" height="351" viewBox="0 0 351 351" fill="none" xmlns="http://www.w3.org/2000/svg">
<g clip-path="url(#clip0)">
<g opacity="0.22">
<path d="M0.101975 165.151C0.0245483 174.714 0.906384 184.319 5.08462 192.181C8.86803 199.329 14.3489 205.457 19.7256 211.344C25.0198 217.238 30.4934 223.283 34.4041 230.462C39.3648 239.668 41.4214 249.876 43.4491 259.755C44.997 267.473 46.5737 275.521 49.6293 282.899C50.5736 285.143 51.5178 287.388 52.4694 289.714C54.8786 295.404 57.2574 301.221 59.3511 307.105C58.1331 306.006 56.915 304.908 55.697 303.809C54.063 299.381 52.1817 294.975 50.3524 290.689C49.4008 288.362 48.4117 286.08 47.4674 283.836C44.3525 276.255 42.731 268.17 41.1687 260.287C39.2379 250.566 37.1958 240.523 32.3913 231.677C28.6295 224.776 23.2456 218.806 18.0034 213.032C12.5746 207.025 6.95928 200.784 3.02691 193.358C1.83519 191.135 0.914076 188.681 0.157923 186.213C-0.297665 179.106 -0.326452 172.127 0.101975 165.151Z" fill="white"/>
<path d="M157.949 58.1797C169.617 67.5886 176.339 83.6216 175.957 101.107C175.778 109.516 173.929 117.822 172.178 125.829C171.668 128.076 171.203 130.36 170.738 132.645C165.815 156.636 164.84 181.113 167.755 205.415C169.067 216.603 171.814 221.889 175.612 229.202C177.161 232.183 178.918 235.644 180.83 239.923C182.846 244.442 185.034 249.029 187.125 253.459C190.579 260.636 194.181 268.091 197.049 275.694C204.739 295.673 208.368 317.212 211.813 338.061C212.275 340.971 212.782 343.918 213.29 346.865C212.517 347.058 211.744 347.25 210.964 347.36C210.45 344.33 209.943 341.382 209.436 338.435C206.005 317.751 202.428 296.332 194.842 276.593C191.944 269.118 188.387 261.701 184.933 254.523C182.842 250.094 180.571 245.514 178.593 240.95C176.726 236.709 174.976 233.33 173.427 230.349C169.525 222.795 166.763 217.344 165.333 205.752C162.396 181.202 163.432 156.47 168.333 132.232C168.798 129.947 169.308 127.701 169.811 125.371C171.569 117.447 173.344 109.231 173.544 101.069C173.945 84.288 167.536 68.9757 156.406 60.0184C154.664 58.6333 152.772 57.4276 150.917 56.1771L149.377 55.1899C138.002 47.7084 127.682 38.514 117.803 29.6134C112.662 24.9938 107.341 20.2237 101.885 15.7979C102.643 15.4407 103.439 15.0387 104.287 14.7567C109.481 19.0392 114.488 23.5459 119.398 27.8949C129.269 36.713 139.5 45.8322 150.747 53.2833L152.288 54.2704C154.18 55.4761 156.117 56.7194 157.949 58.1797Z" fill="white"/>
<path d="M20.8181 91.826C22.022 103.688 21.9761 115.036 20.5832 125.712C19.8888 131.548 18.3856 137.165 16.9129 142.654C13.4736 155.587 10.1791 167.801 17.4856 181.497C21.217 188.525 27.0437 194.332 32.6838 199.905C37.5992 204.794 42.6491 209.795 46.4516 215.737C50.8803 222.663 53.522 230.534 56.0596 238.166C58.3672 245.069 61.1016 252.102 63.9995 259.577C72.1435 280.472 80.5102 302.012 80.2291 323.021C79.4363 322.508 78.6435 321.996 77.8884 321.439C77.7917 301.336 69.6997 280.561 61.8304 260.432C58.9325 252.956 56.1533 245.886 53.8384 238.9C51.3153 231.434 48.7706 223.72 44.4836 216.989C40.7852 211.288 35.825 206.362 31.0441 201.586C25.2695 195.9 19.3082 189.981 15.3831 182.637C7.71215 168.1 11.0978 155.504 14.6211 142.107C16.0635 136.745 17.529 131.173 18.2378 125.501C19.4091 116.091 19.5849 106.228 18.7582 95.829C19.5052 94.3924 20.1392 93.0904 20.8181 91.826Z" fill="white"/>
<path d="M146.978 72.8935C154.916 88.1136 158.256 104.442 157.115 122.742C156.45 133.189 155.096 143.363 153.714 153.207C151.247 171.083 148.903 187.992 150.744 206.654C152.258 222.062 159.873 233.114 167.914 244.752C170.338 248.238 172.814 251.844 175.185 255.667C186.867 274.258 192.175 295.982 195.476 312.813C196.287 316.856 197.06 320.944 197.878 325.069C199.395 332.914 200.927 340.925 202.617 348.838C201.837 348.948 201.057 349.058 200.277 349.167C198.588 341.254 197.063 333.326 195.545 325.481C194.772 321.393 193.999 317.306 193.188 313.263C189.902 296.597 184.705 275.195 173.217 256.92C170.854 253.179 168.377 249.573 165.998 246.124C157.764 234.171 150.007 222.924 148.442 206.939C146.617 187.984 148.909 170.955 151.443 152.907C152.788 143.108 154.194 133.054 154.822 122.652C155.917 104.772 152.695 88.8481 144.958 74.0259C136.617 58.0099 124.823 50.482 109.909 41.0247L106.611 38.9447C99.4828 34.4158 92.6112 29.4905 85.9958 24.1688C86.702 23.6915 87.4154 23.2967 88.1288 22.9018C94.4679 27.9153 101.026 32.5772 107.809 36.97L111.107 39.05C126.328 48.6883 138.34 56.3218 146.978 72.8935Z" fill="white"/>
<path d="M17.8256 238.103C21.0363 243.931 21.2125 251.644 21.1269 259.214C20.2924 257.75 19.4955 256.24 18.7811 254.724C18.6956 248.997 18.1297 243.479 15.8055 239.236C14.3231 236.54 11.9463 234.546 9.40457 232.566C8.95923 231.275 8.50668 229.902 8.09897 228.566C8.59226 228.98 9.16802 229.387 9.66131 229.801C12.7339 232.15 15.8963 234.574 17.8256 238.103Z" fill="white"/>
<path d="M185.836 50.1719C198.867 62.3287 204.903 81.4549 201.194 98.8991C200.081 104.232 198.16 109.345 196.225 114.293C195.68 115.67 195.181 117.085 194.636 118.462C183.031 150.143 180.627 184.884 187.639 218.967C190.737 233.946 197.246 248.501 203.502 262.539C207.377 271.217 211.357 280.135 214.512 289.125C219.486 303.233 220.762 318.288 221.949 332.811C222.281 336.605 222.583 340.526 222.959 344.357C222.187 344.55 221.459 344.779 220.686 344.972C220.25 340.938 219.904 336.979 219.558 333.02C218.34 318.625 217.123 303.772 212.253 289.904C209.15 281.034 205.171 272.116 201.34 263.476C195.032 249.318 188.471 234.642 185.314 219.461C178.183 184.973 180.634 149.813 192.45 117.698C192.95 116.283 193.494 114.906 194.039 113.528C195.899 108.67 197.782 103.602 198.872 98.4789C202.361 81.8435 196.607 63.5652 184.159 51.8976C177.374 45.5934 169.017 41.2552 160.883 37.1051C158.01 35.6113 155.01 34.0871 152.129 32.5107C146.189 29.2076 140.851 25.1869 135.565 21.2864C132.275 18.8317 128.896 16.3019 125.456 14.0266C122.988 12.4142 120.685 10.7873 118.382 9.1605C119.312 8.87133 120.243 8.58219 121.128 8.2554C122.945 9.55077 124.8 10.8013 126.737 12.0446C130.267 14.3952 133.646 16.9251 136.936 19.3797C142.132 23.205 147.47 27.2257 153.193 30.4232C156.036 32.0443 158.992 33.5309 161.902 34.9799C170.253 39.2357 178.783 43.642 185.836 50.1719Z" fill="white"/>
<path d="M226.775 79.2505C227.415 91.7849 223.779 105.317 216.307 118.228C215.01 120.503 213.774 122.522 212.575 124.497C206.945 133.757 202.882 140.512 202.105 153.004C201.266 166.208 201.325 179.707 202.322 193C204.406 221.572 211.507 253.819 222.386 283.658C223.983 288.13 225.834 292.664 227.588 297.04C231.356 306.392 235.281 316.104 237.533 326.17C238.478 330.326 239.183 334.586 239.679 338.822C238.958 339.135 238.192 339.41 237.427 339.684C236.917 335.283 236.243 330.896 235.29 326.657C233.015 316.801 229.18 307.164 225.464 297.932C223.71 293.556 221.859 289.022 220.217 284.512C209.316 254.426 202.118 222.022 200.012 193.202C199.046 179.782 198.98 166.2 199.812 152.914C200.621 139.837 204.797 132.948 210.608 123.381C211.769 121.451 213.042 119.387 214.302 117.157C221.555 104.597 225.069 91.5747 224.428 79.4974C223.711 65.5985 217.33 52.9846 207.296 45.635C201.435 41.3278 194.36 38.8302 187.495 36.3559C186.207 35.8868 184.92 35.4178 183.632 34.9487C164.573 27.9733 146.498 18.003 130.169 5.67764C131.145 5.4261 132.075 5.13696 133.095 4.92306C148.871 16.6319 166.236 26.0826 184.479 32.7554C185.767 33.2245 187.054 33.6935 188.342 34.1626C195.334 36.6673 202.626 39.2705 208.75 43.7211C219.269 51.4021 226.083 64.6846 226.775 79.2505Z" fill="white"/>
<path d="M237.086 47.0178C242.647 55.9637 243.225 66.8415 243.739 76.5198C244.537 90.8687 244.573 104.578 236.847 115.06C234.807 117.857 232.31 120.194 229.852 122.487C227.626 124.593 225.325 126.789 223.42 129.241C213.693 142.018 216.044 156.064 218.594 170.966C218.991 173.134 219.344 175.264 219.659 177.439C220.274 181.623 221.055 185.793 221.752 189.97C223.848 202.045 226.024 214.57 225.93 226.794L225.95 227.499C225.833 239.934 225.714 252.825 227.921 265.223C229.701 275.123 233.967 283.517 238.442 292.392C239.544 294.539 240.601 296.649 241.665 298.841C246.98 309.72 250.606 321.245 253.393 332.678C252.68 333.073 251.959 333.385 251.201 333.742C248.452 322.265 244.826 310.74 239.556 299.898C238.536 297.744 237.434 295.596 236.377 293.487C231.805 284.454 227.442 275.902 225.633 265.672C223.367 253.072 223.479 240.098 223.626 227.536L223.606 226.832C223.722 214.854 221.553 202.412 219.465 190.42C218.722 186.205 217.979 181.99 217.364 177.806C217.011 175.676 216.696 173.501 216.299 171.333C213.808 156.634 211.229 141.402 221.634 127.818C223.606 125.194 226.027 122.946 228.328 120.75C230.667 118.51 233.126 116.217 235.016 113.6C242.298 103.738 242.215 90.4486 241.498 76.5497C241.012 67.2013 240.419 56.6157 235.193 48.1807C228.223 36.9064 214.823 31.929 201.85 27.0804L199.185 26.0669C181.654 19.4565 164.817 11.2894 148.884 1.58876C150.114 1.39805 151.344 1.20726 152.536 1.06139C167.617 10.0471 183.533 17.6715 200.032 23.8738L202.652 24.8495C215.857 29.9687 229.639 35.0374 237.086 47.0178Z" fill="white"/>
<path d="M83.9682 76.0376C93.5814 88.0779 101.765 99.4537 103.872 116.888C105.454 130.212 105.662 143.99 105.834 157.354C106.067 174.744 106.306 192.674 109.749 209.701C113.693 229.135 123.083 247.178 132.22 264.703C135.259 270.462 138.402 276.462 141.252 282.445C151.442 303.452 157.88 325.743 164.17 347.298C164.474 348.394 164.822 349.527 165.133 350.705C164.339 350.649 163.462 350.601 162.668 350.546C162.386 349.698 162.186 348.843 161.904 347.995C155.666 326.56 149.28 304.389 139.142 283.503C136.254 277.564 133.156 271.602 130.118 265.843C120.928 248.197 111.441 229.996 107.386 210.24C103.929 193.048 103.675 174.954 103.435 157.481C103.27 144.199 103.062 130.422 101.413 117.269C99.356 100.412 91.4036 89.3072 82.029 77.62C76.5729 70.8257 65.6572 60.5199 59.4989 61.8482C58.4788 62.0621 57.6525 62.5915 56.9 63.4884C56.1097 64.4301 55.4829 65.8146 54.9747 67.6043C54.1999 70.6223 54.7504 74.0646 55.1751 77.0192L62.0724 120.711C63.1141 127.393 63.046 134.213 63.0387 140.779C62.9562 147.435 62.9329 154.293 64.0122 160.93C66.3687 175.517 70.9335 188.747 77.753 200.2C89.2671 219.72 105.169 249.493 110.379 282.446C112.44 295.562 112.792 309.077 113.182 322.091C113.323 327.023 113.419 331.918 113.552 336.768C113.601 337.802 113.605 338.799 113.609 339.796C112.793 339.494 112.022 339.229 111.244 338.881C111.224 338.177 111.204 337.472 111.184 336.767C111.05 331.917 110.954 327.023 110.859 322.128C110.513 309.152 110.086 295.726 108.077 282.73C102.94 250.145 87.1877 220.65 75.688 201.295C68.8021 189.556 64.0507 176.094 61.6653 161.177C60.5644 154.293 60.6629 147.345 60.7006 140.651C60.7527 134.123 60.7904 127.43 59.8081 120.95L52.9106 77.2589C52.3818 74.064 51.8097 70.3744 52.7061 66.8471C53.8299 62.5935 55.9371 60.0822 58.9974 59.4405C68.8685 57.3303 83.8264 75.8423 83.9682 76.0376Z" fill="white"/>
<path d="M40.8503 62.3995C46.5227 84.9649 49.6745 108.166 50.1351 131.479C50.1979 135.047 50.1855 138.704 50.1051 142.534C49.956 155.553 49.7605 168.992 54.2113 180.445C56.9458 187.477 61.8101 194.157 66.6151 200.635C70.0171 205.323 73.5985 210.162 76.3624 215.156C83.0442 227.411 88.7203 240.045 93.152 252.705C99.6848 271.331 102.737 292.921 102.145 315.12C101.958 321.535 101.696 328.041 101.427 334.463C100.649 334.116 99.9078 333.723 99.1295 333.376C99.3898 327.328 99.5982 321.16 99.8137 315.075C100.473 293.16 97.4044 271.863 90.9758 253.477C86.596 240.938 81.0168 228.461 74.3422 216.289C71.6753 211.453 68.1837 206.689 64.7817 202C59.9246 195.403 54.9257 188.61 52.1247 181.292C47.5105 169.396 47.6843 155.71 47.8566 142.482C47.8995 138.697 47.9567 135.077 47.8939 131.508C47.4158 108.946 44.4563 86.5169 39.0514 64.6345C39.571 63.9242 40.2106 63.1619 40.8503 62.3995Z" fill="white"/>
<path d="M179.196 350.887C176.765 335.933 172.961 317.152 165.212 299.339C159.499 286.292 152.42 274.238 145.541 262.582C131.008 238.008 117.341 214.771 117.235 184.114C117.202 176.139 117.687 167.911 118.204 159.098C119.986 128.65 121.885 97.1534 102.049 73.7079C95.7481 66.2811 88.2967 59.9521 81.1143 53.849C76.2639 49.7026 71.1964 45.4505 66.6022 40.9077C66.012 40.336 65.4146 39.6819 64.7651 38.9077C64.1862 39.4154 63.5625 39.8855 62.9837 40.3932C63.678 41.205 64.3274 41.9793 64.9625 42.5886C69.6464 47.2067 74.6762 51.5036 79.6091 55.6428C86.7467 61.7083 94.1533 67.9996 100.275 75.2759C119.551 98.0224 117.692 129.017 115.911 159.008C115.394 167.82 114.871 176.094 114.949 184.106C115.068 215.385 128.922 238.855 143.566 263.752C150.437 275.326 157.472 287.342 163.132 300.269C170.719 317.639 174.494 336.09 176.872 350.924L179.196 350.887Z" fill="white"/>
<path d="M31.5687 74.5555C34.4335 87.3524 36.4271 100.641 37.4223 114.391C38.0758 122.81 37.6211 130.911 37.22 138.675C36.277 155.919 35.3747 172.204 46.3874 189.315C49.6084 194.311 53.3099 199.098 56.8769 203.772C60.8098 208.83 64.8396 214.045 68.2761 219.604C88.7622 252.383 92.5747 290.735 90.6155 329.135C89.8748 328.742 89.0892 328.313 88.3413 327.838C90.118 290.202 86.2576 252.727 66.3009 220.774C62.9164 215.336 58.9314 210.158 55.0057 205.182C51.394 200.471 47.6477 195.646 44.3369 190.575C32.9366 172.832 33.81 156.218 34.7994 138.555C35.2453 130.828 35.6697 122.855 35.0306 114.6C34.0699 101.72 32.3133 89.2416 29.6784 77.1725C30.3485 76.2828 30.9362 75.4004 31.5687 74.5555Z" fill="white"/>
<path d="M187.18 350.479C186.651 347.285 186.212 344.165 185.728 341.008C183.119 323.535 180.377 305.491 174.003 288.68C171.886 283.006 169.143 276.349 165.123 270.301C162.528 266.29 159.333 262.539 156.235 258.946C132.807 231.493 123.591 197.395 128.756 157.635C129.356 153.094 130.106 148.375 130.878 143.903C133.197 130.029 135.516 115.698 133.142 101.861C128.378 74.4793 107.594 58.7208 85.5999 41.9465C81.503 38.8145 77.3613 35.6449 73.2949 32.3856C74.0011 31.9082 74.6248 31.4381 75.2934 31.0057C79.1356 34.0768 83.0979 37.0959 87.0154 40.0774C108.427 56.3626 130.556 73.2499 135.475 101.449C137.967 115.692 135.542 130.239 133.238 144.278C132.466 148.75 131.708 153.387 131.108 157.927C126.006 196.976 135.089 230.504 158.054 257.415C161.159 261.091 164.355 264.842 167.084 268.966C171.245 275.209 174.04 281.987 176.209 287.781C182.688 304.832 185.444 323.04 188.023 340.641C188.514 343.881 188.96 347.083 189.534 350.315L187.18 350.479Z" fill="white"/>
<path d="M244.853 29.385C249.275 33.8598 251.453 41.1902 253.388 47.6278C253.914 49.3685 254.396 51.0715 254.945 52.6024C257.572 60.3091 260.405 69.4107 261.451 79.0009C263.015 93.0751 260.288 106.07 253.712 115.455C250.76 119.702 247.187 123.505 243.726 127.174C234.225 137.313 226.018 146.092 231.731 161.05C243.766 192.699 249 227.352 246.847 261.157L246.742 263.285C246.349 268.763 246.008 274.361 247.054 279.671C248.086 284.817 250.513 289.757 252.835 294.457L253.848 296.529C258.418 306.019 262.357 315.896 265.485 326.01C264.772 326.405 264.103 326.838 263.39 327.233C260.254 317.036 256.345 307.031 251.731 297.504L250.718 295.432C248.299 290.574 245.82 285.513 244.759 280.038C243.601 274.405 244.011 268.635 244.352 263.037L244.494 260.864C246.594 227.397 241.396 193.155 229.51 161.784C223.299 145.416 232.424 135.725 242.001 125.496C245.386 121.917 248.921 118.159 251.761 114.046C257.998 105.066 260.573 92.707 259.097 79.1653C258.072 69.8226 255.292 60.8411 252.679 53.2994C252.13 51.7685 251.603 50.0277 251.115 48.2421C249.247 42.0896 247.134 35.0443 243.123 30.9907C232.322 20.0932 214.783 13.4002 200.642 8.03044L199.265 7.48612C195.268 5.96598 191.06 4.42267 186.643 2.85613C183.769 1.81951 180.849 0.745208 177.885 -0.366675C180.381 -0.335719 182.876 -0.304718 185.387 -0.108814C186.075 0.163357 186.764 0.435503 187.49 0.66283C191.952 2.26699 196.159 3.81031 200.202 5.36808L201.579 5.9124C215.854 11.395 233.692 18.1865 244.853 29.385Z" fill="white"/>
<path d="M261.941 22.4048C263.642 24.7491 265.192 27.2729 266.6 30.0585C272.557 41.6291 275.533 54.7486 277.855 66.097C280.23 77.5655 282.422 89.7979 280.815 101.823C279.084 114.814 272.895 125.286 262.94 132.141L262.663 132.29C253.099 138.861 246.239 143.575 245.2 155.924C244.418 165.507 247.437 174.842 250.808 184.395L252.679 189.633C259.748 209.168 267.003 229.392 264.961 250.223C264.543 253.999 263.916 257.752 263.199 261.43C262.214 266.793 261.205 272.366 261.231 277.891C261.318 292.177 268.094 305.504 274.668 318.434C274.869 318.832 275.115 319.267 275.278 319.71C274.655 320.18 273.986 320.613 273.318 321.045C273.064 320.527 272.811 320.009 272.558 319.491C265.842 306.366 258.917 292.761 258.863 277.89C258.822 272.201 259.861 266.5 260.839 261.054C261.481 257.466 262.191 253.706 262.533 250.02C264.543 229.774 257.31 209.797 250.383 190.457L248.511 185.219C244.992 175.388 241.907 165.769 242.818 155.758C243.927 142.322 251.575 137.124 261.252 130.419L261.485 130.232C270.891 123.758 276.756 113.854 278.38 101.537C279.934 89.8495 277.763 77.8645 275.448 66.5985C273.095 55.3774 270.14 42.5053 264.37 31.1677C262.114 26.7527 259.496 22.9511 256.629 19.6284C256.718 19.7037 256.846 19.7342 256.935 19.8094L261.941 22.4048Z" fill="white"/>
<path d="M281.566 35.356C291.198 57.1179 295.765 76.539 295.471 94.5569C295.115 113.287 289.724 127.18 278.957 137.097C277.378 138.523 275.672 139.919 274.003 141.27C269.306 145.047 264.924 148.63 262.762 153.847C260.434 159.536 261.499 166.008 262.833 172.706C266.181 189.117 270.202 205.635 274.689 221.781L274.979 222.711C277.023 229.929 279.081 237.311 278.793 244.94C278.678 247.901 278.219 250.725 277.76 253.549C277.408 255.699 277.063 257.932 276.883 260.15C275.418 276.649 283.43 292.237 291.436 307.285C290.857 307.793 290.241 308.345 289.617 308.815C281.32 293.294 272.98 277.278 274.537 259.939C274.755 257.676 275.093 255.361 275.482 253.167C275.949 250.425 276.408 247.601 276.5 244.85C276.779 237.596 274.735 230.378 272.75 223.363L272.499 222.388C267.884 206.212 263.9 189.649 260.546 173.155C259.1 166.134 258.044 159.288 260.569 153C262.935 147.267 267.783 143.31 272.518 139.489C274.149 138.183 275.855 136.787 277.396 135.405C287.667 125.989 292.816 112.657 293.147 94.5939C293.466 75.909 288.408 55.6168 277.752 32.6147L277.842 32.69L281.566 35.356Z" fill="white"/>
<path d="M294.168 45.9298L298.158 49.736C303.449 63.1932 308.116 77.1205 309.393 91.7184C311.264 112.622 305.219 131.392 292.909 143.148C291.758 144.246 290.563 145.307 289.323 146.329C286.346 148.875 283.527 151.324 281.605 154.525C276.343 163.255 279.532 171.203 282.884 179.594C283.999 182.364 285.166 185.254 286.048 188.21C290.412 202.953 292.362 218.115 291.823 233.329C291.701 236.207 291.534 239.047 291.329 241.932C290.949 248.032 290.508 254.387 291.004 260.535C292.063 273.116 296.887 285.035 302.38 296.521C301.853 297.149 301.199 297.747 300.627 298.337C294.926 286.37 289.729 273.985 288.65 260.699C288.139 254.386 288.573 247.949 288.947 241.767C289.114 238.927 289.281 236.086 289.448 233.246C290.008 218.28 288.08 203.365 283.737 188.869C282.907 186.033 281.747 183.226 280.632 180.456C277.183 171.907 273.578 162.998 279.465 153.341C281.568 149.833 284.658 147.153 287.635 144.607C288.792 143.592 290.033 142.569 291.146 141.516C302.997 130.216 308.732 112.179 306.926 92.0173C305.684 75.9204 300.07 60.6633 294.168 45.9298Z" fill="white"/>
<path d="M313.197 66.3293L317.047 71.3943C318.912 78.4613 320.447 85.5572 321.284 92.7556C323.806 113.976 318.896 133.852 307.721 147.171C306.561 148.644 305.267 150.004 304.018 151.401C298.526 157.491 292.883 163.761 293.952 171.23C294.436 174.387 296.15 177.353 297.857 180.237L298.632 181.499C308.915 199.298 312.941 221.093 309.605 241.372C309.222 243.649 308.764 246.016 308.254 248.263C307.119 253.806 305.96 259.559 306.203 265.189C306.501 272.393 309.056 279.275 312.152 285.694C311.626 286.321 311.061 286.994 310.497 287.667C307.065 280.737 304.167 273.262 303.842 265.27C303.57 259.311 304.797 253.386 305.963 247.716C306.428 245.431 306.893 243.147 307.275 240.87C310.535 221.138 306.68 199.868 296.605 182.549L295.874 181.325C294.071 178.283 292.215 175.121 291.688 171.469C290.443 162.935 296.507 156.255 302.338 149.761C303.587 148.364 304.798 147.011 305.964 145.621C316.726 132.796 321.446 113.601 318.975 92.9576C317.904 84.0344 315.88 75.153 313.197 66.3293Z" fill="white"/>
<path d="M327.65 87.6278L330.972 93.7779C331.492 97.3475 331.93 100.924 332.323 104.463C333.653 116.813 329.08 132.463 318.853 150.934C318.242 152.026 317.632 153.119 316.946 154.301C314.232 158.901 311.156 164.115 310.622 168.94C310.089 173.765 312.122 179.903 313.925 185.314C314.548 187.212 315.164 189.028 315.6 190.694L316.2 192.802C320.244 207.199 324.413 222.084 322.046 237.292C321.67 239.652 321.13 242.026 320.665 244.31C319.889 247.786 319.089 251.471 318.86 255.023C318.547 260.951 319.795 266.659 321.935 272.123C321.423 272.915 320.91 273.708 320.353 274.463C317.811 268.204 316.206 261.737 316.559 254.85C316.767 251.051 317.604 247.321 318.411 243.718C318.921 241.471 319.423 239.142 319.723 236.872C321.97 222.173 317.904 207.529 313.927 193.416L313.327 191.308C312.853 189.687 312.282 187.909 311.621 186.056C309.759 180.443 307.622 174.064 308.232 168.692C308.805 163.365 311.986 157.934 314.851 153.154C315.499 152.017 316.192 150.918 316.766 149.87C326.781 131.833 331.232 116.692 329.946 104.838C329.448 99.1468 328.658 93.4402 327.65 87.6278Z" fill="white"/>
<path d="M334.06 250.659C333.478 245.433 333.577 240.397 333.745 235.188C333.825 231.358 333.936 227.401 333.747 223.345C333.024 208.907 330.613 195.114 326.541 182.298C326.304 181.488 325.977 180.603 325.695 179.755C323.736 173.984 321.585 167.441 323.884 161.422C325.275 157.852 327.588 154.367 329.826 150.971C331.363 148.593 332.832 146.387 334.009 144.165C338.279 135.979 340.639 127.338 341.637 118.316C342.201 120.012 342.765 121.708 343.291 123.449C342.036 130.955 339.725 138.263 336.096 145.229C334.889 147.578 333.307 149.919 331.808 152.252C329.645 155.558 327.407 158.953 326.122 162.307C324.125 167.509 326.158 173.648 327.999 179.013C328.326 179.899 328.608 180.746 328.89 181.594C333.058 194.568 335.491 208.608 336.229 223.211C336.425 227.349 336.321 231.389 336.203 235.264C336.115 239.011 336.013 242.594 336.211 246.275L334.06 250.659Z" fill="white"/>
<path d="M348.03 207.511C346.689 200.731 344.98 194.024 342.866 187.436L342.117 185.05C340.189 179.152 338.245 173.089 338.394 166.718C338.634 158.054 341.974 150.158 345.215 142.561C345.797 141.139 346.379 139.717 346.998 138.25C347.324 139.593 347.566 140.943 347.854 142.33C347.718 142.675 347.544 143.064 347.408 143.408C344.235 150.833 341.001 158.512 340.763 166.719C340.616 172.632 342.507 178.575 344.376 184.27L345.125 186.656C346.668 191.466 347.963 196.298 349.101 201.226L348.03 207.511Z" fill="white"/>
<path d="M79.3401 101.956C77.4015 101.17 75.4149 101.261 73.9128 102.14C70.9912 103.891 70.6561 107.66 70.6468 110.404C70.6688 121.579 71.98 132.767 74.5892 143.592C76.555 151.813 81.0797 156.986 85.7735 156.492C87.3781 156.31 88.7225 155.527 89.8137 154.227C91.7704 151.895 92.9231 147.971 93.053 142.807C93.3336 130.816 90.5409 118.844 84.9931 108.151C84.0473 106.364 82.87 104.306 80.9561 102.853C80.47 102.522 79.9014 102.198 79.3401 101.956ZM82.9282 109.246C88.3198 119.578 90.9939 131.145 90.7221 142.762C90.5499 149.342 88.4957 153.885 85.5338 154.227C82.6544 154.562 78.7545 150.831 76.9144 143.097C74.3197 132.438 72.9853 121.46 72.9777 110.449C72.9839 108.62 73.1494 106.237 74.3159 104.847C74.5417 104.578 74.8123 104.347 75.1277 104.153C76.0365 103.616 77.2432 103.635 78.5308 104.104C78.92 104.278 79.2715 104.497 79.6679 104.753C81.0957 105.874 82.1241 107.654 82.9282 109.246Z" fill="white"/>
<path d="M140.116 317.407L140.367 318.383C143.24 328.894 146.204 339.022 149.191 348.941C148.351 348.849 147.505 348.673 146.659 348.498C143.745 338.947 140.931 329.096 138.132 318.952L137.835 317.939C133.321 301.007 129.781 297.12 127.593 296.813C125.997 296.62 124.394 298.713 123.428 300.501C121.664 303.606 121.996 307.4 122.543 311.756L126.781 344.046C125.972 343.826 125.163 343.606 124.31 343.348L120.204 312.086C119.721 308.471 119.071 303.417 121.378 299.392C123.399 295.891 125.623 294.242 127.931 294.498C133.482 295.259 137.347 307.137 140.116 317.407Z" fill="white"/>
</g>
</g>
<defs>
<clipPath id="clip0">
<rect width="351" height="351" fill="white"/>
</clipPath>
</defs>
</svg>
