<svg width="245" height="245" viewBox="0 0 245 245" fill="none" xmlns="http://www.w3.org/2000/svg">
<g clip-path="url(#clip0)">
<g opacity="0.22">
<path d="M0.296681 115.86C0.242669 122.531 0.857829 129.231 3.77253 134.716C6.41179 139.702 10.2352 143.977 13.9859 148.084C17.6791 152.196 21.4974 156.412 24.2255 161.42C27.686 167.842 29.1207 174.964 30.5352 181.855C31.615 187.239 32.7149 192.853 34.8464 198C35.5052 199.565 36.1639 201.131 36.8276 202.754C38.5083 206.723 40.1677 210.781 41.6283 214.885C40.7786 214.119 39.9289 213.353 39.0792 212.587C37.9394 209.498 36.627 206.424 35.3508 203.434C34.6871 201.811 33.997 200.219 33.3383 198.653C31.1654 193.365 30.0342 187.725 28.9444 182.226C27.5975 175.445 26.1729 168.439 22.8214 162.268C20.1972 157.454 16.4414 153.289 12.7845 149.261C8.99748 145.071 5.08027 140.718 2.33709 135.537C1.50576 133.987 0.863195 132.275 0.33571 130.553C0.0178965 125.595 -0.00218491 120.727 0.296681 115.86Z" fill="white"/>
<path d="M110.411 41.2381C118.551 47.8016 123.239 58.9861 122.973 71.1837C122.849 77.0499 121.558 82.8442 120.337 88.4295C119.981 89.9969 119.657 91.5906 119.332 93.1842C115.898 109.92 115.218 126.995 117.252 143.948C118.166 151.752 120.083 155.44 122.733 160.542C123.813 162.621 125.039 165.036 126.373 168.021C127.779 171.173 129.305 174.373 130.764 177.463C133.173 182.47 135.686 187.67 137.686 192.974C143.051 206.911 145.583 221.936 147.986 236.48C148.308 238.51 148.662 240.566 149.016 242.622C148.477 242.756 147.938 242.89 147.394 242.967C147.035 240.853 146.681 238.797 146.327 236.741C143.935 222.312 141.439 207.371 136.147 193.601C134.126 188.387 131.644 183.212 129.235 178.205C127.776 175.115 126.192 171.921 124.812 168.737C123.51 165.778 122.289 163.421 121.208 161.342C118.486 156.072 116.559 152.27 115.562 144.183C113.513 127.057 114.236 109.805 117.655 92.8962C117.979 91.3025 118.335 89.7351 118.686 88.1102C119.912 82.5824 121.15 76.8507 121.29 71.1571C121.57 59.4509 117.099 48.7692 109.335 42.5207C108.119 41.5545 106.799 40.7134 105.506 39.8411L104.431 39.1524C96.4958 33.9334 89.2967 27.5195 82.4054 21.3105C78.819 18.0879 75.1074 14.7603 71.301 11.6729C71.8299 11.4238 72.3851 11.1433 72.9766 10.9466C76.6004 13.934 80.093 17.0779 83.518 20.1117C90.4043 26.2631 97.5408 32.6245 105.387 37.8223L106.462 38.511C107.782 39.3521 109.133 40.2194 110.411 41.2381Z" fill="white"/>
<path d="M14.7499 64.7093C15.5898 72.984 15.5577 80.9001 14.5861 88.3477C14.1017 92.4193 13.0531 96.3372 12.0257 100.166C9.62651 109.188 7.32832 117.708 12.4253 127.263C15.0282 132.166 19.0929 136.216 23.0274 140.104C26.4563 143.514 29.979 147.003 32.6316 151.148C35.7211 155.98 37.5639 161.471 39.334 166.794C40.9438 171.61 42.8513 176.516 44.8728 181.731C50.554 196.307 56.3906 211.333 56.1945 225.988C55.6414 225.631 55.0884 225.274 54.5616 224.885C54.4942 210.861 48.8493 196.369 43.3597 182.327C41.3382 177.112 39.3994 172.18 37.7846 167.307C36.0245 162.098 34.2493 156.717 31.2588 152.022C28.6788 148.045 25.2186 144.608 21.8835 141.277C17.8552 137.31 13.6967 133.181 10.9586 128.058C5.60739 117.917 7.9692 109.13 10.427 99.7845C11.4332 96.0442 12.4555 92.1574 12.95 88.201C13.767 81.6365 13.8897 74.756 13.313 67.5018C13.8341 66.4996 14.2764 65.5913 14.7499 64.7093Z" fill="white"/>
<path d="M102.758 51.5022C108.295 62.1196 110.625 73.5104 109.829 86.2762C109.365 93.5635 108.421 100.661 107.456 107.528C105.736 119.998 104.101 131.794 105.385 144.812C106.441 155.561 111.753 163.27 117.362 171.389C119.054 173.821 120.781 176.336 122.435 179.003C130.584 191.972 134.287 207.127 136.589 218.868C137.155 221.688 137.694 224.54 138.265 227.417C139.324 232.89 140.392 238.478 141.571 243.998C141.027 244.075 140.483 244.151 139.939 244.228C138.76 238.708 137.696 233.177 136.638 227.705C136.099 224.853 135.559 222.002 134.994 219.181C132.701 207.555 129.076 192.626 121.062 179.877C119.413 177.267 117.686 174.752 116.026 172.346C110.282 164.008 104.87 156.162 103.779 145.011C102.506 131.788 104.105 119.909 105.873 107.319C106.811 100.483 107.792 93.4693 108.229 86.2133C108.993 73.7402 106.746 62.632 101.348 52.2922C95.5302 41.1196 87.3024 35.8682 76.8987 29.2709L74.5978 27.8199C69.6255 24.6606 64.832 21.2247 60.2172 17.5124C60.7098 17.1794 61.2075 16.904 61.7051 16.6286C66.1272 20.1259 70.7018 23.378 75.4338 26.4424L77.7347 27.8934C88.3523 34.6169 96.7316 39.942 102.758 51.5022Z" fill="white"/>
<path d="M12.6626 166.751C14.9024 170.816 15.0253 176.197 14.9656 181.478C14.3834 180.456 13.8275 179.403 13.3292 178.345C13.2695 174.35 12.8747 170.501 11.2534 167.541C10.2193 165.66 8.56127 164.269 6.7882 162.888C6.47753 161.988 6.16184 161.03 5.87742 160.098C6.22154 160.387 6.62318 160.67 6.9673 160.959C9.11074 162.598 11.3167 164.289 12.6626 166.751Z" fill="white"/>
<path d="M129.865 35.6518C138.955 44.1322 143.166 57.4745 140.578 69.6434C139.802 73.3636 138.462 76.9303 137.111 80.3819C136.732 81.3427 136.383 82.3297 136.003 83.2905C127.908 105.391 126.231 129.626 131.122 153.401C133.283 163.85 137.824 174.004 142.188 183.797C144.892 189.85 147.668 196.072 149.869 202.343C153.338 212.185 154.228 222.687 155.057 232.818C155.288 235.464 155.499 238.2 155.761 240.873C155.222 241.007 154.715 241.167 154.176 241.301C153.871 238.487 153.63 235.725 153.388 232.964C152.539 222.922 151.69 212.561 148.293 202.887C146.128 196.699 143.352 190.478 140.68 184.451C136.279 174.574 131.702 164.337 129.5 153.746C124.526 129.688 126.235 105.16 134.479 82.7572C134.827 81.7701 135.207 80.8094 135.586 79.8486C136.884 76.4595 138.198 72.9242 138.958 69.3503C141.392 57.7456 137.378 44.9948 128.694 36.8556C123.962 32.4579 118.132 29.4316 112.458 26.5365C110.453 25.4944 108.36 24.4312 106.351 23.3315C102.207 21.0273 98.4835 18.2225 94.796 15.5016C92.5012 13.7892 90.1438 12.0244 87.7439 10.4372C86.0223 9.31239 84.4157 8.17751 82.8091 7.04266C83.4582 6.84094 84.1072 6.63923 84.725 6.41127C85.9925 7.31491 87.2862 8.18728 88.6375 9.0546C91.0999 10.6943 93.4573 12.4591 95.7521 14.1715C99.377 16.84 103.101 19.6448 107.093 21.8753C109.076 23.0062 111.138 24.0432 113.169 25.054C118.994 28.0228 124.944 31.0966 129.865 35.6518Z" fill="white"/>
<path d="M158.423 55.9367C158.869 64.6807 156.333 74.1203 151.12 83.1274C150.216 84.7139 149.353 86.1227 148.517 87.5003C144.589 93.9601 141.755 98.672 141.213 107.386C140.628 116.597 140.669 126.014 141.364 135.287C142.818 155.219 147.772 177.714 155.361 198.529C156.475 201.649 157.766 204.812 158.99 207.864C161.619 214.388 164.356 221.163 165.927 228.186C166.587 231.084 167.079 234.056 167.424 237.011C166.921 237.229 166.387 237.421 165.853 237.613C165.498 234.542 165.027 231.482 164.363 228.525C162.776 221.649 160.1 214.927 157.508 208.487C156.284 205.434 154.993 202.272 153.848 199.125C146.244 178.138 141.222 155.532 139.753 135.428C139.079 126.067 139.033 116.592 139.613 107.323C140.178 98.2013 143.091 93.3955 147.145 86.7217C147.955 85.3755 148.843 83.9354 149.722 82.3802C154.781 73.6184 157.233 64.534 156.786 56.109C156.285 46.4133 151.834 37.6139 144.835 32.487C140.746 29.4823 135.81 27.74 131.021 26.014C130.123 25.6867 129.225 25.3595 128.327 25.0323C115.031 20.1663 102.422 13.2111 91.0317 4.61309C91.712 4.43763 92.361 4.23592 93.0727 4.08671C104.078 12.2547 116.191 18.8474 128.918 23.5023C129.816 23.8295 130.714 24.1567 131.612 24.4839C136.49 26.2312 141.577 28.0472 145.848 31.1518C153.187 36.51 157.94 45.7757 158.423 55.9367Z" fill="white"/>
<path d="M165.615 33.4515C169.495 39.6921 169.898 47.2803 170.257 54.0318C170.813 64.0415 170.838 73.6049 165.449 80.9172C164.025 82.8679 162.284 84.4986 160.569 86.098C159.016 87.5672 157.411 89.099 156.082 90.8096C149.296 99.7224 150.936 109.521 152.715 119.917C152.993 121.429 153.239 122.915 153.458 124.432C153.888 127.351 154.432 130.26 154.919 133.174C156.38 141.597 157.898 150.334 157.833 158.862L157.847 159.353C157.765 168.028 157.682 177.021 159.222 185.669C160.464 192.575 163.44 198.431 166.561 204.622C167.33 206.12 168.067 207.592 168.81 209.121C172.518 216.71 175.047 224.75 176.991 232.725C176.494 233 175.991 233.218 175.462 233.468C173.544 225.461 171.014 217.421 167.338 209.858C166.627 208.355 165.858 206.857 165.121 205.386C161.932 199.085 158.888 193.119 157.626 185.983C156.045 177.193 156.123 168.142 156.226 159.379L156.212 158.888C156.293 150.533 154.78 141.853 153.323 133.487C152.805 130.547 152.287 127.607 151.857 124.688C151.611 123.202 151.392 121.685 151.115 120.173C149.377 109.919 147.578 99.293 154.836 89.8171C156.212 87.9864 157.901 86.4184 159.506 84.8866C161.138 83.3235 162.853 81.7241 164.171 79.8986C169.251 73.0191 169.193 63.7484 168.693 54.0527C168.354 47.5313 167.94 40.147 164.295 34.2627C159.433 26.398 150.085 22.9257 141.035 19.5434L139.176 18.8364C126.946 14.225 115.201 8.52776 104.087 1.76069C104.945 1.62766 105.803 1.49456 106.634 1.39281C117.154 7.66114 128.258 12.9799 139.767 17.3065L141.595 17.9872C150.806 21.5583 160.42 25.0941 165.615 33.4515Z" fill="white"/>
<path d="M58.8027 53.6955C65.5088 62.0947 71.2178 70.0303 72.6876 82.192C73.7907 91.4872 73.9359 101.098 74.0559 110.421C74.2186 122.552 74.3853 135.06 76.7868 146.937C79.5382 160.494 86.0889 173.081 92.463 185.307C94.5827 189.324 96.775 193.509 98.7635 197.683C105.872 212.338 110.363 227.887 114.751 242.924C114.963 243.688 115.206 244.479 115.423 245.3C114.869 245.262 114.257 245.228 113.703 245.19C113.506 244.598 113.367 244.002 113.17 243.41C108.818 228.457 104.364 212.991 97.2917 198.421C95.277 194.278 93.116 190.119 90.9963 186.102C84.5858 173.792 77.9676 161.096 75.1385 147.313C72.727 135.321 72.5502 122.698 72.3824 110.51C72.2674 101.244 72.1223 91.6332 70.9717 82.4581C69.5371 70.6991 63.9896 62.9522 57.45 54.7994C53.6439 50.0597 46.0291 42.8705 41.7332 43.7971C41.0216 43.9463 40.4452 44.3156 39.9202 44.9413C39.369 45.5982 38.9317 46.5641 38.5771 47.8125C38.0367 49.9179 38.4207 52.3191 38.717 54.3802L43.5285 84.8591C44.2551 89.5203 44.2076 94.2783 44.2026 98.8586C44.145 103.502 44.1287 108.286 44.8816 112.916C46.5255 123.091 49.7099 132.32 54.467 140.31C62.4992 153.927 73.592 174.696 77.2264 197.684C78.6646 206.833 78.9098 216.262 79.1822 225.34C79.2803 228.78 79.3472 232.195 79.4403 235.578C79.4744 236.3 79.4773 236.995 79.4801 237.691C78.9109 237.48 78.373 237.295 77.83 237.053C77.816 236.561 77.802 236.069 77.788 235.578C77.6949 232.195 77.628 228.78 77.5612 225.366C77.32 216.314 77.0224 206.948 75.6205 197.882C72.0375 175.151 61.0486 154.575 53.0265 141.074C48.223 132.885 44.9085 123.493 43.2445 113.088C42.4765 108.285 42.5452 103.439 42.5715 98.7694C42.6079 94.2153 42.6342 89.5462 41.9489 85.0262L37.1373 54.5474C36.7684 52.3188 36.3693 49.7449 36.9946 47.2843C37.7786 44.317 39.2485 42.5652 41.3834 42.1175C48.2693 40.6455 58.7039 53.5592 58.8027 53.6955Z" fill="white"/>
<path d="M28.7231 44.1817C32.6801 59.9231 34.8788 76.1082 35.2 92.3706C35.2439 94.8596 35.2352 97.4112 35.1791 100.083C35.0751 109.165 34.9387 118.539 38.0436 126.529C39.9511 131.435 43.3444 136.095 46.6964 140.613C49.0696 143.884 51.5679 147.26 53.4959 150.743C58.1571 159.292 62.1167 168.106 65.2082 176.937C69.7654 189.93 71.8947 204.991 71.4814 220.477C71.3511 224.952 71.1684 229.49 70.9806 233.971C70.4377 233.728 69.921 233.455 69.378 233.212C69.5596 228.993 69.705 224.69 69.8553 220.445C70.3151 205.158 68.1746 190.301 63.6901 177.476C60.6348 168.728 56.7428 160.025 52.0867 151.533C50.2263 148.16 47.7905 144.836 45.4173 141.566C42.0291 136.963 38.5419 132.225 36.588 127.12C33.3691 118.822 33.4904 109.274 33.6106 100.046C33.6405 97.4058 33.6804 94.8804 33.6366 92.3914C33.3031 76.6519 31.2386 61.0058 27.4682 45.7408C27.8306 45.2453 28.2768 44.7135 28.7231 44.1817Z" fill="white"/>
<path d="M125.231 245.428C123.536 234.996 120.883 221.894 115.476 209.468C111.492 200.367 106.553 191.958 101.754 183.827C91.6166 166.684 82.0821 150.474 82.0083 129.089C81.9854 123.525 82.3238 117.785 82.6845 111.637C83.9278 90.3974 85.252 68.4256 71.4148 52.0703C67.0194 46.8894 61.8213 42.4744 56.811 38.2169C53.4274 35.3244 49.8924 32.3582 46.6875 29.1892C46.2758 28.7904 45.859 28.3341 45.4059 27.794C45.0021 28.1482 44.567 28.4761 44.1632 28.8303C44.6476 29.3966 45.1006 29.9368 45.5436 30.3618C48.8111 33.5833 52.3198 36.5808 55.761 39.4683C60.7401 43.6995 65.9068 48.0882 70.1771 53.1641C83.6238 69.0319 82.3269 90.6534 81.0847 111.575C80.724 117.722 80.3593 123.493 80.4136 129.083C80.4964 150.903 90.161 167.275 100.376 184.643C105.17 192.717 110.077 201.1 114.026 210.117C119.318 222.234 121.951 235.106 123.61 245.454L125.231 245.428Z" fill="white"/>
<path d="M22.2469 52.6616C24.2453 61.5886 25.6361 70.8586 26.3303 80.4504C26.7862 86.3238 26.469 91.975 26.1892 97.391C25.5314 109.42 24.902 120.78 32.5843 132.717C34.8313 136.202 37.4134 139.541 39.9016 142.802C42.6452 146.33 45.4563 149.968 47.8536 153.846C62.1445 176.712 64.8041 203.466 63.4374 230.253C62.9206 229.98 62.3726 229.68 61.8509 229.349C63.0903 203.094 60.3973 176.952 46.4757 154.662C44.1148 150.868 41.3349 147.256 38.5964 143.786C36.0768 140.499 33.4634 137.133 31.1539 133.596C23.2012 121.219 23.8104 109.629 24.5006 97.3068C24.8117 91.917 25.1077 86.3547 24.6619 80.5964C23.9917 71.6112 22.7664 62.9064 20.9283 54.4872C21.3957 53.8666 21.8057 53.251 22.2469 52.6616Z" fill="white"/>
<path d="M130.801 245.143C130.432 242.915 130.125 240.738 129.788 238.536C127.968 226.347 126.055 213.76 121.609 202.033C120.132 198.075 118.218 193.43 115.414 189.212C113.604 186.414 111.375 183.797 109.214 181.29C92.8709 162.14 86.4419 138.353 90.0445 110.617C90.4631 107.449 90.9867 104.157 91.5253 101.037C93.1425 91.3593 94.7607 81.3623 93.1046 71.7097C89.7812 52.6084 75.2827 41.6155 59.9395 29.9138C57.0816 27.729 54.1924 25.5179 51.3557 23.2442C51.8483 22.9113 52.2834 22.5833 52.7498 22.2817C55.4301 24.4241 58.1942 26.5302 60.927 28.61C75.8634 39.9704 91.3004 51.7508 94.7317 71.4224C96.4705 81.3576 94.7786 91.5061 93.1715 101.299C92.6328 104.419 92.1042 107.654 91.6856 110.821C88.1265 138.061 94.4628 161.449 110.483 180.223C112.649 182.787 114.878 185.404 116.782 188.281C119.685 192.635 121.635 197.364 123.148 201.405C127.667 213.3 129.59 226.002 131.389 238.28C131.731 240.54 132.043 242.774 132.443 245.029L130.801 245.143Z" fill="white"/>
<path d="M171.032 21.1511C174.117 24.2727 175.637 29.3863 176.986 33.8771C177.354 35.0914 177.689 36.2794 178.073 37.3474C179.905 42.7235 181.881 49.0726 182.611 55.7626C183.702 65.5806 181.8 74.646 177.213 81.1925C175.153 84.1554 172.66 86.8083 170.247 89.3675C163.619 96.4403 157.893 102.565 161.879 112.999C170.274 135.077 173.926 159.251 172.424 182.833L172.35 184.318C172.076 188.139 171.838 192.044 172.568 195.748C173.288 199.338 174.981 202.784 176.601 206.062L177.307 207.508C180.495 214.128 183.243 221.018 185.425 228.074C184.928 228.349 184.461 228.651 183.964 228.926C181.776 221.813 179.049 214.834 175.83 208.188L175.124 206.742C173.436 203.354 171.707 199.824 170.967 196.004C170.159 192.075 170.445 188.05 170.683 184.145L170.782 182.629C172.247 159.282 168.621 135.395 160.329 113.511C155.997 102.093 162.362 95.3328 169.043 88.1974C171.404 85.7008 173.87 83.0791 175.851 80.2101C180.202 73.9452 181.999 65.3239 180.969 55.8774C180.254 49.3599 178.315 43.0946 176.492 37.8335C176.109 36.7656 175.742 35.5512 175.401 34.3056C174.098 30.0137 172.624 25.099 169.826 22.2712C162.291 14.6692 150.056 10.0002 140.192 6.25439L139.231 5.87468C136.442 4.81424 133.507 3.73764 130.426 2.64484C128.421 1.9217 126.384 1.17228 124.316 0.396643C126.057 0.418238 127.798 0.439864 129.55 0.576525C130.03 0.766389 130.51 0.956235 131.017 1.11482C134.129 2.23386 137.064 3.31047 139.884 4.39715L140.845 4.77686C150.803 8.60147 163.247 13.3391 171.032 21.1511Z" fill="white"/>
<path d="M182.955 16.2818C184.142 17.9172 185.223 19.6778 186.205 21.621C190.36 29.6925 192.436 38.8445 194.057 46.7611C195.713 54.7614 197.242 63.2946 196.121 71.6829C194.914 80.7454 190.596 88.0509 183.652 92.8326L183.458 92.9365C176.787 97.5203 172.002 100.809 171.277 109.423C170.731 116.109 172.837 122.62 175.189 129.285L176.494 132.939C181.425 146.566 186.486 160.674 185.061 175.205C184.77 177.84 184.332 180.458 183.832 183.023C183.145 186.765 182.442 190.652 182.46 194.506C182.52 204.472 187.247 213.769 191.833 222.789C191.973 223.066 192.145 223.37 192.259 223.679C191.824 224.007 191.357 224.309 190.891 224.61C190.715 224.249 190.538 223.887 190.361 223.526C185.676 214.37 180.846 204.88 180.808 194.506C180.779 190.537 181.504 186.56 182.186 182.761C182.634 180.258 183.129 177.635 183.368 175.064C184.77 160.94 179.724 147.004 174.892 133.514L173.587 129.86C171.131 123.002 168.979 116.291 169.615 109.308C170.389 99.9352 175.724 96.3089 182.474 91.6312L182.637 91.501C189.199 86.9848 193.29 80.0758 194.422 71.4837C195.506 63.3306 193.992 54.9699 192.377 47.1109C190.736 39.2832 188.675 30.3037 184.649 22.3947C183.075 19.3149 181.249 16.663 179.249 14.3451C179.312 14.3976 179.4 14.4188 179.463 14.4713L182.955 16.2818Z" fill="white"/>
<path d="M196.644 25.3164C203.364 40.4973 206.549 54.0452 206.344 66.6143C206.096 79.68 202.335 89.3718 194.824 96.29C193.723 97.285 192.532 98.2587 191.368 99.2011C188.092 101.836 185.035 104.335 183.527 107.974C181.903 111.943 182.646 116.458 183.576 121.13C185.911 132.578 188.717 144.102 191.847 155.364L192.049 156.013C193.475 161.048 194.911 166.198 194.71 171.52C194.63 173.585 194.309 175.556 193.989 177.526C193.743 179.025 193.503 180.583 193.377 182.13C192.355 193.64 197.944 204.514 203.53 215.011C203.126 215.366 202.696 215.751 202.261 216.079C196.473 205.252 190.654 194.079 191.741 181.983C191.893 180.405 192.128 178.79 192.4 177.259C192.726 175.346 193.046 173.376 193.11 171.457C193.305 166.397 191.879 161.362 190.494 156.468L190.319 155.788C187.1 144.504 184.321 132.949 181.981 121.444C180.972 116.546 180.236 111.77 181.997 107.384C183.647 103.384 187.029 100.624 190.332 97.9584C191.47 97.0472 192.66 96.0735 193.735 95.1099C200.9 88.5408 204.492 79.2406 204.723 66.6402C204.945 53.6057 201.417 39.4501 193.984 23.4041L194.046 23.4566L196.644 25.3164Z" fill="white"/>
<path d="M205.435 32.6926L208.218 35.3478C211.909 44.7354 215.165 54.4509 216.056 64.6343C217.36 79.2164 213.144 92.3104 204.556 100.511C203.754 101.277 202.92 102.017 202.055 102.73C199.978 104.506 198.012 106.214 196.671 108.448C193 114.537 195.225 120.082 197.563 125.936C198.341 127.868 199.155 129.884 199.77 131.946C202.815 142.23 204.175 152.808 203.799 163.421C203.714 165.428 203.597 167.409 203.455 169.422C203.189 173.677 202.881 178.11 203.227 182.399C203.966 191.175 207.332 199.49 211.163 207.503C210.796 207.941 210.339 208.357 209.941 208.769C205.964 200.421 202.338 191.781 201.585 182.514C201.229 178.11 201.532 173.619 201.792 169.307C201.909 167.325 202.025 165.344 202.142 163.363C202.533 152.922 201.188 142.518 198.158 132.406C197.579 130.427 196.77 128.469 195.992 126.537C193.586 120.573 191.072 114.358 195.178 107.622C196.645 105.175 198.801 103.305 200.877 101.529C201.685 100.82 202.55 100.107 203.326 99.3725C211.593 91.4895 215.594 78.907 214.335 64.8428C213.468 53.6138 209.552 42.9706 205.435 32.6926Z" fill="white"/>
<path d="M218.709 46.9231L221.395 50.4564C222.696 55.3863 223.767 60.3363 224.351 65.3578C226.11 80.161 222.685 94.0264 214.889 103.318C214.08 104.345 213.178 105.293 212.306 106.268C208.475 110.517 204.539 114.89 205.284 120.1C205.622 122.303 206.818 124.372 208.008 126.384L208.549 127.264C215.722 139.681 218.531 154.885 216.203 169.031C215.936 170.62 215.617 172.271 215.261 173.838C214.469 177.705 213.661 181.718 213.83 185.645C214.038 190.671 215.821 195.472 217.981 199.949C217.613 200.387 217.219 200.857 216.826 201.326C214.432 196.492 212.41 191.277 212.183 185.702C211.993 181.545 212.849 177.412 213.663 173.457C213.987 171.863 214.311 170.269 214.578 168.681C216.852 154.916 214.163 140.078 207.135 127.997L206.625 127.143C205.367 125.021 204.073 122.815 203.705 120.268C202.836 114.314 207.066 109.654 211.134 105.124C212.005 104.15 212.85 103.206 213.664 102.236C221.171 93.2893 224.464 79.8992 222.74 65.4987C221.993 59.274 220.581 53.0784 218.709 46.9231Z" fill="white"/>
<path d="M228.792 61.7808L231.109 66.071C231.472 68.5611 231.777 71.0562 232.051 73.5251C232.979 82.1399 229.789 93.0571 222.655 105.943C222.229 106.704 221.803 107.466 221.324 108.291C219.431 111.5 217.285 115.137 216.913 118.503C216.541 121.869 217.959 126.151 219.217 129.926C219.652 131.25 220.081 132.517 220.386 133.678L220.804 135.149C223.625 145.193 226.534 155.576 224.882 166.185C224.62 167.831 224.243 169.487 223.919 171.081C223.377 173.505 222.82 176.076 222.66 178.554C222.442 182.689 223.312 186.671 224.805 190.482C224.447 191.036 224.09 191.589 223.701 192.115C221.928 187.749 220.808 183.238 221.055 178.433C221.2 175.783 221.784 173.181 222.347 170.668C222.702 169.1 223.053 167.475 223.262 165.892C224.829 155.638 221.993 145.422 219.219 135.578L218.8 134.107C218.469 132.977 218.071 131.736 217.61 130.443C216.311 126.527 214.82 122.078 215.246 118.33C215.645 114.614 217.865 110.826 219.863 107.491C220.315 106.698 220.799 105.931 221.199 105.2C228.185 92.6177 231.29 82.0557 230.393 73.7861C230.046 69.8163 229.494 65.8354 228.792 61.7808Z" fill="white"/>
<path d="M233.264 175.51C232.858 171.864 232.927 168.351 233.044 164.717C233.1 162.045 233.178 159.285 233.046 156.456C232.542 146.384 230.859 136.762 228.019 127.822C227.854 127.257 227.626 126.639 227.429 126.047C226.062 122.022 224.561 117.457 226.165 113.259C227.136 110.768 228.749 108.337 230.31 105.968C231.382 104.309 232.407 102.77 233.228 101.22C236.207 95.5101 237.854 89.4818 238.549 83.1888C238.943 84.3718 239.336 85.5549 239.703 86.7692C238.828 92.0054 237.216 97.1031 234.685 101.962C233.842 103.601 232.739 105.234 231.693 106.862C230.184 109.168 228.623 111.537 227.726 113.876C226.334 117.505 227.752 121.787 229.036 125.53C229.264 126.148 229.461 126.739 229.657 127.331C232.565 136.381 234.263 146.175 234.777 156.362C234.914 159.249 234.841 162.067 234.759 164.77C234.698 167.384 234.627 169.883 234.764 172.451L233.264 175.51Z" fill="white"/>
<path d="M243.008 145.41C242.072 140.68 240.88 136.002 239.405 131.406L238.883 129.741C237.538 125.627 236.182 121.398 236.286 116.953C236.453 110.91 238.783 105.401 241.044 100.102C241.45 99.1097 241.856 98.1175 242.288 97.0942C242.515 98.0309 242.684 98.9727 242.885 99.9407C242.79 100.181 242.669 100.452 242.574 100.693C240.36 105.872 238.104 111.229 237.938 116.954C237.835 121.079 239.155 125.225 240.459 129.198L240.981 130.862C242.057 134.217 242.961 137.588 243.755 141.026L243.008 145.41Z" fill="white"/>
<path d="M55.5729 71.7758C54.2205 71.2274 52.8347 71.2907 51.7869 71.9041C49.7488 73.126 49.515 75.7552 49.5085 77.6689C49.5239 85.465 50.4386 93.2693 52.2587 100.821C53.6301 106.556 56.7864 110.164 60.0608 109.819C61.1801 109.693 62.1179 109.147 62.8792 108.239C64.2442 106.613 65.0482 103.876 65.1389 100.273C65.3346 91.9081 63.3865 83.5564 59.5164 76.0976C58.8566 74.851 58.0353 73.4155 56.7002 72.4018C56.3611 72.1706 55.9645 71.9445 55.5729 71.7758ZM58.0759 76.8614C61.837 84.0689 63.7024 92.1378 63.5128 100.242C63.3927 104.832 61.9597 108.001 59.8936 108.24C57.8849 108.474 55.1644 105.871 53.8807 100.476C52.0707 93.0396 51.1398 85.3816 51.1345 77.7006C51.1389 76.4248 51.2543 74.7624 52.0681 73.7926C52.2256 73.6049 52.4143 73.4435 52.6344 73.3083C53.2683 72.934 54.1101 72.9473 55.0083 73.2745C55.2798 73.3957 55.5251 73.5482 55.8016 73.7269C56.7976 74.5093 57.5149 75.751 58.0759 76.8614Z" fill="white"/>
<path d="M97.9696 222.073L98.1451 222.753C100.149 230.085 102.216 237.151 104.3 244.07C103.715 244.006 103.124 243.883 102.534 243.761C100.502 237.098 98.538 230.226 96.5856 223.15L96.3788 222.444C93.2294 210.632 90.7601 207.92 89.2341 207.706C88.1208 207.571 87.0022 209.032 86.3287 210.279C85.0978 212.445 85.3293 215.091 85.7112 218.13L88.6674 240.655C88.1032 240.502 87.539 240.348 86.9436 240.168L84.079 218.36C83.7425 215.839 83.2891 212.313 84.8986 209.506C86.3082 207.063 87.8598 205.913 89.4696 206.091C93.3423 206.622 96.0384 214.908 97.9696 222.073Z" fill="white"/>
</g>
</g>
<defs>
<clipPath id="clip0">
<rect width="245" height="245" fill="white"/>
</clipPath>
</defs>
</svg>
