<svg width="280" height="280" viewBox="0 0 280 280" fill="none" xmlns="http://www.w3.org/2000/svg">
<g clip-path="url(#clip0)">
<g opacity="0.2">
<path d="M-0.417814 131.652C-0.479651 139.29 0.224631 146.961 3.5616 153.24C6.58323 158.949 10.9605 163.843 15.2547 168.545C19.4829 173.252 23.8544 178.08 26.9778 183.813C30.9396 191.166 32.5822 199.319 34.2016 207.208C35.4378 213.372 36.697 219.8 39.1374 225.692C39.8915 227.485 40.6457 229.277 41.4056 231.136C43.3297 235.68 45.2296 240.326 46.9018 245.024C45.929 244.147 44.9562 243.27 43.9834 242.393C42.6784 238.856 41.1759 235.337 39.7149 231.914C38.955 230.056 38.1649 228.233 37.4108 226.441C34.9231 220.386 33.628 213.929 32.3803 207.633C30.8383 199.87 29.2073 191.849 25.3702 184.784C22.3658 179.272 18.0659 174.505 13.8792 169.893C9.54353 165.095 5.05881 160.111 1.9182 154.18C0.966427 152.405 0.230774 150.445 -0.373131 148.474C-0.736988 142.798 -0.759979 137.224 -0.417814 131.652Z" fill="#EACDC1"/>
<path d="M125.648 46.2195C134.967 53.7339 140.335 66.5387 140.03 80.5036C139.888 87.2196 138.411 93.8533 137.012 100.248C136.605 102.042 136.234 103.867 135.862 105.691C131.93 124.852 131.151 144.4 133.48 163.81C134.527 172.745 136.722 176.966 139.755 182.807C140.992 185.188 142.395 187.952 143.922 191.37C145.532 194.979 147.28 198.642 148.95 202.18C151.708 207.912 154.585 213.866 156.875 219.938C163.017 235.894 165.916 253.097 168.667 269.748C169.036 272.072 169.441 274.426 169.846 276.78C169.229 276.933 168.612 277.087 167.989 277.174C167.578 274.754 167.173 272.401 166.768 270.047C164.029 253.527 161.171 236.421 155.113 220.657C152.799 214.686 149.957 208.762 147.199 203.03C145.529 199.493 143.716 195.835 142.136 192.19C140.645 188.803 139.247 186.104 138.01 183.723C134.894 177.691 132.687 173.337 131.546 164.078C129.2 144.472 130.027 124.72 133.942 105.362C134.313 103.537 134.72 101.743 135.122 99.8823C136.526 93.5536 137.943 86.9915 138.103 80.473C138.424 67.071 133.305 54.8417 124.416 47.6879C123.025 46.5817 121.514 45.6188 120.032 44.6201L118.802 43.8317C109.717 37.8565 101.475 30.5133 93.5854 23.4049C89.4794 19.7154 85.23 15.9057 80.8721 12.371C81.4777 12.0858 82.1133 11.7647 82.7905 11.5395C86.9393 14.9597 90.9379 18.559 94.8591 22.0323C102.743 29.075 110.913 36.358 119.897 42.3089L121.127 43.0973C122.638 44.0602 124.185 45.0532 125.648 46.2195Z" fill="#EACDC1"/>
<path d="M16.1294 73.0916C17.0909 82.5651 17.0542 91.6281 15.9418 100.155C15.3872 104.816 14.1867 109.302 13.0105 113.686C10.2637 124.015 7.63252 133.769 13.4679 144.708C16.448 150.321 21.1015 154.958 25.606 159.409C29.5317 163.314 33.5648 167.308 36.6017 172.054C40.1387 177.585 42.2485 183.872 44.2751 189.967C46.1181 195.48 48.302 201.097 50.6164 207.067C57.1207 223.754 63.8028 240.958 63.5782 257.736C62.9451 257.327 62.3119 256.918 61.7088 256.473C61.6316 240.417 55.1689 223.826 48.884 207.749C46.5697 201.779 44.35 196.133 42.5012 190.553C40.4861 184.59 38.4538 178.429 35.0299 173.054C32.0762 168.5 28.1147 164.566 24.2965 160.752C19.6845 156.21 14.9235 151.483 11.7887 145.618C5.66227 134.008 8.36625 123.948 11.1802 113.248C12.3321 108.966 13.5025 104.516 14.0687 99.9867C15.0041 92.4712 15.1445 84.5938 14.4843 76.2886C15.0808 75.1413 15.5872 74.1014 16.1294 73.0916Z" fill="#EACDC1"/>
<path d="M116.888 57.971C123.228 70.1266 125.895 83.1677 124.984 97.783C124.452 106.126 123.371 114.252 122.267 122.114C120.297 136.39 118.425 149.895 119.895 164.8C121.105 177.105 127.187 185.932 133.608 195.226C135.544 198.01 137.522 200.89 139.415 203.944C148.745 218.791 152.985 236.142 155.621 249.584C156.268 252.813 156.886 256.077 157.539 259.372C158.751 265.638 159.974 272.035 161.324 278.355C160.701 278.443 160.078 278.531 159.455 278.618C158.106 272.298 156.888 265.967 155.676 259.701C155.059 256.436 154.441 253.172 153.794 249.943C151.169 236.633 147.019 219.54 137.843 204.944C135.956 201.957 133.978 199.077 132.078 196.323C125.502 186.776 119.306 177.794 118.057 165.027C116.6 149.889 118.43 136.288 120.454 121.874C121.528 114.048 122.651 106.018 123.152 97.7109C124.027 83.4307 121.454 70.7132 115.274 58.8754C108.613 46.0842 99.1931 40.072 87.2822 32.5188L84.648 30.8577C78.9553 27.2406 73.4673 23.307 68.1839 19.0568C68.7479 18.6756 69.3177 18.3603 69.8875 18.045C74.9502 22.049 80.1875 25.7722 85.6051 29.2806L88.2393 30.9418C100.395 38.6394 109.988 44.736 116.888 57.971Z" fill="#EACDC1"/>
<path d="M13.7406 189.917C16.3048 194.571 16.4456 200.731 16.3772 206.777C15.7107 205.607 15.0743 204.402 14.5037 203.191C14.4354 198.617 13.9834 194.21 12.1272 190.821C10.9433 188.668 9.04504 187.075 7.01509 185.494C6.65941 184.463 6.29798 183.366 5.97236 182.3C6.36633 182.63 6.82616 182.955 7.22013 183.286C9.67411 185.162 12.1997 187.098 13.7406 189.917Z" fill="#EACDC1"/>
<path d="M147.921 39.824C158.328 49.5331 163.149 64.8083 160.187 78.7402C159.298 82.9994 157.764 87.0828 156.218 91.0345C155.783 92.1345 155.384 93.2645 154.949 94.3645C145.681 119.667 143.761 147.412 149.361 174.633C151.835 186.596 157.033 198.221 162.03 209.432C165.125 216.362 168.304 223.485 170.823 230.665C174.796 241.933 175.815 253.956 176.763 265.555C177.028 268.585 177.269 271.717 177.57 274.776C176.953 274.93 176.371 275.114 175.754 275.267C175.406 272.045 175.13 268.884 174.853 265.722C173.88 254.225 172.909 242.363 169.019 231.287C166.541 224.203 163.363 217.081 160.303 210.18C155.265 198.873 150.025 187.152 147.504 175.028C141.809 147.484 143.766 119.403 153.204 93.7539C153.603 92.6239 154.037 91.5239 154.472 90.4239C155.958 86.5439 157.462 82.4963 158.332 78.4047C161.119 65.1187 156.523 50.5206 146.582 41.2023C141.163 36.1674 134.488 32.7026 127.993 29.3882C125.698 28.1951 123.301 26.9778 121.001 25.7189C116.257 23.0808 111.994 19.8697 107.772 16.7545C105.145 14.7941 102.446 12.7736 99.6982 10.9564C97.7271 9.66866 95.8878 8.36936 94.0485 7.07009C94.7915 6.83915 95.5346 6.60822 96.2419 6.34723C97.693 7.38178 99.1742 8.38054 100.721 9.37352C103.54 11.2508 106.239 13.2713 108.867 15.2317C113.017 18.2868 117.28 21.498 121.851 24.0516C124.121 25.3464 126.482 26.5336 128.806 27.6909C135.475 31.0897 142.288 34.6089 147.921 39.824Z" fill="#EACDC1"/>
<path d="M180.617 63.0479C181.128 73.0586 178.224 83.8659 172.256 94.1779C171.22 95.9942 170.233 97.6071 169.276 99.1842C164.779 106.58 161.534 111.975 160.914 121.951C160.244 132.497 160.291 143.278 161.087 153.895C162.751 176.714 168.423 202.468 177.112 226.299C178.387 229.871 179.865 233.491 181.266 236.986C184.275 244.455 187.41 252.212 189.208 260.252C189.963 263.571 190.527 266.973 190.922 270.356C190.347 270.606 189.735 270.825 189.124 271.045C188.717 267.529 188.178 264.025 187.417 260.641C185.6 252.769 182.537 245.072 179.569 237.699C178.168 234.204 176.69 230.583 175.379 226.981C166.673 202.953 160.924 177.073 159.243 154.056C158.471 143.338 158.418 132.491 159.082 121.879C159.728 111.436 163.063 105.934 167.705 98.2929C168.632 96.7516 169.649 95.1029 170.655 93.3224C176.448 83.2912 179.255 72.8907 178.743 63.2451C178.17 52.1447 173.074 42.0706 165.06 36.2008C160.378 32.7608 154.728 30.7661 149.246 28.79C148.217 28.4154 147.189 28.0408 146.16 27.6661C130.938 22.0952 116.503 14.1324 103.462 4.28865C104.241 4.08776 104.984 3.85683 105.799 3.686C118.398 13.0373 132.266 20.5852 146.837 25.9145C147.865 26.2891 148.894 26.6637 149.922 27.0383C155.506 29.0387 161.33 31.1178 166.221 34.6722C174.622 40.8067 180.064 51.4148 180.617 63.0479Z" fill="#EACDC1"/>
<path d="M188.853 37.3051C193.295 44.4498 193.756 53.1374 194.167 60.867C194.804 72.3268 194.833 83.2757 188.663 91.6475C187.033 93.8808 185.039 95.7477 183.076 97.5788C181.298 99.2609 179.46 101.015 177.939 102.973C170.17 113.177 172.048 124.396 174.085 136.297C174.402 138.028 174.683 139.729 174.935 141.466C175.426 144.808 176.05 148.139 176.607 151.475C178.28 161.118 180.018 171.121 179.943 180.885L179.959 181.447C179.866 191.378 179.771 201.674 181.533 211.575C182.955 219.482 186.363 226.186 189.936 233.274C190.816 234.989 191.661 236.674 192.511 238.425C196.755 247.113 199.651 256.318 201.877 265.449C201.308 265.764 200.732 266.014 200.126 266.299C197.931 257.132 195.035 247.928 190.826 239.269C190.011 237.549 189.131 235.833 188.287 234.148C184.636 226.935 181.151 220.105 179.706 211.934C177.897 201.871 177.986 191.509 178.104 181.477L178.088 180.914C178.18 171.349 176.448 161.411 174.78 151.834C174.187 148.468 173.594 145.101 173.102 141.759C172.821 140.058 172.569 138.321 172.252 136.59C170.262 124.851 168.202 112.685 176.512 101.837C178.088 99.7409 180.021 97.9456 181.859 96.1919C183.727 94.4024 185.69 92.5713 187.2 90.4812C193.016 82.6051 192.95 71.9913 192.377 60.8909C191.989 53.4247 191.515 44.9706 187.342 38.2339C181.775 29.2296 171.073 25.2544 160.712 21.382L158.584 20.5726C144.582 15.2931 131.135 8.77046 118.411 1.023C119.393 0.870696 120.375 0.718316 121.327 0.601823C133.371 7.77828 146.083 13.8676 159.26 18.821L161.353 19.6003C171.899 23.6888 182.905 27.7369 188.853 37.3051Z" fill="#EACDC1"/>
<path d="M66.5646 60.4821C74.2422 70.0981 80.7783 79.1834 82.4611 93.1071C83.724 103.749 83.8902 114.752 84.0276 125.426C84.2139 139.315 84.4048 153.635 87.1542 167.233C90.3041 182.754 97.8039 197.164 105.102 211.161C107.528 215.76 110.038 220.552 112.315 225.331C120.453 242.108 125.595 259.91 130.618 277.126C130.861 278 131.139 278.905 131.387 279.846C130.753 279.802 130.053 279.764 129.418 279.72C129.193 279.042 129.034 278.359 128.809 277.682C123.826 260.563 118.726 242.856 110.63 226.175C108.323 221.432 105.849 216.67 103.422 212.071C96.0831 197.978 88.506 183.442 85.2671 167.663C82.5061 153.933 82.3037 139.482 82.1116 125.527C81.98 114.919 81.8138 103.916 80.4966 93.4117C78.8542 79.9491 72.5029 71.0799 65.0159 61.7459C60.6584 56.3196 51.9404 48.0888 47.0221 49.1497C46.2074 49.3205 45.5475 49.7433 44.9464 50.4596C44.3153 51.2117 43.8147 52.3175 43.4088 53.7468C42.79 56.1572 43.2297 58.9063 43.5689 61.2661L49.0775 96.1606C49.9094 101.497 49.855 106.944 49.8492 112.188C49.7833 117.504 49.7647 122.981 50.6267 128.282C52.5087 139.932 56.1544 150.498 61.6008 159.645C70.7966 175.235 83.4965 199.013 87.6574 225.331C89.304 235.806 89.5847 246.6 89.8966 256.993C90.0089 260.933 90.0855 264.842 90.192 268.716C90.2311 269.542 90.2344 270.338 90.2377 271.134C89.586 270.892 88.9701 270.681 88.3485 270.403C88.3325 269.841 88.3164 269.278 88.3004 268.715C88.1938 264.842 88.1173 260.932 88.0407 257.023C87.7646 246.66 87.4239 235.938 85.8189 225.558C81.7168 199.534 69.1359 175.977 59.9516 160.52C54.4521 151.144 50.6574 140.392 48.7523 128.479C47.8731 122.981 47.9517 117.432 47.9818 112.086C48.0235 106.872 48.0536 101.527 47.269 96.352L41.7603 61.4575C41.338 58.9059 40.8811 55.9591 41.597 53.142C42.4945 49.7449 44.1774 47.7392 46.6216 47.2267C54.5052 45.5414 66.4514 60.3261 66.5646 60.4821Z" fill="#EACDC1"/>
<path d="M32.1261 49.59C36.6564 67.6119 39.1736 86.1419 39.5414 104.76C39.5916 107.61 39.5817 110.531 39.5174 113.59C39.3984 123.988 39.2422 134.72 42.7969 143.867C44.9808 149.484 48.8657 154.819 52.7033 159.992C55.4203 163.737 58.2806 167.601 60.488 171.59C65.8244 181.377 70.3576 191.468 73.8971 201.578C79.1145 216.454 81.5523 233.697 81.0791 251.426C80.93 256.55 80.7208 261.745 80.5058 266.875C79.8842 266.597 79.2926 266.284 78.671 266.007C78.8789 261.176 79.0453 256.25 79.2175 251.39C79.7438 233.888 77.2932 216.879 72.159 202.195C68.6611 192.18 64.2052 182.216 58.8746 172.494C56.7446 168.632 53.956 164.827 51.239 161.083C47.3598 155.813 43.3674 150.388 41.1305 144.544C37.4452 135.044 37.5841 124.113 37.7217 113.548C37.7559 110.525 37.8017 107.634 37.7515 104.784C37.3696 86.7643 35.006 68.8514 30.6894 51.3749C31.1043 50.8077 31.6152 50.1988 32.1261 49.59Z" fill="#EACDC1"/>
<path d="M142.617 279.992C140.676 268.049 137.638 253.049 131.449 238.823C126.887 228.403 121.232 218.776 115.739 209.467C104.132 189.84 93.2164 171.282 93.1318 146.798C93.1056 140.429 93.493 133.857 93.906 126.819C95.3294 102.501 96.8455 77.3464 81.0036 58.6215C75.9714 52.6901 70.0202 47.6355 64.284 42.7612C60.4102 39.4496 56.363 36.0536 52.6938 32.4255C52.2224 31.9689 51.7453 31.4465 51.2266 30.8282C50.7643 31.2337 50.2662 31.6091 49.8039 32.0146C50.3584 32.663 50.8771 33.2814 51.3843 33.768C55.1251 37.4562 59.1422 40.888 63.0819 44.1938C68.7823 49.038 74.6976 54.0626 79.5866 59.8738C94.9814 78.0404 93.4966 102.794 92.0744 126.747C91.6614 133.785 91.244 140.392 91.3061 146.792C91.4009 171.773 102.466 190.517 114.161 210.401C119.649 219.645 125.267 229.242 129.788 239.565C135.847 253.438 138.862 268.174 140.761 280.022L142.617 279.992Z" fill="#EACDC1"/>
<path d="M24.7156 59.2982C27.0035 69.5185 28.5958 80.1315 29.3906 91.1129C29.9125 97.8372 29.5494 104.307 29.229 110.508C28.4759 124.28 27.7553 137.285 36.5506 150.952C39.1231 154.941 42.0793 158.764 44.9281 162.498C48.0691 166.537 51.2875 170.702 54.0321 175.142C70.3935 201.321 73.4383 231.951 71.8736 262.619C71.282 262.306 70.6546 261.962 70.0573 261.583C71.4762 231.525 68.3931 201.595 52.4546 176.076C49.7516 171.733 46.569 167.597 43.4337 163.624C40.5491 159.861 37.5571 156.007 34.913 151.958C25.8081 137.787 26.5056 124.518 27.2958 110.411C27.652 104.241 27.9908 97.8726 27.4804 91.2801C26.7132 80.9931 25.3103 71.0273 23.2059 61.3883C23.7411 60.6777 24.2104 59.973 24.7156 59.2982Z" fill="#EACDC1"/>
<path d="M148.996 279.666C148.573 277.114 148.222 274.623 147.836 272.102C145.752 258.147 143.562 243.736 138.472 230.31C136.781 225.778 134.59 220.461 131.38 215.631C129.308 212.428 126.756 209.432 124.281 206.562C105.571 184.637 98.2102 157.405 102.335 125.65C102.814 122.024 103.413 118.254 104.03 114.683C105.882 103.602 107.734 92.157 105.838 81.1059C102.033 59.2373 85.4343 46.6517 67.8683 33.2548C64.5963 30.7534 61.2885 28.222 58.0408 25.6189C58.6048 25.2377 59.103 24.8623 59.6369 24.5169C62.7055 26.9697 65.87 29.3809 68.9987 31.7621C86.0992 44.7683 103.773 58.2555 107.701 80.777C109.692 92.1516 107.755 103.77 105.915 114.982C105.298 118.554 104.693 122.257 104.214 125.883C100.139 157.07 107.393 183.847 125.734 205.34C128.214 208.276 130.766 211.271 132.946 214.565C136.269 219.551 138.502 224.964 140.234 229.591C145.408 243.21 147.609 257.752 149.669 271.808C150.061 274.396 150.417 276.953 150.876 279.535L148.996 279.666Z" fill="#EACDC1"/>
<path d="M195.054 23.2228C198.585 26.7965 200.326 32.651 201.87 37.7924C202.291 39.1827 202.675 40.5428 203.114 41.7655C205.212 47.9204 207.474 55.1895 208.31 62.8487C209.559 74.0891 207.381 84.4678 202.13 91.9627C199.772 95.3549 196.918 98.3922 194.154 101.322C186.566 109.42 180.011 116.431 184.574 128.377C194.186 153.654 198.366 181.33 196.647 208.328L196.563 210.028C196.249 214.403 195.976 218.874 196.812 223.115C197.636 227.224 199.574 231.17 201.429 234.924L202.238 236.578C205.887 244.157 209.033 252.046 211.532 260.124C210.962 260.439 210.428 260.785 209.859 261.1C207.354 252.956 204.232 244.966 200.547 237.357L199.738 235.702C197.806 231.822 195.826 227.781 194.979 223.408C194.054 218.909 194.381 214.301 194.654 209.83L194.768 208.095C196.445 181.366 192.293 154.019 182.8 128.964C177.84 115.891 185.128 108.152 192.776 99.9824C195.479 97.1242 198.303 94.1227 200.571 90.838C205.552 83.6654 207.609 73.7952 206.43 62.98C205.612 55.5184 203.391 48.3453 201.304 42.3221C200.866 41.0994 200.445 39.7091 200.055 38.2831C198.563 33.3693 196.876 27.7426 193.673 24.5051C185.046 15.8018 171.038 10.4564 159.745 6.16783L158.645 5.73311C155.452 4.51905 152.092 3.28647 148.565 2.03535C146.269 1.20744 143.937 0.34945 141.57 -0.53856C143.563 -0.513837 145.556 -0.489078 147.561 -0.332618C148.111 -0.115248 148.661 0.102103 149.241 0.283658C152.805 1.56483 156.165 2.79741 159.393 4.04153L160.493 4.47625C171.894 8.85496 186.141 14.279 195.054 23.2228Z" fill="#EACDC1"/>
<path d="M208.705 17.6477C210.063 19.52 211.301 21.5356 212.425 23.7603C217.183 33.0013 219.56 43.4792 221.415 52.5426C223.311 61.702 225.062 71.4715 223.778 81.0751C222.396 91.4505 217.453 99.8145 209.503 105.289L209.281 105.408C201.642 110.656 196.164 114.421 195.335 124.283C194.71 131.937 197.121 139.392 199.813 147.022L201.307 151.205C206.953 166.807 212.747 182.959 211.116 199.595C210.783 202.611 210.282 205.609 209.709 208.546C208.922 212.83 208.117 217.281 208.138 221.693C208.207 233.103 213.618 243.746 218.869 254.073C219.03 254.39 219.226 254.738 219.356 255.092C218.858 255.467 218.324 255.813 217.79 256.158C217.588 255.744 217.386 255.331 217.184 254.917C211.82 244.435 206.29 233.569 206.246 221.692C206.214 217.148 207.043 212.596 207.824 208.246C208.337 205.381 208.904 202.378 209.177 199.433C210.782 183.264 205.006 167.309 199.473 151.864L197.979 147.68C195.168 139.829 192.704 132.146 193.431 124.151C194.318 113.42 200.426 109.269 208.154 103.913L208.34 103.764C215.853 98.5939 220.537 90.684 221.833 80.847C223.074 71.5127 221.341 61.9408 219.492 52.9432C217.612 43.9814 215.253 33.7011 210.644 24.6462C208.842 21.1202 206.752 18.084 204.462 15.4303C204.533 15.4904 204.635 15.5148 204.707 15.5749L208.705 17.6477Z" fill="#EACDC1"/>
<path d="M224.378 27.9914C232.071 45.3716 235.718 60.8823 235.484 75.2724C235.199 90.2311 230.894 101.327 222.294 109.247C221.033 110.387 219.671 111.501 218.338 112.58C214.587 115.597 211.087 118.458 209.361 122.625C207.502 127.168 208.352 132.337 209.417 137.686C212.091 150.793 215.302 163.986 218.886 176.88L219.117 177.623C220.75 183.388 222.394 189.284 222.164 195.377C222.072 197.741 221.705 199.997 221.338 202.252C221.057 203.969 220.782 205.752 220.638 207.524C219.468 220.701 225.867 233.151 232.261 245.169C231.799 245.574 231.307 246.016 230.808 246.391C224.182 233.995 217.521 221.204 218.765 207.356C218.939 205.549 219.208 203.7 219.52 201.947C219.892 199.757 220.259 197.502 220.332 195.305C220.555 189.511 218.923 183.747 217.338 178.144L217.137 177.365C213.451 164.446 210.269 151.218 207.59 138.045C206.436 132.438 205.593 126.97 207.609 121.948C209.498 117.369 213.37 114.21 217.152 111.158C218.454 110.114 219.817 109 221.048 107.896C229.251 100.376 233.363 89.7279 233.628 75.302C233.882 60.3792 229.842 44.1727 221.333 25.802L221.404 25.8621L224.378 27.9914Z" fill="#EACDC1"/>
<path d="M234.443 36.4361L237.629 39.4759C241.855 50.2236 245.582 61.3467 246.602 73.0054C248.096 89.7001 243.268 104.691 233.437 114.08C232.518 114.957 231.563 115.804 230.573 116.621C228.196 118.654 225.944 120.61 224.409 123.166C220.207 130.138 222.753 136.486 225.431 143.188C226.321 145.4 227.253 147.708 227.957 150.069C231.443 161.843 233 173.953 232.57 186.104C232.472 188.402 232.339 190.67 232.176 192.974C231.872 197.846 231.519 202.921 231.916 207.831C232.762 217.879 236.614 227.398 241.001 236.572C240.58 237.074 240.058 237.551 239.601 238.022C235.048 228.465 230.898 218.573 230.036 207.963C229.628 202.921 229.974 197.78 230.272 192.842C230.406 190.574 230.539 188.306 230.673 186.037C231.12 174.084 229.58 162.172 226.112 150.595C225.449 148.33 224.523 146.088 223.632 143.876C220.878 137.049 217.999 129.933 222.7 122.221C224.38 119.419 226.847 117.278 229.225 115.245C230.149 114.434 231.14 113.617 232.029 112.776C241.494 103.751 246.074 89.3459 244.632 73.2441C243.64 60.3883 239.156 48.2031 234.443 36.4361Z" fill="#EACDC1"/>
<path d="M249.637 52.7284L252.712 56.7736C254.202 62.4177 255.428 68.0849 256.097 73.8339C258.11 90.7818 254.189 106.656 245.264 117.293C244.338 118.469 243.305 119.555 242.307 120.671C237.921 125.535 233.414 130.542 234.268 136.508C234.654 139.029 236.023 141.398 237.386 143.702L238.005 144.709C246.218 158.925 249.433 176.332 246.768 192.527C246.463 194.346 246.097 196.236 245.69 198.031C244.783 202.458 243.858 207.052 244.052 211.548C244.29 217.302 246.33 222.798 248.803 227.925C248.383 228.426 247.932 228.963 247.481 229.501C244.74 223.966 242.426 217.996 242.166 211.614C241.949 206.854 242.929 202.122 243.86 197.594C244.231 195.769 244.603 193.945 244.908 192.126C247.512 176.367 244.433 159.379 236.386 145.548L235.803 144.57C234.362 142.141 232.88 139.616 232.459 136.699C231.465 129.883 236.308 124.548 240.965 119.362C241.962 118.246 242.93 117.165 243.861 116.055C252.456 105.812 256.226 90.482 254.252 73.9952C253.397 66.8687 251.78 59.7755 249.637 52.7284Z" fill="#EACDC1"/>
<path d="M261.18 69.7386L263.833 74.6504C264.248 77.5013 264.598 80.3579 264.912 83.1845C265.974 93.0474 262.322 105.546 254.154 120.298C253.666 121.171 253.178 122.043 252.631 122.987C250.463 126.661 248.006 130.825 247.58 134.679C247.154 138.533 248.778 143.435 250.218 147.756C250.715 149.272 251.207 150.723 251.556 152.053L252.035 153.736C255.265 165.235 258.595 177.123 256.704 189.269C256.404 191.153 255.972 193.049 255.601 194.874C254.981 197.649 254.343 200.592 254.159 203.429C253.91 208.164 254.906 212.722 256.615 217.086C256.206 217.719 255.797 218.353 255.352 218.956C253.321 213.956 252.04 208.792 252.322 203.291C252.488 200.257 253.157 197.278 253.801 194.401C254.208 192.606 254.61 190.746 254.849 188.933C256.643 177.194 253.396 165.498 250.22 154.227L249.741 152.543C249.362 151.249 248.906 149.829 248.378 148.348C246.891 143.866 245.184 138.772 245.671 134.481C246.129 130.226 248.67 125.889 250.957 122.072C251.475 121.163 252.029 120.285 252.487 119.449C260.485 105.043 264.04 92.951 263.013 83.4833C262.615 78.9384 261.984 74.3807 261.18 69.7386Z" fill="#EACDC1"/>
<path d="M266.299 199.944C265.834 195.77 265.913 191.748 266.047 187.588C266.112 184.529 266.2 181.369 266.049 178.13C265.472 166.598 263.546 155.583 260.294 145.348C260.105 144.7 259.844 143.993 259.619 143.316C258.054 138.707 256.336 133.481 258.172 128.675C259.283 125.823 261.13 123.04 262.917 120.328C264.145 118.429 265.318 116.667 266.258 114.892C269.669 108.355 271.554 101.453 272.35 94.2481C272.801 95.6026 273.251 96.957 273.671 98.3473C272.669 104.342 270.824 110.178 267.925 115.742C266.961 117.618 265.698 119.487 264.5 121.351C262.773 123.991 260.986 126.703 259.959 129.381C258.365 133.536 259.988 138.439 261.458 142.724C261.719 143.431 261.945 144.108 262.17 144.785C265.499 155.147 267.442 166.36 268.031 178.023C268.188 181.328 268.105 184.554 268.011 187.649C267.941 190.641 267.859 193.503 268.017 196.442L266.299 199.944Z" fill="#EACDC1"/>
<path d="M277.459 165.484C276.388 160.068 275.024 154.712 273.335 149.45L272.737 147.545C271.197 142.834 269.645 137.992 269.764 132.904C269.955 125.985 272.622 119.679 275.211 113.611C275.676 112.475 276.141 111.34 276.635 110.168C276.895 111.24 277.089 112.319 277.319 113.427C277.21 113.702 277.071 114.013 276.963 114.288C274.428 120.217 271.845 126.351 271.656 132.905C271.538 137.628 273.048 142.374 274.541 146.922L275.139 148.828C276.371 152.669 277.406 156.528 278.314 160.464L277.459 165.484Z" fill="#EACDC1"/>
<path d="M62.8677 81.1817C61.3194 80.5539 59.7328 80.6263 58.5332 81.3286C56.1998 82.7275 55.9322 85.7377 55.9247 87.9286C55.9424 96.8541 56.9896 105.789 59.0734 114.434C60.6434 121.001 64.2571 125.131 68.0058 124.737C69.2873 124.592 70.361 123.967 71.2325 122.928C72.7953 121.066 73.7158 117.932 73.8196 113.808C74.0436 104.231 71.8133 94.6691 67.3825 86.1297C66.6271 84.7024 65.6869 83.059 64.1583 81.8984C63.7701 81.6337 63.316 81.3748 62.8677 81.1817ZM65.7333 87.0041C70.0394 95.2557 72.1751 104.494 71.958 113.772C71.8204 119.027 70.1798 122.655 67.8144 122.929C65.5147 123.196 62.4 120.216 60.9304 114.04C58.8581 105.526 57.7924 96.7586 57.7863 87.9648C57.7913 86.5042 57.9235 84.601 58.8551 83.4907C59.0354 83.2759 59.2515 83.091 59.5035 82.9363C60.2293 82.5077 61.193 82.5229 62.2214 82.8976C62.5322 83.0363 62.813 83.2109 63.1295 83.4155C64.2699 84.3113 65.0911 85.7328 65.7333 87.0041Z" fill="#EACDC1"/>
<path d="M111.405 253.253L111.606 254.032C113.9 262.427 116.267 270.516 118.653 278.438C117.983 278.364 117.307 278.224 116.631 278.084C114.304 270.456 112.056 262.588 109.821 254.487L109.584 253.678C105.978 240.155 103.151 237.05 101.404 236.805C100.13 236.651 98.8489 238.323 98.0778 239.751C96.6686 242.23 96.9337 245.26 97.3708 248.74L100.755 274.528C100.109 274.352 99.4635 274.177 98.7818 273.971L95.5022 249.003C95.1169 246.116 94.5979 242.08 96.4406 238.865C98.0544 236.069 99.8308 234.752 101.674 234.956C106.108 235.564 109.194 245.051 111.405 253.253Z" fill="#EACDC1"/>
</g>
</g>
<defs>
<clipPath id="clip0">
<rect width="280" height="280" fill="white"/>
</clipPath>
</defs>
</svg>
