<svg width="278" height="278" viewBox="0 0 278 278" fill="none" xmlns="http://www.w3.org/2000/svg">
<g clip-path="url(#clip0)">
<g opacity="0.22">
<path d="M0.166417 130.836C0.105027 138.419 0.804196 146.034 4.11693 152.267C7.11662 157.935 11.4621 162.793 15.7251 167.461C19.9226 172.134 24.2624 176.927 27.363 182.619C31.2961 189.918 32.9267 198.012 34.5344 205.844C35.7616 211.963 37.0117 218.344 39.4343 224.194C40.183 225.973 40.9317 227.752 41.6861 229.597C43.5963 234.108 45.4823 238.72 47.1423 243.385C46.1766 242.514 45.2109 241.643 44.2452 240.772C42.9497 237.262 41.458 233.768 40.0077 230.37C39.2532 228.525 38.469 226.716 37.7203 224.937C35.2507 218.926 33.965 212.515 32.7263 206.265C31.1955 198.558 29.5764 190.595 25.7671 183.582C22.7846 178.11 18.5159 173.377 14.3596 168.799C10.0554 164.036 5.60326 159.089 2.48547 153.201C1.5406 151.439 0.810292 149.493 0.210773 147.536C-0.150442 141.901 -0.173264 136.368 0.166417 130.836Z" fill="white"/>
<path d="M125.317 46.024C134.568 53.4839 139.897 66.1957 139.595 80.0592C139.453 86.7264 137.987 93.3119 136.599 99.66C136.194 101.442 135.826 103.253 135.457 105.064C131.553 124.085 130.78 143.492 133.092 162.76C134.132 171.63 136.31 175.821 139.322 181.62C140.55 183.983 141.943 186.728 143.459 190.12C145.057 193.703 146.792 197.34 148.45 200.852C151.188 206.543 154.044 212.453 156.318 218.481C162.415 234.321 165.292 251.399 168.023 267.929C168.39 270.236 168.792 272.573 169.194 274.91C168.582 275.062 167.969 275.215 167.351 275.302C166.943 272.899 166.541 270.562 166.138 268.226C163.419 251.826 160.582 234.844 154.568 219.194C152.27 213.267 149.45 207.386 146.712 201.696C145.054 198.184 143.253 194.553 141.685 190.934C140.205 187.572 138.817 184.893 137.589 182.529C134.495 176.54 132.305 172.218 131.172 163.027C128.843 143.563 129.664 123.954 133.551 104.737C133.919 102.925 134.323 101.144 134.722 99.2971C136.116 93.0144 137.523 86.5 137.681 80.0288C138 66.7241 132.918 54.5836 124.094 47.4818C122.713 46.3837 121.213 45.4277 119.742 44.4362L118.521 43.6536C109.502 37.7218 101.32 30.432 93.4872 23.3751C89.411 19.7124 85.1925 15.9304 80.8662 12.4214C81.4674 12.1382 82.0984 11.8194 82.7707 11.5959C86.8894 14.9913 90.859 18.5644 94.7517 22.0126C102.578 29.004 110.689 36.2342 119.607 42.1418L120.829 42.9245C122.329 43.8805 123.865 44.8662 125.317 46.024Z" fill="white"/>
<path d="M16.5908 72.7006C17.5454 82.1053 17.509 91.1025 16.4046 99.5672C15.854 104.195 14.6623 108.648 13.4946 113C10.7677 123.254 8.1557 132.937 13.9487 143.797C16.9071 149.369 21.5269 153.973 25.9987 158.391C29.8958 162.267 33.8997 166.233 36.9145 170.944C40.4258 176.435 42.5203 182.676 44.5322 188.727C46.3618 194.2 48.5298 199.776 50.8274 205.703C57.2844 222.269 63.918 239.348 63.6951 256.004C63.0666 255.598 62.438 255.192 61.8393 254.75C61.7626 238.811 55.3469 222.34 49.1076 206.38C46.8101 200.454 44.6065 194.848 42.7712 189.309C40.7707 183.389 38.7531 177.273 35.3541 171.937C32.4219 167.417 28.4891 163.511 24.6986 159.724C20.1202 155.216 15.3938 150.523 12.2817 144.7C6.19975 133.174 8.8841 123.188 11.6776 112.566C12.8211 108.315 13.9831 103.897 14.5451 99.4004C15.4737 91.9394 15.6131 84.1193 14.9577 75.8744C15.5499 74.7354 16.0526 73.7031 16.5908 72.7006Z" fill="white"/>
<path d="M116.618 57.6898C122.912 69.7571 125.56 82.7035 124.655 97.2126C124.128 105.495 123.054 113.562 121.958 121.367C120.003 135.54 118.144 148.946 119.604 163.743C120.804 175.959 126.842 184.721 133.217 193.948C135.139 196.712 137.102 199.571 138.982 202.603C148.244 217.342 152.453 234.567 155.07 247.911C155.713 251.117 156.326 254.358 156.974 257.628C158.177 263.848 159.392 270.199 160.731 276.474C160.113 276.561 159.495 276.648 158.876 276.735C157.537 270.461 156.328 264.175 155.125 257.955C154.512 254.714 153.899 251.473 153.256 248.268C150.65 235.054 146.53 218.085 137.422 203.596C135.548 200.63 133.584 197.771 131.698 195.037C125.169 185.559 119.019 176.642 117.779 163.968C116.332 148.94 118.149 135.438 120.158 121.129C121.225 113.359 122.339 105.388 122.837 97.1411C123.705 82.9646 121.151 70.3395 115.016 58.5876C108.403 45.8893 99.0519 39.9208 87.2275 32.4225L84.6124 30.7734C78.9611 27.1826 73.5129 23.2776 68.2679 19.0582C68.8278 18.6798 69.3934 18.3668 69.9591 18.0537C74.985 22.0286 80.1843 25.7249 85.5625 29.2077L88.1777 30.8569C100.245 38.4986 109.769 44.5509 116.618 57.6898Z" fill="white"/>
<path d="M14.2177 188.677C16.7633 193.298 16.903 199.413 16.8351 205.415C16.1735 204.254 15.5417 203.057 14.9753 201.855C14.9075 197.314 14.4588 192.939 12.6161 189.575C11.4407 187.438 9.55626 185.857 7.54105 184.287C7.18796 183.263 6.82915 182.175 6.5059 181.116C6.897 181.444 7.3535 181.766 7.74461 182.095C10.1808 183.957 12.688 185.879 14.2177 188.677Z" fill="white"/>
<path d="M147.425 39.6749C157.757 49.3135 162.543 64.4778 159.602 78.3085C158.72 82.5367 157.197 86.5905 155.662 90.5135C155.23 91.6055 154.834 92.7273 154.403 93.8193C145.201 118.938 143.295 146.482 148.855 173.505C151.311 185.381 156.472 196.921 161.432 208.051C164.504 214.931 167.66 222.002 170.161 229.13C174.105 240.316 175.116 252.252 176.058 263.767C176.321 266.774 176.56 269.883 176.859 272.921C176.246 273.074 175.669 273.256 175.056 273.408C174.711 270.21 174.436 267.071 174.162 263.932C173.196 252.519 172.232 240.743 168.37 229.748C165.91 222.715 162.755 215.644 159.718 208.794C154.716 197.569 149.514 185.933 147.012 173.897C141.358 146.553 143.3 118.676 152.669 93.2131C153.066 92.0913 153.497 90.9993 153.929 89.9073C155.404 86.0555 156.897 82.0373 157.761 77.9754C160.527 64.7859 155.965 50.2938 146.096 41.0431C140.716 36.0448 134.09 32.6053 127.641 29.3149C125.363 28.1305 122.985 26.922 120.701 25.6722C115.991 23.0533 111.759 19.8655 107.568 16.7729C104.96 14.8267 102.28 12.8209 99.5527 11.0169C97.5959 9.73855 95.7699 8.44868 93.9439 7.15884C94.6816 6.92958 95.4193 6.70034 96.1214 6.44123C97.562 7.46828 99.0324 8.45978 100.568 9.44555C103.367 11.3092 106.046 13.315 108.654 15.2612C112.774 18.2941 117.007 21.4819 121.544 24.0171C123.798 25.3024 126.142 26.481 128.449 27.6299C135.07 31.0041 141.833 34.4976 147.425 39.6749Z" fill="white"/>
<path d="M179.885 62.7301C180.392 72.6681 177.509 83.3969 171.585 93.634C170.557 95.4371 169.577 97.0384 168.627 98.604C164.162 105.946 160.941 111.301 160.325 121.206C159.66 131.675 159.707 142.378 160.497 152.917C162.149 175.57 167.779 201.138 176.405 224.795C177.671 228.341 179.139 231.936 180.529 235.405C183.517 242.82 186.629 250.52 188.414 258.502C189.164 261.797 189.723 265.174 190.115 268.533C189.544 268.781 188.937 268.998 188.33 269.216C187.926 265.726 187.391 262.248 186.636 258.888C184.832 251.073 181.792 243.432 178.845 236.113C177.454 232.643 175.987 229.049 174.686 225.473C166.043 201.619 160.336 175.927 158.666 153.077C157.9 142.437 157.847 131.669 158.507 121.134C159.148 110.766 162.459 105.304 167.067 97.7192C167.987 96.1891 168.997 94.5523 169.995 92.7848C175.746 82.8264 178.533 72.5014 178.024 62.9259C177.456 51.9061 172.397 41.9051 164.441 36.078C159.794 32.663 154.184 30.6828 148.742 28.721C147.721 28.3491 146.7 27.9772 145.679 27.6053C130.567 22.0748 116.237 14.1698 103.291 4.39759C104.064 4.19816 104.802 3.96892 105.61 3.79931C118.118 13.0827 131.886 20.5758 146.35 25.8664C147.371 26.2383 148.392 26.6101 149.413 26.982C154.957 28.9679 160.738 31.0319 165.593 34.5605C173.934 40.6504 179.336 51.1815 179.885 62.7301Z" fill="white"/>
<path d="M188.06 37.1743C192.469 44.2671 192.927 52.8916 193.335 60.5651C193.968 71.9417 193.997 82.8111 187.871 91.122C186.253 93.3391 184.274 95.1925 182.324 97.0103C180.56 98.6801 178.735 100.421 177.225 102.365C169.513 112.495 171.377 123.632 173.399 135.447C173.714 137.166 173.993 138.855 174.243 140.579C174.731 143.897 175.35 147.203 175.903 150.515C177.564 160.088 179.289 170.019 179.215 179.711L179.231 180.27C179.138 190.128 179.044 200.35 180.793 210.179C182.205 218.028 185.587 224.684 189.135 231.72C190.009 233.423 190.847 235.095 191.691 236.834C195.905 245.459 198.78 254.597 200.99 263.661C200.424 263.974 199.853 264.222 199.251 264.505C197.072 255.405 194.197 246.267 190.018 237.672C189.21 235.964 188.336 234.261 187.498 232.588C183.873 225.427 180.414 218.646 178.98 210.535C177.183 200.545 177.272 190.259 177.389 180.299L177.373 179.74C177.464 170.244 175.745 160.379 174.089 150.871C173.5 147.529 172.911 144.188 172.423 140.87C172.144 139.181 171.894 137.457 171.579 135.738C169.604 124.084 167.559 112.007 175.809 101.237C177.373 99.1566 179.292 97.3744 181.117 95.6334C182.971 93.8569 184.92 92.0391 186.419 89.9642C192.192 82.1453 192.127 71.6086 191.558 60.5888C191.173 53.1768 190.703 44.7841 186.559 38.0963C181.033 29.1575 170.409 25.2111 160.123 21.3669L158.01 20.5633C144.11 15.3222 130.761 8.84687 118.129 1.15568C119.104 1.00447 120.079 0.853199 121.025 0.737551C132.981 7.8619 145.601 13.907 158.682 18.8244L160.759 19.5981C171.229 23.6568 182.156 27.6755 188.06 37.1743Z" fill="white"/>
<path d="M66.6584 60.1827C74.2803 69.7289 80.7689 78.7482 82.4394 92.5708C83.6932 103.135 83.8582 114.059 83.9946 124.655C84.1795 138.443 84.369 152.659 87.0985 166.158C90.2255 181.566 97.6708 195.872 104.915 209.767C107.325 214.333 109.816 219.09 112.076 223.834C120.155 240.489 125.26 258.163 130.247 275.253C130.488 276.121 130.764 277.02 131.01 277.954C130.381 277.91 129.686 277.872 129.056 277.828C128.832 277.156 128.674 276.478 128.45 275.806C123.504 258.81 118.441 241.232 110.404 224.672C108.114 219.964 105.658 215.237 103.248 210.671C95.9625 196.68 88.4404 182.25 85.2251 166.585C82.4842 152.955 82.2832 138.609 82.0925 124.756C81.9619 114.225 81.7969 103.301 80.4892 92.8732C78.8587 79.5083 72.5536 70.7036 65.1209 61.4374C60.7951 56.0504 52.1404 47.8795 47.2578 48.9326C46.4491 49.1022 45.7939 49.5219 45.1972 50.233C44.5707 50.9797 44.0737 52.0774 43.6708 53.4963C43.0565 55.8892 43.4929 58.6184 43.8297 60.961L49.2983 95.6021C50.1242 100.9 50.0702 106.308 50.0644 111.513C49.9989 116.79 49.9805 122.228 50.8362 127.49C52.7046 139.055 56.3238 149.545 61.7306 158.626C70.8597 174.102 83.4673 197.708 87.598 223.834C89.2327 234.234 89.5113 244.949 89.821 255.267C89.9325 259.178 90.0084 263.059 90.1143 266.904C90.1531 267.724 90.1563 268.515 90.1596 269.305C89.5126 269.065 88.9012 268.855 88.2841 268.58C88.2682 268.021 88.2523 267.462 88.2363 266.903C88.1305 263.058 88.0545 259.177 87.9786 255.296C87.7045 245.009 87.3662 234.364 85.7728 224.06C81.7006 198.225 69.211 174.839 60.0934 159.494C54.6339 150.187 50.8668 139.512 48.9755 127.686C48.1026 122.227 48.1807 116.719 48.2106 111.412C48.2519 106.236 48.2818 100.929 47.5029 95.7921L42.0343 61.151C41.615 58.618 41.1614 55.6926 41.8721 52.896C42.7631 49.5235 44.4338 47.5324 46.8602 47.0236C54.6866 45.3506 66.546 60.0278 66.6584 60.1827Z" fill="white"/>
<path d="M32.4743 49.3697C36.9717 67.2608 39.4706 85.6561 39.8358 104.139C39.8856 106.968 39.8757 109.868 39.812 112.905C39.6937 123.227 39.5387 133.882 43.0676 142.962C45.2356 148.538 49.0923 153.834 52.902 158.97C55.5993 162.687 58.4388 166.524 60.6302 170.484C65.9279 180.2 70.4282 190.217 73.9419 200.254C79.1215 215.022 81.5415 232.139 81.0717 249.74C80.9237 254.827 80.7161 259.984 80.5027 265.077C79.8855 264.801 79.2983 264.49 78.6812 264.215C78.8876 259.419 79.0528 254.529 79.2237 249.704C79.7462 232.329 77.3134 215.444 72.2165 200.867C68.744 190.924 64.3205 181.033 59.0285 171.381C56.914 167.547 54.1456 163.77 51.4484 160.053C47.5974 154.822 43.634 149.436 41.4132 143.634C37.7548 134.203 37.8926 123.352 38.0293 112.863C38.0632 109.862 38.1086 106.992 38.0588 104.163C37.6797 86.274 35.3333 68.4913 31.048 51.1417C31.4599 50.5785 31.9671 49.9741 32.4743 49.3697Z" fill="white"/>
<path d="M142.161 278.098C140.234 266.242 137.218 251.351 131.074 237.228C126.545 226.884 120.932 217.327 115.478 208.085C103.956 188.602 93.1192 170.178 93.0353 145.872C93.0092 139.548 93.3938 133.025 93.8038 126.037C95.2169 101.897 96.7219 76.9244 80.9951 58.3356C75.9994 52.4472 70.0915 47.4293 64.3969 42.5904C60.5512 39.3029 56.5335 35.9316 52.8909 32.3298C52.423 31.8765 51.9493 31.3579 51.4344 30.7441C50.9754 31.1466 50.4809 31.5193 50.022 31.9219C50.5725 32.5655 51.0874 33.1794 51.5909 33.6625C55.3046 37.3239 59.2925 40.7308 63.2036 44.0126C68.8626 48.8217 74.7349 53.8097 79.5884 59.5788C94.8714 77.6134 93.3974 102.188 91.9855 125.966C91.5756 132.953 91.1611 139.512 91.2228 145.866C91.3169 170.665 102.301 189.273 113.912 209.013C119.36 218.189 124.938 227.717 129.425 237.965C135.44 251.737 138.433 266.367 140.319 278.128L142.161 278.098Z" fill="white"/>
<path d="M25.1165 59.0077C27.3879 69.1537 28.9686 79.6896 29.7576 90.5913C30.2758 97.2668 29.9152 103.69 29.5972 109.845C28.8496 123.517 28.1342 136.428 36.8656 149.996C39.4195 153.956 42.3542 157.752 45.1823 161.458C48.3005 165.468 51.4955 169.603 54.2202 174.01C70.4627 199.999 73.4854 230.406 71.9321 260.852C71.3448 260.541 70.722 260.2 70.129 259.824C71.5376 229.984 68.4769 200.272 52.6541 174.937C49.9707 170.626 46.8112 166.52 43.6987 162.576C40.8351 158.84 37.8648 155.015 35.2399 150.994C26.2011 136.927 26.8936 123.754 27.678 109.75C28.0316 103.624 28.368 97.302 27.8613 90.7573C27.0996 80.545 25.7069 70.6515 23.6179 61.0825C24.1492 60.3772 24.6151 59.6775 25.1165 59.0077Z" fill="white"/>
<path d="M148.492 277.775C148.073 275.242 147.725 272.769 147.341 270.266C145.273 256.412 143.099 242.106 138.045 228.777C136.367 224.279 134.192 219 131.005 214.206C128.947 211.025 126.414 208.051 123.957 205.202C105.383 183.436 98.0759 156.402 102.17 124.877C102.646 121.278 103.241 117.536 103.854 113.99C105.692 102.99 107.531 91.6279 105.648 80.6571C101.871 58.9473 85.3928 46.4531 67.9543 33.1535C64.7061 30.6703 61.4223 28.1572 58.1982 25.5731C58.7581 25.1946 59.2527 24.8219 59.7827 24.479C62.829 26.914 65.9706 29.3077 69.0766 31.6716C86.0528 44.5834 103.598 57.9726 107.498 80.3306C109.474 91.6226 107.551 103.157 105.724 114.287C105.112 117.833 104.511 121.51 104.036 125.109C99.9906 156.069 107.192 182.652 125.4 203.989C127.862 206.903 130.395 209.877 132.559 213.147C135.859 218.097 138.075 223.471 139.795 228.064C144.931 241.584 147.116 256.02 149.161 269.975C149.55 272.543 149.904 275.082 150.359 277.645L148.492 277.775Z" fill="white"/>
<path d="M194.218 23.1941C197.724 26.7419 199.451 32.5539 200.985 37.658C201.402 39.0381 201.784 40.3883 202.22 41.6021C204.303 47.7124 206.548 54.9286 207.378 62.5323C208.618 73.691 206.456 83.9943 201.242 91.4348C198.901 94.8024 196.068 97.8176 193.325 100.726C185.792 108.765 179.285 115.726 183.814 127.585C193.356 152.678 197.506 180.153 195.799 206.955L195.716 208.643C195.404 212.986 195.134 217.424 195.963 221.635C196.781 225.714 198.705 229.631 200.547 233.357L201.349 235C204.973 242.524 208.096 250.356 210.577 258.375C210.011 258.688 209.481 259.031 208.915 259.344C206.429 251.259 203.33 243.327 199.671 235.773L198.868 234.13C196.95 230.279 194.985 226.267 194.144 221.926C193.226 217.459 193.55 212.885 193.821 208.446L193.934 206.723C195.599 180.189 191.477 153.04 182.053 128.167C177.129 115.189 184.364 107.506 191.957 99.3963C194.64 96.5589 197.444 93.5792 199.695 90.3183C204.64 83.1978 206.682 73.3992 205.512 62.6626C204.699 55.2552 202.495 48.1342 200.423 42.1547C199.987 40.9409 199.57 39.5607 199.183 38.145C197.702 33.2669 196.027 27.6811 192.847 24.4671C184.283 15.827 170.377 10.5204 159.165 6.26302L158.073 5.83146C154.904 4.62621 151.568 3.40258 148.066 2.16055C145.787 1.33865 143.472 0.486887 141.122 -0.394667C143.101 -0.370129 145.08 -0.345542 147.07 -0.190219C147.616 0.0255637 148.162 0.241344 148.738 0.421581C152.275 1.69344 155.611 2.91707 158.816 4.15216L159.908 4.58372C171.226 8.93063 185.369 14.3153 194.218 23.1941Z" fill="white"/>
<path d="M207.767 17.6598C209.116 19.5185 210.345 21.5195 211.46 23.728C216.184 32.9018 218.543 43.3037 220.385 52.3013C222.267 61.3942 224.005 71.0927 222.731 80.6265C221.359 90.9266 216.452 99.2298 208.559 104.664L208.339 104.783C200.756 109.992 195.318 113.73 194.494 123.521C193.874 131.119 196.268 138.52 198.94 146.094L200.423 150.248C206.028 165.736 211.78 181.771 210.161 198.286C209.83 201.28 209.333 204.256 208.764 207.172C207.983 211.424 207.184 215.843 207.204 220.223C207.273 231.55 212.645 242.116 217.858 252.368C218.017 252.683 218.212 253.028 218.341 253.38C217.847 253.752 217.317 254.095 216.787 254.438C216.586 254.027 216.385 253.617 216.185 253.206C210.86 242.8 205.37 232.013 205.326 220.222C205.294 215.712 206.118 211.192 206.893 206.874C207.402 204.029 207.965 201.048 208.236 198.125C209.83 182.073 204.095 166.234 198.603 150.901L197.119 146.748C194.329 138.953 191.882 131.326 192.605 123.389C193.485 112.737 199.548 108.616 207.221 103.299L207.405 103.151C214.863 98.0181 219.513 90.1656 220.8 80.4001C222.032 71.1336 220.311 61.6312 218.476 52.6989C216.61 43.8023 214.268 33.5965 209.693 24.6075C207.904 21.107 205.828 18.0929 203.555 15.4585C203.626 15.5182 203.727 15.5424 203.798 15.602L207.767 17.6598Z" fill="white"/>
<path d="M223.326 27.9282C230.963 45.1821 234.584 60.5802 234.351 74.8658C234.069 89.7158 229.794 100.731 221.258 108.594C220.006 109.725 218.653 110.832 217.33 111.903C213.606 114.897 210.131 117.738 208.418 121.874C206.572 126.384 207.416 131.516 208.474 136.826C211.128 149.838 214.316 162.935 217.874 175.736L218.103 176.473C219.724 182.196 221.356 188.049 221.128 194.098C221.037 196.445 220.673 198.684 220.308 200.923C220.029 202.628 219.756 204.398 219.613 206.157C218.452 219.239 224.804 231.597 231.152 243.528C230.693 243.931 230.204 244.369 229.71 244.742C223.131 232.436 216.518 219.737 217.754 205.99C217.926 204.196 218.194 202.36 218.503 200.62C218.873 198.446 219.237 196.207 219.31 194.027C219.531 188.275 217.91 182.552 216.337 176.99L216.137 176.217C212.478 163.392 209.32 150.26 206.66 137.183C205.514 131.616 204.677 126.188 206.679 121.203C208.554 116.657 212.398 113.52 216.152 110.49C217.445 109.455 218.798 108.348 220.02 107.253C228.163 99.7866 232.246 89.2163 232.509 74.8952C232.761 60.0807 228.751 43.992 220.303 25.7547L220.374 25.8144L223.326 27.9282Z" fill="white"/>
<path d="M233.319 36.3117L236.483 39.3294C240.678 49.999 244.378 61.0414 245.391 72.6154C246.874 89.1888 242.081 104.071 232.321 113.392C231.409 114.262 230.461 115.103 229.478 115.914C227.118 117.932 224.882 119.874 223.358 122.412C219.187 129.333 221.715 135.635 224.373 142.288C225.257 144.484 226.182 146.775 226.881 149.119C230.342 160.808 231.888 172.83 231.46 184.892C231.363 187.174 231.231 189.426 231.069 191.713C230.767 196.549 230.417 201.588 230.811 206.462C231.65 216.437 235.475 225.887 239.83 234.994C239.412 235.492 238.894 235.966 238.44 236.434C233.921 226.946 229.8 217.126 228.944 206.592C228.539 201.587 228.883 196.484 229.179 191.582C229.312 189.33 229.444 187.078 229.577 184.826C230.021 172.96 228.492 161.135 225.049 149.642C224.391 147.393 223.471 145.167 222.587 142.972C219.853 136.193 216.995 129.13 221.662 121.473C223.329 118.692 225.779 116.567 228.139 114.548C229.057 113.743 230.041 112.932 230.923 112.097C240.319 103.138 244.866 88.8372 243.435 72.8523C242.45 60.0899 237.998 47.9932 233.319 36.3117Z" fill="white"/>
<path d="M248.405 52.4854L251.458 56.5013C252.936 62.1044 254.153 67.7304 254.817 73.4377C256.816 90.2625 252.924 106.021 244.063 116.581C243.144 117.749 242.118 118.827 241.128 119.935C236.773 124.763 232.299 129.734 233.147 135.656C233.531 138.159 234.89 140.511 236.243 142.798L236.857 143.798C245.01 157.91 248.203 175.191 245.557 191.269C245.254 193.075 244.891 194.951 244.487 196.733C243.586 201.127 242.667 205.688 242.86 210.152C243.096 215.864 245.122 221.32 247.577 226.409C247.159 226.907 246.712 227.441 246.264 227.974C243.543 222.479 241.246 216.553 240.988 210.217C240.772 205.492 241.745 200.794 242.67 196.299C243.038 194.487 243.407 192.676 243.71 190.87C246.295 175.226 243.238 158.362 235.25 144.631L234.671 143.66C233.241 141.249 231.77 138.742 231.352 135.846C230.364 129.08 235.172 123.783 239.795 118.635C240.786 117.527 241.746 116.455 242.671 115.352C251.203 105.184 254.946 89.9649 252.987 73.5978C252.137 66.523 250.533 59.4814 248.405 52.4854Z" fill="white"/>
<path d="M259.865 69.372L262.499 74.2481C262.911 77.0783 263.258 79.9142 263.57 82.7202C264.624 92.5115 260.999 104.919 252.89 119.565C252.406 120.431 251.922 121.297 251.378 122.234C249.226 125.881 246.787 130.015 246.364 133.841C245.941 137.667 247.553 142.533 248.983 146.823C249.477 148.328 249.965 149.768 250.311 151.088L250.787 152.76C253.993 164.175 257.299 175.976 255.421 188.034C255.124 189.905 254.696 191.787 254.327 193.599C253.711 196.354 253.078 199.276 252.896 202.092C252.648 206.792 253.637 211.317 255.334 215.65C254.927 216.278 254.521 216.907 254.079 217.505C252.064 212.542 250.792 207.415 251.072 201.955C251.236 198.942 251.9 195.985 252.54 193.129C252.944 191.347 253.342 189.501 253.58 187.701C255.361 176.047 252.138 164.436 248.985 153.247L248.509 151.575C248.133 150.29 247.68 148.88 247.156 147.411C245.68 142.961 243.985 137.904 244.469 133.644C244.923 129.42 247.446 125.115 249.717 121.325C250.231 120.423 250.781 119.552 251.235 118.721C259.176 104.42 262.705 92.4158 261.685 83.0168C261.29 78.5049 260.664 73.9804 259.865 69.372Z" fill="white"/>
<path d="M264.947 198.632C264.485 194.489 264.564 190.496 264.697 186.366C264.761 183.329 264.849 180.192 264.699 176.976C264.126 165.528 262.214 154.593 258.986 144.432C258.798 143.79 258.539 143.088 258.315 142.415C256.762 137.84 255.056 132.652 256.879 127.88C257.982 125.049 259.816 122.286 261.59 119.594C262.808 117.709 263.973 115.959 264.906 114.198C268.292 107.708 270.163 100.856 270.954 93.7037C271.401 95.0483 271.848 96.3929 272.266 97.773C271.271 103.724 269.439 109.518 266.561 115.041C265.604 116.904 264.35 118.76 263.161 120.61C261.447 123.231 259.672 125.923 258.653 128.582C257.07 132.706 258.682 137.573 260.141 141.827C260.401 142.529 260.624 143.202 260.848 143.874C264.153 154.16 266.082 165.291 266.667 176.87C266.822 180.151 266.74 183.354 266.646 186.426C266.577 189.397 266.496 192.237 266.652 195.156L264.947 198.632Z" fill="white"/>
<path d="M276.024 164.422C274.96 159.046 273.606 153.729 271.93 148.505L271.336 146.613C269.807 141.937 268.266 137.13 268.384 132.079C268.574 125.21 271.222 118.949 273.792 112.926C274.253 111.799 274.714 110.671 275.206 109.508C275.464 110.573 275.656 111.643 275.884 112.743C275.776 113.016 275.638 113.325 275.531 113.598C273.015 119.484 270.45 125.573 270.262 132.08C270.145 136.768 271.644 141.48 273.127 145.995L273.721 147.887C274.944 151.701 275.971 155.531 276.873 159.439L276.024 164.422Z" fill="white"/>
<path d="M62.9898 80.7323C61.4527 80.109 59.8777 80.1809 58.6868 80.8781C56.3703 82.2668 56.1046 85.2551 56.0973 87.4301C56.1147 96.2909 57.1543 105.161 59.223 113.743C60.7817 120.262 64.3691 124.363 68.0906 123.971C69.3628 123.827 70.4287 123.207 71.2939 122.176C72.8452 120.327 73.7591 117.216 73.8621 113.122C74.0846 103.614 71.8704 94.1217 67.4718 85.6443C66.7219 84.2274 65.7885 82.5959 64.2711 81.4438C63.8857 81.181 63.4349 80.924 62.9898 80.7323ZM65.8346 86.5123C70.1094 94.7041 72.2295 103.875 72.0141 113.086C71.8775 118.303 70.2488 121.905 67.9005 122.176C65.6176 122.442 62.5255 119.483 61.0666 113.351C59.0093 104.9 57.9514 96.1961 57.9453 87.4661C57.9502 86.0161 58.0815 84.1267 59.0063 83.0245C59.1853 82.8112 59.3999 82.6277 59.65 82.4741C60.3705 82.0486 61.3273 82.0637 62.3482 82.4357C62.6567 82.5734 62.9354 82.7467 63.2497 82.9498C64.3818 83.8391 65.1971 85.2503 65.8346 86.5123Z" fill="white"/>
<path d="M111.177 251.554L111.376 252.327C113.654 260.661 116.004 268.691 118.372 276.556C117.706 276.482 117.035 276.343 116.364 276.204C114.055 268.631 111.823 260.821 109.604 252.779L109.369 251.976C105.789 238.551 102.983 235.469 101.248 235.225C99.9831 235.072 98.7117 236.732 97.9462 238.15C96.5472 240.611 96.8104 243.619 97.2443 247.073L100.604 272.674C99.9631 272.5 99.3218 272.325 98.645 272.121L95.3893 247.334C95.0068 244.469 94.4915 240.462 96.3208 237.271C97.9229 234.495 99.6864 233.187 101.516 233.39C105.918 233.993 108.982 243.411 111.177 251.554Z" fill="white"/>
</g>
</g>
<defs>
<clipPath id="clip0">
<rect width="278" height="278" fill="white"/>
</clipPath>
</defs>
</svg>
