<svg width="235" height="235" viewBox="0 0 235 235" fill="none" xmlns="http://www.w3.org/2000/svg">
<g clip-path="url(#clip0)">
<g opacity="0.22">
<path d="M0.243339 110.764C0.191532 117.163 0.781575 123.59 3.57727 128.85C6.10878 133.633 9.77605 137.733 13.3736 141.672C16.9161 145.616 20.5785 149.661 23.1952 154.464C26.5144 160.624 27.8905 167.454 29.2473 174.064C30.283 179.228 31.338 184.613 33.3825 189.55C34.0143 191.052 34.6461 192.554 35.2828 194.11C36.8948 197.917 38.4865 201.81 39.8874 205.746C39.0724 205.011 38.2574 204.276 37.4424 203.541C36.3491 200.579 35.0903 197.631 33.8663 194.763C33.2296 193.206 32.5678 191.679 31.9359 190.177C29.8518 185.105 28.7668 179.695 27.7214 174.42C26.4295 167.916 25.0631 161.196 21.8484 155.277C19.3313 150.66 15.7289 146.665 12.2213 142.802C8.5889 138.782 4.83162 134.607 2.20044 129.638C1.40305 128.15 0.786722 126.508 0.280774 124.857C-0.0240639 120.101 -0.0433252 115.432 0.243339 110.764Z" fill="#EACDC1"/>
<path d="M105.862 39.1886C113.669 45.4842 118.166 56.212 117.911 67.9117C117.792 73.5384 116.554 79.096 115.383 84.4533C115.041 85.9568 114.73 87.4854 114.419 89.0139C111.125 105.067 110.472 121.444 112.423 137.705C113.301 145.191 115.139 148.728 117.681 153.621C118.717 155.616 119.893 157.932 121.172 160.795C122.521 163.819 123.985 166.888 125.384 169.852C127.695 174.654 130.105 179.642 132.024 184.729C137.169 198.097 139.598 212.509 141.903 226.459C142.212 228.406 142.551 230.379 142.891 232.351C142.374 232.479 141.857 232.608 141.335 232.681C140.991 230.654 140.651 228.682 140.312 226.71C138.017 212.87 135.623 198.538 130.547 185.331C128.608 180.329 126.228 175.366 123.917 170.564C122.518 167.6 120.999 164.536 119.675 161.482C118.426 158.644 117.255 156.383 116.218 154.389C113.608 149.334 111.759 145.687 110.803 137.93C108.837 121.504 109.53 104.956 112.81 88.7377C113.121 87.2091 113.462 85.7057 113.799 84.1471C114.975 78.8449 116.162 73.3472 116.296 67.8861C116.565 56.6579 112.277 46.4123 104.829 40.4189C103.664 39.4922 102.398 38.6854 101.157 37.8487L100.126 37.1882C92.5149 32.1822 85.6098 26.0301 78.9998 20.0747C75.5598 16.9837 71.9998 13.792 68.3487 10.8306C68.8561 10.5916 69.3886 10.3226 69.956 10.1339C73.4318 12.9994 76.7818 16.0148 80.067 18.9248C86.6721 24.8251 93.5172 30.9268 101.043 35.9124L102.074 36.5729C103.34 37.3796 104.636 38.2115 105.862 39.1886Z" fill="#EACDC1"/>
<path d="M14.1066 61.7018C14.9122 69.6386 14.8815 77.2315 13.9495 84.3751C13.4848 88.2804 12.4791 92.0384 11.4937 95.7112C9.1924 104.365 6.98804 112.537 11.8769 121.701C14.3736 126.404 18.2723 130.289 22.0461 134.018C25.3351 137.289 28.714 140.636 31.2582 144.612C34.2216 149.246 35.9891 154.513 37.687 159.619C39.2311 164.238 41.0607 168.944 42.9997 173.945C48.4489 187.926 54.0472 202.339 53.8591 216.396C53.3286 216.053 52.7982 215.71 52.2929 215.338C52.2282 201.887 46.8138 187.986 41.5483 174.517C39.6094 169.516 37.7497 164.785 36.2008 160.11C34.5126 155.115 32.8099 149.953 29.9414 145.45C27.4668 141.635 24.1479 138.338 20.949 135.143C17.0851 131.338 13.0964 127.378 10.4701 122.464C5.33737 112.737 7.60275 104.309 9.96024 95.3449C10.9253 91.7573 11.9059 88.0292 12.3802 84.2343C13.1639 77.9379 13.2815 71.3382 12.7284 64.3802C13.2282 63.419 13.6524 62.5478 14.1066 61.7018Z" fill="#EACDC1"/>
<path d="M98.5207 49.0338C103.832 59.2177 106.067 70.1435 105.303 82.3881C104.858 89.3778 103.953 96.1854 103.028 102.772C101.377 114.733 99.809 126.047 101.041 138.534C102.054 148.844 107.149 156.239 112.529 164.026C114.151 166.358 115.808 168.771 117.394 171.329C125.211 183.768 128.763 198.305 130.971 209.566C131.514 212.271 132.031 215.006 132.578 217.767C133.594 223.016 134.619 228.376 135.749 233.671C135.227 233.744 134.705 233.818 134.184 233.891C133.053 228.596 132.033 223.292 131.018 218.042C130.5 215.307 129.983 212.572 129.44 209.867C127.242 198.716 123.764 184.395 116.077 172.167C114.496 169.664 112.839 167.251 111.247 164.944C105.737 156.946 100.547 149.421 99.5002 138.725C98.2794 126.042 99.8126 114.648 101.509 102.572C102.409 96.0147 103.349 89.2874 103.769 82.3277C104.502 70.3639 102.346 59.7092 97.169 49.7916C91.5883 39.0751 83.6964 34.0381 73.7175 27.7102L71.5105 26.3184C66.7413 23.2881 62.1434 19.9925 57.717 16.4318C58.1895 16.1124 58.6669 15.8482 59.1442 15.584C63.3858 18.9385 67.7735 22.0579 72.3124 24.9972L74.5193 26.3889C84.7035 32.8379 92.7406 37.9456 98.5207 49.0338Z" fill="#EACDC1"/>
<path d="M12.1047 159.577C14.253 163.476 14.3709 168.638 14.3136 173.703C13.7552 172.723 13.222 171.713 12.744 170.698C12.6868 166.866 12.3082 163.174 10.753 160.335C9.76112 158.531 8.17079 157.197 6.47011 155.872C6.17213 155.008 5.86933 154.09 5.59652 153.196C5.92659 153.473 6.31183 153.745 6.6419 154.022C8.69783 155.594 10.8138 157.216 12.1047 159.577Z" fill="#EACDC1"/>
<path d="M124.521 33.8306C133.24 41.9648 137.279 54.7624 134.797 66.4344C134.052 70.0027 132.767 73.4238 131.472 76.7345C131.107 77.656 130.773 78.6028 130.409 79.5243C122.644 100.722 121.035 123.968 125.727 146.773C127.8 156.795 132.155 166.535 136.341 175.927C138.934 181.734 141.597 187.701 143.708 193.716C147.036 203.156 147.89 213.23 148.684 222.947C148.906 225.485 149.108 228.109 149.36 230.673C148.843 230.801 148.356 230.955 147.839 231.084C147.548 228.384 147.316 225.736 147.084 223.087C146.269 213.455 145.455 203.517 142.197 194.238C140.121 188.303 137.458 182.335 134.894 176.554C130.674 167.081 126.284 157.261 124.172 147.103C119.4 124.027 121.04 100.501 128.946 79.0128C129.281 78.0661 129.645 77.1445 130.009 76.223C131.254 72.9723 132.514 69.5812 133.243 66.1533C135.578 55.0224 131.727 42.7922 123.398 34.9853C118.859 30.7671 113.267 27.8644 107.825 25.0875C105.902 24.088 103.895 23.0681 101.967 22.0134C97.9926 19.8033 94.4209 17.113 90.884 14.5031C88.6828 12.8607 86.4217 11.1679 84.1198 9.6455C82.4685 8.56663 80.9275 7.47809 79.3865 6.38957C80.009 6.19608 80.6316 6.00261 81.2241 5.78395C82.4399 6.6507 83.6808 7.48746 84.9769 8.31937C87.3388 9.89214 89.5999 11.5849 91.8011 13.2273C95.278 15.7869 98.8497 18.4772 102.679 20.6166C104.581 21.7013 106.559 22.696 108.507 23.6656C114.094 26.5131 119.801 29.4614 124.521 33.8306Z" fill="#EACDC1"/>
<path d="M151.914 53.2873C152.342 61.6742 149.909 70.7285 144.909 79.3678C144.042 80.8895 143.215 82.2408 142.413 83.5621C138.645 89.7582 135.927 94.2778 135.407 102.636C134.845 111.471 134.885 120.504 135.552 129.398C136.946 148.516 141.698 170.093 148.977 190.058C150.045 193.051 151.284 196.084 152.458 199.012C154.979 205.269 157.605 211.768 159.112 218.504C159.744 221.284 160.216 224.134 160.548 226.969C160.065 227.178 159.553 227.362 159.041 227.546C158.7 224.601 158.249 221.665 157.611 218.829C156.089 212.234 153.523 205.786 151.036 199.609C149.863 196.681 148.624 193.648 147.526 190.63C140.232 170.499 135.416 148.817 134.007 129.533C133.36 120.554 133.316 111.466 133.872 102.576C134.414 93.8262 137.208 89.2167 141.096 82.8154C141.873 81.5241 142.725 80.1428 143.568 78.6511C148.421 70.247 150.773 61.5335 150.344 53.4525C149.864 44.1527 145.594 35.7126 138.88 30.7949C134.958 27.9129 130.225 26.2418 125.631 24.5862C124.77 24.2723 123.908 23.9585 123.047 23.6447C110.294 18.9773 98.1995 12.3061 87.2742 4.05911C87.9267 3.89081 88.5493 3.69734 89.2318 3.55421C99.7874 11.3887 111.406 17.7122 123.613 22.1771C124.475 22.491 125.336 22.8048 126.198 23.1187C130.877 24.7946 135.755 26.5364 139.853 29.5143C146.892 34.6537 151.451 43.5411 151.914 53.2873Z" fill="#EACDC1"/>
<path d="M158.813 31.7202C162.534 37.706 162.92 44.9844 163.264 51.4603C163.798 61.0612 163.822 70.2342 158.653 77.248C157.288 79.119 155.617 80.6831 153.972 82.2172C152.483 83.6265 150.943 85.0958 149.669 86.7364C143.16 95.2854 144.733 104.684 146.439 114.655C146.705 116.106 146.941 117.531 147.152 118.986C147.564 121.786 148.086 124.576 148.553 127.371C149.955 135.45 151.411 143.831 151.348 152.01L151.361 152.482C151.283 160.802 151.204 169.428 152.68 177.723C153.871 184.347 156.726 189.964 159.72 195.902C160.457 197.339 161.165 198.751 161.877 200.217C165.433 207.497 167.859 215.208 169.724 222.858C169.247 223.122 168.765 223.331 168.257 223.57C166.418 215.89 163.991 208.179 160.465 200.925C159.783 199.483 159.046 198.046 158.338 196.635C155.279 190.591 152.36 184.869 151.149 178.024C149.633 169.593 149.708 160.912 149.807 152.507L149.793 152.035C149.87 144.021 148.419 135.696 147.022 127.672C146.525 124.852 146.028 122.031 145.616 119.231C145.381 117.806 145.17 116.351 144.904 114.901C143.237 105.065 141.511 94.8735 148.473 85.7844C149.793 84.0286 151.413 82.5245 152.953 81.0553C154.518 79.556 156.163 78.0219 157.428 76.2709C162.3 69.6723 162.245 60.7801 161.765 51.4802C161.44 45.2251 161.043 38.1423 157.546 32.4983C152.882 24.9546 143.916 21.6242 135.236 18.38L133.453 17.7018C121.722 13.2787 110.457 7.81405 99.7961 1.32327C100.619 1.19566 101.442 1.068 102.24 0.970403C112.33 6.9828 122.98 12.0844 134.02 16.2343L135.773 16.8872C144.608 20.3125 153.83 23.704 158.813 31.7202Z" fill="#EACDC1"/>
<path d="M56.3606 51.1375C62.7929 59.1937 68.2688 66.8054 69.6786 78.4706C70.7366 87.3862 70.8759 96.6047 70.991 105.547C71.1471 117.183 71.307 129.18 73.6104 140.573C76.2495 153.576 82.5327 165.649 88.6466 177.375C90.6798 181.229 92.7826 185.243 94.6898 189.247C101.508 203.302 105.816 218.217 110.025 232.64C110.228 233.373 110.461 234.131 110.669 234.919C110.137 234.883 109.551 234.85 109.019 234.814C108.831 234.246 108.697 233.674 108.508 233.107C104.334 218.764 100.061 203.929 93.2781 189.954C91.3457 185.98 89.2729 181.991 87.2398 178.138C81.091 166.331 74.743 154.153 72.0294 140.933C69.7163 129.43 69.5468 117.323 69.3858 105.632C69.2756 96.7447 69.1363 87.5262 68.0327 78.7258C66.6567 67.4469 61.3357 60.0163 55.0631 52.1963C51.4124 47.6502 44.1085 40.7545 39.988 41.6433C39.3055 41.7864 38.7526 42.1406 38.249 42.7407C37.7203 43.3708 37.3009 44.2972 36.9608 45.4947C36.4424 47.5141 36.8107 49.8173 37.0949 51.7943L41.71 81.0287C42.407 85.4997 42.3614 90.0634 42.3565 94.4567C42.3013 98.91 42.2857 103.499 43.0079 107.94C44.5846 117.7 47.639 126.552 52.2019 134.216C59.9061 147.277 70.5461 167.198 74.032 189.247C75.4115 198.023 75.6467 207.066 75.908 215.774C76.0021 219.074 76.0662 222.349 76.1555 225.594C76.1883 226.287 76.191 226.954 76.1938 227.621C75.6478 227.418 75.1318 227.241 74.611 227.008C74.5976 226.537 74.5842 226.065 74.5707 225.594C74.4814 222.349 74.4173 219.074 74.3532 215.799C74.1219 207.116 73.8364 198.133 72.4917 189.437C69.055 167.634 58.5148 147.899 50.8202 134.948C46.2128 127.094 43.0337 118.086 41.4376 108.105C40.7009 103.499 40.7668 98.8497 40.7921 94.3712C40.8269 90.003 40.8522 85.5245 40.1948 81.1891L35.5797 51.9547C35.2259 49.817 34.8431 47.3482 35.4429 44.988C36.1948 42.1419 37.6048 40.4616 39.6524 40.0322C46.2573 38.6203 56.2658 51.0068 56.3606 51.1375Z" fill="#EACDC1"/>
<path d="M27.509 42.0124C31.3045 57.1111 33.4134 72.6354 33.7216 88.2338C33.7636 90.6212 33.7553 93.0686 33.7015 95.6312C33.6017 104.342 33.4709 113.334 36.449 120.998C38.2786 125.703 41.5334 130.173 44.7485 134.507C47.0248 137.644 49.4211 140.882 51.2704 144.223C55.7413 152.423 59.5392 160.877 62.5046 169.348C66.8757 181.81 68.918 196.256 68.5216 211.11C68.3967 215.402 68.2214 219.755 68.0413 224.052C67.5205 223.82 67.0249 223.558 66.5041 223.325C66.6783 219.278 66.8177 215.151 66.9619 211.079C67.4029 196.416 65.3498 182.166 61.0484 169.864C58.1179 161.474 54.3848 153.126 49.9188 144.981C48.1343 141.745 45.798 138.557 43.5217 135.42C40.2718 131.006 36.927 126.461 35.0528 121.565C31.9654 113.605 32.0817 104.448 32.197 95.596C32.2257 93.0634 32.264 90.6412 32.2219 88.2538C31.902 73.1568 29.9218 58.1495 26.3053 43.5078C26.653 43.0326 27.081 42.5225 27.509 42.0124Z" fill="#EACDC1"/>
<path d="M120.077 235.042C118.451 225.036 115.906 212.469 110.72 200.55C106.898 191.821 102.161 183.755 97.5587 175.956C87.8348 159.513 78.6896 143.965 78.6188 123.452C78.5968 118.116 78.9214 112.611 79.2674 106.714C80.4599 86.341 81.7301 65.2663 68.4578 49.5787C64.2418 44.6093 59.256 40.3746 54.4502 36.291C51.2048 33.5165 47.8141 30.6714 44.74 27.6318C44.3451 27.2493 43.9454 26.8116 43.5108 26.2936C43.1235 26.6333 42.7062 26.9478 42.3189 27.2875C42.7834 27.8308 43.218 28.3488 43.6429 28.7565C46.777 31.8465 50.1425 34.7216 53.4431 37.4912C58.2189 41.5497 63.1747 45.7592 67.2707 50.6279C80.1684 65.8477 78.9244 86.5865 77.7329 106.653C77.3869 112.55 77.0372 118.086 77.0892 123.447C77.1686 144.376 86.4386 160.08 96.237 176.739C100.835 184.483 105.542 192.523 109.329 201.172C114.405 212.795 116.931 225.141 118.522 235.067L120.077 235.042Z" fill="#EACDC1"/>
<path d="M21.2979 50.146C23.2148 58.7085 24.5488 67.6 25.2147 76.8002C25.6519 82.4338 25.3477 87.8543 25.0793 93.0491C24.4483 104.587 23.8446 115.483 31.2133 126.933C33.3685 130.275 35.8452 133.478 38.2319 136.606C40.8634 139.99 43.5598 143.48 45.8592 147.199C59.5666 169.132 62.1176 194.793 60.8067 220.487C60.311 220.225 59.7854 219.937 59.285 219.619C60.4738 194.437 57.8908 169.362 44.5375 147.982C42.273 144.343 39.6066 140.879 36.9799 137.55C34.5632 134.397 32.0565 131.169 29.8413 127.776C22.2132 115.904 22.7976 104.787 23.4596 92.9684C23.758 87.7987 24.0419 82.4635 23.6143 76.9403C22.9715 68.3219 21.7962 59.9726 20.0332 51.8971C20.4815 51.3018 20.8747 50.7113 21.2979 50.146Z" fill="#EACDC1"/>
<path d="M125.419 234.769C125.065 232.631 124.771 230.544 124.448 228.432C122.702 216.74 120.867 204.667 116.602 193.419C115.186 189.622 113.35 185.168 110.661 181.121C108.925 178.437 106.787 175.927 104.713 173.523C89.0379 155.154 82.8714 132.339 86.3269 105.735C86.7284 102.697 87.2306 99.5391 87.7473 96.5468C89.2984 87.2638 90.8506 77.6749 89.2621 68.4164C86.0744 50.095 72.1678 39.5509 57.4511 28.327C54.7099 26.2314 51.9386 24.1106 49.2177 21.9297C49.6903 21.6104 50.1076 21.2958 50.5549 21.0065C53.1258 23.0614 55.777 25.0815 58.3982 27.0764C72.7249 37.973 87.5316 49.2724 90.8228 68.1409C92.4906 77.6705 90.8677 87.4045 89.3263 96.7979C88.8096 99.7902 88.3025 102.893 87.901 105.931C84.4873 132.059 90.5648 154.492 105.931 172.499C108.009 174.959 110.147 177.468 111.973 180.228C114.757 184.405 116.627 188.94 118.079 192.817C122.413 204.226 124.258 216.409 125.983 228.186C126.312 230.354 126.61 232.496 126.994 234.659L125.419 234.769Z" fill="#EACDC1"/>
<path d="M164.008 19.922C166.967 22.9161 168.425 27.8209 169.719 32.1284C170.071 33.2931 170.393 34.4326 170.761 35.457C172.519 40.6136 174.414 46.7035 175.114 53.1204C176.161 62.5375 174.336 71.2327 169.936 77.5119C167.961 80.3539 165.57 82.8985 163.254 85.3532C156.897 92.1373 151.406 98.0115 155.228 108.02C163.281 129.196 166.783 152.384 165.342 175.003L165.272 176.427C165.009 180.092 164.781 183.837 165.481 187.391C166.171 190.833 167.795 194.139 169.349 197.284L170.027 198.67C173.084 205.02 175.72 211.629 177.813 218.397C177.336 218.661 176.889 218.95 176.411 219.214C174.313 212.391 171.698 205.697 168.61 199.322L167.933 197.936C166.314 194.686 164.655 191.3 163.945 187.636C163.171 183.867 163.445 180.006 163.673 176.261L163.768 174.807C165.173 152.413 161.695 129.502 153.742 108.511C149.587 97.559 155.692 91.0749 162.1 84.2308C164.365 81.8362 166.73 79.3216 168.63 76.5697C172.803 70.5605 174.527 62.2913 173.539 53.2304C172.853 46.9791 170.993 40.9695 169.245 35.9233C168.877 34.8989 168.525 33.7342 168.198 32.5394C166.948 28.4227 165.535 23.7086 162.851 20.9963C155.624 13.7047 143.888 9.22637 134.427 5.63345L133.505 5.26924C130.83 4.2521 128.015 3.21946 125.06 2.17127C123.136 1.47766 121.183 0.758838 119.199 0.0148675C120.869 0.0355802 122.539 0.0563239 124.219 0.187405C124.68 0.369517 125.14 0.551612 125.626 0.703718C128.612 1.77708 131.427 2.80973 134.132 3.85204L135.053 4.21625C144.605 7.88471 156.541 12.4289 164.008 19.922Z" fill="#EACDC1"/>
<path d="M175.443 15.2513C176.581 16.8199 177.619 18.5086 178.56 20.3725C182.546 28.1145 184.538 36.8928 186.092 44.4861C187.681 52.1598 189.147 60.3446 188.072 68.3904C186.914 77.0829 182.773 84.0902 176.112 88.6766L175.926 88.7763C169.527 93.173 164.937 96.3271 164.242 104.59C163.719 111.003 165.739 117.248 167.994 123.64L169.246 127.145C173.976 140.216 178.83 153.748 177.464 167.686C177.184 170.213 176.765 172.724 176.285 175.185C175.626 178.774 174.951 182.503 174.968 186.199C175.026 195.758 179.56 204.676 183.959 213.327C184.094 213.593 184.258 213.885 184.367 214.181C183.95 214.495 183.503 214.785 183.055 215.074C182.886 214.727 182.717 214.381 182.547 214.034C178.053 205.252 173.42 196.149 173.384 186.199C173.356 182.392 174.051 178.578 174.706 174.934C175.135 172.533 175.61 170.017 175.839 167.55C177.184 154.004 172.345 140.637 167.709 127.697L166.457 124.192C164.103 117.614 162.038 111.177 162.648 104.479C163.39 95.4893 168.508 92.011 174.982 87.5243L175.138 87.3995C181.432 83.0676 185.356 76.4407 186.443 68.1994C187.482 60.3791 186.03 52.3599 184.481 44.8217C182.906 37.3136 180.929 28.7007 177.068 21.1146C175.559 18.1606 173.807 15.6169 171.889 13.3936C171.949 13.444 172.034 13.4644 172.094 13.5147L175.443 15.2513Z" fill="#EACDC1"/>
<path d="M188.574 23.9172C195.02 38.4783 198.075 51.4731 197.879 63.529C197.641 76.0613 194.033 85.3573 186.829 91.9931C185.772 92.9475 184.631 93.8814 183.514 94.7854C180.371 97.3124 177.439 99.7098 175.993 103.2C174.435 107.007 175.148 111.337 176.04 115.819C178.28 126.8 180.971 137.853 183.973 148.656L184.167 149.278C185.535 154.107 186.912 159.047 186.719 164.152C186.642 166.133 186.335 168.022 186.028 169.912C185.792 171.351 185.561 172.844 185.441 174.328C184.461 185.369 189.822 195.799 195.179 205.867C194.792 206.207 194.379 206.577 193.962 206.891C188.41 196.506 182.829 185.789 183.872 174.188C184.017 172.674 184.243 171.125 184.504 169.656C184.816 167.822 185.123 165.932 185.185 164.092C185.372 159.237 184.004 154.408 182.676 149.714L182.508 149.062C179.42 138.239 176.754 127.156 174.51 116.12C173.543 111.422 172.836 106.841 174.525 102.634C176.108 98.7975 179.352 96.1504 182.52 93.5934C183.612 92.7194 184.753 91.7855 185.784 90.8611C192.657 84.5603 196.102 75.6398 196.324 63.5538C196.537 51.0515 193.152 37.4739 186.023 22.083L186.083 22.1334L188.574 23.9172Z" fill="#EACDC1"/>
<path d="M197.006 30.9922L199.676 33.5389C203.216 42.5432 206.339 51.8621 207.193 61.6297C208.445 75.6164 204.4 88.1758 196.164 96.0419C195.394 96.7765 194.594 97.486 193.764 98.1702C191.772 99.8737 189.886 101.512 188.6 103.654C185.079 109.495 187.213 114.814 189.456 120.428C190.202 122.281 190.982 124.215 191.573 126.193C194.493 136.058 195.798 146.203 195.437 156.383C195.355 158.308 195.244 160.209 195.107 162.139C194.852 166.221 194.557 170.473 194.889 174.586C195.598 183.004 198.825 190.979 202.501 198.665C202.148 199.085 201.71 199.485 201.328 199.88C197.513 191.873 194.036 183.586 193.314 174.696C192.972 170.472 193.262 166.165 193.512 162.028C193.624 160.128 193.736 158.228 193.848 156.327C194.223 146.313 192.932 136.333 190.026 126.634C189.471 124.736 188.695 122.858 187.949 121.005C185.641 115.285 183.229 109.323 187.168 102.862C188.575 100.515 190.643 98.7213 192.635 97.0179C193.409 96.3384 194.239 95.6542 194.984 94.9496C202.913 87.3884 206.751 75.3197 205.543 61.8297C204.712 51.0591 200.955 40.8505 197.006 30.9922Z" fill="#EACDC1"/>
<path d="M209.738 44.6417L212.315 48.0308C213.562 52.7594 214.589 57.5073 215.15 62.3238C216.837 76.5226 213.552 89.8219 206.074 98.7337C205.298 99.719 204.433 100.629 203.597 101.564C199.922 105.639 196.146 109.834 196.862 114.831C197.185 116.944 198.332 118.929 199.474 120.859L199.993 121.703C206.873 133.612 209.567 148.196 207.335 161.764C207.079 163.288 206.772 164.872 206.431 166.375C205.671 170.084 204.896 173.933 205.059 177.7C205.258 182.52 206.968 187.125 209.04 191.42C208.687 191.84 208.309 192.29 207.932 192.741C205.635 188.104 203.696 183.102 203.479 177.755C203.297 173.767 204.118 169.803 204.898 166.009C205.209 164.48 205.52 162.952 205.776 161.428C207.957 148.225 205.378 133.993 198.636 122.405L198.148 121.586C196.941 119.551 195.699 117.435 195.346 114.992C194.513 109.282 198.571 104.812 202.472 100.467C203.308 99.5317 204.118 98.6268 204.899 97.6966C212.1 89.1149 215.258 76.2715 213.605 62.4589C212.888 56.4884 211.534 50.5457 209.738 44.6417Z" fill="#EACDC1"/>
<path d="M219.409 58.8926L221.632 63.0077C221.98 65.3961 222.273 67.7894 222.536 70.1575C223.426 78.4206 220.366 88.892 213.523 101.251C213.115 101.982 212.706 102.713 212.247 103.504C210.431 106.582 208.373 110.071 208.016 113.299C207.659 116.528 209.019 120.635 210.225 124.255C210.642 125.525 211.054 126.74 211.347 127.855L211.748 129.266C214.454 138.899 217.243 148.859 215.659 159.034C215.408 160.613 215.047 162.202 214.735 163.73C214.216 166.056 213.681 168.521 213.528 170.898C213.319 174.864 214.153 178.684 215.585 182.34C215.242 182.87 214.899 183.401 214.527 183.906C212.826 179.717 211.752 175.391 211.988 170.782C212.127 168.24 212.687 165.744 213.227 163.334C213.568 161.831 213.905 160.272 214.105 158.753C215.608 148.918 212.888 139.119 210.227 129.677L209.826 128.266C209.508 127.182 209.126 125.992 208.684 124.751C207.438 120.996 206.008 116.728 206.416 113.133C206.8 109.569 208.928 105.935 210.845 102.737C211.279 101.976 211.743 101.24 212.126 100.54C218.828 88.4705 221.806 78.3398 220.945 70.4078C220.612 66.6001 220.083 62.7817 219.409 58.8926Z" fill="#EACDC1"/>
<path d="M223.698 167.978C223.309 164.482 223.376 161.112 223.488 157.626C223.542 155.064 223.616 152.416 223.49 149.702C223.006 140.041 221.392 130.813 218.668 122.238C218.509 121.695 218.291 121.103 218.102 120.535C216.791 116.674 215.351 112.296 216.89 108.269C217.821 105.88 219.368 103.548 220.865 101.276C221.894 99.6849 222.877 98.2087 223.664 96.7219C226.522 91.2449 228.101 85.4627 228.768 79.4266C229.146 80.5613 229.523 81.6961 229.875 82.8609C229.036 87.8833 227.489 92.7729 225.061 97.4338C224.253 99.0058 223.195 100.572 222.192 102.133C220.745 104.345 219.247 106.617 218.387 108.861C217.051 112.342 218.412 116.449 219.643 120.039C219.862 120.632 220.051 121.199 220.239 121.766C223.028 130.447 224.657 139.841 225.15 149.613C225.281 152.381 225.212 155.084 225.133 157.677C225.074 160.184 225.006 162.582 225.138 165.044L223.698 167.978Z" fill="#EACDC1"/>
<path d="M233.045 139.108C232.148 134.571 231.004 130.083 229.59 125.675L229.089 124.079C227.798 120.132 226.498 116.076 226.598 111.813C226.758 106.016 228.992 100.732 231.161 95.6493C231.551 94.6977 231.94 93.7461 232.355 92.7645C232.572 93.663 232.735 94.5663 232.927 95.4948C232.836 95.7252 232.72 95.9856 232.629 96.216C230.506 101.184 228.342 106.322 228.182 111.813C228.084 115.77 229.349 119.746 230.6 123.557L231.101 125.154C232.133 128.372 233 131.605 233.761 134.902L233.045 139.108Z" fill="#EACDC1"/>
<path d="M53.2622 68.4797C51.965 67.9537 50.6358 68.0144 49.6308 68.6028C47.6759 69.7748 47.4516 72.2967 47.4454 74.1322C47.4602 81.61 48.3375 89.0957 50.0833 96.3386C51.3987 101.84 54.4262 105.3 57.5668 104.97C58.6405 104.848 59.54 104.325 60.2702 103.455C61.5794 101.894 62.3507 99.269 62.4376 95.8138C62.6253 87.79 60.7568 79.7794 57.0447 72.6251C56.4118 71.4293 55.6241 70.0525 54.3435 69.0802C54.0182 68.8584 53.6378 68.6415 53.2622 68.4797ZM55.663 73.3577C59.2706 80.2709 61.0598 88.0104 60.878 95.7834C60.7627 100.186 59.3883 103.226 57.4065 103.455C55.4799 103.679 52.8704 101.183 51.6391 96.0079C49.903 88.8753 49.0101 81.53 49.0051 74.1626C49.0092 72.9389 49.1199 71.3444 49.9005 70.4142C50.0515 70.2342 50.2326 70.0793 50.4437 69.9497C51.0517 69.5906 51.8592 69.6034 52.7207 69.9173C52.9811 70.0335 53.2163 70.1797 53.4816 70.3511C54.4369 71.1016 55.125 72.2926 55.663 73.3577Z" fill="#EACDC1"/>
<path d="M93.9285 212.64L94.0968 213.293C96.0189 220.326 98.002 227.103 100.001 233.74C99.4391 233.678 98.8728 233.56 98.3064 233.443C96.3571 227.052 94.4737 220.461 92.601 213.674L92.4027 212.996C89.3819 201.666 87.0134 199.066 85.5497 198.86C84.4819 198.731 83.4089 200.132 82.7629 201.328C81.5823 203.405 81.8043 205.944 82.1706 208.859L85.0061 230.464C84.465 230.317 83.9238 230.17 83.3527 229.997L80.6051 209.079C80.2823 206.661 79.8474 203.279 81.3912 200.586C82.7433 198.244 84.2315 197.14 85.7756 197.311C89.4902 197.82 92.0761 205.768 93.9285 212.64Z" fill="#EACDC1"/>
</g>
</g>
<defs>
<clipPath id="clip0">
<rect width="235" height="235" fill="white"/>
</clipPath>
</defs>
</svg>
