<svg width="40" height="40" viewBox="0 0 40 40" fill="none" xmlns="http://www.w3.org/2000/svg">
<path d="M13.8897 23.0161H20.2031L17.6094 31.3402C16.1617 35.9848 11.9193 39.1013 7.05351 39.1013H4.92222C3.25338 39.1013 1.90625 37.7542 1.90625 36.0853C1.90625 34.4165 3.25338 33.0694 4.92222 33.0694H7.05351C9.26522 33.0694 11.1954 31.6418 11.859 29.5507L13.8897 23.0161Z" fill="white"/>
<path d="M25.2313 6.93066L22.0947 16.9839H15.7812L18.9179 6.93066H25.2313Z" fill="white"/>
<path opacity="0.35" d="M4.92222 14.9735C3.25539 14.9735 1.90625 13.6223 1.90625 11.9575C1.90625 3.84453 8.51927 0.898926 12.9648 0.898926H35.0819C36.7488 0.898926 38.0979 2.25008 38.0979 3.9149C38.0979 5.57971 36.7488 6.93087 35.0819 6.93087H12.9648C11.8047 6.95299 7.93819 7.37723 7.93819 11.9575C7.93819 13.6223 6.58905 14.9735 4.92222 14.9735Z" fill="white"/>
<path opacity="0.35" d="M25.028 23.0163H10.9535C9.28664 23.0163 7.9375 21.6652 7.9375 20.0003C7.9375 18.3355 9.28664 16.9844 10.9535 16.9844H25.028C26.6948 16.9844 28.044 18.3355 28.044 20.0003C28.044 21.6652 26.6948 23.0163 25.028 23.0163Z" fill="white"/>
</svg>
