<svg width="180" height="37" viewBox="0 0 180 37" fill="none" xmlns="http://www.w3.org/2000/svg">
<path d="M52.496 25.6961C50.5656 25.6961 48.9735 25.3084 47.7196 24.5329C46.4822 23.7575 45.6161 22.7428 45.1211 21.489L48.2393 19.8803C48.5858 20.7218 49.1055 21.3735 49.7984 21.8354C50.5079 22.2974 51.4318 22.5284 52.5702 22.5284C53.0982 22.5284 53.5601 22.4624 53.9561 22.3304C54.3686 22.1984 54.715 22.0334 54.9955 21.8354C55.276 21.6374 55.4905 21.4147 55.6389 21.1672C55.7874 20.9033 55.8617 20.6475 55.8617 20.4C55.8617 20.0701 55.7709 19.7978 55.5895 19.5834C55.4245 19.3524 55.1687 19.1462 54.8223 18.9647C54.4758 18.7832 54.0386 18.6182 53.5106 18.4697C52.9827 18.3047 52.364 18.1232 51.6545 17.9253C50.9121 17.7273 50.1944 17.4963 49.5015 17.2323C48.825 16.9683 48.2146 16.6384 47.6701 16.2424C47.1422 15.8464 46.7132 15.368 46.3832 14.807C46.0698 14.2461 45.913 13.5696 45.913 12.7777C45.913 11.9858 46.078 11.2763 46.408 10.6494C46.7545 10.0224 47.2082 9.49448 47.7691 9.06551C48.3301 8.63655 48.9818 8.30658 49.7242 8.0756C50.4831 7.84462 51.2668 7.72913 52.0753 7.72913C53.6261 7.72913 54.9625 8.06735 56.0844 8.74379C57.2228 9.42023 58.0972 10.3524 58.7077 11.5403L55.54 13.1242C54.847 11.6558 53.6921 10.9216 52.0753 10.9216C51.2173 10.9216 50.5326 11.1196 50.0212 11.5156C49.5262 11.895 49.2787 12.3322 49.2787 12.8272C49.2787 13.1572 49.353 13.4294 49.5015 13.6439C49.65 13.8419 49.8727 14.0233 50.1697 14.1883C50.4831 14.3533 50.8791 14.51 51.3576 14.6585C51.8525 14.7905 52.43 14.9555 53.0899 15.1535C53.8489 15.368 54.5913 15.6072 55.3172 15.8712C56.0597 16.1352 56.7196 16.4734 57.2971 16.8858C57.891 17.2818 58.3612 17.7685 58.7077 18.346C59.0707 18.9234 59.2521 19.6411 59.2521 20.499C59.2521 21.291 59.0789 22.0087 58.7324 22.6521C58.386 23.2956 57.9075 23.84 57.2971 24.2855C56.7031 24.7309 55.9937 25.0774 55.1687 25.3249C54.3438 25.5724 53.4529 25.6961 52.496 25.6961Z" fill="#292C32"/>
<path d="M68.1217 25.3744C67.7588 25.4074 67.4123 25.4321 67.0823 25.4486C66.7689 25.4816 66.4636 25.4981 66.1667 25.4981C65.5562 25.4981 65.0035 25.4404 64.5086 25.3249C64.0301 25.1929 63.6176 24.9702 63.2712 24.6567C62.9412 24.3432 62.6855 23.9225 62.504 23.3945C62.339 22.8501 62.2565 22.1654 62.2565 21.3405V15.7474H59.9302V13.0004H62.2565V9.95644L65.3252 8.91703V13.0004H68.0723V15.7474H65.3252V21.1425C65.3252 21.7199 65.4655 22.1159 65.746 22.3304C66.0264 22.5284 66.4389 22.6274 66.9833 22.6274C67.2968 22.6274 67.6763 22.6026 68.1217 22.5531V25.3744Z" fill="#292C32"/>
<path d="M79.6243 24.0627C79.1953 24.5577 78.6839 24.9619 78.0899 25.2754C77.5125 25.5724 76.8278 25.7208 76.0359 25.7208C75.0789 25.7208 74.2128 25.5559 73.4373 25.2259C72.6784 24.8959 72.0267 24.4422 71.4822 23.8648C70.9543 23.2708 70.5418 22.5779 70.2448 21.7859C69.9644 20.994 69.8241 20.1361 69.8241 19.2122C69.8241 18.2882 69.9644 17.4303 70.2448 16.6384C70.5418 15.8299 70.9543 15.137 71.4822 14.5595C72.0267 13.9656 72.6784 13.5036 73.4373 13.1737C74.2128 12.8437 75.0789 12.6787 76.0359 12.6787C76.8278 12.6787 77.5125 12.8354 78.0899 13.1489C78.6839 13.4459 79.1953 13.8419 79.6243 14.3368V13.0004H82.693V25.3744H79.6243V24.0627ZM76.1101 22.8501C76.6216 22.8501 77.0918 22.7593 77.5207 22.5779C77.9497 22.3964 78.3209 22.1407 78.6344 21.8107C78.9479 21.4807 79.1871 21.093 79.3521 20.6475C79.5336 20.2021 79.6243 19.7154 79.6243 19.1874C79.6243 18.6594 79.5336 18.181 79.3521 17.752C79.1871 17.3066 78.9479 16.9271 78.6344 16.6136C78.3209 16.2836 77.9497 16.0279 77.5207 15.8464C77.0918 15.665 76.6216 15.5742 76.1101 15.5742C75.6151 15.5742 75.1697 15.6732 74.7737 15.8712C74.3777 16.0527 74.0313 16.3166 73.7343 16.6631C73.4538 16.9931 73.2311 17.3808 73.0661 17.8263C72.9176 18.2552 72.8434 18.7172 72.8434 19.2122C72.8434 19.7071 72.9176 20.1773 73.0661 20.6228C73.2311 21.0682 73.4538 21.456 73.7343 21.7859C74.0313 22.1159 74.3777 22.3799 74.7737 22.5779C75.1697 22.7593 75.6151 22.8501 76.1101 22.8501Z" fill="#292C32"/>
<path d="M92.3016 15.9207C92.1366 15.8712 91.9551 15.8464 91.7571 15.8464C90.7672 15.8464 89.9341 16.1269 89.2576 16.6879C88.5812 17.2323 88.2429 18.0243 88.2429 19.0637V25.3744H85.1742V13.0004H88.2429V15.2277C88.5069 14.6503 88.9606 14.1388 89.6041 13.6934C90.264 13.2314 91.1055 13.0004 92.1284 13.0004H92.5243L92.3016 15.9207Z" fill="#292C32"/>
<path d="M102.078 25.3744C101.715 25.4074 101.368 25.4321 101.038 25.4486C100.725 25.4816 100.419 25.4981 100.123 25.4981C99.5121 25.4981 98.9594 25.4404 98.4644 25.3249C97.9859 25.1929 97.5735 24.9702 97.227 24.6567C96.897 24.3432 96.6413 23.9225 96.4598 23.3945C96.2948 22.8501 96.2123 22.1654 96.2123 21.3405V15.7474H93.886V13.0004H96.2123V9.95644L99.2811 8.91703V13.0004H102.028V15.7474H99.2811V21.1425C99.2811 21.7199 99.4213 22.1159 99.7018 22.3304C99.9823 22.5284 100.395 22.6274 100.939 22.6274C101.253 22.6274 101.632 22.6026 102.078 22.5531V25.3744Z" fill="#292C32"/>
<path d="M104.271 13.0004H107.34V20.4C107.34 20.9115 107.423 21.3322 107.588 21.6622C107.753 21.9922 107.959 22.2561 108.206 22.4541C108.454 22.6521 108.726 22.7923 109.023 22.8748C109.337 22.9573 109.642 22.9986 109.939 22.9986C110.236 22.9986 110.533 22.9491 110.83 22.8501C111.127 22.7511 111.391 22.5861 111.622 22.3551C111.869 22.1077 112.067 21.7942 112.216 21.4147C112.364 21.0187 112.438 20.5238 112.438 19.9298V13.0004H115.482V25.3744H112.438V24.335C112.026 24.7144 111.547 25.0362 111.003 25.3001C110.458 25.5641 109.864 25.6961 109.221 25.6961C108.776 25.6961 108.264 25.6219 107.687 25.4734C107.126 25.3414 106.59 25.0774 106.078 24.6814C105.567 24.2855 105.138 23.7493 104.791 23.0728C104.445 22.3799 104.271 21.489 104.271 20.4V13.0004Z" fill="#292C32"/>
<path d="M117.995 13.0004H121.064V14.3121C121.493 13.8336 121.996 13.4459 122.574 13.1489C123.168 12.8354 123.861 12.6787 124.653 12.6787C125.609 12.6787 126.467 12.8437 127.226 13.1737C127.985 13.5036 128.629 13.9573 129.157 14.5348C129.701 15.1122 130.114 15.8052 130.394 16.6136C130.691 17.4056 130.839 18.2635 130.839 19.1874C130.839 20.1113 130.691 20.9775 130.394 21.7859C130.114 22.5779 129.701 23.2708 129.157 23.8648C128.629 24.4422 127.985 24.8959 127.226 25.2259C126.467 25.5559 125.609 25.7208 124.653 25.7208C123.861 25.7208 123.168 25.5724 122.574 25.2754C121.996 24.9619 121.493 24.5659 121.064 24.0875V30.324H117.995V13.0004ZM124.554 15.5247C124.042 15.5247 123.572 15.6237 123.143 15.8217C122.73 16.0032 122.367 16.2589 122.054 16.5889C121.741 16.9188 121.493 17.3066 121.312 17.752C121.147 18.1975 121.064 18.6842 121.064 19.2122C121.064 19.7401 121.147 20.2268 121.312 20.6723C121.493 21.1012 121.741 21.4807 122.054 21.8107C122.367 22.1242 122.73 22.3716 123.143 22.5531C123.572 22.7346 124.042 22.8253 124.554 22.8253C125.048 22.8253 125.494 22.7346 125.89 22.5531C126.302 22.3551 126.649 22.0912 126.929 21.7612C127.226 21.4147 127.449 21.027 127.598 20.598C127.762 20.1526 127.845 19.6824 127.845 19.1874C127.845 18.6924 127.762 18.2222 127.598 17.7768C127.449 17.3313 127.226 16.9436 126.929 16.6136C126.649 16.2672 126.302 16.0032 125.89 15.8217C125.494 15.6237 125.048 15.5247 124.554 15.5247Z" fill="#292C32"/>
<path d="M138.952 12.6787C139.876 12.6787 140.718 12.8519 141.477 13.1984C142.236 13.5284 142.887 13.9903 143.432 14.5843C143.976 15.1782 144.397 15.8712 144.694 16.6631C145.007 17.455 145.164 18.3047 145.164 19.2122C145.164 19.6081 145.131 19.9711 145.065 20.3011H135.488C135.702 21.1425 136.131 21.8189 136.775 22.3304C137.434 22.8253 138.243 23.0728 139.2 23.0728C139.81 23.0728 140.388 22.9491 140.932 22.7016C141.493 22.4376 141.914 22.0912 142.194 21.6622L144.545 23.0481C143.968 23.8895 143.225 24.5412 142.318 25.0032C141.411 25.4651 140.355 25.6961 139.15 25.6961C138.144 25.6961 137.22 25.5311 136.379 25.2011C135.554 24.8712 134.844 24.4175 134.25 23.84C133.673 23.2461 133.219 22.5531 132.889 21.7612C132.576 20.9693 132.419 20.1113 132.419 19.1874C132.419 18.2635 132.576 17.4056 132.889 16.6136C133.219 15.8217 133.665 15.137 134.226 14.5595C134.803 13.9821 135.496 13.5284 136.304 13.1984C137.113 12.8519 137.995 12.6787 138.952 12.6787ZM142.269 17.9005C142.153 17.0921 141.79 16.4651 141.18 16.0197C140.569 15.5742 139.81 15.3515 138.903 15.3515C138.424 15.3515 137.979 15.4257 137.566 15.5742C137.154 15.7062 136.791 15.8877 136.478 16.1187C136.164 16.3496 135.917 16.6219 135.735 16.9353C135.554 17.2323 135.455 17.554 135.438 17.9005H142.269Z" fill="#292C32"/>
<path d="M154.196 15.9207C154.031 15.8712 153.849 15.8464 153.651 15.8464C152.661 15.8464 151.828 16.1269 151.152 16.6879C150.475 17.2323 150.137 18.0243 150.137 19.0637V25.3744H147.068V13.0004H150.137V15.2277C150.401 14.6503 150.855 14.1388 151.498 13.6934C152.158 13.2314 152.999 13.0004 154.022 13.0004H154.418L154.196 15.9207Z" fill="#292C32"/>
<path d="M174.065 25.3744L170.08 19.1627L166.071 25.3744H162.21L167.828 16.6879L162.235 8.05085H166.096L170.08 14.2131L174.04 8.05085H177.925L172.332 16.6879L177.95 25.3744H174.065Z" fill="#292C32"/>
<circle r="5.84021" transform="matrix(1 0 0 -1 9.84411 28.5947)" fill="#FAAC04"/>
<path d="M19.8398 36.3909V36.3909C28.1813 36.3909 34.9434 29.6288 34.9434 21.2874V0.74057V0.74057C26.6019 0.74057 19.8398 7.50264 19.8398 15.8441V36.3909Z" fill="#097E78"/>
<path fill-rule="evenodd" clip-rule="evenodd" d="M2.71252 19.3775C3.09736 19.408 3.48642 19.4236 3.87912 19.4236C11.9147 19.4236 18.4288 12.9095 18.4288 4.87394C18.4288 4.30891 18.3965 3.75141 18.3339 3.20316C16.4032 1.66213 13.9561 0.740939 11.2938 0.740939C5.0564 0.740939 0 5.79734 0 12.0347C0 14.8382 1.02146 17.4031 2.71252 19.3775Z" fill="#055F5B"/>
</svg>
