<svg width="256" height="256" viewBox="0 0 256 256" fill="none" xmlns="http://www.w3.org/2000/svg">
<ellipse rx="41.9895" ry="41.9376" transform="matrix(1 0 0 -1 70.7708 200.017)" fill="#FAAC04"/>
<path d="M142.656 256V256C202.629 256 251.247 207.382 251.247 147.41V0.000739176V0.000739176C191.274 0.000739176 142.656 48.6183 142.656 108.591V256Z" fill="#1E756B"/>
<path fill-rule="evenodd" clip-rule="evenodd" d="M19.5021 133.829C22.2689 134.048 25.0661 134.16 27.8893 134.16C85.6628 134.16 132.497 87.3834 132.497 29.6814C132.497 25.624 132.266 21.6206 131.815 17.6836C117.935 6.618 100.34 0.0032196 81.1994 0.0032196C36.3542 0.0032196 0 36.3125 0 81.1022C0 101.233 7.34399 119.651 19.5021 133.829Z" fill="#055F5B"/>
</svg>
